<svg xmlns="http://www.w3.org/2000/svg" xmlns:xlink="http://www.w3.org/1999/xlink" width="178" height="178" viewBox="0 0 178 178">
  <defs>
    <clipPath id="clip-path">
      <rect id="Rectangle_407545" data-name="Rectangle 407545" width="93.289" height="92.417" fill="none"/>
    </clipPath>
  </defs>
  <g id="Group_1114935" data-name="Group 1114935" transform="translate(-358.785 -1735.999)">
    <g id="Group_1114015" data-name="Group 1114015" transform="translate(358.785 1736)">
      <path id="Path_882862" data-name="Path 882862" d="M89,0A89,89,0,1,1,0,89,89,89,0,0,1,89,0Z" transform="translate(0 -0.001)" fill="#c0afff"/>
      <path id="Path_882863" data-name="Path 882863" d="M78.668,0A78.668,78.668,0,1,1,0,78.668,78.668,78.668,0,0,1,78.668,0Z" transform="translate(10.332 10.331)" fill="#f3f9ff"/>
    </g>
    <g id="Group_1114018" data-name="Group 1114018" transform="translate(397.785 1775)">
      <rect id="Rectangle_401104" data-name="Rectangle 401104" width="99.117" height="100.574" fill="none"/>
      <g id="Group_1114627" data-name="Group 1114627" transform="translate(3.926 3)">
        <g id="Group_1114626" data-name="Group 1114626" transform="translate(0 0)" clip-path="url(#clip-path)">
          <path id="Path_919160" data-name="Path 919160" d="M42.7,43.417a.9.9,0,0,1-.7-.348l-6.092-6.092a1.108,1.108,0,0,1,1.566-1.566L43.569,41.5a1.3,1.3,0,0,1,0,1.566,1.125,1.125,0,0,1-.87.348" transform="translate(26.397 26.026)" fill="#9d0388"/>
          <path id="Path_919161" data-name="Path 919161" d="M51.44,3.7A6.44,6.44,0,1,1,45,10.14,6.44,6.44,0,0,1,51.44,3.7" transform="translate(33.32 2.739)" fill="#6bfcf2"/>
          <path id="Path_919162" data-name="Path 919162" d="M8.68,43.7A8.18,8.18,0,1,1,.5,51.88,8.179,8.179,0,0,1,8.68,43.7" transform="translate(0.37 32.357)" fill="#6bfcf2"/>
          <path id="Path_919163" data-name="Path 919163" d="M60.56,49.468a7.564,7.564,0,0,1,0,10.791,7.669,7.669,0,0,1-10.791,0l-9.224-9.224A7.63,7.63,0,0,1,51.334,40.244Z" transform="translate(28.378 28.155)" fill="#9d0388"/>
          <path id="Path_919164" data-name="Path 919164" d="M62.22,11.1a35.936,35.936,0,1,1-50.821,0,35.821,35.821,0,0,1,50.821,0" transform="translate(0.611 0.389)" fill="#9d0388"/>
          <path id="Path_919165" data-name="Path 919165" d="M32.162,6.8A25.062,25.062,0,1,1,7.1,31.862,25.069,25.069,0,0,1,32.162,6.8" transform="translate(5.258 5.035)" fill="#ffe4fa"/>
          <path id="Path_919166" data-name="Path 919166" d="M53.366,16.8A1.566,1.566,0,1,1,51.8,18.366,1.567,1.567,0,0,1,53.366,16.8" transform="translate(38.355 12.439)" fill="#4d3aff"/>
          <path id="Path_919167" data-name="Path 919167" d="M47.166,30.6A1.566,1.566,0,1,1,45.6,32.166,1.567,1.567,0,0,1,47.166,30.6" transform="translate(33.765 22.657)" fill="#4d3aff"/>
          <path id="Path_919168" data-name="Path 919168" d="M39.666,0A1.566,1.566,0,1,1,38.1,1.566,1.567,1.567,0,0,1,39.666,0" transform="translate(28.211 0)" fill="#4d3aff"/>
          <path id="Path_919169" data-name="Path 919169" d="M36.566,50.6A1.566,1.566,0,1,1,35,52.166,1.565,1.565,0,0,1,36.566,50.6" transform="translate(25.915 37.466)" fill="#4d3aff"/>
          <path id="Path_919170" data-name="Path 919170" d="M23.816,23.454V20.669c-1.043.174-1.565.522-1.565,1.218a1.329,1.329,0,0,0,.348.87,2.8,2.8,0,0,0,1.217.7m1.046,4.177v2.611c1.218,0,1.74-.522,1.74-1.218a.96.96,0,0,0-.522-.87,4.158,4.158,0,0,0-1.218-.522m0-6.788V23.8l.694.174a9.793,9.793,0,0,1,2.09.7,7.093,7.093,0,0,1,1.566.87,9.783,9.783,0,0,1,1.044,1.392,6.257,6.257,0,0,1,.348,1.914,3.712,3.712,0,0,1-.522,2.089,4.692,4.692,0,0,1-1.218,1.392,5.444,5.444,0,0,1-1.74.87,8.75,8.75,0,0,1-2.089.348v2.611H23.469V33.549a8.2,8.2,0,0,1-2.959-.7A9.051,9.051,0,0,1,17.9,31.634L19.465,28.5a2.193,2.193,0,0,0,.524.348,2.834,2.834,0,0,0,1.044.522,11.992,11.992,0,0,0,1.392.522,5.071,5.071,0,0,0,1.566.348V27.283l-1.046-.348c-.694-.174-1.391-.522-1.913-.7a3.79,3.79,0,0,1-1.392-.87,2.805,2.805,0,0,1-.7-1.218c-.35-.348-.35-.87-.35-1.566a8.739,8.739,0,0,1,.35-2.089l1.044-1.566c.346-.522,1.044-.7,1.566-1.044.7-.174,1.218-.348,1.914-.522V15.1h1.566v2.263a13.038,13.038,0,0,1,2.785.7c.87.348,1.566.7,2.263,1.044l-1.566,2.959-.35-.348a1.322,1.322,0,0,0-.87-.348l-1.043-.522Z" transform="translate(13.254 11.18)" fill="#3a2292"/>
          <path id="Path_919171" data-name="Path 919171" d="M19.066,46.2A1.566,1.566,0,1,1,17.5,47.766,1.565,1.565,0,0,1,19.066,46.2" transform="translate(12.958 34.208)" fill="#4d3aff"/>
          <path id="Path_919172" data-name="Path 919172" d="M2.166,1.8A1.566,1.566,0,1,1,.6,3.366,1.567,1.567,0,0,1,2.166,1.8" transform="translate(0.445 1.333)" fill="#4d3aff"/>
          <path id="Path_919173" data-name="Path 919173" d="M1.566,36.2A1.566,1.566,0,1,1,0,37.766,1.565,1.565,0,0,1,1.566,36.2" transform="translate(0 26.804)" fill="#4d3aff"/>
          <path id="Path_919174" data-name="Path 919174" d="M29.349,38A16.34,16.34,0,0,1,12.99,21.644,1.125,1.125,0,0,0,11.944,20.6,1.123,1.123,0,0,0,10.9,21.644,18.458,18.458,0,0,0,29.349,40.093a1.125,1.125,0,0,0,1.046-1.044A1,1,0,0,0,29.349,38" transform="translate(8.071 15.253)" fill="#3a2292"/>
          <path id="Path_919175" data-name="Path 919175" d="M21.944,10.6A1.123,1.123,0,0,0,20.9,11.644a1.123,1.123,0,0,0,1.044,1.044A16.341,16.341,0,0,1,38.3,29.049a1.045,1.045,0,0,0,2.09,0A18.242,18.242,0,0,0,21.944,10.6" transform="translate(15.475 7.848)" fill="#3a2292"/>
        </g>
      </g>
    </g>
  </g>
</svg>
