<svg xmlns="http://www.w3.org/2000/svg" xmlns:xlink="http://www.w3.org/1999/xlink" width="129" height="128" viewBox="0 0 129 128">
  <defs>
    <radialGradient id="radial-gradient" cx="0.5" cy="0.5" r="0.5" gradientUnits="objectBoundingBox">
      <stop offset="0" stop-color="#3a2292"/>
      <stop offset="1" stop-color="#170551"/>
    </radialGradient>
    <clipPath id="clip-path">
      <rect id="Rectangle_406617" data-name="Rectangle 406617" width="109.997" height="109.997" stroke="rgba(0,0,0,0)" stroke-miterlimit="10" stroke-width="1" fill="url(#radial-gradient)"/>
    </clipPath>
    <clipPath id="clip-path-2">
      <rect id="Rectangle_400938" data-name="Rectangle 400938" width="120" height="120" fill="none"/>
    </clipPath>
    <clipPath id="clip-path-3">
      <rect id="Rectangle_401492" data-name="Rectangle 401492" width="73.543" height="73.543" transform="translate(0 0)" fill="#fff" stroke="#707070" stroke-width="1"/>
    </clipPath>
    <clipPath id="clip-path-4">
      <rect id="Rectangle_407571" data-name="Rectangle 407571" width="57.067" height="69.543" fill="#fff"/>
    </clipPath>
  </defs>
  <g id="Group_1114058" data-name="Group 1114058" transform="translate(-390 -2746)">
    <g id="Grupo_108927" data-name="Grupo 108927" transform="translate(0 -1721)">
      <path id="Rectángulo_36179" data-name="Rectángulo 36179" d="M0,0H129V128H0Z" transform="translate(390 4467)" fill="#eae5ff"/>
    </g>
    <g id="Group_1112835" data-name="Group 1112835" transform="translate(400 2755)">
      <g id="Group_1112834" data-name="Group 1112834" clip-path="url(#clip-path)">
        <path id="Path_917479" data-name="Path 917479" d="M108.876,65.415l-5.382-4.43a48.4,48.4,0,0,0-.549-15.468l5.04-4.8a3.066,3.066,0,0,0,.674-3.5l-5.11-11.178a3.073,3.073,0,0,0-2.788-1.791c-.1,0-.2,0-.3.014l-6.94.673A49.134,49.134,0,0,0,82.2,14.391l.171-6.957a3.068,3.068,0,0,0-2-2.949L68.855.194A3.059,3.059,0,0,0,67.784,0h0A3.054,3.054,0,0,0,65.415,1.12L60.984,6.5a48.4,48.4,0,0,0-15.467.549l-4.8-5.04A3.082,3.082,0,0,0,38.5,1.059a3.043,3.043,0,0,0-1.276.278L26.042,6.448a3.069,3.069,0,0,0-1.777,3.086l.673,6.942A49.125,49.125,0,0,0,14.389,27.8l-6.957-.171H7.356a3.079,3.079,0,0,0-2.873,2L.192,41.143a3.071,3.071,0,0,0,.923,3.438L6.5,49.013A48.4,48.4,0,0,0,7.051,64.48l-5.041,4.8a3.068,3.068,0,0,0-.673,3.5l5.11,11.178a3.074,3.074,0,0,0,2.789,1.792c.1,0,.2,0,.3-.014l6.942-.674A49.137,49.137,0,0,0,27.8,95.608l-.171,6.957a3.068,3.068,0,0,0,2,2.95l11.517,4.291a3.072,3.072,0,0,0,3.439-.926l4.431-5.383a48.394,48.394,0,0,0,15.467-.549l4.8,5.04a3.08,3.08,0,0,0,2.221.952,3.048,3.048,0,0,0,1.275-.277l11.18-5.111a3.07,3.07,0,0,0,1.777-3.087l-.673-6.941A49.121,49.121,0,0,0,95.606,82.2l6.957.171h.076a3.079,3.079,0,0,0,2.873-2L109.8,68.856a3.068,3.068,0,0,0-.927-3.44" transform="translate(0 0)" stroke="rgba(0,0,0,0)" stroke-miterlimit="10" stroke-width="1" fill="url(#radial-gradient)"/>
      </g>
    </g>
    <g id="Group_1110743" data-name="Group 1110743" transform="translate(420.432 2773.223)">
      <rect id="Rectangle_401104" data-name="Rectangle 401104" width="68.522" height="69.627" transform="translate(0.079 -0.223)" fill="none"/>
      <g id="Mask_Group_1098697" data-name="Mask Group 1098697" transform="translate(-2.432 -0.223)" clip-path="url(#clip-path-3)">
        <g id="Group_1114643" data-name="Group 1114643" transform="translate(8 2)">
          <g id="Group_1114642" data-name="Group 1114642" transform="translate(0 0)" clip-path="url(#clip-path-4)">
            <path id="Path_919287" data-name="Path 919287" d="M19.642,63.994H10.377a1.635,1.635,0,0,1-1.606-1.6V26.2a1.521,1.521,0,0,1,.617-1.235,1.715,1.715,0,0,1,1.36-.247,15.651,15.651,0,0,0,4.2.617,15.677,15.677,0,0,0,4.2-.617,1.344,1.344,0,0,1,1.359.247,1.52,1.52,0,0,1,.616,1.235V62.389a1.617,1.617,0,0,1-1.481,1.6M11.86,60.907h6.176V28.173a17.32,17.32,0,0,1-6.176,0Z" transform="translate(1.975 5.548)" fill="#fff"/>
            <path id="Path_919288" data-name="Path 919288" d="M16.923,33.968a17.345,17.345,0,0,1-5.065-.741,17,17,0,0,1-8.523-6.053A16.607,16.607,0,0,1,0,17.045a17.046,17.046,0,0,1,34.092,0,16.607,16.607,0,0,1-3.335,10.128,17,17,0,0,1-8.523,6.053,20.387,20.387,0,0,1-5.311.741m-4.2-3.706a15.66,15.66,0,0,0,4.2.617,15.66,15.66,0,0,0,4.2-.617A13.918,13.918,0,1,0,2.965,17.045a14.058,14.058,0,0,0,9.758,13.217" transform="translate(0 0)" fill="#fff"/>
            <path id="Path_919289" data-name="Path 919289" d="M15.357,23.856a8.4,8.4,0,1,1,8.4-8.4,8.407,8.407,0,0,1-8.4,8.4m0-13.834a5.312,5.312,0,1,0,5.31,5.312,5.273,5.273,0,0,0-5.31-5.312" transform="translate(1.566 1.589)" fill="#fff"/>
            <path id="Path_919290" data-name="Path 919290" d="M30.291,54.657H17.939a1.635,1.635,0,0,1-1.606-1.606V46.875a1.635,1.635,0,0,1,1.606-1.606H30.291A1.635,1.635,0,0,1,31.9,46.875v6.176a1.833,1.833,0,0,1-1.606,1.606M19.422,51.569h9.265V48.481H19.422Z" transform="translate(3.677 10.192)" fill="#fff"/>
            <path id="Path_919291" data-name="Path 919291" d="M27.2,44.574H17.939a1.635,1.635,0,0,1-1.606-1.6V36.793a1.635,1.635,0,0,1,1.606-1.606H27.2a1.635,1.635,0,0,1,1.6,1.606v6.176a1.832,1.832,0,0,1-1.6,1.6m-7.782-3.087H25.6V38.4H19.422Z" transform="translate(3.677 7.922)" fill="#fff"/>
            <rect id="Rectangle_407562" data-name="Rectangle 407562" width="3.089" height="4.694" transform="translate(41.627 26.31)" fill="#fff"/>
            <rect id="Rectangle_407563" data-name="Rectangle 407563" width="3.089" height="3.087" transform="translate(41.627 47.926)" fill="#fff"/>
            <rect id="Rectangle_407564" data-name="Rectangle 407564" width="3.089" height="3.087" transform="translate(41.627 54.102)" fill="#fff"/>
            <rect id="Rectangle_407565" data-name="Rectangle 407565" width="3.089" height="10.869" transform="translate(41.627 33.968)" fill="#fff"/>
            <rect id="Rectangle_407566" data-name="Rectangle 407566" width="3.089" height="4.694" transform="translate(53.979 37.057)" fill="#fff"/>
            <rect id="Rectangle_407567" data-name="Rectangle 407567" width="3.089" height="3.087" transform="translate(53.979 58.672)" fill="#fff"/>
            <rect id="Rectangle_407568" data-name="Rectangle 407568" width="3.089" height="10.871" transform="translate(53.979 44.838)" fill="#fff"/>
            <rect id="Rectangle_407569" data-name="Rectangle 407569" width="3.089" height="4.695" transform="translate(47.803 44.838)" fill="#fff"/>
            <rect id="Rectangle_407570" data-name="Rectangle 407570" width="3.089" height="10.869" transform="translate(47.803 30.881)" fill="#fff"/>
          </g>
        </g>
      </g>
    </g>
  </g>
</svg>
