<svg xmlns="http://www.w3.org/2000/svg" xmlns:xlink="http://www.w3.org/1999/xlink" width="104.668" height="126" viewBox="0 0 104.668 126">
  <defs>
    <clipPath id="clip-path">
      <rect id="Rectangle_407420" data-name="Rectangle 407420" width="73" height="73" transform="translate(275.328 9379.664)" fill="#fff" stroke="#707070" stroke-width="1"/>
    </clipPath>
    <clipPath id="clip-path-2">
      <rect id="Rectangle_407417" data-name="Rectangle 407417" width="63.475" height="70.682" fill="#fff" stroke="#3d034b" stroke-width="3"/>
    </clipPath>
    <clipPath id="clip-path-3">
      <rect id="Rectangle_407419" data-name="Rectangle 407419" width="42.467" height="44.002" transform="translate(-0.301 -0.295)" fill="#3a2292" stroke="#707070" stroke-width="1"/>
    </clipPath>
    <clipPath id="clip-path-4">
      <rect id="Rectangle_407876" data-name="Rectangle 407876" width="40.699" height="35.6" fill="#3a2292"/>
    </clipPath>
  </defs>
  <g id="Group_1115000" data-name="Group 1115000" transform="translate(-809.979 -1868.066)">
    <rect id="Rectangle_407400" data-name="Rectangle 407400" width="104.668" height="126" transform="translate(809.979 1868.066)" fill="#3a2292"/>
    <g id="Mask_Group_1110966" data-name="Mask Group 1110966" transform="translate(550.65 -7485.098)" clip-path="url(#clip-path)">
      <g id="Group_1114497" data-name="Group 1114497" transform="translate(280.131 9380.624)" clip-path="url(#clip-path-2)">
        <path id="Path_918676" data-name="Path 918676" d="M27.452,63.948A42.13,42.13,0,0,1,6.56,49.078,35.558,35.558,0,0,1,.011,31.658C0,31.568,0,31.482,0,31.392V10.025a3.181,3.181,0,0,1,2.824-3.04C10.9,5.713,22.791,1.815,27.528.2a3.73,3.73,0,0,1,2.393,0C33.635,1.458,46.4,5.675,54.771,6.987a3.179,3.179,0,0,1,2.825,3.04V31.391c0,.09,0,.176-.013.264A35.552,35.552,0,0,1,51.037,49.08c-6.024,8.366-16.761,13.146-21.1,14.814a3.7,3.7,0,0,1-2.488.057" transform="translate(2.939 3.272)" fill="#fff" stroke="#ff85e7" stroke-width="3"/>
      </g>
      <g id="Mask_Group_1110965" data-name="Mask Group 1110965" transform="translate(291.362 9392.394)" clip-path="url(#clip-path-3)">
        <g id="Group_1114864" data-name="Group 1114864" transform="translate(0.699 3.705)">
          <g id="Group_1114863" data-name="Group 1114863" clip-path="url(#clip-path-4)">
            <path id="Path_920853" data-name="Path 920853" d="M31.091.493a.593.593,0,0,1,.636-.406c2.628.2,5.661-.273,8.239,0a.964.964,0,0,1,.492.143,1.3,1.3,0,0,1,.149.722,47.929,47.929,0,0,1,0,5.925c-.054.648-.111.7-.754.754a61.148,61.148,0,0,1-8.013,0c-.25-.021-.749-.071-.749-.411V4.843H28.075V15.978c.743.058,1.066.737,1.468,1.258l1.548.018V14.412c0-.246.4-.431.636-.406,2.628.2,5.661-.273,8.239,0a.964.964,0,0,1,.492.143,1.3,1.3,0,0,1,.149.722,47.929,47.929,0,0,1,0,5.925c-.054.648-.111.7-.754.754a61.148,61.148,0,0,1-8.013,0c-.25-.021-.749-.071-.749-.411V18.3l-1.548.018c-.4.52-.726,1.2-1.468,1.258V30.709h3.016V28.331c0-.246.4-.431.636-.406,2.628.2,5.661-.273,8.239,0a.964.964,0,0,1,.492.143,1.3,1.3,0,0,1,.149.722,47.929,47.929,0,0,1,0,5.925c-.054.648-.111.7-.754.754a61.149,61.149,0,0,1-8.013,0c-.25-.021-.749-.071-.749-.411V31.637H27.438a1.038,1.038,0,0,1-.23-.234l-.055-11.752c-.592-.293-1.218-.618-1.281-1.354H23.436v8.409l-.342.238L.871,27l-.605-.148-.148-.605c.293-5.5-.373-11.373,0-16.828C.15,8.931.086,8.644.65,8.565a43.116,43.116,0,0,1,6.378-.016c1.06.1.9.959,1.386,1.05l13.815.1c.353.278.073,2.257.162,2.8.235-.056,1.044.006,1.044.289v4.466h2.436c.008-.753.71-1.048,1.281-1.354l.055-11.752a1.035,1.035,0,0,1,.23-.234h3.654c.129-1.019-.175-2.459,0-3.422m8.583.638H32.019V6.583h7.655ZM7.2,9.6H1.05V25.953H22.508V13.426H9.807Zm14.267.928H9.053c.2.718.931,1.242,1.16,1.972H21.464ZM39.675,15.05H32.019V20.5h7.655Zm-11.4,2.009c-1.028-.94-2.328.9-1.05,1.571.99.523,1.8-.885,1.05-1.571m11.4,11.91H32.019v5.452h7.655Z" transform="translate(0 0)" fill="#3a2292"/>
            <path id="Path_920854" data-name="Path 920854" d="M282.893,28.235c.13-.129.424-.133.6-.148a32.645,32.645,0,0,1,4.647,0c.9.1.9.944,0,1.048a32.085,32.085,0,0,1-4.76,0c-.545-.063-.916-.48-.492-.9" transform="translate(-249.918 -24.757)" fill="#3a2292"/>
            <path id="Path_920855" data-name="Path 920855" d="M288.941,43h-5.626c-.225,0-.709-.828.459-.933a31.572,31.572,0,0,1,4.753.013c.621.1.593.412.414.92" transform="translate(-250.195 -37.116)" fill="#3a2292"/>
            <path id="Path_920856" data-name="Path 920856" d="M283.175,15.8l5.309-.02c.7.285.51.841-.227.927a32.055,32.055,0,0,1-4.76,0c-.658-.077-.928-.512-.322-.906" transform="translate(-250.03 -13.948)" fill="#3a2292"/>
            <path id="Path_920857" data-name="Path 920857" d="M282.893,268.96c-.424-.422-.053-.84.492-.9a32.089,32.089,0,0,1,4.76,0c.9.1.9.946,0,1.048a32.64,32.64,0,0,1-4.647,0c-.181-.015-.475-.019-.6-.148" transform="translate(-249.918 -236.887)" fill="#3a2292"/>
            <path id="Path_920858" data-name="Path 920858" d="M288.941,255.75c.18.508.207.824-.414.92a31.575,31.575,0,0,1-4.753.013c-1.168-.106-.684-.933-.459-.933Z" transform="translate(-250.195 -226.085)" fill="#3a2292"/>
            <path id="Path_920859" data-name="Path 920859" d="M283.377,282.166a33.468,33.468,0,0,1,4.964-.028c.5.058.95.452.472.825-.427.333-4.609-.031-5.458.1-.544-.1-.591-.765.023-.9" transform="translate(-250.114 -249.343)" fill="#3a2292"/>
            <path id="Path_920860" data-name="Path 920860" d="M283.241,148.206a35.088,35.088,0,0,1,5.07-.018c.775.119.772.937-.106,1.038a32.115,32.115,0,0,1-4.866-.01c-.717-.111-.744-.87-.1-1.01" transform="translate(-249.978 -130.926)" fill="#3a2292"/>
            <path id="Path_920861" data-name="Path 920861" d="M288.941,163h-5.626c-.225,0-.709-.828.459-.933a31.574,31.574,0,0,1,4.753.013c.621.1.593.412.414.92" transform="translate(-250.195 -143.197)" fill="#3a2292"/>
            <path id="Path_920862" data-name="Path 920862" d="M283.175,135.8l5.309-.02c.7.285.51.841-.227.927a32.054,32.054,0,0,1-4.76,0c-.658-.077-.928-.511-.322-.906" transform="translate(-250.03 -120.029)" fill="#3a2292"/>
          </g>
        </g>
      </g>
    </g>
  </g>
</svg>
