<svg xmlns="http://www.w3.org/2000/svg" xmlns:xlink="http://www.w3.org/1999/xlink" width="104.668" height="126" viewBox="0 0 104.668 126">
  <defs>
    <clipPath id="clip-path">
      <rect id="Rectangle_407416" data-name="Rectangle 407416" width="73" height="73" transform="translate(275.328 9379.664)" fill="#fff" stroke="#707070" stroke-width="1"/>
    </clipPath>
    <clipPath id="clip-path-2">
      <rect id="Rectangle_407413" data-name="Rectangle 407413" width="63.475" height="70.682" fill="#fff" stroke="#3d034b" stroke-width="3"/>
    </clipPath>
    <clipPath id="clip-path-3">
      <rect id="Rectangle_407415" data-name="Rectangle 407415" width="42.467" height="44.002" transform="translate(-0.301 -0.045)" fill="#3a2292" stroke="#707070" stroke-width="1"/>
    </clipPath>
    <clipPath id="clip-path-4">
      <rect id="Rectangle_407881" data-name="Rectangle 407881" width="32.4" height="42.38" fill="#3a2292"/>
    </clipPath>
  </defs>
  <g id="Group_1114998" data-name="Group 1114998" transform="translate(-809.979 -1727.816)">
    <rect id="Rectangle_407399" data-name="Rectangle 407399" width="104.668" height="126" transform="translate(809.979 1727.816)" fill="#3a2292"/>
    <g id="Mask_Group_1110964" data-name="Mask Group 1110964" transform="translate(550.65 -7625.348)" clip-path="url(#clip-path)">
      <g id="Group_1114494" data-name="Group 1114494" transform="translate(280.131 9380.624)" clip-path="url(#clip-path-2)">
        <path id="Path_918667" data-name="Path 918667" d="M27.452,63.948A42.13,42.13,0,0,1,6.56,49.078,35.558,35.558,0,0,1,.011,31.658C0,31.568,0,31.482,0,31.392V10.025a3.181,3.181,0,0,1,2.824-3.04C10.9,5.713,22.791,1.815,27.528.2a3.73,3.73,0,0,1,2.393,0C33.635,1.458,46.4,5.675,54.771,6.987a3.179,3.179,0,0,1,2.825,3.04V31.391c0,.09,0,.176-.013.264A35.552,35.552,0,0,1,51.037,49.08c-6.024,8.366-16.761,13.146-21.1,14.814a3.7,3.7,0,0,1-2.488.057" transform="translate(2.939 3.272)" fill="#fff" stroke="#ff85e7" stroke-width="3"/>
      </g>
      <g id="Mask_Group_1110963" data-name="Mask Group 1110963" transform="translate(291.362 9392.394)" clip-path="url(#clip-path-3)">
        <g id="Group_1114866" data-name="Group 1114866" transform="translate(4.699 0.955)">
          <g id="Group_1114865" data-name="Group 1114865" clip-path="url(#clip-path-4)">
            <path id="Path_920863" data-name="Path 920863" d="M9.748,100.124H5.375V95.63H9.869V100l1.518-1.456c.212.168.393.552.7.471a12.426,12.426,0,0,0,1.187-1.136,1,1,0,0,0-.312-1.037H11.205V95.63l1.217-.062-.494-2.238-.521-.024-.184-.183L11.2,91.986h.607c.017-.709.429-1.2-.607-1.092V89.678l.961-.011.74-2.3h-1.7V86.157h2.368l.91-.912v-.181h-3.1c-.346-.321-.127-.9-.182-1.336h4.919c.12,0,1.643-1,2.094-1.186A10.317,10.317,0,0,1,31.908,95.261c-1.981,6.383-9.731,9.007-15.361,5.526l-1.453,1.463.475.5L4.1,114.21l-2.28-.022A18.889,18.889,0,0,1,.146,112.58c-.3-.52-.039-1.993-.09-2.654Zm12-17.089c-11.166.355-11.439,17.115-.52,18.059,12.666,1.094,13.262-18.464.52-18.059M8.655,96.845H6.59v2.065H8.655Zm5.526,1.824-1.266,1.378,1.266,1.29,1.267-1.378ZM1.414,110.246a1.948,1.948,0,0,0,2.38,2.689l10.081-10.079-2.547-2.433Z" transform="translate(0 -71.833)" fill="#3a2292"/>
            <path id="Path_920864" data-name="Path 920864" d="M66.1,2.421H72.29V8.737H56.258V2.421h6.194c-.422-3.277,3.92-3.179,3.644,0m-1.335,0c.283-1.66-1.313-1.559-1.094,0Zm6.194,1.214H57.473V7.522H70.954Z" transform="translate(-49.425 0)" fill="#3a2292"/>
            <path id="Path_920865" data-name="Path 920865" d="M76.456,240.935v13.117h-23.2v-1.215H75.12v-11.9Z" transform="translate(-46.79 -211.672)" fill="#3a2292"/>
            <path id="Path_920866" data-name="Path 920866" d="M5.967,34.935V36.15H1.473V66.635H.258v-31.7Z" transform="translate(-0.227 -30.692)" fill="#3a2292"/>
            <path id="Path_920867" data-name="Path 920867" d="M26.173,53.935V55.15h-1.7V80.534H23.258v-26.6Z" transform="translate(-20.433 -47.384)" fill="#3a2292"/>
            <path id="Path_920868" data-name="Path 920868" d="M107.047,253.935v6.923H91.258v-1.215h14.453v-5.708Z" transform="translate(-80.175 -223.093)" fill="#3a2292"/>
            <path id="Path_920869" data-name="Path 920869" d="M48.752,102.55H44.258V97.935h4.494Zm-1.215-3.279H45.473v1.943h2.065Z" transform="translate(-38.883 -86.04)" fill="#3a2292"/>
            <path id="Path_920870" data-name="Path 920870" d="M48.752,151.429H44.258v-4.494h4.494Zm-1.215-1.215v-1.883l-.182-.182H45.473v2.065Z" transform="translate(-38.883 -129.089)" fill="#3a2292"/>
            <path id="Path_920871" data-name="Path 920871" d="M202.088,34.935v7.044c-.434-.055-1.016.163-1.336-.182V36.15h-4.494V34.935Z" transform="translate(-172.421 -30.692)" fill="#3a2292"/>
            <rect id="Rectangle_407877" data-name="Rectangle 407877" width="6.316" height="1.215" transform="translate(21.043 39.101)" fill="#3a2292"/>
            <path id="Path_920872" data-name="Path 920872" d="M199.295,53.935v3.158h-1.336V55.15h-1.7V53.935Z" transform="translate(-172.422 -47.384)" fill="#3a2292"/>
            <rect id="Rectangle_407878" data-name="Rectangle 407878" width="1.337" height="1.216" transform="translate(16.792 39.1)" fill="#3a2292"/>
            <rect id="Rectangle_407879" data-name="Rectangle 407879" width="1.216" height="1.216" transform="translate(18.978 39.1)" fill="#3a2292"/>
            <path id="Path_920873" data-name="Path 920873" d="M126.61,104.79c8.433-.95,11.924,9.95,4.876,13.985a7.535,7.535,0,0,1-11.008-8.579,7.617,7.617,0,0,1,6.132-5.406m-3.331,11.948c5.849,5.856,14.9-3.245,8.766-9.07-5.9-5.6-14.6,3.229-8.766,9.07" transform="translate(-105.594 -92.011)" fill="#3a2292"/>
            <path id="Path_920874" data-name="Path 920874" d="M39.313,276.866l3.865-3.9.17,0c.2.293.98.667.68,1.033l-3.955,3.941c-.2-.275-.93-.687-.761-1.068" transform="translate(-34.516 -239.808)" fill="#3a2292"/>
            <path id="Path_920875" data-name="Path 920875" d="M77.895,262.689c.006-.3-.885-.742-.737-.958l.892-.722.8.885c-.182.176-.713.892-.952.795" transform="translate(-67.772 -229.308)" fill="#3a2292"/>
            <path id="Path_920876" data-name="Path 920876" d="M90.311,249.785a5.146,5.146,0,0,1,.762-.6l.779.864-.781.8c-.2-.274-.931-.689-.761-1.068" transform="translate(-79.32 -218.921)" fill="#3a2292"/>
            <path id="Path_920877" data-name="Path 920877" d="M144.658,44.935V46.15h-3.522c.045-.4-.151-.925.182-1.215Z" transform="translate(-123.979 -39.477)" fill="#3a2292"/>
            <rect id="Rectangle_407880" data-name="Rectangle 407880" width="1.337" height="1.216" transform="translate(15.091 5.457)" fill="#3a2292"/>
            <path id="Path_920878" data-name="Path 920878" d="M108.59,46.146h-1.337V44.93l1.223.054c.223.155.076.879.114,1.162" transform="translate(-94.227 -39.473)" fill="#3a2292"/>
            <path id="Path_920879" data-name="Path 920879" d="M148.759,132a15.5,15.5,0,0,1,2.237,1.99c.076.113.158.194.1.345l-5.986,6.153-3.837-4.671,2.611-2.119,1.456,1.813Zm-4.951,3.53c-.232-.134-.741.3-.7.512l2.115,2.627,4.185-4.431-.542-.544-3.538,3.633Z" transform="translate(-124.116 -115.972)" fill="#3a2292"/>
            <path id="Path_920880" data-name="Path 920880" d="M182.253,195.452v-1.336a4.044,4.044,0,0,0,2.735-.942l.74.815c-.727,1.1-2.256,1.307-3.474,1.463" transform="translate(-160.117 -169.712)" fill="#3a2292"/>
            <path id="Path_920881" data-name="Path 920881" d="M211.169,181.424l-.79,1.211-.882-.786.458-.912Z" transform="translate(-184.053 -158.96)" fill="#3a2292"/>
            <path id="Path_920882" data-name="Path 920882" d="M217.686,166.932l-.123,1.337-1.2-.255.126-1.064Z" transform="translate(-190.084 -146.657)" fill="#3a2292"/>
          </g>
        </g>
      </g>
    </g>
  </g>
</svg>
