<svg xmlns="http://www.w3.org/2000/svg" xmlns:xlink="http://www.w3.org/1999/xlink" width="109" height="109" viewBox="0 0 109 109">
  <defs>
    <clipPath id="clip-path">
      <rect id="Rectangle_406617" data-name="Rectangle 406617" width="109" height="109" fill="#170551" stroke="rgba(0,0,0,0)" stroke-miterlimit="10" stroke-width="1"/>
    </clipPath>
    <clipPath id="clip-path-2">
      <rect id="Rectangle_401492" data-name="Rectangle 401492" width="61.722" height="61.722" transform="translate(0 0)" fill="#fff" stroke="#707070" stroke-width="1"/>
    </clipPath>
    <clipPath id="clip-path-3">
      <rect id="Rectangle_407856" data-name="Rectangle 407856" width="60.968" height="53.478" fill="#fff"/>
    </clipPath>
  </defs>
  <g id="Group_1114505" data-name="Group 1114505" transform="translate(-314.001 -7639.335)">
    <g id="Group_1113263" data-name="Group 1113263" transform="translate(314.001 7639.335)">
      <g id="Group_1112834" data-name="Group 1112834" transform="translate(0 0)" clip-path="url(#clip-path)">
        <path id="Path_917479" data-name="Path 917479" d="M108.579,65.237l-5.367-4.417a48.268,48.268,0,0,0-.547-15.426l5.026-4.786a3.058,3.058,0,0,0,.672-3.488l-5.1-11.147a3.065,3.065,0,0,0-2.78-1.786c-.1,0-.2,0-.3.014l-6.921.672a49,49,0,0,0-11.292-10.52l.17-6.938a3.059,3.059,0,0,0-1.991-2.941L68.666.193A3.051,3.051,0,0,0,67.6,0h0a3.046,3.046,0,0,0-2.362,1.115L60.817,6.485a48.263,48.263,0,0,0-15.425.547L40.607,2.006a3.073,3.073,0,0,0-2.215-.95,3.034,3.034,0,0,0-1.272.277L25.971,6.43A3.06,3.06,0,0,0,24.2,9.508l.672,6.923A48.991,48.991,0,0,0,14.35,27.724l-6.938-.17H7.336a3.071,3.071,0,0,0-2.866,1.993L.191,41.03a3.063,3.063,0,0,0,.921,3.428l5.372,4.42A48.263,48.263,0,0,0,7.031,64.3L2,69.09a3.059,3.059,0,0,0-.672,3.488l5.1,11.147a3.065,3.065,0,0,0,2.781,1.787c.1,0,.2,0,.3-.014l6.923-.672A49,49,0,0,0,27.722,95.346l-.17,6.938a3.059,3.059,0,0,0,1.991,2.942L41.029,109.5a3.063,3.063,0,0,0,3.43-.923l4.419-5.369a48.261,48.261,0,0,0,15.425-.547l4.786,5.026a3.072,3.072,0,0,0,2.215.95,3.039,3.039,0,0,0,1.272-.277l11.149-5.1a3.062,3.062,0,0,0,1.772-3.079l-.672-6.922a48.987,48.987,0,0,0,10.52-11.293l6.938.17h.075a3.071,3.071,0,0,0,2.866-1.991L109.5,68.667a3.059,3.059,0,0,0-.925-3.431" transform="translate(0 -0.349)" fill="#170551" stroke="rgba(0,0,0,0)" stroke-miterlimit="10" stroke-width="1"/>
      </g>
    </g>
    <g id="Group_1111310" data-name="Group 1111310" transform="translate(338.199 7663.081)">
      <rect id="Rectangle_401104" data-name="Rectangle 401104" width="57.508" height="58.436" transform="translate(2.107 0)" fill="none"/>
      <g id="Group_1098697" data-name="Group 1098697" transform="translate(0 0)" clip-path="url(#clip-path-2)">
        <g id="Group_1114847" data-name="Group 1114847" transform="translate(0 4.754)">
          <g id="Group_1114846" data-name="Group 1114846" clip-path="url(#clip-path-3)">
            <path id="Path_920775" data-name="Path 920775" d="M52.871,28.292c-.389.4-2.089,1.649-2.259,1.936-.25.42-.561,2.568-.8,3.305-2.082,6.53-7.193,12.419-13.66,14.776-.055.492.01.294.274.374,1.666.5,3.552.627,5.073,1.082a2.067,2.067,0,0,1,.354,3.589c-1.017.455-3.994-.471-5.182-.812A36.487,36.487,0,0,0,32.327,51.1c-1.519-.082-4.762,1.013-6.707,1.125C10.665,53.08,3.407,40.545,0,27.88c.055-1.055,2.273-.519,2.97-.64C1.968,9.377,20.907-3.051,37.1,4.4c1.065-.533,2.127-1.069,3.14-1.7C41.323,2.034,43.574,0,44.639,0c1.12,0,3.292,2.017,4.4,2.706a29.154,29.154,0,0,0,7.256,3.185c3.143.878,4.8-.139,4.668,3.924a28.168,28.168,0,0,1-8.09,18.478M59.437,8.06A30.2,30.2,0,0,1,45.245,1.651a1.28,1.28,0,0,0-.777-.142c-.431.06-3.068,2.146-3.78,2.575A33.247,33.247,0,0,1,29.841,8.06,25.768,25.768,0,0,0,39.424,29.1c.8.638,4.544,3.265,5.358,3.144a18.2,18.2,0,0,0,3.145-1.715A25.823,25.823,0,0,0,59.437,8.06M26.274,3.747c-4.457.642-6.816,5.525-8.2,9.322h8.2Zm1.305,0v9.322H28.7c-.044-1.5-.83-4.5-.078-5.765.608-1.025,2.245-.791,3.248-1.135.211-.285-3.534-2.846-4.288-2.422M8.562,13.069h8.017A19.987,19.987,0,0,1,21.8,4.4a10.072,10.072,0,0,0-3.667.994,22.335,22.335,0,0,0-9.57,7.676M35.036,5.054l-2.982-.746,1.394,1.427ZM16.02,14.374h-8.3A22.034,22.034,0,0,0,4.274,25.561H14.528A65.025,65.025,0,0,1,16.02,14.374M26.274,25.561V14.654l-.28-.28h-8.2A32.146,32.146,0,0,0,16.02,25.561ZM27.58,14.654V25.561h6.339l-2.774-4.59L28.858,14.4c-.336-.089-1.171-.094-1.279.252m-13.051,12.4H4.274l1.586.372a47.257,47.257,0,0,1,8.573,1.122Zm11.746,0H16.02l.024,1.84a39.529,39.529,0,0,1,7.069,2.533c1.069.53,2.037,1.348,3.161,1.78Zm9.043,0H27.58v7.365a15.145,15.145,0,0,1,3.3,3.453l5.444-.022c.29-1.739,1.922-7.31,1.147-8.661-.346-.6-1.7-1.471-2.154-2.134M33.172,47.374a19.189,19.189,0,0,0-3.39-8.634C23.572,30.286,11.4,28.925,1.664,28.545,4.1,37,8.734,46.893,17.738,49.852A24.79,24.79,0,0,0,30,50.17l-5.949-3.276C22.4,45.755,20.67,44.712,19.1,43.455c-.356-.285-2.541-2.076-2.618-2.23-.205-.412-.193-1.081.381-1.131Zm4.662-9.508h8.576a21.522,21.522,0,0,0,2.422-6.339c-.975.55-3.313,2.34-4.361,2.236-1.417-.14-4.117-2.554-5.516-3.169.049,2.48-.771,4.847-1.121,7.271m-2.051,1.305H31.868l1.958,4.477a18.258,18.258,0,0,0,1.958-4.477m9.509,0H37.554a20.937,20.937,0,0,0-1.643,3.577c-.758,1.622-2.261,3.012-1.155,4.808a25.053,25.053,0,0,0,9.326-6.519c.166-.2,1.375-1.725,1.21-1.867M41.377,51.1c-6.41-.637-12.085-3.883-17.9-6.337a46.962,46.962,0,0,0,10.531,5.408c.957.349,6.927,2.307,7.369,1.862Z" transform="translate(0 0)" fill="#fff"/>
            <path id="Path_920778" data-name="Path 920778" d="M229.578,37.123c2.936-.434,2.522,3.019,2.476,4.913-.047,1.954-.356,3.96-.419,5.92a1.817,1.817,0,0,1-3.42.142l-.464-6.248c.068-1.743-.576-4.371,1.828-4.727m-.009,1.488c-.979.288-.348,2.5-.321,3.233a44.153,44.153,0,0,0,.194,5.4,1.051,1.051,0,0,0,.461.654l.461-.654c-.2-2.348.679-5.6.387-7.834-.09-.689-.488-1-1.181-.8" transform="translate(-185.263 -30.171)" fill="#fff"/>
            <path id="Path_920779" data-name="Path 920779" d="M226.808,112.405c2.475-2.4,6.1,2.053,3.1,3.938a2.517,2.517,0,0,1-3.1-3.938m1.186.907c-.779.234-.649,1.6.06,1.916,1.722.779,2.288-2.622-.06-1.916" transform="translate(-183.877 -90.883)" fill="#fff"/>
          </g>
        </g>
      </g>
    </g>
  </g>
</svg>
