<svg xmlns="http://www.w3.org/2000/svg" xmlns:xlink="http://www.w3.org/1999/xlink" width="295" height="279.5" viewBox="0 0 295 279.5">
  <defs>
    <clipPath id="clip-path">
      <rect id="Rectangle_407491" data-name="Rectangle 407491" width="287.641" height="267.286" fill="none"/>
    </clipPath>
    <clipPath id="clip-path-3">
      <rect id="Rectangle_407458" data-name="Rectangle 407458" width="144.584" height="7.663" fill="none"/>
    </clipPath>
    <clipPath id="clip-path-4">
      <rect id="Rectangle_407460" data-name="Rectangle 407460" width="85.152" height="7.074" fill="none"/>
    </clipPath>
    <clipPath id="clip-path-5">
      <rect id="Rectangle_407461" data-name="Rectangle 407461" width="75.914" height="3.999" fill="none"/>
    </clipPath>
    <clipPath id="clip-path-7">
      <rect id="Rectangle_407463" data-name="Rectangle 407463" width="28.484" height="28.484" fill="none"/>
    </clipPath>
    <clipPath id="clip-path-17">
      <rect id="Rectangle_407473" data-name="Rectangle 407473" width="56.482" height="3.74" fill="none"/>
    </clipPath>
    <clipPath id="clip-path-18">
      <rect id="Rectangle_407474" data-name="Rectangle 407474" width="50.938" height="8.431" fill="none"/>
    </clipPath>
    <clipPath id="clip-path-19">
      <rect id="Rectangle_407482" data-name="Rectangle 407482" width="93.598" height="45.066" fill="none"/>
    </clipPath>
    <clipPath id="clip-path-20">
      <rect id="Rectangle_407477" data-name="Rectangle 407477" width="90.833" height="38.421" fill="none"/>
    </clipPath>
    <clipPath id="clip-path-23">
      <rect id="Rectangle_407489" data-name="Rectangle 407489" width="5.365" height="5.364" fill="none"/>
    </clipPath>
  </defs>
  <g id="Group_1114006" data-name="Group 1114006" transform="translate(-285.332 -3615.5)">
    <rect id="Rectangle_401121" data-name="Rectangle 401121" width="295" height="193" rx="30" transform="translate(285.332 3702)" fill="#c0afff"/>
    <g id="Group_1114603" data-name="Group 1114603" transform="translate(292.525 3615.5)">
      <g id="Group_1114602" data-name="Group 1114602" clip-path="url(#clip-path)">
        <g id="Group_1114601" data-name="Group 1114601">
          <g id="Group_1114600" data-name="Group 1114600" clip-path="url(#clip-path)">
            <path id="Path_918706" data-name="Path 918706" d="M241.658,267.42H85.967a6.5,6.5,0,0,1-6.5-6.5V35.579a6.5,6.5,0,0,1,6.5-6.5H241.658a6.5,6.5,0,0,1,6.5,6.5V260.918a6.5,6.5,0,0,1-6.5,6.5" transform="translate(-23.323 -8.534)" fill="#2c2a40"/>
            <g id="Group_1114539" data-name="Group 1114539" transform="translate(68.197 241.45)" opacity="0.2">
              <g id="Group_1114538" data-name="Group 1114538">
                <g id="Group_1114537" data-name="Group 1114537" clip-path="url(#clip-path-3)">
                  <path id="Path_918707" data-name="Path 918707" d="M96.529,341.757l144.584,7.663v-7.663Z" transform="translate(-96.529 -341.757)"/>
                </g>
              </g>
            </g>
            <rect id="Rectangle_407459" data-name="Rectangle 407459" width="144.583" height="209.133" transform="translate(68.198 32.317)" fill="#fff"/>
            <g id="Group_1114542" data-name="Group 1114542" transform="translate(95.581 52.217)" opacity="0.3">
              <g id="Group_1114541" data-name="Group 1114541">
                <g id="Group_1114540" data-name="Group 1114540" clip-path="url(#clip-path-4)">
                  <path id="Path_918708" data-name="Path 918708" d="M217.416,80.984h-79.1a3.025,3.025,0,0,1-3.025-3.025V76.935a3.025,3.025,0,0,1,3.025-3.025h79.1a3.025,3.025,0,0,1,3.024,3.025v1.024a3.025,3.025,0,0,1-3.024,3.025" transform="translate(-135.289 -73.91)" fill="#021a39"/>
                </g>
              </g>
            </g>
            <g id="Group_1114545" data-name="Group 1114545" transform="translate(85.003 74.419)" opacity="0.3">
              <g id="Group_1114544" data-name="Group 1114544">
                <g id="Group_1114543" data-name="Group 1114543" clip-path="url(#clip-path-5)">
                  <path id="Path_918709" data-name="Path 918709" d="M194.231,109.334H122.316a2,2,0,1,1,0-4h71.914a2,2,0,1,1,0,4" transform="translate(-120.317 -105.335)" fill="#021a39"/>
                </g>
              </g>
            </g>
            <g id="Group_1114548" data-name="Group 1114548" transform="translate(85.003 81.388)" opacity="0.3">
              <g id="Group_1114547" data-name="Group 1114547">
                <g id="Group_1114546" data-name="Group 1114546" clip-path="url(#clip-path-5)">
                  <path id="Path_918710" data-name="Path 918710" d="M194.231,119.2H122.316a2,2,0,0,1,0-4h71.914a2,2,0,0,1,0,4" transform="translate(-120.317 -115.2)" fill="#021a39"/>
                </g>
              </g>
            </g>
            <g id="Group_1114551" data-name="Group 1114551" transform="translate(168.386 64.336)" opacity="0.3">
              <g id="Group_1114550" data-name="Group 1114550">
                <g id="Group_1114549" data-name="Group 1114549" clip-path="url(#clip-path-7)">
                  <path id="Path_918711" data-name="Path 918711" d="M238.339,105.306a14.242,14.242,0,1,1,14.242,14.242,14.258,14.258,0,0,1-14.242-14.242m3.134,0A11.108,11.108,0,1,0,252.581,94.2a11.121,11.121,0,0,0-11.108,11.108" transform="translate(-238.339 -91.064)" fill="#021a39"/>
                </g>
              </g>
            </g>
            <path id="Path_918712" data-name="Path 918712" d="M256.372,112.672c-.058,0-.116,0-.174-.008a1.834,1.834,0,0,1-1.417-.913,38.6,38.6,0,0,0-4.584-6.177,1.834,1.834,0,0,1,2.678-2.507,43.622,43.622,0,0,1,3.761,4.75c3.251-3.462,10.777-10.892,18.27-14.141a1.834,1.834,0,1,1,1.459,3.366c-8.966,3.887-18.509,14.882-18.6,14.993a1.833,1.833,0,0,1-1.389.637" transform="translate(-73.289 -27.45)" fill="#903edf"/>
            <g id="Group_1114554" data-name="Group 1114554" transform="translate(168.386 106.187)" opacity="0.3">
              <g id="Group_1114553" data-name="Group 1114553">
                <g id="Group_1114552" data-name="Group 1114552" clip-path="url(#clip-path-7)">
                  <path id="Path_918713" data-name="Path 918713" d="M238.339,164.543a14.242,14.242,0,1,1,14.242,14.242,14.258,14.258,0,0,1-14.242-14.242m3.134,0a11.108,11.108,0,1,0,11.108-11.108,11.121,11.121,0,0,0-11.108,11.108" transform="translate(-238.339 -150.301)" fill="#021a39"/>
                </g>
              </g>
            </g>
            <g id="Group_1114557" data-name="Group 1114557" transform="translate(85.003 116.346)" opacity="0.3">
              <g id="Group_1114556" data-name="Group 1114556">
                <g id="Group_1114555" data-name="Group 1114555" clip-path="url(#clip-path-5)">
                  <path id="Path_918714" data-name="Path 918714" d="M194.231,168.679H122.316a2,2,0,0,1,0-4h71.914a2,2,0,0,1,0,4" transform="translate(-120.317 -164.681)" fill="#021a39"/>
                </g>
              </g>
            </g>
            <g id="Group_1114560" data-name="Group 1114560" transform="translate(85.003 123.315)" opacity="0.3">
              <g id="Group_1114559" data-name="Group 1114559">
                <g id="Group_1114558" data-name="Group 1114558" clip-path="url(#clip-path-5)">
                  <path id="Path_918715" data-name="Path 918715" d="M194.231,178.544H122.316a2,2,0,0,1,0-4h71.914a2,2,0,0,1,0,4" transform="translate(-120.317 -174.545)" fill="#021a39"/>
                </g>
              </g>
            </g>
            <path id="Path_918716" data-name="Path 918716" d="M256.372,171.782c-.058,0-.116,0-.174-.008a1.834,1.834,0,0,1-1.417-.913,38.606,38.606,0,0,0-4.584-6.177,1.834,1.834,0,1,1,2.678-2.506,43.571,43.571,0,0,1,3.761,4.75c3.251-3.462,10.777-10.892,18.27-14.141a1.834,1.834,0,1,1,1.459,3.366c-8.966,3.886-18.509,14.881-18.6,14.992a1.833,1.833,0,0,1-1.389.637" transform="translate(-73.289 -44.799)" fill="#903edf"/>
            <g id="Group_1114563" data-name="Group 1114563" transform="translate(85.003 158.273)" opacity="0.3">
              <g id="Group_1114562" data-name="Group 1114562">
                <g id="Group_1114561" data-name="Group 1114561" clip-path="url(#clip-path-5)">
                  <path id="Path_918717" data-name="Path 918717" d="M194.231,228.025H122.316a2,2,0,0,1,0-4h71.914a2,2,0,0,1,0,4" transform="translate(-120.317 -224.026)" fill="#021a39"/>
                </g>
              </g>
            </g>
            <g id="Group_1114566" data-name="Group 1114566" transform="translate(85.003 165.243)" opacity="0.3">
              <g id="Group_1114565" data-name="Group 1114565">
                <g id="Group_1114564" data-name="Group 1114564" clip-path="url(#clip-path-5)">
                  <path id="Path_918718" data-name="Path 918718" d="M194.231,237.889H122.316a2,2,0,0,1,0-4h71.914a2,2,0,0,1,0,4" transform="translate(-120.317 -233.891)" fill="#021a39"/>
                </g>
              </g>
            </g>
            <g id="Group_1114569" data-name="Group 1114569" transform="translate(168.386 148.038)" opacity="0.3">
              <g id="Group_1114568" data-name="Group 1114568">
                <g id="Group_1114567" data-name="Group 1114567" clip-path="url(#clip-path-7)">
                  <path id="Path_918719" data-name="Path 918719" d="M238.339,223.78a14.242,14.242,0,1,1,14.242,14.242,14.258,14.258,0,0,1-14.242-14.242m3.134,0a11.108,11.108,0,1,0,11.108-11.108,11.121,11.121,0,0,0-11.108,11.108" transform="translate(-238.339 -209.538)" fill="#021a39"/>
                </g>
              </g>
            </g>
            <path id="Path_918720" data-name="Path 918720" d="M256.372,232.453c-.058,0-.116,0-.174-.008a1.834,1.834,0,0,1-1.417-.913,38.606,38.606,0,0,0-4.584-6.177,1.834,1.834,0,1,1,2.678-2.506,43.578,43.578,0,0,1,3.761,4.75c3.251-3.462,10.777-10.892,18.27-14.141a1.834,1.834,0,1,1,1.459,3.366c-8.966,3.886-18.509,14.881-18.6,14.992a1.833,1.833,0,0,1-1.389.637" transform="translate(-73.289 -62.606)" fill="#903edf"/>
            <g id="Group_1114572" data-name="Group 1114572" transform="translate(85.003 200.201)" opacity="0.3">
              <g id="Group_1114571" data-name="Group 1114571">
                <g id="Group_1114570" data-name="Group 1114570" clip-path="url(#clip-path-5)">
                  <path id="Path_918721" data-name="Path 918721" d="M194.231,287.371H122.316a2,2,0,0,1,0-4h71.914a2,2,0,0,1,0,4" transform="translate(-120.317 -283.372)" fill="#021a39"/>
                </g>
              </g>
            </g>
            <g id="Group_1114575" data-name="Group 1114575" transform="translate(85.003 207.17)" opacity="0.3">
              <g id="Group_1114574" data-name="Group 1114574">
                <g id="Group_1114573" data-name="Group 1114573" clip-path="url(#clip-path-5)">
                  <path id="Path_918722" data-name="Path 918722" d="M194.231,297.235H122.316a2,2,0,0,1,0-4h71.914a2,2,0,0,1,0,4" transform="translate(-120.317 -293.236)" fill="#021a39"/>
                </g>
              </g>
            </g>
            <g id="Group_1114578" data-name="Group 1114578" transform="translate(168.386 189.888)" opacity="0.3">
              <g id="Group_1114577" data-name="Group 1114577">
                <g id="Group_1114576" data-name="Group 1114576" clip-path="url(#clip-path-7)">
                  <path id="Path_918723" data-name="Path 918723" d="M238.339,283.017a14.242,14.242,0,1,1,14.242,14.242,14.258,14.258,0,0,1-14.242-14.242m3.134,0a11.108,11.108,0,1,0,11.108-11.108,11.121,11.121,0,0,0-11.108,11.108" transform="translate(-238.339 -268.775)" fill="#021a39"/>
                </g>
              </g>
            </g>
            <path id="Path_918724" data-name="Path 918724" d="M256.372,291.8c-.058,0-.116,0-.174-.008a1.834,1.834,0,0,1-1.417-.913A38.606,38.606,0,0,0,250.2,284.7a1.834,1.834,0,0,1,2.678-2.507,43.623,43.623,0,0,1,3.761,4.75c3.251-3.462,10.777-10.892,18.27-14.141a1.835,1.835,0,1,1,1.459,3.366c-8.966,3.886-18.509,14.881-18.6,14.992a1.833,1.833,0,0,1-1.389.637" transform="translate(-73.289 -80.024)" fill="#903edf"/>
            <g id="Group_1114581" data-name="Group 1114581" transform="translate(109.916 32.317)" opacity="0.1">
              <g id="Group_1114580" data-name="Group 1114580">
                <g id="Group_1114579" data-name="Group 1114579" clip-path="url(#clip-path-17)">
                  <path id="Path_918725" data-name="Path 918725" d="M212.061,45.743a3.751,3.751,0,0,1-3.752,3.739H159.331a3.751,3.751,0,0,1-3.752-3.739Z" transform="translate(-155.579 -45.743)"/>
                </g>
              </g>
            </g>
            <path id="Path_918726" data-name="Path 918726" d="M207.239,17.39H194.346a11.222,11.222,0,1,0-18.752,0H162.7a3.2,3.2,0,0,0-3.2,3.2v9.415a3.2,3.2,0,0,0,3.2,3.2h44.536a3.2,3.2,0,0,0,3.2-3.2V20.591a3.2,3.2,0,0,0-3.2-3.2M184.97,6.424a4.8,4.8,0,1,1-4.8,4.8,4.8,4.8,0,0,1,4.8-4.8" transform="translate(-46.814)" fill="#fbae04"/>
            <g id="Group_1114584" data-name="Group 1114584" transform="translate(112.688 24.775)" opacity="0.5">
              <g id="Group_1114583" data-name="Group 1114583">
                <g id="Group_1114582" data-name="Group 1114582" clip-path="url(#clip-path-18)">
                  <path id="Path_918727" data-name="Path 918727" d="M210.439,35.066V40.3a3.2,3.2,0,0,1-3.2,3.2H162.7a3.2,3.2,0,0,1-3.2-3.2V35.066Z" transform="translate(-159.502 -35.067)" fill="#ef8001"/>
                </g>
              </g>
            </g>
            <path id="Path_918728" data-name="Path 918728" d="M320.76,355.409l-2.217,7.577-16.241-6.8c2.5-3.283,12.247-.174,12.448-.11l0,0,.776-.685.682-.6a20.484,20.484,0,0,1,4.548.62" transform="translate(-88.727 -104.1)" fill="#7c4550"/>
            <path id="Path_918729" data-name="Path 918729" d="M321.965,357.814a4.04,4.04,0,0,0-2.039-1.445l.776-.685a3.058,3.058,0,0,1,1.263,2.129" transform="translate(-93.9 -104.395)" fill="#602d3a"/>
            <path id="Path_918730" data-name="Path 918730" d="M337.42,263.273l-.824,8.108s5.687,6.736,14.029,4.612a43.578,43.578,0,0,0,13.274-5.747l-1.8-9.53s-15.923-1.417-24.678,2.558" transform="translate(-98.792 -76.449)" fill="#2c2a40"/>
            <path id="Path_918731" data-name="Path 918731" d="M326.471,330.9c1.617-3.315,5.412-9.354,7.037-14.682a92.965,92.965,0,0,0,3.32-15.705,93.061,93.061,0,0,0,9.853-23.138c-2.649-5.924-13.7-6.652-13.7-6.652l-5.432,29.829-5.554,29.6c1.908.584,2.884,1.053,4.48.75" transform="translate(-94.506 -79.457)" fill="#2c2a40"/>
            <path id="Path_918732" data-name="Path 918732" d="M375.073,326.816c-.167-3.448-.464-10.174-.74-13.062-.162-1.7-.187-14.584-3-17.225,0,0,.762-22.565-4.175-35.713l-13.317,3.636,9.621,35.807,7.028,27.729a6.431,6.431,0,0,0,4.582-1.173" transform="translate(-103.854 -76.551)" fill="#3a3850"/>
            <path id="Path_918733" data-name="Path 918733" d="M380.168,362.856h-16.68c2-3.81,9.371-5.294,9.371-5.294l.264-1.231.2-.922a14.77,14.77,0,0,1,4.582-1.173Z" transform="translate(-106.685 -103.969)" fill="#7c4550"/>
            <path id="Path_918734" data-name="Path 918734" d="M380.89,359.416a6.416,6.416,0,0,0-4.138-.984l.264-1.231c3.274.182,3.874,2.215,3.874,2.215" transform="translate(-110.578 -104.84)" fill="#602d3a"/>
            <path id="Path_918735" data-name="Path 918735" d="M360.514,242a25.07,25.07,0,0,1-11.471,3.557,43.356,43.356,0,0,1-7.682-.235c-1.777-.191-3.614-.459-5.523-.764L331.2,201.667l5.622-2.361,0,0,7.618-2.564,8.6-.018Z" transform="translate(-97.21 -57.739)" fill="#3a2292"/>
            <path id="Path_918736" data-name="Path 918736" d="M342.991,206.845l.4,23.756,3.7,6.37,2.582-7.454-5.251-22.885Z" transform="translate(-100.669 -60.647)" fill="#2a2d65"/>
            <path id="Path_918737" data-name="Path 918737" d="M341,203.678l2.264,3.167,1.353-4.009-2.322-1.288Z" transform="translate(-100.085 -59.155)" fill="#223c7c"/>
            <path id="Path_918738" data-name="Path 918738" d="M346.307,193.731a8.639,8.639,0,0,1-6.893,3.662l-.824-2.4-1.048-3.058a13.165,13.165,0,0,1,1.523-2.576c1.122-1.478,2.841-3.017,5.073-2.882Z" transform="translate(-99.07 -54.729)" fill="#f6b797"/>
            <path id="Path_918739" data-name="Path 918739" d="M343.391,188.153s-.675,5.342-4.8,7.333l-1.048-3.058a13.185,13.185,0,0,1,1.523-2.576Z" transform="translate(-99.07 -55.224)" fill="#ef9783"/>
            <path id="Path_918740" data-name="Path 918740" d="M325.577,168.13v15.931a3.623,3.623,0,0,0,3.9,3.618c4.045-.325,10.113-1.857,12.566-7.868,3.831-9.384-7.851-18.193-16.469-11.682" transform="translate(-95.558 -48.688)" fill="#f6b797"/>
            <path id="Path_918741" data-name="Path 918741" d="M324.883,178.137l-1.612,4.568a1.019,1.019,0,0,0,.625,1.3l.987.344s1.442-1.277,0-6.214" transform="translate(-94.864 -52.284)" fill="#f6b797"/>
            <path id="Path_918742" data-name="Path 918742" d="M324.212,166.965a4.909,4.909,0,0,1-3.272-5.054c.459-7.443,14.376-2.965,19.7-.639,6.043,2.639,3.788,12.64,2.384,15.577a7.524,7.524,0,0,1-2.221,2.7,2.235,2.235,0,0,1-3.143-1.05c-.506-1.129-1.149-2.413.639-5.349,1.313-2.157-1.022-4.979-3.064-2.873s-2.922,1.787-2.418-.83-4.824-3.756-8.609-2.479" transform="translate(-94.194 -46.314)" fill="#2c2a40"/>
            <path id="Path_918743" data-name="Path 918743" d="M342.832,199.432l3.843,2.131s3.446-4.235,2.6-6.017-1.877-1.059-1.877-1.059a12.3,12.3,0,0,1-4.563,4.945" transform="translate(-100.623 -57.04)" fill="#a77bde"/>
            <path id="Path_918744" data-name="Path 918744" d="M338.321,198.14s-1.462,1.722-1.37,2.987,2.331,2.419,2.331,2.419l1.821-3a9.971,9.971,0,0,1-1.865.272Z" transform="translate(-98.895 -58.155)" fill="#a77bde"/>
            <path id="Path_918745" data-name="Path 918745" d="M281.566,212.145c.881-.529,1.548-.915.924-.821-1.238.188-2.243-.769-1.672-1.09a5.053,5.053,0,0,1,2.895-.646c1.542.04,4.019,3.476,4.019,3.476L286.2,216.67s-.773-.047-.844-.038a29.842,29.842,0,0,1-3.786-4.486" transform="translate(-82.373 -61.514)" fill="#f6b797"/>
            <path id="Path_918746" data-name="Path 918746" d="M280.674,214.532c-.964-1.269-.027-2.125.7-2.61a1.605,1.605,0,0,1,1.456-.071c.935.49,3.252,3.716,2.73,5.022-.6,1.51-3.212-.141-4.885-2.342" transform="translate(-82.258 -62.137)" fill="#f6b797"/>
            <path id="Path_918747" data-name="Path 918747" d="M320.764,214.145c-1,3.538-10.609,10.423-10.609,10.423-9.107.442-17.665-6.14-20.592-8.66-.687-.591-1.063-.959-1.063-.959l1.535-3.605s.365.186.97.48a65.836,65.836,0,0,0,8.773,3.656,24.443,24.443,0,0,1,6.872,2.835l.567-.689,11.454-13.9c1.669,2.721,2.093,10.422,2.093,10.422" transform="translate(-84.676 -59.794)" fill="#3a2292"/>
            <path id="Path_918748" data-name="Path 918748" d="M315.116,226.534a7.722,7.722,0,0,0-.926-2.442l.567-.689a4.528,4.528,0,0,1,.358,3.131" transform="translate(-92.216 -65.57)" fill="#6d26ce"/>
            <path id="Path_918749" data-name="Path 918749" d="M291,214.99l-1.441,4.084c-.688-.592-1.065-.959-1.065-.959l1.535-3.6s.365.186.971.48" transform="translate(-84.676 -62.96)" fill="#fff"/>
            <rect id="Rectangle_407475" data-name="Rectangle 407475" width="12.221" height="98.045" transform="matrix(0.384, -0.923, 0.923, 0.384, 185.047, 144.84)" fill="#fbae04"/>
            <g id="Group_1114596" data-name="Group 1114596" transform="translate(185.856 135.499)">
              <g id="Group_1114595" data-name="Group 1114595">
                <g id="Group_1114594" data-name="Group 1114594" clip-path="url(#clip-path-19)">
                  <g id="Group_1114587" data-name="Group 1114587" transform="translate(2.765)" opacity="0.5">
                    <g id="Group_1114586" data-name="Group 1114586">
                      <g id="Group_1114585" data-name="Group 1114585" clip-path="url(#clip-path-20)">
                        <rect id="Rectangle_407476" data-name="Rectangle 407476" width="0.815" height="98.045" transform="matrix(0.384, -0.923, 0.923, 0.384, 0, 0.752)" fill="#ef8001"/>
                      </g>
                    </g>
                  </g>
                  <g id="Group_1114590" data-name="Group 1114590" transform="translate(1.382 3.323)" opacity="0.5">
                    <g id="Group_1114589" data-name="Group 1114589">
                      <g id="Group_1114588" data-name="Group 1114588" clip-path="url(#clip-path-20)">
                        <rect id="Rectangle_407478" data-name="Rectangle 407478" width="0.815" height="98.045" transform="matrix(0.384, -0.923, 0.923, 0.384, 0, 0.753)" fill="#ef8001"/>
                      </g>
                    </g>
                  </g>
                  <g id="Group_1114593" data-name="Group 1114593" transform="translate(0 6.645)" opacity="0.5">
                    <g id="Group_1114592" data-name="Group 1114592">
                      <g id="Group_1114591" data-name="Group 1114591" clip-path="url(#clip-path-20)">
                        <rect id="Rectangle_407480" data-name="Rectangle 407480" width="0.815" height="98.045" transform="matrix(0.384, -0.923, 0.923, 0.384, 0, 0.752)" fill="#ef8001"/>
                      </g>
                    </g>
                  </g>
                </g>
              </g>
            </g>
            <rect id="Rectangle_407483" data-name="Rectangle 407483" width="12.221" height="5.127" transform="matrix(0.384, -0.923, 0.923, 0.384, 270.833, 180.538)" fill="#54547e"/>
            <rect id="Rectangle_407484" data-name="Rectangle 407484" width="12.221" height="2.563" transform="translate(273.2 181.523) rotate(-67.407)" fill="#2c2a40"/>
            <path id="Path_918750" data-name="Path 918750" d="M394.742,242.357l1.347.56a6.111,6.111,0,0,1-4.7,11.284l-1.347-.561Z" transform="translate(-114.48 -71.133)" fill="#ff6764"/>
            <path id="Path_918751" data-name="Path 918751" d="M257.18,200.324l4.7-11.283-8.97.2-1.866.041-5.273.117,3.894,3.727,1.516,1.452Z" transform="translate(-72.134 -55.484)" fill="#f6b797"/>
            <path id="Path_918752" data-name="Path 918752" d="M249.661,193.224a6.364,6.364,0,0,0,1.009-1.687,4.408,4.408,0,0,0,.37-2.157l-5.272.117Z" transform="translate(-72.134 -55.584)" fill="#2c2a40"/>
            <path id="Path_918753" data-name="Path 918753" d="M361.888,196.722s13.275,8.706,16.536,17.574c0,0-2.248,3.407-5.434,3.876,0,0-8.291-7.049-10.071-11.786,0,0-2.718-5.032-1.031-9.663" transform="translate(-106.053 -57.739)" fill="#3a2292"/>
            <path id="Path_918754" data-name="Path 918754" d="M380.777,221.6s2.242,4.454-.8,13.216a17.435,17.435,0,0,1-8.917,10.346l-1.7-3.811a19.215,19.215,0,0,0,5.473-10.279,54.949,54.949,0,0,0,.513-5.6,9.008,9.008,0,0,1,5.434-3.877" transform="translate(-108.408 -65.04)" fill="#3a2292"/>
            <path id="Path_918755" data-name="Path 918755" d="M368.238,245.054s-2.373-1.236-2.685-.369a2.122,2.122,0,0,0,1.216,2s-1.477,1.016-.933,2.4,4.426,4.2,5.69,3.8,2.938-3.652,1.749-5.156-3.647-2.877-5.037-2.675" transform="translate(-107.288 -71.725)" fill="#f6b797"/>
            <path id="Path_918756" data-name="Path 918756" d="M162.923,167.658s1.467-11.165-12.535-8.4c-8.569,1.691-8.022,14.882-13.946,24.3-7,11.13,2.11,15.4,6.669,13.209s6.657-13.063,5.956-20.515,10-13.326,13.857-8.592" transform="translate(-39.296 -46.613)" fill="#2c2a40"/>
            <path id="Path_918757" data-name="Path 918757" d="M153.858,262.2a24.945,24.945,0,0,1-12.051,1.882,33.048,33.048,0,0,1-11.334-2.995l1.689-8.1a58.92,58.92,0,0,0,9.372,1.26c7.651.383,11.974-1.082,11.974-1.082Z" transform="translate(-38.294 -74.253)" fill="#2c2a40"/>
            <path id="Path_918758" data-name="Path 918758" d="M188.759,233.266a21.127,21.127,0,0,1-2.244.122c-3.666-.122-13.761-.589-19.114-2.2l-.157-.048a7.334,7.334,0,0,1-2.78-1.37l0,0h0v0a26.976,26.976,0,0,1,3.609-3.742c.072-.055.141-.109.21-.16a2.563,2.563,0,0,1,1.7-.681s.255.081.7.217c1.643.507,5.879,1.786,9.157,2.5,2.725.593,4.983.929,6.37,1.1a7.72,7.72,0,0,0,1.359.09Z" transform="translate(-48.269 -66.088)" fill="#6bfcf2"/>
            <path id="Path_918759" data-name="Path 918759" d="M169.712,222l-3.218.362-.552.062-2.8.314,0,0v0c-.124-.3-5.262-12.489-2.218-20.412a5.46,5.46,0,0,1,.6-.445,29.173,29.173,0,0,0,2.844-.663,9.2,9.2,0,0,1,2.57,4.669c.043.164.086.336.124.512a120.187,120.187,0,0,1,2.294,11.972c.141,1.136.262,2.332.362,3.633" transform="translate(-46.948 -59.057)" fill="#6bfcf2"/>
            <path id="Path_918760" data-name="Path 918760" d="M166.956,218.833a35.368,35.368,0,0,1-.462,3.53c-.117.636-.255,1.238-.415,1.8-.052-.016-.1-.03-.157-.047a7.35,7.35,0,0,1-2.78-1.37l0,0h0v0c-.124-.3-5.262-12.489-2.218-20.413a5.649,5.649,0,0,1,.6-.445,29.189,29.189,0,0,0,2.844-.662,9.19,9.19,0,0,1,2.57,4.669,92.347,92.347,0,0,1,.024,12.949" transform="translate(-46.948 -59.057)" fill="#53d8cf"/>
            <path id="Path_918761" data-name="Path 918761" d="M202.419,226.635c-.874.294-1.963.414-1.535.043.849-.737.781-1.981.229-1.777a4.544,4.544,0,0,0-2.127,1.6c-.87,1.077-1.832,2.509-1.832,2.509l1.2,4.17s3.085-.3,4.487-1.592a23.905,23.905,0,0,0-.423-4.953" transform="translate(-57.866 -66.003)" fill="#f6b797"/>
            <path id="Path_918762" data-name="Path 918762" d="M201.243,222.479a.364.364,0,0,1-.3-.569l13.919-20.536a.364.364,0,0,1,.6.409l-13.92,20.536a.363.363,0,0,1-.3.16" transform="translate(-58.959 -59.057)" fill="#2c2a40"/>
            <path id="Path_918763" data-name="Path 918763" d="M204.8,227.759a1.089,1.089,0,0,0-1.628-.718,1.218,1.218,0,0,0-.569.664c-.273.907-.177,4.187,1.02,4.592,1.382.466,1.677-2.107,1.177-4.538" transform="translate(-59.428 -66.591)" fill="#f6b797"/>
            <path id="Path_918764" data-name="Path 918764" d="M133.423,350.982c.048.969.435,8.407.634,11.356h1.314V356.21a19.432,19.432,0,0,0,1.988,3.768l.22.3a4.967,4.967,0,0,0,2.842,2.137,30.806,30.806,0,0,0,6.474.068.376.376,0,0,0,.254-.622c-.724-.823-2.139-2.44-3.516-4.063h0c-.09-.106-.179-.212-.268-.318-.268-.318-.533-.634-.788-.941-1.023-1.228-1.9-2.329-2.29-2.919a23.963,23.963,0,0,0-2.17-2.777l0,0,0-.006c-1.128-1.24-2.335-2.268-3.008-2.117a.493.493,0,0,0-.215.1,3.118,3.118,0,0,0-.634.427,2.147,2.147,0,0,0-.83,1.735" transform="translate(-39.159 -102.346)" fill="#7c4550"/>
            <path id="Path_918765" data-name="Path 918765" d="M134.6,349.246a8.367,8.367,0,0,1,.9,1.158c.034.085.461.81.5.9,1.119,2.629,3.272,5.831,5.182,6.753,2.411,1.165,2.789-.194,2.8-.253h0c-.09-.106-.179-.212-.27-.318-.268-.317-.533-.634-.788-.941-1.023-1.228-1.9-2.329-2.29-2.919a23.965,23.965,0,0,0-2.17-2.777l0,0,0,0c-1.128-1.24-2.335-2.269-3.008-2.118a.487.487,0,0,0-.215.1,3.093,3.093,0,0,0-.634.427" transform="translate(-39.505 -102.346)" fill="#f6b797"/>
            <path id="Path_918766" data-name="Path 918766" d="M143.058,254.659l-.946,9.509-2.576,20.591-.086,1.058-2.982,36.725a6.483,6.483,0,0,1-3.673-1.391s-5.051-15.936-1.751-20.612c0,0-1.751-9.007-2.451-16.449-.038-.415-.074-.824-.105-1.224-.2-2.6.36-23.447,3.08-29.879a58.758,58.758,0,0,0,9.372,1.26,14.809,14.809,0,0,0,2.119.412" transform="translate(-37.7 -74.253)" fill="#383851"/>
            <path id="Path_918767" data-name="Path 918767" d="M160.2,350.982c.048.969.435,8.407.634,11.356h1.314V356.21a19.432,19.432,0,0,0,1.988,3.768l.22.3a4.967,4.967,0,0,0,2.842,2.137,30.8,30.8,0,0,0,6.473.068.376.376,0,0,0,.255-.622c-.724-.823-2.139-2.44-3.516-4.063h0c-.09-.106-.179-.212-.268-.318-.268-.318-.533-.634-.789-.941-1.023-1.228-1.9-2.329-2.29-2.919a23.961,23.961,0,0,0-2.17-2.777l0,0,0-.006c-1.128-1.24-2.335-2.268-3.008-2.117a.493.493,0,0,0-.215.1,3.118,3.118,0,0,0-.634.427,2.147,2.147,0,0,0-.83,1.735" transform="translate(-47.018 -102.346)" fill="#7c4550"/>
            <path id="Path_918768" data-name="Path 918768" d="M161.375,349.246a8.367,8.367,0,0,1,.9,1.158c.035.085.461.81.5.9,1.119,2.629,3.272,5.831,5.182,6.753,2.411,1.165,2.789-.194,2.8-.253h0l-.269-.318c-.268-.317-.533-.634-.789-.941-1.023-1.228-1.9-2.329-2.29-2.919a24.028,24.028,0,0,0-2.169-2.777l0,0,0,0c-1.128-1.24-2.335-2.269-3.008-2.118a.485.485,0,0,0-.215.1,3.093,3.093,0,0,0-.634.427" transform="translate(-47.364 -102.346)" fill="#f6b797"/>
            <path id="Path_918769" data-name="Path 918769" d="M148.342,262.643c-.823,24.422,6.424,41.54,6.424,41.54-3.3,4.673,2.428,19.913,2.428,19.913,1.393.846,2.749,1.377,4,1.045l-1.072-35.608-1.169-27.68Z" transform="translate(-43.52 -76.855)" fill="#2c2a40"/>
            <path id="Path_918770" data-name="Path 918770" d="M132.863,236.3c7.206,2.457,15.98,3.077,21.346.177l2.882-20.56a21.346,21.346,0,0,0,.417-7.722l-1.1-8.472-4.016-1.357-6.636-2.245-1.672.463-7.136,1.973-1.332,26.374Z" transform="translate(-38.996 -57.561)" fill="#6bfcf2"/>
            <path id="Path_918771" data-name="Path 918771" d="M171.392,161.3s4.678,3.3,4.661,7.308c-.024,5.824-4.661,10.98-4.661,10.98Z" transform="translate(-50.304 -47.342)" fill="#2c2a40"/>
            <path id="Path_918772" data-name="Path 918772" d="M151.109,193.35a7.285,7.285,0,0,0,6.015,3.772l.719-2.474.914-3.148a14.347,14.347,0,0,0-1.329-2.654c-.979-1.522-2.478-3.108-4.426-2.969Z" transform="translate(-44.351 -54.553)" fill="#f6b797"/>
            <path id="Path_918773" data-name="Path 918773" d="M154.71,187.605s.589,5.5,4.189,7.552l.915-3.148a14.38,14.38,0,0,0-1.33-2.654Z" transform="translate(-45.408 -55.063)" fill="#ef9783"/>
            <path id="Path_918774" data-name="Path 918774" d="M150.656,179.012a11.693,11.693,0,0,0,2.867,4.187,12.533,12.533,0,0,0,2.191,1.625,17.959,17.959,0,0,0,6.832,2.183,4.508,4.508,0,0,0,5.073-4.469V166.981c-.16-.121-.321-.237-.484-.347-8.821-6.033-20.353,2.887-16.479,12.379" transform="translate(-43.992 -48.331)" fill="#f6b797"/>
            <path id="Path_918775" data-name="Path 918775" d="M173.969,177.288l1.99,5.638a.065.065,0,0,1-.04.082l-1.951.68s-1.486-1.315,0-6.4" transform="translate(-50.867 -52.035)" fill="#f6b797"/>
            <path id="Path_918776" data-name="Path 918776" d="M148.329,176.48c.706,1.732-3.885,6.479,1.638,9.81,4.406-2.382,5.726-8.963,4.192-9.27-2.644-.529-3.581-6.951-.066-6.641,2.992.263,1.907,3.573,3.4,3.528a.9.9,0,0,0,.726-.4c1.26-1.734,2.188-2.934,5.083-3.589a6.812,6.812,0,0,0,3.534-1.672l.357-2a8.41,8.41,0,0,1-.713-.658c-7.06-7.851-22.022,1.4-18.148,10.89" transform="translate(-43.206 -47.735)" fill="#2c2a40"/>
            <path id="Path_918777" data-name="Path 918777" d="M128.9,228.563c1.172,2.656,2.254,4.567,2.254,4.567l-2.73,2.449a26.069,26.069,0,0,1-3.414-3.788c-5.3-7-9.369-17.337-9.369-17.337l16.253-14.888,1.322,10.024a66.767,66.767,0,0,1-9.8,7.561,45.1,45.1,0,0,1,4.114,7.995c.428,1.207.905,2.372,1.367,3.418" transform="translate(-33.941 -58.573)" fill="#6bfcf2"/>
            <path id="Path_918778" data-name="Path 918778" d="M135.045,245.178l-2.73,2.448a26.186,26.186,0,0,1-3.414-3.787,19.966,19.966,0,0,1,3.891-3.228c1.173,2.656,2.254,4.567,2.254,4.567" transform="translate(-37.833 -70.62)" fill="#e73552"/>
            <path id="Path_918779" data-name="Path 918779" d="M132.785,241.058s.55-2.122,1.5-1.609l-.5,2.054s1.894.385,1.892,1.818-1.558,5.923-2.832,6.006-3.464-2.425-2.925-4.19,1.542-3.774,2.858-4.079" transform="translate(-38.109 -70.256)" fill="#f6b797"/>
            <path id="Path_918780" data-name="Path 918780" d="M49.553,283.684H13.607V244.6a11.349,11.349,0,0,1,11.349-11.349H38.2A11.349,11.349,0,0,1,49.553,244.6Z" transform="translate(-3.994 -68.461)" fill="#7c4550"/>
            <path id="Path_918781" data-name="Path 918781" d="M49.608,310.09H9.338a2.473,2.473,0,0,1-2.473-2.473v-.509a2.474,2.474,0,0,1,2.473-2.473h40.27a2.728,2.728,0,0,1,0,5.456" transform="translate(-2.015 -89.411)" fill="#7c4550"/>
            <rect id="Rectangle_407485" data-name="Rectangle 407485" width="2.744" height="41.049" transform="translate(9.946 218.94)" fill="#7c4550"/>
            <rect id="Rectangle_407486" data-name="Rectangle 407486" width="2.744" height="5.719" transform="translate(9.946 220.678)" fill="#6e243c"/>
            <rect id="Rectangle_407487" data-name="Rectangle 407487" width="2.744" height="41.049" transform="translate(43.069 218.94)" fill="#7c4550"/>
            <rect id="Rectangle_407488" data-name="Rectangle 407488" width="2.744" height="5.719" transform="translate(43.069 220.678)" fill="#6e243c"/>
            <path id="Path_918782" data-name="Path 918782" d="M37.787,295.027A10.848,10.848,0,0,1,38.045,292c.65-3.55,2.732-10.773,8.855-9.924,8.082,1.12,5.546,16.483,5.546,16.483L47.69,336.327H41.859s-2.1-21.952-4.072-41.3" transform="translate(-11.082 -82.771)" fill="#2c2a40"/>
            <path id="Path_918783" data-name="Path 918783" d="M3.43,281.883s7.563,11.25,15.945,15.643c8.958,4.694,12.977-4.025,12.977-4.025S12.407,279.357,3.43,281.883" transform="translate(-1.007 -82.645)" fill="#2c2a40"/>
            <path id="Path_918784" data-name="Path 918784" d="M44.714,276.36s.526,7.147-1.63,9.2-15.287,2.156-19.7.784S19.759,276,19.759,276Z" transform="translate(-5.784 -81.007)" fill="#2c2a40"/>
            <path id="Path_918785" data-name="Path 918785" d="M44.422,269.415l1.424-41.438a61.62,61.62,0,0,0-8.234-1.472c-.294-.032-.59-.061-.892-.088a35.126,35.126,0,0,0-8.863.16l-.43.073L18.313,228.2l.966,41.213Z" transform="translate(-5.375 -66.395)" fill="#2c2a40"/>
            <path id="Path_918786" data-name="Path 918786" d="M30.891,269.415h8.653c-.018-9.425.249-25.222.868-43a35.126,35.126,0,0,0-8.863.16l-.43.073c.1,5.878.4,28.034-.229,42.765" transform="translate(-9.067 -66.395)" fill="#b0b9f4"/>
            <path id="Path_918787" data-name="Path 918787" d="M35.849,234.48l-2.9,23.781,3.315,5.357,2.947-5.749L36.69,234.516Z" transform="translate(-9.671 -68.821)" fill="#2c2a40"/>
            <path id="Path_918788" data-name="Path 918788" d="M32.952,230.444l2.431,2.615a1.3,1.3,0,0,0,1.928-.028l2.271-2.587-3.474-2.726Z" transform="translate(-9.672 -66.836)" fill="#383851"/>
            <path id="Path_918789" data-name="Path 918789" d="M39.806,217.549v6.212c-.111.049-.223.1-.334.138a8.033,8.033,0,0,1-6.542-.138v-6.212Z" transform="translate(-9.665 -63.852)" fill="#f6b797"/>
            <path id="Path_918790" data-name="Path 918790" d="M39.806,219.675v4.71c-.111.049-.223.1-.334.139a15.49,15.49,0,0,1-6.542-2.6v-2.245Z" transform="translate(-9.665 -64.476)" fill="#ef9783"/>
            <path id="Path_918791" data-name="Path 918791" d="M25.436,202.293a3.906,3.906,0,0,0-2.27-2.136c-1.513-.357-1.469,3.427-.534,6.186a2.364,2.364,0,0,0,3.294,1.692Z" transform="translate(-6.449 -58.74)" fill="#ef9783"/>
            <path id="Path_918792" data-name="Path 918792" d="M48.479,202.293a3.906,3.906,0,0,1,2.27-2.136c1.513-.357,1.469,3.427.534,6.186a2.364,2.364,0,0,1-3.294,1.692Z" transform="translate(-14.085 -58.74)" fill="#ef9783"/>
            <path id="Path_918793" data-name="Path 918793" d="M34.3,213.543h0c-4.591,0-8.312-4.931-8.312-9.273v-9.82H42.616v9.82c0,4.343-3.722,9.273-8.312,9.273" transform="translate(-7.629 -57.072)" fill="#f6b797"/>
            <path id="Path_918794" data-name="Path 918794" d="M42.858,203.144l-1.134-.025s.314,4.55-1.686,7.881a7.69,7.69,0,0,0-6.012-1.912,7.607,7.607,0,0,0-5.985,1.95c-1.886-3.363-1.6-8.007-1.6-8.007l-1.136.17s-2.556,14.483,8.749,14.554,8.8-14.611,8.8-14.611M35.347,214.3c-.223-.418-.694-1.147-1.272-1.147-.6,0-1.2.786-1.474,1.194a5.952,5.952,0,0,1-3.8-2.187c2.81,1.247,5.23-1.066,5.23-1.066s2.4,2.235,5.148,1.081a6.565,6.565,0,0,1-3.832,2.125" transform="translate(-7.354 -59.59)" fill="#2c2a40"/>
            <path id="Path_918795" data-name="Path 918795" d="M25.3,189.334a3.74,3.74,0,0,1-.355-2.838c1.073-3.706,7.524-4.006,12.387-3.316,5.647.8,6.318-2.937,6.318-2.937,2.975,4.183-.579,9.769-.579,9.769s1.776,3.271-.894,7.41c0,0-1.565-2.136-1.083-6.676,0,0-7.952,2.27-14.427-.467,0,0,.89,5.274-1.113,7.143,0,0-2.237-4.406-.189-7.971Z" transform="translate(-7.192 -52.902)" fill="#2c2a40"/>
            <path id="Path_918796" data-name="Path 918796" d="M35.421,226.622,31.1,230.354l-.478-4.233a1.605,1.605,0,0,1,.709-1.519l.934-.618a4.227,4.227,0,0,0,3.156,2.638" transform="translate(-8.985 -65.74)" fill="#ccdbf7"/>
            <path id="Path_918797" data-name="Path 918797" d="M37.419,226.622l4.756,3.732.139-4.839a1.043,1.043,0,0,0-.356-.816l-.819-.716a6.147,6.147,0,0,1-3.72,2.638" transform="translate(-10.983 -65.74)" fill="#ccdbf7"/>
            <path id="Path_918798" data-name="Path 918798" d="M53.789,365.326H43.12a15.693,15.693,0,0,1-.023-4.053l.3-2.379h5.829l.006.025.351,1.507c3.886,2.288,4.21,4.9,4.21,4.9" transform="translate(-12.614 -105.337)" fill="#7c4550"/>
            <path id="Path_918799" data-name="Path 918799" d="M50.177,360.437s-3.868,0-5.164,2.45c0,0,.387-3.008,4.812-3.957Z" transform="translate(-13.211 -105.347)" fill="#6e243c"/>
            <path id="Path_918800" data-name="Path 918800" d="M14.571,229.019s-6.526,9.269-9.009,17.108c0,0,3.4,4.03,5.683,4.89l4.309-9.071s1.884-8.346-.983-12.927" transform="translate(-1.632 -67.218)" fill="#2c2a40"/>
            <path id="Path_918801" data-name="Path 918801" d="M10.691,258.124s3.077,5.176,8.886,14.183l-3.234,2.326L5.662,262.687a5.542,5.542,0,0,1-1.845-5.4l1.191-4.05s4.31,1.612,5.683,4.889" transform="translate(-1.078 -74.326)" fill="#2c2a40"/>
            <path id="Path_918802" data-name="Path 918802" d="M56.624,228.708s6.526,9.269,9.009,17.108c0,0-3.4,4.03-5.683,4.89l-4.309-9.071s-1.884-8.346.983-12.927" transform="translate(-16.153 -67.127)" fill="#2c2a40"/>
            <path id="Path_918803" data-name="Path 918803" d="M58.3,257.813S55.223,262.989,49.415,272l3.234,2.326,10.681-11.946a5.542,5.542,0,0,0,1.845-5.4l-1.191-4.051s-4.31,1.613-5.683,4.89" transform="translate(-14.504 -74.234)" fill="#2c2a40"/>
            <path id="Path_918804" data-name="Path 918804" d="M45.209,270.752H14.328l-2.854-16.689a2.366,2.366,0,0,1,2.333-2.765H45.73a2.366,2.366,0,0,1,2.332,2.765Z" transform="translate(-3.357 -73.757)" fill="#ebebeb"/>
            <path id="Path_918805" data-name="Path 918805" d="M44.148,282.463H17.82a2.292,2.292,0,0,1-2.292-2.292v-1.337H46.44v1.337a2.292,2.292,0,0,1-2.292,2.292" transform="translate(-4.558 -81.839)" fill="#fff"/>
            <g id="Group_1114599" data-name="Group 1114599" transform="translate(24.042 185.274)" opacity="0.5">
              <g id="Group_1114598" data-name="Group 1114598">
                <g id="Group_1114597" data-name="Group 1114597" clip-path="url(#clip-path-23)">
                  <path id="Path_918806" data-name="Path 918806" d="M39.394,264.927a2.682,2.682,0,1,1-2.683-2.682,2.683,2.683,0,0,1,2.683,2.682" transform="translate(-34.03 -262.244)" fill="#383851"/>
                </g>
              </g>
            </g>
            <path id="Path_918807" data-name="Path 918807" d="M75.608,302.54c-1.625,1.6-3.683,1.6-5.658.4-.837-.512-2.086-1.2-3.25-1.817-1.585-.846-3.012-1.572-3.012-1.572l1.831-4.184s1.125.031,2.716-.008h0c1.329-.032,2.984-.112,4.577-.3,3.506-.413,5.139-1.279,5.572.081s-1.15,5.8-2.777,7.4" transform="translate(-18.693 -86.408)" fill="#7c4550"/>
            <path id="Path_918808" data-name="Path 918808" d="M68.234,295.753a28.469,28.469,0,0,1-1.535,5.764c-1.585-.847-3.012-1.572-3.012-1.572l1.831-4.185s1.125.031,2.716-.008" transform="translate(-18.692 -86.805)" fill="#6e243c"/>
            <path id="Path_918809" data-name="Path 918809" d="M13.246,269.168s-6.065-3.652-11.192-.092.3,10.267,5.9,12.542,38.68,11.435,38.68,11.435a29.632,29.632,0,0,0,1.561-5.675s-9.846-5.585-15.38-9.146c-12.6-8.113-19.572-9.064-19.572-9.064" transform="translate(0 -78.518)" fill="#383851"/>
            <path id="Path_918810" data-name="Path 918810" d="M51.2,88.751,50.578,83.5l-4.587.54A11.813,11.813,0,0,0,43.7,79.888L46.769,76l-4.15-3.275-3.164,4.008a11.811,11.811,0,0,0-3.089-.9L35.8,71.043l-5.251.617.54,4.588a11.817,11.817,0,0,0-4.153,2.291l-3.4-2.684-3.276,4.15,3.52,2.778a11.815,11.815,0,0,0-1,3.988l-4.587.541.617,5.25L23.607,92a11.843,11.843,0,0,0,2.413,3.762l-3.088,3.913,4.15,3.276,3.348-4.242a11.81,11.81,0,0,0,3.393.746l.54,4.587,5.251-.618-.564-4.793a11.756,11.756,0,0,0,2.8-1.588l4.009,3.164,3.276-4.15-3.889-3.07A11.84,11.84,0,0,0,46.4,89.315ZM35.212,92.407a4.846,4.846,0,1,1,4.247-5.38,4.852,4.852,0,0,1-4.247,5.38" transform="translate(-5.341 -48.863)" fill="#b0b9f4"/>
            <path id="Path_918811" data-name="Path 918811" d="M21.8,133.395l-.35-2.972-2.6.306a6.7,6.7,0,0,0-1.3-2.351l1.737-2.2-2.349-1.854-1.79,2.269a6.688,6.688,0,0,0-1.748-.507l-.319-2.712-2.972.35.305,2.6a6.694,6.694,0,0,0-2.35,1.3L6.147,126.1l-1.854,2.348,1.992,1.573a6.662,6.662,0,0,0-.564,2.257l-2.6.306.35,2.972,2.712-.319a6.717,6.717,0,0,0,1.366,2.129L5.8,139.576l2.348,1.855,1.895-2.4a6.685,6.685,0,0,0,1.92.422l.305,2.6,2.972-.35-.319-2.712a6.673,6.673,0,0,0,1.583-.9l2.269,1.79,1.854-2.348-2.2-1.737a6.718,6.718,0,0,0,.658-2.078Zm-9.046,2.069a2.743,2.743,0,1,1,2.4-3.044,2.746,2.746,0,0,1-2.4,3.044" transform="translate(-0.917 -64.223)" fill="#b0b9f4"/>
            <path id="Path_918812" data-name="Path 918812" d="M387.9,115.809a11.853,11.853,0,0,0-2.061-3.253l2.976-3.961-4.227-3.176-3.068,4.083a11.819,11.819,0,0,0-3.109-.821l-.678-4.778-5.234.743.649,4.573a11.794,11.794,0,0,0-3.09,1.588l-4.32-3.246-3.176,4.228,3.985,2.994a11.848,11.848,0,0,0-1.372,4.254l-4.778.679.744,5.234,4.572-.649a11.82,11.82,0,0,0,1.983,3.6L365,131.486l4.228,3.176,2.6-3.464a11.821,11.821,0,0,0,4.6,1.155l.649,4.573,5.235-.743-.679-4.778a11.821,11.821,0,0,0,2.758-1.655l4.083,3.068,3.176-4.227-3.961-2.976a11.828,11.828,0,0,0,1.155-4.6l4.572-.65-.743-5.234Zm-6.13,3.986a4.847,4.847,0,1,1-5.48-4.117,4.852,4.852,0,0,1,5.48,4.117" transform="translate(-105.777 -58.507)" fill="#b0b9f4"/>
            <path id="Path_918813" data-name="Path 918813" d="M351.029,86.491a6.715,6.715,0,0,0-1.166-1.84l1.684-2.242-2.392-1.8-1.736,2.311a6.667,6.667,0,0,0-1.76-.464l-.384-2.7-2.962.421.368,2.588a6.6,6.6,0,0,0-1.749.9l-2.445-1.837-1.8,2.391,2.255,1.695a6.687,6.687,0,0,0-.776,2.407l-2.7.384.42,2.963,2.588-.368a6.663,6.663,0,0,0,1.123,2.038l-1.525,2.029,2.392,1.8,1.472-1.961a6.679,6.679,0,0,0,2.6.654l.367,2.588,2.962-.42-.384-2.7a6.7,6.7,0,0,0,1.561-.937l2.31,1.736,1.8-2.391-2.242-1.684a6.687,6.687,0,0,0,.654-2.6l2.588-.368-.42-2.962Zm-3.469,2.256a2.743,2.743,0,1,1-3.1-2.329,2.745,2.745,0,0,1,3.1,2.329" transform="translate(-98.461 -51.42)" fill="#b0b9f4"/>
          </g>
        </g>
      </g>
    </g>
  </g>
</svg>
