<svg xmlns="http://www.w3.org/2000/svg" xmlns:xlink="http://www.w3.org/1999/xlink" width="295" height="303" viewBox="0 0 295 303">
  <defs>
    <clipPath id="clip-path">
      <rect id="Rectangle_407996" data-name="Rectangle 407996" width="295" height="303" transform="translate(179.711 4586)" fill="#fff" stroke="#707070" stroke-width="1"/>
    </clipPath>
    <clipPath id="clip-path-2">
      <rect id="Rectangle_407995" data-name="Rectangle 407995" width="309.289" height="272.026" fill="none"/>
    </clipPath>
  </defs>
  <g id="Mask_Group_1110973" data-name="Mask Group 1110973" transform="translate(-179.711 -4586)" clip-path="url(#clip-path)">
    <g id="Group_1114963" data-name="Group 1114963" transform="translate(165.711 4596.987)">
      <line id="Line_3342" data-name="Line 3342" y2="37.391" transform="translate(153.988 34.084)" fill="none" stroke="#2d1a14" stroke-linecap="round" stroke-linejoin="round" stroke-width="1.614"/>
      <g id="Group_1114962" data-name="Group 1114962">
        <g id="Group_1114961" data-name="Group 1114961" clip-path="url(#clip-path-2)">
          <path id="Path_921052" data-name="Path 921052" d="M229.735,41.533a11.258,11.258,0,1,1-11.257-11.257,11.258,11.258,0,0,1,11.257,11.257" transform="translate(-63.832 -9.326)" fill="#c6c3fc"/>
          <path id="Path_921053" data-name="Path 921053" d="M239.885,108.879c-21.822-12.7-52.775-9.748-74.446-22.664-13.124-7.822-22.1-25.041-32.939-35.812-14.991-14.9-37.526-27.868-57.945-22.86C46.379,34.454,34.888,56.114,34.746,78.215c-.146,22.98,13.407,40.428,33.777,49.663,19.757,8.957,33.059,17.532,35.76,40.642,1.1,9.377,1.315,19.044,4.825,27.808,3.441,8.6,10.792,16.03,20.381,16.725,11.17.81,21.276-6.4,32.4-6.575,10.11-.163,19.384,5.332,29.285,7.382,20.81,4.311,44.859-2.44,59.625-17.934,22.806-23.929,16.61-71.035-10.913-87.048" transform="translate(-10.703 -8.147)" fill="#f3f9ff"/>
          <line id="Line_3343" data-name="Line 3343" x2="22.197" y2="15.029" transform="translate(96.031 72.635)" fill="none" stroke="#2d1a14" stroke-linecap="round" stroke-linejoin="round" stroke-width="1.614"/>
          <path id="Path_921054" data-name="Path 921054" d="M136.661,91.342A11.258,11.258,0,1,1,125.4,80.085a11.258,11.258,0,0,1,11.257,11.257" transform="translate(-35.161 -24.669)" fill="#c6c3fc"/>
          <path id="Path_921055" data-name="Path 921055" d="M415.043,295.4a25.448,25.448,0,1,1-25.448-25.448A25.448,25.448,0,0,1,415.043,295.4" transform="translate(-112.172 -83.157)" fill="#e1f5f7"/>
          <path id="Path_921056" data-name="Path 921056" d="M34.141,145.546a2.845,2.845,0,1,1,2.845-2.845,2.845,2.845,0,0,1-2.845,2.845" transform="translate(-9.64 -43.081)" fill="#1d0e21"/>
          <path id="Path_921057" data-name="Path 921057" d="M34.141,167.6a2.845,2.845,0,1,1,2.845-2.845,2.845,2.845,0,0,1-2.845,2.845" transform="translate(-9.64 -49.875)" fill="#1d0e21"/>
          <path id="Path_921058" data-name="Path 921058" d="M34.141,191.808a2.845,2.845,0,1,1,2.845-2.845,2.845,2.845,0,0,1-2.845,2.845" transform="translate(-9.64 -57.332)" fill="#1d0e21"/>
          <path id="Path_921059" data-name="Path 921059" d="M407.913,214.2a2.845,2.845,0,1,1,2.845-2.845,2.845,2.845,0,0,1-2.845,2.845" transform="translate(-124.777 -64.231)" fill="#1d0e21"/>
          <path id="Path_921060" data-name="Path 921060" d="M407.913,236.258a2.845,2.845,0,1,1,2.845-2.845,2.845,2.845,0,0,1-2.845,2.845" transform="translate(-124.777 -71.024)" fill="#1d0e21"/>
          <path id="Path_921061" data-name="Path 921061" d="M407.913,260.466a2.845,2.845,0,1,1,2.845-2.845,2.845,2.845,0,0,1-2.845,2.845" transform="translate(-124.777 -78.481)" fill="#1d0e21"/>
          <path id="Path_921062" data-name="Path 921062" d="M285.34,361.005a2.845,2.845,0,1,1,2.845,2.845,2.845,2.845,0,0,1-2.845-2.845" transform="translate(-87.896 -110.328)" fill="#1d0e21"/>
          <path id="Path_921063" data-name="Path 921063" d="M263.286,361.005a2.845,2.845,0,1,1,2.845,2.845,2.845,2.845,0,0,1-2.845-2.845" transform="translate(-81.103 -110.328)" fill="#1d0e21"/>
          <path id="Path_921064" data-name="Path 921064" d="M239.078,361.005a2.845,2.845,0,1,1,2.845,2.845,2.845,2.845,0,0,1-2.845-2.845" transform="translate(-73.646 -110.328)" fill="#1d0e21"/>
          <path id="Path_921065" data-name="Path 921065" d="M272.221,13.5a2.845,2.845,0,1,1,2.845,2.845,2.845,2.845,0,0,1-2.845-2.845" transform="translate(-83.855 -3.283)" fill="#1d0e21"/>
          <path id="Path_921066" data-name="Path 921066" d="M250.168,13.5a2.845,2.845,0,1,1,2.845,2.845,2.845,2.845,0,0,1-2.845-2.845" transform="translate(-77.062 -3.283)" fill="#1d0e21"/>
          <path id="Path_921067" data-name="Path 921067" d="M225.96,13.5a2.845,2.845,0,1,1,2.845,2.845A2.845,2.845,0,0,1,225.96,13.5" transform="translate(-69.605 -3.283)" fill="#1d0e21"/>
          <path id="Path_921068" data-name="Path 921068" d="M238.2,140.147c0,21.575-17.95,39.065-40.092,39.065s-40.093-17.49-40.093-39.065,17.95-39.065,40.093-39.065,40.092,17.49,40.092,39.065" transform="translate(-48.675 -31.137)" fill="#c6c3fc"/>
          <path id="Path_921069" data-name="Path 921069" d="M166.41,251.076c0,21.575-17.95,39.065-40.092,39.065s-40.093-17.49-40.093-39.065,17.95-39.065,40.093-39.065,40.092,17.49,40.092,39.065" transform="translate(-26.561 -65.308)" fill="#c6c3fc"/>
          <path id="Path_921070" data-name="Path 921070" d="M156.4,258.647c0,.48-.017.954-.049,1.425a22.052,22.052,0,1,1-22.006-23.48h.128a21.988,21.988,0,0,1,16.373,7.424.071.071,0,0,1,.026.033,21.963,21.963,0,0,1,5.529,14.6" transform="translate(-34.591 -72.88)" fill="#f5f5ff"/>
          <path id="Path_921071" data-name="Path 921071" d="M160.69,244.049l-10.462,9.24-6.064,5.359v-.17l.046-7.926.082-13.959a21.986,21.986,0,0,1,16.373,7.424.078.078,0,0,1,.026.033" transform="translate(-44.408 -72.88)" fill="#9898ea"/>
          <path id="Path_921072" data-name="Path 921072" d="M165.279,261.952c0,.48-.017.954-.049,1.425l-14.063.15-10.054.108,2.11-1.853,6.006-5.26,10.495-9.2a.07.07,0,0,1,.026.033,21.963,21.963,0,0,1,5.529,14.6" transform="translate(-43.469 -76.185)" fill="#8383dd"/>
          <path id="Path_921073" data-name="Path 921073" d="M165.23,270.524a22.059,22.059,0,0,1-12.766,18.608l-8.25-12-2.121-3.085-.98-3.267,10.053-.108Z" transform="translate(-43.469 -83.332)" fill="#3a2292"/>
          <path id="Path_921074" data-name="Path 921074" d="M148.658,264.862a8.1,8.1,0,1,1-8.1-8.1,8.1,8.1,0,0,1,8.1,8.1" transform="translate(-40.805 -79.094)" fill="#c6c3fc"/>
          <path id="Path_921075" data-name="Path 921075" d="M33.1,339.344q3.765,3.217,7.6,6.351l21.663-27.785a10.652,10.652,0,0,0-.065-13.931c-3.867-4.43-4.493-8.707-8.924-4.839l-34.35,27.537c4.563,4.36,9.276,8.566,14.076,12.666" transform="translate(1.305 -91.683)" fill="#ff8b6b"/>
          <path id="Path_921076" data-name="Path 921076" d="M74.948,285.03c-1.089-4.194,1.129-8.5,3.567-12.077s5.277-7.221,5.626-11.54a18.55,18.55,0,0,1,.329-3.627,2.963,2.963,0,0,1,2.494-2.323c1.863-.045,2.79,2.247,2.958,4.1a22.744,22.744,0,0,1-2.187,11.922,12.665,12.665,0,0,0-1.2,2.9,3.134,3.134,0,0,0,.722,2.919,3.019,3.019,0,0,0,3.131.387,8.4,8.4,0,0,0,2.652-1.977c5.974-5.9,5.126-4.868,10.143-11.961.985-1.392,3.766-5.788,5.287-6.56s3.81-.261,4.229,1.392c.289,1.142-.39,2.281-1.039,3.265-3.188,4.826-3,4.6-6.194,9.426a6.908,6.908,0,0,1,.623,8.77c1.614,4.146.21,8.929-2.441,12.5s-6.477,6.077-10.359,8.252-7.932,4.118-11.4,6.9c-3.351-6.4-13.574-7.353-15.9-14.2.83-1.016,8.131-7.463,8.96-8.479" transform="translate(-20.327 -78.693)" fill="#ff8b6b"/>
          <path id="Path_921077" data-name="Path 921077" d="M120.416,278.319c-.554,1.066-3.72,6.165-3.72,6.165s-.125,5.024-2.167,8.617" transform="translate(-35.28 -85.734)" fill="none" stroke="#2d1a14" stroke-linecap="round" stroke-linejoin="round" stroke-width="1.594"/>
          <path id="Path_921078" data-name="Path 921078" d="M59.05,246.422a11.258,11.258,0,1,1-11.257-11.258A11.258,11.258,0,0,1,59.05,246.422" transform="translate(-11.254 -72.44)" fill="#c6c3fc"/>
          <line id="Line_3344" data-name="Line 3344" x2="13.838" transform="translate(47.795 173.982)" fill="none" stroke="#2d1a14" stroke-linecap="round" stroke-linejoin="round" stroke-width="1.614"/>
          <path id="Path_921079" data-name="Path 921079" d="M339.957,53.221a50.109,50.109,0,0,0,21.382-15.044" transform="translate(-104.721 -11.76)" fill="none" stroke="#2d1a14" stroke-linecap="round" stroke-linejoin="round" stroke-width="1.868"/>
          <path id="Path_921080" data-name="Path 921080" d="M341.715,37.284a3.305,3.305,0,1,1,3.164,3.441A3.306,3.306,0,0,1,341.715,37.284Z" transform="translate(-105.261 -10.509)" fill="none" stroke="#2d1a14" stroke-linecap="round" stroke-linejoin="round" stroke-width="1.868"/>
          <path id="Path_921081" data-name="Path 921081" d="M213.911,181.695h0a6.27,6.27,0,0,1-6.252-6.252V166a6.252,6.252,0,1,1,12.5,0v9.441a6.27,6.27,0,0,1-6.252,6.252" transform="translate(-63.967 -49.21)" fill="#f5f5ff"/>
          <line id="Line_3345" data-name="Line 3345" x2="12.504" transform="translate(143.692 126.233)" fill="#8ddae2"/>
          <path id="Path_921082" data-name="Path 921082" d="M215.942,193.873h0a1.28,1.28,0,0,1-1.276-1.276V189.79a1.276,1.276,0,1,1,2.552,0V192.6a1.28,1.28,0,0,1-1.276,1.276" transform="translate(-66.126 -58.07)" fill="#2d1a14"/>
          <path id="Path_921083" data-name="Path 921083" d="M207.835,155.306h0a18.245,18.245,0,1,1,18.245-18.245,18.3,18.3,0,0,1-18.245,18.245" transform="translate(-58.401 -36.6)" fill="#f5f5ff"/>
          <path id="Path_921084" data-name="Path 921084" d="M212.864,171.425h0a1.151,1.151,0,0,1-1.148-1.148V149.1a1.148,1.148,0,1,1,2.3,0v21.179A1.152,1.152,0,0,1,212.864,171.425Z" transform="translate(-65.217 -45.574)" fill="none" stroke="#472a1c" stroke-linecap="round" stroke-linejoin="round" stroke-width="0.435"/>
          <path id="Path_921085" data-name="Path 921085" d="M218.4,171.425h0a1.152,1.152,0,0,1-1.149-1.148V149.1a1.149,1.149,0,1,1,2.3,0v21.179A1.152,1.152,0,0,1,218.4,171.425Z" transform="translate(-66.921 -45.574)" fill="none" stroke="#472a1c" stroke-linecap="round" stroke-linejoin="round" stroke-width="0.435"/>
          <path id="Path_921086" data-name="Path 921086" d="M207.659,177.082v3.7a6.252,6.252,0,1,0,12.5,0v-3.7Z" transform="translate(-63.967 -54.549)" fill="#9898ea"/>
          <line id="Line_3346" data-name="Line 3346" y2="22.332" transform="translate(101.364 224.71)" fill="none" stroke="#2d1a14" stroke-linecap="round" stroke-linejoin="round" stroke-width="1.614"/>
          <path id="Path_921087" data-name="Path 921087" d="M151.234,357.635a11.258,11.258,0,1,1-11.257-11.257,11.258,11.258,0,0,1,11.257,11.257" transform="translate(-39.65 -106.699)" fill="#c6c3fc"/>
          <path id="Path_921088" data-name="Path 921088" d="M341.57,12.242q-4.1-3.81-8.28-7.531L293.721,47.153a12.032,12.032,0,0,0,16.327,17.592l46.815-37.537c-4.945-5.14-10.068-10.111-15.293-14.967" transform="translate(-89.483 -1.451)" fill="#c75434"/>
          <path id="Path_921089" data-name="Path 921089" d="M343.862,0,316.276,30.028c6.805,6.174,13.815,12.113,21.085,17.734L370.185,25.3Z" transform="translate(-97.426)" fill="#eae5ff"/>
          <path id="Path_921090" data-name="Path 921090" d="M326.507,196.785a11.258,11.258,0,1,1,15.7-2.638,11.258,11.258,0,0,1-15.7,2.638" transform="translate(-99.121 -54.325)" fill="#c6c3fc"/>
          <line id="Line_3347" data-name="Line 3347" x1="8.029" y2="11.271" transform="translate(219.357 142.46)" fill="none" stroke="#2d1a14" stroke-linecap="round" stroke-linejoin="round" stroke-width="1.614"/>
          <path id="Path_921091" data-name="Path 921091" d="M321.881,330.194a11.258,11.258,0,1,1-2.38,15.742,11.258,11.258,0,0,1,2.38-15.742" transform="translate(-97.743 -101.036)" fill="#c6c3fc"/>
          <line id="Line_3348" data-name="Line 3348" x1="8.213" y1="11.138" transform="translate(215.926 218.019)" fill="none" stroke="#2d1a14" stroke-linecap="round" stroke-linejoin="round" stroke-width="1.614"/>
          <path id="Path_921092" data-name="Path 921092" d="M311.432,249.095c0,21.575-17.95,39.065-40.092,39.065s-40.093-17.49-40.093-39.065S249.2,210.03,271.34,210.03s40.092,17.49,40.092,39.065" transform="translate(-71.234 -64.698)" fill="#c6c3fc"/>
          <rect id="Rectangle_407992" data-name="Rectangle 407992" width="9.044" height="23.021" transform="translate(181.803 179.877)" fill="#3a2292"/>
          <rect id="Rectangle_407993" data-name="Rectangle 407993" width="9.085" height="32.133" transform="translate(194.136 170.764)" fill="#9898ea"/>
          <rect id="Rectangle_407994" data-name="Rectangle 407994" width="9.829" height="37.917" transform="translate(207.29 164.569)" fill="#8383dd"/>
          <line id="Line_3349" data-name="Line 3349" x2="48.559" transform="translate(173.553 202.662)" fill="none" stroke="#2d1a14" stroke-linecap="round" stroke-linejoin="round" stroke-width="1.465"/>
          <path id="Path_921093" data-name="Path 921093" d="M105.245,151H100.81a20.022,20.022,0,0,0-3.832-8.243l3.235-3.274a3.45,3.45,0,0,0-.1-4.964,3.675,3.675,0,0,0-5.1.1l-3.321,3.355a21.038,21.038,0,0,0-7.736-2.964v-4.733a3.606,3.606,0,0,0-7.21,0v4.733a21.061,21.061,0,0,0-7.741,2.964l-3.317-3.355a3.675,3.675,0,0,0-5.1-.1,3.444,3.444,0,0,0-.1,4.964l3.234,3.274A19.9,19.9,0,0,0,59.9,151H55.462a3.511,3.511,0,1,0,0,7.019h4.254A19.894,19.894,0,0,0,63.3,166.7l-2.807,2.843a3.438,3.438,0,0,0,.1,4.959,3.672,3.672,0,0,0,5.1-.1l2.719-2.747a21.047,21.047,0,0,0,8.338,3.359v3.73a3.606,3.606,0,0,0,7.21,0v-3.73a21.05,21.05,0,0,0,8.339-3.359l2.719,2.747a3.672,3.672,0,0,0,5.1.1,3.443,3.443,0,0,0,.1-4.959L97.406,166.7a19.887,19.887,0,0,0,3.585-8.679h4.254a3.511,3.511,0,1,0,0-7.019M80.1,163.869a9.2,9.2,0,1,1,9.44-9.2,9.318,9.318,0,0,1-9.44,9.2" transform="translate(-15.974 -39.049)" fill="#c6c3fc"/>
          <ellipse id="Ellipse_11846" data-name="Ellipse 11846" cx="5.143" cy="5.007" rx="5.143" ry="5.007" transform="translate(59.252 110.695)" fill="none" stroke="#472a1c" stroke-miterlimit="10" stroke-width="1.522"/>
          <ellipse id="Ellipse_11847" data-name="Ellipse 11847" cx="16.419" cy="15.984" rx="16.419" ry="15.984" transform="translate(47.977 99.719)" fill="none" stroke="#472a1c" stroke-miterlimit="10" stroke-width="1.522"/>
          <path id="Path_921094" data-name="Path 921094" d="M339.09,125.191h-2.969a13.949,13.949,0,0,0-2.566-5.669l2.165-2.252a2.413,2.413,0,1,0-3.479-3.345l-2.225,2.307a13.854,13.854,0,0,0-5.179-2.038v-3.256a2.414,2.414,0,1,0-4.828,0v3.256a13.873,13.873,0,0,0-5.183,2.038l-2.221-2.307a2.413,2.413,0,1,0-3.479,3.345l2.166,2.252a13.858,13.858,0,0,0-2.566,5.669h-2.969a2.414,2.414,0,1,0,0,4.828H308.6a13.89,13.89,0,0,0,2.4,5.97l-1.879,1.955a2.413,2.413,0,1,0,3.479,3.345l1.821-1.89a13.891,13.891,0,0,0,5.583,2.31v2.566a2.414,2.414,0,0,0,4.828,0V141.71a13.892,13.892,0,0,0,5.583-2.31l1.821,1.89a2.413,2.413,0,1,0,3.479-3.345l-1.879-1.955a13.873,13.873,0,0,0,2.4-5.97h2.849a2.414,2.414,0,0,0,0-4.828m-16.839,8.852a6.323,6.323,0,1,1,6.321-6.325,6.321,6.321,0,0,1-6.321,6.325" transform="translate(-93.442 -33.43)" fill="#8383dd"/>
          <circle id="Ellipse_11848" data-name="Ellipse 11848" cx="3.444" cy="3.444" r="3.444" transform="translate(225.548 90.899)" fill="none" stroke="#472a1c" stroke-miterlimit="10" stroke-width="1.033"/>
          <circle id="Ellipse_11849" data-name="Ellipse 11849" cx="7.986" cy="7.986" r="7.986" transform="translate(221.006 86.357)" fill="none" stroke="#472a1c" stroke-miterlimit="10" stroke-width="1.033"/>
          <circle id="Ellipse_11850" data-name="Ellipse 11850" cx="3.895" cy="3.895" r="3.895" transform="matrix(0.23, -0.973, 0.973, 0.23, 33.578, 151.522)" fill="none" stroke="#2d1a14" stroke-linecap="round" stroke-linejoin="round" stroke-width="1.614"/>
          <circle id="Ellipse_11851" data-name="Ellipse 11851" cx="2.597" cy="2.597" r="2.597" transform="translate(67.546 68.672) rotate(-75.128)" fill="none" stroke="#2d1a14" stroke-linecap="round" stroke-linejoin="round" stroke-width="1.614"/>
          <path id="Path_921095" data-name="Path 921095" d="M53.766,103.882a1.3,1.3,0,1,1-1.3-1.3A1.3,1.3,0,0,1,53.766,103.882Z" transform="translate(-15.762 -31.6)" fill="none" stroke="#2d1a14" stroke-linecap="round" stroke-linejoin="round" stroke-width="1.614"/>
          <circle id="Ellipse_11852" data-name="Ellipse 11852" cx="3.895" cy="3.895" r="3.895" transform="translate(105.372 35.38) rotate(-79.099)" fill="none" stroke="#2d1a14" stroke-linecap="round" stroke-linejoin="round" stroke-width="1.614"/>
          <path id="Path_921096" data-name="Path 921096" d="M135.576,28.076a1.3,1.3,0,1,1-1.3-1.3A1.3,1.3,0,0,1,135.576,28.076Z" transform="translate(-40.963 -8.249)" fill="none" stroke="#2d1a14" stroke-linecap="round" stroke-linejoin="round" stroke-width="1.614"/>
          <circle id="Ellipse_11853" data-name="Ellipse 11853" cx="2.856" cy="2.856" r="2.856" transform="translate(146.028 230.423)" fill="none" stroke="#2d1a14" stroke-linecap="round" stroke-linejoin="round" stroke-width="1.614"/>
          <circle id="Ellipse_11854" data-name="Ellipse 11854" cx="2.077" cy="2.077" r="2.077" transform="translate(167.321 225.749)" fill="none" stroke="#2d1a14" stroke-linecap="round" stroke-linejoin="round" stroke-width="1.614"/>
          <circle id="Ellipse_11855" data-name="Ellipse 11855" cx="2.077" cy="2.077" r="2.077" transform="translate(139.796 265.219)" fill="none" stroke="#2d1a14" stroke-linecap="round" stroke-linejoin="round" stroke-width="1.614"/>
          <circle id="Ellipse_11856" data-name="Ellipse 11856" cx="2.077" cy="2.077" r="2.077" transform="translate(65.529 247.042)" fill="none" stroke="#2d1a14" stroke-linecap="round" stroke-linejoin="round" stroke-width="1.614"/>
          <path id="Path_921097" data-name="Path 921097" d="M362.816,228.009a2.337,2.337,0,1,1-2.337-2.337A2.337,2.337,0,0,1,362.816,228.009Z" transform="translate(-110.322 -69.516)" fill="none" stroke="#2d1a14" stroke-linecap="round" stroke-linejoin="round" stroke-width="1.614"/>
          <circle id="Ellipse_11857" data-name="Ellipse 11857" cx="1.818" cy="1.818" r="1.818" transform="translate(254.571 171.477)" fill="none" stroke="#2d1a14" stroke-linecap="round" stroke-linejoin="round" stroke-width="1.614"/>
          <circle id="Ellipse_11858" data-name="Ellipse 11858" cx="1.818" cy="1.818" r="1.818" transform="matrix(0.23, -0.973, 0.973, 0.23, 97.619, 138.032)" fill="none" stroke="#2d1a14" stroke-linecap="round" stroke-linejoin="round" stroke-width="1.614"/>
          <path id="Path_921098" data-name="Path 921098" d="M384.465,123.251a4.155,4.155,0,1,1-4.155-4.155A4.154,4.154,0,0,1,384.465,123.251Z" transform="translate(-115.871 -36.686)" fill="none" stroke="#2d1a14" stroke-linecap="round" stroke-linejoin="round" stroke-width="1.614"/>
          <path id="Path_921099" data-name="Path 921099" d="M74.948,66.729l1.978,3.616,3.616,1.978L76.926,74.3l-1.978,3.615L72.971,74.3l-3.616-1.978,3.616-1.978Z" transform="translate(-21.364 -20.555)" fill="#3a2292"/>
          <path id="Path_921100" data-name="Path 921100" d="M110.034,55.975l.936,1.712,1.712.936-1.712.936-.936,1.712-.936-1.712-1.712-.936,1.712-.936Z" transform="translate(-33.079 -17.243)" fill="#3a2292"/>
          <path id="Path_921101" data-name="Path 921101" d="M182.932,337.368l2.053,3.754,3.753,2.052-3.753,2.053-2.053,3.754-2.053-3.754-3.753-2.053,3.753-2.052Z" transform="translate(-54.562 -103.923)" fill="#7d0ede"/>
          <path id="Path_921102" data-name="Path 921102" d="M175.626,376.479l1.3,2.374,2.374,1.3-2.374,1.3-1.3,2.373-1.3-2.373-2.374-1.3,2.374-1.3Z" transform="translate(-52.969 -115.971)" fill="#3a2292"/>
          <path id="Path_921103" data-name="Path 921103" d="M406.986,294.357l1.742,3.185,3.185,1.742-3.185,1.742-1.742,3.185-1.742-3.185-3.185-1.742,3.185-1.742Z" transform="translate(-123.851 -90.674)" fill="#7d0ede"/>
          <path id="Path_921104" data-name="Path 921104" d="M428.491,278.869l.757,1.384,1.384.758-1.384.757-.757,1.384-.757-1.384-1.385-.757,1.385-.758Z" transform="translate(-131.333 -85.903)" fill="#3a2292"/>
          <path id="Path_921105" data-name="Path 921105" d="M379.947,170.639l1.161,2.124,2.124,1.161-2.124,1.161-1.161,2.124-1.161-2.124-2.124-1.161,2.124-1.161Z" transform="translate(-116.027 -52.564)" fill="#7d0ede"/>
          <path id="Path_921106" data-name="Path 921106" d="M399.991,150.408l1.337,2.444,2.444,1.337-2.444,1.337-1.337,2.444-1.337-2.444-2.444-1.337,2.444-1.337Z" transform="translate(-122.049 -46.332)" fill="#7d0ede"/>
          <path id="Path_921107" data-name="Path 921107" d="M295.29,178.646l1.039,1.9,1.9,1.039-1.9,1.039-1.039,1.9-1.039-1.9-1.9-1.039,1.9-1.039Z" transform="translate(-90.056 -55.03)" fill="#7d0ede"/>
          <path id="Path_921108" data-name="Path 921108" d="M137.077,132.6l.918,1.679,1.679.918-1.679.918-.918,1.679-.918-1.679-1.679-.918,1.679-.918Z" transform="translate(-41.425 -40.848)" fill="#3a2292"/>
          <path id="Path_921109" data-name="Path 921109" d="M172.028,79.014l1.176,2.15,2.15,1.176-2.15,1.176-1.176,2.15-1.176-2.15-2.15-1.176,2.15-1.176Z" transform="translate(-51.967 -24.339)" fill="#3a2292"/>
          <path id="Path_921110" data-name="Path 921110" d="M178.2,3.769l1.039,1.9,1.9,1.039-1.9,1.039-1.039,1.9-1.039-1.9-1.9-1.039,1.9-1.039Z" transform="translate(-53.989 -1.161)" fill="#3a2292"/>
          <path id="Path_921111" data-name="Path 921111" d="M272.4,39.327l1.337,2.444,2.444,1.337-2.444,1.337L272.4,46.889l-1.337-2.444-2.444-1.337,2.444-1.337Z" transform="translate(-82.745 -12.114)" fill="#7d0ede"/>
          <path id="Path_921112" data-name="Path 921112" d="M303.15,23.684l.757,1.384,1.385.758-1.385.757-.757,1.384-.757-1.384-1.385-.757,1.385-.758Z" transform="translate(-92.723 -7.296)" fill="#7d0ede"/>
          <path id="Path_921113" data-name="Path 921113" d="M387.67,79.778l.989,1.808,1.808.989-1.808.989-.989,1.808-.989-1.808-1.808-.989,1.808-.989Z" transform="translate(-118.557 -24.575)" fill="#7d0ede"/>
          <path id="Path_921114" data-name="Path 921114" d="M58.206,289.985a7.271,7.271,0,1,1-7.271-7.271,7.271,7.271,0,0,1,7.271,7.271" transform="translate(-13.45 -87.088)" fill="#e1f5f7"/>
          <path id="Path_921115" data-name="Path 921115" d="M389.931,345.338c-2.664,2.277-2.35,3-5.059,5.222L353.99,316.93a11.3,11.3,0,0,1,16.015-15.868l34.867,30.831s-9.847,9.092-14.941,13.445" transform="translate(-108.206 -91.88)" fill="#732d19"/>
          <path id="Path_921116" data-name="Path 921116" d="M389.247,361.962l-15.119-21.679c6.63-5.527,13.442-10.825,20.486-15.815l20.332,14.787Z" transform="translate(-115.247 -99.95)" fill="#7d0ede"/>
          <line id="Line_3350" data-name="Line 3350" y1="15.061" x2="18.697" transform="translate(251.802 216.862)" fill="none" stroke="#ff9e00" stroke-linecap="round" stroke-linejoin="round" stroke-width="0.751"/>
          <path id="Path_921117" data-name="Path 921117" d="M365.169,284.1c-.9-4.432-4.662-7.409-8.408-6.65a6.414,6.414,0,0,0-4.335,3.355L334.98,260.965a6.7,6.7,0,0,0-2.672-2.143,2.3,2.3,0,0,0-2.917,1.114c-.349,1.014.324,2.071.963,2.933,3.266,4.408,6.339,8.724,9.606,13.133a5.9,5.9,0,0,0-4.16,3.358,4.838,4.838,0,0,0,.264,4.8c-2.131-.222-3.8,2.171-3.622,4.306s1.6,3.941,3.04,5.525a60.481,60.481,0,0,0,13.048,10.8c2.567,1.576,4.168,3.329,6.991,4.384l8.573-14.756c1.25-1.6,1.78-.487,1.2-2.452.438-1.4.2-6.248-.126-7.863" transform="translate(-101.437 -79.686)" fill="#732d19"/>
          <path id="Path_921118" data-name="Path 921118" d="M361.967,290.334a13.966,13.966,0,0,1,7.434,3.028" transform="translate(-111.501 -89.435)" fill="none" stroke="#2d1a14" stroke-linecap="round" stroke-linejoin="round" stroke-width="1.594"/>
          <path id="Path_921119" data-name="Path 921119" d="M282.553,67.613c-.541,0-18.009,5.783-25.6,8.3a6.22,6.22,0,0,0-4.149,4.737l-3.5,18.275a6.565,6.565,0,0,0,3.26,6.971l-.446,1.337a2.406,2.406,0,0,0,.441,2.554,2.862,2.862,0,0,0,3.811.159l.46-.359,11.936-17.53,14.474,2.307,13.839-10.61Z" transform="translate(-76.761 -20.828)" fill="#c75434"/>
          <path id="Path_921120" data-name="Path 921120" d="M301.73,80.339a.787.787,0,0,1,.078.1,1.448,1.448,0,0,1,.181.559,35.867,35.867,0,0,1,.749,10.709c-.453,3.564-2.083,7.137-5.059,9.15-2.214,1.5-4.934,2-7.566,2.474l-10.077,1.8a15.291,15.291,0,0,1-4.077.356,3.15,3.15,0,0,1-2.4-1.156,2.68,2.68,0,0,1,.682-3.3,7.809,7.809,0,0,1,3.314-1.5c3.679-1.005,7.11-2.44,10.789-3.445a3.06,3.06,0,0,1-2.433-1.1c-4.07-6.381,3.035-13.834,9.258-15.732.3-.092.608-.172.918-.237a9.475,9.475,0,0,1,1.043-.161c.106-.01.212-.019.318-.026A7.446,7.446,0,0,1,301.234,80a1.77,1.77,0,0,1,.5.336" transform="translate(-84.166 -24.28)" fill="#c75434"/>
          <path id="Path_921121" data-name="Path 921121" d="M286.263,76.428l-26.9,31.377a13.155,13.155,0,0,0-2.4,3.928,4.975,4.975,0,0,0-.293,1.294,1.457,1.457,0,0,0,.4,1.266,1.256,1.256,0,0,0,.937.241c1.312-.1,3.351-1.47,5.132-3.557L289.579,80.06Z" transform="translate(-79.063 -23.543)" fill="#e0860e"/>
          <path id="Path_921122" data-name="Path 921122" d="M286.461,78.865l-29.79,34.912a1.457,1.457,0,0,0,.4,1.266,1.255,1.255,0,0,0,.937.241l30.135-35.311Z" transform="translate(-79.063 -24.294)" fill="#fab919"/>
          <path id="Path_921123" data-name="Path 921123" d="M252.649,133.08l6.918-4.706-3.3-2.774s-3.733,7.818-3.613,7.48" transform="translate(-77.825 -38.69)" fill="#f6c8b0"/>
          <path id="Path_921124" data-name="Path 921124" d="M254.052,132.282c-.693,1.439-1.3,2.7-1.389,2.851l2.643-1.8Z" transform="translate(-77.831 -40.748)" fill="#2d1a14"/>
          <path id="Path_921125" data-name="Path 921125" d="M303.441,78.272l.947-1.106a3.059,3.059,0,0,0,.6-3.18,2.07,2.07,0,0,0-.538-.714,2.108,2.108,0,0,0-1.073-.48,3.121,3.121,0,0,0-2.75,1.161l-.947,1.106Z" transform="translate(-92.313 -22.415)" fill="#fc9090"/>
          <path id="Path_921126" data-name="Path 921126" d="M304.01,72.987a2.179,2.179,0,0,0-.637-.2,3.121,3.121,0,0,0-2.75,1.16l-.947,1.108,1.477,1.26Z" transform="translate(-92.313 -22.415)" fill="#ee4954"/>
          <path id="Path_921127" data-name="Path 921127" d="M296.279,78.925l3.727,3.129c.249.21.048.856-.446,1.436l-.029.035c-.5.58-1.1.884-1.354.674L294.45,81.07c-.25-.21-.049-.856.446-1.437l.029-.034c.495-.58,1.1-.884,1.353-.674" transform="translate(-90.67 -24.292)" fill="#e0dede"/>
          <path id="Path_921128" data-name="Path 921128" d="M298.825,76l3.781,3.175c.235.2.015.841-.488,1.43s-1.106.911-1.341.713L297,78.141c-.235-.2-.015-.84.489-1.43s1.106-.911,1.341-.714" transform="translate(-91.458 -23.392)" fill="#fff"/>
          <path id="Path_921129" data-name="Path 921129" d="M289.214,106.706c-.368-.757-.784-1.488-1.217-2.209l-11.08,3.231a8.436,8.436,0,0,0-3.142,1.407,2.88,2.88,0,0,0-1.04,3.079c.7,1.834,3.276,1.789,5.2,1.411l12-2.357q.465-.091.933-.186a27.852,27.852,0,0,0-1.655-4.374" transform="translate(-83.972 -32.189)" fill="#c75434"/>
          <path id="Path_921130" data-name="Path 921130" d="M262.824,83.033a6.109,6.109,0,0,0,.587,7.69,181.085,181.085,0,0,0-8.378,18.913" transform="translate(-78.561 -25.578)" fill="none" stroke="#2d1a14" stroke-linecap="round" stroke-linejoin="round" stroke-width="1.594"/>
          <path id="Path_921131" data-name="Path 921131" d="M315.294,89.053a19.806,19.806,0,0,0-1.346-7.623" transform="translate(-96.709 -25.084)" fill="none" stroke="#2d1a14" stroke-linecap="round" stroke-linejoin="round" stroke-width="1.594"/>
        </g>
      </g>
    </g>
  </g>
</svg>
