<svg xmlns="http://www.w3.org/2000/svg" xmlns:xlink="http://www.w3.org/1999/xlink" width="104.668" height="126" viewBox="0 0 104.668 126">
  <defs>
    <clipPath id="clip-path">
      <rect id="Rectangle_407162" data-name="Rectangle 407162" width="73" height="73" transform="translate(275.328 9379.664)" fill="#fff" stroke="#707070" stroke-width="1"/>
    </clipPath>
    <clipPath id="clip-path-2">
      <rect id="Rectangle_407159" data-name="Rectangle 407159" width="63.475" height="70.682" fill="#fff" stroke="#3d034b" stroke-width="3"/>
    </clipPath>
    <clipPath id="clip-path-3">
      <rect id="Rectangle_407161" data-name="Rectangle 407161" width="42.467" height="44.002" transform="translate(-0.323 0.124)" fill="#3a2292" stroke="#707070" stroke-width="1"/>
    </clipPath>
    <clipPath id="clip-path-4">
      <rect id="Rectangle_407670" data-name="Rectangle 407670" width="39.935" height="34.925" fill="#3a2292"/>
    </clipPath>
  </defs>
  <g id="Group_1114984" data-name="Group 1114984" transform="translate(-180 -3105.647)">
    <rect id="Rectangle_407158" data-name="Rectangle 407158" width="104.668" height="126" transform="translate(180 3105.647)" fill="#3a2292"/>
    <g id="Mask_Group_1110937" data-name="Mask Group 1110937" transform="translate(-79.328 -6247.518)" clip-path="url(#clip-path)">
      <g id="Group_1114164" data-name="Group 1114164" transform="translate(280.131 9380.624)" clip-path="url(#clip-path-2)">
        <path id="Path_918236" data-name="Path 918236" d="M27.452,63.948A42.13,42.13,0,0,1,6.56,49.078,35.558,35.558,0,0,1,.011,31.658C0,31.568,0,31.482,0,31.392V10.025a3.181,3.181,0,0,1,2.824-3.04C10.9,5.713,22.791,1.815,27.528.2a3.73,3.73,0,0,1,2.393,0C33.635,1.458,46.4,5.675,54.771,6.987a3.179,3.179,0,0,1,2.825,3.04V31.391c0,.09,0,.176-.013.264A35.552,35.552,0,0,1,51.037,49.08c-6.024,8.366-16.761,13.146-21.1,14.814a3.7,3.7,0,0,1-2.488.057" transform="translate(2.939 3.272)" fill="#fff" stroke="#ff85e7" stroke-width="3"/>
      </g>
      <g id="Mask_Group_1110936" data-name="Mask Group 1110936" transform="translate(291.362 9392.394)" clip-path="url(#clip-path-3)">
        <g id="Group_1114689" data-name="Group 1114689" transform="translate(0.677 5.124)">
          <g id="Group_1114688" data-name="Group 1114688" clip-path="url(#clip-path-4)">
            <path id="Path_919782" data-name="Path 919782" d="M100.941,24.779h4.014c.281,0,.522-.419.522-.907s-.241-.906-.522-.906h-4.014c-.281,0-.522.418-.522.906s.241.907.522.907" transform="translate(-77.558 -17.738)" fill="#3a2292"/>
            <path id="Path_919783" data-name="Path 919783" d="M107.484,38.276h-6.543c-.281,0-.522.419-.522.906s.241.907.522.907h6.543c.241,0,.482-.419.522-.907,0-.487-.241-.906-.522-.906" transform="translate(-77.559 -29.562)" fill="#3a2292"/>
            <path id="Path_919784" data-name="Path 919784" d="M39.858,7.467a.737.737,0,0,0,.069-.426V6.9a1.037,1.037,0,0,0-.278-.627l-6-6A.851.851,0,0,0,33.027,0h-.07a.869.869,0,0,0-.336.069H15.46A3.571,3.571,0,0,0,11.9,3.625v2.4a12.862,12.862,0,0,0,.163,25.658A3.543,3.543,0,0,0,15.6,34.925H36.442a3.35,3.35,0,0,0,3.416-3.485Zm-6-4.539L37.07,6.2H33.863ZM23.9,18.848a11.069,11.069,0,0,1-.114,1.571H19.619c.032-.518.05-1.042.05-1.571,0-.576-.02-1.146-.059-1.707h4.16a11.082,11.082,0,0,1,.132,1.707m-22.083,0a11.082,11.082,0,0,1,.132-1.707h4.16c-.038.562-.059,1.132-.059,1.707,0,.529.018,1.053.05,1.571H1.935a11.069,11.069,0,0,1-.114-1.571m6.01,0c0-.578.023-1.148.067-1.707h4.031v3.278H7.888c-.037-.516-.056-1.04-.056-1.571m10.062,0c0,.531-.02,1.055-.057,1.571H13.8V17.141h4.031c.043.559.067,1.13.067,1.707m-4.1,6.124V22.286h3.825a18.759,18.759,0,0,1-.628,2.687Zm0-9.7V12.588h3.152a18.53,18.53,0,0,1,.651,2.686Zm-1.867-2.686v2.686h-3.8a18.529,18.529,0,0,1,.651-2.686Zm0,9.7v2.687h-3.2A18.76,18.76,0,0,1,8.1,22.286Zm0-11.565H9.534a5.6,5.6,0,0,1,2.395-2.7ZM9.468,26.839h2.461v2.839a5.741,5.741,0,0,1-2.461-2.839m4.328,0h2.461A5.74,5.74,0,0,1,13.8,29.678Zm2.394-16.118H13.8v-2.7a5.606,5.606,0,0,1,2.394,2.7M17.859,27.7c.135-.275.262-.561.383-.856h1.132a1.013,1.013,0,0,0,.93-.885l0-.048a.946.946,0,0,0-.933-.933h-.5a21.006,21.006,0,0,0,.555-2.687h3.922a11.1,11.1,0,0,1-6.294,6.773,11.359,11.359,0,0,0,.8-1.364m1.554-12.421a20.723,20.723,0,0,0-.575-2.686h.536a.971.971,0,0,0,.933-.933.946.946,0,0,0-.933-.933h-1.19c-.1-.247-.211-.489-.326-.722a11.384,11.384,0,0,0-.8-1.361,11.1,11.1,0,0,1,6.247,6.636ZM8.666,8.638A11.36,11.36,0,0,0,7.866,10c-.114.232-.221.474-.325.72H6.26a.933.933,0,1,0,0,1.867h.627a20.707,20.707,0,0,0-.575,2.686H2.418A11.1,11.1,0,0,1,8.666,8.638M6.294,22.286a20.936,20.936,0,0,0,.555,2.687H6.26a.933.933,0,1,0,0,1.867H7.484c.121.3.248.583.384.858a11.354,11.354,0,0,0,.8,1.361,11.1,11.1,0,0,1-6.293-6.773ZM38.255,31.37a1.8,1.8,0,0,1-1.813,1.812H15.6a1.732,1.732,0,0,1-1.533-.906,7.474,7.474,0,0,0,2.491-.679H14.525a13.04,13.04,0,0,0,7.41-3.672,12.861,12.861,0,0,0-8.148-21.9v-2.4A1.8,1.8,0,0,1,15.6,1.812H32.05V7.041a.923.923,0,0,0,.906.906h5.3Z" transform="translate(0 0)" fill="#3a2292"/>
          </g>
        </g>
      </g>
    </g>
  </g>
</svg>
