<svg xmlns="http://www.w3.org/2000/svg" xmlns:xlink="http://www.w3.org/1999/xlink" width="99" height="99" viewBox="0 0 99 99">
  <defs>
    <clipPath id="clip-path">
      <rect id="Rectangle_401223" data-name="Rectangle 401223" width="99" height="99" transform="translate(0)" fill="#ff85e7"/>
    </clipPath>
    <clipPath id="clip-path-2">
      <rect id="Rectangle_401223-2" data-name="Rectangle 401223" width="88.539" height="88.539" fill="#f3f9ff"/>
    </clipPath>
    <clipPath id="clip-path-3">
      <rect id="Rectangle_407716" data-name="Rectangle 407716" width="48.333" height="66.406" fill="none"/>
    </clipPath>
  </defs>
  <g id="Group_1114184" data-name="Group 1114184" transform="translate(-619.921 -5755.871)">
    <g id="Group_1100724" data-name="Group 1100724" transform="translate(619.921 5755.871)">
      <g id="Group_1099654" data-name="Group 1099654" transform="translate(0 0)">
        <g id="Mask_Group_1099652" data-name="Mask Group 1099652" clip-path="url(#clip-path)">
          <path id="Path_873521" data-name="Path 873521" d="M99,77.066A22,22,0,0,1,77.066,99H21.934A22,22,0,0,1,0,77.066V21.933A22,22,0,0,1,21.934,0H77.066A22,22,0,0,1,99,21.934Z" transform="translate(0)" fill="#170551"/>
        </g>
      </g>
      <g id="Group_1099659" data-name="Group 1099659" transform="translate(4.77 5.723)">
        <g id="Group_1099652" data-name="Group 1099652" transform="translate(0 0)" clip-path="url(#clip-path-2)">
          <path id="Path_873521-2" data-name="Path 873521" d="M88.539,68.922A19.674,19.674,0,0,1,68.923,88.539H19.616A19.674,19.674,0,0,1,0,68.922V19.616A19.674,19.674,0,0,1,19.616,0H68.923A19.674,19.674,0,0,1,88.539,19.616Z" fill="#f3f9ff"/>
        </g>
      </g>
    </g>
    <g id="Group_1100725" data-name="Group 1100725" transform="translate(636.343 5771.293)">
      <rect id="Rectangle_401104" data-name="Rectangle 401104" width="68" height="69" transform="translate(-0.421 0.138)" fill="none"/>
      <g id="Group_1114704" data-name="Group 1114704" transform="translate(9.579 1.138)">
        <rect id="Rectangle_407700" data-name="Rectangle 407700" width="48.333" height="57.061" transform="translate(0 0)" fill="#eae5ff"/>
        <rect id="Rectangle_407701" data-name="Rectangle 407701" width="7.524" height="2.277" transform="translate(20.263 7.032)" fill="#3a2292"/>
        <rect id="Rectangle_407702" data-name="Rectangle 407702" width="3.762" height="2.277" transform="translate(30.426 7.032)" fill="#3a2292"/>
        <rect id="Rectangle_407703" data-name="Rectangle 407703" width="6.356" height="2.277" transform="translate(37.055 7.032)" fill="#3a2292"/>
        <rect id="Rectangle_407704" data-name="Rectangle 407704" width="7.524" height="2.277" transform="translate(20.263 11.122)" fill="#3a2292"/>
        <rect id="Rectangle_407705" data-name="Rectangle 407705" width="3.762" height="2.277" transform="translate(30.426 11.122)" fill="#3a2292"/>
        <rect id="Rectangle_407706" data-name="Rectangle 407706" width="6.356" height="2.277" transform="translate(37.055 11.122)" fill="#3a2292"/>
        <rect id="Rectangle_407707" data-name="Rectangle 407707" width="7.524" height="2.276" transform="translate(20.263 26.375)" fill="#3a2292"/>
        <rect id="Rectangle_407708" data-name="Rectangle 407708" width="3.762" height="2.276" transform="translate(30.426 26.375)" fill="#3a2292"/>
        <rect id="Rectangle_407709" data-name="Rectangle 407709" width="6.356" height="2.276" transform="translate(37.055 26.375)" fill="#3a2292"/>
        <rect id="Rectangle_407710" data-name="Rectangle 407710" width="7.524" height="2.276" transform="translate(20.263 30.464)" fill="#3a2292"/>
        <rect id="Rectangle_407711" data-name="Rectangle 407711" width="3.762" height="2.276" transform="translate(30.426 30.464)" fill="#3a2292"/>
        <rect id="Rectangle_407712" data-name="Rectangle 407712" width="6.356" height="2.276" transform="translate(37.055 30.464)" fill="#3a2292"/>
        <rect id="Rectangle_407713" data-name="Rectangle 407713" width="11.608" height="11.608" transform="translate(4.781 4.898)" fill="#c0afff"/>
        <g id="Group_1114703" data-name="Group 1114703" transform="translate(0 0)">
          <g id="Group_1114702" data-name="Group 1114702" clip-path="url(#clip-path-3)">
            <path id="Path_919907" data-name="Path 919907" d="M16.373,20.252a2.851,2.851,0,0,1-.571,1.795H12.473a2.776,2.776,0,0,1-.539-1.795,3.709,3.709,0,0,0,.6-1.721h3.244a3.739,3.739,0,0,0,.6,1.721" transform="translate(-3.569 -5.543)" fill="#f49d56"/>
            <path id="Path_919908" data-name="Path 919908" d="M13.873,9.844l2.879,1.776-.569,4.043a3.288,3.288,0,0,1-2.309,1.342,3.286,3.286,0,0,1-2.309-1.342l-.569-4.043Z" transform="translate(-3.289 -2.944)" fill="#fcb87a"/>
            <path id="Path_919909" data-name="Path 919909" d="M16.535,12.857l-.294.921h-.329l.261-2.312c-.444-.7-1.232-.683-2.373-.564-1.14-.118-1.929-.139-2.373.564l.261,2.312H11.36l-.294-.921c-2.158-5.173,7.628-5.172,5.47,0" transform="translate(-3.216 -2.685)" fill="#313c3b"/>
            <path id="Path_919910" data-name="Path 919910" d="M14.492,20.062l-1.867,1.086-1.868-1.086c-1.619.3-2.733.309-3.935,2.445H18.428c-1.2-2.136-2.318-2.147-3.937-2.445" transform="translate(-2.04 -6)" fill="#a01fa0"/>
            <rect id="Rectangle_407714" data-name="Rectangle 407714" width="11.608" height="11.608" transform="translate(4.78 23.467)" fill="#c0afff"/>
            <path id="Path_919911" data-name="Path 919911" d="M16.373,46.746a2.851,2.851,0,0,1-.571,1.795H12.473a2.776,2.776,0,0,1-.539-1.795,3.709,3.709,0,0,0,.6-1.721h3.244a3.739,3.739,0,0,0,.6,1.721" transform="translate(-3.569 -13.467)" fill="#f49d56"/>
            <path id="Path_919912" data-name="Path 919912" d="M13.873,36.337l2.879,1.776-.569,4.044A3.288,3.288,0,0,1,13.873,43.5a3.286,3.286,0,0,1-2.309-1.342l-.569-4.044Z" transform="translate(-3.289 -10.869)" fill="#fcb87a"/>
            <path id="Path_919913" data-name="Path 919913" d="M16.535,39.349l-.294.922h-.329l.261-2.312c-.444-.7-1.232-.683-2.373-.564-1.14-.118-1.929-.139-2.373.564l.261,2.312H11.36l-.294-.922c-2.158-5.173,7.628-5.173,5.47,0" transform="translate(-3.216 -10.609)" fill="#313c3b"/>
            <path id="Path_919914" data-name="Path 919914" d="M14.492,46.555l-1.867,1.086-1.868-1.086c-1.619.3-2.733.309-3.935,2.445H18.428c-1.2-2.136-2.318-2.148-3.937-2.445" transform="translate(-2.04 -13.925)" fill="#3c3c99"/>
            <rect id="Rectangle_407715" data-name="Rectangle 407715" width="11.608" height="11.608" transform="translate(4.78 41.052)" fill="#c0afff"/>
            <path id="Path_919915" data-name="Path 919915" d="M16.374,71.836a2.848,2.848,0,0,1-.572,1.795H12.473a2.781,2.781,0,0,1-.538-1.795,3.708,3.708,0,0,0,.6-1.722h3.244a3.756,3.756,0,0,0,.6,1.722" transform="translate(-3.57 -20.972)" fill="#f49d56"/>
            <path id="Path_919916" data-name="Path 919916" d="M13.874,61.427,16.752,63.2l-.568,4.044a3.286,3.286,0,0,1-2.309,1.341,3.286,3.286,0,0,1-2.309-1.341L11,63.2Z" transform="translate(-3.289 -18.373)" fill="#e07e2d"/>
            <path id="Path_919917" data-name="Path 919917" d="M16.536,64.44l-.294.922h-.329l.261-2.312c-.444-.7-1.232-.683-2.373-.564-1.14-.118-1.929-.139-2.373.564l.261,2.312h-.329l-.294-.922c-2.159-5.173,7.627-5.172,5.468,0" transform="translate(-3.217 -18.114)" fill="#313c3b"/>
            <path id="Path_919918" data-name="Path 919918" d="M14.493,71.645l-1.867,1.086-1.868-1.086c-1.619.3-2.733.309-3.935,2.445H18.429c-1.2-2.136-2.317-2.147-3.936-2.445" transform="translate(-2.041 -21.43)" fill="#dd2ccd"/>
            <path id="Path_919919" data-name="Path 919919" d="M27.426,47.276a7.055,7.055,0,1,1-7.054-7.054,7.054,7.054,0,0,1,7.054,7.054" transform="translate(-3.983 -12.031)" fill="#6bfcf2"/>
            <path id="Path_919920" data-name="Path 919920" d="M24.94,45.261l-4.423,4.423L17.553,46.72l-1.311,1.311,4.275,4.275,5.734-5.734Z" transform="translate(-4.858 -13.538)" fill="#9d0388"/>
            <path id="Path_919921" data-name="Path 919921" d="M50.206,64.151l-3.651-7.463a.235.235,0,0,1-.039.053c-1.412-2.771-3.022-1.975-3.654-1.063l-.187-.367a1.933,1.933,0,0,0-3.6.507,1.921,1.921,0,0,0-3.61,1.074l-.128-.251a1.919,1.919,0,0,0-3.6,1.175l-4.36-8.127a1.815,1.815,0,1,0-3.15,1.8l5.226,9.87L32.459,67.6l-3.174-1.4c-6.024-2.963-6.635-.781-6.7-.744a1.026,1.026,0,0,0,.051,1.8L31.735,71.8c4.339,3.378,3.146,2.67,7.5,4.432L41.616,81l11.191-4.7-2.152-4.068c.8-2.658,1.187-5.124-.449-8.074" transform="translate(-6.604 -14.589)" fill="#ffc278"/>
            <path id="Path_919922" data-name="Path 919922" d="M26.413,49.662c.821-.443,1.667.444,2.23,2.157l-1.964,1.072c-1.27-1.606-1.358-2.639-.266-3.229" transform="translate(-7.674 -14.82)" fill="#f5802e"/>
          </g>
        </g>
      </g>
    </g>
  </g>
</svg>
