<svg xmlns="http://www.w3.org/2000/svg" xmlns:xlink="http://www.w3.org/1999/xlink" width="99" height="99" viewBox="0 0 99 99">
  <defs>
    <clipPath id="clip-path">
      <rect id="Rectangle_401223" data-name="Rectangle 401223" width="99" height="99" transform="translate(0)" fill="#ffa8fb"/>
    </clipPath>
    <clipPath id="clip-path-2">
      <rect id="Rectangle_401223-2" data-name="Rectangle 401223" width="88.539" height="88.539" fill="#f3f9ff"/>
    </clipPath>
    <clipPath id="clip-path-3">
      <rect id="Rectangle_407736" data-name="Rectangle 407736" width="61" height="64.75" fill="none"/>
    </clipPath>
  </defs>
  <g id="Group_1114194" data-name="Group 1114194" transform="translate(-619.921 -5755.871)">
    <g id="Group_1100724" data-name="Group 1100724" transform="translate(619.921 5755.871)">
      <g id="Group_1099654" data-name="Group 1099654" transform="translate(0 0)">
        <g id="Group_1099652" data-name="Group 1099652" clip-path="url(#clip-path)">
          <path id="Path_873521" data-name="Path 873521" d="M99,77.066A22,22,0,0,1,77.066,99H21.934A22,22,0,0,1,0,77.066V21.933A22,22,0,0,1,21.934,0H77.066A22,22,0,0,1,99,21.934Z" transform="translate(0)" fill="#170551"/>
        </g>
      </g>
      <g id="Group_1099659" data-name="Group 1099659" transform="translate(4.77 5.723)">
        <g id="Group_1099652-2" data-name="Group 1099652" transform="translate(0 0)" clip-path="url(#clip-path-2)">
          <path id="Path_873521-2" data-name="Path 873521" d="M88.539,68.922A19.674,19.674,0,0,1,68.923,88.539H19.616A19.674,19.674,0,0,1,0,68.922V19.616A19.674,19.674,0,0,1,19.616,0H68.923A19.674,19.674,0,0,1,88.539,19.616Z" fill="#f3f9ff"/>
        </g>
      </g>
    </g>
    <g id="Group_1100725" data-name="Group 1100725" transform="translate(636.343 5771.293)">
      <rect id="Rectangle_401104" data-name="Rectangle 401104" width="68" height="69" fill="none"/>
      <g id="Group_1114710" data-name="Group 1114710" transform="translate(3.5 2.125)">
        <g id="Group_1114709" data-name="Group 1114709" transform="translate(0 0)" clip-path="url(#clip-path-3)">
          <path id="Path_919973" data-name="Path 919973" d="M10.4,84.659c0,3.266,2.963,5.915,6.621,5.915s6.621-2.649,6.621-5.915-2.965-5.913-6.621-5.913S10.4,81.394,10.4,84.659" transform="translate(-2.574 -25.824)" fill="#c0afff"/>
          <path id="Path_919974" data-name="Path 919974" d="M56.907,0H10.4V58.835H60.15V5.913C60.15,2.647,58.7,0,56.907,0" transform="translate(-2.574 0)" fill="#eae5ff"/>
          <path id="Path_919975" data-name="Path 919975" d="M3.246,0C1.453,0,0,2.647,0,5.913v2.6H7.826V0Z" transform="translate(0 0)" fill="#3a2292"/>
          <path id="Path_919976" data-name="Path 919976" d="M65.088,0H43.456V58.835H68.331V5.913C68.331,2.647,66.88,0,65.088,0" transform="translate(-10.755 0)" fill="#c0afff"/>
          <rect id="Rectangle_407728" data-name="Rectangle 407728" width="42.415" height="45.077" transform="translate(11.495 6.31)" fill="#f1f1f2"/>
          <rect id="Rectangle_407729" data-name="Rectangle 407729" width="21.208" height="45.077" transform="translate(32.701 6.31)" fill="#e6e7e8"/>
          <rect id="Rectangle_407730" data-name="Rectangle 407730" width="32.536" height="2.13" transform="translate(16.433 13.272)" fill="#3d034b"/>
          <rect id="Rectangle_407731" data-name="Rectangle 407731" width="32.536" height="2.13" transform="translate(16.433 19.281)" fill="#3d034b"/>
          <rect id="Rectangle_407732" data-name="Rectangle 407732" width="32.536" height="2.128" transform="translate(16.433 25.373)" fill="#3d034b"/>
          <rect id="Rectangle_407733" data-name="Rectangle 407733" width="32.536" height="2.13" transform="translate(16.433 31.201)" fill="#3d034b"/>
          <rect id="Rectangle_407734" data-name="Rectangle 407734" width="32.536" height="2.129" transform="translate(16.433 37.652)" fill="#3d034b"/>
          <rect id="Rectangle_407735" data-name="Rectangle 407735" width="23.803" height="2.129" transform="translate(20.8 43.187)" fill="#3d034b"/>
          <path id="Path_919977" data-name="Path 919977" d="M65.416,83.672H22.108a10.025,10.025,0,0,1,.336,2.6c0,3.266-1.453,5.915-3.245,5.915H62.506c1.792,0,3.246-2.649,3.246-5.915v-2.6Z" transform="translate(-4.752 -27.44)" fill="#3a2292"/>
        </g>
      </g>
    </g>
  </g>
</svg>
