<svg xmlns="http://www.w3.org/2000/svg" xmlns:xlink="http://www.w3.org/1999/xlink" width="129" height="128" viewBox="0 0 129 128">
  <defs>
    <radialGradient id="radial-gradient" cx="0.5" cy="0.5" r="0.5" gradientUnits="objectBoundingBox">
      <stop offset="0" stop-color="#3a2292"/>
      <stop offset="1" stop-color="#170551"/>
    </radialGradient>
    <clipPath id="clip-path">
      <rect id="Rectangle_406617" data-name="Rectangle 406617" width="109.997" height="109.997" stroke="rgba(0,0,0,0)" stroke-miterlimit="10" stroke-width="1" fill="url(#radial-gradient)"/>
    </clipPath>
    <clipPath id="clip-path-2">
      <rect id="Rectangle_400938" data-name="Rectangle 400938" width="120" height="120" fill="none"/>
    </clipPath>
    <clipPath id="clip-path-3">
      <rect id="Rectangle_407896" data-name="Rectangle 407896" width="61" height="65.342" fill="#fff"/>
    </clipPath>
  </defs>
  <g id="Group_1114463" data-name="Group 1114463" transform="translate(-390 -2746)">
    <g id="Grupo_108927" data-name="Grupo 108927" transform="translate(0 -1721)">
      <path id="Rectángulo_36179" data-name="Rectángulo 36179" d="M0,0H129V128H0Z" transform="translate(390 4467)" fill="#eae5ff"/>
    </g>
    <g id="Group_1112835" data-name="Group 1112835" transform="translate(400 2755)">
      <g id="Group_1112834" data-name="Group 1112834" clip-path="url(#clip-path)">
        <path id="Path_917479" data-name="Path 917479" d="M108.876,65.415l-5.382-4.43a48.4,48.4,0,0,0-.549-15.468l5.04-4.8a3.066,3.066,0,0,0,.674-3.5l-5.11-11.178a3.073,3.073,0,0,0-2.788-1.791c-.1,0-.2,0-.3.014l-6.94.673A49.134,49.134,0,0,0,82.2,14.391l.171-6.957a3.068,3.068,0,0,0-2-2.949L68.855.194A3.059,3.059,0,0,0,67.784,0h0A3.054,3.054,0,0,0,65.415,1.12L60.984,6.5a48.4,48.4,0,0,0-15.467.549l-4.8-5.04A3.082,3.082,0,0,0,38.5,1.059a3.043,3.043,0,0,0-1.276.278L26.042,6.448a3.069,3.069,0,0,0-1.777,3.086l.673,6.942A49.125,49.125,0,0,0,14.389,27.8l-6.957-.171H7.356a3.079,3.079,0,0,0-2.873,2L.192,41.143a3.071,3.071,0,0,0,.923,3.438L6.5,49.013A48.4,48.4,0,0,0,7.051,64.48l-5.041,4.8a3.068,3.068,0,0,0-.673,3.5l5.11,11.178a3.074,3.074,0,0,0,2.789,1.792c.1,0,.2,0,.3-.014l6.942-.674A49.137,49.137,0,0,0,27.8,95.608l-.171,6.957a3.068,3.068,0,0,0,2,2.95l11.517,4.291a3.072,3.072,0,0,0,3.439-.926l4.431-5.383a48.394,48.394,0,0,0,15.467-.549l4.8,5.04a3.08,3.08,0,0,0,2.221.952,3.048,3.048,0,0,0,1.275-.277l11.18-5.111a3.07,3.07,0,0,0,1.777-3.087l-.673-6.941A49.121,49.121,0,0,0,95.606,82.2l6.957.171h.076a3.079,3.079,0,0,0,2.873-2L109.8,68.856a3.068,3.068,0,0,0-.927-3.44" transform="translate(0 0)" stroke="rgba(0,0,0,0)" stroke-miterlimit="10" stroke-width="1" fill="url(#radial-gradient)"/>
      </g>
    </g>
    <g id="Group_1110743" data-name="Group 1110743" transform="translate(420.432 2773.223)">
      <rect id="Rectangle_401104" data-name="Rectangle 401104" width="68.522" height="69.627" transform="translate(0.079 -0.223)" fill="none"/>
      <g id="Group_1114877" data-name="Group 1114877" transform="translate(5.568 2.99)">
        <g id="Group_1114876" data-name="Group 1114876" transform="translate(0 0)" clip-path="url(#clip-path-3)">
          <path id="Path_920913" data-name="Path 920913" d="M52.248,24H27.826a1.411,1.411,0,0,0,0,2.822H52.248a1.437,1.437,0,0,0,1.411-1.41A1.517,1.517,0,0,0,52.248,24" transform="translate(2.022 1.837)" fill="#fff"/>
          <path id="Path_920914" data-name="Path 920914" d="M52.248,27.726H27.826a1.411,1.411,0,0,0,0,2.822H52.248a1.437,1.437,0,0,0,1.411-1.41,1.517,1.517,0,0,0-1.411-1.411" transform="translate(2.022 2.123)" fill="#fff"/>
          <path id="Path_920915" data-name="Path 920915" d="M52.248,31.557H27.826a1.411,1.411,0,0,0,0,2.822H52.248a1.437,1.437,0,0,0,1.411-1.41,1.517,1.517,0,0,0-1.411-1.411" transform="translate(2.022 2.416)" fill="#fff"/>
          <path id="Path_920916" data-name="Path 920916" d="M40.634,36.7a1.437,1.437,0,0,0-1.411-1.411h-11.4a1.411,1.411,0,0,0,0,2.823H39.332a1.5,1.5,0,0,0,1.3-1.411" transform="translate(2.022 2.702)" fill="#fff"/>
          <path id="Path_920917" data-name="Path 920917" d="M32.867,19.156H50.451a1.411,1.411,0,1,0,0-2.823H32.867a1.411,1.411,0,0,0,0,2.823" transform="translate(2.408 1.251)" fill="#fff"/>
          <path id="Path_920918" data-name="Path 920918" d="M51.862,47.89H32.867a1.411,1.411,0,0,0,0,2.822H51.862a1.436,1.436,0,0,0,1.411-1.41,1.611,1.611,0,0,0-1.411-1.411" transform="translate(2.408 3.667)" fill="#fff"/>
          <path id="Path_920919" data-name="Path 920919" d="M51.09,44.16H42.949a1.411,1.411,0,0,0,0,2.822H51.09a1.436,1.436,0,0,0,1.411-1.41A1.51,1.51,0,0,0,51.09,44.16" transform="translate(3.18 3.381)" fill="#fff"/>
          <path id="Path_920920" data-name="Path 920920" d="M60.566,8.575C51.883-.109,52.425.325,52.209.216A.822.822,0,0,0,51.774,0H13.568a1.437,1.437,0,0,0-1.411,1.41V25.832A12.876,12.876,0,0,0,6.4,49.82v3.148H5.427a1.411,1.411,0,0,0,0,2.823H6.4v1.193a2.9,2.9,0,0,0,1.628,2.605v.976a4.776,4.776,0,1,0,9.551,0V59.7H59.59A1.436,1.436,0,0,0,61,58.286V9.443a.988.988,0,0,0-.435-.868M52.859,4.667,56.333,8.14H52.859ZM25.724,2.713v9.551L24.1,10.094a1.318,1.318,0,0,0-2.17,0L20.3,12.264V2.713ZM8.358,47.758a10.13,10.13,0,0,1,4.449-19.212,8.318,8.318,0,0,1,3.257.543A10.145,10.145,0,0,1,17.15,47.866a1.334,1.334,0,0,0-.759,1.194v3.908H14.219V46.89a8.285,8.285,0,0,0,6.947-8.141,1.411,1.411,0,1,0-2.822,0,5.579,5.579,0,0,1-4.234,5.428V36.795h1.954a1.411,1.411,0,1,0,0-2.822H12.7a1.346,1.346,0,0,0-1.3,1.41v8.793A5.972,5.972,0,0,1,7.272,38.64a1.411,1.411,0,1,0-2.822,0A8.281,8.281,0,0,0,11.4,46.78v6.079H9.01V48.951a.983.983,0,0,0-.651-1.193m8.032,7.922v1.3H9.117v-1.3Zm-1.52,4.668a2.061,2.061,0,0,1-2.063,2.062,2,2,0,0,1-2.062-2.062V59.7h4.124ZM19.1,56.983V55.572h.976a1.411,1.411,0,1,0,0-2.822H19.1V49.711a12.882,12.882,0,0,0-4.233-23.988V2.713h2.713V16.281a1.365,1.365,0,0,0,.978,1.3,1.34,1.34,0,0,0,1.519-.435l3.039-4.016,3.039,4.016a1.342,1.342,0,0,0,1.52.435,1.4,1.4,0,0,0,.978-1.3V2.713H50.364V9.551a1.437,1.437,0,0,0,1.41,1.411h6.512V57.092H19.1Z" transform="translate(0 0)" fill="#fff"/>
        </g>
      </g>
    </g>
  </g>
</svg>
