<svg xmlns="http://www.w3.org/2000/svg" xmlns:xlink="http://www.w3.org/1999/xlink" width="178" height="178" viewBox="0 0 178 178">
  <defs>
    <clipPath id="clip-path">
      <rect id="Rectangle_407937" data-name="Rectangle 407937" width="102.731" height="88.388" transform="translate(0 0)" fill="none"/>
    </clipPath>
  </defs>
  <g id="Group_1114959" data-name="Group 1114959" transform="translate(-10585.074 8336.024)">
    <g id="Group_1114455" data-name="Group 1114455" transform="translate(10585.074 -8336.023)">
      <path id="Path_882862" data-name="Path 882862" d="M89,0A89,89,0,1,1,0,89,89,89,0,0,1,89,0Z" transform="translate(0 -0.001)" fill="#c0afff"/>
      <path id="Path_882863" data-name="Path 882863" d="M78.668,0A78.668,78.668,0,1,1,0,78.668,78.668,78.668,0,0,1,78.668,0Z" transform="translate(10.332 10.331)" fill="#f3f9ff"/>
    </g>
    <g id="Group_1114457" data-name="Group 1114457" transform="translate(10624.074 -8297.023)">
      <rect id="Rectangle_401104" data-name="Rectangle 401104" width="99.117" height="100.574" fill="none"/>
      <g id="Group_1114885" data-name="Group 1114885" transform="translate(3.926 12.187)">
        <g id="Group_1114884" data-name="Group 1114884" clip-path="url(#clip-path)">
          <path id="Rectangle_407911" data-name="Rectangle 407911" d="M1.746,0h99.24a1.746,1.746,0,0,1,1.746,1.746V74.855a1.748,1.748,0,0,1-1.748,1.748H1.748A1.748,1.748,0,0,1,0,74.855V1.746A1.746,1.746,0,0,1,1.746,0Z" transform="translate(-0.001 0)" fill="#9d0388"/>
          <rect id="Rectangle_407912" data-name="Rectangle 407912" width="21.117" height="15.856" rx="1.371" transform="translate(10.908 5.993)" fill="#ff85e7"/>
          <rect id="Rectangle_407913" data-name="Rectangle 407913" width="5.113" height="63.788" transform="translate(38.288 5.725)" fill="#710c63"/>
          <path id="Path_920941" data-name="Path 920941" d="M43.4,11.319h4.192L43.4,64.587Z" fill="#fdfefc"/>
          <rect id="Rectangle_407914" data-name="Rectangle 407914" width="31.124" height="59.799" transform="translate(64.135 8.402)" fill="#fdfefc"/>
          <rect id="Rectangle_407915" data-name="Rectangle 407915" width="3.805" height="4.391" transform="translate(66.087 12.966)" fill="#3a3a3a"/>
          <path id="Path_920942" data-name="Path 920942" d="M67.5,16.479H61.8a1.317,1.317,0,0,1,0-2.634h5.7a1.317,1.317,0,1,1,0,2.634" fill="#ffe02c"/>
          <rect id="Rectangle_407916" data-name="Rectangle 407916" width="3.805" height="4.391" transform="translate(66.087 20.679)" fill="#3a3a3a"/>
          <path id="Path_920943" data-name="Path 920943" d="M67.5,24.192H61.8a1.318,1.318,0,0,1,0-2.635h5.7a1.318,1.318,0,0,1,0,2.635" fill="#ffe02c"/>
          <rect id="Rectangle_407917" data-name="Rectangle 407917" width="3.805" height="4.391" transform="translate(66.087 28.392)" fill="#3a3a3a"/>
          <path id="Path_920944" data-name="Path 920944" d="M67.5,31.905H61.8a1.318,1.318,0,0,1,0-2.635h5.7a1.318,1.318,0,0,1,0,2.635" fill="#ffe02c"/>
          <rect id="Rectangle_407918" data-name="Rectangle 407918" width="3.805" height="4.391" transform="translate(66.087 36.105)" fill="#3a3a3a"/>
          <path id="Path_920945" data-name="Path 920945" d="M67.5,39.618H61.8a1.317,1.317,0,0,1,0-2.634h5.7a1.317,1.317,0,1,1,0,2.634" fill="#ffe02c"/>
          <rect id="Rectangle_407919" data-name="Rectangle 407919" width="3.805" height="4.391" transform="translate(66.087 43.818)" fill="#3a3a3a"/>
          <path id="Path_920946" data-name="Path 920946" d="M67.5,47.332H61.8a1.318,1.318,0,0,1,0-2.635h5.7a1.318,1.318,0,0,1,0,2.635" fill="#ffe02c"/>
          <rect id="Rectangle_407920" data-name="Rectangle 407920" width="3.805" height="4.391" transform="translate(66.087 51.532)" fill="#3a3a3a"/>
          <path id="Path_920947" data-name="Path 920947" d="M67.5,55.045H61.8a1.317,1.317,0,0,1,0-2.634h5.7a1.317,1.317,0,1,1,0,2.634" fill="#ffe02c"/>
          <rect id="Rectangle_407921" data-name="Rectangle 407921" width="3.805" height="4.391" transform="translate(66.087 59.245)" fill="#3a3a3a"/>
          <path id="Path_920948" data-name="Path 920948" d="M67.5,62.758H61.8a1.317,1.317,0,0,1,0-2.634h5.7a1.317,1.317,0,1,1,0,2.634" fill="#ffe02c"/>
          <rect id="Rectangle_407922" data-name="Rectangle 407922" width="27.602" height="24.575" transform="translate(8.112 13.064)" fill="#710c63"/>
          <rect id="Rectangle_407923" data-name="Rectangle 407923" width="19.717" height="10.982" transform="translate(9.745 50.85) rotate(-16.7)" fill="#fdfefc"/>
          <rect id="Rectangle_407924" data-name="Rectangle 407924" width="19.717" height="10.982" transform="matrix(0.997, -0.082, 0.082, 0.997, 10.493, 28.774)" fill="#6bfcf2"/>
          <rect id="Rectangle_407925" data-name="Rectangle 407925" width="27.602" height="11.53" transform="translate(8.112 53.277)" fill="#710c63"/>
          <rect id="Rectangle_407926" data-name="Rectangle 407926" width="27.602" height="11.529" transform="translate(8.112 33.03)" fill="#710c63"/>
          <rect id="Rectangle_407927" data-name="Rectangle 407927" width="20.233" height="1.006" transform="translate(72.501 19.673)" fill="#0fb0d6"/>
          <rect id="Rectangle_407928" data-name="Rectangle 407928" width="20.233" height="1.006" transform="translate(72.501 26.663)" fill="#0fb0d6"/>
          <rect id="Rectangle_407929" data-name="Rectangle 407929" width="20.233" height="1.006" transform="translate(72.501 33.653)" fill="#0fb0d6"/>
          <rect id="Rectangle_407930" data-name="Rectangle 407930" width="20.233" height="1.006" transform="translate(72.501 40.643)" fill="#0fb0d6"/>
          <rect id="Rectangle_407931" data-name="Rectangle 407931" width="20.233" height="1.006" transform="translate(72.501 47.633)" fill="#0fb0d6"/>
          <rect id="Rectangle_407932" data-name="Rectangle 407932" width="20.233" height="1.006" transform="translate(72.501 54.623)" fill="#0fb0d6"/>
          <rect id="Rectangle_407933" data-name="Rectangle 407933" width="13.266" height="1.006" transform="translate(79.468 61.614)" fill="#0fb0d6"/>
          <path id="Path_920949" data-name="Path 920949" d="M72.5,51.266l15.119,6.179c.568-.219,1.63-.893,1-2.687-.6-1.708-7.31-5.6-7.31-5.6Z" fill="#ffaf57"/>
          <path id="Path_920950" data-name="Path 920950" d="M77.481,61.635s-4.153-.918-5.5-.677-4,3.108-4,3.108l-1.254-1.273L69.6,58.136,75,56.248l5.347,2.091Z" fill="#ffaf57"/>
          <path id="Path_920951" data-name="Path 920951" d="M58.144,50.229,82.779,60.591l2.125-5.05L60.268,45.18a1.067,1.067,0,0,0-1.4.569l-1.3,3.084a1.066,1.066,0,0,0,.569,1.4" fill="#007c89"/>
          <rect id="Rectangle_407934" data-name="Rectangle 407934" width="6.353" height="3.766" transform="matrix(0.388, -0.922, 0.922, 0.388, 59.103, 51.107)" fill="#ff8b00"/>
          <path id="Path_920952" data-name="Path 920952" d="M84.9,55.54l-2.125,5.051a5.413,5.413,0,0,0,3.528.334l1.3-3.1A5.406,5.406,0,0,0,84.9,55.54" fill="#007c89"/>
          <path id="Path_920953" data-name="Path 920953" d="M87.61,57.828l-1.3,3.1,4.153.711.562-1.337Z" fill="#0fb0d6"/>
          <rect id="Rectangle_407935" data-name="Rectangle 407935" width="5.48" height="4.85" transform="translate(78.309 58.71) rotate(-67.183)" fill="#ff8b00"/>
          <path id="Path_920954" data-name="Path 920954" d="M90.879,60.64l1.636.689a.356.356,0,1,1-.275.656l-1.638-.69Z" fill="#1c1c1c"/>
          <path id="Path_920955" data-name="Path 920955" d="M56.317,77.551l1.045-11.132a12.394,12.394,0,0,1,2.28-6.078l3.818-5.305a3.181,3.181,0,0,1,3.017-1.3l7.655,3.219L69.6,58.136c-4.778,7.758,1.531,10.583,4.166,7.376,2.473-3.011,6.064-7.921,7.682-8.525a2.574,2.574,0,0,1,3.285,2.584c.13,2.044-3.894,7.657-7.277,14.478l-9.312,9.99-4,4.349L53.8,81.792Z" fill="#ffc278"/>
          <path id="Path_920956" data-name="Path 920956" d="M82.251,62.649l-2.783-1.772c1-2.47,2.3-3.628,3.5-2.956,1.417.793,1.316,2.494-.716,4.728" fill="#ffd19f"/>
          <rect id="Rectangle_407936" data-name="Rectangle 407936" width="2.193" height="76.603" transform="translate(50.269 0)" fill="#710c63"/>
        </g>
      </g>
    </g>
  </g>
</svg>
