<svg xmlns="http://www.w3.org/2000/svg" xmlns:xlink="http://www.w3.org/1999/xlink" width="280.088" height="208.88" viewBox="0 0 280.088 208.88">
  <defs>
    <clipPath id="clip-path">
      <rect id="Rectangle_407201" data-name="Rectangle 407201" width="280.088" height="208.879" fill="#eae5ff"/>
    </clipPath>
    <clipPath id="clip-path-2">
      <rect id="Rectangle_407738" data-name="Rectangle 407738" width="280.088" height="195.612" fill="none"/>
    </clipPath>
  </defs>
  <g id="Mask_Group_1110969" data-name="Mask Group 1110969" clip-path="url(#clip-path)">
    <g id="Group_1114712" data-name="Group 1114712" transform="translate(0 13.267)">
      <g id="Group_1114711" data-name="Group 1114711" clip-path="url(#clip-path-2)">
        <path id="Path_919978" data-name="Path 919978" d="M59.792,196.171c-10.876,0-56.938-36.856-40.331-72.109,14.463-30.7,45.745,14.05,36.179-48.635C51.626,49.12,81.38,20.061,110.8,37.162c16.611,9.656,45.493,17.155,54.968-1.669C186.3-5.309,246-2.959,263.593,39.246c18.839,45.2-22.834,41.74-7.1,65.207,8.989,13.41,14.989,12.566,24.293,34.267,10.892,25.4-2.53,57.8-27.943,57.8Z" transform="translate(-4.505 -1.758)" fill="#f5f8ff"/>
        <path id="Path_919979" data-name="Path 919979" d="M135.3,136.523l-1.85-.658a2.235,2.235,0,0,1-1.5-2.194,17.865,17.865,0,0,0-.224-3.846,2.24,2.24,0,0,1,1.264-2.379l1.941-.921A2.262,2.262,0,0,0,136,123.511l-1.152-2.425a2.262,2.262,0,0,0-3.013-1.073l-2.053.975a2.287,2.287,0,0,1-2.653-.475,17.774,17.774,0,0,0-3.106-2.65,2.236,2.236,0,0,1-.828-2.607l.582-1.634a2.261,2.261,0,0,0-1.372-2.889l-2.53-.9a2.262,2.262,0,0,0-2.889,1.373l-.749,2.1a2.29,2.29,0,0,1-2.184,1.5,17.8,17.8,0,0,0-3.291.3,2.29,2.29,0,0,1-2.405-1.059l-1.534-2.581a2.262,2.262,0,0,0-3.1-.79l-2.308,1.372a2.261,2.261,0,0,0-.789,3.1l1.193,2.007a2.246,2.246,0,0,1-.35,2.755,17.872,17.872,0,0,0-1.931,2.217,2.234,2.234,0,0,1-2.551.753l-1.85-.658a2.262,2.262,0,0,0-2.889,1.372l-.9,2.53a2.262,2.262,0,0,0,1.372,2.889l1.838.654a2.25,2.25,0,0,1,1.515,2.207,17.709,17.709,0,0,0,.03,2.216,2.247,2.247,0,0,1-1.6,2.308l-1.52.461a2.261,2.261,0,0,0-1.508,2.82l.779,2.57a2.261,2.261,0,0,0,2.821,1.508l2.347-.711a2.29,2.29,0,0,1,2.465.808,17.937,17.937,0,0,0,2.809,2.86,2.284,2.284,0,0,1,.744,2.541l-.749,2.107a2.261,2.261,0,0,0,1.372,2.889l2.53.9a2.261,2.261,0,0,0,2.889-1.373l.582-1.634a2.237,2.237,0,0,1,2.29-1.5,17.819,17.819,0,0,0,4.06-.089,2.283,2.283,0,0,1,2.348,1.3l.992,2.088a2.262,2.262,0,0,0,3.013,1.073l2.426-1.152a2.261,2.261,0,0,0,1.072-3.013l-.93-1.958a2.239,2.239,0,0,1,.524-2.644,17.92,17.92,0,0,0,2.622-2.856,2.235,2.235,0,0,1,2.552-.752l1.848.658a2.261,2.261,0,0,0,2.889-1.372l.9-2.53a2.261,2.261,0,0,0-1.372-2.889m-12-.6a9.831,9.831,0,1,1-5.966-12.558,9.831,9.831,0,0,1,5.966,12.558" transform="translate(-25.866 -31.107)" fill="#e1ecfa"/>
        <path id="Path_919980" data-name="Path 919980" d="M351.874,5.969A5.969,5.969,0,1,1,345.906,0a5.969,5.969,0,0,1,5.969,5.969" transform="translate(-96.393)" fill="#e1ecfa"/>
        <path id="Path_919981" data-name="Path 919981" d="M294.952,25.907a5.969,5.969,0,1,1-5.969-5.969,5.969,5.969,0,0,1,5.969,5.969" transform="translate(-80.252 -5.654)" fill="#e1ecfa"/>
        <path id="Path_919982" data-name="Path 919982" d="M314.538,9.078,274.847,21.939,229.316,50.8" transform="translate(-65.025 -2.574)" fill="none" stroke="#e1ecfa" stroke-miterlimit="10" stroke-width="5"/>
        <path id="Path_919983" data-name="Path 919983" d="M351.451,203.878H335.16a6.009,6.009,0,0,1-6.009-6.01V38.162a6.01,6.01,0,0,1,6.009-6.009h16.29a6.01,6.01,0,0,1,6.009,6.009V197.869a6.009,6.009,0,0,1-6.009,6.01" transform="translate(-93.334 -9.117)" fill="#e1ecfa"/>
        <path id="Path_919984" data-name="Path 919984" d="M297.279,214.949h-16.29a6.01,6.01,0,0,1-6.009-6.009V74.2a6.01,6.01,0,0,1,6.009-6.01h16.29a6.01,6.01,0,0,1,6.009,6.01V208.94a6.01,6.01,0,0,1-6.009,6.009" transform="translate(-77.973 -19.337)" fill="#e1ecfa"/>
        <path id="Path_919985" data-name="Path 919985" d="M244.561,223.717H228.27a6.01,6.01,0,0,1-6.01-6.009V106.825a6.01,6.01,0,0,1,6.01-6.01h16.29a6.01,6.01,0,0,1,6.009,6.01V217.707a6.01,6.01,0,0,1-6.009,6.009" transform="translate(-63.024 -28.587)" fill="#e1ecfa"/>
        <path id="Path_919986" data-name="Path 919986" d="M159.925,121.031a104.5,104.5,0,0,0-69.93,30.194,2.959,2.959,0,0,0,.068,4.272l43.679,40.581a2.935,2.935,0,0,0,3.914.095,41.139,41.139,0,0,1,23.311-9.611,2.928,2.928,0,0,0,2.684-2.9V124.646a3.612,3.612,0,0,0-3.725-3.614" transform="translate(-25.27 -34.319)" fill="#7d0ede"/>
        <path id="Path_919987" data-name="Path 919987" d="M46.021,243.825h60.214a2.966,2.966,0,0,0,2.951-2.8c.572-9.474,3.031-16.744,8.611-23.48a2.939,2.939,0,0,0-.292-4.02L74.248,173.415a2.963,2.963,0,0,0-4.212.188,104.439,104.439,0,0,0-26.973,67.178,2.961,2.961,0,0,0,2.959,3.044" transform="translate(-12.21 -48.95)" fill="#c0afff"/>
        <path id="Path_919988" data-name="Path 919988" d="M198.373,123.961v59.665a2.971,2.971,0,0,0,2.71,2.945,41.727,41.727,0,0,1,23.3,9.7,2.955,2.955,0,0,0,3.9-.126L272,155.529a2.96,2.96,0,0,0,.07-4.271A104.5,104.5,0,0,0,201.422,121a2.964,2.964,0,0,0-3.049,2.96" transform="translate(-56.251 -34.311)" fill="#c0afff"/>
        <path id="Path_919989" data-name="Path 919989" d="M318.066,240.77a104.436,104.436,0,0,0-26.933-67.133,2.962,2.962,0,0,0-4.215-.188l-43.24,40.173a2.951,2.951,0,0,0-.33,3.965c5.693,7.336,7.628,13.268,8.677,23.573a2.955,2.955,0,0,0,2.939,2.653h60.143a2.962,2.962,0,0,0,2.959-3.044" transform="translate(-68.83 -48.959)" fill="#7d0ede"/>
        <path id="Path_919990" data-name="Path 919990" d="M179.737,216.935a39.458,39.458,0,0,0-39.326,36.248,2.965,2.965,0,0,0,2.95,3.206h72.752a2.965,2.965,0,0,0,2.95-3.206,39.458,39.458,0,0,0-39.326-36.248" transform="translate(-39.812 -61.514)" fill="#bad4ef"/>
        <path id="Path_919991" data-name="Path 919991" d="M184.386,220.231a6.827,6.827,0,0,0-6.252-3.278l-19.839-34.944a3.02,3.02,0,0,0-.335-.476l-15.951-18.439a.371.371,0,0,0-.625.381l9.041,22.482a3.015,3.015,0,0,0,.251.488l21.808,34.186a6.828,6.828,0,1,0,11.9-.4" transform="translate(-40.082 -46.209)" fill="#170551"/>
        <path id="Path_919992" data-name="Path 919992" d="M336.578,258.776l.157,5.082,5.407-.9-.021-4.214Z" transform="translate(-95.44 -73.371)" fill="#e1b39d"/>
        <path id="Path_919993" data-name="Path 919993" d="M338.419,264.621c-5.59-.085-7.42-.092-14.433,3.429a1.05,1.05,0,0,0,.523,1.963l12.887-.064c1.869.108,1.022-5.328,1.022-5.328" transform="translate(-91.718 -75.03)" fill="#2f526e"/>
        <path id="Path_919994" data-name="Path 919994" d="M371.505,258.3l.13,5.1,5.425.413-.026-5.221Z" transform="translate(-105.344 -73.245)" fill="#e1b39d"/>
        <path id="Path_919995" data-name="Path 919995" d="M373.051,264.6c-.706,0-2.952.151-4.116,1.306-1.5,1.492-1.3,4.074-.691,4.076l9.559.032c.462.036.31-2.227-.759-3.666-.963-1.3-1.764-1.757-3.993-1.747" transform="translate(-104.29 -75.03)" fill="#315780"/>
        <path id="Path_919996" data-name="Path 919996" d="M361.886,169.941c.576,3.925,3.069,21.817,2.792,35.823a.823.823,0,0,0,.006.126l3.257,27.915a.985.985,0,0,1-.979,1.1h-6.349a.985.985,0,0,1-.96-.762c-1.1-4.742-6.976-30.118-7.414-33.484-.485-3.715-.969-8.723-.969-8.723l-4.031,16.443c-.005.022-.01.044-.014.067l-4.478,26a.984.984,0,0,1-.986.818l-6.659-.105a.985.985,0,0,1-.967-1.055l2.109-29.53c0-.026,0-.051.009-.076l5.353-35.736a.984.984,0,0,1,1.037-.837l18.334,1.183a.978.978,0,0,1,.911.834" transform="translate(-94.746 -47.616)" fill="#170551"/>
        <line id="Line_3284" data-name="Line 3284" x1="2.508" y1="19.932" transform="translate(254.023 124.387)" fill="none" stroke="#264154" stroke-linecap="round" stroke-miterlimit="10" stroke-width="0.5"/>
        <path id="Path_919997" data-name="Path 919997" d="M352.21,199.239l-5.407,17.73-3.667,24.906" transform="translate(-97.3 -56.496)" fill="none" stroke="#264154" stroke-linecap="round" stroke-miterlimit="10" stroke-width="0.5"/>
        <path id="Path_919998" data-name="Path 919998" d="M371.194,181.678l1.793,27.86,3.679,27.356" transform="translate(-105.256 -51.517)" fill="none" stroke="#264154" stroke-linecap="round" stroke-miterlimit="10" stroke-width="0.5"/>
        <path id="Path_919999" data-name="Path 919999" d="M350.753,175.655s.959,6.742,3.617,6.649" transform="translate(-99.46 -49.809)" fill="none" stroke="#264154" stroke-linecap="round" stroke-miterlimit="10" stroke-width="0.5"/>
        <path id="Path_920000" data-name="Path 920000" d="M364.251,173.618a21.852,21.852,0,0,0,4.145,8.109" transform="translate(-103.287 -49.231)" fill="none" stroke="#264154" stroke-linecap="round" stroke-miterlimit="10" stroke-width="0.5"/>
        <path id="Path_920001" data-name="Path 920001" d="M361.611,142.679c-.016-.348-.231-3.358.117-3.379l5.552.772c.221-2.954-.759-17.041-7.884-17.765a65.957,65.957,0,0,0-11.595,0,9.339,9.339,0,0,0-7.239,3.907c-2.086,2.93-4.715,7.086-5.542,10.425-1.229,4.966,4.159,7.174,5.749,7.71a.633.633,0,0,1,.431.6l.045,11.113a.985.985,0,0,0,.994.981l19.353-.191a.639.639,0,0,0,.6-.665Z" transform="translate(-94.947 -34.604)" fill="#6bfcf2"/>
        <path id="Path_920002" data-name="Path 920002" d="M350.887,113.433l-.015,2.255a4.091,4.091,0,0,0,4.088,3.263c3.554.092,3.851-3.788,3.851-3.788l-1.054-3.46,0-3.827,1.388-5.859-14.543-5s-.9,8.6,0,11.6,3.171,6.026,6.282,4.817" transform="translate(-97.602 -27.509)" fill="#e1b39d"/>
        <path id="Path_920003" data-name="Path 920003" d="M343.206,97.191s5.418-1.51,6.913,2.1,1.437,2.791,2.06,2.1a1.55,1.55,0,0,1,2.548,1.409c-.314,2.414-.848,4.433,1.99,6.811a12.63,12.63,0,0,1,2.035-6.638c2.1-3.079,1.808-10.014-5.2-11.164s-3.262-2.787-8.789-1.929-5.178,7-1.555,7.308" transform="translate(-96.563 -25.419)" fill="#170551"/>
        <line id="Line_3285" data-name="Line 3285" x1="1.49" y2="6.573" transform="translate(247.807 95.691)" fill="none" stroke="#24bee6" stroke-linecap="round" stroke-miterlimit="10" stroke-width="0.5"/>
        <path id="Path_920004" data-name="Path 920004" d="M324.047,134.521l14.484-.954a.69.69,0,0,1,.71.5l6.358,22.689a.69.69,0,0,1-.623.875l-14.508.873a.69.69,0,0,1-.706-.5L323.428,135.4a.69.69,0,0,1,.619-.875" transform="translate(-91.704 -37.874)" fill="#3a2292"/>
        <path id="Path_920005" data-name="Path 920005" d="M362.439,142.9l.251,3.915-14.084.292a6.271,6.271,0,0,0-1.56-3.058c-1.151-.979-1.661-.9-1.732-.518s1.119,1.722.849,2.4c-.117,1.7-5.648-2.708-5.873-1.6-.5.4.484,1.434.484,1.434-.6.047-1.164,1.06-.416,1.452-.62.192-.59,1.462.052,1.609-1.522,1.429,3.8,4.81,7.808,2.157,0,0,17.026,2.452,18.375,1.28s1.4-7.7,1.4-7.7Z" transform="translate(-96.385 -40.52)" fill="#e1b39d"/>
        <path id="Path_920006" data-name="Path 920006" d="M369.129,129.359l.82,11.777L377,142.148c.253.028-.631-2.041-.706-2.284l-1.078-2.378Z" transform="translate(-104.67 -36.681)" fill="#6bfcf2"/>
        <path id="Path_920007" data-name="Path 920007" d="M325.371,149.861c-.261-.832-.294-2.058.516-2.528,1.59-.925,1.967-1.315,2.526-1s-.014,1.125-.014,1.125c.6-.026,1.283.912.587,1.391.638.118.762,1.381.141,1.6.9.661-.074,2.17-2.033,2.312-1.31.095-1.5-2.206-1.723-2.9" transform="translate(-92.215 -41.463)" fill="#e1b39d"/>
        <line id="Line_3286" data-name="Line 3286" x1="1.847" y1="10.226" transform="translate(264.459 95.916)" fill="none" stroke="#24bee6" stroke-linecap="round" stroke-miterlimit="10" stroke-width="0.5"/>
        <line id="Line_3287" data-name="Line 3287" y1="0.327" x2="16.333" transform="translate(248.775 120.306)" fill="none" stroke="#24bee6" stroke-linecap="round" stroke-miterlimit="10" stroke-width="0.5"/>
        <path id="Path_920008" data-name="Path 920008" d="M53.741,227.487l-2.255-.8a2.725,2.725,0,0,1-1.831-2.675,21.748,21.748,0,0,0-.273-4.688,2.731,2.731,0,0,1,1.542-2.9l2.365-1.123a2.757,2.757,0,0,0,1.308-3.673l-1.4-2.957a2.757,2.757,0,0,0-3.674-1.307l-2.5,1.189a2.789,2.789,0,0,1-3.233-.58,21.7,21.7,0,0,0-3.787-3.231,2.724,2.724,0,0,1-1.009-3.178l.709-1.992a2.757,2.757,0,0,0-1.673-3.522l-3.084-1.1a2.757,2.757,0,0,0-3.522,1.673l-.913,2.566a2.79,2.79,0,0,1-2.662,1.831,21.754,21.754,0,0,0-4.012.367,2.791,2.791,0,0,1-2.932-1.291l-1.869-3.147a2.758,2.758,0,0,0-3.779-.962l-2.813,1.672a2.756,2.756,0,0,0-.962,3.778l1.454,2.448a2.738,2.738,0,0,1-.427,3.359,21.726,21.726,0,0,0-2.354,2.7,2.725,2.725,0,0,1-3.111.918l-2.255-.8a2.758,2.758,0,0,0-3.522,1.674l-1.1,3.084a2.758,2.758,0,0,0,1.674,3.522l2.24.8a2.744,2.744,0,0,1,1.846,2.691,21.753,21.753,0,0,0,.036,2.7,2.737,2.737,0,0,1-1.948,2.813l-1.853.562a2.756,2.756,0,0,0-1.838,3.438l.949,3.132A2.757,2.757,0,0,0,4.7,236.314l2.861-.868a2.792,2.792,0,0,1,3.005.985A21.762,21.762,0,0,0,14,239.918a2.788,2.788,0,0,1,.907,3.1l-.914,2.569a2.757,2.757,0,0,0,1.673,3.521l3.084,1.1a2.757,2.757,0,0,0,3.522-1.673l.709-1.992a2.725,2.725,0,0,1,2.792-1.825,21.7,21.7,0,0,0,4.95-.109,2.782,2.782,0,0,1,2.863,1.59l1.209,2.546a2.757,2.757,0,0,0,3.673,1.307l2.957-1.4a2.757,2.757,0,0,0,1.308-3.673l-1.134-2.386a2.731,2.731,0,0,1,.639-3.223,21.772,21.772,0,0,0,3.2-3.482,2.724,2.724,0,0,1,3.111-.916l2.254.8a2.757,2.757,0,0,0,3.522-1.673l1.1-3.084a2.756,2.756,0,0,0-1.673-3.522m-14.634-.731a11.985,11.985,0,1,1-7.273-15.309,11.985,11.985,0,0,1,7.273,15.309" transform="translate(0 -55.234)" fill="#170551"/>
        <path id="Path_920009" data-name="Path 920009" d="M110.594,247.584l-1.264-.62a1.6,1.6,0,0,1-.891-1.685,12.844,12.844,0,0,0,.154-2.758,1.605,1.605,0,0,1,1.094-1.59l1.457-.5a1.622,1.622,0,0,0,1.009-2.058l-.623-1.821a1.621,1.621,0,0,0-2.058-1.009l-1.542.527a1.639,1.639,0,0,1-1.85-.555,12.749,12.749,0,0,0-2-2.141,1.6,1.6,0,0,1-.377-1.924l.547-1.116a1.622,1.622,0,0,0-.742-2.169l-1.728-.848a1.621,1.621,0,0,0-2.169.742l-.7,1.438a1.641,1.641,0,0,1-1.678.891,12.785,12.785,0,0,0-2.369-.054,1.641,1.641,0,0,1-1.626-.95l-.882-1.964a1.621,1.621,0,0,0-2.143-.815l-1.756.789a1.621,1.621,0,0,0-.815,2.143l.686,1.527A1.61,1.61,0,0,1,87.855,233a12.767,12.767,0,0,0-1.555,1.421,1.6,1.6,0,0,1-1.879.328l-1.264-.62a1.622,1.622,0,0,0-2.169.742l-.847,1.729a1.62,1.62,0,0,0,.742,2.169l1.255.615a1.615,1.615,0,0,1,.9,1.7,12.7,12.7,0,0,0-.16,1.58,1.61,1.61,0,0,1-1.326,1.513l-1.12.2a1.621,1.621,0,0,0-1.3,1.886l.345,1.893a1.62,1.62,0,0,0,1.886,1.3l1.729-.315a1.641,1.641,0,0,1,1.689.777,12.824,12.824,0,0,0,1.767,2.265,1.639,1.639,0,0,1,.323,1.871l-.706,1.439a1.621,1.621,0,0,0,.742,2.169l1.728.848a1.62,1.62,0,0,0,2.169-.742l.547-1.117a1.6,1.6,0,0,1,1.753-.879,12.776,12.776,0,0,0,2.9.267,1.637,1.637,0,0,1,1.566,1.12l.536,1.568a1.622,1.622,0,0,0,2.058,1.009l1.821-.623a1.621,1.621,0,0,0,1.009-2.058l-.5-1.469a1.607,1.607,0,0,1,.589-1.841,12.757,12.757,0,0,0,2.1-1.82,1.6,1.6,0,0,1,1.879-.327l1.263.62a1.622,1.622,0,0,0,2.169-.742l.847-1.728a1.62,1.62,0,0,0-.742-2.169m-8.5-1.406a7.046,7.046,0,1,1-3.225-9.429,7.047,7.047,0,0,1,3.225,9.429" transform="translate(-22.43 -64.217)" fill="#170551"/>
        <path id="Path_920010" data-name="Path 920010" d="M134.839,57.732A19.422,19.422,0,1,1,115.417,38.31a19.422,19.422,0,0,1,19.422,19.422" transform="translate(-27.22 -10.863)" fill="#9d0388"/>
        <path id="Path_920011" data-name="Path 920011" d="M136.1,56.906A21.509,21.509,0,1,1,114.59,35.4,21.509,21.509,0,0,1,136.1,56.906Z" transform="translate(-26.394 -10.037)" fill="none" stroke="#ff85e7" stroke-miterlimit="10" stroke-width="0.5"/>
        <path id="Path_920012" data-name="Path 920012" d="M114.989,67.28l-3.533,9a.322.322,0,0,0,.455.4L114.6,75.19a.322.322,0,0,1,.464.185l.918,2.916a.322.322,0,0,0,.606.022l3.189-8.075a.321.321,0,0,0-.124-.388l-4.185-2.722A.321.321,0,0,0,114.989,67.28Z" transform="translate(-31.598 -19.02)" fill="none" stroke="#fff" stroke-miterlimit="10" stroke-width="1"/>
        <path id="Path_920013" data-name="Path 920013" d="M127.909,67.841l3.533,9a.322.322,0,0,1-.456.4L128.3,75.751a.322.322,0,0,0-.463.185l-.918,2.916a.322.322,0,0,1-.606.022L123.126,70.8a.32.32,0,0,1,.123-.388l4.185-2.722A.322.322,0,0,1,127.909,67.841Z" transform="translate(-34.907 -19.179)" fill="none" stroke="#fff" stroke-miterlimit="10" stroke-width="1"/>
        <path id="Path_920014" data-name="Path 920014" d="M128.869,56.775a9.542,9.542,0,1,1-9.542-9.542,9.542,9.542,0,0,1,9.542,9.542" transform="translate(-31.131 -13.393)" fill="#9d0388"/>
        <path id="Path_920015" data-name="Path 920015" d="M128.869,56.775a9.542,9.542,0,1,1-9.542-9.542A9.542,9.542,0,0,1,128.869,56.775Z" transform="translate(-31.131 -13.393)" fill="none" stroke="#fff" stroke-miterlimit="10" stroke-width="1"/>
        <path id="Path_920016" data-name="Path 920016" d="M125.825,58.768a4.5,4.5,0,1,1-4.5-4.5,4.5,4.5,0,0,1,4.5,4.5" transform="translate(-33.124 -15.387)" fill="#fff"/>
        <path id="Path_920017" data-name="Path 920017" d="M125.825,58.768a4.5,4.5,0,1,1-4.5-4.5A4.5,4.5,0,0,1,125.825,58.768Z" transform="translate(-33.124 -15.387)" fill="none" stroke="#ff85e7" stroke-miterlimit="10" stroke-width="1"/>
        <path id="Path_920018" data-name="Path 920018" d="M121.412,61.58a.365.365,0,0,1-.571-.1l-.709-1.34a.358.358,0,1,1,.633-.335l.5.936,2.546-2.357a.358.358,0,0,1,.486.526Z" transform="translate(-34.053 -16.529)" fill="#ff85e7"/>
        <path id="Path_920019" data-name="Path 920019" d="M55.664,111.149A19.422,19.422,0,1,1,36.242,91.727a19.422,19.422,0,0,1,19.422,19.422" transform="translate(-4.769 -26.01)" fill="#9d0388"/>
        <path id="Path_920020" data-name="Path 920020" d="M56.925,110.323A21.509,21.509,0,1,1,35.416,88.814,21.509,21.509,0,0,1,56.925,110.323Z" transform="translate(-3.944 -25.184)" fill="none" stroke="#ff85e7" stroke-miterlimit="10" stroke-width="0.5"/>
        <path id="Path_920021" data-name="Path 920021" d="M28.82,120.652a9.592,9.592,0,0,0,8.8,8.756.7.7,0,0,0,.757-.7v-8.123a.7.7,0,0,0-.7-.7H29.517A.7.7,0,0,0,28.82,120.652Z" transform="translate(-8.172 -33.997)" fill="none" stroke="#fff" stroke-miterlimit="10" stroke-width="1"/>
        <path id="Path_920022" data-name="Path 920022" d="M43.931,120.588v8.123a.7.7,0,0,0,.757.7,9.592,9.592,0,0,0,8.8-8.756.7.7,0,0,0-.7-.76H44.627A.7.7,0,0,0,43.931,120.588Z" transform="translate(-12.457 -33.997)" fill="none" stroke="#fff" stroke-miterlimit="10" stroke-width="1"/>
        <path id="Path_920023" data-name="Path 920023" d="M55.134,111.491a9.592,9.592,0,0,0-8.8-8.756.7.7,0,0,0-.757.7v8.124a.7.7,0,0,0,.7.7h8.164a.7.7,0,0,0,.7-.76" transform="translate(-12.924 -29.131)" fill="#fff"/>
        <path id="Path_920024" data-name="Path 920024" d="M38.377,113.777v-8.123a.7.7,0,0,0-.757-.7,9.592,9.592,0,0,0-8.8,8.756.7.7,0,0,0,.7.761h8.165A.7.7,0,0,0,38.377,113.777Z" transform="translate(-8.172 -29.761)" fill="none" stroke="#fff" stroke-miterlimit="10" stroke-width="1"/>
        <path id="Path_920025" data-name="Path 920025" d="M232.955,50.6a19.422,19.422,0,1,1-19.422-19.422A19.422,19.422,0,0,1,232.955,50.6" transform="translate(-55.042 -8.842)" fill="#9d0388"/>
        <path id="Path_920026" data-name="Path 920026" d="M234.216,49.778a21.509,21.509,0,1,1-21.509-21.509A21.509,21.509,0,0,1,234.216,49.778Z" transform="translate(-54.216 -8.016)" fill="none" stroke="#ff85e7" stroke-miterlimit="10" stroke-width="0.5"/>
        <path id="Path_920027" data-name="Path 920027" d="M202.9,59.306h8.874a.113.113,0,0,1,.116.112,4.567,4.567,0,0,1-9.122.016.129.129,0,0,1,.133-.128" transform="translate(-57.498 -16.817)" fill="#fff"/>
        <path id="Path_920028" data-name="Path 920028" d="M203.2,55.74l4.158-7.968a.068.068,0,0,1,.121,0l4.159,7.973a.188.188,0,0,1-.154.28h-8.127A.192.192,0,0,1,203.2,55.74Z" transform="translate(-57.613 -13.536)" fill="none" stroke="#fff" stroke-miterlimit="10" stroke-width="1"/>
        <path id="Path_920029" data-name="Path 920029" d="M224.375,72.355H213.348a.331.331,0,0,1-.29-.489l1.027-1.89a.856.856,0,0,1,.752-.448h7.935a.857.857,0,0,1,.737.419l1.141,1.924a.32.32,0,0,1-.274.483" transform="translate(-60.403 -19.716)" fill="#fff"/>
        <rect id="Rectangle_407737" data-name="Rectangle 407737" width="1.567" height="18.028" transform="translate(157.669 31.785)" fill="#fff"/>
        <path id="Path_920030" data-name="Path 920030" d="M222.277,44.945a1.837,1.837,0,1,1-1.837-1.837,1.837,1.837,0,0,1,1.837,1.837" transform="translate(-61.987 -12.224)" fill="#fff"/>
        <path id="Path_920031" data-name="Path 920031" d="M209.2,47.1s5.4.106,7.234-1.731" transform="translate(-59.321 -12.865)" fill="none" stroke="#fff" stroke-miterlimit="10" stroke-width="1"/>
        <path id="Path_920032" data-name="Path 920032" d="M235.9,59.306h-8.8a.158.158,0,0,0-.162.157c0,.792.261,4.309,4.562,4.309a4.17,4.17,0,0,0,4.56-4.307.158.158,0,0,0-.161-.159" transform="translate(-64.35 -16.817)" fill="#fff"/>
        <path id="Path_920033" data-name="Path 920033" d="M235.842,55.8l-4.027-7.77a.184.184,0,0,0-.33,0l-4.026,7.77a.189.189,0,0,0,.158.279h8.067A.189.189,0,0,0,235.842,55.8Z" transform="translate(-64.492 -13.59)" fill="none" stroke="#fff" stroke-miterlimit="10" stroke-width="1"/>
        <path id="Path_920034" data-name="Path 920034" d="M230.4,47.2s-5.487.006-7.324-1.831" transform="translate(-63.256 -12.865)" fill="none" stroke="#fff" stroke-miterlimit="10" stroke-width="1"/>
        <line id="Line_3288" data-name="Line 3288" x2="277.002" transform="translate(2.087 195.129)" fill="none" stroke="#315782" stroke-linecap="round" stroke-miterlimit="10" stroke-width="1"/>
      </g>
    </g>
  </g>
</svg>
