<svg xmlns="http://www.w3.org/2000/svg" xmlns:xlink="http://www.w3.org/1999/xlink" width="90.184" height="90.184" viewBox="0 0 90.184 90.184">
  <defs>
    <clipPath id="clip-path">
      <rect id="Rectangle_407747" data-name="Rectangle 407747" width="56.75" height="54.974" fill="none"/>
    </clipPath>
  </defs>
  <g id="Group_1114950" data-name="Group 1114950" transform="translate(-754.711 -5939)">
    <g id="Group_1114256" data-name="Group 1114256" transform="translate(754.711 5939)">
      <g id="Group_1073526" data-name="Group 1073526" transform="translate(0 0)">
        <g id="Group_1072785" data-name="Group 1072785" transform="translate(0 0)">
          <path id="Path_608385" data-name="Path 608385" d="M45.092,0A45.092,45.092,0,1,1,0,45.092,45.092,45.092,0,0,1,45.092,0Z" transform="translate(0 0)" fill="none"/>
        </g>
        <g id="Group_1073383" data-name="Group 1073383" transform="translate(0 0)">
          <path id="Path_608385-2" data-name="Path 608385" d="M45.092,0A45.092,45.092,0,1,1,0,45.092,45.092,45.092,0,0,1,45.092,0Z" transform="translate(0 0)" fill="#fff"/>
        </g>
      </g>
    </g>
    <g id="Group_1114262" data-name="Group 1114262" transform="translate(352.574 -87.469)">
      <rect id="Rectangle_401104" data-name="Rectangle 401104" width="59" height="59" transform="translate(418.137 6042.469)" fill="none"/>
      <g id="Group_1114726" data-name="Group 1114726" transform="translate(419.137 6044.469)">
        <g id="Group_1114725" data-name="Group 1114725" transform="translate(0 0)" clip-path="url(#clip-path)">
          <path id="Path_920067" data-name="Path 920067" d="M50.882,10.889H5.876a3.327,3.327,0,0,0-3.355,3.356v30.2A3.4,3.4,0,0,0,4.988,47.7H22.852V50.17H34.005V47.7H51.868a3.4,3.4,0,0,0,2.468-3.258v-30.1a3.5,3.5,0,0,0-3.455-3.455" transform="translate(-0.053 -0.23)" fill="#9d0388"/>
          <rect id="Rectangle_407746" data-name="Rectangle 407746" width="41.946" height="27.142" transform="translate(7.403 15.495)" fill="#fff"/>
          <path id="Path_920068" data-name="Path 920068" d="M49.071,21.325l-1.35.514-6.3,2.314L43.8,17.918l.514-1.35a8.084,8.084,0,0,1,4.757,4.757" transform="translate(-0.873 -0.349)" fill="#ff85e7"/>
          <path id="Path_920069" data-name="Path 920069" d="M43.692,17.873l-2.379,6.235-1.992-6.363a6.6,6.6,0,0,1,1.928-.257,7.762,7.762,0,0,1,2.442.386" transform="translate(-0.829 -0.369)" fill="#c0afff"/>
          <path id="Path_920070" data-name="Path 920070" d="M47.57,21.865a6.03,6.03,0,0,1,.449,2.507,7.125,7.125,0,0,1-1.992,4.885,6.653,6.653,0,0,1-4.821,2.057,6.954,6.954,0,0,1-6.942-6.942,6.827,6.827,0,0,1,4.949-6.557l1.992,6.364Z" transform="translate(-0.722 -0.376)" fill="#7d0ede"/>
          <path id="Path_920071" data-name="Path 920071" d="M54.088,2.622A2.467,2.467,0,1,1,51.621,5.09a2.468,2.468,0,0,1,2.467-2.468" transform="translate(-5.89 -0.055)" fill="#6bfcf2"/>
          <path id="Path_920072" data-name="Path 920072" d="M13.732,0A3.751,3.751,0,1,1,9.981,3.75,3.75,3.75,0,0,1,13.732,0" transform="translate(-2.579 1.283)" fill="#6bfcf2"/>
          <path id="Path_920073" data-name="Path 920073" d="M51.815,48.6H56.75a7.456,7.456,0,0,1-7.4,7.4H7.4a7.226,7.226,0,0,1-5.23-2.171A7.226,7.226,0,0,1,0,48.6H22.8v2.467H33.951V48.6Z" transform="translate(0 -1.025)" fill="#7a056a"/>
          <path id="Path_920074" data-name="Path 920074" d="M27.732,19.627,16.777,38.6A1.329,1.329,0,0,0,17.928,40.6h21.91a1.329,1.329,0,0,0,1.15-1.994L30.034,19.627a1.329,1.329,0,0,0-2.3,0" transform="translate(-0.35 -0.4)" fill="#3a2292"/>
          <path id="Path_920075" data-name="Path 920075" d="M30.628,38.073a1.468,1.468,0,1,1-1.468-1.468,1.47,1.47,0,0,1,1.468,1.468" transform="translate(-0.584 -0.772)" fill="#fff"/>
          <path id="Path_920076" data-name="Path 920076" d="M29.159,35.352h0a1.468,1.468,0,0,1-1.468-1.468v-8.81a1.468,1.468,0,1,1,2.937,0v8.81a1.47,1.47,0,0,1-1.468,1.468" transform="translate(-0.584 -0.498)" fill="#fff"/>
        </g>
      </g>
    </g>
  </g>
</svg>
