<svg xmlns="http://www.w3.org/2000/svg" xmlns:xlink="http://www.w3.org/1999/xlink" width="70" height="70" viewBox="0 0 70 70">
  <defs>
    <clipPath id="clip-path">
      <rect id="Rectangle_407741" data-name="Rectangle 407741" width="48.333" height="33.667" fill="#170551"/>
    </clipPath>
  </defs>
  <g id="Group_1114241" data-name="Group 1114241" transform="translate(-268.711 -958.137)">
    <circle id="Ellipse_5614" data-name="Ellipse 5614" cx="35" cy="35" r="35" transform="translate(268.711 958.137)" fill="#fff"/>
    <g id="Group_1114718" data-name="Group 1114718" transform="translate(279.711 976.137)">
      <g id="Group_1114717" data-name="Group 1114717" clip-path="url(#clip-path)">
        <path id="Path_920038" data-name="Path 920038" d="M49.672,33.1l-3.333,5.412c-.384,1.29,1.8,2.084,2.668,2.219,2.8.437,4.673-1.215,6.556-3.305l2.728.221L70.739,46.5c1.379,1.441.182,3.819-1.642,2.943-2.352-1.13-5.135-4.293-7.406-5.305-.96-.428-1.41.174-.824,1.117L68.005,50.5c1.2,1.392.017,3.419-1.58,2.874L59.5,48.419c-.755-.472-1.677.267-.9,1.028,1.382,1.5,4.73,2.871,5.885,4.361,1.089,1.4-.143,3.4-1.693,2.821L57.46,52.952a.754.754,0,0,0-.559.916c.285,1.281,5.411,2.5,3.717,5.2-1.319,2.1-4.18-1.589-5.62-2.036,1.584-2.206.735-5.21-1.873-5.361a3.164,3.164,0,0,0-2.294-3.38c.781-3.635-2.557-5.56-4.76-2.863a2.391,2.391,0,0,0-3.84-1.071c-.562.5-.778,1.395-1.4,1.779a12.06,12.06,0,0,1-2.255-3.167.788.788,0,0,1,.117-.681L45.13,31.747l.205-.049a8.809,8.809,0,0,0,4.337,1.4" transform="translate(-32.51 -26.037)" fill="#170551"/>
        <path id="Path_920039" data-name="Path 920039" d="M97.564,35.439c.834-1.554,1.889-3.986,3.307-4.888,1.543-.981,7.965-3.135,9.6-2.947,1.221.14,2.556,1.214,4.11,1.386,1.185.131,2.333-.127,3.506-.068l6.27,10.36c0,.79-2.731,2.505-3.494,2.375l-11.813-8.5a10.478,10.478,0,0,0-3.576-.584c-1.209,0-2.124,1.758-3.159,2.485a4.254,4.254,0,0,1-4.749.386" transform="translate(-82.282 -22.665)" fill="#170551"/>
        <path id="Path_920040" data-name="Path 920040" d="M12.611,2.79l-8.6,14.551L0,14.387,8.546,0,9.01.008Z" transform="translate(0 0)" fill="#170551"/>
        <path id="Path_920041" data-name="Path 920041" d="M240.632,14.974l-4.077,2.962L228.022,3.9l-.007-.53c1.087-.6,2.494-2.294,3.538-2.767.168-.076.3-.168.465-.008Z" transform="translate(-192.299 -0.415)" fill="#170551"/>
        <path id="Path_920042" data-name="Path 920042" d="M70.983,109.607a1.791,1.791,0,0,1,.137,1.919,67.143,67.143,0,0,1-4.561,7.479c-1.054,1.319-2.791.13-2.186-1.591a58.349,58.349,0,0,1,3.869-6.491c.6-.9,1.659-2.664,2.74-1.316" transform="translate(-54.184 -89.631)" fill="#170551"/>
        <path id="Path_920043" data-name="Path 920043" d="M94.419,133.479c1.227-.315,2.085.646,1.621,2.029-.12.359-2.34,4.05-2.607,4.349-1.157,1.295-2.782.073-2.215-1.624a40.958,40.958,0,0,1,2.55-4.245,1.187,1.187,0,0,1,.651-.509" transform="translate(-76.831 -109.592)" fill="#170551"/>
        <path id="Path_920044" data-name="Path 920044" d="M54.521,107.357c1.134-.392,2.009.621,1.7,1.933a23.628,23.628,0,0,1-2.191,3.574c-1.076,1.117-2.445.031-2.219-1.263a16.6,16.6,0,0,1,2.714-4.245" transform="translate(-43.67 -88.114)" fill="#170551"/>
        <path id="Path_920045" data-name="Path 920045" d="M117.493,152.025c.984-.029,1.534,1.034,1.263,2.064a30.135,30.135,0,0,1-1.811,2.935c-1.157,1-2.648-.283-2-1.917.326-.816,1.726-3.057,2.543-3.082" transform="translate(-96.81 -124.875)" fill="#170551"/>
      </g>
    </g>
  </g>
</svg>
