<svg xmlns="http://www.w3.org/2000/svg" xmlns:xlink="http://www.w3.org/1999/xlink" width="90.184" height="90.184" viewBox="0 0 90.184 90.184">
  <defs>
    <clipPath id="clip-path">
      <rect id="Rectangle_407750" data-name="Rectangle 407750" width="54.999" height="50" fill="none"/>
    </clipPath>
  </defs>
  <g id="Group_1114951" data-name="Group 1114951" transform="translate(-1174.711 -5939)">
    <g id="Group_1114257" data-name="Group 1114257" transform="translate(1174.711 5939)">
      <g id="Group_1073526" data-name="Group 1073526" transform="translate(0 0)">
        <g id="Group_1072785" data-name="Group 1072785" transform="translate(0 0)">
          <path id="Path_608385" data-name="Path 608385" d="M45.092,0A45.092,45.092,0,1,1,0,45.092,45.092,45.092,0,0,1,45.092,0Z" transform="translate(0 0)" fill="none"/>
        </g>
        <g id="Group_1073383" data-name="Group 1073383" transform="translate(0 0)">
          <path id="Path_608385-2" data-name="Path 608385" d="M45.092,0A45.092,45.092,0,1,1,0,45.092,45.092,45.092,0,0,1,45.092,0Z" transform="translate(0 0)" fill="#fff"/>
        </g>
      </g>
    </g>
    <g id="Group_1114263" data-name="Group 1114263" transform="translate(772.574 -87.469)">
      <rect id="Rectangle_401104" data-name="Rectangle 401104" width="59" height="59" transform="translate(418.137 6042.469)" fill="none"/>
      <g id="Group_1114728" data-name="Group 1114728" transform="translate(420.137 6047.469)">
        <g id="Group_1114727" data-name="Group 1114727" clip-path="url(#clip-path)">
          <path id="Path_920077" data-name="Path 920077" d="M51.8,0H3.2A3.159,3.159,0,0,0,0,3.2v28H55V3.2A3.221,3.221,0,0,0,51.8,0" fill="#3a2292"/>
          <path id="Path_920078" data-name="Path 920078" d="M51.3,27.5v3.8H3.8V3.8H51.3Z" fill="#eae5ff"/>
          <path id="Path_920079" data-name="Path 920079" d="M14.462,24.959V26.48l-1.472.147a3.145,3.145,0,0,1-.393.933l.933,1.128-1.08,1.08-1.129-.932a3.137,3.137,0,0,1-.932.392L10.242,30.7H8.72l-.147-1.473a3.137,3.137,0,0,1-.932-.392l-1.129.932-1.079-1.08.932-1.128a3.172,3.172,0,0,1-.393-.933L4.5,26.48V24.959l1.472-.147a3.172,3.172,0,0,1,.393-.933l-.932-1.128,1.079-1.08,1.129.933a3.113,3.113,0,0,1,.932-.393l.147-1.472h1.522l.147,1.472a3.113,3.113,0,0,1,.932.393l1.129-.933,1.08,1.08L12.6,23.83a3.145,3.145,0,0,1,.393.933Zm-3.239.736a1.815,1.815,0,1,0-1.816,1.816,1.811,1.811,0,0,0,1.816-1.816" fill="#ff85e7"/>
          <path id="Path_920080" data-name="Path 920080" d="M50.462,10.441V12.5l-1.989.2a4.259,4.259,0,0,1-.531,1.26l1.26,1.525L47.743,16.94l-1.525-1.26a4.259,4.259,0,0,1-1.26.531l-.2,1.989H42.7l-.2-1.989a4.254,4.254,0,0,1-1.261-.531l-1.525,1.26L38.26,15.481l1.26-1.525a4.257,4.257,0,0,1-.53-1.26L37,12.5V10.441l1.989-.2a4.235,4.235,0,0,1,.53-1.26L38.26,7.457,39.719,6l1.525,1.26a4.228,4.228,0,0,1,1.261-.531l.2-1.99h2.056l.2,1.99a4.233,4.233,0,0,1,1.26.531L47.743,6,49.2,7.457l-1.26,1.459a4.259,4.259,0,0,1,.531,1.26Zm-4.377.995a2.453,2.453,0,1,0-2.454,2.454,2.448,2.448,0,0,0,2.454-2.454" fill="#ff85e7"/>
          <path id="Path_920081" data-name="Path 920081" d="M8.1,41.6a3.8,3.8,0,1,1-3.8,3.8,3.8,3.8,0,0,1,3.8-3.8" fill="#6bfcf2"/>
          <path id="Path_920082" data-name="Path 920082" d="M48.4,41.2a3.1,3.1,0,1,1-3.1,3.1,3.1,3.1,0,0,1,3.1-3.1" fill="#6bfcf2"/>
          <rect id="Rectangle_407748" data-name="Rectangle 407748" width="4.399" height="10.6" transform="translate(20.6 38.8)" fill="#170551"/>
          <rect id="Rectangle_407749" data-name="Rectangle 407749" width="4.4" height="10.6" transform="translate(30 38.8)" fill="#170551"/>
          <path id="Path_920083" data-name="Path 920083" d="M55,31.3v4.3a3.159,3.159,0,0,1-3.2,3.2H3.2A3.159,3.159,0,0,1,0,35.6V31.3Z" fill="#170551"/>
          <path id="Path_920084" data-name="Path 920084" d="M41.6,45.7a.9.9,0,1,1-.9.9.9.9,0,0,1,.9-.9" fill="#6bfcf2"/>
          <path id="Path_920085" data-name="Path 920085" d="M28.4,34.2a1.268,1.268,0,0,1,.4.9.975.975,0,0,1-.4.9,1.268,1.268,0,0,1-.9.4,1.324,1.324,0,0,1-1.3-1.3,1.086,1.086,0,0,1,.4-.9,1.489,1.489,0,0,1,.9-.4.975.975,0,0,1,.9.4" fill="#ffa8fb"/>
          <path id="Path_920086" data-name="Path 920086" d="M16.6,42.6a.9.9,0,1,1-.9.9.9.9,0,0,1,.9-.9" fill="#6bfcf2"/>
          <path id="Path_920087" data-name="Path 920087" d="M2.6,47.5a.9.9,0,1,1-.9.9.9.9,0,0,1,.9-.9" fill="#6bfcf2"/>
          <path id="Path_920088" data-name="Path 920088" d="M36.9,50H18.1a.6.6,0,1,1,0-1.2H36.9a.645.645,0,0,1,.6.6.576.576,0,0,1-.6.6" fill="#005068"/>
          <path id="Path_920089" data-name="Path 920089" d="M25.829,9.822a7.979,7.979,0,1,1-5.86,12.251,8,8,0,0,1,5.86-12.251" fill="#3d034b"/>
          <path id="Path_920090" data-name="Path 920090" d="M34.963,10.1c7.734,8.394-.48,21.626-11.408,18.521a7.139,7.139,0,0,1-1.413-.536.672.672,0,0,1,.307-1.187,11.664,11.664,0,0,1,1.834.54,9.968,9.968,0,1,0,0-19.357,15.769,15.769,0,0,1-1.778.55.673.673,0,0,1-.46-1.1,4.55,4.55,0,0,1,1.459-.62A11.281,11.281,0,0,1,34.963,10.1" fill="#3d034b"/>
          <path id="Path_920091" data-name="Path 920091" d="M20.11,8.647a.661.661,0,0,1,.722.984c-.517.483-1.063.922-1.552,1.436-.373.391-.784,1.3-1.461.815-.712-.514.13-1.323.52-1.756A7.27,7.27,0,0,1,20.11,8.647" fill="#3d034b"/>
          <path id="Path_920092" data-name="Path 920092" d="M16.6,18.593c.243.24.338,1.322.444,1.732.133.514.649,1.452.415,1.907a.688.688,0,0,1-1.174-.044,11.407,11.407,0,0,1-.827-3.011.694.694,0,0,1,1.142-.584" fill="#3d034b"/>
          <path id="Path_920093" data-name="Path 920093" d="M18.1,23.52c.593-.086.9.625,1.248,1,.457.481.965.894,1.46,1.333a.67.67,0,0,1-.518,1.041c-.365.015-1.025-.595-1.3-.848a8.444,8.444,0,0,1-1.388-1.6.674.674,0,0,1,.5-.923" fill="#3d034b"/>
          <path id="Path_920094" data-name="Path 920094" d="M16.665,13a.678.678,0,0,1,.849.422c.094.407-.353,1.3-.473,1.772-.165.64-.1,2.02-1.034,1.882-.912-.136-.383-1.72-.227-2.3.114-.425.44-1.676.885-1.778" fill="#3d034b"/>
          <path id="Path_920095" data-name="Path 920095" d="M26.473,12.479a.639.639,0,0,1,.857.544l-.007,4.917c-.844,1.063-1.694,2.373-2.616,3.36a2,2,0,0,1-.406.373.654.654,0,0,1-.855-.92l2.575-3.27.02-4.527a.639.639,0,0,1,.432-.477" fill="#ff85e7"/>
        </g>
      </g>
    </g>
  </g>
</svg>
