<svg xmlns="http://www.w3.org/2000/svg" xmlns:xlink="http://www.w3.org/1999/xlink" width="70" height="70" viewBox="0 0 70 70">
  <defs>
    <clipPath id="clip-path">
      <rect id="Rectangle_407739" data-name="Rectangle 407739" width="42.149" height="42.068" fill="#170551"/>
    </clipPath>
  </defs>
  <g id="Group_1114239" data-name="Group 1114239" transform="translate(-268.711 -958.137)">
    <circle id="Ellipse_5614" data-name="Ellipse 5614" cx="35" cy="35" r="35" transform="translate(268.711 958.137)" fill="#fff"/>
    <g id="Group_1114714" data-name="Group 1114714" transform="translate(282.711 972.137)">
      <g id="Group_1114713" data-name="Group 1114713" transform="translate(0 0)" clip-path="url(#clip-path)">
        <path id="Path_920035" data-name="Path 920035" d="M23.805,41.329l1.5-2.091-3.045-2.822,2.822-3.046-2.272-2.354a9.9,9.9,0,0,1-3.532-19.482l-3.7-1.518L17.2,7.023l-3.242-2,.811-1.995-.854-1.577c-.573.207-1.134.434-1.678.685L12,5.706,8.835,4.085A21.119,21.119,0,0,0,3.809,9.111l1.621,3.161-3.567.162A21.671,21.671,0,0,0,0,19.324l3,1.945-.285.185.643.665L5.7,20.367l1.752,2.338,3.374-2.247L7.673,24.5,5.92,22.166,3.311,24.683l-1.258-1.3-1.96.5A21.641,21.641,0,0,0,1.863,30.1l3.567.243L3.809,33.509a21.119,21.119,0,0,0,5.026,5.026L12,36.913l.243,3.566a21.677,21.677,0,0,0,6.89,1.864l1.945-3,1.946,3c.313-.032.62-.088.93-.132Z" transform="translate(0 -0.276)" fill="#170551"/>
        <path id="Path_920036" data-name="Path 920036" d="M45.507,16.315l-.133.057-1.68-.679-1.423,2.552-2.553-1.423-2.166,3.425,1.229-4.977,2.553,1.423,1.358-3.361,1.68.679.372-.293c-.191-.525-.4-1.046-.628-1.56L40.55,12l1.621-3.161A21.133,21.133,0,0,0,37.145,3.81L33.984,5.431l-.243-3.566A21.671,21.671,0,0,0,26.851,0L24.906,3,22.96,0a21.7,21.7,0,0,0-2.3.37l.376,1.388-.811,1.995,2.432,2L21.034,8.742l2.633,2.431a9.77,9.77,0,0,1,1.239-.087,9.909,9.909,0,0,1,2.913,19.38l3.555,1.856-2.823,3.046,4.183,3.006-1.5,2.091.274.6a21,21,0,0,0,2.236-.861l.243-3.566,3.161,1.621a21.133,21.133,0,0,0,5.026-5.026L40.55,30.072l3.566-.243a21.671,21.671,0,0,0,1.864-6.89l-3-1.945,3-1.945a21.124,21.124,0,0,0-.473-2.733" transform="translate(-3.831 0)" fill="#170551"/>
      </g>
    </g>
  </g>
</svg>
