<svg xmlns="http://www.w3.org/2000/svg" xmlns:xlink="http://www.w3.org/1999/xlink" width="70" height="70" viewBox="0 0 70 70">
  <defs>
    <clipPath id="clip-path">
      <rect id="Rectangle_407742" data-name="Rectangle 407742" width="38.892" height="42.5" fill="#170551"/>
    </clipPath>
  </defs>
  <g id="Group_1114989" data-name="Group 1114989" transform="translate(-1229.711 -3744)">
    <g id="Group_1114242" data-name="Group 1114242" transform="translate(960.711 2786)">
      <circle id="Ellipse_5614" data-name="Ellipse 5614" cx="35" cy="35" r="35" transform="translate(269 958)" fill="#fff"/>
    </g>
    <g id="Group_1114720" data-name="Group 1114720" transform="translate(1243.711 3758)">
      <g id="Group_1114719" data-name="Group 1114719" clip-path="url(#clip-path)">
        <path id="Path_920046" data-name="Path 920046" d="M77.029,0V8.123a1.618,1.618,0,0,0,.715.715h8.123v31c0,1.008-1.96,2.754-3.056,2.663h-25.6a3.752,3.752,0,0,1-3.186-4.417H79.044c2.24,0,4.085-2.664,4.23-4.738.138-1.978.26-8.827-.227-10.442-.432-1.431-2.312-3.405-3.873-3.405H54.026V3.054C54.026,1.893,55.79,0,56.95,0ZM59.056,5.355c-.775.4-.863,1.5.111,1.655,2.174.342,5.144-.243,7.406.015a.85.85,0,0,0-.014-1.689Zm.131,3.51a.907.907,0,0,0,.229,1.795H73.458a.914.914,0,1,0,0-1.825Zm0,3.509a.907.907,0,0,0,.229,1.795H73.458a.914.914,0,1,0,0-1.825Z" transform="translate(-46.974)" fill="#170551"/>
        <path id="Path_920047" data-name="Path 920047" d="M.257,157a4.23,4.23,0,0,0,2.009.785l28.864-.012a3.377,3.377,0,0,1,3.556,2.552c-.16,3.169.252,6.605.017,9.741a3.02,3.02,0,0,1-2.539,2.789l-27.818.005c-1.516.087-4.088-2.31-4.088-3.709ZM8.8,160.532c-.435.09-.571.42-.618.819a49.369,49.369,0,0,0,0,7.026c.126,1.405,1.634,1.316,1.811-.151a43.348,43.348,0,0,0,.019-6.358c-.064-.76-.263-1.532-1.208-1.337m9.745,1.5a.888.888,0,0,0-.556-1.516,10.321,10.321,0,0,0-3.875.269,2.659,2.659,0,0,0,.908,5.038c.715.091,2.009-.276,2.007.86,0,1.333-2.227.75-3.189.846-1.6.16-1.632,1.675-.394,1.82,1,.117,3.315.115,4.14-.413a2.686,2.686,0,0,0-1.16-4.907c-.593-.076-1.759.24-1.975-.493-.638-2.157,3.22-.622,4.094-1.5m5.463-1.489c-2.74.391-2.777,3.758-2.567,5.878a3.124,3.124,0,0,0,6.236,0c.266-2.637-.072-6.391-3.669-5.877" transform="translate(-0.224 -136.596)" fill="#170551"/>
        <path id="Path_920048" data-name="Path 920048" d="M5.232,109v5.328H2.178a9.156,9.156,0,0,1-.914-.385,2.721,2.721,0,0,1-.023-4.581A5.608,5.608,0,0,1,2.178,109Z" transform="translate(0 -94.834)" fill="#170551"/>
        <path id="Path_920049" data-name="Path 920049" d="M251.755,10.5h-6.5V4Z" transform="translate(-213.383 -3.48)" fill="#170551"/>
        <path id="Path_920050" data-name="Path 920050" d="M177.77,197.914a1.33,1.33,0,0,1,1.72.954,19.725,19.725,0,0,1-.02,3.344,1.345,1.345,0,0,1-2.564-.11,19.739,19.739,0,0,1,.02-3.344,1.325,1.325,0,0,1,.844-.844" transform="translate(-153.862 -172.153)" fill="#170551"/>
      </g>
    </g>
  </g>
</svg>
