<svg xmlns="http://www.w3.org/2000/svg" xmlns:xlink="http://www.w3.org/1999/xlink" width="99" height="99" viewBox="0 0 99 99">
  <defs>
    <clipPath id="clip-path">
      <rect id="Rectangle_401223" data-name="Rectangle 401223" width="99" height="99" transform="translate(0)" fill="#ff85e7"/>
    </clipPath>
    <clipPath id="clip-path-2">
      <rect id="Rectangle_401223-2" data-name="Rectangle 401223" width="88.539" height="88.539" fill="#f3f9ff"/>
    </clipPath>
    <clipPath id="clip-path-3">
      <rect id="Rectangle_407822" data-name="Rectangle 407822" width="65.235" height="66.039" fill="none"/>
    </clipPath>
  </defs>
  <g id="Group_1114285" data-name="Group 1114285" transform="translate(-619.921 -5755.871)">
    <g id="Group_1100724" data-name="Group 1100724" transform="translate(619.921 5755.871)">
      <g id="Group_1099654" data-name="Group 1099654" transform="translate(0 0)">
        <g id="Mask_Group_1099652" data-name="Mask Group 1099652" clip-path="url(#clip-path)">
          <path id="Path_873521" data-name="Path 873521" d="M99,77.066A22,22,0,0,1,77.066,99H21.934A22,22,0,0,1,0,77.066V21.933A22,22,0,0,1,21.934,0H77.066A22,22,0,0,1,99,21.934Z" transform="translate(0)" fill="#170551"/>
        </g>
      </g>
      <g id="Group_1099659" data-name="Group 1099659" transform="translate(4.77 5.723)">
        <g id="Group_1099652" data-name="Group 1099652" transform="translate(0 0)" clip-path="url(#clip-path-2)">
          <path id="Path_873521-2" data-name="Path 873521" d="M88.539,68.922A19.674,19.674,0,0,1,68.923,88.539H19.616A19.674,19.674,0,0,1,0,68.922V19.616A19.674,19.674,0,0,1,19.616,0H68.923A19.674,19.674,0,0,1,88.539,19.616Z" fill="#f3f9ff"/>
        </g>
      </g>
    </g>
    <g id="Group_1100725" data-name="Group 1100725" transform="translate(636.343 5771.293)">
      <rect id="Rectangle_401104" data-name="Rectangle 401104" width="68" height="69" transform="translate(-0.421 0.438)" fill="none"/>
      <g id="Group_1114814" data-name="Group 1114814" transform="translate(1.579 1.438)">
        <g id="Group_1114813" data-name="Group 1114813" transform="translate(0 0)" clip-path="url(#clip-path-3)">
          <path id="Path_920472" data-name="Path 920472" d="M52.918,10.085V61.331a3.817,3.817,0,0,1-3.783,3.785H15.084A3.817,3.817,0,0,1,11.3,61.331V10.085A3.817,3.817,0,0,1,15.084,6.3H49.25a3.8,3.8,0,0,1,3.669,3.785" transform="translate(1.655 0.923)" fill="#eae5ff"/>
          <path id="Path_920473" data-name="Path 920473" d="M4.358,42.5A4.357,4.357,0,1,1,0,46.857,4.356,4.356,0,0,1,4.358,42.5" transform="translate(0 6.226)" fill="#6bfcf2"/>
          <path id="Path_920474" data-name="Path 920474" d="M54.255,10.1A3.554,3.554,0,1,1,50.7,13.655,3.554,3.554,0,0,1,54.255,10.1" transform="translate(7.427 1.48)" fill="#6bfcf2"/>
          <path id="Path_920475" data-name="Path 920475" d="M38.845,25.1V38.629H33.8V27.164Z" transform="translate(4.951 3.677)" fill="#9d0388"/>
          <path id="Path_920476" data-name="Path 920476" d="M30.03,28.8v9.288H25.1V30.978Z" transform="translate(3.677 4.219)" fill="#9d0388"/>
          <path id="Path_920477" data-name="Path 920477" d="M34.445,26.9V38.365H29.4V29.078Z" transform="translate(4.307 3.941)" fill="#c0afff"/>
          <path id="Path_920478" data-name="Path 920478" d="M25.745,30.7v7.108H20.7v-4.93Z" transform="translate(3.032 4.498)" fill="#c0afff"/>
          <path id="Path_920479" data-name="Path 920479" d="M36.3,46.3h7.223L36.3,53.524Z" transform="translate(5.317 6.783)" fill="#c0afff"/>
          <path id="Path_920480" data-name="Path 920480" d="M41.959,4.128a4.232,4.232,0,0,1,1.262,3.094,4.356,4.356,0,0,1-4.357,4.358H23.158a4.431,4.431,0,0,1-3.1-1.262,4.429,4.429,0,0,1-1.26-3.1,4.355,4.355,0,0,1,4.357-4.357H26.94a4.242,4.242,0,0,1,8.025,0h3.783a5.768,5.768,0,0,1,3.21,1.262" transform="translate(2.754 0)" fill="#3a2292"/>
          <path id="Path_920481" data-name="Path 920481" d="M54.233,42.6A1.032,1.032,0,1,1,53.2,43.632,1.03,1.03,0,0,1,54.233,42.6" transform="translate(7.793 6.241)" fill="#6bfcf2"/>
          <path id="Path_920482" data-name="Path 920482" d="M51.132,23.2A1.032,1.032,0,1,1,50.1,24.232,1.032,1.032,0,0,1,51.132,23.2" transform="translate(7.339 3.399)" fill="#6bfcf2"/>
          <path id="Path_920483" data-name="Path 920483" d="M7.433,23.8A1.032,1.032,0,1,1,6.4,24.832,1.031,1.031,0,0,1,7.433,23.8" transform="translate(0.938 3.487)" fill="#6bfcf2"/>
          <path id="Path_920484" data-name="Path 920484" d="M3.032,5.7A1.032,1.032,0,1,1,2,6.732,1.032,1.032,0,0,1,3.032,5.7" transform="translate(0.293 0.835)" fill="#6bfcf2"/>
          <path id="Path_920485" data-name="Path 920485" d="M1.733,36.3A1.032,1.032,0,1,1,.7,37.332,1.031,1.031,0,0,1,1.733,36.3" transform="translate(0.103 5.318)" fill="#6bfcf2"/>
          <path id="Path_920486" data-name="Path 920486" d="M39.319,58.5H16.389a.74.74,0,0,1-.689-.688V17.688a.688.688,0,0,1,1.377,0V57.127h21.9l6.765-6.764V32.019a.688.688,0,1,1,1.376,0V50.592a.6.6,0,0,1-.229.459l-7.223,7.223c0,.115-.116.229-.344.229" transform="translate(2.3 2.491)" fill="#c0afff"/>
          <path id="Path_920487" data-name="Path 920487" d="M40.851,40.876H20.788a.688.688,0,0,1,0-1.376H40.851a.688.688,0,1,1,0,1.376" transform="translate(2.944 5.787)" fill="#9d0388"/>
          <path id="Path_920488" data-name="Path 920488" d="M35.808,43.976H20.788a.687.687,0,0,1,0-1.375h15.02a.74.74,0,0,1,.688.687.662.662,0,0,1-.688.688" transform="translate(2.944 6.241)" fill="#9d0388"/>
          <path id="Path_920489" data-name="Path 920489" d="M41.445,14.358h0V14.13c0-.116-.116-.116-.229-.229H37.2a.688.688,0,1,0,0,1.376h1.833l-7.91,7.91-3.1-3.1a.861.861,0,0,0-1.033,0l-6.075,6.078a.75.75,0,0,0,.459,1.26.59.59,0,0,0,.457-.229l5.619-5.617,3.1,3.094a.854.854,0,0,0,1.031,0l8.485-8.483v1.833a.688.688,0,1,0,1.376,0V14.358Z" transform="translate(3.04 2.037)" fill="#7d0ede"/>
        </g>
      </g>
    </g>
  </g>
</svg>
