<svg xmlns="http://www.w3.org/2000/svg" xmlns:xlink="http://www.w3.org/1999/xlink" width="295" height="249" viewBox="0 0 295 249">
  <defs>
    <clipPath id="clip-path">
      <rect id="Rectangle_407248" data-name="Rectangle 407248" width="295" height="249" transform="translate(179.711 7053)" fill="#fff" stroke="#707070" stroke-width="1"/>
    </clipPath>
    <clipPath id="clip-path-2">
      <rect id="Rectangle_407796" data-name="Rectangle 407796" width="344" height="237.059" fill="none"/>
    </clipPath>
    <clipPath id="clip-path-3">
      <rect id="Rectangle_407791" data-name="Rectangle 407791" width="51.56" height="51.556" fill="none"/>
    </clipPath>
    <clipPath id="clip-path-4">
      <rect id="Rectangle_407792" data-name="Rectangle 407792" width="34.082" height="39.75" fill="none"/>
    </clipPath>
    <clipPath id="clip-path-5">
      <rect id="Rectangle_407793" data-name="Rectangle 407793" width="36.049" height="43.728" fill="none"/>
    </clipPath>
    <clipPath id="clip-path-6">
      <rect id="Rectangle_407794" data-name="Rectangle 407794" width="32.966" height="39.374" fill="none"/>
    </clipPath>
    <clipPath id="clip-path-7">
      <rect id="Rectangle_407795" data-name="Rectangle 407795" width="22.533" height="28.468" fill="none"/>
    </clipPath>
  </defs>
  <g id="Mask_Group_1110970" data-name="Mask Group 1110970" transform="translate(-179.711 -7053)" clip-path="url(#clip-path)">
    <g id="Group_1114752" data-name="Group 1114752" transform="translate(180 7098.708)">
      <g id="Group_1114750" data-name="Group 1114750" transform="translate(-37.622 -33.768)">
        <g id="Group_1114749" data-name="Group 1114749" clip-path="url(#clip-path-2)">
          <path id="Path_920104" data-name="Path 920104" d="M286.4,483.221a3.536,3.536,0,0,0-.891,3.208,2.473,2.473,0,0,1,.08.526,3.44,3.44,0,0,1-.523,1.967L276.489,502.9c-1.3,1.894-2.947,1.209-4.133,2.8-.88,1.182-.522,3.115-.325,3.921a.129.129,0,0,0,.246.018c.192-.486.349-1.3.542-1.9.28-.873,1.971-1.5,3.378-.313,1.142.964.171,2.624-.2,3.324a.14.14,0,0,0,.164.2,3.014,3.014,0,0,0,1.471-1.1,3.68,3.68,0,0,0,.763-3.362,2.4,2.4,0,0,1,0-1.065,3.9,3.9,0,0,1,.514-1.286l8.845-14.417a2.267,2.267,0,0,1,.746-.751c1.051-.642,2.174-.4,3.048-1.574s.521-3.3.324-4.1a.129.129,0,0,0-.246-.018c-.192.486-.505,1.605-.7,2.207-.28.873-1.745,1.587-3.152.4-1.142-.964-.041-2.884.327-3.583a.14.14,0,0,0-.165-.2,3.2,3.2,0,0,0-1.543,1.125" transform="translate(-227.752 -403.978)" fill="#e5f0f8"/>
          <path id="Path_920105" data-name="Path 920105" d="M498.961,231.486S596.084-15.937,417.852.811c-76.338,7.173-62.087,50.692-95.8,91.41-21.854,26.393-63.885,4.8-79.636,27.865s2.759,88.825,9.252,111.4Z" transform="translate(-197.95 0.002)" fill="#e5f0f8"/>
          <path id="Path_920106" data-name="Path 920106" d="M338.375,23H255.619c-.98,0-1.774,1.3-1.774,2.9V92.459h86.3V25.9c0-1.6-.794-2.9-1.774-2.9" transform="translate(-212.715 -19.272)" fill="#bbdbf3"/>
          <rect id="Rectangle_407752" data-name="Rectangle 407752" width="83.997" height="61.862" transform="translate(42.283 10.255)" fill="#e5f0f8"/>
          <path id="Path_920107" data-name="Path 920107" d="M283.273,88.485v-.65l3.751-2.03V86.8l-2.506,1.363,2.506,1.362v.992Z" transform="translate(-237.375 -71.902)" fill="#fff"/>
          <path id="Path_920108" data-name="Path 920108" d="M734.355,410.828v-.993l2.506-1.362-2.506-1.362v-.992l3.751,2.03v.65Z" transform="translate(-615.369 -340.315)" fill="#fff"/>
          <rect id="Rectangle_407753" data-name="Rectangle 407753" width="14.917" height="1.533" transform="translate(51.04 15.492)" fill="#fff"/>
          <rect id="Rectangle_407754" data-name="Rectangle 407754" width="14.917" height="1.533" transform="translate(45.898 21.414)" fill="#fff"/>
          <rect id="Rectangle_407755" data-name="Rectangle 407755" width="14.917" height="1.533" transform="translate(49.076 25.54)" fill="#fff"/>
          <rect id="Rectangle_407756" data-name="Rectangle 407756" width="14.917" height="1.533" transform="translate(49.076 36.895)" fill="#fff"/>
          <rect id="Rectangle_407757" data-name="Rectangle 407757" width="14.917" height="1.533" transform="translate(49.076 40.407)" fill="#fff"/>
          <rect id="Rectangle_407758" data-name="Rectangle 407758" width="44.988" height="1.533" transform="translate(54.202 29.469)" fill="#fff"/>
          <rect id="Rectangle_407759" data-name="Rectangle 407759" width="60.1" height="1.533" transform="translate(54.202 44.139)" fill="#fff"/>
          <rect id="Rectangle_407760" data-name="Rectangle 407760" width="60.1" height="1.533" transform="translate(54.202 55.889)" fill="#fff"/>
          <rect id="Rectangle_407761" data-name="Rectangle 407761" width="57.578" height="1.533" transform="translate(59.854 67.391)" fill="#fff"/>
          <rect id="Rectangle_407762" data-name="Rectangle 407762" width="12.873" height="1.533" transform="translate(54.202 59.881)" fill="#fff"/>
          <rect id="Rectangle_407763" data-name="Rectangle 407763" width="12.873" height="1.533" transform="translate(54.202 63.679)" fill="#fff"/>
          <rect id="Rectangle_407764" data-name="Rectangle 407764" width="60.1" height="1.533" transform="translate(54.202 47.89)" fill="#fff"/>
          <rect id="Rectangle_407765" data-name="Rectangle 407765" width="32.517" height="1.533" transform="translate(54.202 51.641)" fill="#fff"/>
          <rect id="Rectangle_407766" data-name="Rectangle 407766" width="13.795" height="1.533" transform="translate(54.202 33.001)" fill="#fff"/>
          <line id="Line_3289" data-name="Line 3289" y1="3.818" x2="3.818" transform="translate(120.298 5.165)" fill="none" stroke="#fff" stroke-linecap="round" stroke-linejoin="round" stroke-width="3.779"/>
          <line id="Line_3290" data-name="Line 3290" x1="3.818" y1="3.818" transform="translate(120.298 5.165)" fill="none" stroke="#fff" stroke-linecap="round" stroke-linejoin="round" stroke-width="3.779"/>
          <path id="Path_920109" data-name="Path 920109" d="M833.6,15.682a6.588,6.588,0,0,0,3.152,7.932l-3.936,11.52,2,.682L838.747,24.3a6.593,6.593,0,1,0-5.148-8.616m11.137,3.8a5.159,5.159,0,1,1-3.214-6.55,5.174,5.174,0,0,1,3.214,6.55" transform="translate(-697.876 -9.392)" fill="#e5f0f8"/>
          <line id="Line_3321" data-name="Line 3321" x2="2.641" y2="5.263" transform="translate(296.163 203.789)" fill="none" stroke="#40a87b" stroke-miterlimit="10" stroke-width="3.989"/>
          <path id="Path_920118" data-name="Path 920118" d="M501.191,222.436A93.856,93.856,0,0,0,450.68,372.312l73.179-58.773Z" transform="translate(-360.314 -186.395)" fill="#46beb6"/>
          <path id="Path_920119" data-name="Path 920119" d="M948.338,224A93.941,93.941,0,0,0,869.463,208.1l22.669,91.1Z" transform="translate(-728.587 -172.056)" fill="#f9e181"/>
          <path id="Path_920120" data-name="Path 920120" d="M1103.174,392.981a93.724,93.724,0,0,0-37.6-72.367l-56.206,75.2Z" transform="translate(-845.824 -268.666)" fill="#ffddb8"/>
          <path id="Path_920121" data-name="Path 920121" d="M1103.174,767.247l-93.8,2.83,66.617,66.133a93.571,93.571,0,0,0,27.26-66.133c0-.949-.043-1.888-.072-2.83" transform="translate(-845.824 -642.932)" fill="#ffd09c"/>
          <path id="Path_920122" data-name="Path 920122" d="M1038.31,874.02a93.859,93.859,0,0,0,37.676-23.176l-66.617-66.133Z" transform="translate(-845.824 -657.566)" fill="#a6c9f1"/>
          <path id="Path_920123" data-name="Path 920123" d="M557.721,843.484a93.865,93.865,0,0,0,102.12,30.536L630.9,784.711Z" transform="translate(-467.355 -657.566)" fill="#0775ef"/>
          <path id="Path_920124" data-name="Path 920124" d="M608.232,222.436h12.424l-50.51,149.876H557.721Z" transform="translate(-467.355 -186.395)" fill="#40a87b"/>
          <path id="Path_920125" data-name="Path 920125" d="M577.867,222.436a93.856,93.856,0,0,0-50.511,149.876l73.179-58.773Z" transform="translate(-424.566 -186.395)" fill="#6bfcf2"/>
          <path id="Path_920126" data-name="Path 920126" d="M1025.014,224A93.941,93.941,0,0,0,946.139,208.1l22.669,91.1Z" transform="translate(-792.839 -172.056)" fill="#ffe4fa"/>
          <path id="Path_920127" data-name="Path 920127" d="M1179.851,392.981a93.724,93.724,0,0,0-37.6-72.367l-56.206,75.2Z" transform="translate(-910.077 -268.666)" fill="#ffa8fb"/>
          <path id="Path_920128" data-name="Path 920128" d="M1179.851,767.247l-93.8,2.83,66.617,66.133a93.571,93.571,0,0,0,27.26-66.133c0-.949-.043-1.888-.072-2.83" transform="translate(-910.077 -642.932)" fill="#7d0ede"/>
          <path id="Path_920129" data-name="Path 920129" d="M1114.987,874.02a93.859,93.859,0,0,0,37.676-23.176l-66.617-66.133Z" transform="translate(-910.077 -657.566)" fill="#2ec6fc"/>
          <path id="Path_920130" data-name="Path 920130" d="M634.4,843.484a93.865,93.865,0,0,0,102.12,30.536l-28.941-89.309Z" transform="translate(-531.608 -657.566)" fill="#088cfc"/>
          <rect id="Rectangle_407767" data-name="Rectangle 407767" width="13.513" height="13.513" transform="translate(253.311 4.016)" fill="#bbdbf3"/>
          <rect id="Rectangle_407768" data-name="Rectangle 407768" width="13.513" height="13.513" transform="translate(253.311 20.232)" fill="#bbdbf3"/>
          <rect id="Rectangle_407769" data-name="Rectangle 407769" width="13.513" height="13.513" transform="translate(253.311 36.447)" fill="#bbdbf3"/>
          <path id="Path_920131" data-name="Path 920131" d="M1568.231,45.357l4.446,3.923,7.062-8.893" transform="translate(-1314.135 -33.843)" fill="none" stroke="#fff" stroke-miterlimit="10" stroke-width="2"/>
          <path id="Path_920132" data-name="Path 920132" d="M1568.231,144.9l4.446,3.923,7.062-8.893" transform="translate(-1314.135 -117.256)" fill="none" stroke="#fff" stroke-miterlimit="10" stroke-width="2"/>
          <line id="Line_3323" data-name="Line 3323" x2="10.636" y2="10.636" transform="translate(254.445 37.755)" fill="none" stroke="#fff" stroke-miterlimit="10" stroke-width="2"/>
          <line id="Line_3324" data-name="Line 3324" x1="10.636" y2="10.636" transform="translate(254.445 37.755)" fill="none" stroke="#fff" stroke-miterlimit="10" stroke-width="2"/>
          <rect id="Rectangle_407770" data-name="Rectangle 407770" width="37.788" height="2.009" transform="translate(268.879 4.016)" fill="#bbdbf3"/>
          <rect id="Rectangle_407771" data-name="Rectangle 407771" width="37.788" height="2.009" transform="translate(268.879 7.665)" fill="#bbdbf3"/>
          <rect id="Rectangle_407772" data-name="Rectangle 407772" width="23.638" height="2.009" transform="translate(268.879 11.314)" fill="#bbdbf3"/>
          <rect id="Rectangle_407773" data-name="Rectangle 407773" width="37.788" height="2.009" transform="translate(268.879 20.232)" fill="#bbdbf3"/>
          <rect id="Rectangle_407774" data-name="Rectangle 407774" width="37.788" height="2.009" transform="translate(268.879 23.881)" fill="#bbdbf3"/>
          <rect id="Rectangle_407775" data-name="Rectangle 407775" width="23.638" height="2.009" transform="translate(268.879 27.53)" fill="#bbdbf3"/>
          <rect id="Rectangle_407776" data-name="Rectangle 407776" width="37.788" height="2.009" transform="translate(268.879 36.447)" fill="#bbdbf3"/>
          <rect id="Rectangle_407777" data-name="Rectangle 407777" width="37.788" height="2.009" transform="translate(268.879 40.096)" fill="#bbdbf3"/>
          <rect id="Rectangle_407778" data-name="Rectangle 407778" width="23.638" height="2.009" transform="translate(268.879 43.745)" fill="#bbdbf3"/>
          <path id="Path_920133" data-name="Path 920133" d="M884.1,113.109a5.974,5.974,0,0,1-5.2,6.019,25.7,25.7,0,0,0,3.4,7.918,5.978,5.978,0,0,1,8.531,8.27,26.207,26.207,0,0,0,5.086,2.369c.8.268,1.607.5,2.421.69.16.045.328.077.486.112a5.982,5.982,0,0,1,11.882-.189,25.59,25.59,0,0,0,7.9-3.4,5.981,5.981,0,0,1,8.283-8.522,25.777,25.777,0,0,0,3.158-8,5.978,5.978,0,0,1-.167-11.875,25.653,25.653,0,0,0-3.4-7.907,5.957,5.957,0,0,1-7.237.258,4.4,4.4,0,0,1-.717-.585,5.963,5.963,0,0,1-.566-7.944,26.027,26.027,0,0,0-4.787-2.275c-.8-.268-1.6-.513-2.415-.713-.272-.067-.544-.133-.814-.189a5.955,5.955,0,0,1-5.854,5.378,6.138,6.138,0,0,1-1.612-.187,5.981,5.981,0,0,1-4.406-5,25.584,25.584,0,0,0-7.9,3.4,5.981,5.981,0,0,1-8.283,8.522,26.059,26.059,0,0,0-3.168,8,5.964,5.964,0,0,1,5.378,5.854m11.165-9.141a12.52,12.52,0,0,1,4.691-3.061,12.7,12.7,0,0,1,6.957-.538,11.518,11.518,0,0,1,2.41.746,12.695,12.695,0,0,1,7.052,7.486,12.7,12.7,0,0,1-2.876,13.064,11.622,11.622,0,0,1-1.319,1.171,12.631,12.631,0,0,1-12.424,1.8,12.469,12.469,0,0,1-4.212-2.71,13.191,13.191,0,0,1-1.34-1.524,12.7,12.7,0,0,1,1.061-16.44" transform="translate(-736.346 -73.026)" fill="#8264f3"/>
          <path id="Path_920134" data-name="Path 920134" d="M1071.4,73.344l2.854-2.669-.542,6.76Z" transform="translate(-897.805 -59.224)" fill="#0775ef"/>
          <path id="Path_920135" data-name="Path 920135" d="M952.25,92.792,949.4,95.461l4.414,1.891,1.158-4.187Z" transform="translate(-795.568 -77.757)" fill="#8264f3"/>
          <path id="Path_920136" data-name="Path 920136" d="M882.668,268.067l-2.854,2.669,2.393,1.8,2.575-2.251Z" transform="translate(-737.261 -224.632)" fill="#0775ef"/>
          <path id="Path_920137" data-name="Path 920137" d="M901.13,145.391l-2.854,2.669,1.2,2.89.658-3.2Z" transform="translate(-752.731 -121.834)" fill="#0775ef"/>
          <path id="Path_920138" data-name="Path 920138" d="M996.165,379.486l-2.854,2.669-1.832-2.033,1.634-2.194Z" transform="translate(-830.833 -316.693)" fill="#8264f3"/>
          <path id="Path_920139" data-name="Path 920139" d="M1181.386,180.007l-2.854,2.669-3.075-2.361,1.53-2.267Z" transform="translate(-985.002 -149.199)" fill="#0775ef"/>
          <path id="Path_920140" data-name="Path 920140" d="M1105.3,362.693l-2.854,2.669-4.332-.575,2.947-2.62Z" transform="translate(-920.193 -303.485)" fill="#0775ef"/>
          <path id="Path_920141" data-name="Path 920141" d="M1174.263,301.374l-2.854,2.669-.882-4.881,2.652.447Z" transform="translate(-980.87 -250.69)" fill="#8264f3"/>
          <path id="Path_920142" data-name="Path 920142" d="M901.713,96.638a5.974,5.974,0,0,1-5.2,6.019,25.711,25.711,0,0,0,3.4,7.918,5.978,5.978,0,0,1,8.531,8.27,26.213,26.213,0,0,0,5.087,2.369c.8.268,1.607.5,2.421.69.16.045.328.077.486.112a5.982,5.982,0,0,1,11.882-.189,25.586,25.586,0,0,0,7.9-3.4,5.981,5.981,0,0,1,8.283-8.522,25.771,25.771,0,0,0,3.158-8,5.978,5.978,0,0,1-.167-11.875,25.654,25.654,0,0,0-3.4-7.907,5.957,5.957,0,0,1-7.237.258,4.4,4.4,0,0,1-.717-.585,5.964,5.964,0,0,1-.566-7.944,26.025,26.025,0,0,0-4.788-2.275c-.8-.268-1.6-.513-2.415-.713-.272-.067-.544-.133-.814-.189a5.954,5.954,0,0,1-5.853,5.378,6.138,6.138,0,0,1-1.612-.187,5.981,5.981,0,0,1-4.406-5,25.589,25.589,0,0,0-7.9,3.4,5.981,5.981,0,0,1-8.283,8.523,26.062,26.062,0,0,0-3.168,8,5.964,5.964,0,0,1,5.378,5.854M912.878,87.5a12.521,12.521,0,0,1,4.691-3.061,12.7,12.7,0,0,1,6.956-.538,11.514,11.514,0,0,1,2.41.746,12.693,12.693,0,0,1,7.052,7.486,12.7,12.7,0,0,1-2.875,13.064,11.658,11.658,0,0,1-1.319,1.171,12.63,12.63,0,0,1-12.424,1.8,12.47,12.47,0,0,1-4.213-2.71,13.217,13.217,0,0,1-1.34-1.524,12.7,12.7,0,0,1,1.061-16.44" transform="translate(-751.104 -59.223)" fill="#3a2292"/>
          <path id="Path_920143" data-name="Path 920143" d="M1248.026,46.787a3.6,3.6,0,0,1-3.135,3.627,15.5,15.5,0,0,0,2.049,4.771,3.6,3.6,0,0,1,5.141,4.984,15.793,15.793,0,0,0,3.065,1.427c.48.161.968.3,1.459.416.1.027.2.047.293.067a3.6,3.6,0,0,1,7.16-.114,15.414,15.414,0,0,0,4.759-2.047,3.6,3.6,0,0,1,4.991-5.136,15.542,15.542,0,0,0,1.9-4.822,3.6,3.6,0,0,1-.1-7.156,15.462,15.462,0,0,0-2.048-4.765,3.589,3.589,0,0,1-4.361.155,2.646,2.646,0,0,1-.432-.353,3.594,3.594,0,0,1-.341-4.787,15.692,15.692,0,0,0-2.885-1.371c-.48-.161-.964-.309-1.455-.429-.164-.04-.328-.08-.49-.114a3.588,3.588,0,0,1-3.528,3.241,3.694,3.694,0,0,1-.971-.112,3.6,3.6,0,0,1-2.655-3.016,15.419,15.419,0,0,0-4.759,2.047,3.6,3.6,0,0,1-4.991,5.136,15.694,15.694,0,0,0-1.909,4.823,3.594,3.594,0,0,1,3.241,3.527m6.728-5.509a7.547,7.547,0,0,1,2.827-1.844,7.652,7.652,0,0,1,4.192-.324,6.955,6.955,0,0,1,1.453.449,7.65,7.65,0,0,1,4.25,4.511,7.652,7.652,0,0,1-1.733,7.873,7.04,7.04,0,0,1-.795.706,7.611,7.611,0,0,1-7.487,1.088,7.514,7.514,0,0,1-2.539-1.633,7.957,7.957,0,0,1-.807-.918,7.654,7.654,0,0,1,.639-9.907" transform="translate(-1043.096 -26.095)" fill="#c0afff"/>
          <path id="Path_920144" data-name="Path 920144" d="M1360.895,22.823l1.72-1.608-.327,4.074Z" transform="translate(-1140.393 -17.777)" fill="#0775ef"/>
          <path id="Path_920145" data-name="Path 920145" d="M1289.093,34.543l-1.72,1.608,2.66,1.14.7-2.523Z" transform="translate(-1078.784 -28.946)" fill="#0775ef"/>
          <path id="Path_920146" data-name="Path 920146" d="M1247.162,140.166l-1.72,1.608,1.442,1.083,1.552-1.356Z" transform="translate(-1043.647 -117.455)" fill="#0775ef"/>
          <path id="Path_920147" data-name="Path 920147" d="M1258.287,66.24l-1.72,1.608.722,1.741.4-1.931Z" transform="translate(-1052.97 -55.507)" fill="#0775ef"/>
          <path id="Path_920148" data-name="Path 920148" d="M1315.556,207.308l-1.719,1.608-1.1-1.225.985-1.322Z" transform="translate(-1100.034 -172.931)" fill="#0775ef"/>
          <path id="Path_920149" data-name="Path 920149" d="M1427.173,87.1l-1.72,1.608-1.853-1.423.922-1.366Z" transform="translate(-1192.939 -71.998)" fill="#0775ef"/>
          <path id="Path_920150" data-name="Path 920150" d="M1381.324,197.188l-1.72,1.608-2.611-.347,1.776-1.579Z" transform="translate(-1153.883 -164.972)" fill="#0775ef"/>
          <path id="Path_920151" data-name="Path 920151" d="M1422.88,160.237l-1.719,1.608-.532-2.941,1.6.269Z" transform="translate(-1190.448 -133.157)" fill="#0775ef"/>
          <path id="Path_920152" data-name="Path 920152" d="M1258.639,36.861a3.6,3.6,0,0,1-3.134,3.627,15.486,15.486,0,0,0,2.049,4.771,3.6,3.6,0,0,1,5.141,4.984,15.8,15.8,0,0,0,3.065,1.427c.48.161.969.3,1.459.416.1.027.2.047.293.067a3.6,3.6,0,0,1,7.16-.114,15.417,15.417,0,0,0,4.759-2.047,3.6,3.6,0,0,1,4.991-5.136,15.54,15.54,0,0,0,1.9-4.822,3.6,3.6,0,0,1-.1-7.156,15.461,15.461,0,0,0-2.048-4.765,3.59,3.59,0,0,1-4.361.155,2.63,2.63,0,0,1-.432-.353,3.594,3.594,0,0,1-.341-4.787,15.693,15.693,0,0,0-2.885-1.371c-.48-.161-.964-.309-1.455-.429-.164-.04-.327-.08-.49-.114a3.588,3.588,0,0,1-3.527,3.241,3.7,3.7,0,0,1-.971-.112,3.605,3.605,0,0,1-2.655-3.016,15.423,15.423,0,0,0-4.759,2.047,3.6,3.6,0,0,1-4.991,5.136,15.7,15.7,0,0,0-1.909,4.823,3.594,3.594,0,0,1,3.241,3.527m6.728-5.509a7.547,7.547,0,0,1,2.827-1.844,7.653,7.653,0,0,1,4.192-.324,6.95,6.95,0,0,1,1.453.449,7.65,7.65,0,0,1,4.25,4.511,7.651,7.651,0,0,1-1.733,7.873,6.992,6.992,0,0,1-.794.706,7.611,7.611,0,0,1-7.487,1.088,7.516,7.516,0,0,1-2.539-1.633,7.969,7.969,0,0,1-.807-.918,7.654,7.654,0,0,1,.639-9.907" transform="translate(-1051.99 -17.777)" fill="#3a2292"/>
          <path id="Path_920153" data-name="Path 920153" d="M1912.469,627.416,1906.078,618l-3.013,14.951,4.7,12.1Z" transform="translate(-1594.717 -517.869)" fill="#bbdbf3"/>
          <path id="Path_920154" data-name="Path 920154" d="M1385.7,745.425h67.56a3.429,3.429,0,0,0,3.241-2.732l20.873-115.278c.276-1.525.058-3.079-1.467-3.079l-66.941-9.489a3.444,3.444,0,0,0-3.252,2.76l-22.273,125.086a2.231,2.231,0,0,0,2.26,2.732" transform="translate(-1159.246 -515.225)" fill="#bbdbf3"/>
          <path id="Path_920155" data-name="Path 920155" d="M1337.67,745.425h67.56a3.429,3.429,0,0,0,3.241-2.732l22.648-125.086a2.241,2.241,0,0,0-2.261-2.76h-67.922a3.444,3.444,0,0,0-3.252,2.76l-22.273,125.086a2.231,2.231,0,0,0,2.26,2.732" transform="translate(-1119.001 -515.225)" fill="#fff"/>
          <path id="Path_920156" data-name="Path 920156" d="M1395.043,644.807l-20.437,114.649h63.427l8.175-45.2-25.626-67.653h11.1l18.106,47.848,8.979-49.646Z" transform="translate(-1151.882 -540.331)" fill="#bbdbf3"/>
          <path id="Path_920157" data-name="Path 920157" d="M1639.518,627.737a2.187,2.187,0,0,0-.02.685,1.977,1.977,0,0,0,.437,1.067,2.057,2.057,0,0,0,1.621.73h13.968a3.119,3.119,0,0,0,2.7-1.8,2.549,2.549,0,0,0,.226-.685,2.122,2.122,0,0,0-.415-1.753,2.048,2.048,0,0,0-1.621-.731h-13.971a3.115,3.115,0,0,0-2.928,2.483" transform="translate(-1373.839 -523.946)" fill="#fff"/>
          <path id="Path_920158" data-name="Path 920158" d="M1658.354,655.9l25.627,67.653,3.582-19.805L1669.456,655.9Z" transform="translate(-1389.655 -549.628)" fill="#e5f0f8"/>
          <path id="Path_920159" data-name="Path 920159" d="M1500.33,644.807l-.079.445,43.172,113.633,6.964-38.505-28.638-75.573Z" transform="translate(-1257.169 -540.331)" fill="#e5f0f8"/>
          <path id="Path_920160" data-name="Path 920160" d="M1434.375,975.974l-1.418,7.953,20.222,53.038h4.443Z" transform="translate(-1200.779 -817.84)" fill="#e5f0f8"/>
          <path id="Path_920161" data-name="Path 920161" d="M1415.972,1040.2l-2.762,15.5,13.393,35.089h8.659Z" transform="translate(-1184.232 -871.657)" fill="#e5f0f8"/>
          <path id="Path_920162" data-name="Path 920162" d="M1499.037,1372.923h15.47a4.025,4.025,0,0,0,3.792-3.2,2.615,2.615,0,0,0-2.641-3.2h-15.474a4.022,4.022,0,0,0-3.791,3.2,2.617,2.617,0,0,0,2.643,3.2" transform="translate(-1253.895 -1145.108)" fill="#bbdbf3"/>
          <path id="Path_920163" data-name="Path 920163" d="M421.258,1003.107h-66.45a2.077,2.077,0,0,0-2.076,2.08v13h70.606v-13a2.08,2.08,0,0,0-2.08-2.08m-50.735,10.66a3.4,3.4,0,1,1,3.4-3.4,3.4,3.4,0,0,1-3.4,3.4m35.019,0a3.4,3.4,0,1,1,3.4-3.4,3.4,3.4,0,0,1-3.4,3.4" transform="translate(-295.58 -840.576)" fill="#170551"/>
          <path id="Path_920164" data-name="Path 920164" d="M352.721,1096.206v50.505a2.08,2.08,0,0,0,2.08,2.08h66.447a2.08,2.08,0,0,0,2.08-2.08v-50.505Z" transform="translate(-295.571 -918.591)" fill="#bbdbf3"/>
          <path id="Path_920165" data-name="Path 920165" d="M445.7,1003.107h-66.45a2.077,2.077,0,0,0-2.076,2.08v13h70.606v-13a2.08,2.08,0,0,0-2.08-2.08m-50.735,10.66a3.4,3.4,0,1,1,3.4-3.4,3.4,3.4,0,0,1-3.4,3.4m35.019,0a3.4,3.4,0,1,1,3.4-3.4,3.4,3.4,0,0,1-3.4,3.4" transform="translate(-316.06 -840.576)" fill="#7d0ede"/>
          <path id="Path_920166" data-name="Path 920166" d="M377.162,1096.206v50.505a2.08,2.08,0,0,0,2.08,2.08h66.447a2.08,2.08,0,0,0,2.08-2.08v-50.505Z" transform="translate(-316.051 -918.591)" fill="#e5f0f8"/>
          <rect id="Rectangle_407779" data-name="Rectangle 407779" width="11.053" height="11.053" transform="translate(66.389 182.55)" fill="#fff"/>
          <rect id="Rectangle_407780" data-name="Rectangle 407780" width="11.053" height="11.053" transform="translate(66.389 198.381)" fill="#fff"/>
          <rect id="Rectangle_407781" data-name="Rectangle 407781" width="11.053" height="11.053" transform="translate(66.389 214.212)" fill="#fff"/>
          <rect id="Rectangle_407782" data-name="Rectangle 407782" width="11.053" height="11.053" transform="translate(82.721 182.55)" fill="#fff"/>
          <rect id="Rectangle_407783" data-name="Rectangle 407783" width="11.053" height="11.053" transform="translate(82.721 198.381)" fill="#bbdbf3"/>
          <rect id="Rectangle_407784" data-name="Rectangle 407784" width="11.053" height="11.053" transform="translate(82.721 214.212)" fill="#fff"/>
          <rect id="Rectangle_407785" data-name="Rectangle 407785" width="11.053" height="11.053" transform="translate(99.053 182.55)" fill="#fff"/>
          <rect id="Rectangle_407786" data-name="Rectangle 407786" width="11.053" height="11.053" transform="translate(99.053 198.381)" fill="#fff"/>
          <rect id="Rectangle_407787" data-name="Rectangle 407787" width="11.053" height="11.053" transform="translate(99.053 214.212)" fill="#fff"/>
          <rect id="Rectangle_407788" data-name="Rectangle 407788" width="11.053" height="11.053" transform="translate(115.385 182.55)" fill="#fff"/>
          <rect id="Rectangle_407789" data-name="Rectangle 407789" width="11.053" height="11.053" transform="translate(115.385 198.381)" fill="#fff"/>
          <rect id="Rectangle_407790" data-name="Rectangle 407790" width="11.053" height="11.053" transform="translate(115.385 214.212)" fill="#fff"/>
          <path id="Path_920167" data-name="Path 920167" d="M697.28,969.9v14.672c1.1,0,2-.677,2-1.5V971.408c0-.827-.9-1.5-2-1.5" transform="translate(-584.302 -812.753)" fill="#586773"/>
          <path id="Path_920168" data-name="Path 920168" d="M684.948,971.408v11.664c0,.827.9,1.5,2,1.5V969.9c-1.1,0-2,.677-2,1.5" transform="translate(-573.968 -812.753)" fill="#93acbf"/>
          <path id="Path_920169" data-name="Path 920169" d="M468.82,971.408v11.664c0,.827.9,1.5,2,1.5V969.9c-1.1,0-2,.677-2,1.5" transform="translate(-392.858 -812.753)" fill="#93acbf"/>
          <path id="Path_920170" data-name="Path 920170" d="M481.15,969.9h0v14.672h0c1.1,0,2-.677,2-1.5V971.408c0-.827-.9-1.5-2-1.5" transform="translate(-403.191 -812.753)" fill="#586773"/>
          <path id="Path_920171" data-name="Path 920171" d="M525.96,1427.476H260.312a3.053,3.053,0,0,1-3.053-3.053v-.778a3.053,3.053,0,0,1,3.053-3.053H525.96a3.053,3.053,0,0,1,3.053,3.053v.778a3.053,3.053,0,0,1-3.053,3.053" transform="translate(-215.576 -1190.417)" fill="#0775ef"/>
          <path id="Path_920172" data-name="Path 920172" d="M1841.864,540.585l.042-6.368-7.471,1.1Z" transform="translate(-1537.207 -447.659)" fill="#2d628c"/>
          <path id="Path_920173" data-name="Path 920173" d="M1573.189,349.629l-.674-1.976s-1.214-1.889-1.577-2.62a9.483,9.483,0,0,0-1.04-1.6c-.136-.1-.531-.064-.566.1a10.9,10.9,0,0,0,.412,1.852l.464,1.762s-2.552-2.319-3.362-3.144c-.456-.464-1.73-1.877-2.075-1.581-.262.225.881,1.816,1.267,2.365.355.5,1.4,2.026,1.4,2.026l-2.374-2.469c-.432-.449-1.551-1.95-1.945-1.629s.819,1.716,1.171,2.227l1.984,2.888-2.542-2.526c-.352-.349-1.264-1.527-1.612-1.2s.719,1.4,1.029,1.8l2.121,2.735-1.886-1.776c-.2-.19-.82-.737-1-.534-.245.277.535,1.077.766,1.374l1.916,2.453a3.2,3.2,0,0,0,.528.533l3.245,3.259Z" transform="translate(-1308.957 -286.909)" fill="#fdae97"/>
          <path id="Path_920174" data-name="Path 920174" d="M1632.969,527.754l-25.286,16.013a7.081,7.081,0,1,0,7.5,11.771l29.149-15.279Z" transform="translate(-1343.549 -442.243)" fill="#0775ef"/>
          <path id="Path_920175" data-name="Path 920175" d="M1603.122,631.172a7.08,7.08,0,1,1,14.089-1l-.419,31.632H1605Z" transform="translate(-1343.306 -522.133)" fill="#0775ef"/>
          <path id="Path_920176" data-name="Path 920176" d="M1714.674,536.852,1698.837,555.8a7.925,7.925,0,0,1-12.161-10.166l15.837-18.944a7.925,7.925,0,1,1,12.16,10.166" transform="translate(-1411.851 -438.974)" fill="#088cfc"/>
          <path id="Path_920177" data-name="Path 920177" d="M1750.235,337.261l-7.491,3.373,1.033,30.431,21.3.33,3.227-31.3-10.4-3.387Z" transform="translate(-1460.372 -282.149)" fill="#e5f0f8"/>
          <path id="Path_920178" data-name="Path 920178" d="M1788.992,280.963v4.752s.284,1.026,2.7,1.036a11.042,11.042,0,0,0,4.962-1.594l-.747-10.391Z" transform="translate(-1499.127 -230.246)" fill="#fdae97"/>
          <path id="Path_920179" data-name="Path 920179" d="M1788.98,311.486l4.935-5.124-4.935-.065Z" transform="translate(-1499.116 -256.669)" fill="#e89780"/>
          <path id="Path_920180" data-name="Path 920180" d="M1776.509,236.372v6.69c0,1.35.379,3.353,1.9,3.816a5.227,5.227,0,0,0,5.056-1.748c1.455-1.584,4.683-8.718.195-11.353s-7.044,1.9-7.148,2.6" transform="translate(-1488.667 -195.215)" fill="#fdae97"/>
          <path id="Path_920181" data-name="Path 920181" d="M1617.055,400.611a4.232,4.232,0,0,1-5.385-.042l-13.321-15.415,1.829-1.927,3.366-3.557.387-.415,13.718,15.445a4.212,4.212,0,0,1-.594,5.911" transform="translate(-1339.373 -317.805)" fill="#7d0ede"/>
          <path id="Path_920182" data-name="Path 920182" d="M1684.6,648.674a7.084,7.084,0,0,1,7.084-7.084c3.912,0,6.059,1.631,6.913,5.533,1.982,9.058,6.137,33.182,6.137,33.182h-12.274l-7.781-30.634a7.123,7.123,0,0,1-.078-1" transform="translate(-1411.65 -537.635)" fill="#088cfc"/>
          <path id="Path_920183" data-name="Path 920183" d="M1670.578,384.348h0a4.912,4.912,0,0,0,6.677-1.844l8.837-15.577a4.9,4.9,0,1,0-8.521-4.833l-8.836,15.577a4.912,4.912,0,0,0,1.844,6.677" transform="translate(-1397.823 -301.349)" fill="#7d0ede"/>
          <path id="Path_920184" data-name="Path 920184" d="M1774.609,229.127s-5.431-2.506-6.683-.86.834,2.22.834,2.22-2.59-.306-2.49,1.44,6.582-.638,6.582-.638-2.149.974-.907,1.746a2.621,2.621,0,0,0,2.663-.235s1.233.7,1.031,3.941,1.73,3.951,1.73,3.951-.231-4.9.715-6.213-.443-6.172-3.476-5.353" transform="translate(-1480.084 -190.812)" fill="#322a28"/>
          <path id="Path_920185" data-name="Path 920185" d="M1819.894,282.377c-.527.825-.668,1.406-.02,1.82a1.679,1.679,0,0,0,2.252-.542,1.618,1.618,0,0,0-.219-2.244c-.648-.414-1.486.141-2.013.966" transform="translate(-1524.642 -235.697)" fill="#fdae97"/>
          <path id="Path_920186" data-name="Path 920186" d="M1826.875,287.689a1.17,1.17,0,0,0-1.121.754,2.519,2.519,0,0,1,.932,0" transform="translate(-1529.932 -241.072)" fill="none" stroke="#e89780" stroke-miterlimit="10" stroke-width="0.737"/>
          <path id="Path_920187" data-name="Path 920187" d="M1797.622,274.479c0,.313-.164.567-.367.567s-.367-.254-.367-.567.164-.567.367-.567.367.254.367.567" transform="translate(-1505.743 -229.53)" fill="#2c3447"/>
          <path id="Path_920188" data-name="Path 920188" d="M1790.018,299.36a1.76,1.76,0,0,1-1.923.812" transform="translate(-1498.375 -250.855)" fill="none" stroke="#2c3447" stroke-miterlimit="10" stroke-width="0.922"/>
          <path id="Path_920189" data-name="Path 920189" d="M1788.1,278.748l-.691,2a.467.467,0,0,0,.187.544l.563.367" transform="translate(-1497.774 -233.583)" fill="none" stroke="#2c3447" stroke-miterlimit="10" stroke-width="0.922"/>
          <path id="Path_920190" data-name="Path 920190" d="M1797.178,269.991a1.673,1.673,0,0,0-1.509-.2" transform="translate(-1504.722 -225.984)" fill="none" stroke="#2c3447" stroke-miterlimit="10" stroke-width="0.922"/>
          <path id="Path_920191" data-name="Path 920191" d="M1778.039,274.479c0,.313.164.567.367.567s.367-.254.367-.567-.164-.567-.367-.567-.367.254-.367.567" transform="translate(-1489.948 -229.53)" fill="#2c3447"/>
          <path id="Path_920192" data-name="Path 920192" d="M1775.938,269.935a1.166,1.166,0,0,1,1.271-.167" transform="translate(-1488.188 -225.959)" fill="none" stroke="#2c3447" stroke-miterlimit="10" stroke-width="0.922"/>
          <path id="Path_920193" data-name="Path 920193" d="M1874.033,383.776h0a4.912,4.912,0,0,0,3.512-5.971l-4.5-17.335a4.9,4.9,0,0,0-9.483,2.459l4.5,17.335a4.912,4.912,0,0,0,5.97,3.512" transform="translate(-1561.488 -298.99)" fill="#7d0ede"/>
          <path id="Path_920194" data-name="Path 920194" d="M1797.742,285.141c.1.288.638.366,1.21.174s.957-.58.861-.868-.638-.365-1.21-.174-.958.58-.861.868" transform="translate(-1506.446 -238.125)" fill="#e89780"/>
          <path id="Path_920195" data-name="Path 920195" d="M1776.509,284.758v1.111c.468.055.852-.075.917-.319.069-.289-.339-.643-.917-.792" transform="translate(-1488.667 -238.619)" fill="#e89780"/>
          <path id="Path_920196" data-name="Path 920196" d="M1630.134,866.779l.244-4.743h-9.573l-.152,4.743Z" transform="translate(-1358.063 -722.362)" fill="#fdae97"/>
          <path id="Path_920197" data-name="Path 920197" d="M1621.045,864.793l9.661-2.758h-9.573Z" transform="translate(-1358.392 -722.362)" fill="#e89780"/>
          <path id="Path_920198" data-name="Path 920198" d="M1756.858,885.278l-.783-4.743h-9.344l1.189,4.743Z" transform="translate(-1463.714 -737.863)" fill="#fdae97"/>
          <path id="Path_920199" data-name="Path 920199" d="M1796.653,353.951h1.734l.152.329-.8.595h-.682l-.569-.7Z" transform="translate(-1505.408 -296.601)" fill="#f74242"/>
          <path id="Path_920200" data-name="Path 920200" d="M1747.3,882.813l8.772-2.279h-9.344Z" transform="translate(-1463.715 -737.863)" fill="#e89780"/>
          <path id="Path_920201" data-name="Path 920201" d="M1807.912,336.368l-5.449,2,.994,2.275,4.7-3.779Z" transform="translate(-1510.415 -281.867)" fill="#fff"/>
          <path id="Path_920202" data-name="Path 920202" d="M1787.64,339.774l-.261.533,1.413,2.979,1.031-2.06Z" transform="translate(-1497.774 -284.721)" fill="#fff"/>
          <path id="Path_920203" data-name="Path 920203" d="M1786.65,359.653l-2.582,20.039,2.012,2.594,2.616-2.353-1.365-20.28Z" transform="translate(-1495.001 -301.379)" fill="#7d0ede"/>
          <line id="Line_3325" data-name="Line 3325" x2="2.867" y2="11.844" transform="translate(303.079 68.153)" fill="none" stroke="#2c3447" stroke-miterlimit="10" stroke-width="0.922"/>
          <line id="Line_3326" data-name="Line 3326" x1="0.244" y1="7.191" transform="translate(282.688 68.153)" fill="none" stroke="#2c3447" stroke-miterlimit="10" stroke-width="0.922"/>
          <path id="Path_920204" data-name="Path 920204" d="M1748.349,909.808l.84,3.457h-12.539a2.826,2.826,0,0,1,2.754-3.457h8.946Z" transform="translate(-1455.204 -762.394)" fill="#403534"/>
          <path id="Path_920205" data-name="Path 920205" d="M1611.239,891.309v3.765h-13.134l.016-.31a3.642,3.642,0,0,1,3.637-3.454Z" transform="translate(-1339.169 -746.892)" fill="#403534"/>
          <path id="Path_920206" data-name="Path 920206" d="M1613.454,890.914s-.286-1.251-.991-.911.947.956.947.956l-.983.679" transform="translate(-1351.053 -745.749)" fill="none" stroke="#fff" stroke-linecap="round" stroke-linejoin="round" stroke-width="0.491"/>
          <path id="Path_920207" data-name="Path 920207" d="M1619.49,890.914s.286-1.251.992-.911-.947.956-.947.956l.983.679" transform="translate(-1357.089 -745.749)" fill="none" stroke="#fff" stroke-linecap="round" stroke-linejoin="round" stroke-width="0.491"/>
          <path id="Path_920208" data-name="Path 920208" d="M1748.587,910.286s-.286-1.251-.992-.911.947.956.947.956l-.982.679" transform="translate(-1464.291 -761.982)" fill="none" stroke="#fff" stroke-linecap="round" stroke-linejoin="round" stroke-width="0.491"/>
          <path id="Path_920209" data-name="Path 920209" d="M1754.623,910.286s.286-1.251.992-.911-.947.956-.947.956l.983.679" transform="translate(-1470.326 -761.982)" fill="none" stroke="#fff" stroke-linecap="round" stroke-linejoin="round" stroke-width="0.491"/>
          <path id="Path_920210" data-name="Path 920210" d="M1717.517,342.385s-.513,5.359-1.342,13.452-.775,20.724-3.389,23.148a44.439,44.439,0,0,0-8.145,1.808,39.317,39.317,0,0,1,3.392-8.026c1.867-2.9,2.782-27.372,2.782-27.372Z" transform="translate(-1428.443 -286.909)" fill="#7d0ede"/>
          <path id="Path_920211" data-name="Path 920211" d="M1778.106,370.327l-.633,6.31,2.012-1.715-.146-4.472Z" transform="translate(-1489.474 -310.324)" fill="#e5f0f8"/>
          <path id="Path_920212" data-name="Path 920212" d="M1815.729,340.431s-2.013,8.679-3,16.727-.651,15.83-3.187,20.556c0,0,10.171,1.83,10.148,5.932a12.377,12.377,0,0,0,2.892-7.493c.025-4.331,1.692-32.938,1.692-32.938Z" transform="translate(-1516.349 -285.272)" fill="#7d0ede"/>
          <path id="Path_920213" data-name="Path 920213" d="M1610.446,532.983h23.049l-6.015-17.26H1604.43Z" transform="translate(-1344.469 -432.161)" fill="#a5bbd6"/>
          <path id="Path_920214" data-name="Path 920214" d="M1663.055,582.6l7.537-6.667H1648.3l-8.292,6.667Z" transform="translate(-1374.28 -482.615)" fill="#89a5c7"/>
          <path id="Path_920215" data-name="Path 920215" d="M1613.133,530.626h23.049l-6.015-17.26h-23.049Z" transform="translate(-1346.72 -430.186)" fill="#a5bbd6"/>
          <path id="Path_920216" data-name="Path 920216" d="M1604.865,513.366l-.435.382h23.049l6.015,17.26.435-.382-6.015-17.26Z" transform="translate(-1344.469 -430.186)" fill="#89a5c7"/>
          <path id="Path_920217" data-name="Path 920217" d="M1789.588,575.932l.251.838-7.537,6.667-.292-.838Z" transform="translate(-1493.276 -482.615)" fill="#586773"/>
          <path id="Path_920218" data-name="Path 920218" d="M1672.35,564.348c0,.625,1.144,1.131,2.555,1.131s2.556-.506,2.556-1.131-1.144-1.131-2.556-1.131-2.555.506-2.555,1.131" transform="translate(-1401.384 -471.96)" fill="#89a5c7"/>
          <path id="Path_920219" data-name="Path 920219" d="M1755.365,543.52l3.412,5.863-.019.012c-1.565.824-4.849,3.975-6.035,5.139a.892.892,0,0,1-1,.165l-3.223-1.5a1.935,1.935,0,0,1-1.046-1.2l-.706-2.285a.314.314,0,0,1,.375-.393l1.832.513a.562.562,0,0,0,.653-.3l1.042-2.162-2.969,1.752a.39.39,0,0,1-.509-.107l-.163-.234a.388.388,0,0,1,.062-.525l4.7-3.809,3.445-.818s.053-.042.158-.116" transform="translate(-1463.714 -455.455)" fill="#fdae97"/>
          <path id="Path_920220" data-name="Path 920220" d="M1818.1,469.487a4.506,4.506,0,0,1-.88,6.271l-19.1,10.949-4.736-8.142,17.7-10.954c1.925-1.27,5.572-.307,7.011,1.876" transform="translate(-1502.806 -391.369)" fill="#7d0ede"/>
          <path id="Path_920221" data-name="Path 920221" d="M1822.388,444.194l10.41-6.441-2.259-8.257" transform="translate(-1527.112 -359.906)" fill="none" stroke="#322a28" stroke-miterlimit="10" stroke-width="1.269"/>
          <path id="Path_920222" data-name="Path 920222" d="M323.746,600.621a5.709,5.709,0,0,1-4.933-8.583l18.837-32.325a5.709,5.709,0,0,1,9.865,0l18.837,32.324a5.709,5.709,0,0,1-4.932,8.583Z" transform="translate(-266.509 -466.649)" fill="#7d0ede"/>
          <path id="Path_920223" data-name="Path 920223" d="M363.527,584.064,344.69,616.388a1.418,1.418,0,0,0,1.225,2.132H383.59a1.418,1.418,0,0,0,1.225-2.132l-18.837-32.324a1.418,1.418,0,0,0-2.45,0" transform="translate(-288.678 -488.839)" fill="#fff"/>
          <path id="Path_920224" data-name="Path 920224" d="M458.51,672.112a1.8,1.8,0,1,1,.528,1.257,1.713,1.713,0,0,1-.528-1.257m3.026-3.892h-2.593V654.6h2.593Z" transform="translate(-384.219 -548.537)" fill="#7d0ede"/>
          <path id="Path_920225" data-name="Path 920225" d="M863.469,1326.8l-1.318-11.622h8.334a36.307,36.307,0,0,1,.263,4.679,50.707,50.707,0,0,1-.535,7.167Z" transform="translate(-722.46 -1102.081)" fill="#fdae97"/>
          <path id="Path_920226" data-name="Path 920226" d="M838.828,1386.908l-6.082,5.483h8.869l1.342-1.637.1,1.637H845.5l.076-5.483Z" transform="translate(-697.819 -1162.191)" fill="#332b27"/>
          <line id="Line_3327" data-name="Line 3327" x2="2.369" transform="translate(139.825 226.473)" fill="none" stroke="#fff1f0" stroke-miterlimit="10" stroke-width="0.797"/>
          <path id="Path_920227" data-name="Path 920227" d="M790.727,674.218A5.431,5.431,0,0,0,789,679.385c.55,3.456.857,5.326-1.33,5.537s-6.591-1.031-6.9,1.9,1.783,4.857-1.294,5.442-3.44,4.563-3.44,4.563,11.116,6.775,21.494.253-.845-10.752-.845-10.752Z" transform="translate(-650.295 -564.976)" fill="#322a28"/>
          <line id="Line_3328" data-name="Line 3328" x2="2.369" transform="translate(138.641 227.449)" fill="none" stroke="#fff1f0" stroke-miterlimit="10" stroke-width="0.797"/>
          <path id="Path_920228" data-name="Path 920228" d="M832.246,932.742c-3.281,3.422-5.233,11.062-4.353,19.629s.877,14.133.877,14.133a7.105,7.105,0,1,0,14.21-.141l1.6-33.185Z" transform="translate(-693.575 -781.612)" fill="#9d0388"/>
          <path id="Path_920229" data-name="Path 920229" d="M966.97,1326.8l-.128-11.622h-8.334a27.8,27.8,0,0,0,.5,6.177c.634,2.778,1.22,5.669,1.22,5.669Z" transform="translate(-803.193 -1102.081)" fill="#fdae97"/>
          <path id="Path_920230" data-name="Path 920230" d="M950.931,911.386l-2.766.654,1.383,2.269Z" transform="translate(-794.537 -763.716)" fill="#e89780"/>
          <path id="Path_920231" data-name="Path 920231" d="M848.562,1105.412a7.105,7.105,0,1,0-14.034.895h0l1.537,31.343h14.129Z" transform="translate(-699.183 -919.878)" fill="#9d0388"/>
          <path id="Path_920232" data-name="Path 920232" d="M851.143,745.7l7.162,2.109-.722,28.632H839.15s-1.242-24.593-1.816-28.571l7.353-2.149Z" transform="translate(-701.663 -624.879)" fill="#fff"/>
          <path id="Path_920233" data-name="Path 920233" d="M905.577,935.427c3.651,3.024,6.144,9.476,6.249,18.087s.745,14.141.745,14.141a7.106,7.106,0,0,1-14.133,1.485l-3.83-33.713Z" transform="translate(-749.657 -783.862)" fill="#9d0388"/>
          <path id="Path_920234" data-name="Path 920234" d="M975.919,1386.908l6.082,5.483h-8.869l-1.342-1.637-.1,1.637h-2.438l-.072-5.26Z" transform="translate(-812.142 -1162.191)" fill="#332b27"/>
          <path id="Path_920235" data-name="Path 920235" d="M932.032,1101.691a7.106,7.106,0,1,0-13.795,2.733h0l4.5,30.893,13.743-.146Z" transform="translate(-769.117 -917.545)" fill="#9d0388"/>
          <line id="Line_3329" data-name="Line 3329" x1="2.369" transform="translate(162.592 226.473)" fill="none" stroke="#fff1f0" stroke-miterlimit="10" stroke-width="0.797"/>
          <path id="Path_920236" data-name="Path 920236" d="M795.015,782.629l.048.013a4,4,0,0,0,4.9-2.788l4.733-17.227a4,4,0,0,0-2.788-4.9l-.048-.013a4,4,0,0,0-4.9,2.788l-4.733,17.227a4,4,0,0,0,2.788,4.9" transform="translate(-663.745 -634.825)" fill="#fff"/>
          <line id="Line_3330" data-name="Line 3330" x1="2.369" transform="translate(163.776 227.449)" fill="none" stroke="#fff1f0" stroke-miterlimit="10" stroke-width="0.797"/>
          <path id="Path_920237" data-name="Path 920237" d="M1082.105,809.565c.462.18.378.9.378.9s.474-.525.74-.171c.252.328-.183,1.222-.24,1.338.052-.062.241-.243.415.162.2.444-.972,1.562-1.083,1.666a.317.317,0,0,1,.424.249c.106.38-1.771,1.782-3.393,2.33-1.37.459-4.646,1.174-5.626,1.386l-1.653-4.3a11.513,11.513,0,0,0,1.576-.943c1.11-.807,4.371-2.643,4.634-2.168s-1.718,2.184-1.446,2.289a9.3,9.3,0,0,0,2.728-1.255c.718-.452,2.091-1.664,2.547-1.484" transform="translate(-898.362 -678.378)" fill="#fdae97"/>
          <path id="Path_920238" data-name="Path 920238" d="M833.141,748.358a120.7,120.7,0,0,1,2.734,19.762c.736,11.781-.921,67.249-.921,67.249h-9.327s-.518-37.516-.372-44.2,4.088-24.885,4.088-24.885,1.245-9.361-2.153-16.192Z" transform="translate(-691.52 -627.103)" fill="#bbdbf3"/>
          <path id="Path_920239" data-name="Path 920239" d="M882.7,690.605v8.951a2.514,2.514,0,0,0,2.524,2.138,4.622,4.622,0,0,0,4.11-2.3l-.165-1.545-.51-4.772-.262-2.469Z" transform="translate(-739.676 -578.708)" fill="#fdae97"/>
          <path id="Path_920240" data-name="Path 920240" d="M946.51,783.156l-.048.014a4,4,0,0,1-4.934-2.727l-4.946-17.167a4,4,0,0,1,2.727-4.934l.048-.014a4,4,0,0,1,4.934,2.727l4.946,17.167a4,4,0,0,1-2.727,4.934" transform="translate(-784.7 -635.327)" fill="#fff"/>
          <path id="Path_920241" data-name="Path 920241" d="M852.373,846.534s1.472,2.168,4.917,1.207" transform="translate(-714.265 -709.372)" fill="none" stroke="#586773" stroke-miterlimit="10" stroke-width="0.919"/>
          <path id="Path_920242" data-name="Path 920242" d="M989.027,827.1l-15.1,7.785a4.2,4.2,0,0,1-3.6-7.509l15.815-7.251Z" transform="translate(-811.458 -687.241)" fill="#fff"/>
          <path id="Path_920243" data-name="Path 920243" d="M894.017,707.482l4.634,3.131-.51-4.772Z" transform="translate(-749.162 -591.475)" fill="#e89780"/>
          <path id="Path_920244" data-name="Path 920244" d="M905.665,742.3l-3.4,2.616.911,2.7,3.337-4.692Z" transform="translate(-756.078 -622.03)" fill="#e5f0f8"/>
          <path id="Path_920245" data-name="Path 920245" d="M880.1,742.3l3.166,2.616-1.065,2.7-2.61-4.6Z" transform="translate(-737.074 -622.03)" fill="#e5f0f8"/>
          <path id="Path_920246" data-name="Path 920246" d="M917.634,747.948l6.083,1.805s-3.607,9.44-1.19,17.884c0,0,3.259,9.832,5.809,20.412,1.4,5.818,2.172,12,3.047,16.575,2.593,13.553,3.268,30.4,3.268,30.4h-7.778s-11.3-54.983-11.637-63.711,2.4-23.366,2.4-23.366" transform="translate(-766.92 -626.76)" fill="#bbdbf3"/>
          <path id="Path_920247" data-name="Path 920247" d="M1048.608,533.1a30.184,30.184,0,1,0-42.685-.289,30.213,30.213,0,0,0,42.685.289M1008,530.753a27.262,27.262,0,1,1,38.558.269,27.262,27.262,0,0,1-38.558-.269" transform="translate(-835.664 -403.437)" fill="#93acbf"/>
          <path id="Path_920248" data-name="Path 920248" d="M1061.562,546.034a27.266,27.266,0,1,0-38.558-.269,27.266,27.266,0,0,0,38.558.269m-37.5-1.309a25.778,25.778,0,1,1,36.459.251,25.78,25.78,0,0,1-36.459-.251" transform="translate(-850.668 -418.449)" fill="#586773"/>
          <g id="Group_1114736" data-name="Group 1114736" transform="translate(165.968 82.395)" opacity="0.3">
            <g id="Group_1114735" data-name="Group 1114735">
              <g id="Group_1114734" data-name="Group 1114734" clip-path="url(#clip-path-3)">
                <path id="Path_920249" data-name="Path 920249" d="M1068.2,552.657a25.767,25.767,0,0,1-36.458-.252q-.345-.352-.677-.712a25.751,25.751,0,0,1-6.6-14.613,25.768,25.768,0,0,1,42.649-22.142c.456.4.9.82,1.331,1.258a25.8,25.8,0,0,1,3.553,4.5,25.526,25.526,0,0,1,3.027,7.036,25.167,25.167,0,0,1,.685,3.672,25.782,25.782,0,0,1-7.51,21.248" transform="translate(-1024.319 -508.523)" fill="#e5f0f8"/>
              </g>
            </g>
          </g>
          <path id="Path_920250" data-name="Path 920250" d="M989.82,800.952l-1.182-1.135,11.579-11.417,1.112,1.2Z" transform="translate(-828.451 -660.657)" fill="#93acbf"/>
          <path id="Path_920251" data-name="Path 920251" d="M832.016,880.107c-.006,0-.007-.009-.013-.013a1.945,1.945,0,0,1,.019-2.755l24.008-23.683.88.844.54.515.642.62.749.719-24.084,23.759a1.945,1.945,0,0,1-2.742-.007" transform="translate(-696.725 -715.341)" fill="#586773"/>
          <path id="Path_920252" data-name="Path 920252" d="M834.99,887.135a.117.117,0,0,1,.021-.02l25.414-25.072.642.62.749.719-24.084,23.759a1.944,1.944,0,0,1-2.742-.007" transform="translate(-699.699 -722.368)" fill="#93acbf"/>
          <g id="Group_1114739" data-name="Group 1114739" transform="translate(166.117 82.395)" opacity="0.3">
            <g id="Group_1114738" data-name="Group 1114738">
              <g id="Group_1114737" data-name="Group 1114737" clip-path="url(#clip-path-4)">
                <path id="Path_920253" data-name="Path 920253" d="M1059.327,509.941l-30.119,38.333a25.6,25.6,0,0,1-3.963-11.193l22.265-28.337a25.887,25.887,0,0,1,11.817,1.2" transform="translate(-1025.244 -508.523)" fill="#fff"/>
              </g>
            </g>
          </g>
          <g id="Group_1114742" data-name="Group 1114742" transform="translate(172.718 85.563)" opacity="0.3">
            <g id="Group_1114741" data-name="Group 1114741">
              <g id="Group_1114740" data-name="Group 1114740" clip-path="url(#clip-path-5)">
                <path id="Path_920254" data-name="Path 920254" d="M1102.03,531.324l-31.809,40.48a25.807,25.807,0,0,1-3.563-3.014q-.344-.352-.676-.712l31.427-40a25.78,25.78,0,0,1,4.622,3.247" transform="translate(-1065.981 -528.077)" fill="#fff"/>
              </g>
            </g>
          </g>
          <g id="Group_1114745" data-name="Group 1114745" transform="translate(183.711 94.572)" opacity="0.3">
            <g id="Group_1114744" data-name="Group 1114744">
              <g id="Group_1114743" data-name="Group 1114743" clip-path="url(#clip-path-6)">
                <path id="Path_920255" data-name="Path 920255" d="M1166.8,590.714l-25.406,32.338a25.773,25.773,0,0,1-7.56-1.272l29.939-38.1a25.531,25.531,0,0,1,3.027,7.036" transform="translate(-1133.833 -583.678)" fill="#fff"/>
              </g>
            </g>
          </g>
          <g id="Group_1114748" data-name="Group 1114748" transform="translate(194.995 105.28)" opacity="0.3">
            <g id="Group_1114747" data-name="Group 1114747">
              <g id="Group_1114746" data-name="Group 1114746" clip-path="url(#clip-path-7)">
                <path id="Path_920256" data-name="Path 920256" d="M1225.8,655.944l-16.337,20.792a25.751,25.751,0,0,1-5.984,1.5l22.368-28.468a25.666,25.666,0,0,1-.047,6.177" transform="translate(-1203.473 -649.767)" fill="#fff"/>
              </g>
            </g>
          </g>
          <path id="Path_920257" data-name="Path 920257" d="M915.309,902.09c.275.365-.14.889-.14.889s.625-.183.663.224c.039.379-.734.869-.835.932.071-.024.306-.073.247.327-.062.442-1.517.754-1.655.782a.292.292,0,0,1,.212.4c-.1.349-2.25.54-3.786.185-1.3-.3-4.208-1.327-5.079-1.635l.785-4.17a10.6,10.6,0,0,0,1.691.023c1.26-.1,4.7.044,4.68.543s-2.4.88-2.24,1.094a8.566,8.566,0,0,0,2.745.337c.782-.007,2.443-.293,2.713.069" transform="translate(-758.312 -754.191)" fill="#fdae97"/>
          <path id="Path_920258" data-name="Path 920258" d="M813.565,866.522l-16.227-5.034a4.2,4.2,0,0,0-2.236,8.021l16.836,4.385Z" transform="translate(-664.101 -721.804)" fill="#fff"/>
          <path id="Path_920259" data-name="Path 920259" d="M923.43,840.17s-1.383,3.09-5.676,2.238" transform="translate(-769.053 -704.039)" fill="none" stroke="#586773" stroke-miterlimit="10" stroke-width="0.919"/>
          <path id="Path_920260" data-name="Path 920260" d="M934.694,752.192s-2.208,6.1-1.866,11.223l-4.335-7.321,1.9-5.164Z" transform="translate(-778.052 -629.259)" fill="#bbdbf3"/>
          <path id="Path_920261" data-name="Path 920261" d="M839.656,763.348a27.32,27.32,0,0,0-2.322-10.017l3.81-1.114,2.222,7.222Z" transform="translate(-701.663 -630.337)" fill="#bbdbf3"/>
          <path id="Path_920262" data-name="Path 920262" d="M920.589,879.695a.767.767,0,1,0,.768-.767.767.767,0,0,0-.768.767" transform="translate(-771.429 -736.517)" fill="#fff"/>
          <path id="Path_920263" data-name="Path 920263" d="M919.838,656.842s1.155-2.549-1.345-3.433Z" transform="translate(-769.672 -547.538)" fill="#322a28"/>
          <path id="Path_920264" data-name="Path 920264" d="M873.346,658.649a5.27,5.27,0,0,0,5.386.418c1.364-.835,1.226-2.89.882-4.2l0-.01c-.072-.272-.174-.654-.288-1.087-.441-1.7-1.094-4.213-1.094-4.213-.276-1.326-3.922-4.429-7.635-.716s.929,8.64,2.751,9.813" transform="translate(-728.361 -542.23)" fill="#fdae97"/>
          <path id="Path_920265" data-name="Path 920265" d="M875.764,648.31s-.111,1.572-2.357,2.536-4.4,2.49-4.23,4.825a6.1,6.1,0,0,1-.676,3.614,15.216,15.216,0,0,0-1.578-5.42,5.033,5.033,0,0,1,.063-4.694c1.593-2.672,5.508-4.6,8.778-.862" transform="translate(-725.995 -541.524)" fill="#322a28"/>
          <path id="Path_920266" data-name="Path 920266" d="M874.638,696.47c.447.719.562,1.223,0,1.574a1.452,1.452,0,0,1-1.941-.494,1.4,1.4,0,0,1,.214-1.937c.565-.351,1.284.138,1.73.857" transform="translate(-731.058 -582.807)" fill="#fdae97"/>
          <path id="Path_920267" data-name="Path 920267" d="M876.317,701.51a1.034,1.034,0,0,1,.865.011c-.287-.812-1.26-.526-1.26-.526" transform="translate(-733.999 -587.373)" fill="none" stroke="#e89780" stroke-linecap="round" stroke-linejoin="round" stroke-width="0.649"/>
          <path id="Path_920268" data-name="Path 920268" d="M906.778,685.624c.075.318.3.537.509.489s.312-.346.237-.665-.3-.537-.509-.488-.312.346-.237.664" transform="translate(-759.835 -573.972)" fill="#332b27"/>
          <path id="Path_920269" data-name="Path 920269" d="M923.205,680.138c.075.318.3.537.509.489s.312-.346.237-.665-.3-.537-.509-.488-.312.346-.237.664" transform="translate(-773.601 -569.375)" fill="#332b27"/>
          <path id="Path_920270" data-name="Path 920270" d="M901.5,681.849s.452-.944,1.265-.833" transform="translate(-755.428 -570.665)" fill="none" stroke="#332b27" stroke-miterlimit="10" stroke-width="0.963"/>
          <path id="Path_920271" data-name="Path 920271" d="M922.157,676.846a1.182,1.182,0,0,1,1.057.19" transform="translate(-772.742 -567.136)" fill="none" stroke="#332b27" stroke-miterlimit="10" stroke-width="0.963"/>
          <path id="Path_920272" data-name="Path 920272" d="M917.461,685.292s.409,1.569,1.38,1.544a2.014,2.014,0,0,1-.574.535" transform="translate(-768.807 -574.256)" fill="none" stroke="#332b27" stroke-miterlimit="10" stroke-width="0.963"/>
          <path id="Path_920273" data-name="Path 920273" d="M915.313,704.534a1.5,1.5,0,0,1-1.934-.283" transform="translate(-765.387 -590.143)" fill="none" stroke="#332b27" stroke-miterlimit="10" stroke-width="0.963"/>
          <path id="Path_920274" data-name="Path 920274" d="M898.291,694.868c-.023.34.5.652,1.166.7s1.226-.195,1.249-.535-.5-.652-1.166-.7-1.226.195-1.249.535" transform="translate(-752.743 -581.827)" fill="#e89780"/>
          <path id="Path_920275" data-name="Path 920275" d="M928.945,689.268c.1.185.37.247.7.189-.072-.272-.174-.654-.288-1.087-.363.306-.543.667-.411.9" transform="translate(-778.395 -576.835)" fill="#e89780"/>
          <path id="Path_920276" data-name="Path 920276" d="M850.477,640.1c1.1.8,1.017,2.79-.185,4.435s-3.07,2.327-4.17,1.523-1.017-2.79.185-4.436,3.069-2.327,4.17-1.523" transform="translate(-708.378 -536.107)" fill="#322a28"/>
          <path id="Path_920277" data-name="Path 920277" d="M882.159,709.078a.544.544,0,1,1-.651-.411A.544.544,0,0,1,882.159,709.078Z" transform="translate(-738.324 -593.832)" fill="none" stroke="#fff" stroke-miterlimit="10" stroke-width="0.853"/>
          <path id="Path_920278" data-name="Path 920278" d="M1466.376,176.688a7.064,7.064,0,0,0-6.21-3.009c-.078,0-.157.01-.234.016a7.072,7.072,0,0,0-4.483,11.918v0a7.21,7.21,0,0,0,1.074.923,4.024,4.024,0,0,1,1.668,2.829l-.327,0a.346.346,0,0,0-.241.1c-.011.012-.021.025-.032.038a.326.326,0,1,1,.042.65l-.018.02a.344.344,0,0,0,.269.564.34.34,0,0,0-.241.105c-.01.01-.019.021-.029.033a.352.352,0,0,0-.068.211.344.344,0,0,0,.348.338.34.34,0,0,0-.241.106.083.083,0,0,0-.011.013.339.339,0,0,0-.086.231.343.343,0,0,0,.348.338l.354-.005a2.4,2.4,0,0,0,.025.251,2.3,2.3,0,0,0,.289.793c.026.045.054.09.084.133.015.022.031.042.046.063s.042.056.064.083l.049.059c.027.031.054.06.082.09l.039.041q.061.061.126.116l.046.038c.032.026.065.052.1.076l.052.037c.04.027.08.053.122.078l.031.019c.051.03.1.057.158.083l.05.023q.06.027.123.051l.055.021c.052.018.1.035.158.05l.018.005c.059.016.12.029.182.04l.054.008q.069.011.14.017l.057.005c.064,0,.128.007.193.006l.387-.006a2.319,2.319,0,0,0,2.26-2c.005-.043.009-.087.012-.131s0-.079.005-.118v0l.322,0a.346.346,0,0,0,.241-.1.341.341,0,0,0,.1-.244.349.349,0,0,0-.35-.339.344.344,0,0,0-.01-.688.343.343,0,0,0,.252-.572.346.346,0,0,0-.262-.116.348.348,0,0,0,.339-.35.335.335,0,0,0-.073-.2.343.343,0,0,0-.277-.133l-.325,0a4.038,4.038,0,0,1,1.584-2.88,7.072,7.072,0,0,0,1.572-9.724" transform="translate(-1217.995 -145.528)" fill="#fff"/>
        </g>
      </g>
      <rect id="Rectangle_407797" data-name="Rectangle 407797" width="344" height="237.059" transform="translate(-37.622 -33.767)" fill="none"/>
    </g>
  </g>
</svg>
