<svg xmlns="http://www.w3.org/2000/svg" xmlns:xlink="http://www.w3.org/1999/xlink" width="99" height="99" viewBox="0 0 99 99">
  <defs>
    <clipPath id="clip-path">
      <rect id="Rectangle_401223" data-name="Rectangle 401223" width="99" height="99" transform="translate(0)" fill="#ffa8fb"/>
    </clipPath>
    <clipPath id="clip-path-2">
      <rect id="Rectangle_401223-2" data-name="Rectangle 401223" width="88.539" height="88.539" fill="#f3f9ff"/>
    </clipPath>
    <clipPath id="clip-path-3">
      <rect id="Rectangle_407825" data-name="Rectangle 407825" width="65.579" height="65.47" fill="none"/>
    </clipPath>
  </defs>
  <g id="Group_1114298" data-name="Group 1114298" transform="translate(-619.921 -5755.871)">
    <g id="Group_1100724" data-name="Group 1100724" transform="translate(619.921 5755.871)">
      <g id="Group_1099654" data-name="Group 1099654" transform="translate(0 0)">
        <g id="Group_1099652" data-name="Group 1099652" clip-path="url(#clip-path)">
          <path id="Path_873521" data-name="Path 873521" d="M99,77.066A22,22,0,0,1,77.066,99H21.934A22,22,0,0,1,0,77.066V21.933A22,22,0,0,1,21.934,0H77.066A22,22,0,0,1,99,21.934Z" transform="translate(0)" fill="#170551"/>
        </g>
      </g>
      <g id="Group_1099659" data-name="Group 1099659" transform="translate(4.77 5.723)">
        <g id="Group_1099652-2" data-name="Group 1099652" transform="translate(0 0)" clip-path="url(#clip-path-2)">
          <path id="Path_873521-2" data-name="Path 873521" d="M88.539,68.922A19.674,19.674,0,0,1,68.923,88.539H19.616A19.674,19.674,0,0,1,0,68.922V19.616A19.674,19.674,0,0,1,19.616,0H68.923A19.674,19.674,0,0,1,88.539,19.616Z" fill="#f3f9ff"/>
        </g>
      </g>
    </g>
    <g id="Group_1100725" data-name="Group 1100725" transform="translate(636.343 5771.293)">
      <rect id="Rectangle_401104" data-name="Rectangle 401104" width="68" height="69" transform="translate(-0.421 0.438)" fill="none"/>
      <g id="Group_1114820" data-name="Group 1114820" transform="translate(1.579 1.437)">
        <g id="Group_1114819" data-name="Group 1114819" transform="translate(0 0)" clip-path="url(#clip-path-3)">
          <path id="Path_920535" data-name="Path 920535" d="M55.277,2.529a3.383,3.383,0,1,1-3.383,3.383,3.331,3.331,0,0,1,3.383-3.383" transform="translate(4.081 0.199)" fill="#6bfcf2"/>
          <path id="Path_920536" data-name="Path 920536" d="M6.572,50.58A2.7,2.7,0,0,1,9.3,53.308a2.772,2.772,0,0,1-2.728,2.728,2.772,2.772,0,0,1-2.728-2.728A2.7,2.7,0,0,1,6.572,50.58" transform="translate(0.302 3.978)" fill="#6bfcf2"/>
          <path id="Path_920537" data-name="Path 920537" d="M31.74,12.646a19.095,19.095,0,1,0,19.1,19.1,19.046,19.046,0,0,0-19.1-19.1m0,30.006A10.911,10.911,0,1,1,42.652,31.741,10.943,10.943,0,0,1,31.74,42.652" transform="translate(0.995 0.994)" fill="#ff85e7"/>
          <path id="Path_920538" data-name="Path 920538" d="M32.305,5.463A26.842,26.842,0,1,0,59.147,32.306,26.823,26.823,0,0,0,32.305,5.463m0,45.611A18.768,18.768,0,1,1,51.073,32.306,18.767,18.767,0,0,1,32.305,51.074" transform="translate(0.43 0.429)" fill="#9d0388"/>
          <path id="Path_920539" data-name="Path 920539" d="M56.723,48.5a1.384,1.384,0,0,1,.436.982,1.181,1.181,0,0,1-.436.982,1.525,1.525,0,0,1-.982.328,1.445,1.445,0,0,1-1.42-1.418,1.189,1.189,0,0,1,.437-.983,1.386,1.386,0,0,1,.983-.436,1.144,1.144,0,0,1,.982.546" transform="translate(4.272 3.771)" fill="#6bfcf2"/>
          <path id="Path_920540" data-name="Path 920540" d="M49.136,54.76a1.384,1.384,0,0,1,.436.982,1.184,1.184,0,0,1-.436.983,1.384,1.384,0,0,1-.982.437,1.446,1.446,0,0,1-1.419-1.419,1.185,1.185,0,0,1,.437-.982,1.325,1.325,0,0,1,1.964,0" transform="translate(3.676 4.272)" fill="#6bfcf2"/>
          <path id="Path_920542" data-name="Path 920542" d="M6.143,6.709a1.38,1.38,0,0,1,.437.983,1.183,1.183,0,0,1-.437.982,1.627,1.627,0,0,1-.982.437,1.445,1.445,0,0,1-1.42-1.418,1.187,1.187,0,0,1,.437-.983,1.384,1.384,0,0,1,.983-.436,1.384,1.384,0,0,1,.982.436" transform="translate(0.294 0.493)" fill="#6bfcf2"/>
          <path id="Path_920543" data-name="Path 920543" d="M30.451,25.97a1.444,1.444,0,0,1-1.418-1.417V1.418a1.418,1.418,0,1,1,2.837,0V24.66a1.429,1.429,0,0,1-1.418,1.309" transform="translate(2.283 0)" fill="#3d034b"/>
          <path id="Path_920544" data-name="Path 920544" d="M30.451,62.59a1.444,1.444,0,0,1-1.418-1.418V38.038a1.418,1.418,0,1,1,2.837,0V61.28a1.429,1.429,0,0,1-1.418,1.309" transform="translate(2.283 2.88)" fill="#3d034b"/>
          <path id="Path_920545" data-name="Path 920545" d="M61.279,31.87H38.037a1.418,1.418,0,1,1,0-2.837H61.279a1.445,1.445,0,0,1,1.418,1.42,1.618,1.618,0,0,1-1.418,1.417" transform="translate(2.88 2.283)" fill="#3d034b"/>
          <path id="Path_920546" data-name="Path 920546" d="M24.551,31.87H1.418a1.418,1.418,0,1,1,0-2.837H24.66a1.445,1.445,0,0,1,1.418,1.42,1.628,1.628,0,0,1-1.527,1.417" transform="translate(0 2.283)" fill="#3d034b"/>
        </g>
      </g>
    </g>
  </g>
</svg>
