<svg xmlns="http://www.w3.org/2000/svg" xmlns:xlink="http://www.w3.org/1999/xlink" width="99" height="99" viewBox="0 0 99 99">
  <defs>
    <clipPath id="clip-path">
      <rect id="Rectangle_401223" data-name="Rectangle 401223" width="99" height="99" transform="translate(0)" fill="#3d034b"/>
    </clipPath>
    <clipPath id="clip-path-2">
      <rect id="Rectangle_401223-2" data-name="Rectangle 401223" width="88.539" height="88.539" fill="#f3f9ff"/>
    </clipPath>
    <clipPath id="clip-path-3">
      <rect id="Rectangle_407824" data-name="Rectangle 407824" width="64.079" height="64.082" fill="none"/>
    </clipPath>
  </defs>
  <g id="Group_1114297" data-name="Group 1114297" transform="translate(-619.921 -5755.871)">
    <g id="Group_1100724" data-name="Group 1100724" transform="translate(619.921 5755.871)">
      <g id="Group_1099654" data-name="Group 1099654" transform="translate(0 0)">
        <g id="Group_1099652" data-name="Group 1099652" clip-path="url(#clip-path)">
          <path id="Path_873521" data-name="Path 873521" d="M99,77.066A22,22,0,0,1,77.066,99H21.934A22,22,0,0,1,0,77.066V21.933A22,22,0,0,1,21.934,0H77.066A22,22,0,0,1,99,21.934Z" transform="translate(0)" fill="#170551"/>
        </g>
      </g>
      <g id="Group_1099659" data-name="Group 1099659" transform="translate(4.77 5.723)">
        <g id="Group_1099652-2" data-name="Group 1099652" transform="translate(0 0)" clip-path="url(#clip-path-2)">
          <path id="Path_873521-2" data-name="Path 873521" d="M88.539,68.922A19.674,19.674,0,0,1,68.923,88.539H19.616A19.674,19.674,0,0,1,0,68.922V19.616A19.674,19.674,0,0,1,19.616,0H68.923A19.674,19.674,0,0,1,88.539,19.616Z" fill="#f3f9ff"/>
        </g>
      </g>
    </g>
    <g id="Group_1100725" data-name="Group 1100725" transform="translate(636.343 5771.293)">
      <rect id="Rectangle_401104" data-name="Rectangle 401104" width="68" height="69" transform="translate(-0.421 0.438)" fill="none"/>
      <g id="Group_1114818" data-name="Group 1114818" transform="translate(1.579 2.437)">
        <g id="Group_1114817" data-name="Group 1114817" transform="translate(0 0)" clip-path="url(#clip-path-3)">
          <path id="Path_920523" data-name="Path 920523" d="M44.383,54.832H15.023V38.4a2.884,2.884,0,0,1,2.912-2.912H41.354A2.885,2.885,0,0,1,44.267,38.4c.116,1.981.116,14.8.116,16.428" transform="translate(2.337 5.522)" fill="#d0dce7"/>
          <path id="Path_920524" data-name="Path 920524" d="M51.5,34.585A3.612,3.612,0,1,1,47.891,38.2,3.611,3.611,0,0,1,51.5,34.585" transform="translate(7.45 5.381)" fill="#6bfcf2"/>
          <path id="Path_920525" data-name="Path 920525" d="M7.042,19.461a5.127,5.127,0,1,1-5.126,5.126,5.126,5.126,0,0,1,5.126-5.126" transform="translate(0.298 3.028)" fill="#6bfcf2"/>
          <path id="Path_920526" data-name="Path 920526" d="M62.215,52.228a1.865,1.865,0,0,1,0,3.729H1.864a1.865,1.865,0,0,1,0-3.729Z" transform="translate(0 8.125)" fill="#c86d36"/>
          <path id="Path_920527" data-name="Path 920527" d="M45.673,48.195a2.33,2.33,0,1,1,0,4.66H40.43v-4.66Z" transform="translate(6.29 7.498)" fill="#7d0ede"/>
          <path id="Path_920528" data-name="Path 920528" d="M16.042,48.195v4.66H10.8a2.33,2.33,0,1,1,0-4.66Z" transform="translate(1.317 7.498)" fill="#7d0ede"/>
          <path id="Path_920529" data-name="Path 920529" d="M44.39,43.975a10.986,10.986,0,0,1,1.282,5.475H40.429V40.13a10.36,10.36,0,0,1,3.961,3.845" transform="translate(6.29 6.243)" fill="#d49cfe"/>
          <path id="Path_920530" data-name="Path 920530" d="M15.728,40.13v9.32H10.485a10.986,10.986,0,0,1,1.282-5.475,10.377,10.377,0,0,1,3.961-3.845" transform="translate(1.631 6.243)" fill="#d49cfe"/>
          <path id="Path_920531" data-name="Path 920531" d="M28.824,21.377a8.155,8.155,0,1,1-8.156,8.156,8.1,8.1,0,0,1,8.156-8.156" transform="translate(3.215 3.326)" fill="#ffe2b6"/>
          <path id="Path_920532" data-name="Path 920532" d="M28.2,40.634a3.5,3.5,0,1,1-3.5,3.5,3.432,3.432,0,0,1,3.5-3.5" transform="translate(3.843 6.322)" fill="#fff"/>
          <path id="Path_920533" data-name="Path 920533" d="M50.5,6.254a6.886,6.886,0,0,1,6.873,6.873,7.4,7.4,0,0,1-1.981,4.894A6.869,6.869,0,0,1,50.5,20H33.372V13.127a6.886,6.886,0,0,1,6.873-6.873Z" transform="translate(5.192 0.973)" fill="#9d0388"/>
          <path id="Path_920534" data-name="Path 920534" d="M25.311,6.877v6.874H8.184a7.4,7.4,0,0,1-4.894-1.982A6.92,6.92,0,0,1,8.184,0H18.438a6.812,6.812,0,0,1,6.873,6.873" transform="translate(0.204 0)" fill="#ffa8fb"/>
        </g>
      </g>
    </g>
  </g>
</svg>
