<svg xmlns="http://www.w3.org/2000/svg" xmlns:xlink="http://www.w3.org/1999/xlink" width="99" height="99" viewBox="0 0 99 99">
  <defs>
    <clipPath id="clip-path">
      <rect id="Rectangle_401223" data-name="Rectangle 401223" width="99" height="99" transform="translate(0)" fill="#3d034b"/>
    </clipPath>
    <clipPath id="clip-path-2">
      <rect id="Rectangle_401223-2" data-name="Rectangle 401223" width="88.539" height="88.539" fill="#f3f9ff"/>
    </clipPath>
    <clipPath id="clip-path-3">
      <rect id="Rectangle_407823" data-name="Rectangle 407823" width="62" height="64.587" fill="none"/>
    </clipPath>
  </defs>
  <g id="Group_1114284" data-name="Group 1114284" transform="translate(-619.921 -5755.871)">
    <g id="Group_1100724" data-name="Group 1100724" transform="translate(619.921 5755.871)">
      <g id="Group_1099654" data-name="Group 1099654" transform="translate(0 0)">
        <g id="Group_1099652" data-name="Group 1099652" clip-path="url(#clip-path)">
          <path id="Path_873521" data-name="Path 873521" d="M99,77.066A22,22,0,0,1,77.066,99H21.934A22,22,0,0,1,0,77.066V21.933A22,22,0,0,1,21.934,0H77.066A22,22,0,0,1,99,21.934Z" transform="translate(0)" fill="#170551"/>
        </g>
      </g>
      <g id="Group_1099659" data-name="Group 1099659" transform="translate(4.77 5.723)">
        <g id="Group_1099652-2" data-name="Group 1099652" transform="translate(0 0)" clip-path="url(#clip-path-2)">
          <path id="Path_873521-2" data-name="Path 873521" d="M88.539,68.922A19.674,19.674,0,0,1,68.923,88.539H19.616A19.674,19.674,0,0,1,0,68.922V19.616A19.674,19.674,0,0,1,19.616,0H68.923A19.674,19.674,0,0,1,88.539,19.616Z" fill="#f3f9ff"/>
        </g>
      </g>
    </g>
    <g id="Group_1100725" data-name="Group 1100725" transform="translate(636.343 5771.293)">
      <rect id="Rectangle_401104" data-name="Rectangle 401104" width="68" height="69" fill="none"/>
      <g id="Group_1114816" data-name="Group 1114816" transform="translate(1.579 2.437)">
        <g id="Group_1114815" data-name="Group 1114815" transform="translate(0 0)" clip-path="url(#clip-path-3)">
          <path id="Path_920490" data-name="Path 920490" d="M51.776,1.8A4.276,4.276,0,1,1,47.5,6.076,4.275,4.275,0,0,1,51.776,1.8" transform="translate(5.948 0.225)" fill="#6bfcf2"/>
          <path id="Path_920491" data-name="Path 920491" d="M3.488,2.5A3.488,3.488,0,1,1,0,5.988,3.488,3.488,0,0,1,3.488,2.5" transform="translate(0 0.313)" fill="#6bfcf2"/>
          <path id="Path_920492" data-name="Path 920492" d="M50.973,17.216a9.339,9.339,0,0,1,0,18.679H11.141a9.345,9.345,0,0,1-.45-18.679,12.946,12.946,0,0,1-.9-4.615A12.581,12.581,0,0,1,22.393,0,12.74,12.74,0,0,1,34.432,8.777,9.2,9.2,0,0,1,40.4,6.639a9.316,9.316,0,0,1,9.338,9.338,6.484,6.484,0,0,1-.111,1.464,2.852,2.852,0,0,1,1.35-.225" transform="translate(0.225 0)" fill="#eae5ff"/>
          <path id="Path_920493" data-name="Path 920493" d="M54.213,13.7A1.013,1.013,0,1,1,53.2,14.712,1.012,1.012,0,0,1,54.213,13.7" transform="translate(6.662 1.715)" fill="#6bfcf2"/>
          <path id="Path_920494" data-name="Path 920494" d="M52.313,38.7A1.013,1.013,0,1,1,51.3,39.712,1.013,1.013,0,0,1,52.313,38.7" transform="translate(6.424 4.846)" fill="#6bfcf2"/>
          <path id="Path_920495" data-name="Path 920495" d="M44.213,1.2A1.013,1.013,0,1,1,43.2,2.212,1.012,1.012,0,0,1,44.213,1.2" transform="translate(5.41 0.15)" fill="#6bfcf2"/>
          <path id="Path_920496" data-name="Path 920496" d="M41.013,45A1.013,1.013,0,1,1,40,46.012,1.012,1.012,0,0,1,41.013,45" transform="translate(5.009 5.635)" fill="#6bfcf2"/>
          <path id="Path_920497" data-name="Path 920497" d="M14.813,53.7A1.013,1.013,0,1,1,13.8,54.712,1.013,1.013,0,0,1,14.813,53.7" transform="translate(1.728 6.724)" fill="#6bfcf2"/>
          <path id="Path_920498" data-name="Path 920498" d="M2.313,38.1A1.013,1.013,0,1,1,1.3,39.113,1.013,1.013,0,0,1,2.313,38.1" transform="translate(0.163 4.771)" fill="#6bfcf2"/>
          <path id="Path_920499" data-name="Path 920499" d="M1.713,13.7A1.013,1.013,0,1,1,.7,14.712,1.013,1.013,0,0,1,1.713,13.7" transform="translate(0.088 1.715)" fill="#6bfcf2"/>
          <path id="Path_920500" data-name="Path 920500" d="M21.4,3.849a.726.726,0,0,0,.675-.675A.726.726,0,0,0,21.4,2.5a9.916,9.916,0,0,0-9.9,9.9.675.675,0,0,0,1.35,0A8.7,8.7,0,0,1,21.4,3.849" transform="translate(1.44 0.313)" fill="#c0afff"/>
          <path id="Path_920501" data-name="Path 920501" d="M38.405,25.6H13.875a.675.675,0,1,0,0,1.35H38.518a.727.727,0,0,0,.675-.675.753.753,0,0,0-.788-.675" transform="translate(1.653 3.205)" fill="#c0afff"/>
          <path id="Path_920502" data-name="Path 920502" d="M42.316,22.5H27.574a.675.675,0,0,0,0,1.349H42.316a.726.726,0,0,0,.675-.674c.113-.451-.226-.675-.675-.675" transform="translate(3.369 2.817)" fill="#c0afff"/>
          <path id="Path_920503" data-name="Path 920503" d="M14.263,35H10.775a.725.725,0,0,0-.675.674V41.3a.726.726,0,0,0,.675.675h3.488a.726.726,0,0,0,.675-.675V35.674A.648.648,0,0,0,14.263,35m-.788,5.626H11.338V36.349h2.138Z" transform="translate(1.265 4.382)" fill="#006c87"/>
          <path id="Path_920504" data-name="Path 920504" d="M16.975,41.975a.726.726,0,0,0,.675-.675V35.674a.675.675,0,0,0-1.35,0V41.3a.649.649,0,0,0,.675.675" transform="translate(2.041 4.382)" fill="#006c87"/>
          <path id="Path_920505" data-name="Path 920505" d="M23.563,35H20.075a.725.725,0,0,0-.675.674V41.3a.726.726,0,0,0,.675.675h3.488a.726.726,0,0,0,.675-.675V35.674c.113-.45-.225-.674-.675-.674m-.675,5.626H20.75V36.349h2.138Z" transform="translate(2.429 4.382)" fill="#006c87"/>
          <path id="Path_920506" data-name="Path 920506" d="M26.378,41.975a.726.726,0,0,0,.675-.675V35.674a.676.676,0,0,0-1.351,0V41.3c-.111.338.226.675.676.675" transform="translate(3.216 4.382)" fill="#006c87"/>
          <path id="Path_920507" data-name="Path 920507" d="M33.638,35.674A.725.725,0,0,0,32.963,35H29.475a.725.725,0,0,0-.675.674V41.3a.726.726,0,0,0,.675.675h3.488a.726.726,0,0,0,.675-.675Zm-1.35,4.952H30.15V36.349h2.138Z" transform="translate(3.607 4.382)" fill="#006c87"/>
          <path id="Path_920508" data-name="Path 920508" d="M36.45,35.675a.675.675,0,1,0-1.35,0V41.3a.675.675,0,1,0,1.35,0Z" transform="translate(4.395 4.382)" fill="#006c87"/>
          <path id="Path_920509" data-name="Path 920509" d="M43.038,35.674A.725.725,0,0,0,42.363,35H38.875a.725.725,0,0,0-.675.674V41.3a.726.726,0,0,0,.675.675h3.488a.726.726,0,0,0,.675-.675Zm-1.35,4.952H39.55V36.349h2.138Z" transform="translate(4.784 4.382)" fill="#006c87"/>
          <path id="Path_920510" data-name="Path 920510" d="M45.75,35.675a.675.675,0,1,0-1.35,0V41.3a.675.675,0,1,0,1.35,0Z" transform="translate(5.56 4.382)" fill="#006c87"/>
          <path id="Path_920511" data-name="Path 920511" d="M9.863,43.1H6.375a.726.726,0,0,0-.675.675V49.4a.725.725,0,0,0,.675.675H9.863a.725.725,0,0,0,.675-.675V43.774a.726.726,0,0,0-.675-.675m-.675,5.626H7.05V44.449H9.188Z" transform="translate(0.714 5.397)" fill="#006c87"/>
          <path id="Path_920512" data-name="Path 920512" d="M12.575,43.1a.726.726,0,0,0-.675.675V49.4a.675.675,0,0,0,1.35,0V43.775a.726.726,0,0,0-.675-.675" transform="translate(1.49 5.397)" fill="#006c87"/>
          <path id="Path_920513" data-name="Path 920513" d="M19.263,43.1H15.775a.726.726,0,0,0-.675.675V49.4a.725.725,0,0,0,.675.675h3.488a.725.725,0,0,0,.675-.675V43.774a.726.726,0,0,0-.675-.675m-.788,5.626H16.338V44.449h2.138Z" transform="translate(1.891 5.397)" fill="#006c87"/>
          <path id="Path_920514" data-name="Path 920514" d="M21.975,43.1a.726.726,0,0,0-.675.675V49.4a.675.675,0,0,0,1.35,0V43.775a.726.726,0,0,0-.675-.675" transform="translate(2.667 5.397)" fill="#006c87"/>
          <path id="Path_920515" data-name="Path 920515" d="M29.351,49.4V43.774a.726.726,0,0,0-.675-.675h-3.6a.726.726,0,0,0-.675.675V49.4a.725.725,0,0,0,.675.675h3.488a.752.752,0,0,0,.788-.675m-1.463-.675H25.751V44.449h2.137Z" transform="translate(3.056 5.397)" fill="#006c87"/>
          <path id="Path_920516" data-name="Path 920516" d="M31.375,43.1a.726.726,0,0,0-.676.675V49.4a.676.676,0,0,0,1.351,0V43.775a.726.726,0,0,0-.675-.675" transform="translate(3.844 5.397)" fill="#006c87"/>
          <path id="Path_920517" data-name="Path 920517" d="M31.063,51.2H27.575a.727.727,0,0,0-.675.675V57.5a.726.726,0,0,0,.675.675h3.488a.726.726,0,0,0,.675-.675V51.874c.113-.336-.225-.675-.675-.675m-.675,5.626H28.251V52.549h2.137Z" transform="translate(3.369 6.411)" fill="#006c87"/>
          <path id="Path_920518" data-name="Path 920518" d="M33.875,51.2a.727.727,0,0,0-.676.676V57.5a.676.676,0,0,0,1.351,0V51.875a.727.727,0,0,0-.675-.676" transform="translate(4.157 6.411)" fill="#006c87"/>
          <path id="Path_920519" data-name="Path 920519" d="M40.463,51.2H36.975a.727.727,0,0,0-.675.675V57.5a.726.726,0,0,0,.675.675h3.488a.726.726,0,0,0,.675-.675V51.874a.727.727,0,0,0-.675-.675m-.675,5.626H37.65V52.549h2.138Z" transform="translate(4.546 6.411)" fill="#006c87"/>
          <path id="Path_920520" data-name="Path 920520" d="M43.175,51.2a.728.728,0,0,0-.676.676V57.5a.676.676,0,0,0,1.351,0V51.875c.113-.338-.226-.676-.675-.676" transform="translate(5.322 6.411)" fill="#006c87"/>
          <path id="Path_920521" data-name="Path 920521" d="M49.863,51.2H46.375a.727.727,0,0,0-.675.675V57.5a.726.726,0,0,0,.675.675h3.488a.726.726,0,0,0,.675-.675V51.874a.727.727,0,0,0-.675-.675m-.675,5.626H47.05V52.549h2.138Z" transform="translate(5.723 6.411)" fill="#006c87"/>
          <path id="Path_920522" data-name="Path 920522" d="M52.575,51.2a.727.727,0,0,0-.676.676V57.5a.676.676,0,0,0,1.351,0V51.875a.727.727,0,0,0-.675-.676" transform="translate(6.499 6.411)" fill="#006c87"/>
        </g>
      </g>
    </g>
  </g>
</svg>
