<svg xmlns="http://www.w3.org/2000/svg" xmlns:xlink="http://www.w3.org/1999/xlink" width="99" height="99" viewBox="0 0 99 99">
  <defs>
    <clipPath id="clip-path">
      <rect id="Rectangle_401223" data-name="Rectangle 401223" width="99" height="99" transform="translate(0)" fill="#3d034b"/>
    </clipPath>
    <clipPath id="clip-path-2">
      <rect id="Rectangle_401223-2" data-name="Rectangle 401223" width="88.539" height="88.539" fill="#f3f9ff"/>
    </clipPath>
    <clipPath id="clip-path-3">
      <rect id="Rectangle_407595" data-name="Rectangle 407595" width="65.912" height="65.083" fill="none"/>
    </clipPath>
  </defs>
  <g id="Group_1100724" data-name="Group 1100724" transform="translate(-619.921 -5755.871)">
    <g id="Group_1100724-2" data-name="Group 1100724" transform="translate(619.921 5755.871)">
      <g id="Group_1099654" data-name="Group 1099654" transform="translate(0 0)">
        <g id="Group_1099652" data-name="Group 1099652" clip-path="url(#clip-path)">
          <path id="Path_873521" data-name="Path 873521" d="M99,77.066A22,22,0,0,1,77.066,99H21.934A22,22,0,0,1,0,77.066V21.933A22,22,0,0,1,21.934,0H77.066A22,22,0,0,1,99,21.934Z" transform="translate(0)" fill="#170551"/>
        </g>
      </g>
      <g id="Group_1099659" data-name="Group 1099659" transform="translate(4.77 5.723)">
        <g id="Group_1099652-2" data-name="Group 1099652" transform="translate(0 0)" clip-path="url(#clip-path-2)">
          <path id="Path_873521-2" data-name="Path 873521" d="M88.539,68.922A19.674,19.674,0,0,1,68.923,88.539H19.616A19.674,19.674,0,0,1,0,68.922V19.616A19.674,19.674,0,0,1,19.616,0H68.923A19.674,19.674,0,0,1,88.539,19.616Z" fill="#f3f9ff"/>
        </g>
      </g>
    </g>
    <g id="Group_1100725" data-name="Group 1100725" transform="translate(636.343 5771.293)">
      <rect id="Rectangle_401104" data-name="Rectangle 401104" width="68" height="69" transform="translate(-0.421 -0.159)" fill="none"/>
      <g id="Group_1114662" data-name="Group 1114662" transform="translate(0.579 1.84)">
        <path id="Path_919417" data-name="Path 919417" d="M35,27.848,29.8,30.1l-5.208,2.25L19.5,34.476v5.206H40.208V25.6Z" transform="translate(3.575 4.694)" fill="#fe5a5a"/>
        <g id="Group_1114661" data-name="Group 1114661" transform="translate(0 0)">
          <g id="Group_1114660" data-name="Group 1114660" clip-path="url(#clip-path-3)">
            <path id="Path_919418" data-name="Path 919418" d="M53.658,1.9A2.958,2.958,0,1,1,50.7,4.858,2.958,2.958,0,0,1,53.658,1.9" transform="translate(9.295 0.348)" fill="#6bfcf2"/>
            <path id="Path_919419" data-name="Path 919419" d="M4.5,46.8A4.5,4.5,0,1,1,0,51.3a4.5,4.5,0,0,1,4.5-4.5" transform="translate(0 8.58)" fill="#6bfcf2"/>
            <path id="Path_919420" data-name="Path 919420" d="M37.807,25.6V39.681H32.6V27.847Z" transform="translate(5.977 4.693)" fill="#9d0388"/>
            <path id="Path_919421" data-name="Path 919421" d="M29.007,29.4v9.585H23.8V31.648Z" transform="translate(4.364 5.39)" fill="#9d0388"/>
            <path id="Path_919422" data-name="Path 919422" d="M54.965,11.3A1.065,1.065,0,1,1,53.9,12.365,1.065,1.065,0,0,1,54.965,11.3" transform="translate(9.882 2.071)" fill="#6bfcf2"/>
            <path id="Path_919423" data-name="Path 919423" d="M54.965,41.9A1.065,1.065,0,1,1,53.9,42.965,1.065,1.065,0,0,1,54.965,41.9" transform="translate(9.882 7.681)" fill="#6bfcf2"/>
            <path id="Path_919424" data-name="Path 919424" d="M64.334,30.009l-4.378,2.84,4.378,2.839a31.629,31.629,0,0,1-2.722,10.058l-5.207.356,2.367,4.615a30.853,30.853,0,0,1-7.337,7.337L46.82,55.687l-.355,5.207a31.668,31.668,0,0,1-10.058,2.722l-2.84-4.378-2.84,4.378a31.668,31.668,0,0,1-10.058-2.722l-.355-5.207L15.7,58.054a30.853,30.853,0,0,1-7.337-7.337L10.728,46.1l-5.207-.356A31.629,31.629,0,0,1,2.8,35.687l4.378-2.839L2.8,30.009A31.637,31.637,0,0,1,5.522,19.95l5.207-.237L8.362,15.1A30.853,30.853,0,0,1,15.7,7.762l4.615,2.367.355-5.207A31.637,31.637,0,0,1,30.727,2.2l2.84,4.378L36.407,2.2A31.637,31.637,0,0,1,46.465,4.922l.355,5.207,4.615-2.367A30.853,30.853,0,0,1,58.772,15.1l-2.367,4.615,5.207.237a32.5,32.5,0,0,1,2.722,10.058M52.5,32.849A18.933,18.933,0,1,0,33.567,51.782,18.989,18.989,0,0,0,52.5,32.849" transform="translate(0.513 0.403)" fill="#3a2292"/>
            <path id="Path_919425" data-name="Path 919425" d="M46.865,52.5A1.066,1.066,0,1,1,45.8,53.564,1.064,1.064,0,0,1,46.865,52.5" transform="translate(8.397 9.625)" fill="#6bfcf2"/>
            <path id="Path_919426" data-name="Path 919426" d="M33.406,27.5V39.333H28.2V29.748Z" transform="translate(5.17 5.041)" fill="#ff85e7"/>
            <path id="Path_919427" data-name="Path 919427" d="M24.588,31.3v7.336H19.5V33.43Z" transform="translate(3.575 5.738)" fill="#ff85e7"/>
            <path id="Path_919428" data-name="Path 919428" d="M13.665,0A1.065,1.065,0,1,1,12.6,1.065,1.064,1.064,0,0,1,13.665,0" transform="translate(2.31 -0.001)" fill="#6bfcf2"/>
            <path id="Path_919429" data-name="Path 919429" d="M13.665,53.2A1.065,1.065,0,1,1,12.6,54.265,1.064,1.064,0,0,1,13.665,53.2" transform="translate(2.31 9.753)" fill="#6bfcf2"/>
            <path id="Path_919430" data-name="Path 919430" d="M4.365,7.5A1.065,1.065,0,1,1,3.3,8.565,1.064,1.064,0,0,1,4.365,7.5" transform="translate(0.605 1.374)" fill="#6bfcf2"/>
            <path id="Path_919431" data-name="Path 919431" d="M39.009,17.473h0v-.237c0-.118-.12-.118-.237-.237H34.631a.71.71,0,1,0,0,1.42h1.892l-8.164,8.165-3.2-3.2a.885.885,0,0,0-1.066,0l-6.271,6.272a.88.88,0,0,0,0,1.065.889.889,0,0,0,.473.237.612.612,0,0,0,.472-.237l5.8-5.8,3.2,3.2a.881.881,0,0,0,1.064,0l8.758-8.757V21.26a.71.71,0,1,0,1.42,0V17.473Z" transform="translate(3.236 3.116)" fill="#7d0ede"/>
          </g>
        </g>
      </g>
    </g>
  </g>
</svg>
