<svg xmlns="http://www.w3.org/2000/svg" xmlns:xlink="http://www.w3.org/1999/xlink" width="99" height="99" viewBox="0 0 99 99">
  <defs>
    <clipPath id="clip-path">
      <rect id="Rectangle_401223" data-name="Rectangle 401223" width="99" height="99" transform="translate(0)" fill="#ff85e7"/>
    </clipPath>
    <clipPath id="clip-path-2">
      <rect id="Rectangle_401223-2" data-name="Rectangle 401223" width="88.539" height="88.539" fill="#f3f9ff"/>
    </clipPath>
    <clipPath id="clip-path-3">
      <rect id="Rectangle_407589" data-name="Rectangle 407589" width="66" height="67.473" fill="none"/>
    </clipPath>
  </defs>
  <g id="Group_1114071" data-name="Group 1114071" transform="translate(-619.921 -5755.871)">
    <g id="Group_1100724" data-name="Group 1100724" transform="translate(619.921 5755.871)">
      <g id="Group_1099654" data-name="Group 1099654" transform="translate(0 0)">
        <g id="Mask_Group_1099652" data-name="Mask Group 1099652" clip-path="url(#clip-path)">
          <path id="Path_873521" data-name="Path 873521" d="M99,77.066A22,22,0,0,1,77.066,99H21.934A22,22,0,0,1,0,77.066V21.933A22,22,0,0,1,21.934,0H77.066A22,22,0,0,1,99,21.934Z" transform="translate(0)" fill="#170551"/>
        </g>
      </g>
      <g id="Group_1099659" data-name="Group 1099659" transform="translate(4.77 5.723)">
        <g id="Group_1099652" data-name="Group 1099652" transform="translate(0 0)" clip-path="url(#clip-path-2)">
          <path id="Path_873521-2" data-name="Path 873521" d="M88.539,68.922A19.674,19.674,0,0,1,68.923,88.539H19.616A19.674,19.674,0,0,1,0,68.922V19.616A19.674,19.674,0,0,1,19.616,0H68.923A19.674,19.674,0,0,1,88.539,19.616Z" fill="#f3f9ff"/>
        </g>
      </g>
    </g>
    <g id="Group_1100725" data-name="Group 1100725" transform="translate(636.343 5771.293)">
      <rect id="Rectangle_401104" data-name="Rectangle 401104" width="68" height="69" transform="translate(-0.421 -0.158)" fill="none"/>
      <g id="Group_1114653" data-name="Group 1114653" transform="translate(0.579 0.841)">
        <g id="Group_1114652" data-name="Group 1114652" transform="translate(0 0)" clip-path="url(#clip-path-3)">
          <path id="Path_919349" data-name="Path 919349" d="M51.955,3.844a3.8,3.8,0,1,1-3.8,3.8,3.745,3.745,0,0,1,3.8-3.8" transform="translate(10.243 0.818)" fill="#6bfcf2"/>
          <path id="Path_919350" data-name="Path 919350" d="M8.125,2.529a3.036,3.036,0,0,1,3.067,3.066,3.067,3.067,0,1,1-6.134,0A3.037,3.037,0,0,1,8.125,2.529" transform="translate(1.076 0.538)" fill="#6bfcf2"/>
          <path id="Path_919351" data-name="Path 919351" d="M4.382,27.818a3.068,3.068,0,0,1,0,6.135,3.068,3.068,0,0,1,0-6.135" transform="translate(0.28 5.918)" fill="#6bfcf2"/>
          <path id="Path_919352" data-name="Path 919352" d="M1.315,40.464v18.4H22.784v-18.4Z" transform="translate(0.28 8.608)" fill="#ffd24d"/>
          <rect id="Rectangle_407585" data-name="Rectangle 407585" width="21.469" height="9.201" transform="translate(1.595 58.273)" fill="#e2b23b"/>
          <path id="Path_919353" data-name="Path 919353" d="M19.018,32.877v27.6H40.487v-27.6Z" transform="translate(4.046 6.994)" fill="#fcd884"/>
          <rect id="Rectangle_407586" data-name="Rectangle 407586" width="21.469" height="9.201" transform="translate(23.064 49.072)" fill="#eabf6a"/>
          <path id="Path_919354" data-name="Path 919354" d="M41.281,17.7H36.619v46H58.088v-46Z" transform="translate(7.79 3.766)" fill="#ffd24d"/>
          <rect id="Rectangle_407587" data-name="Rectangle 407587" width="21.469" height="9.201" transform="translate(44.532 49.072)" fill="#e2b23b"/>
          <path id="Path_919355" data-name="Path 919355" d="M58.189,25.29v9.2H36.72v-9.2Z" transform="translate(7.811 5.38)" fill="#e2b23b"/>
          <path id="Path_919356" data-name="Path 919356" d="M45.692,10.606a1.556,1.556,0,0,1,.49,1.1,1.2,1.2,0,0,1-.49,1.1,1.555,1.555,0,0,1-1.1.492,1.625,1.625,0,0,1-1.595-1.595,1.334,1.334,0,0,1,.491-1.1,1.555,1.555,0,0,1,1.1-.49,1.331,1.331,0,0,1,1.1.49" transform="translate(9.145 2.152)" fill="#6bfcf2"/>
          <path id="Path_919357" data-name="Path 919357" d="M42.077,3.844V20.651H37.538v10.8H32.876V3.844Z" transform="translate(6.994 0.818)" fill="#c0afff"/>
          <path id="Path_919358" data-name="Path 919358" d="M34.49,4.662v27.6h-9.2V0h9.2Z" transform="translate(5.38 0)" fill="#7d0ede"/>
          <path id="Path_919359" data-name="Path 919359" d="M26.9,10.116v20H17.7v-20Z" transform="translate(3.766 2.152)" fill="#c0afff"/>
          <rect id="Rectangle_407588" data-name="Rectangle 407588" width="9.201" height="16.93" transform="translate(12.268 15.335)" fill="#7d0ede"/>
          <path id="Path_919360" data-name="Path 919360" d="M15.345,32.052a1.558,1.558,0,0,1,.49,1.1,1.2,1.2,0,0,1-.49,1.1,1.832,1.832,0,0,1-1.1.491,1.624,1.624,0,0,1-1.595-1.595,1.332,1.332,0,0,1,.491-1.1,1.827,1.827,0,0,1,1.1-.49,1.831,1.831,0,0,1,1.1.49" transform="translate(2.69 6.714)" fill="#6bfcf2"/>
          <path id="Path_919361" data-name="Path 919361" d="M2.7,15.686a1.556,1.556,0,0,1,.49,1.1,1.2,1.2,0,0,1-.49,1.1,1.985,1.985,0,0,1-1.1.369A1.624,1.624,0,0,1,0,16.668a1.336,1.336,0,0,1,.491-1.1,1.551,1.551,0,0,1,1.1-.491c.491,0,.736.245,1.1.614" transform="translate(0 3.207)" fill="#6bfcf2"/>
        </g>
      </g>
    </g>
  </g>
</svg>
