<svg xmlns="http://www.w3.org/2000/svg" xmlns:xlink="http://www.w3.org/1999/xlink" width="178" height="178" viewBox="0 0 178 178">
  <defs>
    <clipPath id="clip-path">
      <rect id="Rectangle_407598" data-name="Rectangle 407598" width="99.117" height="93.718" fill="none"/>
    </clipPath>
  </defs>
  <g id="Group_1114941" data-name="Group 1114941" transform="translate(-709.785 -3553.999)">
    <g id="Group_1114082" data-name="Group 1114082" transform="translate(709.785 3554)">
      <path id="Path_882862" data-name="Path 882862" d="M89,0A89,89,0,1,1,0,89,89,89,0,0,1,89,0Z" transform="translate(0 -0.001)" fill="#c0afff"/>
      <path id="Path_882863" data-name="Path 882863" d="M78.668,0A78.668,78.668,0,1,1,0,78.668,78.668,78.668,0,0,1,78.668,0Z" transform="translate(10.332 10.331)" fill="#f3f9ff"/>
    </g>
    <g id="Group_1114085" data-name="Group 1114085" transform="translate(748.785 3593)">
      <rect id="Rectangle_401104" data-name="Rectangle 401104" width="99.117" height="100.574" transform="translate(-0.074)" fill="none"/>
      <g id="Group_1114669" data-name="Group 1114669" transform="translate(-0.074 3)">
        <path id="Path_919456" data-name="Path 919456" d="M32.544,37.53,9.508,66.015h10.9L32.544,49.488V66.015h8.792V49.488L53.468,66.015h10.9L41.336,37.53Z" transform="translate(7.018 27.703)" fill="#2d2c2e"/>
        <path id="Path_919457" data-name="Path 919457" d="M27.819,49.488,39.951,66.014h10.9L27.819,37.529Z" transform="translate(20.535 27.703)" fill="#3c3b3d"/>
        <path id="Path_919458" data-name="Path 919458" d="M9.508,66.015h10.9L32.544,49.488V37.53Z" transform="translate(7.019 27.703)" fill="#3c3b3d"/>
        <path id="Path_919459" data-name="Path 919459" d="M50.34,33.686v6.683H15.174V33.686Z" transform="translate(11.201 24.866)" fill="#b3b3b3"/>
        <g id="Group_1114668" data-name="Group 1114668" transform="translate(0 0)">
          <g id="Group_1114667" data-name="Group 1114667" clip-path="url(#clip-path)">
            <path id="Path_919460" data-name="Path 919460" d="M59.683,6.682H11.329A6.679,6.679,0,0,1,18.011,0H53.177a6.792,6.792,0,0,1,4.747,1.935,7.891,7.891,0,0,1,1.759,4.747" transform="translate(8.363 0)" fill="#b3b3b3"/>
            <path id="Path_919461" data-name="Path 919461" d="M67.151,3.642H1.213v52.75H84.734V3.642Z" transform="translate(0.896 2.688)" fill="#eae5ff"/>
            <path id="Path_919462" data-name="Path 919462" d="M50.972,40.362a5.45,5.45,0,1,1-5.451,5.451,5.451,5.451,0,0,1,5.451-5.451" transform="translate(33.602 29.794)" fill="#6bfcf2"/>
            <path id="Path_919463" data-name="Path 919463" d="M4.4,42.79a4.4,4.4,0,0,1,0,8.793,4.4,4.4,0,0,1,0-8.793" transform="translate(0 31.586)" fill="#6bfcf2"/>
            <path id="Path_919464" data-name="Path 919464" d="M48.075,49.766a2.229,2.229,0,0,1,.7,1.582,1.907,1.907,0,0,1-.7,1.582,2.228,2.228,0,0,1-1.583.7,2.328,2.328,0,0,1-2.286-2.286,1.909,1.909,0,0,1,.7-1.582,2.231,2.231,0,0,1,1.582-.7,2.626,2.626,0,0,1,1.583.7" transform="translate(32.631 36.216)" fill="#6bfcf2"/>
            <path id="Path_919465" data-name="Path 919465" d="M41.7,37.119a2.234,2.234,0,0,1,.7,1.583,1.714,1.714,0,0,1-.7,1.582,2.235,2.235,0,0,1-1.583.7A2.328,2.328,0,0,1,37.833,38.7a1.909,1.909,0,0,1,.7-1.583,2.134,2.134,0,0,1,3.165,0" transform="translate(27.927 26.882)" fill="#6bfcf2"/>
            <path id="Path_919466" data-name="Path 919466" d="M31.585,10.617a2.224,2.224,0,0,1,.7,1.582,1.9,1.9,0,0,1-.7,1.582A2.225,2.225,0,0,1,30,14.486,2.328,2.328,0,0,1,27.718,12.2a1.909,1.909,0,0,1,.7-1.582,2.131,2.131,0,0,1,3.165,0" transform="translate(20.46 7.318)" fill="#193772"/>
            <path id="Path_919467" data-name="Path 919467" d="M24,27a2.224,2.224,0,0,1,.7,1.582,1.712,1.712,0,0,1-.7,1.582,2.613,2.613,0,0,1-1.582.706,2.328,2.328,0,0,1-2.286-2.287,1.907,1.907,0,0,1,.7-1.582,2.624,2.624,0,0,1,1.583-.7A2.229,2.229,0,0,1,24,27" transform="translate(14.86 19.415)" fill="#193772"/>
            <path id="Path_919468" data-name="Path 919468" d="M13.883,10.617a2.231,2.231,0,0,1,.7,1.582,1.9,1.9,0,0,1-.7,1.582,2.226,2.226,0,0,1-1.583.706A2.329,2.329,0,0,1,10.014,12.2a1.906,1.906,0,0,1,.7-1.582,2.131,2.131,0,0,1,3.165,0" transform="translate(7.392 7.318)" fill="#193772"/>
            <path id="Path_919469" data-name="Path 919469" d="M12.668,39.649a2.231,2.231,0,0,1,.7,1.582,1.717,1.717,0,0,1-.7,1.583,2.626,2.626,0,0,1-1.583.7A2.326,2.326,0,0,1,8.8,41.231a1.909,1.909,0,0,1,.7-1.582,2.624,2.624,0,0,1,1.582-.7,2.624,2.624,0,0,1,1.583.7" transform="translate(6.497 28.75)" fill="#6bfcf2"/>
            <path id="Path_919470" data-name="Path 919470" d="M14.1,28.83a2.153,2.153,0,0,1-1.582-.7,2.228,2.228,0,0,1,0-3.165L23.949,13.532A2.238,2.238,0,1,1,27.114,16.7L15.685,28.126a2.154,2.154,0,0,1-1.583.7" transform="translate(8.755 9.502)" fill="#d49cfe"/>
            <path id="Path_919471" data-name="Path 919471" d="M29,28.785a2.285,2.285,0,0,1-2.11-1.408L22.14,15.949a2.014,2.014,0,0,1,1.231-2.812,2.014,2.014,0,0,1,2.812,1.231L30.93,25.8A2.014,2.014,0,0,1,29.7,28.608c-.176.177-.351.177-.7.177" transform="translate(16.192 9.547)" fill="#d49cfe"/>
            <path id="Path_919472" data-name="Path 919472" d="M30.491,28.83a2.154,2.154,0,0,1-1.583-.7,2.228,2.228,0,0,1,0-3.165l11.43-11.428A2.238,2.238,0,0,1,43.5,16.7L32.072,28.126a1.715,1.715,0,0,1-1.582.7" transform="translate(20.851 9.502)" fill="#d49cfe"/>
            <path id="Path_919473" data-name="Path 919473" d="M39.77,9.407a5.275,5.275,0,1,1-5.275,5.275A5.276,5.276,0,0,1,39.77,9.407" transform="translate(25.463 6.944)" fill="#7d0ede"/>
            <path id="Path_919474" data-name="Path 919474" d="M30.134,19.423a5.45,5.45,0,1,1-5.451,5.451,5.45,5.45,0,0,1,5.451-5.451" transform="translate(18.22 14.338)" fill="#7d0ede"/>
            <path id="Path_919475" data-name="Path 919475" d="M23.686,9.407a5.275,5.275,0,1,1-5.275,5.275,5.276,5.276,0,0,1,5.275-5.275" transform="translate(13.59 6.944)" fill="#7d0ede"/>
            <path id="Path_919476" data-name="Path 919476" d="M13.645,19.423a5.45,5.45,0,1,1-5.451,5.451,5.45,5.45,0,0,1,5.451-5.451" transform="translate(6.049 14.338)" fill="#7d0ede"/>
            <path id="Path_919477" data-name="Path 919477" d="M68.916,23.513v8h-28v-8h28Z" transform="translate(30.201 17.357)" fill="#eabf6a"/>
            <path id="Path_919478" data-name="Path 919478" d="M66.615,28.116v8h-28v-8h28Z" transform="translate(28.502 20.754)" fill="#f7d694"/>
            <path id="Path_919479" data-name="Path 919479" d="M66.615,18.909v8h-28v-8h28Z" transform="translate(28.502 13.958)" fill="#f7d694"/>
            <path id="Path_919480" data-name="Path 919480" d="M52.1,7.4A10.081,10.081,0,1,0,62.181,17.483,10.039,10.039,0,0,0,52.1,7.4" transform="translate(31.016 5.464)" fill="#ffd24d"/>
            <path id="Path_919481" data-name="Path 919481" d="M49.289,14.548v-1.6c-.641,0-.961.32-.961.8,0,.16,0,.478.16.478.16.162.48.162.8.322m.64.16a9.913,9.913,0,0,1,1.759.48,2.417,2.417,0,0,1,1.761,2.56,3.021,3.021,0,0,1-.32,1.281,4.284,4.284,0,0,1-.8.961,5.437,5.437,0,0,1-2.24.8v1.6H49.13v-1.6a9.1,9.1,0,0,1-3.522-1.121l.961-1.921a.551.551,0,0,0,.318.16,5.656,5.656,0,0,0,1.441.64,2.012,2.012,0,0,0,.961.162V16.948c-.322-.16-1.121-.32-1.761-.64a2.418,2.418,0,0,1-1.441-2.24,3.02,3.02,0,0,1,.322-1.281,3.446,3.446,0,0,1,2.88-1.921V9.427h.959v1.439a4.793,4.793,0,0,1,1.6.32,9.7,9.7,0,0,1,1.279.641l-.959,1.921-.16-.16a3.415,3.415,0,0,0-1.121-.481,1.455,1.455,0,0,0-.8-.158Zm0,2.4v1.6c.64,0,1.119-.32,1.119-.8,0-.16-.16-.48-.32-.48-.32-.16-.48-.32-.8-.32" transform="translate(33.666 6.959)" fill="#fff"/>
          </g>
        </g>
      </g>
    </g>
  </g>
</svg>
