<svg xmlns="http://www.w3.org/2000/svg" xmlns:xlink="http://www.w3.org/1999/xlink" width="119" height="119" viewBox="0 0 119 119">
  <defs>
    <clipPath id="clip-path">
      <rect id="Rectangle_406617" data-name="Rectangle 406617" width="119" height="119" fill="#170551" stroke="rgba(0,0,0,0)" stroke-miterlimit="10" stroke-width="1"/>
    </clipPath>
    <clipPath id="clip-path-2">
      <rect id="Rectangle_401492" data-name="Rectangle 401492" width="69.729" height="69.729" transform="translate(-0.313 0.443)" fill="#fff" stroke="#707070" stroke-width="1"/>
    </clipPath>
    <clipPath id="clip-path-3">
      <rect id="Rectangle_407596" data-name="Rectangle 407596" width="62.333" height="62.364" fill="#fff"/>
    </clipPath>
  </defs>
  <g id="Group_1114077" data-name="Group 1114077" transform="translate(-314.001 -7639.335)">
    <g id="Group_1113263" data-name="Group 1113263" transform="translate(314.001 7639.335)">
      <g id="Group_1112834" data-name="Group 1112834" transform="translate(0 0)" clip-path="url(#clip-path)">
        <path id="Path_917479" data-name="Path 917479" d="M118.163,71l-5.841-4.807a52.529,52.529,0,0,0-.6-16.787l5.47-5.208a3.328,3.328,0,0,0,.732-3.8l-5.546-12.131a3.335,3.335,0,0,0-3.026-1.944c-.108,0-.217,0-.325.015l-7.532.731A53.325,53.325,0,0,0,89.209,15.619l.185-7.551a3.329,3.329,0,0,0-2.166-3.2L74.728.21A3.32,3.32,0,0,0,73.566,0h0a3.315,3.315,0,0,0-2.57,1.214L66.186,7.057a52.524,52.524,0,0,0-16.786.6l-5.208-5.47A3.344,3.344,0,0,0,41.78,1.15a3.3,3.3,0,0,0-1.385.3L28.264,7a3.33,3.33,0,0,0-1.929,3.35l.731,7.534a53.315,53.315,0,0,0-11.449,12.29l-7.55-.185-.083,0a3.342,3.342,0,0,0-3.119,2.169L.208,44.652a3.333,3.333,0,0,0,1,3.731l5.846,4.811a52.523,52.523,0,0,0,.6,16.786L2.181,75.188a3.329,3.329,0,0,0-.731,3.8L7,91.116a3.336,3.336,0,0,0,3.027,1.945c.107,0,.215,0,.323-.015l7.534-.732a53.328,53.328,0,0,0,12.289,11.449l-.185,7.55a3.329,3.329,0,0,0,2.167,3.2l12.5,4.657a3.334,3.334,0,0,0,3.733-1l4.809-5.843a52.521,52.521,0,0,0,16.786-.6l5.208,5.47a3.343,3.343,0,0,0,2.41,1.034,3.308,3.308,0,0,0,1.384-.3l12.134-5.547a3.332,3.332,0,0,0,1.929-3.35l-.731-7.533a53.311,53.311,0,0,0,11.449-12.29l7.551.185h.082a3.342,3.342,0,0,0,3.119-2.167l4.657-12.5A3.329,3.329,0,0,0,118.163,71" transform="translate(0 -0.38)" fill="#170551" stroke="rgba(0,0,0,0)" stroke-miterlimit="10" stroke-width="1"/>
      </g>
    </g>
    <g id="Group_1111310" data-name="Group 1111310" transform="translate(339.026 7663.892)">
      <rect id="Rectangle_401104" data-name="Rectangle 401104" width="64.968" height="66.017" transform="translate(2.38 0)" fill="none"/>
      <g id="Mask_Group_1098697" data-name="Mask Group 1098697" transform="translate(0 0)" clip-path="url(#clip-path-2)">
        <g id="Group_1114664" data-name="Group 1114664" transform="translate(3.686 3.444)">
          <g id="Group_1114663" data-name="Group 1114663" clip-path="url(#clip-path-3)">
            <path id="Path_919432" data-name="Path 919432" d="M114.5,122.881a8.386,8.386,0,0,1-5.9-2.407l-5.9-5.9a1.525,1.525,0,0,1,0-2.166l8.785-8.785.843-.841a1.523,1.523,0,0,1,2.166,0l5.9,5.9a8.177,8.177,0,0,1,2.407,5.9,8.382,8.382,0,0,1-2.407,5.9,8.6,8.6,0,0,1-5.9,2.407m-8.544-9.387,4.814,4.814a5.276,5.276,0,1,0,7.461-7.461l-4.814-4.814Z" transform="translate(-60.473 -60.517)" fill="#fff"/>
            <path id="Path_919433" data-name="Path 919433" d="M25.511,51.052A25.473,25.473,0,0,1,0,25.541,25.29,25.29,0,0,1,7.461,7.491a25.612,25.612,0,0,1,36.22,36.221,26.185,26.185,0,0,1-18.17,7.34m0-48.133A22.6,22.6,0,0,0,2.887,25.541a22.891,22.891,0,0,0,6.619,16A22.591,22.591,0,0,0,41.516,9.657a22.135,22.135,0,0,0-16-6.738" transform="translate(0 0)" fill="#fff"/>
            <path id="Path_919434" data-name="Path 919434" d="M97.8,106.793h0a1.3,1.3,0,0,1-1.082-.481L90.7,100.175a1.155,1.155,0,0,1-.361-1.2,1.384,1.384,0,0,1,.722-1.083,19.033,19.033,0,0,0,3.851-3.128,31.245,31.245,0,0,0,3.128-3.851,1.755,1.755,0,0,1,1.083-.722,1.4,1.4,0,0,1,1.2.481l6.137,6.137a1.789,1.789,0,0,1,.482,1.083,1.466,1.466,0,0,1-.482,1.083l-7.58,7.582a3.519,3.519,0,0,1-1.083.24m-3.731-7.461,3.731,3.851,5.416-5.415-3.731-3.731c-.721.963-1.564,1.925-2.407,2.888a29.038,29.038,0,0,1-3.008,2.407" transform="translate(-53.399 -53.334)" fill="#fff"/>
            <path id="Path_919435" data-name="Path 919435" d="M37.2,52.805H33.77a.816.816,0,0,1-.824-.687l-1.03-4.532a14.424,14.424,0,0,1-3.365-1.374l-3.983,2.473a.945.945,0,0,1-1.1-.138l-2.4-2.4a.932.932,0,0,1-.137-1.1L23.4,41.062A11.975,11.975,0,0,1,22.027,37.7l-4.533-1.03a.816.816,0,0,1-.687-.824V32.408a.816.816,0,0,1,.687-.824l4.533-1.03A14.415,14.415,0,0,1,23.4,27.189l-2.472-3.983a.945.945,0,0,1,.137-1.1l2.4-2.4a.932.932,0,0,1,1.1-.137l3.983,2.541a14.633,14.633,0,0,1,3.365-1.442l1.03-4.533a.816.816,0,0,1,.824-.686H37.2a.815.815,0,0,1,.824.686l1.031,4.533a14.642,14.642,0,0,1,3.365,1.442l3.983-2.541a.945.945,0,0,1,1.1.137l2.4,2.4a.933.933,0,0,1,.137,1.1l-2.541,4.052a12.89,12.89,0,0,1,1.374,3.365l4.532,1.03a.816.816,0,0,1,.686.824v3.434a.816.816,0,0,1-.686.824l-4.532,1.03a14.442,14.442,0,0,1-1.374,3.365l2.473,3.983a.946.946,0,0,1-.137,1.1l-2.4,2.4a.933.933,0,0,1-1.1.137l-3.915-2.541a11.962,11.962,0,0,1-3.365,1.374l-1.031,4.532a.815.815,0,0,1-.824.687m-2.747-1.717h2.061l.962-4.4a.811.811,0,0,1,.618-.618A11.117,11.117,0,0,0,41.943,44.5a.721.721,0,0,1,.893,0l3.846,2.4,1.442-1.442-2.4-3.846a.721.721,0,0,1,0-.893,11.11,11.11,0,0,0,1.58-3.846.811.811,0,0,1,.618-.618l4.4-.962v-2.06l-4.4-.961a.813.813,0,0,1-.618-.618,11.113,11.113,0,0,0-1.58-3.846.721.721,0,0,1,0-.893l2.4-3.846L46.75,21.489l-3.846,2.4a.722.722,0,0,1-.893,0,11.12,11.12,0,0,0-3.846-1.579.814.814,0,0,1-.618-.618l-1.03-4.4H34.457l-.961,4.4a.812.812,0,0,1-.618.618,12.632,12.632,0,0,0-3.846,1.579.722.722,0,0,1-.893,0l-3.915-2.4-1.442,1.442,2.4,3.846a.722.722,0,0,1,0,.893,11.114,11.114,0,0,0-1.58,3.846.812.812,0,0,1-.618.619l-4.395,1.03v2.06l4.395.961a.813.813,0,0,1,.618.618,11.113,11.113,0,0,0,1.58,3.846.722.722,0,0,1,0,.893l-2.4,3.915L24.224,46.9l3.846-2.4a.721.721,0,0,1,.893,0,11.119,11.119,0,0,0,3.846,1.579.811.811,0,0,1,.618.618Z" transform="translate(-9.939 -9.134)" fill="#fff"/>
            <path id="Path_919436" data-name="Path 919436" d="M56.36,59.423a4.258,4.258,0,1,1,4.258-4.258,4.279,4.279,0,0,1-4.258,4.258m0-6.8a2.536,2.536,0,0,0-2.541,2.541,2.541,2.541,0,0,0,5.082,0,2.536,2.536,0,0,0-2.541-2.541" transform="translate(-30.812 -30.105)" fill="#fff"/>
            <path id="Path_919437" data-name="Path 919437" d="M41.229,49.2a.91.91,0,0,1-.893-.893,9.027,9.027,0,0,1,9-9,.893.893,0,0,1,0,1.786,7.284,7.284,0,0,0-7.28,7.28.792.792,0,0,1-.824.824" transform="translate(-23.854 -23.247)" fill="#fff"/>
            <path id="Path_919438" data-name="Path 919438" d="M51.549,58.658a9,9,0,0,1-7.417-3.915.838.838,0,0,1,1.373-.961A7.262,7.262,0,0,0,58.76,49.662a7.225,7.225,0,0,0-3.914-6.456.86.86,0,1,1,.823-1.511,9,9,0,0,1-4.12,16.963" transform="translate(-26.001 -24.601)" fill="#fff"/>
          </g>
        </g>
      </g>
    </g>
  </g>
</svg>
