<svg xmlns="http://www.w3.org/2000/svg" xmlns:xlink="http://www.w3.org/1999/xlink" width="99" height="99" viewBox="0 0 99 99">
  <defs>
    <clipPath id="clip-path">
      <rect id="Rectangle_401223" data-name="Rectangle 401223" width="99" height="99" transform="translate(0)" fill="#ffa8fb"/>
    </clipPath>
    <clipPath id="clip-path-2">
      <rect id="Rectangle_401223-2" data-name="Rectangle 401223" width="88.539" height="88.539" fill="#f3f9ff"/>
    </clipPath>
    <clipPath id="clip-path-3">
      <rect id="Rectangle_407573" data-name="Rectangle 407573" width="66.421" height="65.401" fill="none"/>
    </clipPath>
  </defs>
  <g id="Group_1114074" data-name="Group 1114074" transform="translate(-619.921 -5755.871)">
    <g id="Group_1100724" data-name="Group 1100724" transform="translate(619.921 5755.871)">
      <g id="Group_1099654" data-name="Group 1099654" transform="translate(0 0)">
        <g id="Group_1099652" data-name="Group 1099652" clip-path="url(#clip-path)">
          <path id="Path_873521" data-name="Path 873521" d="M99,77.066A22,22,0,0,1,77.066,99H21.934A22,22,0,0,1,0,77.066V21.933A22,22,0,0,1,21.934,0H77.066A22,22,0,0,1,99,21.934Z" transform="translate(0)" fill="#170551"/>
        </g>
      </g>
      <g id="Group_1099659" data-name="Group 1099659" transform="translate(4.77 5.723)">
        <g id="Group_1099652-2" data-name="Group 1099652" transform="translate(0 0)" clip-path="url(#clip-path-2)">
          <path id="Path_873521-2" data-name="Path 873521" d="M88.539,68.922A19.674,19.674,0,0,1,68.923,88.539H19.616A19.674,19.674,0,0,1,0,68.922V19.616A19.674,19.674,0,0,1,19.616,0H68.923A19.674,19.674,0,0,1,88.539,19.616Z" fill="#f3f9ff"/>
        </g>
      </g>
    </g>
    <g id="Group_1100725" data-name="Group 1100725" transform="translate(636.343 5771.293)">
      <rect id="Rectangle_401104" data-name="Rectangle 401104" width="68" height="69" transform="translate(-0.421 -0.158)" fill="none"/>
      <g id="Group_1114647" data-name="Group 1114647" transform="translate(0.579 1.842)">
        <g id="Group_1114646" data-name="Group 1114646" transform="translate(0 0)" clip-path="url(#clip-path-3)">
          <path id="Path_919297" data-name="Path 919297" d="M44.957,0H8.8V65.4H55.007V10.345L44.957,0" transform="translate(1.249 0)" fill="#e9d6fa"/>
          <path id="Path_919298" data-name="Path 919298" d="M26.659,25.734l-4.274,2.972H5.058V22.761H22.385Z" transform="translate(0.718 3.994)" fill="#170551"/>
          <path id="Path_919299" data-name="Path 919299" d="M5.776,22.761v5.946H2.888A2.9,2.9,0,0,1,0,25.734a3.481,3.481,0,0,1,.808-2.141,2.582,2.582,0,0,1,2.079-.832Z" transform="translate(0 3.994)" fill="#ff85e7"/>
          <path id="Path_919300" data-name="Path 919300" d="M40.463,0,50.628,10.463H40.463Z" transform="translate(5.743 0)" fill="#d49cfe"/>
          <path id="Path_919301" data-name="Path 919301" d="M56,13.96a2.974,2.974,0,1,1-2.888,2.973A2.9,2.9,0,0,1,56,13.96" transform="translate(7.538 2.45)" fill="#6bfcf2"/>
          <path id="Path_919302" data-name="Path 919302" d="M2.888,42.992a2.9,2.9,0,0,1,2.888,2.973,2.979,2.979,0,0,1-2.888,2.974A2.979,2.979,0,0,1,0,45.965a2.9,2.9,0,0,1,2.888-2.973" transform="translate(0 7.544)" fill="#6bfcf2"/>
          <path id="Path_919303" data-name="Path 919303" d="M46.719,50.579v5.947H26.5V50.579H46.719Z" transform="translate(3.762 8.875)" fill="#eabf6a"/>
          <path id="Path_919304" data-name="Path 919304" d="M46.719,40.464v5.946H26.5V40.464H46.719Z" transform="translate(3.762 7.1)" fill="#eabf6a"/>
          <path id="Path_919305" data-name="Path 919305" d="M44.19,45.521v5.946H23.974V45.521H44.19Z" transform="translate(3.403 7.988)" fill="#f7d694"/>
          <path id="Path_919306" data-name="Path 919306" d="M44.19,35.405v5.947H23.974V35.405H44.19Z" transform="translate(3.403 6.213)" fill="#f7d694"/>
          <path id="Path_919307" data-name="Path 919307" d="M34.995,22.761a7.494,7.494,0,1,0,7.278,7.491,7.355,7.355,0,0,0-7.278-7.491" transform="translate(3.934 3.994)" fill="#ffd24d"/>
          <path id="Path_919308" data-name="Path 919308" d="M54.509,3.844a1.546,1.546,0,1,1-1.5,1.546,1.552,1.552,0,0,1,1.5-1.546" transform="translate(7.523 0.675)" fill="#6bfcf2"/>
          <path id="Path_919309" data-name="Path 919309" d="M54.509,36.721a1.546,1.546,0,1,1-1.5,1.547,1.552,1.552,0,0,1,1.5-1.547" transform="translate(7.523 6.444)" fill="#6bfcf2"/>
          <path id="Path_919310" data-name="Path 919310" d="M34.319,28.792V27.6c-.462,0-.693.237-.693.595,0,.119,0,.356.115.356.115.119.347.119.578.239m.462.118a7.04,7.04,0,0,1,1.27.357,1.794,1.794,0,0,1,1.271,1.9,2.3,2.3,0,0,1-.231.952,3.135,3.135,0,0,1-.578.714,3.816,3.816,0,0,1-1.617.595v1.188H34.2V33.429a6.423,6.423,0,0,1-2.542-.833l.693-1.427a.4.4,0,0,0,.232.12,3.989,3.989,0,0,0,1.039.475,1.418,1.418,0,0,0,.693.12V30.574c-.231-.118-.808-.237-1.271-.475a1.8,1.8,0,0,1-1.039-1.664,2.29,2.29,0,0,1,.231-.951,2.489,2.489,0,0,1,2.079-1.427v-1.07h.693v1.07a3.341,3.341,0,0,1,1.156.237,6.787,6.787,0,0,1,.924.476L36.4,28.2l-.115-.12a2.445,2.445,0,0,0-.808-.356A1.02,1.02,0,0,0,34.9,27.6Zm0,1.784v1.19c.461,0,.808-.237.808-.595,0-.12-.115-.357-.231-.357-.232-.118-.347-.237-.578-.237" transform="translate(4.494 4.385)" fill="#fff"/>
          <path id="Path_919311" data-name="Path 919311" d="M3.93,3.844a1.546,1.546,0,0,1,0,3.091,1.546,1.546,0,0,1,0-3.091" transform="translate(0.345 0.675)" fill="#6bfcf2"/>
          <path id="Path_919312" data-name="Path 919312" d="M3.93,35.4a1.552,1.552,0,0,1,1.5,1.546,1.45,1.45,0,0,1-1.5,1.427,1.552,1.552,0,0,1-1.5-1.546A1.45,1.45,0,0,1,3.93,35.4" transform="translate(0.345 6.213)" fill="#6bfcf2"/>
          <path id="Path_919313" data-name="Path 919313" d="M38.65,18.165H14.045a1.547,1.547,0,0,1,0-3.093H38.65a1.553,1.553,0,0,1,1.5,1.547,1.738,1.738,0,0,1-1.5,1.546" transform="translate(1.78 2.645)" fill="#74829c"/>
          <path id="Path_919314" data-name="Path 919314" d="M38.65,14.421H14.045a1.546,1.546,0,0,1,0-3.091H38.65a1.552,1.552,0,0,1,1.5,1.546,1.738,1.738,0,0,1-1.5,1.546" transform="translate(1.78 1.988)" fill="#74829c"/>
          <path id="Path_919315" data-name="Path 919315" d="M24.211,10.578H14.046a1.547,1.547,0,0,1,0-3.093H24.211a1.553,1.553,0,0,1,1.5,1.547,1.738,1.738,0,0,1-1.5,1.546" transform="translate(1.78 1.314)" fill="#65b2fe"/>
          <path id="Path_919316" data-name="Path 919316" d="M18.435,51.04h-4.39a1.546,1.546,0,0,1,0-3.091h4.39a1.552,1.552,0,0,1,1.5,1.547,1.736,1.736,0,0,1-1.5,1.545" transform="translate(1.78 8.414)" fill="#74829c"/>
          <path id="Path_919317" data-name="Path 919317" d="M18.435,47.3h-4.39a1.547,1.547,0,0,1,0-3.093h4.39a1.553,1.553,0,0,1,1.5,1.547,1.738,1.738,0,0,1-1.5,1.546" transform="translate(1.78 7.757)" fill="#74829c"/>
          <path id="Path_919318" data-name="Path 919318" d="M18.435,43.453h-4.39a1.546,1.546,0,0,1,0-3.091h4.39a1.553,1.553,0,0,1,1.5,1.547,1.736,1.736,0,0,1-1.5,1.545" transform="translate(1.78 7.083)" fill="#74829c"/>
        </g>
      </g>
    </g>
  </g>
</svg>
