<svg xmlns="http://www.w3.org/2000/svg" xmlns:xlink="http://www.w3.org/1999/xlink" width="295" height="214.188" viewBox="0 0 295 214.188">
  <defs>
    <clipPath id="clip-path">
      <rect id="Rectangle_407661" data-name="Rectangle 407661" width="257.163" height="214.188" fill="none"/>
    </clipPath>
  </defs>
  <g id="Group_1114680" data-name="Group 1114680" transform="translate(-284.711 -5652.667)">
    <rect id="Rectangle_407077" data-name="Rectangle 407077" width="295" height="118" rx="20" transform="translate(284.711 5745)" fill="#e9d6fa"/>
    <g id="Group_1114679" data-name="Group 1114679" transform="translate(303.63 5652.667)">
      <g id="Group_1114678" data-name="Group 1114678" clip-path="url(#clip-path)">
        <path id="Path_919528" data-name="Path 919528" d="M93.314,57.9l3.825-2.066-1.917-5.979A24.151,24.151,0,0,0,99.6,45.724l5.858,2.25,2.28-3.7-4.653-4.221a24.413,24.413,0,0,0,1.722-5.769l6.2-.98.124-4.345L105,27.63a24.07,24.07,0,0,0-1.4-5.858l4.881-3.949L106.422,14l-5.977,1.917a24.121,24.121,0,0,0-4.135-4.38l2.252-5.857-3.7-2.28L90.638,8.049a24.485,24.485,0,0,0-5.767-1.721l-.98-6.2L79.545,0,78.216,6.134a24.073,24.073,0,0,0-5.858,1.4L68.409,2.648,64.584,4.714l1.917,5.98a24.109,24.109,0,0,0-4.379,4.135l-5.858-2.252-2.28,3.7L58.638,20.5a24.293,24.293,0,0,0-1.724,5.767l-6.2.98-.124,4.345L56.72,32.92a24.08,24.08,0,0,0,1.4,5.86l-4.881,3.949L55.3,46.553l5.979-1.917a24.11,24.11,0,0,0,4.133,4.38l-2.25,5.857,3.7,2.279L71.086,52.5a24.488,24.488,0,0,0,5.767,1.722l.98,6.2,4.345.124,1.329-6.134a24.123,24.123,0,0,0,5.858-1.4ZM88.321,44.083a15.62,15.62,0,0,0,6.9-7.48l4.323,1.291A20.179,20.179,0,0,1,76.989,50.079l1.291-4.323a15.626,15.626,0,0,0,10.041-1.673m8.022-11.225a15.7,15.7,0,0,0-9.154-16.944l1.291-4.322a20.178,20.178,0,0,1,12.185,22.555ZM83.442,14.8A15.689,15.689,0,0,0,66.5,23.948l-4.323-1.292A20.175,20.175,0,0,1,84.733,10.473Zm-18.06,12.9a15.689,15.689,0,0,0,9.152,16.943L73.244,48.96A20.178,20.178,0,0,1,61.057,26.4Zm26.7,5.932a11.713,11.713,0,1,1-.919-8.915,11.68,11.68,0,0,1,.919,8.915" transform="translate(21.238)" fill="#d3dce3" fill-rule="evenodd"/>
        <path id="Path_919529" data-name="Path 919529" d="M113.427,67.356l2.171-1.788-1.961-3.558a15.613,15.613,0,0,0,2.266-3.169l4,.7.985-2.634-3.477-2.1a15.868,15.868,0,0,0,.376-3.875l3.816-1.394-.463-2.774-4.058-.081a15.6,15.6,0,0,0-1.616-3.545l2.608-3.114-1.789-2.171-3.557,1.961a15.581,15.581,0,0,0-3.169-2.267l.7-4-2.632-.987-2.1,3.477a15.8,15.8,0,0,0-3.875-.375l-1.4-3.817-2.773.461L97.4,36.37a15.659,15.659,0,0,0-3.545,1.614l-3.115-2.607-2.169,1.788,1.961,3.558a15.519,15.519,0,0,0-2.266,3.169l-4-.7-.987,2.634,3.479,2.1a15.728,15.728,0,0,0-.375,3.875l-3.818,1.394.461,2.774,4.061.08A15.6,15.6,0,0,0,88.7,59.6L86.1,62.709l1.786,2.171,3.557-1.959a15.607,15.607,0,0,0,3.172,2.265l-.7,4,2.635.985,2.1-3.477a15.808,15.808,0,0,0,3.876.375l1.393,3.817,2.774-.461.081-4.059a15.6,15.6,0,0,0,3.545-1.616Zm-3.047-5.912a13.053,13.053,0,1,1,1.782-18.374,13.052,13.052,0,0,1-1.782,18.374" transform="translate(34.664 13.371)" fill="#d3dce3" fill-rule="evenodd"/>
        <path id="Path_919530" data-name="Path 919530" d="M121.764,49.157l3.109-1.252-.953-4.744a18.6,18.6,0,0,0,3.71-2.787l4.292,2.229,2.064-2.638-3.2-3.635a18.863,18.863,0,0,0,1.816-4.268l4.835-.214.47-3.317-4.582-1.548a18.541,18.541,0,0,0-.564-4.606l4.078-2.6-1.251-3.107-4.744.953a18.575,18.575,0,0,0-2.789-3.711l2.229-4.292L127.65,7.552l-3.633,3.2a18.814,18.814,0,0,0-4.269-1.817L119.533,4.1l-3.317-.469-1.548,4.583a18.474,18.474,0,0,0-4.606.564l-2.6-4.079-3.107,1.251.953,4.745a18.616,18.616,0,0,0-3.711,2.789L97.3,11.251l-2.066,2.638,3.2,3.633a18.84,18.84,0,0,0-1.817,4.269l-4.836.214-.469,3.317L95.9,26.869a18.63,18.63,0,0,0,.564,4.609l-4.078,2.6,1.252,3.107,4.744-.953a18.508,18.508,0,0,0,2.789,3.711l-2.231,4.292,2.638,2.064,3.633-3.2a18.773,18.773,0,0,0,4.269,1.816l.214,4.837,3.317.469,1.548-4.583a18.549,18.549,0,0,0,4.606-.564Zm-2.631-11.012a12.1,12.1,0,1,1,6.608-6.483,12.064,12.064,0,0,1-6.608,6.483m3.782-7.684a9.026,9.026,0,1,1,.067-6.907,8.994,8.994,0,0,1-.067,6.907m-2.49,10.889a15.55,15.55,0,1,1,8.61-20.234,15.55,15.55,0,0,1-8.61,20.234" transform="translate(38.336 1.524)" fill="#d3dce3" fill-rule="evenodd"/>
        <rect id="Rectangle_407610" data-name="Rectangle 407610" width="55.446" height="132.744" transform="translate(0 50.709)" fill="#004f61"/>
        <rect id="Rectangle_407611" data-name="Rectangle 407611" width="49.661" height="16.307" transform="translate(2.892 55.549)" fill="#06677d"/>
        <rect id="Rectangle_407612" data-name="Rectangle 407612" width="35.695" height="2.594" transform="translate(14.171 62.406)" fill="#067c96"/>
        <rect id="Rectangle_407613" data-name="Rectangle 407613" width="35.695" height="2.594" transform="translate(14.171 57.544)" fill="#067c96"/>
        <rect id="Rectangle_407614" data-name="Rectangle 407614" width="35.695" height="2.594" transform="translate(14.171 67.267)" fill="#067c96"/>
        <path id="Path_919531" data-name="Path 919531" d="M6.66,43.415a2.062,2.062,0,1,0,2.062,2.062A2.061,2.061,0,0,0,6.66,43.415" transform="translate(1.93 18.227)" fill="#268a34" fill-rule="evenodd"/>
        <rect id="Rectangle_407615" data-name="Rectangle 407615" width="49.661" height="16.307" transform="translate(2.891 75.972)" fill="#06677d"/>
        <rect id="Rectangle_407616" data-name="Rectangle 407616" width="35.696" height="2.594" transform="translate(5.579 82.829)" fill="#067c96"/>
        <rect id="Rectangle_407617" data-name="Rectangle 407617" width="35.696" height="2.594" transform="translate(5.579 77.967)" fill="#067c96"/>
        <rect id="Rectangle_407618" data-name="Rectangle 407618" width="35.696" height="2.594" transform="translate(5.579 87.69)" fill="#067c96"/>
        <path id="Path_919532" data-name="Path 919532" d="M33.609,57.8a2.062,2.062,0,1,1-2.06,2.062,2.061,2.061,0,0,1,2.06-2.062" transform="translate(13.245 24.266)" fill="#268a34" fill-rule="evenodd"/>
        <rect id="Rectangle_407619" data-name="Rectangle 407619" width="49.661" height="16.307" transform="translate(2.892 96.805)" fill="#06677d"/>
        <rect id="Rectangle_407620" data-name="Rectangle 407620" width="35.695" height="2.595" transform="translate(14.171 103.662)" fill="#067c96"/>
        <rect id="Rectangle_407621" data-name="Rectangle 407621" width="35.695" height="2.594" transform="translate(14.171 98.8)" fill="#067c96"/>
        <rect id="Rectangle_407622" data-name="Rectangle 407622" width="35.695" height="2.594" transform="translate(14.171 108.525)" fill="#067c96"/>
        <path id="Path_919533" data-name="Path 919533" d="M6.66,72.472a2.062,2.062,0,1,0,2.062,2.062A2.061,2.061,0,0,0,6.66,72.472" transform="translate(1.93 30.426)" fill="#268a34" fill-rule="evenodd"/>
        <rect id="Rectangle_407623" data-name="Rectangle 407623" width="49.661" height="16.307" transform="translate(2.891 117.228)" fill="#06677d"/>
        <rect id="Rectangle_407624" data-name="Rectangle 407624" width="35.696" height="2.594" transform="translate(5.579 124.085)" fill="#067c96"/>
        <rect id="Rectangle_407625" data-name="Rectangle 407625" width="35.696" height="2.594" transform="translate(5.579 119.223)" fill="#067c96"/>
        <rect id="Rectangle_407626" data-name="Rectangle 407626" width="35.696" height="2.595" transform="translate(5.579 128.946)" fill="#067c96"/>
        <path id="Path_919534" data-name="Path 919534" d="M33.609,86.856a2.062,2.062,0,1,1-2.06,2.062,2.061,2.061,0,0,1,2.06-2.062" transform="translate(13.245 36.465)" fill="#268a34" fill-rule="evenodd"/>
        <rect id="Rectangle_407627" data-name="Rectangle 407627" width="49.661" height="16.307" transform="translate(2.892 138.309)" fill="#06677d"/>
        <rect id="Rectangle_407628" data-name="Rectangle 407628" width="35.695" height="2.594" transform="translate(14.171 145.165)" fill="#067c96"/>
        <rect id="Rectangle_407629" data-name="Rectangle 407629" width="35.695" height="2.594" transform="translate(14.171 140.302)" fill="#067c96"/>
        <rect id="Rectangle_407630" data-name="Rectangle 407630" width="35.695" height="2.594" transform="translate(14.171 150.026)" fill="#067c96"/>
        <path id="Path_919535" data-name="Path 919535" d="M6.66,101.7a2.062,2.062,0,1,0,2.062,2.062A2.061,2.061,0,0,0,6.66,101.7" transform="translate(1.93 42.698)" fill="#268a34" fill-rule="evenodd"/>
        <rect id="Rectangle_407631" data-name="Rectangle 407631" width="49.661" height="16.307" transform="translate(2.891 158.731)" fill="#06677d"/>
        <rect id="Rectangle_407632" data-name="Rectangle 407632" width="35.696" height="2.594" transform="translate(5.579 165.588)" fill="#067c96"/>
        <rect id="Rectangle_407633" data-name="Rectangle 407633" width="35.696" height="2.594" transform="translate(5.579 160.726)" fill="#067c96"/>
        <rect id="Rectangle_407634" data-name="Rectangle 407634" width="35.696" height="2.594" transform="translate(5.579 170.449)" fill="#067c96"/>
        <path id="Path_919536" data-name="Path 919536" d="M33.609,116.087a2.061,2.061,0,1,1-2.06,2.062,2.061,2.061,0,0,1,2.06-2.062" transform="translate(13.245 48.737)" fill="#268a34" fill-rule="evenodd"/>
        <rect id="Rectangle_407635" data-name="Rectangle 407635" width="57.549" height="137.78" transform="translate(49.846 45.936)" fill="#00657c"/>
        <rect id="Rectangle_407636" data-name="Rectangle 407636" width="51.546" height="16.926" transform="translate(52.846 50.959)" fill="#067c96"/>
        <rect id="Rectangle_407637" data-name="Rectangle 407637" width="37.049" height="2.692" transform="translate(64.555 58.075)" fill="#0393b0"/>
        <rect id="Rectangle_407638" data-name="Rectangle 407638" width="37.049" height="2.692" transform="translate(64.555 53.029)" fill="#0393b0"/>
        <rect id="Rectangle_407639" data-name="Rectangle 407639" width="37.049" height="2.692" transform="translate(64.555 63.123)" fill="#0393b0"/>
        <path id="Path_919537" data-name="Path 919537" d="M42.019,40.344a2.14,2.14,0,1,0,2.14,2.14,2.14,2.14,0,0,0-2.14-2.14" transform="translate(16.742 16.938)" fill="#3ab54a" fill-rule="evenodd"/>
        <rect id="Rectangle_407640" data-name="Rectangle 407640" width="51.546" height="16.926" transform="translate(52.848 72.157)" fill="#067c96"/>
        <rect id="Rectangle_407641" data-name="Rectangle 407641" width="37.049" height="2.693" transform="translate(55.636 79.273)" fill="#0393b0"/>
        <rect id="Rectangle_407642" data-name="Rectangle 407642" width="37.049" height="2.692" transform="translate(55.636 74.227)" fill="#0393b0"/>
        <rect id="Rectangle_407643" data-name="Rectangle 407643" width="37.049" height="2.692" transform="translate(55.636 84.321)" fill="#0393b0"/>
        <path id="Path_919538" data-name="Path 919538" d="M69.992,55.274a2.14,2.14,0,1,1-2.14,2.141,2.141,2.141,0,0,1,2.14-2.141" transform="translate(28.486 23.206)" fill="#3ab54a" fill-rule="evenodd"/>
        <rect id="Rectangle_407644" data-name="Rectangle 407644" width="51.546" height="16.926" transform="translate(52.846 93.781)" fill="#067c96"/>
        <rect id="Rectangle_407645" data-name="Rectangle 407645" width="37.049" height="2.692" transform="translate(64.555 100.897)" fill="#0393b0"/>
        <rect id="Rectangle_407646" data-name="Rectangle 407646" width="37.049" height="2.693" transform="translate(64.555 95.851)" fill="#0393b0"/>
        <rect id="Rectangle_407647" data-name="Rectangle 407647" width="37.049" height="2.692" transform="translate(64.555 105.943)" fill="#0393b0"/>
        <path id="Path_919539" data-name="Path 919539" d="M42.019,70.5a2.14,2.14,0,1,0,2.14,2.14,2.14,2.14,0,0,0-2.14-2.14" transform="translate(16.742 29.6)" fill="#3ab54a" fill-rule="evenodd"/>
        <rect id="Rectangle_407648" data-name="Rectangle 407648" width="51.546" height="16.926" transform="translate(52.848 114.979)" fill="#067c96"/>
        <rect id="Rectangle_407649" data-name="Rectangle 407649" width="37.049" height="2.692" transform="translate(55.636 122.095)" fill="#0393b0"/>
        <rect id="Rectangle_407650" data-name="Rectangle 407650" width="37.049" height="2.692" transform="translate(55.636 117.049)" fill="#0393b0"/>
        <rect id="Rectangle_407651" data-name="Rectangle 407651" width="37.049" height="2.692" transform="translate(55.636 127.142)" fill="#0393b0"/>
        <path id="Path_919540" data-name="Path 919540" d="M69.992,85.434a2.14,2.14,0,1,1-2.14,2.14,2.14,2.14,0,0,1,2.14-2.14" transform="translate(28.486 35.868)" fill="#3ab54a" fill-rule="evenodd"/>
        <rect id="Rectangle_407652" data-name="Rectangle 407652" width="51.546" height="16.926" transform="translate(52.846 136.859)" fill="#067c96"/>
        <rect id="Rectangle_407653" data-name="Rectangle 407653" width="37.049" height="2.692" transform="translate(64.555 143.975)" fill="#0393b0"/>
        <rect id="Rectangle_407654" data-name="Rectangle 407654" width="37.049" height="2.692" transform="translate(64.555 138.929)" fill="#0393b0"/>
        <rect id="Rectangle_407655" data-name="Rectangle 407655" width="37.049" height="2.692" transform="translate(64.555 149.021)" fill="#0393b0"/>
        <path id="Path_919541" data-name="Path 919541" d="M42.019,100.844a2.14,2.14,0,1,0,2.14,2.14,2.14,2.14,0,0,0-2.14-2.14" transform="translate(16.742 42.337)" fill="#3ab54a" fill-rule="evenodd"/>
        <rect id="Rectangle_407656" data-name="Rectangle 407656" width="51.546" height="16.926" transform="translate(52.848 158.055)" fill="#067c96"/>
        <rect id="Rectangle_407657" data-name="Rectangle 407657" width="37.049" height="2.692" transform="translate(55.636 165.173)" fill="#0393b0"/>
        <rect id="Rectangle_407658" data-name="Rectangle 407658" width="37.049" height="2.692" transform="translate(55.636 160.126)" fill="#0393b0"/>
        <rect id="Rectangle_407659" data-name="Rectangle 407659" width="37.049" height="2.692" transform="translate(55.636 170.219)" fill="#0393b0"/>
        <path id="Path_919542" data-name="Path 919542" d="M69.992,115.774a2.14,2.14,0,1,1-2.14,2.14,2.139,2.139,0,0,1,2.14-2.14" transform="translate(28.486 48.605)" fill="#3ab54a" fill-rule="evenodd"/>
        <path id="Path_919543" data-name="Path 919543" d="M42.565,127.076l-.124,5.029-9.135-.162,3-5.418Z" transform="translate(13.983 53.119)" fill="#1f1c1d" fill-rule="evenodd"/>
        <path id="Path_919544" data-name="Path 919544" d="M41.942,127.089l.124,5.141,9.135-.168-3-5.537Z" transform="translate(17.609 53.119)" fill="#1f1c1d" fill-rule="evenodd"/>
        <rect id="Rectangle_407660" data-name="Rectangle 407660" width="8.13" height="6.76" transform="translate(54.009 76.113)" fill="#f0c17d"/>
        <path id="Path_919545" data-name="Path 919545" d="M42.817,61.1h.068a4.036,4.036,0,0,0,1.711-.2c.439-.187.653-.619,1.259-1.2.514-.5,1.438-1,1.665-1.542a9.257,9.257,0,0,0,.324-2.33c.478.263.99-1.106,1.093-1.555.148-.662.625-1.788.772-2.543.087-.433.035-.777-.111-.885-.31-.231-.629-.105-1.09.522-.031-.532-.065-1.083-.048-1.665a14.476,14.476,0,0,0-.07-2.769,3.253,3.253,0,0,0-1.071-1.982v0a5.529,5.529,0,0,0-1.177-.791l-.014-.006-.085-.041L46,44.085a.591.591,0,0,0-.068-.031l-.065-.03a.6.6,0,0,0-.072-.03.646.646,0,0,0-.064-.03c-.031-.013-.061-.026-.094-.035l-.044-.018c-.044-.018-.089-.034-.138-.051h0a7.664,7.664,0,0,0-3.684-.349,6.261,6.261,0,0,0-3.251,1.43,3.25,3.25,0,0,0-1.065,1.975,14.412,14.412,0,0,0-.077,2.757c.017.586-.02,1.14-.051,1.675-.454-.612-.77-.734-1.078-.5-.145.108-.2.452-.112.885.148.755.625,1.881.775,2.543.1.444.6,1.786,1.075,1.563A8.874,8.874,0,0,0,38.3,58.1c.226.542,1.143,1.055,1.654,1.555.6.591.815,1.024,1.252,1.218a3.8,3.8,0,0,0,1.616.22" transform="translate(15.152 18.231)" fill="#f0c17d" fill-rule="evenodd"/>
        <path id="Path_919546" data-name="Path 919546" d="M48.976,51.658c1.157-4.69.152-10.231-6.422-9.578-6.182-.332-7.4,5-5.868,9.868.832,5.872,3.3,8.488,6.222,9.223,3.339-1.268,4.563-1.654,6.068-9.513" transform="translate(15.151 17.644)" fill="#632404" fill-rule="evenodd"/>
        <path id="Path_919547" data-name="Path 919547" d="M41.424,98.106l.674,48.746,3.754.73,3.6-.914L52.128,94.93,50.649,82.153l-9.714-1.376v17.1Z" transform="translate(17.185 33.913)" fill="#05345e" fill-rule="evenodd"/>
        <path id="Path_919548" data-name="Path 919548" d="M41.543,98.106l.653,48.746,3.626.751L46.842,89.82l-.264-8.261-5.688-.782-.24,14.042.138,3.055Z" transform="translate(17.066 33.913)" fill="#032747" fill-rule="evenodd"/>
        <path id="Path_919549" data-name="Path 919549" d="M43.514,98.106,42.3,146.544l-3.162.5-3.635-1.177-2.7-50.935,1.479-12.777L44,80.777v17.1Z" transform="translate(13.774 33.913)" fill="#032747" fill-rule="evenodd"/>
        <path id="Path_919550" data-name="Path 919550" d="M41.916,98.094l-.386,48.52-4.038.4-.876-57.208.264-8.261,5.749-.741-.1,17.078Z" transform="translate(15.372 33.925)" fill="#05345e" fill-rule="evenodd"/>
        <path id="Path_919551" data-name="Path 919551" d="M38.27,55.793a2.255,2.255,0,0,1-.983,1.735l2.522,4.3h5.222l2.52-4.3a2.249,2.249,0,0,1-.981-1.735c-1.975.849-6.435,1.022-8.3,0" transform="translate(15.654 23.424)" fill="#d8ebed" fill-rule="evenodd"/>
        <path id="Path_919552" data-name="Path 919552" d="M31.375,67.918l2.929,12.2a22.746,22.746,0,0,1,.728,9.519l-1.508,14.887H44.859l.427-8.269.484,8.269H57.1c-.645-6.365-1.474-14.884-.037-20.866l4.221-18.466c.247-1.083-.135-4-1.211-4.349-5.358-1.727-7.477-2.2-9.565-3.88-.792.866-9.369.633-10.456.033-2.063,1.859-3.337,2.486-8.743,4.631-1.986.789-.281,4.861.062,6.3" transform="translate(12.749 23.913)" fill="#05345e" fill-rule="evenodd"/>
        <path id="Path_919553" data-name="Path 919553" d="M23.956,48.855h-.045a.69.69,0,0,0-.707-.547h-.057a.686.686,0,0,0-.711.569h-.048a.683.683,0,0,0-.71-.584h-.058a.678.678,0,0,0-.713.612l-.057.007V48.9a.494.494,0,0,0-.522-.456h-.041a.494.494,0,0,0-.521.456v2.222l-.044,2.59a2.452,2.452,0,0,0,.97,1.769l.361.3.593,3.386H25.3l-.606-3.457a1.426,1.426,0,0,0,.936-1.14l.454-2.3a.616.616,0,0,0-.156-.8l-.5-.4.018-1.012c0-.04,0-.08,0-.118V45.307a.715.715,0,0,0-.713-.713H24.67a.716.716,0,0,0-.714.713Z" transform="translate(8.28 18.722)" fill="#f0c07d" fill-rule="evenodd"/>
        <path id="Path_919554" data-name="Path 919554" d="M23.36,71.69c-.679.253-2.231-.547-3.119-1.776-2.772-3.832,2.662-5.282,4.714-6.256l8.6-2.652c4.384-1.868,2.439,1.4,4.691,2.712l.48,5.437Z" transform="translate(8.174 25.375)" fill="#05345e" fill-rule="evenodd"/>
        <path id="Path_919555" data-name="Path 919555" d="M20.405,53.523l.038-.835,4.531-.159.067,1.323Z" transform="translate(8.567 22.053)" fill="#d8ebed" fill-rule="evenodd"/>
        <path id="Path_919556" data-name="Path 919556" d="M26.356,70.367l-.824-17.428-4.961.267-1.08,16.158a10.48,10.48,0,0,0,.151,2.367c.588,2.228,5.716-.487,6.714-1.363" transform="translate(8.182 22.225)" fill="#05345e" fill-rule="evenodd"/>
        <path id="Path_919557" data-name="Path 919557" d="M62.7,48.731l.6,2.411c.058.23-2.733,2.059-2.614,1.009l.175-1.555-1.082-2.025a4.416,4.416,0,0,1,.376-1.988.471.471,0,0,1,.666.014c.365.381,1.758,1.637,1.881,2.133" transform="translate(25.083 19.503)" fill="#f0c07d" fill-rule="evenodd"/>
        <path id="Path_919558" data-name="Path 919558" d="M60.885,46.061l1.928,2.013a.407.407,0,0,1,.055.067.86.86,0,0,1,.186.381l.63,2.523a4.474,4.474,0,0,1-.054.975c-.055.229-.209-.183-.4-.19-.535-.02-1.167.694-1.194-.656l-.05-2.391L60.1,46.812a.543.543,0,0,1,.784-.751" transform="translate(25.166 19.264)" fill="#ffdba7" fill-rule="evenodd"/>
        <path id="Path_919559" data-name="Path 919559" d="M59.487,49.233l1.1.177c.172.028,1.028,1.905,2.036.017.173-.324,1.722-.094,1.708.273a8.311,8.311,0,0,1-.275,2.133,7.171,7.171,0,0,1-1.746,2.228l-.348,3.229L59.45,56.278,59,54.251c-.078-.359-.693-.916-.613-1.443l.395-2.637c.054-.363.341-1,.7-.939" transform="translate(24.511 20.668)" fill="#ffdba7" fill-rule="evenodd"/>
        <path id="Path_919560" data-name="Path 919560" d="M60.941,41a5.39,5.39,0,1,0,5.391,5.39A5.391,5.391,0,0,0,60.941,41" transform="translate(23.322 17.214)" fill="#a5c2d9" fill-rule="evenodd"/>
        <path id="Path_919561" data-name="Path 919561" d="M59.919,43.438a1.935,1.935,0,1,0,1.934,1.934,1.934,1.934,0,0,0-1.934-1.934" transform="translate(24.344 18.237)" fill="#676e73" fill-rule="evenodd"/>
        <path id="Path_919562" data-name="Path 919562" d="M60.2,46.608h0a.647.647,0,0,1,.622.672c-.043,1.166-.266,2.405-.243,3.569l.07,1.083a.628.628,0,0,1-.67.623c-.356-.014-.395-.4-.623-.673l-.65-.778.823-3.873a.7.7,0,0,1,.672-.623" transform="translate(24.646 19.567)" fill="#ffdba7" fill-rule="evenodd"/>
        <path id="Path_919563" data-name="Path 919563" d="M62.237,72.033c.652.342,2.323-.268,3.376-1.4,3.285-3.517-2.016-5.672-3.966-6.916l-6.784-3.236c-5.689-2.539-4.2.565-6.645,1.606l-1.176,5.428Z" transform="translate(19.75 24.984)" fill="#05345e" fill-rule="evenodd"/>
        <path id="Path_919564" data-name="Path 919564" d="M62.888,53.746l.065-.848L58.4,52.161l-.236,1.328Z" transform="translate(24.42 21.899)" fill="#d8ebed" fill-rule="evenodd"/>
        <path id="Path_919565" data-name="Path 919565" d="M56.009,70.054,59.056,52.56l4.977.9-.964,16.453a10.648,10.648,0,0,1-.453,2.371c-.876,2.175-5.711-1.218-6.606-2.229" transform="translate(23.514 22.066)" fill="#05345e" fill-rule="evenodd"/>
        <path id="Path_919566" data-name="Path 919566" d="M88.668,129.751c3.308,4.788,4.514,5.421,9.331,6.067,1.5.2,1.988.524,1.949,2.106-4.622.351-8.564.318-13.2.268-.677-1.1-.93-1.8-2.147-1.918l-.115,1.88H80.381l-.206-3.873.973-4.146Z" transform="translate(33.66 54.473)" fill-rule="evenodd"/>
        <path id="Path_919567" data-name="Path 919567" d="M79.248,95.952c-1.1-4.646-1.347-6.423-.765-9.466.728-3.811,2.026-6.117,3.794-9.457l12.974,3.453.663,10.992-1.286,4.147-1.684,18.935-.115,1.112-2.114,37.912-9.293.177-.708-26.612,1.147-12.817a125.2,125.2,0,0,0-2.612-18.377" transform="translate(32.821 32.339)" fill="#111417" fill-rule="evenodd"/>
        <path id="Path_919568" data-name="Path 919568" d="M86.782,130.006c3.307,4.788,4.514,5.422,9.33,6.067,1.5.2,1.989.524,1.951,2.106-4.622.351-8.564.318-13.2.268-.679-1.1-.931-1.8-2.148-1.918l-.115,1.88H78.494l-.2-3.873.971-4.146Z" transform="translate(32.869 54.58)" fill="#1f1c1d" fill-rule="evenodd"/>
        <path id="Path_919569" data-name="Path 919569" d="M78.333,95.749c-.991-4.646-1.19-6.423-.535-9.466.822-3.811,2.177-6.117,4.027-9.458l12.888,3.453.4,10.992-1.387,4.147-2.148,18.935-.141,1.11-3.04,37.914-9.3.176-.058-26.61L80.5,114.125a123.89,123.89,0,0,0-2.164-18.377" transform="translate(32.502 32.253)" fill="#22282e" fill-rule="evenodd"/>
        <path id="Path_919570" data-name="Path 919570" d="M81.565,55.051l5.88,7.441,1.461-1.339c.571-1.225.923-2.466,1.2-3.219.91-2.462,1.391-1.7,3.971-2.431L87.873,41.947l-4.066,4.47c-.251,2.037-.175,3.311-.528,5.517a8.168,8.168,0,0,1-1.714,3.117" transform="translate(34.243 17.611)" fill="#f0c17d" fill-rule="evenodd"/>
        <path id="Path_919571" data-name="Path 919571" d="M94.577,41.294l.784,1.807a7.123,7.123,0,0,1,.278,2.249,7.56,7.56,0,0,1-.051,1.949,6.412,6.412,0,0,0-.5,1.489,5.886,5.886,0,0,0,1.11,2.877c.44.789-.757,1.079-1.445,1.072-.372,0-.434.177-.358.39a1.31,1.31,0,0,0,.321.459c-.106.558-.4.559-1.106.528.7.221.761.437.565,1.178-.48.055-.75.03-.843.42-.315,1.293-.1,2.178-1.769,1.927-1.468-.221-3.964-2.382-4.924-3.533a2.783,2.783,0,0,1-.294-1.844l.082-1.19c-.457-1.462-1.005-2.351-.91-3.278L85.334,46.1l1.948-5.224Z" transform="translate(35.826 17.163)" fill="#ffdba7" fill-rule="evenodd"/>
        <path id="Path_919572" data-name="Path 919572" d="M97.539,45.8c-.172-4.822-3.788-7.1-7.673-7.5-5.07-.531-10.051,4.379-8.4,9.837.649,2.141,1.413,2.644,1.982,5,3.69-1.169,2.317-3,4.433-5.238,2.289-2.421,3.241,1.871,3.794,3.163.439-1.677.981-4.464,2.557-4.221-.224-2.622,1.539-3.409,3.305-1.038" transform="translate(34.067 16.061)" fill="#632404" fill-rule="evenodd"/>
        <path id="Path_919573" data-name="Path 919573" d="M83.619,51.226c-4.262,4.359-6,6.036-6.7,9.517-1.394,6.96.625,12.019,1.489,17.887s1.508,9.08,1.35,13.7a34.259,34.259,0,0,0,16.072-.965c.525-7.849,1.208-11.315,1.157-16.5,1.849-8.988-.754-10.383-4.245-18.526Z" transform="translate(32.093 21.506)" fill="#dde5e6" fill-rule="evenodd"/>
        <path id="Path_919574" data-name="Path 919574" d="M87.433,54.1l-.515,3.291c.494.718,1.1,1.041,1.568,1.82l1.007,5.221c1.512,5.28,1.837,7.812,2.266,15.36,1.623-8.175.75-13.006-2.154-20.991a7.018,7.018,0,0,0-1.691-4.888Z" transform="translate(36.491 22.633)" fill="#333d45" fill-rule="evenodd"/>
        <path id="Path_919575" data-name="Path 919575" d="M82.321,49.936a18.51,18.51,0,0,0,8.251,5.4l-.581,4.054a16.131,16.131,0,0,1-8.732-7.528Z" transform="translate(34.115 20.965)" fill="#ebf4f5" fill-rule="evenodd"/>
        <path id="Path_919576" data-name="Path 919576" d="M76.3,69.716c.151,4.318,1.269,14.069,3.524,15.307a3.636,3.636,0,0,0,1.2.3c2.8.467,4.844-2.622,4.348-3.66l-.816-1.78c-.281-2.78,1.052-11.8,1.4-16.474.379-5.057-.727-7.766-4.306-7.961-6.4-.351-5.506,9.952-5.356,14.269" transform="translate(31.981 23.274)" fill="#ebf4f5" fill-rule="evenodd"/>
        <path id="Path_919577" data-name="Path 919577" d="M143.287,33.152,121.28,39.064,102.541,44.1q0,31.075-.006,62.113t-.007,62.089q8.9,2.364,18.74,4.985,10.406,2.767,22.019,5.857V33.152Z" transform="translate(43.044 13.918)" fill="#00657c" fill-rule="evenodd"/>
        <path id="Path_919578" data-name="Path 919578" d="M140.278,37.349l-19.543,4.866q-8.849,2.2-16.91,4.211,0,7.7,0,15.384l16.912-3.1q9.286-1.7,19.543-3.582Z" transform="translate(43.588 15.68)" fill="#067c96" fill-rule="evenodd"/>
        <path id="Path_919579" data-name="Path 919579" d="M135.826,42.969l-14.1,3.122q-6.558,1.45-12.7,2.81V51.42l12.7-2.679,14.1-2.973Z" transform="translate(45.775 18.04)" fill="#0393b0" fill-rule="evenodd"/>
        <path id="Path_919580" data-name="Path 919580" d="M135.827,39.261l-14.1,3.4-12.7,3.06V48.25l12.7-2.928,14.1-3.25c0-.933,0-1.864,0-2.811" transform="translate(45.775 16.483)" fill="#0393b0" fill-rule="evenodd"/>
        <path id="Path_919581" data-name="Path 919581" d="M135.826,46.668l-14.1,2.844-12.7,2.563v2.519l12.7-2.431,14.1-2.7Z" transform="translate(45.775 19.593)" fill="#0393b0" fill-rule="evenodd"/>
        <path id="Path_919582" data-name="Path 919582" d="M106.812,47.214a2.267,2.267,0,0,0-1.345,2.262c0,1.08.6,1.849,1.345,1.692a2.276,2.276,0,0,0,1.36-2.277c0-1.093-.613-1.844-1.36-1.677" transform="translate(44.278 19.812)" fill="#3ab54a" fill-rule="evenodd"/>
        <path id="Path_919583" data-name="Path 919583" d="M103.824,59.111q8.067-1.344,16.91-2.833,9.286-1.557,19.544-3.26V70.785L120.735,72.76l-16.912,1.711c0-5.12,0-10.227,0-15.36" transform="translate(43.588 22.259)" fill="#067c96" fill-rule="evenodd"/>
        <path id="Path_919584" data-name="Path 919584" d="M105.035,62.744q5.85-.814,12.094-1.682,6.464-.909,13.395-1.877v2.737q-6.932.892-13.395,1.725L105.035,65.2Z" transform="translate(44.097 24.847)" fill="#0393b0" fill-rule="evenodd"/>
        <path id="Path_919585" data-name="Path 919585" d="M105.035,59.64q5.85-.926,12.094-1.918,6.464-1.037,13.395-2.14v2.725q-6.932,1.027-13.395,2-6.244.935-12.094,1.792Z" transform="translate(44.097 23.335)" fill="#0393b0" fill-rule="evenodd"/>
        <path id="Path_919586" data-name="Path 919586" d="M105.035,65.833l12.094-1.447,13.395-1.6v2.739l-13.395,1.461L105.035,68.3Z" transform="translate(44.097 26.359)" fill="#0393b0" fill-rule="evenodd"/>
        <path id="Path_919587" data-name="Path 919587" d="M126.65,58.176c.931-.132,1.7.744,1.7,1.975a2.34,2.34,0,0,1-1.7,2.431c-.934.118-1.68-.764-1.68-1.978a2.344,2.344,0,0,1,1.68-2.428" transform="translate(52.466 24.418)" fill="#3ab54a" fill-rule="evenodd"/>
        <path id="Path_919588" data-name="Path 919588" d="M140.279,69.006l-19.544,1.62-16.912,1.4q0,7.7,0,15.384l16.912-.29,19.545-.336Z" transform="translate(43.588 28.971)" fill="#067c96" fill-rule="evenodd"/>
        <path id="Path_919589" data-name="Path 919589" d="M103.823,84.709q8.067-.006,16.912-.01l19.545-.013v17.766l-19.547-1.271-16.913-1.1q0-7.68,0-15.372" transform="translate(43.587 35.554)" fill="#067c96" fill-rule="evenodd"/>
        <path id="Path_919590" data-name="Path 919590" d="M105.032,89.284l12.1.327,13.395.361v2.74l-13.395-.5-12.1-.453Z" transform="translate(44.096 37.484)" fill="#0393b0" fill-rule="evenodd"/>
        <path id="Path_919591" data-name="Path 919591" d="M105.033,86.034l12.1.091,13.395.1v2.725l-13.395-.239-12.1-.216q0-1.231,0-2.459" transform="translate(44.096 36.12)" fill="#0393b0" fill-rule="evenodd"/>
        <path id="Path_919592" data-name="Path 919592" d="M105.032,92.535l12.1.564,13.395.623v2.739q-6.932-.4-13.395-.764l-12.1-.69Z" transform="translate(44.096 38.849)" fill="#0393b0" fill-rule="evenodd"/>
        <path id="Path_919593" data-name="Path 919593" d="M126.649,89.284a2.07,2.07,0,0,1,1.7,2.258c0,1.23-.767,2.185-1.7,2.148a2.077,2.077,0,0,1-1.68-2.258c0-1.214.747-2.171,1.68-2.148" transform="translate(52.466 37.484)" fill="#3ab54a" fill-rule="evenodd"/>
        <path id="Path_919594" data-name="Path 919594" d="M140.28,101.776l-19.547-1.648L103.82,98.7q0,7.7,0,15.372l16.914,2.536,19.547,2.931Z" transform="translate(43.586 41.438)" fill="#067c96" fill-rule="evenodd"/>
        <path id="Path_919595" data-name="Path 919595" d="M135.831,106.833l-14.1-1.577q-6.566-.737-12.7-1.421c0,.852,0,1.692,0,2.532l12.7,1.553,14.1,1.725Z" transform="translate(45.772 43.593)" fill="#0393b0" fill-rule="evenodd"/>
        <path id="Path_919596" data-name="Path 919596" d="M135.831,102.979l-14.1-1.3-12.7-1.173v2.517l12.7,1.3,14.1,1.448Z" transform="translate(45.773 42.195)" fill="#0393b0" fill-rule="evenodd"/>
        <path id="Path_919597" data-name="Path 919597" d="M135.831,110.686l-14.1-1.853-12.7-1.67v2.532l12.7,1.8,14.106,2Z" transform="translate(45.772 44.99)" fill="#0393b0" fill-rule="evenodd"/>
        <path id="Path_919598" data-name="Path 919598" d="M106.807,103.033c-.745-.081-1.345.726-1.345,1.813s.6,2.035,1.345,2.128,1.356-.713,1.356-1.812-.611-2.049-1.356-2.13" transform="translate(44.276 43.254)" fill="#3ab54a" fill-rule="evenodd"/>
        <path id="Path_919599" data-name="Path 919599" d="M103.82,112.271l16.913,2.817q9.286,1.546,19.548,3.256v17.779l-19.55-4.539-16.914-3.929q0-7.678,0-15.384" transform="translate(43.586 47.135)" fill="#067c96" fill-rule="evenodd"/>
        <path id="Path_919600" data-name="Path 919600" d="M105.03,117.065l12.1,2.348,13.4,2.6v2.725L117.127,122l-12.1-2.475Z" transform="translate(44.095 49.147)" fill="#0393b0" fill-rule="evenodd"/>
        <path id="Path_919601" data-name="Path 919601" d="M105.03,113.805q5.844,1.022,12.1,2.111l13.4,2.338v2.739l-13.4-2.479-12.1-2.238Z" transform="translate(44.095 47.779)" fill="#0393b0" fill-rule="evenodd"/>
        <path id="Path_919602" data-name="Path 919602" d="M105.029,120.315l12.1,2.586q6.455,1.38,13.4,2.864v2.725l-13.4-3-12.1-2.712Z" transform="translate(44.094 50.512)" fill="#0393b0" fill-rule="evenodd"/>
        <path id="Path_919603" data-name="Path 919603" d="M126.648,120.592a2.54,2.54,0,0,1,1.7,2.543c0,1.222-.767,2.072-1.7,1.877a2.564,2.564,0,0,1-1.68-2.551c0-1.208.747-2.046,1.68-1.868" transform="translate(52.465 50.618)" fill="#3ab54a" fill-rule="evenodd"/>
        <path id="Path_919604" data-name="Path 919604" d="M131.236,33.231l12.194,4.741V175.1l-12.194,4.011Z" transform="translate(55.097 13.951)" fill="#004554" fill-rule="evenodd"/>
        <path id="Path_919605" data-name="Path 919605" d="M150.913,81.51l-36.456.657L79.152,86.238l36.458-.626Z" transform="translate(33.231 34.221)" fill="#0393b0" fill-rule="evenodd"/>
        <path id="Path_919606" data-name="Path 919606" d="M115.565,79.505,79.114,80.63l.054,6.45,36.458-.626Z" transform="translate(33.214 33.379)" fill="#13b1d1" fill-rule="evenodd"/>
        <path id="Path_919607" data-name="Path 919607" d="M140.157,83.425l-.055-6.476-13.845.91-21.483.548.081,9.12Z" transform="translate(43.987 32.306)" fill="#0d9cb8" fill-rule="evenodd"/>
        <path id="Path_919608" data-name="Path 919608" d="M150.913,76.94l-36.456.657L79.152,81.668l36.458-.626Z" transform="translate(33.231 32.302)" fill="#0393b0" fill-rule="evenodd"/>
        <path id="Path_919609" data-name="Path 919609" d="M110.6,79.038,91.98,78.964l14.641-1.7,11.53-.133Z" transform="translate(38.616 32.383)" fill="#032747" fill-rule="evenodd"/>
        <path id="Path_919610" data-name="Path 919610" d="M111.266,64.292l15.147-.317-5.9,20.039L105.344,85.48Z" transform="translate(44.226 26.859)" fill="#084478" fill-rule="evenodd"/>
        <path id="Path_919611" data-name="Path 919611" d="M111.453,64.2l-.833.014L104.9,84.378l.718,1.005Z" transform="translate(44.039 26.952)" fill="#05345e" fill-rule="evenodd"/>
        <path id="Path_919612" data-name="Path 919612" d="M110.606,78.347l-18.622.108-.013,1.218,19.07-.239Z" transform="translate(38.612 32.893)" fill="#05345e" fill-rule="evenodd"/>
        <path id="Path_919613" data-name="Path 919613" d="M101.6,76.778a.788.788,0,0,1,.026,1.484c-.214.726-1.377,1-1.905,1.194l-.814.311-3.251.053-1.92-.946s-.254-2.064-.214-2.209a14.477,14.477,0,0,1,2.631-1.254c.162.011,5.533,1.315,5.448,1.367" transform="translate(39.261 31.66)" fill="#f0c17d" fill-rule="evenodd"/>
        <path id="Path_919614" data-name="Path 919614" d="M97.853,75.1A12.4,12.4,0,0,1,100.9,75a5.7,5.7,0,0,1,1.539.653c.612.281,1.427.528,2.542,1.041,2.178,1,3.554,1.45,3.464,1.952-.07.4-1.031.46-3.125-.177l-3.585-1.228c-.43.085-.872.19-1.382.291s-1.183.227-1.775.339l-5.739-.135L92.8,76.191c2-.463,3.318-.8,5.05-1.086" transform="translate(38.962 31.465)" fill="#f0c17d" fill-rule="evenodd"/>
        <path id="Path_919615" data-name="Path 919615" d="M98.281,76.791c2.287.08,3.46-.643,4.359,1.092a.894.894,0,0,1-.92,1.266c-.047.667-.63.86-1.186.792-1.089-.136-1.387.372-2.837.3a5.357,5.357,0,0,1-3.636-1.326L90.9,76.622l2.6-.22s4.8.45,4.772.389" transform="translate(38.165 32.076)" fill="#f0c17d" fill-rule="evenodd"/>
        <path id="Path_919616" data-name="Path 919616" d="M80.182,78.865C86.644,80.753,93.2,80.613,100,81.683c.521-2.858.913-3.8,1.714-5.056,0,0-14.041-3.577-19.474-5.251-1.675-.324-7.724,5.718-2.054,7.488" transform="translate(32.666 29.961)" fill="#ebf4f5" fill-rule="evenodd"/>
        <path id="Path_919617" data-name="Path 919617" d="M185.266,23.242q-13.9,3.736-26.324,7.072l-22.413,6.019q0,37.168-.007,74.294t-.009,74.264l22.416,5.962,26.336,7.005V23.242Z" transform="translate(57.312 9.758)" fill="#00657c" fill-rule="evenodd"/>
        <path id="Path_919618" data-name="Path 919618" d="M181.666,28.261q-12.278,3.056-23.376,5.821l-20.225,5.035v18.4q9.648-1.77,20.225-3.707,11.1-2.036,23.376-4.284Z" transform="translate(57.963 11.865)" fill="#067c96" fill-rule="evenodd"/>
        <path id="Path_919619" data-name="Path 919619" d="M176.341,34.984q-8.73,1.936-16.863,3.734-7.846,1.738-15.186,3.361,0,1.506,0,3.013,7.333-1.546,15.188-3.2,8.121-1.712,16.863-3.558Z" transform="translate(60.577 14.687)" fill="#0393b0" fill-rule="evenodd"/>
        <path id="Path_919620" data-name="Path 919620" d="M176.341,30.549l-16.863,4.065-15.186,3.659V41.3l15.186-3.5,16.863-3.887Z" transform="translate(60.578 12.825)" fill="#0393b0" fill-rule="evenodd"/>
        <path id="Path_919621" data-name="Path 919621" d="M176.341,39.408l-16.863,3.4L144.29,45.875v3.011q7.333-1.4,15.186-2.906l16.865-3.227Z" transform="translate(60.577 16.545)" fill="#0393b0" fill-rule="evenodd"/>
        <path id="Path_919622" data-name="Path 919622" d="M141.636,40.061a2.71,2.71,0,0,0-1.609,2.7c0,1.293.714,2.211,1.609,2.025s1.627-1.417,1.627-2.723-.733-2.206-1.627-2.006" transform="translate(58.788 16.807)" fill="#3ab54a" fill-rule="evenodd"/>
        <path id="Path_919623" data-name="Path 919623" d="M138.064,54.292q9.648-1.608,20.225-3.388,11.1-1.864,23.376-3.9V68.254l-23.376,2.364-20.228,2.045c0-6.122,0-12.233,0-18.371" transform="translate(57.962 19.734)" fill="#067c96" fill-rule="evenodd"/>
        <path id="Path_919624" data-name="Path 919624" d="M139.511,58.636q7-.973,14.467-2.012,7.729-1.086,16.021-2.246v3.276q-8.291,1.067-16.021,2.062l-14.467,1.861Z" transform="translate(58.571 22.83)" fill="#0393b0" fill-rule="evenodd"/>
        <path id="Path_919625" data-name="Path 919625" d="M139.512,54.924q7-1.11,14.465-2.294,7.729-1.24,16.021-2.56v3.259q-8.291,1.231-16.021,2.392-7.469,1.118-14.465,2.144Z" transform="translate(58.571 21.021)" fill="#0393b0" fill-rule="evenodd"/>
        <path id="Path_919626" data-name="Path 919626" d="M139.511,62.332,153.978,60.6q7.725-.92,16.021-1.914v3.274l-16.021,1.748q-7.473.816-14.467,1.579Z" transform="translate(58.571 24.639)" fill="#0393b0" fill-rule="evenodd"/>
        <path id="Path_919627" data-name="Path 919627" d="M165.364,53.174c1.115-.159,2.032.89,2.032,2.361a2.8,2.8,0,0,1-2.032,2.908c-1.117.141-2.009-.913-2.009-2.365a2.8,2.8,0,0,1,2.009-2.9" transform="translate(68.581 22.317)" fill="#3ab54a" fill-rule="evenodd"/>
        <path id="Path_919628" data-name="Path 919628" d="M181.668,66.127l-23.379,1.938L138.062,69.74q0,9.209,0,18.4l20.23-.348q11.1-.192,23.379-.4Z" transform="translate(57.961 27.762)" fill="#067c96" fill-rule="evenodd"/>
        <path id="Path_919629" data-name="Path 919629" d="M176.342,72.533l-16.866.931-15.188.839v3.011l15.188-.68q8.125-.362,16.866-.757Z" transform="translate(60.576 30.452)" fill="#0393b0" fill-rule="evenodd"/>
        <path id="Path_919630" data-name="Path 919630" d="M176.342,68.1,159.476,69.36,144.288,70.5v3.027l15.188-.978,16.866-1.086Z" transform="translate(60.576 28.59)" fill="#0393b0" fill-rule="evenodd"/>
        <path id="Path_919631" data-name="Path 919631" d="M176.342,76.957q-8.732.311-16.866.6l-15.188.542v3.011l15.188-.383,16.866-.426Z" transform="translate(60.576 32.309)" fill="#0393b0" fill-rule="evenodd"/>
        <path id="Path_919632" data-name="Path 919632" d="M141.633,73.333c-.895.053-1.609,1.146-1.609,2.438s.714,2.33,1.609,2.293,1.627-1.147,1.627-2.455-.733-2.327-1.627-2.276" transform="translate(58.786 30.786)" fill="#3ab54a" fill-rule="evenodd"/>
        <path id="Path_919633" data-name="Path 919633" d="M138.06,84.909l20.228-.01q11.107-.006,23.379-.016v21.249l-23.379-1.521-20.23-1.316q0-9.186,0-18.387" transform="translate(57.961 35.636)" fill="#067c96" fill-rule="evenodd"/>
        <path id="Path_919634" data-name="Path 919634" d="M139.508,90.382l14.467.39L170,91.2v3.277l-16.024-.6q-7.469-.277-14.467-.541Z" transform="translate(58.57 37.945)" fill="#0393b0" fill-rule="evenodd"/>
        <path id="Path_919635" data-name="Path 919635" d="M139.508,86.494l14.468.108q7.729.055,16.023.119V89.98l-16.023-.287-14.468-.258Z" transform="translate(58.57 36.313)" fill="#0393b0" fill-rule="evenodd"/>
        <path id="Path_919636" data-name="Path 919636" d="M139.508,94.27l14.467.674q7.72.358,16.024.745v3.276l-16.024-.914-14.468-.825c0-.98,0-1.961,0-2.956" transform="translate(58.569 39.577)" fill="#0393b0" fill-rule="evenodd"/>
        <path id="Path_919637" data-name="Path 919637" d="M165.364,90.381a2.476,2.476,0,0,1,2.033,2.7c0,1.471-.917,2.614-2.033,2.568a2.482,2.482,0,0,1-2.009-2.7c0-1.452.893-2.6,2.009-2.57" transform="translate(68.581 37.945)" fill="#3ab54a" fill-rule="evenodd"/>
        <path id="Path_919638" data-name="Path 919638" d="M181.669,105.323l-23.382-1.971-20.23-1.705v18.387l20.23,3.033,23.382,3.506Z" transform="translate(57.961 42.674)" fill="#067c96" fill-rule="evenodd"/>
        <path id="Path_919639" data-name="Path 919639" d="M176.348,111.372q-8.74-.975-16.873-1.887-7.85-.88-15.188-1.7c0,1.018,0,2.022,0,3.026l15.189,1.859,16.873,2.064Z" transform="translate(60.575 45.252)" fill="#0393b0" fill-rule="evenodd"/>
        <path id="Path_919640" data-name="Path 919640" d="M176.347,106.764l-16.872-1.558q-7.852-.724-15.189-1.4v3.013l15.188,1.56,16.873,1.732Z" transform="translate(60.576 43.58)" fill="#0393b0" fill-rule="evenodd"/>
        <path id="Path_919641" data-name="Path 919641" d="M176.348,115.981l-16.873-2.216-15.189-2V114.8l15.189,2.155,16.873,2.394Z" transform="translate(60.575 46.923)" fill="#0393b0" fill-rule="evenodd"/>
        <path id="Path_919642" data-name="Path 919642" d="M141.63,106.827c-.892-.1-1.609.869-1.609,2.169s.716,2.434,1.609,2.546,1.624-.852,1.624-2.167-.731-2.452-1.624-2.549" transform="translate(58.785 44.846)" fill="#3ab54a" fill-rule="evenodd"/>
        <path id="Path_919643" data-name="Path 919643" d="M138.056,117.877l20.233,3.369q11.107,1.849,23.38,3.893v21.266q-12.28-2.85-23.382-5.428-10.589-2.46-20.233-4.7,0-9.186,0-18.4" transform="translate(57.96 49.488)" fill="#067c96" fill-rule="evenodd"/>
        <path id="Path_919644" data-name="Path 919644" d="M139.505,123.61q6.99,1.359,14.468,2.81,7.722,1.5,16.026,3.111v3.26l-16.026-3.28q-7.471-1.529-14.468-2.96Z" transform="translate(58.568 51.895)" fill="#0393b0" fill-rule="evenodd"/>
        <path id="Path_919645" data-name="Path 919645" d="M139.505,119.712l14.468,2.524,16.026,2.8v3.276l-16.026-2.966-14.468-2.676Z" transform="translate(58.568 50.259)" fill="#0393b0" fill-rule="evenodd"/>
        <path id="Path_919646" data-name="Path 919646" d="M139.5,127.5l14.469,3.092L170,134.016v3.258l-16.026-3.592q-7.471-1.676-14.469-3.243Z" transform="translate(58.568 53.528)" fill="#0393b0" fill-rule="evenodd"/>
        <path id="Path_919647" data-name="Path 919647" d="M165.363,127.829a3.037,3.037,0,0,1,2.033,3.041c0,1.461-.917,2.478-2.033,2.246a3.068,3.068,0,0,1-2.008-3.053c0-1.444.892-2.448,2.008-2.235" transform="translate(68.581 53.655)" fill="#3ab54a" fill-rule="evenodd"/>
        <path id="Path_919648" data-name="Path 919648" d="M170.851,23.336l14.583,5.671V193.021l-14.583,4.8Z" transform="translate(71.728 9.797)" fill="#004554" fill-rule="evenodd"/>
        <path id="Path_919649" data-name="Path 919649" d="M176.349,111.371l-2.847-.318v3.334l2.847.348Zm-4.031-.45-3.291-.368v3.287l3.291.4Zm-4.477-.5-3.29-.369v3.24l3.29.4Zm-4.474-.5-3.29-.368v3.193l3.29.4Zm-4.474-.5-2.953-.331v3.149l2.953.362Zm-4.136-.463-3.291-.369v3.1l3.291.4Zm-4.475-.5-2.651-.3v3.063l2.651.325Zm-3.836-.429-2.158-.241c0,1.018,0,2.023,0,3.027l2.16.264Z" transform="translate(60.576 45.252)" fill="#31454a" fill-rule="evenodd"/>
        <path id="Path_919650" data-name="Path 919650" d="M151.116,115.774l6.291-.659,1.577,4.392-6.291.659Z" transform="translate(63.443 48.329)" fill="#ffdba7" fill-rule="evenodd"/>
        <path id="Path_919651" data-name="Path 919651" d="M159.077,114.6l-4.1,1.569a.786.786,0,0,0-.484,1.028l1.3,2.777c.055.115,4.738,1.5,5.069,1.21l.657-.575a13.8,13.8,0,0,0,2.493-2.926l-3.906-2.6c-.368-.244-.615-.642-1.028-.484" transform="translate(64.833 48.096)" fill="#ffdba7" fill-rule="evenodd"/>
        <path id="Path_919652" data-name="Path 919652" d="M156.6,117.054c.433,1.055-.044,3.034.4,3.213a9.053,9.053,0,0,0,2.949.538l.657-.576A13.76,13.76,0,0,0,163.1,117.3l-2.869-1.815c-.375-.236-3.8,1.159-3.631,1.566" transform="translate(65.743 48.474)" fill="#f0c17d" fill-rule="evenodd"/>
        <path id="Path_919653" data-name="Path 919653" d="M164.825,118.785l-19.738-.554-9.734-12.2-3.31,9.509,11.212,9.6,22.306-1.213Z" transform="translate(55.436 44.513)" fill="#dae2e3" fill-rule="evenodd"/>
        <path id="Path_919654" data-name="Path 919654" d="M159.609,116.959h0a.576.576,0,0,0,.057.88l.578.505a.614.614,0,1,0,.849-.865l-.578-.507a.628.628,0,0,0-.906-.014" transform="translate(66.934 49.025)" fill="#ffdba7" fill-rule="evenodd"/>
        <path id="Path_919655" data-name="Path 919655" d="M158.616,118.458h0a.529.529,0,0,0,.006.764l.457.4a.552.552,0,0,0,.762-.006.528.528,0,0,0-.006-.764l-.456-.4a.554.554,0,0,0-.764.006" transform="translate(66.525 49.667)" fill="#ffdba7" fill-rule="evenodd"/>
        <path id="Path_919656" data-name="Path 919656" d="M160.185,116.244h0a.576.576,0,0,0,.055.88l.578.505a.614.614,0,1,0,.85-.865l-.579-.505a.626.626,0,0,0-.9-.016" transform="translate(67.175 48.725)" fill="#ffdba7" fill-rule="evenodd"/>
        <path id="Path_919657" data-name="Path 919657" d="M158.992,117.639h0a.576.576,0,0,0,.057.88l.576.505a.614.614,0,1,0,.85-.865l-.579-.507a.626.626,0,0,0-.9-.014" transform="translate(66.675 49.31)" fill="#ffdba7" fill-rule="evenodd"/>
        <path id="Path_919658" data-name="Path 919658" d="M108.049,138.392l-.264,1.84c-.068.551.177.934.142,1.417-.085,1.169-.1,2.188-.108,3.284-.031,2.885.3,4.728.975,5.613.6.787,1.46,1.092,3.569,1.627l4.918-.185c.267-1.1.145-1.56-.3-1.976-2.757-2.567-2.686-4.169-2.343-7.935.219-2.4.089-3.746-1.071-4.38a4.227,4.227,0,0,0-3.68-.521,5.99,5.99,0,0,0-1.837,1.217" transform="translate(45.246 57.494)" fill="#131314" fill-rule="evenodd"/>
        <path id="Path_919659" data-name="Path 919659" d="M142.9,142.526c3.4,4.917,4.636,5.569,9.582,6.23,1.543.207,2.042.54,2,2.164-4.747.359-8.794.327-13.555.275-.7-1.132-.956-1.846-2.206-1.971l-.118,1.931h-4.217l-.21-3.977,1-4.258Z" transform="translate(56.332 59.837)" fill="#1f1c1d" fill-rule="evenodd"/>
        <path id="Path_919660" data-name="Path 919660" d="M152.233,130.208l-7.747,22.967-9.717-2.337,3.909-14.864,5.845-10.941c6.487-1.156,8.557,1.8,7.71,5.175" transform="translate(56.58 52.385)" fill="#22282e" fill-rule="evenodd"/>
        <path id="Path_919661" data-name="Path 919661" d="M140.8,139.224c-4.2,1.861-14.793,4.349-19.075,3.033l.65-13.75,10.964-2.725,4.463.518,15.463-1.934c4.91-.434,4.816,3.141,4.438,6.012l-1.458,3.8a94.021,94.021,0,0,0-15.445,5.043" transform="translate(51.102 52.198)" fill="#22282e" fill-rule="evenodd"/>
        <path id="Path_919662" data-name="Path 919662" d="M134.549,104.068l4.627,6.175.626-.195c1.57-4.472,1.509-5.145,2.337-9.922l-6.523-3.511c-.152,1.727-.572,2.5-.806,4.372a30.087,30.087,0,0,0-.261,3.081" transform="translate(56.488 40.562)" fill="#f0c17d" fill-rule="evenodd"/>
        <path id="Path_919663" data-name="Path 919663" d="M146.166,104.249a.755.755,0,0,0,.125.933.632.632,0,0,1-.562.568c-1.174-.375-.91.5-.819.535.849.294.664.586.45.829-.258,0-.389.075-.444.19-.168.361.351,1.271-.338,1.8-.832.64-4.01-1.836-5.49-2.982-1.227-.947-.585-1.793-.133-3.234-.8-.057-1.35-.415-1.136-1.634a17.893,17.893,0,0,1-1.134-4.63s3.872-5.945,4.038-5.952,5.067,1.687,5.067,1.687c.41,1.095,1.214,2.2,1.614,3.46a10.331,10.331,0,0,1,.437,3.487,1.642,1.642,0,0,1-.317,1.242,1.423,1.423,0,0,0-.275.444c-.261,1.235.717,2.566.579,2.9a1.418,1.418,0,0,1-1.661.359" transform="translate(57.384 38.068)" fill="#ffdba7" fill-rule="evenodd"/>
        <path id="Path_919664" data-name="Path 919664" d="M143.006,99.745a12.949,12.949,0,0,1-.518,1.366c-.124.392-.193.612-.382.714a5.146,5.146,0,0,1-.831-1.731c-.494-.869-1.218-1.849-1.981-1.775-.822.08-.839,1.549-.515,2.661a1.744,1.744,0,0,1-.176,1.458c-.491.7-1.119.142-2.047.7a10.7,10.7,0,0,0-1.729,1.707,11.369,11.369,0,0,0-.406-4.2c-.6-1.918-.193-5.422,1.315-7.044l-.151.082c1.2-1.241,1.545-1.736,3.257-2.189a5.266,5.266,0,0,1,5.052-1.171,5.614,5.614,0,0,0-1.8.182c6.406.176,6.829,5.2,8.677,5.113-1.79,2-3.4,1.448-5.458.552a4.806,4.806,0,0,0-1.942,4.012l-.31-.548Z" transform="translate(56.323 37.845)" fill="#632404" fill-rule="evenodd"/>
        <path id="Path_919665" data-name="Path 919665" d="M117.793,131.555c.94-3.89,2.39-6.225,4.372-9.608l14.864,3.873-1.59,10.642-.467,3.24,4.658,14.284c.487,1.5.885,2.052.469,3.675-.852,3.314-4.1,3.176-9.446,2.385a167.739,167.739,0,0,1-9.195-14.029c-2.813-5.107-5.049-8.735-3.665-14.461" transform="translate(49.276 51.197)" fill="#333d45" fill-rule="evenodd"/>
        <path id="Path_919666" data-name="Path 919666" d="M139.71,100.737c-5.882,2.143-8.241,2.923-10.432,5.837-4.383,5.826-4.761,11.406-6.567,17.224s-.839,5.314-3.034,9.524a35.179,35.179,0,0,0,15.31,6.244c4.156-3.98,5.632-6.11,6.6-11,5.7-7.5,3.914-9.95,4.3-19.041Z" transform="translate(50.244 42.292)" fill="#e4eced" fill-rule="evenodd"/>
        <path id="Path_919667" data-name="Path 919667" d="M140.082,105.915l-1.939,2.818c.141.885.558,1.454.643,2.382L137.4,116.4c-.946,5.56-1.769,8.05-4.724,15.228,5.133-6.848,6.472-11.709,7.328-20.392a7.213,7.213,0,0,0,.606-5.279Z" transform="translate(55.701 44.466)" fill="#333d45" fill-rule="evenodd"/>
        <path id="Path_919668" data-name="Path 919668" d="M135.376,99.769a19.016,19.016,0,0,0,5.239,8.668l-2.337,3.5a16.576,16.576,0,0,1-4.742-10.848Z" transform="translate(56.062 41.886)" fill="#ebf4f5" fill-rule="evenodd"/>
        <path id="Path_919669" data-name="Path 919669" d="M132.311,153.269l-21.184-7.241.1-8.549,9.084.379,20.45,7.509,2.182,4.522c1.228,5.286-5.926,4.887-10.632,3.379" transform="translate(46.654 57.718)" fill="#333d45" fill-rule="evenodd"/>
        <path id="Path_919670" data-name="Path 919670" d="M124.2,117.544c-1.285,4.366-2.5,13.434-.633,15.313,2.14,1.92,6.088-.434,6.743-3.223,1.722-7.335,3.808-9.578,6.605-16.94,1.85-4.87,1.552-7.859-1.917-9.1-6.2-2.211-9.749,10.38-10.8,13.946" transform="translate(51.474 43.385)" fill="#ebf4f5" fill-rule="evenodd"/>
        <path id="Path_919671" data-name="Path 919671" d="M185.219,110.6a6.984,6.984,0,0,0-1.387.156,1.494,1.494,0,0,0-1.214,1.005,15.85,15.85,0,0,0-.454,2.816,10.027,10.027,0,0,1-1.177,4.349h0c-1.261,2.276-4.4,3.217-8.571,4.468-.87.26-1.783.534-2.682.819-2.638.836-4.761,1.514-6.523,2.161a22.905,22.905,0,0,0-4.309,2c-5.63,3.555-8.583,9.6-11.671,15.912-4.12,8.428-8.492,17.367-19.892,21.033-4.12,1.326-18.774.887-23.4.582l-.1,1.541c4.88.321,19.6.75,23.968-.655,12.022-3.866,16.542-13.111,20.8-21.826,2.989-6.115,5.848-11.961,11.109-15.283a21.578,21.578,0,0,1,4.02-1.853c1.7-.626,3.821-1.3,6.457-2.137.957-.3,1.829-.565,2.658-.814,4.512-1.353,7.908-2.371,9.477-5.205h0a11.319,11.319,0,0,0,1.357-4.947c.055-.578.114-1.16.226-1.765.087-.47.082-.588.258-.669a3.344,3.344,0,0,1,1.092-.149Z" transform="translate(43.597 46.431)" fill="#1cbad9" fill-rule="evenodd"/>
        <path id="Path_919672" data-name="Path 919672" d="M164.118,110.034l-3.483.926v1.408l3.483.582a1.729,1.729,0,0,0,0-2.916" transform="translate(67.439 46.196)" fill="#25d4f7" fill-rule="evenodd"/>
        <path id="Path_919673" data-name="Path 919673" d="M139.673,122.2c.971-.058,4.112-1.353,5.472-1.494a2.966,2.966,0,0,1,1.876.283c.7.243,1.751.477,1.863.522a18.712,18.712,0,0,1,1.413,1.3c.457,1.194.882,1.724.324,2.039-.339.192-.753-.258-1.512-1.276l-.538-.395a2.813,2.813,0,0,1,.822,1.362.989.989,0,0,1-.92,1.268c-.217.028-.2-.16-.28-.382l-.213-.588c-.676-.22-1.269-.442-1.931-.7a5.267,5.267,0,0,1,1.65,1.005c.344.413.03.77-.283,1.119-.437.49-1.032-.378-2.419-.811a3.3,3.3,0,0,1,1.411.926c.261.433-.288.673-.693.691a25.379,25.379,0,0,1-5.331-.358c-.707-.142-1.041-.706-1.522-.683l-1-2.862Z" transform="translate(57.88 50.661)" fill="#ffdba7" fill-rule="evenodd"/>
        <path id="Path_919674" data-name="Path 919674" d="M125.247,127.125c6.824,1.117,13.476-.136,20.541.1a17.438,17.438,0,0,1,.755-4.833s-13.9-1.778-19.645-3.152c-4.23-1.012-6.281,7.037-1.651,7.881" transform="translate(51.475 50.025)" fill="#ebf4f5" fill-rule="evenodd"/>
        <path id="Path_919675" data-name="Path 919675" d="M157.377,114.083a.678.678,0,0,0-.342.149l-1.873,1.487,1.075,1.11a4.377,4.377,0,0,0,2.022-1.045l1.387.346c1.075,1.617,1,1.939,1.636,1.654a.653.653,0,0,0,.3-.87l-.933-1.91h0a.465.465,0,0,0-.305-.256l-2.561-.64a1.072,1.072,0,0,0-.4-.026" transform="translate(65.142 47.892)" fill="#ffdba7" fill-rule="evenodd"/>
      </g>
    </g>
  </g>
</svg>
