<svg xmlns="http://www.w3.org/2000/svg" xmlns:xlink="http://www.w3.org/1999/xlink" width="99" height="99" viewBox="0 0 99 99">
  <defs>
    <clipPath id="clip-path">
      <rect id="Rectangle_401223" data-name="Rectangle 401223" width="99" height="99" transform="translate(0)" fill="#ffa8fb"/>
    </clipPath>
    <clipPath id="clip-path-2">
      <rect id="Rectangle_401223-2" data-name="Rectangle 401223" width="88.539" height="88.539" fill="#f3f9ff"/>
    </clipPath>
    <clipPath id="clip-path-3">
      <rect id="Rectangle_407584" data-name="Rectangle 407584" width="66.421" height="64.249" fill="none"/>
    </clipPath>
  </defs>
  <g id="Group_1114072" data-name="Group 1114072" transform="translate(-619.921 -5755.871)">
    <g id="Group_1100724" data-name="Group 1100724" transform="translate(619.921 5755.871)">
      <g id="Group_1099654" data-name="Group 1099654" transform="translate(0 0)">
        <g id="Group_1099652" data-name="Group 1099652" clip-path="url(#clip-path)">
          <path id="Path_873521" data-name="Path 873521" d="M99,77.066A22,22,0,0,1,77.066,99H21.934A22,22,0,0,1,0,77.066V21.933A22,22,0,0,1,21.934,0H77.066A22,22,0,0,1,99,21.934Z" transform="translate(0)" fill="#170551"/>
        </g>
      </g>
      <g id="Group_1099659" data-name="Group 1099659" transform="translate(4.77 5.723)">
        <g id="Group_1099652-2" data-name="Group 1099652" transform="translate(0 0)" clip-path="url(#clip-path-2)">
          <path id="Path_873521-2" data-name="Path 873521" d="M88.539,68.922A19.674,19.674,0,0,1,68.923,88.539H19.616A19.674,19.674,0,0,1,0,68.922V19.616A19.674,19.674,0,0,1,19.616,0H68.923A19.674,19.674,0,0,1,88.539,19.616Z" fill="#f3f9ff"/>
        </g>
      </g>
    </g>
    <g id="Group_1100725" data-name="Group 1100725" transform="translate(636.343 5771.293)">
      <rect id="Rectangle_401104" data-name="Rectangle 401104" width="68" height="69" transform="translate(-0.421 -0.158)" fill="none"/>
      <g id="Group_1114651" data-name="Group 1114651" transform="translate(0.579 2.842)">
        <g id="Group_1114650" data-name="Group 1114650" transform="translate(0 0)" clip-path="url(#clip-path-3)">
          <path id="Path_919330" data-name="Path 919330" d="M62.558,0H3.865A3.815,3.815,0,0,0,0,3.865V37.68H66.421V3.865A3.89,3.89,0,0,0,62.558,0" transform="translate(0 0)" fill="#c0afff"/>
          <path id="Path_919331" data-name="Path 919331" d="M61.165,32.422v4.589H3.8V3.8H61.165Z" transform="translate(0.789 0.789)" fill="#e9efff"/>
          <path id="Path_919332" data-name="Path 919332" d="M42.017,17.786V21.53l-3.623.362a7.752,7.752,0,0,1-.967,2.295l2.295,2.778-2.657,2.657-2.778-2.295a7.7,7.7,0,0,1-2.295.966l-.362,3.623H27.886l-.361-3.623a7.712,7.712,0,0,1-2.3-.966l-2.778,2.295-2.657-2.657,2.295-2.778a7.718,7.718,0,0,1-.966-2.295L17.5,21.53V17.786l3.623-.362a7.718,7.718,0,0,1,.966-2.295l-2.295-2.778,2.657-2.657,2.778,2.295a7.712,7.712,0,0,1,2.3-.966L27.886,7.4H31.63l.362,3.623a7.7,7.7,0,0,1,2.295.966l2.778-2.295,2.657,2.657-2.295,2.657a7.752,7.752,0,0,1,.967,2.295ZM34.045,19.6a4.468,4.468,0,1,0-4.468,4.468A4.458,4.458,0,0,0,34.045,19.6" transform="translate(3.634 1.537)" fill="#d3dcfb"/>
          <path id="Path_919333" data-name="Path 919333" d="M8.889,45.6A4.589,4.589,0,1,1,4.3,50.189,4.589,4.589,0,0,1,8.889,45.6" transform="translate(0.893 9.47)" fill="#6bfcf2"/>
          <path id="Path_919334" data-name="Path 919334" d="M50.044,43.2A3.744,3.744,0,1,1,46.3,46.944,3.744,3.744,0,0,1,50.044,43.2" transform="translate(9.616 8.972)" fill="#6bfcf2"/>
          <rect id="Rectangle_407582" data-name="Rectangle 407582" width="5.313" height="12.801" transform="translate(24.878 46.858)" fill="#006c87"/>
          <rect id="Rectangle_407583" data-name="Rectangle 407583" width="5.314" height="12.801" transform="translate(36.231 46.858)" fill="#006c87"/>
          <path id="Path_919335" data-name="Path 919335" d="M66.423,31.3v5.193a3.815,3.815,0,0,1-3.865,3.865H3.866A3.815,3.815,0,0,1,0,36.493V31.3Z" transform="translate(0 6.5)" fill="#7d0ede"/>
          <path id="Path_919336" data-name="Path 919336" d="M54.287,50.7A1.087,1.087,0,1,1,53.2,51.787,1.086,1.086,0,0,1,54.287,50.7" transform="translate(11.049 10.529)" fill="#6bfcf2"/>
          <path id="Path_919337" data-name="Path 919337" d="M41.787,45.7A1.087,1.087,0,1,1,40.7,46.787,1.086,1.086,0,0,1,41.787,45.7" transform="translate(8.453 9.491)" fill="#6bfcf2"/>
          <path id="Path_919338" data-name="Path 919338" d="M28.857,34.283a1.531,1.531,0,0,1,.483,1.087,1.177,1.177,0,0,1-.483,1.087,1.531,1.531,0,0,1-1.087.483,1.6,1.6,0,0,1-1.57-1.57,1.311,1.311,0,0,1,.483-1.087A1.8,1.8,0,0,1,27.77,33.8a1.177,1.177,0,0,1,1.087.483" transform="translate(5.441 7.019)" fill="#c0afff"/>
          <path id="Path_919339" data-name="Path 919339" d="M16.787,42.6A1.087,1.087,0,1,1,15.7,43.687,1.087,1.087,0,0,1,16.787,42.6" transform="translate(3.261 8.847)" fill="#6bfcf2"/>
          <path id="Path_919340" data-name="Path 919340" d="M1.787,44.5A1.087,1.087,0,1,1,.7,45.587,1.087,1.087,0,0,1,1.787,44.5" transform="translate(0.145 9.242)" fill="#6bfcf2"/>
          <path id="Path_919341" data-name="Path 919341" d="M40.929,50.249h-22.7a.725.725,0,1,1,0-1.449h22.7a.779.779,0,0,1,.725.725.7.7,0,0,1-.725.725" transform="translate(3.634 10.135)" fill="#005068"/>
          <path id="Path_919342" data-name="Path 919342" d="M20.345,26.9H3.8v1.57H20.466a.779.779,0,0,0,.725-.725,1.026,1.026,0,0,0-.845-.845" transform="translate(0.789 5.586)" fill="#d3dcfb"/>
          <path id="Path_919343" data-name="Path 919343" d="M54.291,26.9H37.623a.725.725,0,0,0,0,1.449H54.291Z" transform="translate(7.664 5.586)" fill="#d3dcfb"/>
          <path id="Path_919344" data-name="Path 919344" d="M24.526,27.547a3.377,3.377,0,0,1-3.383-3.382V17.041h15.1v7.124a3.375,3.375,0,0,1-3.38,3.382Z" transform="translate(4.391 3.539)" fill="#9d0388"/>
          <path id="Path_919345" data-name="Path 919345" d="M27.614,20.04a1.57,1.57,0,1,1-1.571,1.57,1.57,1.57,0,0,1,1.571-1.57" transform="translate(5.409 4.162)" fill="#e9efff"/>
          <path id="Path_919346" data-name="Path 919346" d="M33.7,16.223H23.069a.78.78,0,0,1-.725-.726V12.478a6.038,6.038,0,1,1,12.077,0V15.5a.781.781,0,0,1-.725.726m-9.782-1.571h9.058V12.359a4.59,4.59,0,0,0-9.18,0v2.293Z" transform="translate(4.64 1.337)" fill="#005068"/>
          <path id="Path_919347" data-name="Path 919347" d="M28.193,22.765a.725.725,0,0,0-1.45,0v3.744h1.57V22.765Z" transform="translate(5.554 4.577)" fill="#e9efff"/>
          <path id="Path_919348" data-name="Path 919348" d="M36.24,13.24v4.59h-15.1V13.24h15.1Z" transform="translate(4.391 2.749)" fill="#ff85e7"/>
        </g>
      </g>
    </g>
  </g>
</svg>
