<svg xmlns="http://www.w3.org/2000/svg" xmlns:xlink="http://www.w3.org/1999/xlink" width="400.289" height="414" viewBox="0 0 400.289 414">
  <defs>
    <clipPath id="clip-path">
      <rect id="Rectangle_407667" data-name="Rectangle 407667" width="400" height="375.033" fill="none"/>
    </clipPath>
  </defs>
  <g id="Group_1114683" data-name="Group 1114683" transform="translate(-284.711 -1941.592)">
    <path id="Path_919762" data-name="Path 919762" d="M0,0H400V414H0Z" transform="translate(284.711 1941.592)" fill="none"/>
    <g id="Group_1114682" data-name="Group 1114682" transform="translate(285 1966.809)">
      <g id="Group_1114681" data-name="Group 1114681" transform="translate(0 -0.001)" clip-path="url(#clip-path)">
        <path id="Path_919676" data-name="Path 919676" d="M153.673,25.949s-79.487,25.1-118.341,97.095-11.02,130.22,88.033,136.009,141.733,59.753,210.9,25.186S394.419,146.452,359.8,91.524,247.326,3.726,153.673,25.949" transform="translate(-2.334 -2.392)" fill="#c0afff"/>
        <path id="Path_919677" data-name="Path 919677" d="M147.25,10.466S60.979,37.7,18.808,115.848,6.847,257.182,114.355,263.465s153.829,64.852,228.9,27.336S408.541,141.253,370.97,81.637,248.9-13.655,147.25,10.466Z" transform="translate(-0.063 -0.359)" fill="none" stroke="#9d0388" stroke-miterlimit="10" stroke-width="1"/>
        <path id="Path_919678" data-name="Path 919678" d="M137.68,418.357c0,4.688-20.384,8.488-45.529,8.488s-45.53-3.8-45.53-8.488,20.384-8.488,45.53-8.488,45.529,3.8,45.529,8.488" transform="translate(-5.894 -51.812)" fill="#c3c3ed"/>
        <path id="Path_919679" data-name="Path 919679" d="M276.269,406.925c0,4.688-25.069,8.488-55.994,8.488s-55.994-3.8-55.994-8.488,25.069-8.488,55.994-8.488,55.994,3.8,55.994,8.488" transform="translate(-20.767 -50.367)" fill="#c3c3ed"/>
        <path id="Path_919680" data-name="Path 919680" d="M415.473,415.271c0,4.688-19.86,8.488-44.358,8.488s-44.358-3.8-44.358-8.488,19.86-8.488,44.358-8.488,44.358,3.8,44.358,8.488" transform="translate(-41.306 -51.422)" fill="#c3c3ed"/>
        <path id="Path_919681" data-name="Path 919681" d="M412.582,59.578c-.128-.328-.264-.652-.412-.969l3.267-6.406-1.115-.984-2.788-2.457-1.115-.984-5.3,3.6a15.162,15.162,0,0,0-1.933-.8L401.632,44.5h-6.688l-1.554,6.06a15.31,15.31,0,0,0-1.971.818l-5.3-3.6-1.115.984-2.787,2.457-1.115.984,3.267,6.406c-.148.314-.283.634-.409.959L377.8,61.149v6.688l5.715,1.465A14.91,14.91,0,0,0,384,70.732l-3.307,6.484,1.116.983,2.787,2.457,1.115.983,4.827-3.282a15.226,15.226,0,0,0,2.589,1.207l1.372,5.351h6.688l1.3-5.051a15.226,15.226,0,0,0,3.079-1.248L410,81.638l1.115-.983,2.787-2.457,1.115-.983-2.854-5.6a15.359,15.359,0,0,0,.866-2.324l5.678-1.456V61.149ZM405.8,65.109a7.136,7.136,0,1,1-7.136-7.136A7.136,7.136,0,0,1,405.8,65.109Z" transform="translate(-47.758 -5.625)" fill="none" stroke="#3a2292" stroke-linecap="round" stroke-linejoin="round" stroke-width="2"/>
        <path id="Path_919682" data-name="Path 919682" d="M190.189,317.336a18.761,18.761,0,1,1-18.761-18.76,18.762,18.762,0,0,1,18.761,18.76" transform="translate(-19.299 -37.743)" fill="#fff" stroke="#3a2292" stroke-width="1"/>
        <path id="Path_919683" data-name="Path 919683" d="M181.436,314.543c-.081-.211-.169-.418-.265-.621l2.1-4.111-.715-.631-1.788-1.577-.715-.631-3.4,2.312a9.687,9.687,0,0,0-1.24-.516l-1-3.9h-4.292l-1,3.888a9.918,9.918,0,0,0-1.264.525l-3.4-2.312-.715.631-1.788,1.577-.715.631,2.1,4.111q-.142.3-.262.615l-3.956,1.014v4.292l3.666.94q.134.469.31.917l-2.122,4.16.715.631,1.788,1.577.715.631,3.1-2.106a9.748,9.748,0,0,0,1.661.775l.881,3.433h4.291l.831-3.241a9.818,9.818,0,0,0,1.976-.8l2.854,1.94.715-.631,1.788-1.577.715-.631-1.832-3.592a9.8,9.8,0,0,0,.556-1.491l3.643-.934v-4.292Zm-4.352,3.549a4.579,4.579,0,1,1-4.579-4.579,4.579,4.579,0,0,1,4.579,4.579" transform="translate(-20.114 -38.539)" fill="#d9d9ff"/>
        <path id="Path_919684" data-name="Path 919684" d="M57.991,142.571c-.128-.328-.264-.652-.412-.969l3.267-6.407-1.115-.983-2.788-2.457-1.115-.984-5.3,3.6a15.041,15.041,0,0,0-1.933-.8L47.041,127.5H40.353l-1.554,6.06a15.311,15.311,0,0,0-1.971.818l-5.3-3.6-1.115.984-2.787,2.457-1.115.983,3.267,6.407c-.148.314-.283.634-.409.959l-6.166,1.581v6.688l5.715,1.466a14.994,14.994,0,0,0,.483,1.428L26.1,160.208l1.116.983L30,163.649l1.115.983,4.827-3.282a15.22,15.22,0,0,0,2.588,1.207l1.372,5.351H46.59l1.3-5.051a15.226,15.226,0,0,0,3.079-1.248l4.447,3.023,1.115-.983,2.787-2.457,1.116-.983-2.856-5.6a15.264,15.264,0,0,0,.867-2.324l5.678-1.456v-6.688ZM51.207,148.1a7.136,7.136,0,1,1-7.136-7.136,7.136,7.136,0,0,1,7.136,7.136" transform="translate(-2.934 -16.116)" fill="#fff"/>
        <path id="Path_919685" data-name="Path 919685" d="M66.481,76.9a7.409,7.409,0,0,1-4.187,2.135v.746a2.219,2.219,0,1,1-4.439,0V79.13a12.4,12.4,0,0,1-4.9-1.516,1.491,1.491,0,0,1-.6-1.824l.257-.66a1.492,1.492,0,0,1,2.135-.743l.018.01a10.668,10.668,0,0,0,2.182.895,8.766,8.766,0,0,0,2.5.363,4.692,4.692,0,0,0,2.621-.7,1.95,1.95,0,0,0,.448-3.117,4.971,4.971,0,0,0-1.545-.964,23.767,23.767,0,0,0-2.332-.773,16.312,16.312,0,0,1-3.356-1.343,6.587,6.587,0,0,1-2.313-2.117,5.852,5.852,0,0,1-.895-3.329,5.593,5.593,0,0,1,.681-2.733,5.948,5.948,0,0,1,1.977-2.1,8.112,8.112,0,0,1,3.124-1.175v-1.4a2.219,2.219,0,0,1,4.439,0v1.418a9.97,9.97,0,0,1,2.77.914q.253.131.473.263a1.673,1.673,0,0,1,.62,2.164,1.69,1.69,0,0,1-2.385.726,9.109,9.109,0,0,0-1.264-.663,6.043,6.043,0,0,0-2.042-.364,4.823,4.823,0,0,0-2.658.69,2.233,2.233,0,0,0-1.072,2,2.358,2.358,0,0,0,1.212,2.136,10.1,10.1,0,0,0,3.041,1.146,11.825,11.825,0,0,1,5.063,2.388A5.221,5.221,0,0,1,68,72.864a5.7,5.7,0,0,1-1.52,4.038" transform="translate(-6.583 -6.786)" fill="#9494f2"/>
        <circle id="Ellipse_11830" data-name="Ellipse 11830" cx="18.345" cy="18.345" r="18.345" transform="translate(35.11 43.838)" fill="none" stroke="#170551" stroke-linecap="round" stroke-linejoin="round" stroke-width="2" stroke-dasharray="4.122 4.122"/>
        <path id="Path_919686" data-name="Path 919686" d="M441.743,149.016a23.289,23.289,0,1,1-23.289-23.289,23.289,23.289,0,0,1,23.289,23.289" transform="translate(-49.954 -15.893)" fill="#fff"/>
        <path id="Path_919687" data-name="Path 919687" d="M431.4,144.1a11.2,11.2,0,1,1-11.2-11.2,11.2,11.2,0,0,1,11.2,11.2" transform="translate(-51.703 -16.8)" fill="#f9c5f9"/>
        <path id="Path_919688" data-name="Path 919688" d="M423.341,168.563h-4.45a1.654,1.654,0,0,1-1.654-1.654V161.7h7.757v5.209a1.654,1.654,0,0,1-1.654,1.654" transform="translate(-52.744 -20.44)" fill="#9494f2"/>
        <path id="Path_919689" data-name="Path 919689" d="M422.578,161.021h-3.714a4.748,4.748,0,0,1-4.748-4.749v-5.734h13.21v5.734a4.749,4.749,0,0,1-4.749,4.749" transform="translate(-52.349 -19.029)" fill="#f9c5f9"/>
        <path id="Path_919690" data-name="Path 919690" d="M424.1,150.752a1.019,1.019,0,0,0-1.019,1.019,1,1,0,0,0,.215.6,2.93,2.93,0,0,1-2.253.994l-.459-.014a3.115,3.115,0,0,1-2.647-1.053.994.994,0,0,0,.165-.523,1.018,1.018,0,1,0-1.019,1.019,1.119,1.119,0,0,0,.11-.022,3.979,3.979,0,0,0,2.975,1.453v6.828h.874v-6.813a3.773,3.773,0,0,0,3.027-1.452c.01,0,.019.006.03.006a1.019,1.019,0,0,0,0-2.037" transform="translate(-52.596 -19.056)" fill="#9494f2"/>
        <path id="Path_919691" data-name="Path 919691" d="M424.045,134.4s5.865,1.934,6.739,7.987c0,0-6.614-7.55-6.739-7.987" transform="translate(-53.605 -16.988)" fill="#fff"/>
        <path id="Path_919692" data-name="Path 919692" d="M228.453,353.556V304.122H224.3V245.113h-5.312v59.009h-4.151v48.815L169.25,381.6l3.714,5.941,41.875-23.437h12.631l41.875,23.437,3.713-5.941Z" transform="translate(-21.395 -30.984)" fill="#7d0ede"/>
        <path id="Path_919693" data-name="Path 919693" d="M325.741,246.619h-227V11.876a6.448,6.448,0,0,1,6.447-6.448H319.294a6.448,6.448,0,0,1,6.447,6.448Z" transform="translate(-12.482 -0.685)" fill="#fff"/>
        <path id="Path_919694" data-name="Path 919694" d="M326.331,9.485H96.7A4.742,4.742,0,1,1,96.7,0H326.331a4.742,4.742,0,1,1,0,9.485" transform="translate(-11.625 0.001)" fill="#552d7f"/>
        <line id="Line_3248" data-name="Line 3248" x2="182.33" transform="translate(112.233 76.592)" fill="none" stroke="#d9d9ff" stroke-miterlimit="10" stroke-width="1"/>
        <line id="Line_3249" data-name="Line 3249" x2="182.33" transform="translate(112.233 84.897)" fill="none" stroke="#d9d9ff" stroke-miterlimit="10" stroke-width="1"/>
        <line id="Line_3250" data-name="Line 3250" x2="182.33" transform="translate(112.233 93.202)" fill="none" stroke="#d9d9ff" stroke-miterlimit="10" stroke-width="1"/>
        <line id="Line_3251" data-name="Line 3251" x2="182.33" transform="translate(112.233 101.507)" fill="none" stroke="#d9d9ff" stroke-miterlimit="10" stroke-width="1"/>
        <line id="Line_3252" data-name="Line 3252" x2="182.33" transform="translate(112.233 109.812)" fill="none" stroke="#d9d9ff" stroke-miterlimit="10" stroke-width="1"/>
        <line id="Line_3253" data-name="Line 3253" x2="182.33" transform="translate(112.233 118.117)" fill="none" stroke="#d9d9ff" stroke-miterlimit="10" stroke-width="1"/>
        <line id="Line_3254" data-name="Line 3254" x2="182.33" transform="translate(112.233 126.422)" fill="none" stroke="#d9d9ff" stroke-miterlimit="10" stroke-width="1"/>
        <line id="Line_3255" data-name="Line 3255" x2="182.33" transform="translate(112.233 134.727)" fill="none" stroke="#d9d9ff" stroke-miterlimit="10" stroke-width="1"/>
        <line id="Line_3256" data-name="Line 3256" x2="182.33" transform="translate(112.233 143.032)" fill="none" stroke="#d9d9ff" stroke-miterlimit="10" stroke-width="1"/>
        <line id="Line_3257" data-name="Line 3257" x2="182.33" transform="translate(112.233 151.337)" fill="none" stroke="#d9d9ff" stroke-miterlimit="10" stroke-width="1"/>
        <line id="Line_3258" data-name="Line 3258" x2="182.33" transform="translate(112.233 159.642)" fill="none" stroke="#d9d9ff" stroke-miterlimit="10" stroke-width="1"/>
        <line id="Line_3259" data-name="Line 3259" x2="182.33" transform="translate(112.233 167.947)" fill="none" stroke="#d9d9ff" stroke-miterlimit="10" stroke-width="1"/>
        <line id="Line_3260" data-name="Line 3260" x2="182.33" transform="translate(112.233 176.252)" fill="none" stroke="#d9d9ff" stroke-miterlimit="10" stroke-width="1"/>
        <path id="Path_919695" data-name="Path 919695" d="M199.048,166.44,184.358,116.9H164.515l14.877,49.545Z" transform="translate(-20.797 -14.776)" fill="#7c7ce5"/>
        <path id="Path_919696" data-name="Path 919696" d="M251.008,144.572l-17.08-56.034H214.086l17.266,56.034Z" transform="translate(-27.063 -11.191)" fill="#7c7ce5"/>
        <path id="Path_919697" data-name="Path 919697" d="M299.928,104.781,288.357,67.633H268.515l11.758,37.148Z" transform="translate(-33.944 -8.549)" fill="#7c7ce5"/>
        <path id="Path_919698" data-name="Path 919698" d="M135.463,203.019l24.469-86.124h19.844l-24.657,86.124Z" transform="translate(-17.124 -14.776)" fill="#9994ff"/>
        <path id="Path_919699" data-name="Path 919699" d="M188.081,162.858l21.9-74.3h19.843l-22.09,74.3Z" transform="translate(-23.776 -11.194)" fill="#9994ff"/>
        <path id="Path_919700" data-name="Path 919700" d="M238.152,141.929l21.9-74.3H279.9l-22.09,74.3Z" transform="translate(-30.105 -8.549)" fill="#9994ff"/>
        <path id="Path_919701" data-name="Path 919701" d="M291.724,103.342,305.3,56.252h19.843l-13.759,47.091Z" transform="translate(-36.878 -7.11)" fill="#9994ff"/>
        <path id="Path_919702" data-name="Path 919702" d="M296.759,55.38h34.195L320.346,35.038Z" transform="translate(-37.514 -4.428)" fill="#9994ff"/>
        <line id="Line_3261" data-name="Line 3261" y2="136.841" transform="translate(112.108 40.78)" fill="none" stroke="#7768ff" stroke-miterlimit="10" stroke-width="1"/>
        <path id="Path_919703" data-name="Path 919703" d="M136,35.336a8.8,8.8,0,1,1-8.8-8.8A8.8,8.8,0,0,1,136,35.336Z" transform="translate(-14.967 -3.354)" fill="none" stroke="#7768ff" stroke-miterlimit="10" stroke-width="1"/>
        <line id="Line_3262" data-name="Line 3262" x2="4.992" transform="translate(109.737 84.772)" fill="none" stroke="#7768ff" stroke-linecap="round" stroke-linejoin="round" stroke-width="1"/>
        <line id="Line_3263" data-name="Line 3263" x2="4.992" transform="translate(109.737 66.739)" fill="none" stroke="#7768ff" stroke-linecap="round" stroke-linejoin="round" stroke-width="1"/>
        <line id="Line_3264" data-name="Line 3264" x2="4.992" transform="translate(109.737 48.705)" fill="none" stroke="#7768ff" stroke-linecap="round" stroke-linejoin="round" stroke-width="1"/>
        <line id="Line_3265" data-name="Line 3265" x2="4.992" transform="translate(109.737 100.247)" fill="none" stroke="#7768ff" stroke-linecap="round" stroke-linejoin="round" stroke-width="1"/>
        <line id="Line_3266" data-name="Line 3266" x2="4.992" transform="translate(109.737 115.722)" fill="none" stroke="#7768ff" stroke-linecap="round" stroke-linejoin="round" stroke-width="1"/>
        <line id="Line_3267" data-name="Line 3267" x2="4.992" transform="translate(109.737 131.197)" fill="none" stroke="#7768ff" stroke-linecap="round" stroke-linejoin="round" stroke-width="1"/>
        <line id="Line_3268" data-name="Line 3268" x2="4.992" transform="translate(109.737 146.672)" fill="none" stroke="#7768ff" stroke-linecap="round" stroke-linejoin="round" stroke-width="1"/>
        <line id="Line_3269" data-name="Line 3269" x2="4.992" transform="translate(109.737 162.147)" fill="none" stroke="#7768ff" stroke-linecap="round" stroke-linejoin="round" stroke-width="1"/>
        <line id="Line_3270" data-name="Line 3270" x2="4.992" transform="translate(109.737 177.622)" fill="none" stroke="#7768ff" stroke-linecap="round" stroke-linejoin="round" stroke-width="1"/>
        <line id="Line_3271" data-name="Line 3271" x2="174.332" transform="translate(112.108 188.583)" fill="none" stroke="#7768ff" stroke-miterlimit="10" stroke-width="1"/>
        <path id="Path_919704" data-name="Path 919704" d="M132.368,214.993a3.376,3.376,0,1,1-3.376-3.376,3.376,3.376,0,0,1,3.376,3.376" transform="translate(-15.879 -26.75)" fill="#7768ff"/>
        <path id="Path_919705" data-name="Path 919705" d="M333.385,214.993a3.376,3.376,0,1,1-3.376-3.376,3.376,3.376,0,0,1,3.376,3.376" transform="translate(-41.29 -26.75)" fill="#7768ff"/>
        <rect id="Rectangle_407662" data-name="Rectangle 407662" width="73.132" height="2.996" transform="translate(128.582 43.838)" fill="#9494f2"/>
        <rect id="Rectangle_407663" data-name="Rectangle 407663" width="73.132" height="2.996" transform="translate(114.23 196.658)" fill="#9494f2"/>
        <rect id="Rectangle_407664" data-name="Rectangle 407664" width="73.132" height="2.996" transform="translate(128.582 50.951)" fill="#9494f2"/>
        <rect id="Rectangle_407665" data-name="Rectangle 407665" width="73.132" height="2.995" transform="translate(128.582 58.066)" fill="#9494f2"/>
        <rect id="Rectangle_407666" data-name="Rectangle 407666" width="46.153" height="50.952" transform="translate(244.541 128.7)" fill="#9494f2"/>
        <path id="Path_919706" data-name="Path 919706" d="M175.818,106.5a3.744,3.744,0,1,1-3.744-3.744,3.744,3.744,0,0,1,3.744,3.744" transform="translate(-21.279 -12.988)" fill="#f9c5f9"/>
        <path id="Path_919707" data-name="Path 919707" d="M201.533,181.191a3.744,3.744,0,1,1-3.745-3.744,3.745,3.745,0,0,1,3.745,3.744" transform="translate(-24.53 -22.431)" fill="#f9c5f9"/>
        <path id="Path_919708" data-name="Path 919708" d="M227.581,80.139a3.744,3.744,0,1,1-3.744-3.744,3.744,3.744,0,0,1,3.744,3.744" transform="translate(-27.822 -9.656)" fill="#f9c5f9"/>
        <path id="Path_919709" data-name="Path 919709" d="M254.723,160a3.744,3.744,0,1,1-3.744-3.744A3.744,3.744,0,0,1,254.723,160" transform="translate(-31.254 -19.751)" fill="#f9c5f9"/>
        <path id="Path_919710" data-name="Path 919710" d="M278.845,59.5a3.744,3.744,0,1,1-3.744-3.744,3.744,3.744,0,0,1,3.744,3.744" transform="translate(-34.303 -7.047)" fill="#f9c5f9"/>
        <path id="Path_919711" data-name="Path 919711" d="M307.676,118.353a3.744,3.744,0,1,1-3.744-3.744,3.744,3.744,0,0,1,3.744,3.744" transform="translate(-37.947 -14.487)" fill="#f9c5f9"/>
        <path id="Path_919712" data-name="Path 919712" d="M304,156.252h-.019a16.2,16.2,0,0,0-16.174,16.193H304l-5.931,15.069h-.008A16.194,16.194,0,1,0,304,156.252" transform="translate(-36.382 -19.751)" fill="#fff"/>
        <path id="Path_919713" data-name="Path 919713" d="M304,172.445H287.807a16.2,16.2,0,0,1,16.174-16.193Z" transform="translate(-36.382 -19.751)" fill="#d9d9ff"/>
        <path id="Path_919714" data-name="Path 919714" d="M348.046,240.224c-5.236,5.959-14.195,10.576-18.372,12.518-1.409.655-2.272,1.01-2.272,1.01l-9.277-9.418,1.451-2.187,22.261-33.6s13.21,23.712,6.209,31.673" transform="translate(-40.215 -26.363)" fill="#7768ff"/>
        <path id="Path_919715" data-name="Path 919715" d="M354.917,398.325l-.438,9.973h7.7l1.312-8.748Z" transform="translate(-44.811 -50.352)" fill="#7768ff"/>
        <path id="Path_919716" data-name="Path 919716" d="M394.337,399.026l1.837,9.361h7.612l-1.137-9.361Z" transform="translate(-49.849 -50.441)" fill="#7768ff"/>
        <path id="Path_919717" data-name="Path 919717" d="M352.641,408.438s-12.123,5.076-12.56,5.6-.962,2.1,0,2.45,21.084.087,21.522,0-1.142-8.05-1.142-8.05Z" transform="translate(-42.922 -51.631)" fill="#42007f"/>
        <path id="Path_919718" data-name="Path 919718" d="M395.528,407.062s-2.881,10.13-2.794,11.617,2.012,2.45,5.774,2.887a10.159,10.159,0,0,0,7.7-2.012c.962-.963-2.979-13.155-2.979-13.155Z" transform="translate(-49.646 -51.373)" fill="#42007f"/>
        <path id="Path_919719" data-name="Path 919719" d="M357.189,269.457,353.077,387.6l11.548.525,8.661-90.809,15.835,88.315,10.936-.525-6.824-91.728s-.875-14.215-7.088-26.277Z" transform="translate(-44.633 -33.764)" fill="#170551"/>
        <line id="Line_3272" data-name="Line 3272" y1="3.032" x2="27.949" transform="translate(313.367 236.532)" fill="none" stroke="#a6a2ff" stroke-linecap="round" stroke-linejoin="round" stroke-width="0.5"/>
        <path id="Path_919720" data-name="Path 919720" d="M374.191,179.33c-.7,4.979-5.853,13.013-10.88,13.013s-6.078-8.835-5.262-13.795c.889-5.4,4.075-9.1,9.1-9.1s7.894,3.8,7.04,9.884" transform="translate(-45.23 -21.419)" fill="#ff9783"/>
        <path id="Path_919721" data-name="Path 919721" d="M373.65,185.888l1.493,12.906a46.259,46.259,0,0,1-9.813,1.814l1.28-8.32Z" transform="translate(-46.182 -23.498)" fill="#ff9783"/>
        <path id="Path_919722" data-name="Path 919722" d="M356.12,261.667s-13.662-40.038-10.907-54.342a71.736,71.736,0,0,1,21.331-7.781c12.335-2.362,28.011,2.008,28.011,2.008,11.413,21.74-9.451,56.919-9.451,56.919Z" transform="translate(-43.593 -25.135)" fill="#7768ff"/>
        <path id="Path_919723" data-name="Path 919723" d="M360.788,171.859a17.864,17.864,0,0,0,8.771,3.393s-1.973,3.413-.32,5.6c0,0,.854-1.707,2.08-1.6s1.281,3.36,0,4.747a2.607,2.607,0,0,1-2.666.907,5.893,5.893,0,0,0,4.43,2.28s3.783-5.427,4.37-9.16-1.173-4.8-1.173-4.8a5.465,5.465,0,0,0-3.52-4.96c-3.68-1.654-10.721-1.227-12.8-1.546a1.867,1.867,0,0,0,.586,2.381,12.035,12.035,0,0,1-2.791,0,4.575,4.575,0,0,0,1.4,5.269,17.86,17.86,0,0,1,1.631-2.51" transform="translate(-45.184 -21.074)" fill="#552d7f"/>
        <path id="Path_919724" data-name="Path 919724" d="M400.607,201.943l30.707,34.031-12.6,9.448L396.58,235.044s-10.933-19.191,4.027-33.1" transform="translate(-49.645 -25.527)" fill="#7768ff"/>
        <path id="Path_919725" data-name="Path 919725" d="M383.621,262.138l6.973,24.623,16.319-5-7.266-24.3Z" transform="translate(-48.494 -32.545)" fill="#fff"/>
        <path id="Path_919726" data-name="Path 919726" d="M418.585,248.891l-22.747,19.727,3.71,4.915s27.785-10.12,32.16-16.594-1.092-15.1-1.092-15.1-4.732.944-12.031,7.055" transform="translate(-50.039 -30.57)" fill="#ff9783"/>
        <path id="Path_919727" data-name="Path 919727" d="M395.554,271.448h-6.763c-1.641,0-4.415,2.726-4.415,2.726a.494.494,0,0,0,.511.687,21.358,21.358,0,0,0,3.9-1.575l.972.252.173.371c-1.248.456-5.064,1.937-4.575,2.85s4.231-.6,5.388-1.1l.178.384c-.806.252-4.386,1.418-4,2.171.338.654,3.318-.276,4.666-.736l.287.617c-.882.207-3.025.781-2.909,1.472.146.868,3.594,0,3.594,0,2.463-.243,5.528-2.322,5.528-2.322-.273-1.6-2.541-5.8-2.541-5.8" transform="translate(-48.586 -34.314)" fill="#ff9783"/>
        <path id="Path_919728" data-name="Path 919728" d="M375.808,195.52l-6.124,3.6,4.284,4.684,4.4-5.594Z" transform="translate(-46.733 -24.715)" fill="#f9c5f9"/>
        <path id="Path_919729" data-name="Path 919729" d="M365.837,197.678l3.218,1.717-3.162,5.245-1.186-4.162Z" transform="translate(-46.103 -24.988)" fill="#f9c5f9"/>
        <path id="Path_919730" data-name="Path 919730" d="M419.723,249.968s4.07-11.007,12.643-12.065l2.361,2.616Z" transform="translate(-53.058 -30.073)" fill="#f9c5f9"/>
        <path id="Path_919731" data-name="Path 919731" d="M369.485,199.645a590.8,590.8,0,0,0-.992,60.52" transform="translate(-46.533 -25.237)" fill="none" stroke="#a6a2ff" stroke-miterlimit="10" stroke-width="1"/>
        <path id="Path_919732" data-name="Path 919732" d="M377.107,217.465H387.3s.487,8.671-4.759,10.071c0,0-5.958.045-5.433-10.071" transform="translate(-47.667 -27.489)" fill="#f9c5f9"/>
        <path id="Path_919733" data-name="Path 919733" d="M370.052,285.913s3.01,1.837,3.736,3.543,1.644,10.236,1.644,10.236" transform="translate(-46.779 -36.142)" fill="none" stroke="#a6a2ff" stroke-linecap="round" stroke-linejoin="round" stroke-width="0.5"/>
        <line id="Line_3273" data-name="Line 3273" x2="10.323" transform="translate(309.669 346.398)" fill="none" stroke="#a6a2ff" stroke-linecap="round" stroke-linejoin="round" stroke-width="0.5"/>
        <line id="Line_3274" data-name="Line 3274" x2="9.864" transform="translate(344.072 345.698)" fill="none" stroke="#a6a2ff" stroke-linecap="round" stroke-linejoin="round" stroke-width="0.5"/>
        <path id="Path_919734" data-name="Path 919734" d="M359.958,281.871s-2.319,50.214-2.319,53.156a25.336,25.336,0,0,1-.918,6.092l1.618,3.15-1.618,3.674v29.919" transform="translate(-45.094 -35.631)" fill="none" stroke="#a6a2ff" stroke-linecap="round" stroke-linejoin="round" stroke-width="0.5"/>
        <path id="Path_919735" data-name="Path 919735" d="M386.385,282.111l5.545,57.431,1.4,3.674-1.4,3.5,1.4,1.749,3.237,29.22" transform="translate(-48.844 -35.661)" fill="none" stroke="#a6a2ff" stroke-linecap="round" stroke-linejoin="round" stroke-width="0.5"/>
        <path id="Path_919736" data-name="Path 919736" d="M329.674,257.6c-1.408.655-2.272,1.011-2.272,1.011l-9.278-9.419,1.451-2.186s5.527,3.084,7.628,6.494c.612,1,2.6,3.347,2.471,4.1" transform="translate(-40.215 -31.224)" fill="#f9c5f9"/>
        <path id="Path_919737" data-name="Path 919737" d="M313.986,248.073l-27.73-6.474-.875,5.424s15.923,12.685,24.934,13.385,12.949-2.479,12.949-2.479-5.082-7.756-9.277-9.856" transform="translate(-36.076 -30.54)" fill="#ff9783"/>
        <path id="Path_919738" data-name="Path 919738" d="M285.751,241.328s-2.319-3.674-3.106-4.55-2.887-.175-2.887-.175l-1.837,1.268s-1.225.394-1.356,1.137a2.055,2.055,0,0,0,.438,1.444s-.963.524-.088,1.793a1.688,1.688,0,0,0,.307,1.706,3.716,3.716,0,0,0,2.45,1.225c.569-.131.577-.349.577-.349a4.654,4.654,0,0,0,2.091,1.356,7.085,7.085,0,0,0,3.412.262Z" transform="translate(-34.959 -29.875)" fill="#ff9783"/>
        <path id="Path_919739" data-name="Path 919739" d="M275.545,227.852l2.527,8.752,1.5-.468-2.48-8.658-1.17-1.4Z" transform="translate(-34.832 -28.578)" fill="#7768ff"/>
        <path id="Path_919740" data-name="Path 919740" d="M399.152,205.007s-5.872,5.291-6.417,15.919,6.417,15.711,6.417,15.711a38.179,38.179,0,0,1,0-31.631" transform="translate(-49.643 -25.915)" fill="#5b56d6"/>
        <path id="Path_919741" data-name="Path 919741" d="M349.482,241.337s-5.221-20.814-2.85-30.3c0,0-8.028,15.919,2.85,30.3" transform="translate(-43.458 -26.677)" fill="#5b56d6"/>
        <path id="Path_919742" data-name="Path 919742" d="M107.081,216.322l9.9,25.578,18.775-5.846,1.772,5.81s-17.073,10.663-24.39,12.08-9.671-4.074-9.671-4.074Z" transform="translate(-13.079 -27.345)" fill="#d6796c"/>
        <path id="Path_919743" data-name="Path 919743" d="M67.157,387.657l.815,16.145-.815,9.785,11.483.776-3.166-12.028.652-14.677Z" transform="translate(-8.489 -49.004)" fill="#ff9783"/>
        <path id="Path_919744" data-name="Path 919744" d="M108.226,390.246l4.24,15.493v7.338h23.157l-1.957-3.471-13.7-6.771-2.284-13.4Z" transform="translate(-13.681 -49.228)" fill="#ff9783"/>
        <path id="Path_919745" data-name="Path 919745" d="M96.363,271.962s8.549-42.231,5.817-56.411c0,0-3.751-4.054-16.152-5.178-12.446-1.127-18.941,4.443-18.941,4.443-5.668,17.359.542,53.977.542,53.977Z" transform="translate(-8.179 -26.574)" fill="#7768ff"/>
        <path id="Path_919746" data-name="Path 919746" d="M65.365,267.98a85.425,85.425,0,0,0-9.421,37.494c-.376,17.612,7.555,78.813,7.555,78.813H78.773l6.1-76.7,16.356,75.634,14.085-2.479s-2.872-91.7-18.258-112.765c0,0-6.81,6.368-31.691,0" transform="translate(-7.07 -33.875)" fill="#3a2292"/>
        <path id="Path_919747" data-name="Path 919747" d="M107.879,234.583v27.455l-20.016,2.48V236.355Z" transform="translate(-11.107 -29.653)" fill="#fff"/>
        <path id="Path_919748" data-name="Path 919748" d="M101.022,253.784l5.766-5.587c1.223-1.075,5.072-.859,5.072-.859a.49.49,0,0,1,.068.847,21.22,21.22,0,0,1-3.938,1.381l-.559.822.114.391c1.227-.477,5.038-1.87,5.271-.869s-3.545,2.318-4.734,2.7l.119.4c.765-.34,4.195-1.813,4.4-1,.176.708-2.651,1.966-3.956,2.5l.19.648c.793-.424,2.765-1.4,3.13-.807.46.742-2.677,2.351-2.677,2.351-1.994,1.431-5.637,1.887-5.637,1.887-.84-1.367-2.626-4.816-2.626-4.816" transform="translate(-12.77 -31.263)" fill="#ff9783"/>
        <path id="Path_919749" data-name="Path 919749" d="M82.926,192.921c.619,4.414,5.19,11.538,9.647,11.538s5.389-7.833,4.666-12.232c-.788-4.792-3.613-8.071-8.071-8.071s-7,3.374-6.242,8.765" transform="translate(-10.466 -23.279)" fill="#ff9783"/>
        <path id="Path_919750" data-name="Path 919750" d="M84.269,198.736,82.945,210.18a41.063,41.063,0,0,0,8.7,1.608l-1.136-7.377Z" transform="translate(-10.485 -25.122)" fill="#ff9783"/>
        <path id="Path_919751" data-name="Path 919751" d="M80.1,182.088c-2.863,1.857-4.674,3.881-4.832,10.139s0,11.328,0,11.328a23.2,23.2,0,0,0,3.961.376L79.859,202l.317,1.933a27.791,27.791,0,0,0,5.782,0l-1.347-6.555a6.143,6.143,0,0,1-2.569-4.525c-.123-2.92,2.174-2.367,2.569-1.178a10.146,10.146,0,0,1,.476,2.106h1.228s1.068-2.661.356-4.324c0,0,5.105-.09,7.978-2.263,0,0,2.374,4.5,1.83,8.294a11.562,11.562,0,0,0,1.994-7.773c-.4-5.782-10.538-10.709-18.377-5.624" transform="translate(-9.505 -22.749)" fill="#552d7f"/>
        <path id="Path_919752" data-name="Path 919752" d="M82.414,208.049l6.746,4.494a5.2,5.2,0,0,1-5.277,2.272c-3.675-.531-3.316-4.954-3.316-4.954Z" transform="translate(-10.183 -26.299)" fill="#f9c5f9"/>
        <path id="Path_919753" data-name="Path 919753" d="M92.463,209.106l-2.058,3.571s1.631,2.316,3.269,1.962,1.353-3.04,1.353-3.04Z" transform="translate(-11.428 -26.433)" fill="#f9c5f9"/>
        <path id="Path_919754" data-name="Path 919754" d="M99.324,254.461s-19.223,7.5-26.46,6.841c-13.247-1.211-11.855-32.043-11.4-35.1,1.388-9.2,4.6-10.509,4.6-10.509,5.373-1.6,5.941,6.144,6.8,15.088.951,9.911,1.984,20.675,1.984,20.675l22.674-2.523Z" transform="translate(-7.735 -27.239)" fill="#ff9783"/>
        <path id="Path_919755" data-name="Path 919755" d="M81.5,181.77s-.152-4.832-4.113-4.277S72,181.215,72.8,183.829s4.248,3.01,4.248,3.01Z" transform="translate(-9.176 -22.431)" fill="#552d7f"/>
        <path id="Path_919756" data-name="Path 919756" d="M112.989,409.078s-.978,5.545-.489,6.85a29.769,29.769,0,0,0,6.741,0c3.479-.435,6.523.223,10.328.193s6.469.622,7.393-.628-.632-2.414-2.773-3.472l-7.043-3.481s-3.448,2.549-6.873,2.441-5.269-.511-7.284-1.9" transform="translate(-14.204 -51.644)" fill="#42007f"/>
        <path id="Path_919757" data-name="Path 919757" d="M89.061,310.537s1.063-12.635,1.417-14.052,4.015-5.2,4.015-5.2" transform="translate(-11.258 -36.822)" fill="none" stroke="#a6a2ff" stroke-linecap="round" stroke-linejoin="round" stroke-width="0.5"/>
        <path id="Path_919758" data-name="Path 919758" d="M67.759,408.927s-.938,7.1-.612,10.366,6.6,4.4,8.888,4.4a5.072,5.072,0,0,0,4.485-3.18c.326-1.223-3.1-8.064-3.1-8.064s.014,1.054-3.61,1.459c-5.114.571-6.05-4.984-6.05-4.984" transform="translate(-8.48 -51.693)" fill="#42007f"/>
        <path id="Path_919759" data-name="Path 919759" d="M151.838,235.659c-.632-.271-2.894.471-3.988.859l-.01-.275c1.7-.752,3.85-1.889,3.252-2.145-.519-.223-2.142.239-3.311.626v-.017l-3.657,1.091s2.194-2.581,1.617-2.773-1.768.809-2.923,1.771a25.119,25.119,0,0,0-3.1,4.03s1.518,5.12,2.545,5.146c.872.022,4.419-1.859,5.47-2.428,1.548-.644,3.959-1.86,3.37-2.112-.488-.21-2.072.261-3.118.615l-.007-.187c1.741-.736,4.314-2.048,3.667-2.325-.585-.251-2.568.367-3.728.768l-.008-.211c1.73-.707,4.607-2.141,3.928-2.433" transform="translate(-17.662 -29.453)" fill="#d6796c"/>
        <path id="Path_919760" data-name="Path 919760" d="M66.116,393.683s4.84.649,12.738.886" transform="translate(-8.358 -49.766)" fill="none" stroke="#a6a2ff" stroke-linecap="round" stroke-linejoin="round" stroke-width="0.5"/>
        <path id="Path_919761" data-name="Path 919761" d="M108.932,393.392a115.2,115.2,0,0,0,12.193-2.007" transform="translate(-13.77 -49.475)" fill="none" stroke="#a6a2ff" stroke-linecap="round" stroke-linejoin="round" stroke-width="0.5"/>
      </g>
    </g>
  </g>
</svg>
