<svg xmlns="http://www.w3.org/2000/svg" xmlns:xlink="http://www.w3.org/1999/xlink" width="1030" height="413.24" viewBox="0 0 1030 413.24">
  <defs>
    <clipPath id="clip-path">
      <path id="Path_611005" data-name="Path 611005" d="M0,0H1030V412.24H0Z" transform="translate(0 0)" fill="#eae5ff"/>
    </clipPath>
    <clipPath id="clip-path-2">
      <rect id="Rectangle_407284" data-name="Rectangle 407284" width="788.667" height="321.122" fill="none"/>
    </clipPath>
    <clipPath id="clip-path-3">
      <rect id="Rectangle_407286" data-name="Rectangle 407286" width="788.667" height="321.122" fill="#3a2292"/>
    </clipPath>
    <radialGradient id="radial-gradient" cx="0.5" cy="0.5" r="0.5" gradientUnits="objectBoundingBox">
      <stop offset="0" stop-color="#9d0388"/>
      <stop offset="1" stop-color="#ff85e7"/>
    </radialGradient>
  </defs>
  <g id="Group_1114995" data-name="Group 1114995" transform="translate(-285 -1146.169)">
    <g id="Group_1114952" data-name="Group 1114952" transform="translate(0 17)">
      <g id="Group_1073695" data-name="Group 1073695" transform="translate(1600 1988.909) rotate(180)">
        <path id="Path_608309" data-name="Path 608309" d="M0,0H1030V412.24H0Z" transform="translate(285 446.5)" fill="#eae5ff"/>
      </g>
      <g id="Group_1114319" data-name="Group 1114319" transform="translate(-9629.955 12758.566)">
        <path id="Path_918595" data-name="Path 918595" d="M1655,18.663h225.121c6.809,0,12.33,3.714,12.33,8.295V89.035c0,4.581-5.521,8.295-12.33,8.295H1655c-6.81,0-12.33-3.714-12.33-8.295V26.958c0-4.581,5.52-8.295,12.33-8.295" transform="translate(8847.333 -11387.028)" fill="#3a2292"/>
        <path id="Path_918480" data-name="Path 918480" d="M1655,18.663h225.121c6.809,0,12.33,3.714,12.33,8.295V89.035c0,4.581-5.521,8.295-12.33,8.295H1655c-6.81,0-12.33-3.714-12.33-8.295V26.958c0-4.581,5.52-8.295,12.33-8.295" transform="translate(8863.333 -11576.663)" fill="#3a2292"/>
        <path id="Path_921146" data-name="Path 921146" d="M0,0H788.667V321.122H0Z" transform="translate(10035.621 -11585.122)" fill="none"/>
        <path id="Path_921147" data-name="Path 921147" d="M11.663,0H8.6V-5.344H4.052V0H.967V-12.8H4.052v5.08H8.6V-12.8h3.067Zm7.172,0a3.344,3.344,0,0,1-.281-.853A2.754,2.754,0,0,1,16.269.176a3.374,3.374,0,0,1-2.285-.813,2.588,2.588,0,0,1-.94-2.043,2.66,2.66,0,0,1,1.143-2.338,5.821,5.821,0,0,1,3.322-.791h.914v-.5q0-1.316-1.134-1.316a.927.927,0,0,0-1.055,1.042H13.271a2.655,2.655,0,0,1,1.173-2.239,4.931,4.931,0,0,1,2.993-.86,4.323,4.323,0,0,1,2.874.888,3.086,3.086,0,0,1,1.081,2.435v4.21a4.311,4.311,0,0,0,.4,2V0ZM16.98-1.934a1.652,1.652,0,0,0,.918-.237,1.487,1.487,0,0,0,.523-.536V-4.228h-.861q-1.547,0-1.547,1.389a.848.848,0,0,0,.272.655A.986.986,0,0,0,16.98-1.934Zm10.072-.176a1.317,1.317,0,0,0,.967-.338,1.241,1.241,0,0,0,.334-.945h2.777A3.288,3.288,0,0,1,30.01-.826a4.168,4.168,0,0,1-2.887,1,4.22,4.22,0,0,1-3.27-1.3,5.125,5.125,0,0,1-1.2-3.6v-.123A5.792,5.792,0,0,1,23.19-7.4a3.872,3.872,0,0,1,1.534-1.7A4.573,4.573,0,0,1,27.1-9.686a4.116,4.116,0,0,1,2.944,1.028,3.647,3.647,0,0,1,1.09,2.786H28.354A1.626,1.626,0,0,0,27.993-7a1.244,1.244,0,0,0-.967-.4q-1.151,0-1.345,1.468a10.357,10.357,0,0,0-.062,1.283,4.068,4.068,0,0,0,.343,1.986A1.187,1.187,0,0,0,27.053-2.109ZM36.984.176a4.889,4.889,0,0,1-3.542-1.305,4.507,4.507,0,0,1-1.354-3.4v-.246a5.84,5.84,0,0,1,.541-2.575,3.955,3.955,0,0,1,1.578-1.727,4.763,4.763,0,0,1,2.461-.611,4.117,4.117,0,0,1,3.164,1.244,4.887,4.887,0,0,1,1.16,3.467v1.151H35.1A2.135,2.135,0,0,0,35.8-2.566a2.066,2.066,0,0,0,1.389.457,2.662,2.662,0,0,0,2.2-.984l1.354,1.6A3.784,3.784,0,0,1,39.168-.277,5.3,5.3,0,0,1,36.984.176ZM36.65-7.4q-1.3,0-1.547,1.723h2.988v-.229a1.467,1.467,0,0,0-.36-1.1A1.434,1.434,0,0,0,36.65-7.4Zm11.285.571L46.96-6.9a1.752,1.752,0,0,0-1.793.879V0H42.205V-9.51h2.777l.1,1.222a2.294,2.294,0,0,1,2.083-1.4,2.888,2.888,0,0,1,.826.105Z" transform="translate(10607 -11512)" fill="#fff"/>
        <path id="Path_918482" data-name="Path 918482" d="M254.675,18.663h237.84c6.632,0,12.008,4.028,12.008,9V95c0,4.969-5.376,9-12.008,9H254.675c-6.632,0-12.008-4.028-12.008-9V27.661c0-4.969,5.376-9,12.008-9" transform="translate(9863.333 -11583.663)" fill="#3a2292"/>
        <path id="Path_918596" data-name="Path 918596" d="M254.675,18.663h237.84c6.632,0,12.008,4.028,12.008,9V95c0,4.969-5.376,9-12.008,9H254.675c-6.632,0-12.008-4.028-12.008-9V27.661c0-4.969,5.376-9,12.008-9" transform="translate(9863.333 -11395.028)" fill="#3a2292"/>
        <path id="Path_918483" data-name="Path 918483" d="M949.089,565.453h-113.2a153.008,153.008,0,0,0,149.48,149.48v-115.8a40.3,40.3,0,0,1-36.282-33.678" transform="translate(9442.574 -11986.299)" fill="#3d034b"/>
        <path id="Path_918484" data-name="Path 918484" d="M1409.536,565.453a40.305,40.305,0,0,1-35.12,33.561V714.933a153.008,153.008,0,0,0,149.48-149.48Z" transform="translate(9060.584 -11986.453)" fill="#7d0ede"/>
        <path id="Path_918485" data-name="Path 918485" d="M1408.543,176.372h113.462A153.007,153.007,0,0,0,1371.75,26.877V136.755a40.285,40.285,0,0,1,36.793,39.617" transform="translate(9062.25 -11603.877)" fill="#6bfcf2"/>
        <path id="Path_918486" data-name="Path 918486" d="M984.6,136.872V26.994A153.008,153.008,0,0,0,835.892,176.455h112.3A40.287,40.287,0,0,1,984.6,136.872" transform="translate(9442.573 -11604.272)" fill="#ffa8fb"/>
        <path id="Path_921148" data-name="Path 921148" d="M0,0H788.667V321.122H0Z" transform="translate(10035.621 -11585.122)" fill="none"/>
        <path id="Path_921149" data-name="Path 921149" d="M10.5-12.524V0H3.174V-35.547H17.041a16.044,16.044,0,0,1,7.043,1.465,10.794,10.794,0,0,1,4.675,4.163,11.607,11.607,0,0,1,1.636,6.14,10.207,10.207,0,0,1-3.577,8.24q-3.577,3.015-9.9,3.015Zm0-5.933h6.543a6.434,6.434,0,0,0,4.431-1.367A4.973,4.973,0,0,0,23-23.73a5.863,5.863,0,0,0-1.538-4.224,5.746,5.746,0,0,0-4.248-1.66H10.5Z" transform="translate(10357.442 -11470.666)"/>
        <path id="Path_921150" data-name="Path 921150" d="M32.1,0H24.78V-15.234H10.5V0H3.174V-35.547H10.5v14.4H24.78v-14.4H32.1Z" transform="translate(10482 -11475)" fill="#12263f"/>
        <path id="Path_921151" data-name="Path 921151" d="M23.242-7.324H10.4L7.959,0H.171L13.4-35.547H20.19L33.5,0H25.708ZM12.378-13.257h8.887L16.8-26.562Z" transform="translate(10353.205 -11328.605)" fill="#fff"/>
        <path id="Path_921152" data-name="Path 921152" d="M16.309-8.813l8.057-26.733H32.52L20.142,0H12.5L.171-35.547H8.3Z" transform="translate(10484 -11328)" fill="#fff"/>
        <g id="Group_1114311" data-name="Group 1114311" transform="translate(10035.621 -11585.122)">
          <g id="Group_1114310" data-name="Group 1114310" transform="translate(0 0)" clip-path="url(#clip-path-2)">
            <path id="Path_918487" data-name="Path 918487" d="M1263.33,469.848a25.344,25.344,0,0,1,43.611-17.565l-3.3,3.1,12.793,3.853-3.06-13.006-2.641,2.483a30.55,30.55,0,0,0-52.612,21.133,2.6,2.6,0,0,0,5.207,0" transform="translate(-892.612 -311.672)" fill="#9d0388"/>
            <path id="Path_918488" data-name="Path 918488" d="M1319.209,530.711a2.6,2.6,0,0,0-2.6,2.6,25.343,25.343,0,0,1-43.611,17.565l3.3-3.1-12.793-3.853,3.06,13.006,2.641-2.483a30.55,30.55,0,0,0,52.612-21.133,2.6,2.6,0,0,0-2.6-2.6" transform="translate(-896.427 -376.528)" fill="#9d0388"/>
          </g>
        </g>
        <path id="Path_921153" data-name="Path 921153" d="M4.052-4.342V0H.967V-12.8H6.073a5.948,5.948,0,0,1,2.6.541,4.074,4.074,0,0,1,1.749,1.538,4.2,4.2,0,0,1,.62,2.263A3.7,3.7,0,0,1,9.7-5.462,5.561,5.561,0,0,1,6.021-4.342Zm0-2.382H6.073A1.906,1.906,0,0,0,7.44-7.172a1.665,1.665,0,0,0,.47-1.266A2.059,2.059,0,0,0,7.427-9.87a1.712,1.712,0,0,0-1.318-.545H4.052ZM15.671,0H12.7V-13.5h2.971Zm7.181,0a3.344,3.344,0,0,1-.281-.853A2.754,2.754,0,0,1,20.285.176,3.374,3.374,0,0,1,18-.637a2.588,2.588,0,0,1-.94-2.043A2.66,2.66,0,0,1,18.2-5.019a5.821,5.821,0,0,1,3.322-.791h.914v-.5q0-1.316-1.134-1.316A.927.927,0,0,0,20.25-6.587H17.288a2.655,2.655,0,0,1,1.173-2.239,4.931,4.931,0,0,1,2.993-.86,4.323,4.323,0,0,1,2.874.888,3.086,3.086,0,0,1,1.081,2.435v4.21a4.311,4.311,0,0,0,.4,2V0ZM21-1.934a1.652,1.652,0,0,0,.918-.237,1.487,1.487,0,0,0,.523-.536V-4.228h-.861q-1.547,0-1.547,1.389a.848.848,0,0,0,.272.655A.986.986,0,0,0,21-1.934ZM29.769-9.51l.1,1.116a3.225,3.225,0,0,1,2.716-1.292A2.713,2.713,0,0,1,34.8-8.8a4.226,4.226,0,0,1,.76,2.672V0H32.59V-6a1.6,1.6,0,0,0-.29-1.059A1.342,1.342,0,0,0,31.245-7.4a1.413,1.413,0,0,0-1.292.686V0H26.991V-9.51ZM41.8.176a4.889,4.889,0,0,1-3.542-1.305,4.507,4.507,0,0,1-1.354-3.4v-.246a5.84,5.84,0,0,1,.541-2.575,3.955,3.955,0,0,1,1.578-1.727,4.763,4.763,0,0,1,2.461-.611,4.117,4.117,0,0,1,3.164,1.244,4.887,4.887,0,0,1,1.16,3.467v1.151H39.92a2.135,2.135,0,0,0,.694,1.257A2.066,2.066,0,0,0,42-2.109a2.662,2.662,0,0,0,2.2-.984l1.354,1.6A3.784,3.784,0,0,1,43.985-.277,5.3,5.3,0,0,1,41.8.176ZM41.467-7.4q-1.3,0-1.547,1.723h2.988v-.229a1.467,1.467,0,0,0-.36-1.1A1.434,1.434,0,0,0,41.467-7.4ZM52.356,0a3.344,3.344,0,0,1-.281-.853A2.754,2.754,0,0,1,49.79.176,3.374,3.374,0,0,1,47.5-.637a2.588,2.588,0,0,1-.94-2.043,2.66,2.66,0,0,1,1.143-2.338,5.821,5.821,0,0,1,3.322-.791h.914v-.5q0-1.316-1.134-1.316a.927.927,0,0,0-1.055,1.042H46.793a2.655,2.655,0,0,1,1.173-2.239,4.931,4.931,0,0,1,2.993-.86,4.323,4.323,0,0,1,2.874.888,3.086,3.086,0,0,1,1.081,2.435v4.21a4.311,4.311,0,0,0,.4,2V0ZM50.5-1.934a1.652,1.652,0,0,0,.918-.237,1.487,1.487,0,0,0,.523-.536V-4.228h-.861q-1.547,0-1.547,1.389a.848.848,0,0,0,.272.655A.986.986,0,0,0,50.5-1.934Zm11.8-4.9L61.33-6.9a1.752,1.752,0,0,0-1.793.879V0H56.575V-9.51h2.777l.1,1.222a2.294,2.294,0,0,1,2.083-1.4,2.888,2.888,0,0,1,.826.105Z" transform="translate(10206 -11516)" fill="#fff"/>
        <g id="Group_1114317" data-name="Group 1114317" transform="translate(0 0.122)">
          <path id="Path_918489" data-name="Path 918489" d="M130.064,62.361A62.365,62.365,0,1,1,67.7,0a62.365,62.365,0,0,1,62.365,62.365" transform="translate(10031.837 -11585.118)" fill="url(#radial-gradient)"/>
          <path id="Path_918493" data-name="Path 918493" d="M206.071,183.074H145.957l-9.234-42h60.114Z" transform="translate(9938.619 -11685.209)" fill="#3681b0"/>
          <path id="Path_918494" data-name="Path 918494" d="M104.934,183.074h60.115l9.234-42H114.169Z" transform="translate(9961.173 -11685.209)" fill="#5bb2e2"/>
          <path id="Path_918495" data-name="Path 918495" d="M139.211,168.046H147.4l1.259-5.725h-8.194Z" transform="translate(9936.854 -11700.284)" fill="#d8e6e7"/>
          <path id="Path_918496" data-name="Path 918496" d="M126.982,223.67h8.193l1.259-5.725H128.24Z" transform="translate(9945.53 -11739.748)" fill="#d8e6e7"/>
          <path id="Path_918497" data-name="Path 918497" d="M133.1,195.859h8.194l1.258-5.725h-8.194Z" transform="translate(9941.191 -11720.018)" fill="#d8e6e7"/>
          <path id="Path_918498" data-name="Path 918498" d="M178.2,168.046H186.4l1.258-5.725H179.46Z" transform="translate(9909.19 -11700.284)" fill="#d8e6e7"/>
          <path id="Path_918499" data-name="Path 918499" d="M165.972,223.67h8.193l1.259-5.725h-8.194Z" transform="translate(9917.867 -11739.748)" fill="#d8e6e7"/>
          <path id="Path_918500" data-name="Path 918500" d="M172.088,195.859h8.194l1.258-5.725h-8.194Z" transform="translate(9913.528 -11720.018)" fill="#d8e6e7"/>
          <path id="Path_918501" data-name="Path 918501" d="M159.859,251.482h8.194l1.258-5.724h-8.194Z" transform="translate(9922.205 -11759.481)" fill="#d8e6e7"/>
          <path id="Path_918502" data-name="Path 918502" d="M217.192,168.046h8.194l1.258-5.725h-8.194Z" transform="translate(9881.528 -11700.284)" fill="#d8e6e7"/>
          <path id="Path_918503" data-name="Path 918503" d="M204.963,223.67h8.193l1.259-5.725h-8.194Z" transform="translate(9890.204 -11739.748)" fill="#d8e6e7"/>
          <path id="Path_918504" data-name="Path 918504" d="M211.078,195.859h8.194l1.258-5.725h-8.194Z" transform="translate(9885.865 -11720.018)" fill="#d8e6e7"/>
          <path id="Path_918505" data-name="Path 918505" d="M198.848,251.482h8.193l1.259-5.724h-8.194Z" transform="translate(9894.543 -11759.481)" fill="#d8e6e7"/>
          <path id="Path_918506" data-name="Path 918506" d="M256.182,168.046h8.194l1.258-5.725h-8.194Z" transform="translate(9853.865 -11700.284)" fill="#d8e6e7"/>
          <path id="Path_918507" data-name="Path 918507" d="M243.952,223.67h8.193l1.259-5.725h-8.193Z" transform="translate(9862.542 -11739.748)" fill="#d8e6e7"/>
          <path id="Path_918508" data-name="Path 918508" d="M250.067,195.859h8.193l1.259-5.725h-8.193Z" transform="translate(9858.203 -11720.018)" fill="#d8e6e7"/>
          <path id="Path_918509" data-name="Path 918509" d="M237.838,251.482h8.193l1.259-5.724H239.1Z" transform="translate(9866.88 -11759.481)" fill="#d8e6e7"/>
          <path id="Path_918510" data-name="Path 918510" d="M282.944,223.67h8.194l1.258-5.725H284.2Z" transform="translate(9834.878 -11739.748)" fill="#d8e6e7"/>
          <path id="Path_918511" data-name="Path 918511" d="M289.061,195.859h8.193l1.259-5.725h-8.194Z" transform="translate(9830.538 -11720.018)" fill="#d8e6e7"/>
          <path id="Path_918512" data-name="Path 918512" d="M276.829,251.482h8.193l1.259-5.724h-8.194Z" transform="translate(9839.217 -11759.481)" fill="#d8e6e7"/>
          <path id="Path_918513" data-name="Path 918513" d="M169.955,123.319a.872.872,0,0,1-.94.785h-2.444a.873.873,0,0,1-.939-.785V112.761a.873.873,0,0,1,.939-.785h2.444a.873.873,0,0,1,.94.785Z" transform="translate(9918.108 -11664.565)" fill="#f08f35"/>
          <path id="Path_918514" data-name="Path 918514" d="M212.415,123.319a.872.872,0,0,1-.939.785h-2.443a.873.873,0,0,1-.94-.785V112.761a.873.873,0,0,1,.94-.785h2.443a.872.872,0,0,1,.939.785Z" transform="translate(9887.983 -11664.565)" fill="#f08f35"/>
          <path id="Path_918515" data-name="Path 918515" d="M254.877,123.319a.872.872,0,0,1-.939.785h-2.444a.872.872,0,0,1-.939-.785V112.761a.873.873,0,0,1,.939-.785h2.444a.872.872,0,0,1,.939.785Z" transform="translate(9857.857 -11664.565)" fill="#f08f35"/>
          <path id="Path_918516" data-name="Path 918516" d="M297.338,123.319a.872.872,0,0,1-.939.785h-2.444a.872.872,0,0,1-.939-.785V112.761a.872.872,0,0,1,.939-.785H296.4a.872.872,0,0,1,.939.785Z" transform="translate(9827.732 -11664.565)" fill="#f08f35"/>
          <path id="Path_918517" data-name="Path 918517" d="M192.269,183.03a38.163,38.163,0,0,0-3.233,4.448c-.273-.521-.544-1.042-.8-1.573-.4-.837-1.636-.107-1.241.726.45.95.962,1.869,1.438,2.806.753,1.485,1.306-.779,5.073-5.681.565-.735-.685-1.45-1.241-.726" transform="translate(9903.004 -11714.763)" fill="#e53c31"/>
          <path id="Path_918518" data-name="Path 918518" d="M117.157,160.889l16.381,6.694c.615-.236,1.764-.966,1.086-2.911-.646-1.851-7.921-6.063-7.921-6.063Z" transform="translate(9952.501 -11697.651)" fill="#f3b167"/>
          <path id="Path_918519" data-name="Path 918519" d="M107.272,190.875s-4.5-.994-5.959-.733-4.331,3.367-4.331,3.367l-1.36-1.379,3.108-5.047,5.853-2.045,5.795,2.265Z" transform="translate(9967.779 -11716.401)" fill="#f3b167"/>
          <path id="Path_918520" data-name="Path 918520" d="M61.878,149.007,88.57,160.234l2.3-5.473L64.18,143.536a1.158,1.158,0,0,0-1.514.617l-1.4,3.342a1.155,1.155,0,0,0,.616,1.513" transform="translate(9992.222 -11686.893)" fill="#347a86"/>
          <rect id="Rectangle_407289" data-name="Rectangle 407289" width="6.883" height="4.08" transform="translate(10055.14 -11536.934) rotate(-67.177)" fill="#f08f35"/>
          <path id="Path_918521" data-name="Path 918521" d="M157.783,182.4l-2.3,5.473a5.868,5.868,0,0,0,3.823.363l1.412-3.356a5.86,5.86,0,0,0-2.932-2.48" transform="translate(9925.311 -11714.528)" fill="#347a86"/>
          <path id="Path_918522" data-name="Path 918522" d="M170.054,190.932l-1.411,3.354,4.5.771.61-1.449Z" transform="translate(9915.973 -11720.583)" fill="#fff"/>
          <rect id="Rectangle_407290" data-name="Rectangle 407290" width="5.937" height="5.254" transform="matrix(0.388, -0.922, 0.922, 0.388, 10075.948, -11528.696)" fill="#f08f35"/>
          <path id="Path_918523" data-name="Path 918523" d="M184.96,201.414l1.773.748a.385.385,0,1,1-.3.71l-1.775-.747Z" transform="translate(9904.608 -11728.021)" fill="#1c1c1c"/>
          <path id="Path_918524" data-name="Path 918524" d="M50.133,201.467l1.134-12.061a13.407,13.407,0,0,1,2.47-6.585l4.137-5.747a3.443,3.443,0,0,1,3.268-1.411l8.295,3.489-4.915,1.28c-5.176,8.4,1.658,11.466,4.514,7.992,2.679-3.262,6.569-8.582,8.323-9.236a2.789,2.789,0,0,1,3.559,2.8c.142,2.214-4.218,8.294-7.884,15.686L62.943,208.5l-2.162,6.1L47.4,206.063Z" transform="translate(10001.988 -11709.75)" fill="#f5c382"/>
          <path id="Path_918525" data-name="Path 918525" d="M146.151,195.9l-3.014-1.921c1.083-2.676,2.488-3.931,3.791-3.2,1.536.859,1.425,2.7-.776,5.123" transform="translate(9934.068 -11720.331)" fill="#f7d1a5"/>
          <rect id="Rectangle_407291" data-name="Rectangle 407291" width="16.451" height="26.135" transform="translate(10036.329 -11492.221) rotate(-59.807)" fill="#171d9d"/>
          <path id="Path_918526" data-name="Path 918526" d="M34.892,263.872l2.211-3.8,20.275,11.8-2.209,3.794Z" transform="translate(10010.866 -11769.639)" fill="#4eadd1"/>
          <rect id="Rectangle_407292" data-name="Rectangle 407292" width="3.709" height="23.457" transform="translate(10035.621 -11488.342) rotate(-59.809)" fill="#1727b3"/>
          <path id="Path_918527" data-name="Path 918527" d="M35.41,296.128a1.49,1.49,0,1,1,2.039-.537,1.489,1.489,0,0,1-2.039.537" transform="translate(10011.025 -11793.246)" fill="#dadbdc"/>
        </g>
        <g id="Group_1114315" data-name="Group 1114315" transform="translate(0 -2.635)">
          <path id="Path_918492" data-name="Path 918492" d="M2410.064,738.361A62.365,62.365,0,1,1,2347.7,676a62.365,62.365,0,0,1,62.365,62.365" transform="translate(8414.224 -12064.727)" fill="url(#radial-gradient)"/>
          <path id="Path_918528" data-name="Path 918528" d="M2553.991,771.187v47.947h-43.159V803.2a18.837,18.837,0,0,0,0-31.717v-.3Z" transform="translate(8254.238 -12132.263)" fill="#afebf0"/>
          <rect id="Rectangle_407293" data-name="Rectangle 407293" width="43.159" height="3.745" transform="translate(10765.07 -11313.128)" fill="#84d8dd"/>
          <rect id="Rectangle_407294" data-name="Rectangle 407294" width="43.159" height="3.745" transform="translate(10765.07 -11309.383)" fill="#afebf0"/>
          <rect id="Rectangle_407295" data-name="Rectangle 407295" width="43.159" height="3.745" transform="translate(10765.07 -11305.638)" fill="#84d8dd"/>
          <rect id="Rectangle_407296" data-name="Rectangle 407296" width="43.159" height="3.745" transform="translate(10765.07 -11301.892)" fill="#afebf0"/>
          <rect id="Rectangle_407297" data-name="Rectangle 407297" width="43.159" height="3.745" transform="translate(10765.07 -11298.147)" fill="#84d8dd"/>
          <rect id="Rectangle_407298" data-name="Rectangle 407298" width="43.159" height="3.745" transform="translate(10765.07 -11294.402)" fill="#afebf0"/>
          <rect id="Rectangle_407299" data-name="Rectangle 407299" width="7.549" height="5.333" transform="translate(10741.438 -11319.95) rotate(-67.073)" fill="#2a2b2b"/>
          <path id="Path_918529" data-name="Path 918529" d="M2404.454,911.13l-8.343,18.979c-1.986,4.69,5.112,7.759,7.122,3.013l8.344-18.978Z" transform="translate(8335.876 -12231.549)" fill="#a5b73b"/>
          <path id="Path_918530" data-name="Path 918530" d="M2423.927,792.931a23.15,23.15,0,1,1,18.01-27.343,23.159,23.159,0,0,1-18.01,27.343" transform="translate(8335.639 -12115.175)" fill="#4b4c4c"/>
          <rect id="Rectangle_407300" data-name="Rectangle 407300" width="11.966" height="9.863" transform="matrix(0.441, -0.897, 0.897, 0.441, 10719.708, -11306.731)" fill="#f6c485"/>
          <path id="Path_918531" data-name="Path 918531" d="M2412.168,941.111c-2.135-1.2-.249-4.522,1.945-3.286l6.852,3.822a1.909,1.909,0,1,1-1.945,3.285Z" transform="translate(8324.902 -12250.296)" fill="#f6c485"/>
          <path id="Path_918532" data-name="Path 918532" d="M2409.59,954.708a1.909,1.909,0,0,1,1.876-3.325l6.832,3.767a1.908,1.908,0,0,1-1.875,3.324Z" transform="translate(8326.765 -12259.914)" fill="#f6c485"/>
          <path id="Path_918533" data-name="Path 918533" d="M2400.738,964a1.908,1.908,0,0,1,1.875-3.324l6.736,3.8a1.909,1.909,0,0,1-1.877,3.325Z" transform="translate(8333.046 -12266.508)" fill="#f6c485"/>
          <path id="Path_918534" data-name="Path 918534" d="M2400.915,977.861a1.57,1.57,0,1,1,1.536-2.727l3.776,2.131a1.57,1.57,0,1,1-1.536,2.725Z" transform="translate(8332.876 -12276.773)" fill="#f6c485"/>
          <path id="Path_918535" data-name="Path 918535" d="M2369.406,940.779s-.736,2.974,3.641,5.921a43.837,43.837,0,0,0,8.389,3.832l5.944-12.08-6.483-3.892Z" transform="translate(8354.609 -12248.173)" fill="#f6c485"/>
          <path id="Path_918536" data-name="Path 918536" d="M2393.509,919.21c-1.777,6.7-9.248,7.3-11.448,5.745-3.139-2.245-2.582-5.771-.885-9.268a19.026,19.026,0,0,1,7.154-2.559,2.734,2.734,0,0,0,1.833-.885c.8-.933.66-2.238,1.51-2.257,2.875-.056,2.7,3.185-.456,5.857-2.017,1.706,2.292,3.367,2.292,3.367" transform="translate(8347.2 -12230.737)" fill="#f6c485"/>
          <path id="Path_918537" data-name="Path 918537" d="M2417.764,910.07c-.03.089-.062.177-.1.269a2.523,2.523,0,0,1-2.2,1.9c.8-.933.66-2.238,1.51-2.257a2.96,2.96,0,0,1,.791.083" transform="translate(8321.9 -12230.737)" fill="#eb4a26"/>
          <rect id="Rectangle_407301" data-name="Rectangle 407301" width="15.846" height="9.974" transform="translate(10710.598 -11309.791) rotate(-65.209)" fill="#e53c31"/>
          <rect id="Rectangle_407302" data-name="Rectangle 407302" width="14.221" height="19.951" transform="matrix(0.419, -0.908, 0.908, 0.419, 10701.882, -11314.713)" fill="#e53c31"/>
          <rect id="Rectangle_407303" data-name="Rectangle 407303" width="14.221" height="2.663" transform="matrix(0.42, -0.908, 0.908, 0.42, 10719.992, -11306.349)" fill="#96d4dd"/>
          <rect id="Rectangle_407304" data-name="Rectangle 407304" width="14.222" height="2.249" transform="matrix(0.419, -0.908, 0.908, 0.419, 10708.896, -11311.472)" fill="#cf2e21"/>
          <path id="Path_918538" data-name="Path 918538" d="M2358.157,916.947a.9.9,0,1,1,.441,1.2.9.9,0,0,1-.441-1.2" transform="translate(8362.617 -12235.304)" fill="#dadbdc"/>
          <path id="Path_918539" data-name="Path 918539" d="M2510.832,803.929V772.212a18.837,18.837,0,0,1,0,31.717" transform="translate(8254.238 -12132.989)" fill="#75c8e5"/>
          <path id="Path_918540" data-name="Path 918540" d="M2439.97,764.915v31.717a18.842,18.842,0,1,1,0-31.717" transform="translate(8325.1 -12125.693)" fill="#96d4dd"/>
          <path id="Path_918541" data-name="Path 918541" d="M2458.608,798.237a2.59,2.59,0,1,1,1.257-3.441,2.591,2.591,0,0,1-1.257,3.441" transform="translate(8293.902 -12147.949)" fill="#afebf0"/>
          <path id="Path_918542" data-name="Path 918542" d="M2573.425,806.97h-16.208V790.762h16.208Zm-14.206-2h12.2v-12.2h-12.2Z" transform="translate(8221.328 -12146.15)" fill="#2a2b2b"/>
          <path id="Path_918543" data-name="Path 918543" d="M2577.638,807.668l-4.444,4.443-2.635-2.634-.97.971,3.6,3.606,5.415-5.414Z" transform="translate(8212.551 -12158.146)" fill="#e53c31"/>
          <path id="Path_918544" data-name="Path 918544" d="M2573.425,876.569h-16.208V860.361h16.208Zm-14.206-2h12.2v-12.2h-12.2Z" transform="translate(8221.328 -12195.529)" fill="#2a2b2b"/>
          <path id="Path_918545" data-name="Path 918545" d="M2577.638,877.267l-4.444,4.443-2.635-2.635-.97.971,3.6,3.606,5.415-5.414Z" transform="translate(8212.551 -12207.523)" fill="#e53c31"/>
        </g>
        <g id="Group_1114316" data-name="Group 1114316">
          <path id="Path_918491" data-name="Path 918491" d="M2410.064,62.361a62.363,62.363,0,1,1-14.944-40.507,62.365,62.365,0,0,1,14.944,40.507" transform="translate(8414.224 -11585.118)" fill="url(#radial-gradient)"/>
          <path id="Path_918546" data-name="Path 918546" d="M2408.332,100.721a6.861,6.861,0,0,0-6.872,6.835v60.02a6.86,6.86,0,0,0,6.872,6.832h25.513V100.721Z" transform="translate(8331.835 -11656.581)" fill="#424242"/>
          <path id="Path_918547" data-name="Path 918547" d="M2545.318,107.556v60.02a6.86,6.86,0,0,1-6.873,6.832h-25.513V100.721h25.513a6.861,6.861,0,0,1,6.873,6.835" transform="translate(8252.747 -11656.581)" fill="#2d2d2d"/>
          <path id="Path_918548" data-name="Path 918548" d="M2290.877,280.418l13.376,8.982,2.953-4.754c8.729,1.709,18.4-16.534,18.4-16.534l-26.09-3.205Z" transform="translate(8410.291 -11773.068)" fill="#f5c382"/>
          <path id="Path_918549" data-name="Path 918549" d="M2323.522,213.031a11.513,11.513,0,1,0,10.531-12.416,11.513,11.513,0,0,0-10.531,12.416" transform="translate(8387.158 -11727.426)" fill="#ddedeb"/>
          <rect id="Rectangle_407305" data-name="Rectangle 407305" width="1.198" height="2.154" transform="matrix(0.997, -0.081, 0.081, 0.997, 10720.682, -11526.438)" fill="#4d4f50"/>
          <rect id="Rectangle_407306" data-name="Rectangle 407306" width="2.154" height="1.198" transform="matrix(0.997, -0.081, 0.081, 0.997, 10731.145, -11516.677)" fill="#4d4f50"/>
          <rect id="Rectangle_407307" data-name="Rectangle 407307" width="1.198" height="2.154" transform="translate(10722.336 -11506.292) rotate(-4.674)" fill="#4d4f50"/>
          <rect id="Rectangle_407308" data-name="Rectangle 407308" width="2.152" height="1.198" transform="translate(10711 -11515.021) rotate(-4.703)" fill="#4d4f50"/>
          <path id="Path_918550" data-name="Path 918550" d="M2473.763,114.521h-50.529a1.12,1.12,0,0,0-1.12,1.121v63.473a1.12,1.12,0,0,0,1.12,1.119h51.65V115.642a1.121,1.121,0,0,0-1.12-1.121" transform="translate(8317.182 -11666.371)" fill="#ddedeb"/>
          <path id="Path_918551" data-name="Path 918551" d="M2479.809,56.649V54.018h-.66a4.952,4.952,0,0,0-4.952,4.954v3.422c-4.042.327-7.949,3.49-7.949,9.2h13.561V60.3a1.828,1.828,0,0,1,0-3.655" transform="translate(8285.869 -11623.446)" fill="#544dd4"/>
          <path id="Path_918552" data-name="Path 918552" d="M2526.493,71.6H2512.93V60.308c.044,0,.089,0,.13-.006a1.827,1.827,0,0,0,0-3.644c-.041,0-.086,0-.13,0V54.022h.659a4.952,4.952,0,0,1,4.955,4.953V62.4a8.561,8.561,0,0,1,4.955,2.075s.006,0,.006,0a9.15,9.15,0,0,1,2.988,7.122" transform="translate(8252.749 -11623.448)" fill="#171d9d"/>
          <path id="Path_918553" data-name="Path 918553" d="M2574.541,191.242l-13.987,5.716c-.526-.2-1.508-.825-.928-2.485.552-1.581,6.764-5.178,6.764-5.178Z" transform="translate(8219.746 -11719.422)" fill="#f3b167"/>
          <path id="Path_918554" data-name="Path 918554" d="M2589.919,217.823s2.992-1.828,4.239-1.6,3.7,2.876,3.7,2.876l1.161-1.178-2.654-4.31-5-1.746-4.948,1.936Z" transform="translate(8200.611 -11735.433)" fill="#f3b167"/>
          <path id="Path_918555" data-name="Path 918555" d="M2468.277,222.105h24.477V197.629h-24.477Zm20.712-3.764h-16.948V201.394h16.948Z" transform="translate(8284.43 -11725.335)" fill="#56bbe0"/>
          <path id="Path_918556" data-name="Path 918556" d="M2501.639,225.442l-8.953-9.735,3.2-2.947,5.472,5.948,8.226-10.582,3.436,2.67Z" transform="translate(8267.112 -11732.782)" fill="#ed6c4e"/>
          <path id="Path_918557" data-name="Path 918557" d="M2563.4,178.445l38.1-18.73,1.308,2.663-38.928,19.137.438-1.2-1.312-.572Z" transform="translate(8217.224 -11698.436)" fill="#eb4626"/>
          <path id="Path_918558" data-name="Path 918558" d="M2549.287,226.337l4.378-2.152-.393,1.3,1.31.569-.437,1.205-4.427-.044Z" transform="translate(8226.955 -11744.175)" fill="#f7cb6b"/>
          <path id="Path_918559" data-name="Path 918559" d="M2543.322,230.31l2.164.021-.861-1.748Z" transform="translate(8231.187 -11747.296)" fill="#eb4626"/>
          <path id="Path_918560" data-name="Path 918560" d="M2556.994,169.688l38.929-19.137,1.309,2.663-38.1,18.729-1.265-.479.392-1.3Z" transform="translate(8221.487 -11691.934)" fill="#cb3a20"/>
          <path id="Path_918561" data-name="Path 918561" d="M2550.476,216.423l1.265.48-.393,1.3,1.266.479-4.378,2.153-.43-.876Z" transform="translate(8228.005 -11738.669)" fill="#e9b95c"/>
          <path id="Path_918562" data-name="Path 918562" d="M2393.589,276.087a5.8,5.8,0,0,1-6.81,1.682l2.846-1.682Z" transform="translate(8342.251 -11780.999)" fill="#dd8e56"/>
          <path id="Path_918563" data-name="Path 918563" d="M2385.641,188.495l10.118-4.436c3.475-1.861,6.306,3.391,2.817,5.26l-8.853,4.269Z" transform="translate(8343.059 -11715.428)" fill="#f5c382"/>
          <rect id="Rectangle_407309" data-name="Rectangle 407309" width="2.553" height="6.218" transform="translate(10707.333 -11526.232) rotate(-49.71)" fill="#4d4f50"/>
          <rect id="Rectangle_407310" data-name="Rectangle 407310" width="5.177" height="2.552" transform="matrix(0.647, -0.763, 0.763, 0.647, 10705.736, -11525.867)" fill="#2d2d2d"/>
          <rect id="Rectangle_407311" data-name="Rectangle 407311" width="6.218" height="2.553" transform="translate(10729.029 -11525.416) rotate(-49.673)" fill="#4d4f50"/>
          <rect id="Rectangle_407312" data-name="Rectangle 407312" width="2.553" height="5.177" transform="matrix(0.647, -0.763, 0.763, 0.647, 10731.035, -11529.809)" fill="#2d2d2d"/>
          <path id="Path_918564" data-name="Path 918564" d="M2314,206.494a14.281,14.281,0,1,0,13.065-15.4,14.282,14.282,0,0,0-13.065,15.4m3.426-.285a10.844,10.844,0,1,1,11.7,9.922,10.844,10.844,0,0,1-11.7-9.922" transform="translate(8393.92 -11720.662)" fill="#eb4626"/>
          <path id="Path_918565" data-name="Path 918565" d="M2361.347,223.927l1.062.609,3.2-5.606-.01-1.216-1.054.609Z" transform="translate(8360.294 -11739.585)" fill="#2d2d2d"/>
          <path id="Path_918566" data-name="Path 918566" d="M2349.456,239.369l-.12-1.456-4.435.364-1.185.83,1.305.626Z" transform="translate(8372.803 -11753.916)" fill="#1b50af"/>
          <path id="Path_918567" data-name="Path 918567" d="M2359.021,237.234a1.229,1.229,0,1,0,1.186-1.27,1.226,1.226,0,0,0-1.186,1.27" transform="translate(8361.945 -11752.532)" fill="#2f2c2a"/>
          <path id="Path_918568" data-name="Path 918568" d="M2391.221,217.02h0a3.063,3.063,0,0,0,4.349,2.253l2.2-1.058c3.667-1.766,1-7.278-2.655-5.521l-2.2,1.059a3.061,3.061,0,0,0-1.693,3.267" transform="translate(8339.129 -11735.781)" fill="#f5c382"/>
          <path id="Path_918569" data-name="Path 918569" d="M2389.348,221.722h0a2.271,2.271,0,0,0,3.223,1.67l1.631-.786a2.27,2.27,0,0,0-1.968-4.091l-1.631.784a2.272,2.272,0,0,0-1.255,2.422" transform="translate(8340.45 -11739.974)" fill="#f5d2b1"/>
          <path id="Path_918570" data-name="Path 918570" d="M2390.159,240.719h0a3.063,3.063,0,0,0,4.349,2.252l2.2-1.058c3.668-1.766,1-7.278-2.655-5.521l-2.2,1.058a3.066,3.066,0,0,0-1.694,3.269" transform="translate(8339.883 -11752.594)" fill="#f5c382"/>
          <path id="Path_918571" data-name="Path 918571" d="M2393.889,263.282h0a2.507,2.507,0,0,0,3.559,1.845l.966-.465a2.507,2.507,0,0,0-2.174-4.518l-.965.464a2.507,2.507,0,0,0-1.386,2.674" transform="translate(8337.23 -11769.49)" fill="#f5c382"/>
          <path id="Path_918572" data-name="Path 918572" d="M2288.3,216.437c-.33,24.67,9.943,19.913,11.871,16.823,2.652-4.268-.341-10.331-3.914-14.478,0,0,10.589-6.384,4.041-12.164Z" transform="translate(8412.122 -11731.712)" fill="#f5c382"/>
          <path id="Path_918573" data-name="Path 918573" d="M2313.842,210.366c.677,1.052,2.594.968,4-.353,1.194-1.118,1.454-2.639.582-3.4Z" transform="translate(8393.998 -11731.71)" fill="#f5d2b1"/>
          <path id="Path_918574" data-name="Path 918574" d="M2389.348,245.279h0a2.271,2.271,0,0,0,3.223,1.669l1.631-.784a2.27,2.27,0,0,0-1.968-4.092l-1.631.785a2.271,2.271,0,0,0-1.255,2.422" transform="translate(8340.45 -11756.687)" fill="#f5d2b1"/>
          <path id="Path_918575" data-name="Path 918575" d="M2392,265.988h0a1.7,1.7,0,0,0,2.418,1.252l1.223-.588a1.7,1.7,0,0,0-1.476-3.069l-1.223.588a1.7,1.7,0,0,0-.941,1.817" transform="translate(8338.563 -11771.993)" fill="#f5d2b1"/>
          <path id="Path_918576" data-name="Path 918576" d="M2598.741,225.334l-.969-10.3a11.449,11.449,0,0,0-2.108-5.623l-3.533-4.908a3.19,3.19,0,0,0-2.827-1.433l-6.942,3.412,4.092.888c4.42,7.178-1.416,9.791-3.854,6.824-2.288-2.784-5.609-7.329-7.106-7.886a2.382,2.382,0,0,0-3.039,2.391c-.121,1.891,3.6,7.083,6.731,13.394l8.616,9.242,1.846,5.21,11.422-7.289Z" transform="translate(8210.52 -11729.196)" fill="#f5c382"/>
          <path id="Path_918577" data-name="Path 918577" d="M2575.917,216.765c1.113-.622,2.313.451,3.238,2.735l-2.574,1.64c-1.88-2.069-1.975-3.641-.664-4.375" transform="translate(8208.687 -11738.788)" fill="#f7d1a5"/>
          <rect id="Rectangle_407313" data-name="Rectangle 407313" width="22.317" height="14.048" transform="matrix(0.864, -0.503, 0.503, 0.864, 10796.391, -11491.065)" fill="#171d9d"/>
        </g>
        <g id="Group_1114318" data-name="Group 1114318" transform="translate(0 -7.635)">
          <path id="Path_918490" data-name="Path 918490" d="M130.064,738.361A62.365,62.365,0,1,1,67.7,676a62.365,62.365,0,0,1,62.365,62.365" transform="translate(10031.837 -12064.727)" fill="url(#radial-gradient)"/>
          <rect id="Rectangle_407314" data-name="Rectangle 407314" width="62.065" height="73.272" transform="translate(10062.085 -11370.423)" fill="#96d4dd"/>
          <rect id="Rectangle_407315" data-name="Rectangle 407315" width="9.662" height="2.924" transform="translate(10088.104 -11361.394)" fill="#2f66ac"/>
          <rect id="Rectangle_407316" data-name="Rectangle 407316" width="4.83" height="2.924" transform="translate(10101.155 -11361.394)" fill="#2f66ac"/>
          <rect id="Rectangle_407317" data-name="Rectangle 407317" width="8.162" height="2.924" transform="translate(10109.667 -11361.394)" fill="#2f66ac"/>
          <rect id="Rectangle_407318" data-name="Rectangle 407318" width="9.662" height="2.924" transform="translate(10088.104 -11356.142)" fill="#2f66ac"/>
          <rect id="Rectangle_407319" data-name="Rectangle 407319" width="4.83" height="2.924" transform="translate(10101.155 -11356.142)" fill="#2f66ac"/>
          <rect id="Rectangle_407320" data-name="Rectangle 407320" width="8.162" height="2.924" transform="translate(10109.667 -11356.142)" fill="#2f66ac"/>
          <rect id="Rectangle_407321" data-name="Rectangle 407321" width="9.662" height="2.923" transform="translate(10088.104 -11336.555)" fill="#2f66ac"/>
          <rect id="Rectangle_407322" data-name="Rectangle 407322" width="4.83" height="2.923" transform="translate(10101.155 -11336.555)" fill="#2f66ac"/>
          <rect id="Rectangle_407323" data-name="Rectangle 407323" width="8.162" height="2.923" transform="translate(10109.667 -11336.555)" fill="#2f66ac"/>
          <rect id="Rectangle_407324" data-name="Rectangle 407324" width="9.662" height="2.923" transform="translate(10088.104 -11331.304)" fill="#2f66ac"/>
          <rect id="Rectangle_407325" data-name="Rectangle 407325" width="4.83" height="2.923" transform="translate(10101.155 -11331.304)" fill="#2f66ac"/>
          <rect id="Rectangle_407326" data-name="Rectangle 407326" width="8.162" height="2.923" transform="translate(10109.667 -11331.304)" fill="#2f66ac"/>
          <rect id="Rectangle_407327" data-name="Rectangle 407327" width="14.906" height="14.906" transform="translate(10068.224 -11364.134)" fill="#afebf0"/>
          <path id="Path_918578" data-name="Path 918578" d="M133.759,798.631a3.658,3.658,0,0,1-.734,2.3H128.75a3.567,3.567,0,0,1-.692-2.3,4.753,4.753,0,0,0,.767-2.21h4.167a4.791,4.791,0,0,0,.766,2.21" transform="translate(9944.767 -12150.165)" fill="#e79f63"/>
          <path id="Path_918579" data-name="Path 918579" d="M128.846,769.506l3.7,2.281-.731,5.192a3.412,3.412,0,0,1-5.93,0l-.731-5.192Z" transform="translate(9946.83 -12131.069)" fill="#f2b982"/>
          <path id="Path_918580" data-name="Path 918580" d="M131.826,771.8l-.378,1.183h-.422l.335-2.969c-.571-.9-1.583-.877-3.047-.724-1.464-.153-2.477-.179-3.046.724l.335,2.969h-.422L124.8,771.8c-2.771-6.642,9.795-6.642,7.024,0" transform="translate(9947.361 -12129.165)" fill="#333c3b"/>
          <path id="Path_918581" data-name="Path 918581" d="M122.069,801.16l-2.4,1.4-2.4-1.4c-2.079.383-3.509.4-5.054,3.14h14.906c-1.546-2.743-2.977-2.757-5.056-3.14" transform="translate(9956.004 -12153.527)" fill="#92309a"/>
          <rect id="Rectangle_407328" data-name="Rectangle 407328" width="14.905" height="14.906" transform="translate(10068.224 -11340.289)" fill="#afebf0"/>
          <path id="Path_918582" data-name="Path 918582" d="M133.759,880.7a3.658,3.658,0,0,1-.734,2.3H128.75a3.568,3.568,0,0,1-.692-2.3,4.754,4.754,0,0,0,.767-2.211h4.167a4.792,4.792,0,0,0,.766,2.211" transform="translate(9944.767 -12208.394)" fill="#e79f63"/>
          <path id="Path_918583" data-name="Path 918583" d="M128.846,851.58l3.7,2.281-.731,5.192a3.413,3.413,0,0,1-5.93,0l-.731-5.192Z" transform="translate(9946.83 -12189.3)" fill="#f2b982"/>
          <path id="Path_918584" data-name="Path 918584" d="M131.826,853.876l-.378,1.183h-.422l.335-2.969c-.571-.9-1.583-.876-3.047-.724-1.464-.152-2.477-.179-3.046.724l.335,2.969h-.422l-.378-1.183c-2.771-6.642,9.795-6.642,7.024,0" transform="translate(9947.361 -12187.395)" fill="#333c3b"/>
          <path id="Path_918585" data-name="Path 918585" d="M122.069,883.234l-2.4,1.4-2.4-1.4c-2.079.383-3.509.4-5.054,3.14h14.906c-1.546-2.743-2.977-2.757-5.056-3.14" transform="translate(9956.004 -12211.758)" fill="#3a3f93"/>
          <rect id="Rectangle_407329" data-name="Rectangle 407329" width="14.905" height="14.906" transform="translate(10068.224 -11317.709)" fill="#afebf0"/>
          <path id="Path_918586" data-name="Path 918586" d="M133.762,958.431a3.658,3.658,0,0,1-.734,2.3h-4.276a3.571,3.571,0,0,1-.691-2.3,4.766,4.766,0,0,0,.767-2.211H133a4.815,4.815,0,0,0,.767,2.211" transform="translate(9944.765 -12263.539)" fill="#e79f63"/>
          <path id="Path_918587" data-name="Path 918587" d="M128.848,929.306l3.7,2.281-.73,5.193a3.413,3.413,0,0,1-5.931,0l-.731-5.193Z" transform="translate(9946.828 -12244.444)" fill="#d38140"/>
          <path id="Path_918588" data-name="Path 918588" d="M131.83,931.6l-.377,1.184h-.423l.336-2.97c-.57-.9-1.583-.876-3.047-.724-1.465-.152-2.477-.179-3.046.724l.335,2.97h-.422l-.377-1.184c-2.773-6.642,9.794-6.642,7.022,0" transform="translate(9947.357 -12242.539)" fill="#333c3b"/>
          <path id="Path_918589" data-name="Path 918589" d="M122.072,960.96l-2.4,1.4-2.4-1.4c-2.079.383-3.509.4-5.054,3.14h14.9c-1.544-2.743-2.976-2.757-5.055-3.14" transform="translate(9956.002 -12266.902)" fill="#ca43c6"/>
          <path id="Path_918590" data-name="Path 918590" d="M150.462,872.673a9.059,9.059,0,1,1-9.058-9.059,9.058,9.058,0,0,1,9.058,9.059" transform="translate(9941.726 -12197.838)" fill="#e1fdfd"/>
          <path id="Path_918591" data-name="Path 918591" d="M152.577,879.227l-5.68,5.68-3.806-3.806-1.683,1.683,5.49,5.49,7.363-7.363Z" transform="translate(9935.295 -12208.914)" fill="#d04425"/>
          <path id="Path_918592" data-name="Path 918592" d="M195.6,909.859l-4.688-9.583a.291.291,0,0,1-.05.069c-1.814-3.559-3.881-2.536-4.692-1.365l-.241-.471a2.482,2.482,0,0,0-4.627.651c-1.325-2.575-4.973-1.053-4.635,1.379l-.164-.323c-1.347-2.641-5.12-1.008-4.619,1.508l-5.6-10.436a2.331,2.331,0,1,0-4.045,2.318l6.711,12.674,3.859,8-4.075-1.8c-7.737-3.8-8.52-1-8.6-.954a1.318,1.318,0,0,0,.066,2.315l11.678,5.841c5.571,4.338,4.039,3.43,9.634,5.691l3.055,6.114,14.37-6.038-2.763-5.224c1.027-3.414,1.525-6.579-.577-10.368" transform="translate(9922.47 -12216.64)" fill="#f5c382"/>
          <path id="Path_918593" data-name="Path 918593" d="M171.542,892.653c1.055-.568,2.141.57,2.862,2.77l-2.521,1.376c-1.63-2.062-1.743-3.388-.341-4.146" transform="translate(9914.606 -12218.337)" fill="#e68443"/>
          <rect id="Rectangle_407330" data-name="Rectangle 407330" width="21.366" height="13.449" transform="translate(10105.009 -11284.357) rotate(-23.459)" fill="#ca43c6"/>
          <rect id="Rectangle_407331" data-name="Rectangle 407331" width="19.177" height="22.245" transform="matrix(0.917, -0.398, 0.398, 0.917, 10106.014, -11284.794)" fill="#ca43c6"/>
          <rect id="Rectangle_407332" data-name="Rectangle 407332" width="19.177" height="3.591" transform="translate(10104.584 -11288.088) rotate(-23.459)" fill="#96d4dd"/>
          <rect id="Rectangle_407333" data-name="Rectangle 407333" width="19.177" height="3.032" transform="translate(10111.368 -11272.455) rotate(-23.46)" fill="#92309a"/>
          <path id="Path_918594" data-name="Path 918594" d="M293.95,1025.722a1.219,1.219,0,1,0-1.6-.632,1.218,1.218,0,0,0,1.6.632" transform="translate(9828.279 -12311.191)" fill="#dadbdc"/>
        </g>
        <path id="Path_921154" data-name="Path 921154" d="M0,0H788.667V321.122H0Z" transform="translate(10035.621 -11585.122)" fill="none"/>
        <path id="Path_921155" data-name="Path 921155" d="M5.933-3.48,8.481-12.8h3.445L7.62,0H4.245L-.026-12.8H3.393ZM17.323.176a4.889,4.889,0,0,1-3.542-1.305,4.507,4.507,0,0,1-1.354-3.4v-.246a5.84,5.84,0,0,1,.541-2.575,3.955,3.955,0,0,1,1.578-1.727,4.763,4.763,0,0,1,2.461-.611,4.117,4.117,0,0,1,3.164,1.244,4.887,4.887,0,0,1,1.16,3.467v1.151H15.442a2.135,2.135,0,0,0,.694,1.257,2.066,2.066,0,0,0,1.389.457,2.662,2.662,0,0,0,2.2-.984l1.354,1.6A3.784,3.784,0,0,1,19.507-.277,5.3,5.3,0,0,1,17.323.176ZM16.989-7.4q-1.3,0-1.547,1.723h2.988v-.229a1.467,1.467,0,0,0-.36-1.1A1.434,1.434,0,0,0,16.989-7.4Zm11.285.571L27.3-6.9a1.752,1.752,0,0,0-1.793.879V0H22.544V-9.51h2.777l.1,1.222a2.294,2.294,0,0,1,2.083-1.4,2.888,2.888,0,0,1,.826.105ZM32.467,0H29.5V-9.51h2.971ZM29.32-11.962A1.322,1.322,0,0,1,29.777-13a1.724,1.724,0,0,1,1.187-.4,1.724,1.724,0,0,1,1.187.4,1.322,1.322,0,0,1,.457,1.037,1.322,1.322,0,0,1-.457,1.037,1.724,1.724,0,0,1-1.187.4,1.724,1.724,0,0,1-1.187-.4A1.322,1.322,0,0,1,29.32-11.962ZM34.98,0V-7.453H33.6V-9.51h1.38v-.316a3.631,3.631,0,0,1,1.248-2.909,4.987,4.987,0,0,1,3.243-.949,11.509,11.509,0,0,1,3.094.51l-.4,2.338-.492-.132a7.832,7.832,0,0,0-2.021-.255q-1.7,0-1.7,1.547v.167h1.863v2.057H37.951V0Zm8.947,0H40.948V-9.51h2.979Zm5.827-2.109a1.317,1.317,0,0,0,.967-.338,1.241,1.241,0,0,0,.334-.945h2.777A3.288,3.288,0,0,1,52.712-.826a4.168,4.168,0,0,1-2.887,1,4.22,4.22,0,0,1-3.27-1.3,5.125,5.125,0,0,1-1.2-3.6v-.123A5.792,5.792,0,0,1,45.892-7.4a3.872,3.872,0,0,1,1.534-1.7A4.573,4.573,0,0,1,49.8-9.686a4.116,4.116,0,0,1,2.944,1.028,3.647,3.647,0,0,1,1.09,2.786H51.056A1.626,1.626,0,0,0,50.7-7a1.244,1.244,0,0,0-.967-.4q-1.151,0-1.345,1.468a10.357,10.357,0,0,0-.062,1.283,4.068,4.068,0,0,0,.343,1.986A1.187,1.187,0,0,0,49.755-2.109ZM60.442,0a3.344,3.344,0,0,1-.281-.853A2.754,2.754,0,0,1,57.876.176a3.374,3.374,0,0,1-2.285-.813,2.588,2.588,0,0,1-.94-2.043,2.66,2.66,0,0,1,1.143-2.338,5.821,5.821,0,0,1,3.322-.791h.914v-.5q0-1.316-1.134-1.316a.927.927,0,0,0-1.055,1.042H54.879a2.655,2.655,0,0,1,1.173-2.239,4.931,4.931,0,0,1,2.993-.86,4.323,4.323,0,0,1,2.874.888A3.086,3.086,0,0,1,63-6.363v4.21a4.311,4.311,0,0,0,.4,2V0ZM58.588-1.934a1.652,1.652,0,0,0,.918-.237,1.487,1.487,0,0,0,.523-.536V-4.228h-.861q-1.547,0-1.547,1.389a.848.848,0,0,0,.272.655A.986.986,0,0,0,58.588-1.934Zm11.8-4.9-.976-.07a1.752,1.752,0,0,0-1.793.879V0H64.661V-9.51h2.777l.1,1.222a2.294,2.294,0,0,1,2.083-1.4,2.888,2.888,0,0,1,.826.105Z" transform="translate(10579 -11323)" fill="#fff"/>
        <path id="Path_921156" data-name="Path 921156" d="M8.235-2.391H4.008L3.27,0h-3.3L4.667-12.8h2.9L12.3,0H8.982ZM4.746-4.772H7.5L6.117-9.211ZM17.112-2.109a1.317,1.317,0,0,0,.967-.338,1.241,1.241,0,0,0,.334-.945H21.19A3.288,3.288,0,0,1,20.07-.826a4.168,4.168,0,0,1-2.887,1,4.22,4.22,0,0,1-3.27-1.3,5.125,5.125,0,0,1-1.2-3.6v-.123A5.792,5.792,0,0,1,13.25-7.4a3.872,3.872,0,0,1,1.534-1.7,4.573,4.573,0,0,1,2.373-.593A4.116,4.116,0,0,1,20.1-8.657a3.647,3.647,0,0,1,1.09,2.786H18.413A1.626,1.626,0,0,0,18.053-7a1.244,1.244,0,0,0-.967-.4q-1.151,0-1.345,1.468a10.357,10.357,0,0,0-.062,1.283,4.068,4.068,0,0,0,.343,1.986A1.187,1.187,0,0,0,17.112-2.109Zm8.78-9.765V-9.51h1.564v2.057H25.893V-3.1a1.111,1.111,0,0,0,.193.747,1.037,1.037,0,0,0,.765.211,4.345,4.345,0,0,0,.738-.053V-.079a5.466,5.466,0,0,1-1.67.255A3.1,3.1,0,0,1,23.66-.545a2.954,2.954,0,0,1-.729-2.188v-4.72H21.718V-9.51h1.213v-2.364ZM34.286-1.028a3.054,3.054,0,0,1-2.54,1.2,3,3,0,0,1-2.369-.91,3.826,3.826,0,0,1-.8-2.615V-9.51h2.962v6.179a1.065,1.065,0,0,0,1.187,1.222,1.548,1.548,0,0,0,1.45-.729V-9.51h2.979V0H34.374ZM44.13,0a3.344,3.344,0,0,1-.281-.853A2.754,2.754,0,0,1,41.563.176a3.374,3.374,0,0,1-2.285-.813,2.588,2.588,0,0,1-.94-2.043A2.66,2.66,0,0,1,39.48-5.019,5.821,5.821,0,0,1,42.8-5.81h.914v-.5q0-1.316-1.134-1.316a.927.927,0,0,0-1.055,1.042H38.566A2.655,2.655,0,0,1,39.74-8.825a4.931,4.931,0,0,1,2.993-.86,4.323,4.323,0,0,1,2.874.888,3.086,3.086,0,0,1,1.081,2.435v4.21a4.311,4.311,0,0,0,.4,2V0ZM42.275-1.934a1.652,1.652,0,0,0,.918-.237,1.487,1.487,0,0,0,.523-.536V-4.228h-.861q-1.547,0-1.547,1.389a.848.848,0,0,0,.272.655A.986.986,0,0,0,42.275-1.934Zm11.8-4.9L53.1-6.9a1.752,1.752,0,0,0-1.793.879V0H48.349V-9.51h2.777l.1,1.222a2.294,2.294,0,0,1,2.083-1.4,2.888,2.888,0,0,1,.826.105Z" transform="translate(10210 -11328)" fill="#fff"/>
      </g>
    </g>
  </g>
</svg>
