<svg xmlns="http://www.w3.org/2000/svg" xmlns:xlink="http://www.w3.org/1999/xlink" width="1030" height="496" viewBox="0 0 1030 496">
  <defs>
    <clipPath id="clip-path">
      <path id="Path_611005" data-name="Path 611005" d="M0,0H1030V495H0Z" transform="translate(285 446.5)" fill="#eae5ff"/>
    </clipPath>
    <clipPath id="clip-path-2">
      <rect id="Rectangle_407207" data-name="Rectangle 407207" width="622.692" height="436.078" fill="none"/>
    </clipPath>
    <clipPath id="clip-path-3">
      <rect id="Rectangle_407206" data-name="Rectangle 407206" width="622.692" height="436.077" fill="none"/>
    </clipPath>
    <linearGradient id="linear-gradient" x1="0.5" x2="0.5" y2="1" gradientUnits="objectBoundingBox">
      <stop offset="0" stop-color="#ebcffa"/>
      <stop offset="1" stop-color="#d09cee"/>
    </linearGradient>
    <clipPath id="clip-path-4">
      <rect id="Rectangle_407202" data-name="Rectangle 407202" width="154.462" height="150.294" fill="none"/>
    </clipPath>
    <clipPath id="clip-path-5">
      <rect id="Rectangle_407204" data-name="Rectangle 407204" width="64.233" height="17.333" fill="none"/>
    </clipPath>
    <clipPath id="clip-path-6">
      <rect id="Rectangle_407205" data-name="Rectangle 407205" width="72.988" height="71.018" fill="none"/>
    </clipPath>
  </defs>
  <g id="Group_1114989" data-name="Group 1114989" transform="translate(-285 -1872.919)">
    <g id="Group_1114229" data-name="Group 1114229">
      <g id="Group_1073695" data-name="Group 1073695" transform="translate(1600 2815.419) rotate(180)">
        <path id="Path_608309" data-name="Path 608309" d="M0,0H1030V495H0Z" transform="translate(285 446.5)" fill="#eae5ff"/>
      </g>
      <g id="Group_1114219" data-name="Group 1114219" transform="translate(495 1902.88)">
        <g id="Group_1114218" data-name="Group 1114218" clip-path="url(#clip-path-2)">
          <g id="Group_1114217" data-name="Group 1114217" transform="translate(0 0.001)">
            <g id="Group_1114216" data-name="Group 1114216" clip-path="url(#clip-path-3)">
              <path id="Path_918293" data-name="Path 918293" d="M595.824,478.378c-39.278,0-570.315-1.115-570.315-1.177-.219-.5-67.413-80.633,17.2-164.413,41.924-41.512-38.5-95.292,0-141.468,65.948-79.1,131.2-34.552,185.56-56.8,9.6-3.927,19.243-10.247,28.89-19.946a106.831,106.831,0,0,1,17.755-14.342q1.465-.951,2.961-1.854a119.246,119.246,0,0,1,11.846-6.256q4.105-1.884,8.366-3.484h0a139.607,139.607,0,0,1,13.865-4.393,160.747,160.747,0,0,1,20.68-3.947q4.613-.584,9.3-.923c60.739-4.443,129.094,20.548,164.369,57.074,7.1,7.355,39.4,45.412,13.94,97.722C504.168,247.2,571.5,278.742,595.428,316.455c60.833,95.885.948,160.673.4,161.923" transform="translate(0 -43.265)" fill="url(#linear-gradient)"/>
              <g id="Group_1114209" data-name="Group 1114209" transform="translate(308.596 111.365)" opacity="0.8">
                <g id="Group_1114208" data-name="Group 1114208">
                  <g id="Group_1114207" data-name="Group 1114207" clip-path="url(#clip-path-4)">
                    <path id="Path_918294" data-name="Path 918294" d="M1314.051,520.976a74.712,74.712,0,0,1-5.924,12.3,75.5,75.5,0,0,1-21.572,23.036,78.9,78.9,0,0,1-71.445,9.6c-29.62-10.476-48.645-36.752-50.671-65.5a71.84,71.84,0,0,1,.1-11.461,73.323,73.323,0,0,1,4.384-19.315,74.536,74.536,0,0,1,7.26-14.442c.032-.053.066-.1.1-.153a76.439,76.439,0,0,1,32.494-27.786,78.528,78.528,0,0,1,11.522-4.2c1.885-.526,3.8-.982,5.723-1.365a78.814,78.814,0,0,1,41.849,3q2.769.98,5.409,2.14a77.121,77.121,0,0,1,7.2,3.6,75.993,75.993,0,0,1,24.1,21.539h0a74.712,74.712,0,0,1,9.365,17.348,73.441,73.441,0,0,1,2.984,9.915q.71,3.152,1.146,6.366a72.591,72.591,0,0,1,.4,15.685,73.536,73.536,0,0,1-4.421,19.677" transform="translate(-1164.257 -420.161)" fill="#eae5ff"/>
                    <path id="Path_918295" data-name="Path 918295" d="M1261.706,459.246c-4.563,3.438-3.353,12.638-11.25,7.452s-12.857-8-15.092-3.48,4.76,7,2.918,11.933-5.59,5.451-9.54,1.4-4.068-7.946-10.467-7.817-9.131-2.432-8.819-7.107a6.409,6.409,0,0,0-.211-2.168c.032-.052.066-.1.1-.153a76.443,76.443,0,0,1,32.494-27.787,78.608,78.608,0,0,1,11.522-4.2c1.885-.526,3.8-.982,5.723-1.365a10,10,0,0,1,5.893,6.263c2.786,7.9,7.3,6.04,3.467,12.658s-2.259,8.24,1.93,9.455,9.018,2.922,8.359,6.146-12.461-4.675-17.024-1.237" transform="translate(-1197.321 -424.423)" fill="#aec3ff"/>
                    <path id="Path_918296" data-name="Path 918296" d="M1578.491,685.7a74.719,74.719,0,0,1-5.924,12.3,75.5,75.5,0,0,1-21.572,23.036,8.95,8.95,0,0,1-5.746-2.2c-7.734-6.723,2.515-13.863,7.912-17.338s-4.624-4.626-9.675-11.4,6.776-15.945-.825-16.44-16.847-.975-18.395-8.9,6.449-6.292,5.049-12.967,5.215-7.924,12.289-6.02,7.946-3.17,16.715-.866,4.641,12.806,14.316,15.43,8.461,4.588,8.461,4.588a4.689,4.689,0,0,1,1.815,1.1,73.537,73.537,0,0,1-4.421,19.677" transform="translate(-1428.697 -584.89)" fill="#aec3ff"/>
                    <path id="Path_918297" data-name="Path 918297" d="M1634.845,568.674c-9.21.937-8.587-10.251-16.408-9.587-7.884.668-4.511-4.785-8.413-10.42s-17.067-2.58-14.392-8.28,10.023-1.24,13.468-5.336,10.727-.193,10.727-.193a5.7,5.7,0,0,1,1.52.187s0,0,0,0a74.708,74.708,0,0,1,9.366,17.348,73.435,73.435,0,0,1,2.983,9.915q.71,3.152,1.146,6.366" transform="translate(-1481.032 -503.221)" fill="#aec3ff"/>
                    <path id="Path_918298" data-name="Path 918298" d="M1474.9,466.292s6.254-4.308.373-8.312-6.591-1.737-11.462-4.054-8.288.794-6.044,6.306,2.333,14.6,7.364,11.551,5.574-6.51,9.769-5.491" transform="translate(-1379.452 -444.407)" fill="#aec3ff"/>
                  </g>
                </g>
              </g>
              <path id="Path_918299" data-name="Path 918299" d="M158.7,1557.315h26.929c1.443-1.191-1-3.9-3.55-4.078a16.133,16.133,0,0,0-4.11.473c-.37-4.789-2.487-26.318-10.462-25.453-8.967.969,0,9.481,2.535,14.521a117.918,117.918,0,0,1,4.764,11.612c-.728.153-1.482.3-2.252.442-1.189-3.551-5.611-15.5-11.236-14.8-6.6.815-3.949,5.6.731,8.447,3.434,2.091,7.65,5.062,9.654,6.5a29.377,29.377,0,0,1-5.267.411c-4.613-.107-6.864,1.216-7.737,1.927" transform="translate(-115.647 -1123.164)" fill="#a8d29f"/>
              <path id="Path_918300" data-name="Path 918300" d="M1708.847,1563.052h-25.013c-1.34-1.106.928-3.619,3.3-3.787a14.994,14.994,0,0,1,3.818.439c.344-4.448,2.309-24.445,9.718-23.642,8.329.9,0,8.806-2.355,13.488a109.449,109.449,0,0,0-4.425,10.786c.676.143,1.376.282,2.091.41,1.1-3.3,5.212-14.393,10.436-13.747,6.134.757,3.668,5.205-.679,7.846-3.19,1.942-7.106,4.7-8.967,6.035a27.25,27.25,0,0,0,4.892.382c4.285-.1,6.376,1.13,7.187,1.79" transform="translate(-1237.227 -1128.902)" fill="#a8d29f"/>
              <path id="Path_918301" data-name="Path 918301" d="M1829.665,1020.631s.6-5.761-2.5-5.564-3.916,1.579-3.57,2.686,3.357,4.77,3.357,4.77Z" transform="translate(-1340.182 -746.013)" fill="#ffb27d"/>
              <path id="Path_918302" data-name="Path 918302" d="M1884.515,1045.088a50.243,50.243,0,0,1-10.8,8.442c-.7.429-1.428.862-2.2,1.3a82.536,82.536,0,0,1-10.1,4.834c-.427.171-.929.359-1.491.556-4.417,1.552-12.545,3.753-17.582,3.95-.438.017-.854.017-1.241,0-7.666-.3-8.6-29.252-8.6-29.252s.854-2.9,4.792-2.167c0,0,5.981,16.35,8.125,17.683,1.9,1.185,12.848-14.956,22.268-16.086,6.341-.76,16.827,10.741,16.827,10.741" transform="translate(-1346.784 -758.926)" fill="#739af0"/>
              <path id="Path_918303" data-name="Path 918303" d="M1899.629,1605.429s.566,6.373-.819,7.036l-17.719-.035s0-1.99,2.846-2.432,7.846-2.063,8.692-5.675,7,1.105,7,1.105" transform="translate(-1382.493 -1178.087)" fill="#1c3154"/>
              <path id="Path_918304" data-name="Path 918304" d="M1901.8,1265.9c.087,4.167.293,8.466.7,12.329,1.914,18.331,2.586,40.48,2.861,44.75.477,7.413,1.982,19.255,1.982,19.255s2.985,2.757,8.8,1.442a188.063,188.063,0,0,0,5.9-35.016q.025-.442.049-.887c.125-2.374.255-5.089.389-8.017.886-19.609,1.849-48.739,1.849-48.739l-22.235-5.08s-.511,9.575-.293,19.964" transform="translate(-1397.674 -915.696)" fill="#2a4e96"/>
              <path id="Path_918305" data-name="Path 918305" d="M1901.8,1265.9c5.635,9.46,16.376,26.888,20.679,33.856.886-19.609,1.849-48.739,1.849-48.739l-22.235-5.08s-.511,9.575-.293,19.964" transform="translate(-1397.674 -915.696)" fill="#233862"/>
              <path id="Path_918306" data-name="Path 918306" d="M1887.215,1116.677c-4.417,1.552-12.545,3.753-17.582,3.95.77-.14,6.379-1.221,8.453-3.658,2.228-2.619,5.978-9.733,8.962-6.83,1.405,1.367.992,4.068.167,6.538" transform="translate(-1374.073 -815.387)" fill="#6385db"/>
              <path id="Path_918307" data-name="Path 918307" d="M2063.141,1308.738s1.38,5.266,1.154,6.436-1.574,5.133-2.414,6.117-.874-4.274-1.433-5.1-.256,1.963-.7,2.191-1.194-2.112-1.527-2.942,1.194-3.718,1.335-5.789,3.589-.913,3.589-.913" transform="translate(-1512.637 -961.611)" fill="#ffb27d"/>
              <path id="Path_918308" data-name="Path 918308" d="M2085.88,1581.264s3.154,2.8,2.538,4.79-3.461,3.316-3.846,5.748-1.923,3.759-3.308,3.759h-6.6s-1.019-1.711,1.442-2.227,3.389-3.374,3.236-6.026a45.493,45.493,0,0,1,.23-6.19l5.231-1.179Z" transform="translate(-1524.605 -1161.164)" fill="#1c3154"/>
              <path id="Path_918309" data-name="Path 918309" d="M1916.276,1248.524s20.814,43.333,31.891,62.346,14.538,24.319,14.538,24.319,6.346-2.432,6.923-4.09c0,0-4.236-36.706-11.654-45.654-4.191-5.056-9.115-20.229-9.345-25.535s-5.094-17.971-5.094-17.971Z" transform="translate(-1408.352 -912.755)" fill="#2a4e96"/>
              <path id="Path_918310" data-name="Path 918310" d="M1901.556,1093.891a36.329,36.329,0,0,0,18.295,9.241c5.055.942,15.314,1.851,17.859-1.651.6-.822.6-2.039.47-3.94-.343-4.939-1.62-14.488,4.146-33.678a31.981,31.981,0,0,0,1.108-5.129c1.259-9.817,1.122-17.229-7.632-21.188-13.116-5.932-18.5-1.051-18.5-1.051s-6.976,3.172-10.164,12.416c-6.374,18.49-5.582,44.981-5.582,44.981" transform="translate(-1397.511 -760.377)" fill="#739af0"/>
              <path id="Path_918311" data-name="Path 918311" d="M1973.335,1004.175a9.965,9.965,0,0,1-9.8.625c-.285-.139-.249-2.045-.178-3.917.071-1.838.249-3.64.249-3.64l4.667-2.981,4.453-2.843c-.534,9.776,1.6,12.064.606,12.757" transform="translate(-1442.919 -728.636)" fill="#ffb27d"/>
              <path id="Path_918312" data-name="Path 918312" d="M1972.084,1003.337a14.333,14.333,0,0,1-8.586,5.428c.071-1.838.273-3.862.273-3.862l4.644-2.76Z" transform="translate(-1443.058 -736.519)" fill="#ed985f"/>
              <path id="Path_918313" data-name="Path 918313" d="M1945.3,959.7s11.291,4.1,13.8-2.669,5.661-10.8-1.441-13.7-9.47-.809-10.883,1.252-4.352,13.879-1.48,15.121" transform="translate(-1428.792 -692.243)" fill="#ffb27d"/>
              <path id="Path_918314" data-name="Path 918314" d="M1962.236,931.72c.13-.1.393-.146.943-.07a2.272,2.272,0,0,0-.96-.474,2.687,2.687,0,0,0-1.339-2.7,1.6,1.6,0,0,1,.558,1.3c-1.2-1.8-4.208-3.513-13.29-4.545-11.969-1.36-9.576,6.729-8.228,7.9s5.676-.493,8.474.273,2.528,4.867,3.38,5.6.671-.309,2.092-.632,1.118,1.8.464,3.1.772,3.444.772,3.444l2.2-1.55c2.2-1.55,5.537-9.263,5.062-11.136-.042-.165-.083-.332-.126-.5" transform="translate(-1424.889 -679.875)" fill="#2c3a64"/>
              <path id="Path_918315" data-name="Path 918315" d="M2020.415,1163.456c-.343-4.939-1.62-14.488,4.146-33.679a32.015,32.015,0,0,0,1.108-5.129h0c-4.283-1.374-12.087,1.683-12.087,1.683s-1.835,25.367,6.835,37.125" transform="translate(-1479.746 -826.292)" fill="#6385db"/>
              <path id="Path_918316" data-name="Path 918316" d="M1987.615,1050.539s5.27,1.865,8.632,15.442c2.221,8.971,6.31,22.157,6.771,26.3s-4.675,28.4-4.675,28.4a3.425,3.425,0,0,1-2.5.168,4.135,4.135,0,0,1-2.49-1.448s-1.228-16.169-.911-23.8c.132-3.172-15.091-23.229-23.306-25.813-3.227-1.015,18.477-19.249,18.477-19.249" transform="translate(-1446.963 -772.087)" fill="#739af0"/>
              <path id="Path_918317" data-name="Path 918317" d="M1761.626,916.584a180.058,180.058,0,0,1,32.813,2.727l1.837-4.5,2.014-4.934s-17.648-7.393-28.256-17.687Z" transform="translate(-1294.693 -655.708)" fill="#aec3ff"/>
              <path id="Path_918318" data-name="Path 918318" d="M1765.38,890.848l-8.746,25.121a2.252,2.252,0,0,1-1.532-2.928l7.7-21.107a1.936,1.936,0,0,1,2.581-1.086" transform="translate(-1289.8 -654.607)" fill="#6bfcf2"/>
              <path id="Path_918319" data-name="Path 918319" d="M1818.723,997.271h0a3.16,3.16,0,0,0,3.71-2.407l3.011-14.661a3.08,3.08,0,0,0-2.474-3.61,3.16,3.16,0,0,0-3.71,2.407l-3.011,14.661a3.081,3.081,0,0,0,2.474,3.61" transform="translate(-1334.793 -717.697)" fill="#6bfcf2"/>
              <path id="Path_918320" data-name="Path 918320" d="M1761.626,976.235a180.058,180.058,0,0,1,32.813,2.727l1.837-4.5c-16.518-3.282-34.649,1.776-34.649,1.776" transform="translate(-1294.693 -715.359)" fill="#739af0"/>
              <path id="Path_918321" data-name="Path 918321" d="M1867.084,960.353l4.76.815c-.073,0,4.421.851,5.895-3.025a3.083,3.083,0,0,0,.282-.837c1.145-4.831-1.581-5.721-1.581-5.721l-6.126-2.323-1.947,6.7v.023Z" transform="translate(-1372.199 -697.655)" fill="#6bfcf2"/>
              <path id="Path_918322" data-name="Path 918322" d="M1867.084,978.936l4.76.815c-.073,0,4.421.851,5.895-3.025-2.693-1.906-9.371-2.178-9.371-2.178v.023Z" transform="translate(-1372.199 -716.238)" fill="#40c4bb"/>
              <path id="Path_918323" data-name="Path 918323" d="M1821.537,1000.852s2.328.9,1.9,1.9-3.388,2.37-3.855,1.582.489-4.325,1.954-3.483" transform="translate(-1337.201 -735.475)" fill="#ffb27d"/>
              <path id="Path_918324" data-name="Path 918324" d="M1844.951,1017.812a31.008,31.008,0,0,0,.467-3.383c.027-1.065.156-1.935-.1-1.965s-.445.166-.55.509-.508,2.466-.508,2.466l.2,2.049Z" transform="translate(-1355.423 -744.102)" fill="#ffb27d"/>
              <path id="Path_918325" data-name="Path 918325" d="M941.065,1022.935l-13.193,152.627s-1.382,9.252,5.691,9.269c11.629.027,57.882,0,57.882,0s-8.752-1.926-8.646-6.26c.125-5.108,15.419-157.08,15.419-157.08Z" transform="translate(-681.852 -750.738)" fill="#7599ea"/>
              <path id="Path_918326" data-name="Path 918326" d="M1006.342,1174.443c-2.287.007-47.066.08-58.391-.061-4.936-.06-5.8-4.27-5.842-6.995a13.262,13.262,0,0,1,.15-2.272l.343-3.967.874-10.111.772-8.933.993-11.479.836-9.689,9.374-108.452,57.154-1.443s-6.441,63.6-11,109.9c-.509,5.158-.992,10.1-1.44,14.721q-.218,2.211-.42,4.318c-.423,4.38-.809,8.4-1.145,11.954-.177,1.872-.341,3.611-.488,5.2-.582,6.243-.922,10.23-.927,10.988a6.257,6.257,0,0,0,.111,1.235c.938,4.865,8.186,5.085,9.044,5.085" transform="translate(-692.395 -743.059)" fill="#90aff4"/>
              <path id="Path_918327" data-name="Path 918327" d="M454.288,713.6,486.422,839.19l4.4,17.2,14.966,58.5H783.847L728.682,713.6Z" transform="translate(-333.875 -524.454)" fill="#aec3ff"/>
              <path id="Path_918328" data-name="Path 918328" d="M441.937,713.6l-4.453,1.444,50.034,204.217,5.921-4.369Z" transform="translate(-321.526 -524.453)" fill="#90aff4"/>
              <path id="Path_918329" data-name="Path 918329" d="M626.252,1477.394H902.6l7.631-4.369H632.173Z" transform="translate(-460.259 -1082.59)" fill="#7599ea"/>
              <rect id="Rectangle_407203" data-name="Rectangle 407203" width="59.833" height="2.766" transform="translate(263.038 431.384)" fill="#aec3ff"/>
              <path id="Path_918330" data-name="Path 918330" d="M1003.851,1489.5l-.309,2.115-56.27,11.061.772-8.933.368-4.243Z" transform="translate(-696.19 -1094.7)" fill="#5888dd"/>
              <g id="Group_1114212" data-name="Group 1114212" transform="translate(249.714 414.076)" opacity="0.4">
                <g id="Group_1114211" data-name="Group 1114211">
                  <g id="Group_1114210" data-name="Group 1114210" clip-path="url(#clip-path-5)">
                    <path id="Path_918331" data-name="Path 918331" d="M1006.347,1579.525c-2.287.007-47.066.08-58.391-.061-4.936-.06-5.8-4.27-5.842-6.995l56-10.252c-.582,6.244-.922,10.23-.927,10.989a6.246,6.246,0,0,0,.111,1.235c.938,4.865,8.185,5.085,9.044,5.085" transform="translate(-942.114 -1562.217)" fill="#5888dd"/>
                  </g>
                </g>
              </g>
              <path id="Path_918332" data-name="Path 918332" d="M454.286,713.6H728.68L773.2,875.37H495.677Z" transform="translate(-333.874 -524.453)" fill="#aec3ff"/>
              <path id="Path_918333" data-name="Path 918333" d="M791.773,892.39H534.856L525.675,856.8l-3.552-13.77-1.448-5.615-9.436-36.571-.489-1.9-4.988-19.331-2.231-8.649-1.9-7.378-4.462-17.3H750.378l4.9,17.3,2.089,7.378,2.45,8.649L775.963,836.6v0l1.369,4.827.636,2.241,11.147,39.339Z" transform="translate(-365.387 -548.482)" fill="#739af0"/>
              <path id="Path_918334" data-name="Path 918334" d="M755.282,763.586H501.631l-4.462-17.3H750.382Z" transform="translate(-365.391 -548.48)" fill="#607cf4"/>
              <path id="Path_918335" data-name="Path 918335" d="M536.5,769.785a1.644,1.644,0,0,1,1.668-2.162,3.02,3.02,0,0,1,2.776,2.162,1.644,1.644,0,0,1-1.668,2.162,3.02,3.02,0,0,1-2.776-2.162" transform="translate(-394.245 -564.16)" fill="#e9f3fe"/>
              <path id="Path_918336" data-name="Path 918336" d="M564.357,769.785a1.644,1.644,0,0,1,1.668-2.162,3.02,3.02,0,0,1,2.776,2.162,1.644,1.644,0,0,1-1.668,2.162,3.02,3.02,0,0,1-2.776-2.162" transform="translate(-414.719 -564.16)" fill="#e9f3fe"/>
              <path id="Path_918337" data-name="Path 918337" d="M594.354,769.785a1.644,1.644,0,0,1,1.668-2.162,3.02,3.02,0,0,1,2.776,2.162,1.644,1.644,0,0,1-1.668,2.162,3.02,3.02,0,0,1-2.776-2.162" transform="translate(-436.766 -564.16)" fill="#e9f3fe"/>
              <path id="Path_918338" data-name="Path 918338" d="M1220.8,97.255c10.384-11.863,26.4-35.693,37.178-47.9a3.86,3.86,0,0,0-3.03-6.388h-19.618l18.5-40.712a1.632,1.632,0,0,0-2.814-1.6l-44.742,58.266a2.414,2.414,0,0,0,2.286,3.833l22.209-2.661-13.213,35.316a1.9,1.9,0,0,0,3.238,1.842" transform="translate(-886.181 -0.005)" fill="#9d0388"/>
              <path id="Path_918339" data-name="Path 918339" d="M846.346,428.18c2.336-11.659,3.811-33.314,6.279-45.343a3.014,3.014,0,0,0-4.468-3.14l-13.03,7.14-3.361-33.774a1.254,1.254,0,0,0-2.484-.039l-7.317,54.983a1.885,1.885,0,0,0,2.992,1.714l13.728-9.851,4.8,28.265a1.46,1.46,0,0,0,2.859.045" transform="translate(-604.086 -258.675)" fill="#aec3ff"/>
              <path id="Path_918340" data-name="Path 918340" d="M964.749,669.791l-223.24,18.3c-16.951,1.39-29.218-15.425-22.278-30.536L813.81,451.6c7.175-15.625,29.23-17.433,38.991-3.2L981.462,636.058c9.44,13.769.238,32.343-16.713,33.733" transform="translate(-527.141 -322.441)" fill="#e6efff"/>
              <path id="Path_918341" data-name="Path 918341" d="M941.944,655.135l-223.24,18.3a30.873,30.873,0,0,1-27.719-12.524,29.047,29.047,0,0,1-3.007-29.592l94.579-205.953a30.4,30.4,0,0,1,25.551-17.649,30.728,30.728,0,0,1,28.226,13.24L964.995,608.61a29.036,29.036,0,0,1,2.125,29.664,30.548,30.548,0,0,1-25.175,16.86M809.531,424.15a13.682,13.682,0,0,0-11.5,7.944L703.452,638.047a13.074,13.074,0,0,0,1.353,13.319A13.9,13.9,0,0,0,717.282,657l223.24-18.3a13.75,13.75,0,0,0,11.331-7.589,13.07,13.07,0,0,0-.956-13.352L822.236,430.109a13.831,13.831,0,0,0-12.7-5.96" transform="translate(-503.625 -299.568)" fill="#9d0388"/>
              <path id="Path_918342" data-name="Path 918342" d="M1102.617,785.182a19.363,19.363,0,0,1,.869-7.888,18.092,18.092,0,0,1,3.821-6.528,20.031,20.031,0,0,1,6.413-4.627,25.58,25.58,0,0,1,8.783-2.194,26.276,26.276,0,0,1,9.1.728,20.163,20.163,0,0,1,7.186,3.512,18.341,18.341,0,0,1,4.889,5.814,19.5,19.5,0,0,1,2.213,7.636,18.943,18.943,0,0,1-.874,7.825,18.234,18.234,0,0,1-3.825,6.465,19.861,19.861,0,0,1-6.481,4.632,26.151,26.151,0,0,1-8.85,2.2,25.689,25.689,0,0,1-9.037-.733,20.211,20.211,0,0,1-7.119-3.518,18.442,18.442,0,0,1-4.883-5.75,19,19,0,0,1-2.207-7.572m34.514-39.3-32.156,2.636L1091.163,641.99l41.267-3.383Z" transform="translate(-801.942 -469.341)" fill="#9d0388"/>
              <path id="Path_918343" data-name="Path 918343" d="M611.385,1054.97s.7-1.532,1.153-2.257,2.39-2.85,2.72-2.369,1.648,3.72.948,4.626.045,2.485-3.439,3.44Z" transform="translate(-449.333 -771.892)" fill="#ffb27d"/>
              <path id="Path_918344" data-name="Path 918344" d="M465.311,1031.5s17.835,14.486,24.789,13.145c5.438-1.049,14.035-3.7,14.035-3.7s2.269,2.1,1.627,4.617c0,0-10.953,10.028-18.756,10.092-12.2.1-17.95-5.881-17.95-5.881Z" transform="translate(-341.977 -758.096)" fill="#40c4bb"/>
              <path id="Path_918345" data-name="Path 918345" d="M347.3,1600.7s.518,8.126,2.134,8.243c.215.016,8.2.016,8.2.016l10.187-.058s-.067-2.388-3.044-2.893-7.962-2.541-9.766-6.371c-1.9-4.029-7.706,1.063-7.706,1.063" transform="translate(-255.248 -1174.506)" fill="#113c68"/>
              <path id="Path_918346" data-name="Path 918346" d="M345.088,1331.9a21.759,21.759,0,0,0,5.515,1.008,20.768,20.768,0,0,0,5.148-.715s.583-5.486,3.792-17.574c1.682-6.336,4.084-14.483,7.5-24.605,9.45-27.977,12.323-44.344,12.586-45.894.014-.081.02-.122.02-.122l-.031-.013-29.052-12.411s3.591,38.559-.99,53.359a60.949,60.949,0,0,0-1.663,7.091c-2.893,16.076-2.826,39.878-2.826,39.878" transform="translate(-253.619 -905.136)" fill="#2a4e96"/>
              <path id="Path_918347" data-name="Path 918347" d="M371.913,1314.618c1.682-6.336,4.085-14.483,7.5-24.606,9.45-27.977,12.323-44.343,12.585-45.893,0-.046-.006-.09-.011-.136l-29.052-12.411s3.591,38.559-.99,53.359c-.642,2.068,9.966,29.687,9.966,29.687" transform="translate(-265.99 -905.136)" fill="#233862"/>
              <path id="Path_918348" data-name="Path 918348" d="M432.911,1600.7s.518,8.126,2.134,8.243c.215.016,8.2.016,8.2.016l10.187-.058s-.067-2.388-3.044-2.893-7.962-2.541-9.766-6.371c-1.9-4.029-7.706,1.063-7.706,1.063" transform="translate(-318.165 -1174.506)" fill="#15447c"/>
              <path id="Path_918349" data-name="Path 918349" d="M409.406,1235a391.7,391.7,0,0,1-4.066,55.665c-4.443,30.679-2.937,43.7-2.937,43.7a30.911,30.911,0,0,1-4.284,1.06,19.942,19.942,0,0,1-6.357-.716s-6.36-30.69-4.536-46.045-8.708-52.692-8.708-52.692Z" transform="translate(-278.189 -907.655)" fill="#2a4e96"/>
              <path id="Path_918350" data-name="Path 918350" d="M417.334,980.153,423,983.771l5.165-1.421c.944-1.31,1.194-3.837,1.208-6.026a36.5,36.5,0,0,0-.2-4.013l-7.651-3.286L418.67,967.8c.008.043.222,2.281.253,2.608a18.565,18.565,0,0,1-1.588,9.744" transform="translate(-306.716 -711.279)" fill="#ffb27d"/>
              <path id="Path_918351" data-name="Path 918351" d="M396.27,1074.007c-7.058,6.631-33.772,5.516-35.418-1.79s1.8-62.194,13.853-65.642c2.5-.716,15.879,3.491,15.879,3.491a80.83,80.83,0,0,1,3.475,12.145c.267,1.324,1.047,15.35,1.631,28.472.272,6.137.5,12.078.62,16.428a46.1,46.1,0,0,1-.039,6.9" transform="translate(-264.923 -739.716)" fill="#6bfcf2"/>
              <path id="Path_918352" data-name="Path 918352" d="M424.882,973.9c1.552,2.554,7,4.788,9.884,5.813a36.5,36.5,0,0,0-.2-4.013l-7.651-3.286c-1.691-.021-2.722.346-2.03,1.486" transform="translate(-312.104 -714.671)" fill="#fca56b"/>
              <path id="Path_918353" data-name="Path 918353" d="M425.229,928.365s-12.328,3.742-14.6-3.764-5.4-12.078,2.374-14.784,10.18-.283,11.566,2.042,3.813,15.339.665,16.506" transform="translate(-299.883 -667.787)" fill="#ffb27d"/>
              <path id="Path_918354" data-name="Path 918354" d="M409.209,899.773s-.786,8.734-2.643,8.355-3.9-1.19-3.628,1.443-1.805,7.146-4.482,7.135c-5.741-.023-11.979-14.357-10.407-17.075,4.535-7.843,27.714-9.425,21.16.142" transform="translate(-285.012 -656.424)" fill="#163560"/>
              <path id="Path_918355" data-name="Path 918355" d="M426.782,997.3c-.159-.065-9.177-4-10.232-3.663s-2.369,3.473-2.369,3.473l15.879,3.493a7.755,7.755,0,0,0-3.278-3.3" transform="translate(-304.399 -730.255)" fill="#40c4bb"/>
              <path id="Path_918356" data-name="Path 918356" d="M520.257,1154.847,469.7,1201.158c-.991.908-2.24,1.2-2.776.643l-1.706-1.764c-.536-.554-.164-1.75.826-2.658l50.552-46.311c.991-.908,2.24-1.2,2.776-.643l1.706,1.764c.536.554.164,1.751-.826,2.658" transform="translate(-341.731 -845.291)" fill="#1f4d84"/>
              <path id="Path_918357" data-name="Path 918357" d="M491.889,1255.46l-22.183,20.322c-.991.907-2.24,1.2-2.776.643l-1.706-1.763c-.536-.554-.165-1.75.826-2.658l22.183-20.322Z" transform="translate(-341.731 -919.915)" fill="#739af0"/>
              <path id="Path_918358" data-name="Path 918358" d="M624.938,963.833a38.207,38.207,0,0,0,10.753,16.829A40.406,40.406,0,0,0,691.7,979a37.809,37.809,0,0,0-1.089-53.911q-.3-.3-.622-.583a40.4,40.4,0,0,0-56,1.659,37.782,37.782,0,0,0-9.048,37.668m11.325-35.582a37.2,37.2,0,0,1,51.585-1.529,34.836,34.836,0,0,1,1.572,50.193,36.585,36.585,0,0,1-18.14,10.22,37.166,37.166,0,0,1-33.445-8.687,34.836,34.836,0,0,1-1.572-50.2" transform="translate(-458.03 -671.762)" fill="#1f4d84"/>
              <g id="Group_1114215" data-name="Group 1114215" transform="translate(168.316 245.313)" opacity="0.5">
                <g id="Group_1114214" data-name="Group 1114214">
                  <g id="Group_1114213" data-name="Group 1114213" clip-path="url(#clip-path-6)">
                    <path id="Path_918359" data-name="Path 918359" d="M698.091,985.354a36.589,36.589,0,0,1-18.142,10.221,37.175,37.175,0,0,1-33.445-8.689,34.837,34.837,0,0,1-1.572-50.195,37.2,37.2,0,0,1,51.586-1.531,34.837,34.837,0,0,1,1.573,50.193" transform="translate(-635.017 -925.515)" fill="#b3cff9"/>
                  </g>
                </g>
              </g>
              <path id="Path_918360" data-name="Path 918360" d="M424.749,1110.183c-27.855-19.313-25.539-45.084-25.539-45.084,10.181,5.587,20.283,17.94,24.918,28.656.272,6.137.5,12.078.62,16.428" transform="translate(-293.362 -782.788)" fill="#40c4bb"/>
              <path id="Path_918361" data-name="Path 918361" d="M590.164,1196.079a7.622,7.622,0,0,0,3.558-2.138s.838.056-.137,1.794c-.082.145-.263.519-.4.783a.169.169,0,0,0,.146.243c1.134.084,2.273-.353,4.457.09.3.061.389.763.377,1.063a2.66,2.66,0,0,1-.587,1.851c-.352.451-1.333.938-3.52,1.793-.833.326-3.214.08-5.446-.666l-1.783-.8.553-3.225.448.091c.711.145,1.593-.7,2.334-.877" transform="translate(-431.285 -877.479)" fill="#ffb27d"/>
              <path id="Path_918362" data-name="Path 918362" d="M406.376,1019.98s-25.028,4.637,7.364,39.9c5.18,5.64,33.169,12.984,33.169,12.984s2.839-2.35,1.408-4.253c0,0-19.271-13.616-23.511-15.781-1.907-.974-7.4-21.733-10.512-26.732a14.009,14.009,0,0,0-7.917-6.12" transform="translate(-291.883 -749.628)" fill="#6bfcf2"/>
              <path id="Path_918363" data-name="Path 918363" d="M613.945,1053.15a12.222,12.222,0,0,0,.979-2.325,12.672,12.672,0,0,1,1.615-3.557c.17-.165.73.049.8.758a4.037,4.037,0,0,1-.4,1.541,16.929,16.929,0,0,0-.53,3.06c-.387,1.227-2.459.524-2.459.524" transform="translate(-451.214 -769.644)" fill="#ffb27d"/>
              <path id="Path_918364" data-name="Path 918364" d="M650.444,805.118a1.439,1.439,0,0,0-.27,1.571.014.014,0,0,0,0,.008c.389,1.047,1.675,2.217,3.17,3.386.191.15.361.286.509.413.039.033.078.067.115.1s.059.053.088.077c1.393,1.251.869,1.537,3.372,4.074,2.854,2.891,4.82,2.944,5.379,2.681.473-.224-.487-1.757-1.552-3.481-.051-.083-.1-.167-.155-.251-.142-.229-.283-.462-.423-.692-1.247-2.074-.927-3.047-.63-6.133.241-2.508,4.015-14.009,4.015-14.009l-5.471-.919s-1.651,9.159-3.467,10.569c-.971.751-2.058.76-2.991,1.318q-.1.058-.194.119a7.158,7.158,0,0,0-1.5,1.17" transform="translate(-477.753 -582.033)" fill="#ffb27d"/>
              <path id="Path_918365" data-name="Path 918365" d="M650.444,838.408a1.438,1.438,0,0,0-.27,1.571.013.013,0,0,0,0,.008,11.424,11.424,0,0,0,3.175,3.375c.189.152.355.293.5.424.039.033.078.067.115.1l.088.077c1.393,1.251.869,1.537,3.372,4.074,2.854,2.891,4.82,2.944,5.379,2.681.473-.224-.487-1.757-1.552-3.481a12.165,12.165,0,0,1-5.088-3.651c-1.656-2.057-2.78-4.679-3.907-6.289l-.322-.059a7.159,7.159,0,0,0-1.5,1.17" transform="translate(-477.753 -615.323)" fill="#233862"/>
              <path id="Path_918366" data-name="Path 918366" d="M805.853,797.351c.337,1.644,2.745,1.37,5.434.732s2.051.121,5.879-.289,4.988-1.8,5.1-2.353c.1-.491-1.787-.665-3.815-.893-.255-.028-.511-.059-.768-.09-2.29-.28-3.967-1.719-6.048-2.9-1.97-1.12-4.91-5.679-4.91-5.679l-5.25.4s2.753,4.072,3.818,5.842a6.022,6.022,0,0,1,.514,3.481,6.381,6.381,0,0,0,.04,1.747" transform="translate(-589.042 -577.576)" fill="#ffb27d"/>
              <path id="Path_918367" data-name="Path 918367" d="M823.188,822.119c2.69-.638,2.05.121,5.878-.29s4.988-1.8,5.105-2.353c.1-.491-1.787-.666-3.815-.893l-.019.038a10.983,10.983,0,0,1-5.482,1.656c-2.6.061-5.348-.664-7.141-.637a6.375,6.375,0,0,0,.04,1.747c.337,1.643,2.745,1.37,5.434.731" transform="translate(-600.943 -601.613)" fill="#233862"/>
              <path id="Path_918368" data-name="Path 918368" d="M692.155,683.2l-4.912,12.847-6.413,16.775a10.66,10.66,0,0,1-3.4-.3,14.909,14.909,0,0,1-3.291-1.56s1.785-18.013,5.107-28.352A18.211,18.211,0,0,1,682.1,676.6c5.147-5.914,10.055,6.6,10.055,6.6" transform="translate(-495.45 -496.098)" fill="#233862"/>
              <path id="Path_918369" data-name="Path 918369" d="M591.69,621.767c-2.793-.878-10.082-.017-17.988,1.373a5.42,5.42,0,0,1-5.536-2.435l-19.9-1.519s-6.571,14.164-2.98,23.192a3.493,3.493,0,0,0,3.477,2.184h0s12.023.02,15.868.021c9.895,0,20.943-6.611,22.372-6.889,2.339-.454,3.273,4.1,5.61,8.877s21.977,21.171,21.977,21.171a17.764,17.764,0,0,0,4.267-.424,4.209,4.209,0,0,0,1.833-1.125s-21.755-42.15-29-44.428" transform="translate(-399.968 -455.067)" fill="#2a4e96"/>
              <path id="Path_918370" data-name="Path 918370" d="M536.817,407.25a7.214,7.214,0,0,0-3.8-.964,10.846,10.846,0,0,1-1.835-.109c-7.593-1.086-12.17,9.645-12.439,12.887-.494,5.953-3.731,6.86-8.288,10.587-9.138,7.473-6.462,16.161-1.468,19.391,3,1.938,8.28,0,8.28,0,.075.051,14.451-7.813,21.537-11.607,10.622-1.465,2.28-27.716-1.986-30.189" transform="translate(-370.713 -298.462)" fill="#233862"/>
              <path id="Path_918371" data-name="Path 918371" d="M584.888,482.073c.031.02-3.486,1.187-5.838.173-2.212-.952-3.887-4.494-3.854-4.5,1.006-.045,2.112-.9,2.965-6.518l.429.15,7.2,2.525s-.523,2.25-.861,4.391c-.285,1.8-.438,3.521-.045,3.775" transform="translate(-422.736 -346.329)" fill="#ffb27d"/>
              <path id="Path_918372" data-name="Path 918372" d="M595.2,474.321s-.288,1.214-.708,3.481A8.031,8.031,0,0,1,588,471.8Z" transform="translate(-432.146 -346.744)" fill="#ed975d"/>
              <path id="Path_918373" data-name="Path 918373" d="M594.277,442.959s-9.859-1.291-8.938-7.252.268-10.142,6.6-9.57,7.2,3.025,7.392,5.088-2.468,11.917-5.056,11.735" transform="translate(-430.146 -313.149)" fill="#ffb27d"/>
              <path id="Path_918374" data-name="Path 918374" d="M591.136,426.5s-6.313,5.29-10.606,5.715-5.918-.916-5.918-.916a16.382,16.382,0,0,0,4.055-5.341,3.017,3.017,0,0,1,2.49-1.731c3.065-.256,8.876-.372,9.98,2.273" transform="translate(-422.307 -311.688)" fill="#233862"/>
              <path id="Path_918375" data-name="Path 918375" d="M622.069,428.174a15.2,15.2,0,0,1,2.775,3.461,11.308,11.308,0,0,1,.321,6.173s3.292-6.223,1.431-9.247c-1.974-3.207-4.526-.386-4.526-.386" transform="translate(-457.185 -313.842)" fill="#233862"/>
              <path id="Path_918376" data-name="Path 918376" d="M569.71,513.654c-.3,19.418-.087,15.36-2.271,17.2-.526.443-2.005.707-3.951.832-6.12.393-16.876-.591-17.285-1.692-1.41-3.808-.413-4.99-1.589-10.82-.122-.62-.274-1.291-.452-2.022-.98-4-1.935-5.366,1.55-11.8,3.161-5.825,6.445-10.553,6.74-10.382,8.333,4.817,9.007.771,9.007.771s8.4,8.437,8.252,17.908" transform="translate(-399.26 -363.776)" fill="#6bfcf2"/>
              <path id="Path_918377" data-name="Path 918377" d="M687.242,717.115l-6.413,16.775a10.658,10.658,0,0,1-3.4-.3,14.913,14.913,0,0,1-3.291-1.56s1.785-18.013,5.108-28.353Z" transform="translate(-495.45 -517.16)" fill="#2a4e96"/>
              <path id="Path_918378" data-name="Path 918378" d="M611.933,497.891s8.575,1.418,9.581,5.011,4.313,25.4,4.313,25.4-2.419,2.3-4.433.337-6.331-20.406-6.331-20.406Z" transform="translate(-449.735 -365.922)" fill="#6bfcf2"/>
              <path id="Path_918379" data-name="Path 918379" d="M567.257,576.384c-6.12.393-16.876-.591-17.285-1.692-1.41-3.808-.413-4.99-1.589-10.82l2.954-8.086s-.491,9.005,2.237,11.375,11.173,4.576,12.5,6.555a7.144,7.144,0,0,1,1.183,2.668" transform="translate(-403.03 -408.472)" fill="#40c4bb"/>
              <path id="Path_918380" data-name="Path 918380" d="M593.143,616.682s6.038-1.306,7.012-.784a14.075,14.075,0,0,1,3.652,3.082c.3.661-2.169-.5-2.971-.712a7.317,7.317,0,0,0-2.565.546,8.749,8.749,0,0,1-4.6.447Z" transform="translate(-435.926 -452.56)" fill="#ffb27d"/>
              <path id="Path_918381" data-name="Path 918381" d="M523.676,494.971s-8.106.483-10.914,4.291c-3.952,5.359-11.8,28.2-7.307,31.252,5.057,3.433,23.018.905,23.018.905s.6-2.718-.232-4.033-14.345-3.444-14.968-4.051,7.8-11.832,7.8-13.652,2.6-14.711,2.6-14.711" transform="translate(-370.491 -363.776)" fill="#6bfcf2"/>
              <path id="Path_918382" data-name="Path 918382" d="M620.7,622.407a11.49,11.49,0,0,0,1.679,1.778,1.265,1.265,0,0,0,.682.142l-.852-1.493Z" transform="translate(-456.177 -457.435)" fill="#ffb27d"/>
              <path id="Path_918383" data-name="Path 918383" d="M619.6,616.239l3.677,1.739a.662.662,0,0,1-.609.229,8.975,8.975,0,0,1-1.595-.427Z" transform="translate(-455.367 -452.901)" fill="#ffb27d"/>
              <path id="Path_918384" data-name="Path 918384" d="M631.555,631.656l-38.417-.013v.825l38.075.013Z" transform="translate(-435.922 -464.222)" fill="#233862"/>
              <path id="Path_918385" data-name="Path 918385" d="M627.029,576.061l29.092.01L664.88,554.9l-29.047-.01Z" transform="translate(-460.83 -407.813)" fill="#233862"/>
              <path id="Path_918386" data-name="Path 918386" d="M701.257,591.111a.986.986,0,0,0-.988-1.348,1.977,1.977,0,0,0-1.783,1.347.986.986,0,0,0,.987,1.348,1.977,1.977,0,0,0,1.783-1.347" transform="translate(-513.306 -433.443)" fill="#fff"/>
              <path id="Path_918387" data-name="Path 918387" d="M1402.093,934.675a8.556,8.556,0,0,0-6.633.332c-11.284.451-11.7,11.705-10.379,15.894,1.86,5.882-4.723,10.52,2.578,12.9,8.471,2.762,15.579-.515,15.094.908,26.789,2.054,8.252-27.154-.661-30.034" transform="translate(-1017.253 -686.575)" fill="#163560"/>
              <path id="Path_918388" data-name="Path 918388" d="M1361.534,1077.843a28.7,28.7,0,0,1-3.017,4.44c-2.344,2.856-14.647-3.924-13.587-4.44s7.242-17.845,8.714-20.023,6.49-3.308,6.49-3.308Z" transform="translate(-988.399 -775.006)" fill="#6bfcf2"/>
              <path id="Path_918389" data-name="Path 918389" d="M1530.282,1579.548s3.4,3.015,2.733,5.158-3.727,3.571-4.141,6.189-2.071,4.047-3.562,4.047h-7.107s-1.1-1.843,1.553-2.4,3.649-3.632,3.484-6.489a49.018,49.018,0,0,1,.249-6.665l5.632-1.27Z" transform="translate(-1115.628 -1159.828)" fill="#1f447f"/>
              <path id="Path_918390" data-name="Path 918390" d="M1402.311,1588.339s1.222,12.774-.269,13.488l-19.079-.038s0-2.143,3.064-2.619,8.448-2.222,9.359-6.11,6.925-4.721,6.925-4.721" transform="translate(-1016.398 -1167.339)" fill="#1c3154"/>
              <path id="Path_918391" data-name="Path 918391" d="M1415.751,1066.426a71.914,71.914,0,0,1,0,8.58c-.189,3.1-3.414,7.258-3.872,8.286-1.148,2.578-2.443,3-2.443,3l-10.017,2.389-3.522.839-11.108-3.228s-5.059-13.739-3.028-21.474a58.518,58.518,0,0,1,5.135-13.105s7.548-1.651,20.865-.732Z" transform="translate(-1015.161 -772.205)" fill="#6bfcf2"/>
              <path id="Path_918392" data-name="Path 918392" d="M1461.983,1119.513c-.189,3.1-4.368,7.149-4.826,8.177-1.148,2.578-2.443,3-2.443,3l-10.017,2.389-1.809-5.044s14.637-3.741,12.283-16.922Z" transform="translate(-1060.439 -816.603)" fill="#40c4bb"/>
              <path id="Path_918393" data-name="Path 918393" d="M1380.929,1192.839s-5.5,16.659-5.854,22.331,10.515,80.573,10.952,83.187c.412,2.463,3.556,4.034,3.556,4.034a4.874,4.874,0,0,0,3.51.263,8.762,8.762,0,0,0,3.768-1.729s4.281-53.42,1.632-72.5a294.247,294.247,0,0,1-2.681-35.584Z" transform="translate(-1010.594 -876.669)" fill="#233862"/>
              <path id="Path_918394" data-name="Path 918394" d="M1425.509,1190.965s8.391,10.954,9.173,18.359,1.227,33.415,2.894,40.634,7.789,21.111,7.789,43.626a4.578,4.578,0,0,1-2.6,1.978,21.907,21.907,0,0,1-2.288.615,3.629,3.629,0,0,1-4.023-1.858c-4.139-8.109-17.325-34.265-18-39.694-.478-3.842-4.642-29.271-13.723-44.193-2.18-3.582,1.338-17.828,1.338-17.828Z" transform="translate(-1031.871 -875.292)" fill="#2a4e96"/>
              <path id="Path_918395" data-name="Path 918395" d="M1393,1183.136s2.208,1.7,6.595,1.786c5.239.1,18.223-1.3,18.223-1.3a10.192,10.192,0,0,1,.553,3.224s-15.857,3.892-25.046.568a5.517,5.517,0,0,1-.326-4.279" transform="translate(-1023.548 -869.538)" fill="#233862"/>
              <path id="Path_918396" data-name="Path 918396" d="M1407.377,1191.847a2.645,2.645,0,1,1,2.391-2.633,2.524,2.524,0,0,1-2.391,2.633m0-4.495a1.884,1.884,0,1,0,1.6,1.862,1.747,1.747,0,0,0-1.6-1.862" transform="translate(-1032.584 -872.07)" fill="#fff"/>
              <path id="Path_918397" data-name="Path 918397" d="M1358.623,1150.159l-23.834.217-11.728-26.818,23.834-.217Z" transform="translate(-972.373 -825.593)" fill="#7d0ede"/>
              <path id="Path_918398" data-name="Path 918398" d="M1411.566,1167.028l-1.747-2.089a6.172,6.172,0,0,0-2.04-1.2c-.858-.174-2.669-1.191-2.845-.9s1.392,2.33,1.392,2.33l.079.011c-1.8,1.317-6.342.154-6.9.692-.68.651.936,2.059,1.8,2.849s3.344,2.108,5.277,1.523c1.413-.428,3.635-.863,3.635-.863Z" transform="translate(-1028.434 -854.58)" fill="#ffb27d"/>
              <path id="Path_918399" data-name="Path 918399" d="M1329.4,1138.971s1.5-1.656,2.451-.862-.25,4.7-1.158,4.306-1.816-2.959-1.294-3.445" transform="translate(-976.92 -836.287)" fill="#ffb27d"/>
              <path id="Path_918400" data-name="Path 918400" d="M1447.636,1051.749s6.823.732,11.719,9.388c3.861,6.826,10.462,19.41,7.971,22.964-1.093,1.561-11.575,7.113-31.791,3.94a5.886,5.886,0,0,1,1.949-3.636s17.013-5.315,16.984-6.372c-.055-2-2.3-3.728-11.8-12.978-2.584-2.515,4.97-13.307,4.97-13.307" transform="translate(-1055.036 -772.976)" fill="#6bfcf2"/>
              <path id="Path_918401" data-name="Path 918401" d="M1432.806,1024.928c.234-.306-.067-1.282-.442-3.1a33.061,33.061,0,0,1-.9-7.053l-.5.082-8.456,1.384s.193,2.2.2,4.273c0,.017,0,.035,0,.052.01,1.8-.5,4.52.125,4.875,3.2,1.827,9.079.663,9.981-.515" transform="translate(-1045.457 -745.804)" fill="#ffb27d"/>
              <path id="Path_918402" data-name="Path 918402" d="M1422.5,1016.471s.168,3.1.174,5.174c4.732-.11,7.258-4.581,8.282-6.559Z" transform="translate(-1045.457 -746.032)" fill="#e8945b"/>
              <path id="Path_918403" data-name="Path 918403" d="M1404.481,981.518s11.085-1.536,10-8.239-.392-11.415-7.516-10.717-8.079,3.466-8.275,5.789,2.884,13.393,5.8,13.166" transform="translate(-1027.946 -707.379)" fill="#ffb27d"/>
              <path id="Path_918404" data-name="Path 918404" d="M1410.831,959.926s4.314,7.392,9.15,7.835,6.653-1.081,6.653-1.081a13.068,13.068,0,0,1-5.541-6.9s-8.592-3.954-10.262.142" transform="translate(-1036.879 -704.126)" fill="#163560"/>
              <path id="Path_918405" data-name="Path 918405" d="M1400.049,964.272a6.852,6.852,0,0,0-2.774,2.9,10.691,10.691,0,0,0-.487,6.384s-3.156-4.99-1.087-8.41c2.193-3.627,4.349-.874,4.349-.874" transform="translate(-1025.243 -707.951)" fill="#163560"/>
              <path id="Path_918406" data-name="Path 918406" d="M629.517,1639.88H15.022a.771.771,0,0,1-.768-.768v-.389a.771.771,0,0,1,.768-.768H629.517a.77.77,0,0,1,.768.768v.39a.77.77,0,0,1-.768.768" transform="translate(-10.476 -1203.803)" fill="#233862"/>
            </g>
          </g>
        </g>
      </g>
      <path id="Path_918407" data-name="Path 918407" d="M9,0H244a9,9,0,0,1,9,9V28a9,9,0,0,1-9,9H9a9,9,0,0,1-9-9V9A9,9,0,0,1,9,0Z" transform="translate(332 1987.756)" fill="#3a2292"/>
      <path id="Path_918412" data-name="Path 918412" d="M9,0H244a9,9,0,0,1,9,9V28a9,9,0,0,1-9,9H9a9,9,0,0,1-9-9V9A9,9,0,0,1,9,0Z" transform="translate(1023 1953.756)" fill="#3a2292"/>
      <path id="Path_918414" data-name="Path 918414" d="M9,0H244a9,9,0,0,1,9,9V28a9,9,0,0,1-9,9H9a9,9,0,0,1-9-9V9A9,9,0,0,1,9,0Z" transform="translate(1023 2093.756)" fill="#3a2292"/>
      <path id="Path_918416" data-name="Path 918416" d="M9,0H244a9,9,0,0,1,9,9V28a9,9,0,0,1-9,9H9a9,9,0,0,1-9-9V9A9,9,0,0,1,9,0Z" transform="translate(1023 2258.244)" fill="#3a2292"/>
      <path id="Path_918409" data-name="Path 918409" d="M9,0H244a9,9,0,0,1,9,9V28a9,9,0,0,1-9,9H9a9,9,0,0,1-9-9V9A9,9,0,0,1,9,0Z" transform="translate(332 2150.756)" fill="#3a2292"/>
      <path id="Path_921146" data-name="Path 921146" d="M0,0H55V4H0Z" transform="translate(431.289 2024.756)" fill="#3a2292"/>
      <path id="Path_921147" data-name="Path 921147" d="M0,0H55V4H0Z" transform="translate(1125.289 1990.512)" fill="#3a2292"/>
      <path id="Path_921148" data-name="Path 921148" d="M0,0H55V4H0Z" transform="translate(1125.289 2130.512)" fill="#3a2292"/>
      <path id="Path_921149" data-name="Path 921149" d="M0,0H55V4H0Z" transform="translate(1125.289 2295)" fill="#3a2292"/>
      <path id="Path_921150" data-name="Path 921150" d="M0,0H55V4H0Z" transform="translate(431.289 2187.756)" fill="#3a2292"/>
      <path id="Path_918408" data-name="Path 918408" d="M28.16-16.422V155H0" transform="translate(614.289 2026.759) rotate(90)" fill="none" stroke="#3a2292" stroke-width="3"/>
      <path id="Path_918411" data-name="Path 918411" d="M28.16,265.578V0H0" transform="translate(1152.289 1992.515) rotate(90)" fill="none" stroke="#3a2292" stroke-width="3"/>
      <path id="Path_918413" data-name="Path 918413" d="M28.16,90.578V0H0" transform="translate(1152.289 2132.515) rotate(90)" fill="none" stroke="#3a2292" stroke-width="3"/>
      <path id="Path_918415" data-name="Path 918415" d="M20.159,371.578V0H0" transform="translate(1152.289 2297.003) rotate(90)" fill="none" stroke="#3a2292" stroke-width="3"/>
      <path id="Path_918410" data-name="Path 918410" d="M20.241-56.422V155H0" transform="translate(614.289 2189.759) rotate(90)" fill="none" stroke="#3a2292" stroke-width="3"/>
      <path id="Path_921151" data-name="Path 921151" d="M8.193,12.878H3.329V18h-2.1V5.914H8.907V7.607H3.329V11.2H8.193ZM15.456,18a3.113,3.113,0,0,1-.232-.838,3.14,3.14,0,0,1-2.357,1,3.169,3.169,0,0,1-2.208-.772A2.47,2.47,0,0,1,9.8,15.485a2.55,2.55,0,0,1,1.067-2.2,5.169,5.169,0,0,1,3.051-.768h1.237v-.589a1.573,1.573,0,0,0-.39-1.116,1.547,1.547,0,0,0-1.187-.419,1.777,1.777,0,0,0-1.129.344,1.066,1.066,0,0,0-.44.876H9.994a2.239,2.239,0,0,1,.49-1.382,3.263,3.263,0,0,1,1.332-1.009,4.68,4.68,0,0,1,1.88-.365,3.769,3.769,0,0,1,2.515.793,2.827,2.827,0,0,1,.963,2.229v4.051a4.591,4.591,0,0,0,.34,1.934V18ZM13.24,16.547a2.294,2.294,0,0,0,1.125-.291,1.941,1.941,0,0,0,.793-.78V13.783H14.07a2.973,2.973,0,0,0-1.685.39,1.264,1.264,0,0,0-.564,1.1,1.179,1.179,0,0,0,.386.926A1.5,1.5,0,0,0,13.24,16.547Zm9.737.008a1.824,1.824,0,0,0,1.253-.44,1.5,1.5,0,0,0,.531-1.087h1.9a2.963,2.963,0,0,1-.523,1.565,3.43,3.43,0,0,1-1.328,1.15,3.958,3.958,0,0,1-1.81.423,3.829,3.829,0,0,1-2.988-1.22,4.84,4.84,0,0,1-1.1-3.37v-.208A4.759,4.759,0,0,1,20,10.085a3.8,3.8,0,0,1,2.988-1.233,3.69,3.69,0,0,1,2.611.934,3.345,3.345,0,0,1,1.058,2.453h-1.9a1.847,1.847,0,0,0-.527-1.27,1.7,1.7,0,0,0-1.258-.5,1.775,1.775,0,0,0-1.511.71,3.621,3.621,0,0,0-.54,2.154v.324a3.682,3.682,0,0,0,.527,2.179A1.773,1.773,0,0,0,22.977,16.556Zm7.736-9.72V9.019H32.3v1.494H30.713v5.014a1.1,1.1,0,0,0,.2.743.943.943,0,0,0,.726.228,3.107,3.107,0,0,0,.706-.083v1.561a4.968,4.968,0,0,1-1.328.191q-2.324,0-2.324-2.565V10.513H27.218V9.019H28.7V6.835Zm2.5,6.591a5.3,5.3,0,0,1,.523-2.378A3.819,3.819,0,0,1,35.2,9.421a4.14,4.14,0,0,1,2.175-.569,3.923,3.923,0,0,1,2.951,1.17,4.6,4.6,0,0,1,1.224,3.1l.008.473a5.343,5.343,0,0,1-.51,2.374,3.773,3.773,0,0,1-1.461,1.619,4.17,4.17,0,0,1-2.2.573A3.9,3.9,0,0,1,34.353,16.9a4.848,4.848,0,0,1-1.141-3.374Zm2.017.174a3.619,3.619,0,0,0,.573,2.171,1.862,1.862,0,0,0,1.594.784,1.842,1.842,0,0,0,1.59-.8,4,4,0,0,0,.569-2.333,3.572,3.572,0,0,0-.585-2.158,1.973,1.973,0,0,0-3.158-.012A3.922,3.922,0,0,0,35.229,13.6ZM47.97,10.861a4.991,4.991,0,0,0-.822-.066,1.85,1.85,0,0,0-1.868,1.063V18H43.264V9.019h1.926l.05,1a2.273,2.273,0,0,1,2.025-1.17,1.888,1.888,0,0,1,.714.116Zm5.229,7.3a4.173,4.173,0,0,1-3.109-1.208A4.381,4.381,0,0,1,48.9,13.742v-.249a5.389,5.389,0,0,1,.519-2.4,3.949,3.949,0,0,1,1.457-1.648,3.851,3.851,0,0,1,2.092-.589,3.525,3.525,0,0,1,2.835,1.17,4.949,4.949,0,0,1,1,3.312v.813H50.934a2.7,2.7,0,0,0,.743,1.76,2.23,2.23,0,0,0,1.639.647,2.731,2.731,0,0,0,2.258-1.121l1.087,1.038a3.631,3.631,0,0,1-1.44,1.249A4.509,4.509,0,0,1,53.2,18.166Zm-.241-7.695a1.7,1.7,0,0,0-1.341.581,3.012,3.012,0,0,0-.652,1.619H54.81v-.149a2.452,2.452,0,0,0-.54-1.531A1.686,1.686,0,0,0,52.959,10.471ZM63.4,15.56a.914.914,0,0,0-.444-.822,4.723,4.723,0,0,0-1.473-.5,7.574,7.574,0,0,1-1.718-.548,2.293,2.293,0,0,1-1.511-2.117,2.391,2.391,0,0,1,.979-1.942,3.872,3.872,0,0,1,2.49-.78,4.029,4.029,0,0,1,2.6.8,2.529,2.529,0,0,1,.992,2.067H63.3a1.243,1.243,0,0,0-.432-.967,1.654,1.654,0,0,0-1.146-.386,1.787,1.787,0,0,0-1.083.307.968.968,0,0,0-.419.822.818.818,0,0,0,.39.722,5.365,5.365,0,0,0,1.577.519,7.466,7.466,0,0,1,1.864.623,2.639,2.639,0,0,1,1,.867,2.212,2.212,0,0,1,.328,1.229,2.34,2.34,0,0,1-1,1.963,4.283,4.283,0,0,1-2.631.751,4.644,4.644,0,0,1-1.967-.4,3.238,3.238,0,0,1-1.345-1.1,2.594,2.594,0,0,1-.481-1.5h1.959a1.421,1.421,0,0,0,.54,1.1,2.1,2.1,0,0,0,1.32.386,2.04,2.04,0,0,0,1.212-.3A.938.938,0,0,0,63.4,15.56ZM73.362,10a3.157,3.157,0,0,1,2.5-1.146q2.872,0,2.914,3.279V18H76.757V12.206a1.773,1.773,0,0,0-.4-1.316,1.646,1.646,0,0,0-1.183-.386,1.943,1.943,0,0,0-1.81,1.079V18H71.345V5.25h2.017ZM86.253,17.12a3.128,3.128,0,0,1-2.523,1.046,2.788,2.788,0,0,1-2.212-.855,3.637,3.637,0,0,1-.751-2.474V9.019h2.017v5.794q0,1.71,1.419,1.71a1.993,1.993,0,0,0,1.984-1.054V9.019H88.2V18H86.3Zm5.9-8.1.058.938a3.232,3.232,0,0,1,2.59-1.1,2.483,2.483,0,0,1,2.465,1.378,3.186,3.186,0,0,1,2.756-1.378,2.8,2.8,0,0,1,2.212.822,3.618,3.618,0,0,1,.743,2.424V18h-2.017V12.156a1.786,1.786,0,0,0-.374-1.253,1.635,1.635,0,0,0-1.237-.4,1.679,1.679,0,0,0-1.125.369,1.948,1.948,0,0,0-.61.967L97.625,18H95.608V12.09A1.439,1.439,0,0,0,93.99,10.5a1.776,1.776,0,0,0-1.718.988V18H90.254V9.019ZM110.417,18a3.113,3.113,0,0,1-.232-.838,3.393,3.393,0,0,1-4.565.232,2.47,2.47,0,0,1-.855-1.909,2.55,2.55,0,0,1,1.067-2.2,5.169,5.169,0,0,1,3.051-.768h1.237v-.589a1.573,1.573,0,0,0-.39-1.116,1.547,1.547,0,0,0-1.187-.419,1.777,1.777,0,0,0-1.129.344,1.066,1.066,0,0,0-.44.876h-2.017a2.239,2.239,0,0,1,.49-1.382,3.263,3.263,0,0,1,1.332-1.009,4.68,4.68,0,0,1,1.88-.365,3.769,3.769,0,0,1,2.515.793,2.827,2.827,0,0,1,.963,2.229v4.051a4.591,4.591,0,0,0,.34,1.934V18ZM108.2,16.547a2.294,2.294,0,0,0,1.125-.291,1.941,1.941,0,0,0,.793-.78V13.783h-1.087a2.973,2.973,0,0,0-1.685.39,1.264,1.264,0,0,0-.564,1.1,1.179,1.179,0,0,0,.386.926A1.5,1.5,0,0,0,108.2,16.547Zm7.919-7.529.058,1.038a3.229,3.229,0,0,1,2.615-1.2q2.806,0,2.855,3.212V18h-2.017V12.181a1.85,1.85,0,0,0-.369-1.266,1.554,1.554,0,0,0-1.208-.411,1.944,1.944,0,0,0-1.818,1.1V18h-2.017V9.019Zm7.205,4.408a5.3,5.3,0,0,1,.523-2.378,3.819,3.819,0,0,1,1.469-1.627,4.14,4.14,0,0,1,2.175-.569,3.923,3.923,0,0,1,2.951,1.17,4.6,4.6,0,0,1,1.224,3.1l.008.473a5.343,5.343,0,0,1-.51,2.374,3.773,3.773,0,0,1-1.461,1.619,4.17,4.17,0,0,1-2.2.573,3.9,3.9,0,0,1-3.042-1.266,4.848,4.848,0,0,1-1.141-3.374Zm2.017.174a3.619,3.619,0,0,0,.573,2.171,1.862,1.862,0,0,0,1.594.784,1.842,1.842,0,0,0,1.59-.8,4,4,0,0,0,.569-2.333,3.572,3.572,0,0,0-.585-2.158,1.973,1.973,0,0,0-3.158-.012A3.922,3.922,0,0,0,125.342,13.6Zm13.074,1.959a.914.914,0,0,0-.444-.822,4.723,4.723,0,0,0-1.473-.5,7.574,7.574,0,0,1-1.718-.548,2.293,2.293,0,0,1-1.511-2.117,2.391,2.391,0,0,1,.979-1.942,3.872,3.872,0,0,1,2.49-.78,4.029,4.029,0,0,1,2.6.8,2.529,2.529,0,0,1,.992,2.067h-2.017a1.243,1.243,0,0,0-.432-.967,1.654,1.654,0,0,0-1.146-.386,1.787,1.787,0,0,0-1.083.307.968.968,0,0,0-.419.822.818.818,0,0,0,.39.722,5.365,5.365,0,0,0,1.577.519,7.466,7.466,0,0,1,1.864.623,2.639,2.639,0,0,1,1,.867,2.212,2.212,0,0,1,.328,1.229,2.34,2.34,0,0,1-1,1.963,4.283,4.283,0,0,1-2.631.751,4.644,4.644,0,0,1-1.967-.4,3.238,3.238,0,0,1-1.345-1.1,2.594,2.594,0,0,1-.481-1.5h1.959a1.421,1.421,0,0,0,.54,1.1,2.1,2.1,0,0,0,1.32.386,2.04,2.04,0,0,0,1.212-.3A.938.938,0,0,0,138.416,15.56Z" transform="translate(381.789 1996.756)" fill="#fff"/>
      <path id="Path_921152" data-name="Path 921152" d="M8.193,12.878H3.329V18h-2.1V5.914H8.907V7.607H3.329V11.2H8.193ZM15.456,18a3.113,3.113,0,0,1-.232-.838,3.14,3.14,0,0,1-2.357,1,3.169,3.169,0,0,1-2.208-.772A2.47,2.47,0,0,1,9.8,15.485a2.55,2.55,0,0,1,1.067-2.2,5.169,5.169,0,0,1,3.051-.768h1.237v-.589a1.573,1.573,0,0,0-.39-1.116,1.547,1.547,0,0,0-1.187-.419,1.777,1.777,0,0,0-1.129.344,1.066,1.066,0,0,0-.44.876H9.994a2.239,2.239,0,0,1,.49-1.382,3.263,3.263,0,0,1,1.332-1.009,4.68,4.68,0,0,1,1.88-.365,3.769,3.769,0,0,1,2.515.793,2.827,2.827,0,0,1,.963,2.229v4.051a4.591,4.591,0,0,0,.34,1.934V18ZM13.24,16.547a2.294,2.294,0,0,0,1.125-.291,1.941,1.941,0,0,0,.793-.78V13.783H14.07a2.973,2.973,0,0,0-1.685.39,1.264,1.264,0,0,0-.564,1.1,1.179,1.179,0,0,0,.386.926A1.5,1.5,0,0,0,13.24,16.547Zm9.737.008a1.824,1.824,0,0,0,1.253-.44,1.5,1.5,0,0,0,.531-1.087h1.9a2.963,2.963,0,0,1-.523,1.565,3.43,3.43,0,0,1-1.328,1.15,3.958,3.958,0,0,1-1.81.423,3.829,3.829,0,0,1-2.988-1.22,4.84,4.84,0,0,1-1.1-3.37v-.208A4.759,4.759,0,0,1,20,10.085a3.8,3.8,0,0,1,2.988-1.233,3.69,3.69,0,0,1,2.611.934,3.345,3.345,0,0,1,1.058,2.453h-1.9a1.847,1.847,0,0,0-.527-1.27,1.7,1.7,0,0,0-1.258-.5,1.775,1.775,0,0,0-1.511.71,3.621,3.621,0,0,0-.54,2.154v.324a3.682,3.682,0,0,0,.527,2.179A1.773,1.773,0,0,0,22.977,16.556Zm7.736-9.72V9.019H32.3v1.494H30.713v5.014a1.1,1.1,0,0,0,.2.743.943.943,0,0,0,.726.228,3.107,3.107,0,0,0,.706-.083v1.561a4.968,4.968,0,0,1-1.328.191q-2.324,0-2.324-2.565V10.513H27.218V9.019H28.7V6.835Zm2.5,6.591a5.3,5.3,0,0,1,.523-2.378A3.819,3.819,0,0,1,35.2,9.421a4.14,4.14,0,0,1,2.175-.569,3.923,3.923,0,0,1,2.951,1.17,4.6,4.6,0,0,1,1.224,3.1l.008.473a5.343,5.343,0,0,1-.51,2.374,3.773,3.773,0,0,1-1.461,1.619,4.17,4.17,0,0,1-2.2.573A3.9,3.9,0,0,1,34.353,16.9a4.848,4.848,0,0,1-1.141-3.374Zm2.017.174a3.619,3.619,0,0,0,.573,2.171,1.862,1.862,0,0,0,1.594.784,1.842,1.842,0,0,0,1.59-.8,4,4,0,0,0,.569-2.333,3.572,3.572,0,0,0-.585-2.158,1.973,1.973,0,0,0-3.158-.012A3.922,3.922,0,0,0,35.229,13.6ZM47.97,10.861a4.991,4.991,0,0,0-.822-.066,1.85,1.85,0,0,0-1.868,1.063V18H43.264V9.019h1.926l.05,1a2.273,2.273,0,0,1,2.025-1.17,1.888,1.888,0,0,1,.714.116Zm5.229,7.3a4.173,4.173,0,0,1-3.109-1.208A4.381,4.381,0,0,1,48.9,13.742v-.249a5.389,5.389,0,0,1,.519-2.4,3.949,3.949,0,0,1,1.457-1.648,3.851,3.851,0,0,1,2.092-.589,3.525,3.525,0,0,1,2.835,1.17,4.949,4.949,0,0,1,1,3.312v.813H50.934a2.7,2.7,0,0,0,.743,1.76,2.23,2.23,0,0,0,1.639.647,2.731,2.731,0,0,0,2.258-1.121l1.087,1.038a3.631,3.631,0,0,1-1.44,1.249A4.509,4.509,0,0,1,53.2,18.166Zm-.241-7.695a1.7,1.7,0,0,0-1.341.581,3.012,3.012,0,0,0-.652,1.619H54.81v-.149a2.452,2.452,0,0,0-.54-1.531A1.686,1.686,0,0,0,52.959,10.471ZM63.4,15.56a.914.914,0,0,0-.444-.822,4.723,4.723,0,0,0-1.473-.5,7.574,7.574,0,0,1-1.718-.548,2.293,2.293,0,0,1-1.511-2.117,2.391,2.391,0,0,1,.979-1.942,3.872,3.872,0,0,1,2.49-.78,4.029,4.029,0,0,1,2.6.8,2.529,2.529,0,0,1,.992,2.067H63.3a1.243,1.243,0,0,0-.432-.967,1.654,1.654,0,0,0-1.146-.386,1.787,1.787,0,0,0-1.083.307.968.968,0,0,0-.419.822.818.818,0,0,0,.39.722,5.365,5.365,0,0,0,1.577.519,7.466,7.466,0,0,1,1.864.623,2.639,2.639,0,0,1,1,.867,2.212,2.212,0,0,1,.328,1.229,2.34,2.34,0,0,1-1,1.963,4.283,4.283,0,0,1-2.631.751,4.644,4.644,0,0,1-1.967-.4,3.238,3.238,0,0,1-1.345-1.1,2.594,2.594,0,0,1-.481-1.5h1.959a1.421,1.421,0,0,0,.54,1.1,2.1,2.1,0,0,0,1.32.386,2.04,2.04,0,0,0,1.212-.3A.938.938,0,0,0,63.4,15.56ZM72.084,18V10.513h-1.37V9.019h1.37V8.2a3.085,3.085,0,0,1,.83-2.308,3.18,3.18,0,0,1,2.324-.813,4.662,4.662,0,0,1,1.129.149L76.317,6.8a3.973,3.973,0,0,0-.772-.066A1.3,1.3,0,0,0,74.1,8.222v.8h1.826v1.494H74.1V18Zm7.487,0H77.554V9.019h2.017ZM79.189,5.308h2.3l-2.3,2.515-1.619,0ZM86.9,15.56a.914.914,0,0,0-.444-.822,4.723,4.723,0,0,0-1.473-.5,7.574,7.574,0,0,1-1.718-.548,2.293,2.293,0,0,1-1.511-2.117,2.391,2.391,0,0,1,.979-1.942,3.872,3.872,0,0,1,2.49-.78,4.029,4.029,0,0,1,2.6.8,2.529,2.529,0,0,1,.992,2.067H86.8a1.243,1.243,0,0,0-.432-.967,1.654,1.654,0,0,0-1.146-.386,1.787,1.787,0,0,0-1.083.307.968.968,0,0,0-.419.822.818.818,0,0,0,.39.722,5.365,5.365,0,0,0,1.577.519,7.466,7.466,0,0,1,1.864.623,2.639,2.639,0,0,1,1,.867,2.212,2.212,0,0,1,.328,1.229,2.34,2.34,0,0,1-1,1.963,4.283,4.283,0,0,1-2.631.751,4.644,4.644,0,0,1-1.967-.4,3.238,3.238,0,0,1-1.345-1.1,2.594,2.594,0,0,1-.481-1.5h1.959a1.421,1.421,0,0,0,.54,1.1,2.1,2.1,0,0,0,1.32.386,2.04,2.04,0,0,0,1.212-.3A.938.938,0,0,0,86.9,15.56ZM92.786,18H90.769V9.019h2.017ZM90.645,6.686a1.071,1.071,0,0,1,.295-.772,1.113,1.113,0,0,1,.843-.307,1.127,1.127,0,0,1,.847.307,1.062,1.062,0,0,1,.3.772,1.038,1.038,0,0,1-.3.76,1.136,1.136,0,0,1-.847.3,1.122,1.122,0,0,1-.843-.3A1.046,1.046,0,0,1,90.645,6.686Zm8.027,9.87a1.824,1.824,0,0,0,1.253-.44,1.5,1.5,0,0,0,.531-1.087h1.9a2.963,2.963,0,0,1-.523,1.565,3.43,3.43,0,0,1-1.328,1.15,3.958,3.958,0,0,1-1.81.423,3.829,3.829,0,0,1-2.988-1.22,4.84,4.84,0,0,1-1.1-3.37v-.208a4.759,4.759,0,0,1,1.1-3.283,3.8,3.8,0,0,1,2.988-1.233,3.69,3.69,0,0,1,2.611.934,3.345,3.345,0,0,1,1.058,2.453h-1.9a1.847,1.847,0,0,0-.527-1.27,1.7,1.7,0,0,0-1.258-.5,1.775,1.775,0,0,0-1.511.71,3.621,3.621,0,0,0-.54,2.154v.324a3.681,3.681,0,0,0,.527,2.179A1.774,1.774,0,0,0,98.671,16.556Zm4.831-3.129a5.3,5.3,0,0,1,.523-2.378,3.819,3.819,0,0,1,1.469-1.627,4.14,4.14,0,0,1,2.175-.569,3.923,3.923,0,0,1,2.951,1.17,4.6,4.6,0,0,1,1.224,3.1l.008.473a5.343,5.343,0,0,1-.51,2.374,3.773,3.773,0,0,1-1.461,1.619,4.17,4.17,0,0,1-2.2.573,3.9,3.9,0,0,1-3.042-1.266,4.848,4.848,0,0,1-1.141-3.374Zm2.017.174a3.619,3.619,0,0,0,.573,2.171,1.862,1.862,0,0,0,1.594.784,1.842,1.842,0,0,0,1.59-.8,4,4,0,0,0,.569-2.333,3.572,3.572,0,0,0-.585-2.158,1.973,1.973,0,0,0-3.158-.012A3.922,3.922,0,0,0,105.52,13.6Zm13.074,1.959a.914.914,0,0,0-.444-.822,4.723,4.723,0,0,0-1.473-.5,7.574,7.574,0,0,1-1.718-.548,2.293,2.293,0,0,1-1.511-2.117,2.391,2.391,0,0,1,.979-1.942,3.872,3.872,0,0,1,2.49-.78,4.029,4.029,0,0,1,2.6.8,2.529,2.529,0,0,1,.992,2.067h-2.017a1.243,1.243,0,0,0-.432-.967,1.654,1.654,0,0,0-1.146-.386,1.787,1.787,0,0,0-1.083.307.968.968,0,0,0-.419.822.818.818,0,0,0,.39.722,5.365,5.365,0,0,0,1.577.519,7.466,7.466,0,0,1,1.864.623,2.639,2.639,0,0,1,1,.867,2.212,2.212,0,0,1,.328,1.229,2.34,2.34,0,0,1-1,1.963,4.283,4.283,0,0,1-2.631.751,4.644,4.644,0,0,1-1.967-.4,3.238,3.238,0,0,1-1.345-1.1,2.594,2.594,0,0,1-.481-1.5h1.959a1.421,1.421,0,0,0,.54,1.1,2.1,2.1,0,0,0,1.32.386,2.04,2.04,0,0,0,1.212-.3A.938.938,0,0,0,118.593,15.56Zm7.6-2.133a5.3,5.3,0,0,1,.523-2.378,3.819,3.819,0,0,1,1.469-1.627,4.14,4.14,0,0,1,2.175-.569,3.923,3.923,0,0,1,2.951,1.17,4.6,4.6,0,0,1,1.224,3.1l.008.473a5.343,5.343,0,0,1-.51,2.374,3.773,3.773,0,0,1-1.461,1.619,4.17,4.17,0,0,1-2.2.573A3.9,3.9,0,0,1,127.33,16.9a4.848,4.848,0,0,1-1.141-3.374Zm2.017.174a3.619,3.619,0,0,0,.573,2.171,1.862,1.862,0,0,0,1.594.784,1.842,1.842,0,0,0,1.59-.8,4,4,0,0,0,.569-2.333,3.572,3.572,0,0,0-.585-2.158,1.973,1.973,0,0,0-3.158-.012A3.922,3.922,0,0,0,128.206,13.6ZM145.845,18a3.113,3.113,0,0,1-.232-.838,3.393,3.393,0,0,1-4.565.232,2.47,2.47,0,0,1-.855-1.909,2.55,2.55,0,0,1,1.067-2.2,5.169,5.169,0,0,1,3.051-.768h1.237v-.589a1.573,1.573,0,0,0-.39-1.116,1.547,1.547,0,0,0-1.187-.419,1.777,1.777,0,0,0-1.129.344,1.066,1.066,0,0,0-.44.876h-2.017a2.239,2.239,0,0,1,.49-1.382A3.263,3.263,0,0,1,142.2,9.218a4.68,4.68,0,0,1,1.88-.365,3.769,3.769,0,0,1,2.515.793,2.827,2.827,0,0,1,.963,2.229v4.051a4.591,4.591,0,0,0,.34,1.934V18Zm-2.216-1.453a2.294,2.294,0,0,0,1.125-.291,1.941,1.941,0,0,0,.793-.78V13.783h-1.087a2.973,2.973,0,0,0-1.685.39,1.264,1.264,0,0,0-.564,1.1,1.179,1.179,0,0,0,.386.926A1.5,1.5,0,0,0,143.628,16.547Zm7.944-7.529.058.938a3.232,3.232,0,0,1,2.59-1.1,2.483,2.483,0,0,1,2.465,1.378,3.186,3.186,0,0,1,2.756-1.378,2.8,2.8,0,0,1,2.212.822A3.618,3.618,0,0,1,162.4,12.1V18h-2.017V12.156a1.786,1.786,0,0,0-.374-1.253,1.635,1.635,0,0,0-1.237-.4,1.679,1.679,0,0,0-1.125.369,1.948,1.948,0,0,0-.61.967L157.042,18h-2.017V12.09a1.439,1.439,0,0,0-1.619-1.585,1.776,1.776,0,0,0-1.718.988V18h-2.017V9.019ZM172.349,13.6a5.4,5.4,0,0,1-.934,3.329,3.042,3.042,0,0,1-2.569,1.237,2.93,2.93,0,0,1-2.457-1.137l-.1.971h-1.826V5.25h2.017V9.882a2.92,2.92,0,0,1,2.349-1.029,3.077,3.077,0,0,1,2.582,1.22,5.484,5.484,0,0,1,.938,3.412Zm-2.017-.174a3.813,3.813,0,0,0-.515-2.191,1.714,1.714,0,0,0-1.494-.73,1.873,1.873,0,0,0-1.843,1.146v3.7a1.892,1.892,0,0,0,1.859,1.17,1.7,1.7,0,0,0,1.461-.706,3.7,3.7,0,0,0,.531-2.133ZM176.184,18h-2.017V9.019h2.017ZM174.042,6.686a1.07,1.07,0,0,1,.295-.772,1.113,1.113,0,0,1,.843-.307,1.127,1.127,0,0,1,.847.307,1.062,1.062,0,0,1,.3.772,1.038,1.038,0,0,1-.3.76,1.136,1.136,0,0,1-.847.3,1.122,1.122,0,0,1-.843-.3A1.046,1.046,0,0,1,174.042,6.686Zm8.292,11.48a4.173,4.173,0,0,1-3.109-1.208,4.381,4.381,0,0,1-1.191-3.217v-.249a5.389,5.389,0,0,1,.519-2.4,3.949,3.949,0,0,1,1.457-1.648,3.851,3.851,0,0,1,2.092-.589,3.525,3.525,0,0,1,2.835,1.17,4.949,4.949,0,0,1,1,3.312v.813h-5.869a2.7,2.7,0,0,0,.743,1.76,2.23,2.23,0,0,0,1.639.647,2.731,2.731,0,0,0,2.258-1.121l1.087,1.038a3.631,3.631,0,0,1-1.44,1.249A4.509,4.509,0,0,1,182.335,18.166Zm-.241-7.695a1.7,1.7,0,0,0-1.341.581,3.012,3.012,0,0,0-.652,1.619h3.843v-.149a2.452,2.452,0,0,0-.54-1.531A1.686,1.686,0,0,0,182.094,10.471Zm7.28-1.453.058,1.038a3.229,3.229,0,0,1,2.615-1.2q2.806,0,2.855,3.212V18h-2.017V12.181a1.85,1.85,0,0,0-.369-1.266,1.554,1.554,0,0,0-1.208-.411,1.944,1.944,0,0,0-1.818,1.1V18h-2.017V9.019Zm10.11-2.183V9.019h1.585v1.494h-1.585v5.014a1.1,1.1,0,0,0,.2.743.943.943,0,0,0,.726.228,3.107,3.107,0,0,0,.706-.083v1.561a4.968,4.968,0,0,1-1.328.191q-2.324,0-2.324-2.565V10.513H195.99V9.019h1.478V6.835ZM207.976,18a3.113,3.113,0,0,1-.232-.838,3.393,3.393,0,0,1-4.565.232,2.47,2.47,0,0,1-.855-1.909,2.55,2.55,0,0,1,1.067-2.2,5.169,5.169,0,0,1,3.051-.768h1.237v-.589a1.573,1.573,0,0,0-.39-1.116,1.547,1.547,0,0,0-1.187-.419,1.777,1.777,0,0,0-1.129.344,1.066,1.066,0,0,0-.44.876h-2.017a2.239,2.239,0,0,1,.49-1.382,3.263,3.263,0,0,1,1.332-1.009,4.68,4.68,0,0,1,1.88-.365,3.769,3.769,0,0,1,2.515.793,2.827,2.827,0,0,1,.963,2.229v4.051a4.591,4.591,0,0,0,.34,1.934V18Zm-2.216-1.453a2.294,2.294,0,0,0,1.125-.291,1.941,1.941,0,0,0,.793-.78V13.783H206.59a2.973,2.973,0,0,0-1.685.39,1.264,1.264,0,0,0-.564,1.1,1.179,1.179,0,0,0,.386.926A1.5,1.5,0,0,0,205.76,16.547ZM213.953,18h-2.017V5.25h2.017Zm6.151.166a4.173,4.173,0,0,1-3.109-1.208,4.381,4.381,0,0,1-1.191-3.217v-.249a5.389,5.389,0,0,1,.519-2.4,3.949,3.949,0,0,1,1.457-1.648,3.851,3.851,0,0,1,2.092-.589,3.525,3.525,0,0,1,2.835,1.17,4.949,4.949,0,0,1,1,3.312v.813h-5.869a2.7,2.7,0,0,0,.743,1.76,2.23,2.23,0,0,0,1.639.647,2.731,2.731,0,0,0,2.258-1.121l1.087,1.038a3.631,3.631,0,0,1-1.44,1.249A4.509,4.509,0,0,1,220.1,18.166Zm-.241-7.695a1.7,1.7,0,0,0-1.341.581,3.012,3.012,0,0,0-.652,1.619h3.843v-.149a2.452,2.452,0,0,0-.54-1.531A1.686,1.686,0,0,0,219.863,10.471Zm10.442,5.088a.914.914,0,0,0-.444-.822,4.723,4.723,0,0,0-1.473-.5,7.574,7.574,0,0,1-1.718-.548,2.293,2.293,0,0,1-1.511-2.117,2.391,2.391,0,0,1,.979-1.942,3.872,3.872,0,0,1,2.49-.78,4.029,4.029,0,0,1,2.6.8,2.529,2.529,0,0,1,.992,2.067h-2.017a1.243,1.243,0,0,0-.432-.967,1.654,1.654,0,0,0-1.146-.386,1.787,1.787,0,0,0-1.083.307.968.968,0,0,0-.419.822.818.818,0,0,0,.39.722,5.365,5.365,0,0,0,1.577.519,7.466,7.466,0,0,1,1.864.623,2.639,2.639,0,0,1,1,.867,2.212,2.212,0,0,1,.328,1.229,2.34,2.34,0,0,1-1,1.963,4.283,4.283,0,0,1-2.631.751,4.644,4.644,0,0,1-1.967-.4,3.238,3.238,0,0,1-1.345-1.1,2.594,2.594,0,0,1-.481-1.5h1.959a1.421,1.421,0,0,0,.54,1.1,2.1,2.1,0,0,0,1.32.386,2.04,2.04,0,0,0,1.212-.3A.938.938,0,0,0,230.305,15.56Z" transform="translate(1033 1962.756)" fill="#fff"/>
      <path id="Path_921153" data-name="Path 921153" d="M56.857,12.878H51.992V18h-2.1V5.914h7.678V7.607H51.992V11.2h4.864ZM64.12,18a3.113,3.113,0,0,1-.232-.838,3.393,3.393,0,0,1-4.565.232,2.47,2.47,0,0,1-.855-1.909,2.55,2.55,0,0,1,1.067-2.2,5.169,5.169,0,0,1,3.051-.768h1.237v-.589a1.573,1.573,0,0,0-.39-1.116,1.547,1.547,0,0,0-1.187-.419,1.777,1.777,0,0,0-1.129.344,1.066,1.066,0,0,0-.44.876H58.658a2.239,2.239,0,0,1,.49-1.382A3.263,3.263,0,0,1,60.48,9.218a4.68,4.68,0,0,1,1.88-.365,3.769,3.769,0,0,1,2.515.793,2.827,2.827,0,0,1,.963,2.229v4.051a4.591,4.591,0,0,0,.34,1.934V18ZM61.9,16.547a2.294,2.294,0,0,0,1.125-.291,1.941,1.941,0,0,0,.793-.78V13.783H62.734a2.973,2.973,0,0,0-1.685.39,1.264,1.264,0,0,0-.564,1.1,1.179,1.179,0,0,0,.386.926A1.5,1.5,0,0,0,61.9,16.547Zm9.737.008a1.824,1.824,0,0,0,1.253-.44,1.5,1.5,0,0,0,.531-1.087h1.9a2.963,2.963,0,0,1-.523,1.565,3.43,3.43,0,0,1-1.328,1.15,3.958,3.958,0,0,1-1.81.423,3.829,3.829,0,0,1-2.988-1.22,4.84,4.84,0,0,1-1.1-3.37v-.208a4.759,4.759,0,0,1,1.1-3.283,3.8,3.8,0,0,1,2.988-1.233,3.69,3.69,0,0,1,2.611.934,3.345,3.345,0,0,1,1.058,2.453h-1.9a1.847,1.847,0,0,0-.527-1.27,1.7,1.7,0,0,0-1.258-.5,1.775,1.775,0,0,0-1.511.71,3.621,3.621,0,0,0-.54,2.154v.324a3.681,3.681,0,0,0,.527,2.179A1.774,1.774,0,0,0,71.64,16.556Zm7.736-9.72V9.019h1.585v1.494H79.377v5.014a1.1,1.1,0,0,0,.2.743.943.943,0,0,0,.726.228,3.107,3.107,0,0,0,.706-.083v1.561a4.968,4.968,0,0,1-1.328.191q-2.324,0-2.324-2.565V10.513H75.882V9.019H77.36V6.835Zm2.5,6.591a5.3,5.3,0,0,1,.523-2.378,3.819,3.819,0,0,1,1.469-1.627,4.14,4.14,0,0,1,2.175-.569,3.923,3.923,0,0,1,2.951,1.17,4.6,4.6,0,0,1,1.224,3.1l.008.473a5.343,5.343,0,0,1-.51,2.374,3.773,3.773,0,0,1-1.461,1.619,4.17,4.17,0,0,1-2.2.573A3.9,3.9,0,0,1,83.017,16.9a4.848,4.848,0,0,1-1.141-3.374Zm2.017.174a3.619,3.619,0,0,0,.573,2.171,1.862,1.862,0,0,0,1.594.784,1.842,1.842,0,0,0,1.59-.8,4,4,0,0,0,.569-2.333,3.572,3.572,0,0,0-.585-2.158,1.973,1.973,0,0,0-3.158-.012A3.922,3.922,0,0,0,83.892,13.6Zm12.742-2.739a4.991,4.991,0,0,0-.822-.066,1.85,1.85,0,0,0-1.868,1.063V18H91.927V9.019h1.926l.05,1a2.273,2.273,0,0,1,2.025-1.17,1.888,1.888,0,0,1,.714.116Zm5.229,7.3a4.173,4.173,0,0,1-3.109-1.208,4.381,4.381,0,0,1-1.191-3.217v-.249a5.389,5.389,0,0,1,.519-2.4,3.949,3.949,0,0,1,1.457-1.648,3.851,3.851,0,0,1,2.092-.589,3.525,3.525,0,0,1,2.835,1.17,4.949,4.949,0,0,1,1,3.312v.813H99.6a2.7,2.7,0,0,0,.743,1.76,2.23,2.23,0,0,0,1.639.647,2.731,2.731,0,0,0,2.258-1.121l1.087,1.038a3.631,3.631,0,0,1-1.44,1.249A4.509,4.509,0,0,1,101.864,18.166Zm-.241-7.695a1.7,1.7,0,0,0-1.341.581,3.012,3.012,0,0,0-.652,1.619h3.843v-.149a2.452,2.452,0,0,0-.54-1.531A1.686,1.686,0,0,0,101.623,10.471Zm10.442,5.088a.914.914,0,0,0-.444-.822,4.723,4.723,0,0,0-1.473-.5,7.574,7.574,0,0,1-1.718-.548,2.293,2.293,0,0,1-1.511-2.117,2.391,2.391,0,0,1,.979-1.942,3.872,3.872,0,0,1,2.49-.78,4.029,4.029,0,0,1,2.6.8,2.529,2.529,0,0,1,.992,2.067h-2.017a1.243,1.243,0,0,0-.432-.967,1.654,1.654,0,0,0-1.146-.386,1.787,1.787,0,0,0-1.083.307.968.968,0,0,0-.419.822.818.818,0,0,0,.39.722,5.365,5.365,0,0,0,1.577.519,7.466,7.466,0,0,1,1.864.623,2.639,2.639,0,0,1,1,.867,2.212,2.212,0,0,1,.328,1.229,2.34,2.34,0,0,1-1,1.963,4.283,4.283,0,0,1-2.631.751,4.644,4.644,0,0,1-1.967-.4,3.238,3.238,0,0,1-1.345-1.1,2.594,2.594,0,0,1-.481-1.5h1.959a1.421,1.421,0,0,0,.54,1.1,2.1,2.1,0,0,0,1.32.386,2.04,2.04,0,0,0,1.212-.3A.938.938,0,0,0,112.065,15.56Zm11.928,2.606a4.173,4.173,0,0,1-3.109-1.208,4.381,4.381,0,0,1-1.191-3.217v-.249a5.389,5.389,0,0,1,.519-2.4,3.949,3.949,0,0,1,1.457-1.648,3.851,3.851,0,0,1,2.092-.589,3.525,3.525,0,0,1,2.835,1.17,4.949,4.949,0,0,1,1,3.312v.813h-5.869a2.7,2.7,0,0,0,.743,1.76,2.23,2.23,0,0,0,1.639.647,2.731,2.731,0,0,0,2.258-1.121l1.087,1.038a3.631,3.631,0,0,1-1.44,1.249A4.509,4.509,0,0,1,123.993,18.166Zm-.241-7.695a1.7,1.7,0,0,0-1.341.581,3.012,3.012,0,0,0-.652,1.619H125.6v-.149a2.452,2.452,0,0,0-.54-1.531A1.686,1.686,0,0,0,123.753,10.471Zm8.633,1.5,1.71-2.955h2.241l-2.748,4.424L136.428,18H134.2l-1.793-3.071L130.626,18h-2.241l2.839-4.557-2.739-4.424h2.225Zm7.853-5.138V9.019h1.585v1.494h-1.585v5.014a1.1,1.1,0,0,0,.2.743.943.943,0,0,0,.726.228,3.107,3.107,0,0,0,.706-.083v1.561a4.968,4.968,0,0,1-1.328.191q-2.324,0-2.324-2.565V10.513h-1.478V9.019h1.478V6.835Zm7.081,11.331a4.173,4.173,0,0,1-3.109-1.208,4.381,4.381,0,0,1-1.191-3.217v-.249a5.389,5.389,0,0,1,.519-2.4,3.949,3.949,0,0,1,1.457-1.648,3.851,3.851,0,0,1,2.092-.589,3.525,3.525,0,0,1,2.835,1.17,4.949,4.949,0,0,1,1,3.312v.813h-5.869a2.7,2.7,0,0,0,.743,1.76,2.23,2.23,0,0,0,1.639.647,2.731,2.731,0,0,0,2.258-1.121l1.087,1.038a3.631,3.631,0,0,1-1.44,1.249A4.509,4.509,0,0,1,147.319,18.166Zm-.241-7.695a1.7,1.7,0,0,0-1.341.581,3.012,3.012,0,0,0-.652,1.619h3.843v-.149a2.452,2.452,0,0,0-.54-1.531A1.686,1.686,0,0,0,147.078,10.471Zm10.11.39a4.991,4.991,0,0,0-.822-.066,1.85,1.85,0,0,0-1.868,1.063V18h-2.017V9.019h1.926l.05,1a2.273,2.273,0,0,1,2.025-1.17,1.888,1.888,0,0,1,.714.116Zm3.146-1.843.058,1.038a3.229,3.229,0,0,1,2.615-1.2q2.806,0,2.855,3.212V18h-2.017V12.181a1.85,1.85,0,0,0-.369-1.266,1.554,1.554,0,0,0-1.208-.411,1.944,1.944,0,0,0-1.818,1.1V18h-2.017V9.019Zm7.205,4.408a5.3,5.3,0,0,1,.523-2.378,3.819,3.819,0,0,1,1.469-1.627,4.14,4.14,0,0,1,2.175-.569,3.923,3.923,0,0,1,2.951,1.17,4.6,4.6,0,0,1,1.224,3.1l.008.473a5.343,5.343,0,0,1-.51,2.374,3.773,3.773,0,0,1-1.461,1.619,4.17,4.17,0,0,1-2.2.573,3.9,3.9,0,0,1-3.042-1.266,4.848,4.848,0,0,1-1.141-3.374Zm2.017.174a3.619,3.619,0,0,0,.573,2.171,1.862,1.862,0,0,0,1.594.784,1.842,1.842,0,0,0,1.59-.8,4,4,0,0,0,.569-2.333,3.572,3.572,0,0,0-.585-2.158,1.973,1.973,0,0,0-3.158-.012A3.922,3.922,0,0,0,169.556,13.6ZM182.63,15.56a.914.914,0,0,0-.444-.822,4.723,4.723,0,0,0-1.473-.5,7.574,7.574,0,0,1-1.718-.548,2.293,2.293,0,0,1-1.511-2.117,2.391,2.391,0,0,1,.979-1.942,3.872,3.872,0,0,1,2.49-.78,4.029,4.029,0,0,1,2.6.8,2.529,2.529,0,0,1,.992,2.067h-2.017a1.243,1.243,0,0,0-.432-.967,1.654,1.654,0,0,0-1.146-.386,1.787,1.787,0,0,0-1.083.307.968.968,0,0,0-.419.822.818.818,0,0,0,.39.722,5.365,5.365,0,0,0,1.577.519,7.466,7.466,0,0,1,1.864.623,2.639,2.639,0,0,1,1,.867,2.212,2.212,0,0,1,.328,1.229,2.34,2.34,0,0,1-1,1.963,4.283,4.283,0,0,1-2.631.751,4.644,4.644,0,0,1-1.967-.4,3.238,3.238,0,0,1-1.345-1.1,2.594,2.594,0,0,1-.481-1.5h1.959a1.421,1.421,0,0,0,.54,1.1,2.1,2.1,0,0,0,1.32.386,2.04,2.04,0,0,0,1.212-.3A.938.938,0,0,0,182.63,15.56Z" transform="translate(1033 2102.756)" fill="#fff"/>
      <path id="Path_921154" data-name="Path 921154" d="M8.193,12.878H3.329V18h-2.1V5.914H8.907V7.607H3.329V11.2H8.193ZM15.456,18a3.113,3.113,0,0,1-.232-.838,3.14,3.14,0,0,1-2.357,1,3.169,3.169,0,0,1-2.208-.772A2.47,2.47,0,0,1,9.8,15.485a2.55,2.55,0,0,1,1.067-2.2,5.169,5.169,0,0,1,3.051-.768h1.237v-.589a1.573,1.573,0,0,0-.39-1.116,1.547,1.547,0,0,0-1.187-.419,1.777,1.777,0,0,0-1.129.344,1.066,1.066,0,0,0-.44.876H9.994a2.239,2.239,0,0,1,.49-1.382,3.263,3.263,0,0,1,1.332-1.009,4.68,4.68,0,0,1,1.88-.365,3.769,3.769,0,0,1,2.515.793,2.827,2.827,0,0,1,.963,2.229v4.051a4.591,4.591,0,0,0,.34,1.934V18ZM13.24,16.547a2.294,2.294,0,0,0,1.125-.291,1.941,1.941,0,0,0,.793-.78V13.783H14.07a2.973,2.973,0,0,0-1.685.39,1.264,1.264,0,0,0-.564,1.1,1.179,1.179,0,0,0,.386.926A1.5,1.5,0,0,0,13.24,16.547Zm9.737.008a1.824,1.824,0,0,0,1.253-.44,1.5,1.5,0,0,0,.531-1.087h1.9a2.963,2.963,0,0,1-.523,1.565,3.43,3.43,0,0,1-1.328,1.15,3.958,3.958,0,0,1-1.81.423,3.829,3.829,0,0,1-2.988-1.22,4.84,4.84,0,0,1-1.1-3.37v-.208A4.759,4.759,0,0,1,20,10.085a3.8,3.8,0,0,1,2.988-1.233,3.69,3.69,0,0,1,2.611.934,3.345,3.345,0,0,1,1.058,2.453h-1.9a1.847,1.847,0,0,0-.527-1.27,1.7,1.7,0,0,0-1.258-.5,1.775,1.775,0,0,0-1.511.71,3.621,3.621,0,0,0-.54,2.154v.324a3.682,3.682,0,0,0,.527,2.179A1.773,1.773,0,0,0,22.977,16.556Zm7.736-9.72V9.019H32.3v1.494H30.713v5.014a1.1,1.1,0,0,0,.2.743.943.943,0,0,0,.726.228,3.107,3.107,0,0,0,.706-.083v1.561a4.968,4.968,0,0,1-1.328.191q-2.324,0-2.324-2.565V10.513H27.218V9.019H28.7V6.835Zm2.5,6.591a5.3,5.3,0,0,1,.523-2.378A3.819,3.819,0,0,1,35.2,9.421a4.14,4.14,0,0,1,2.175-.569,3.923,3.923,0,0,1,2.951,1.17,4.6,4.6,0,0,1,1.224,3.1l.008.473a5.343,5.343,0,0,1-.51,2.374,3.773,3.773,0,0,1-1.461,1.619,4.17,4.17,0,0,1-2.2.573A3.9,3.9,0,0,1,34.353,16.9a4.848,4.848,0,0,1-1.141-3.374Zm2.017.174a3.619,3.619,0,0,0,.573,2.171,1.862,1.862,0,0,0,1.594.784,1.842,1.842,0,0,0,1.59-.8,4,4,0,0,0,.569-2.333,3.572,3.572,0,0,0-.585-2.158,1.973,1.973,0,0,0-3.158-.012A3.922,3.922,0,0,0,35.229,13.6ZM47.97,10.861a4.991,4.991,0,0,0-.822-.066,1.85,1.85,0,0,0-1.868,1.063V18H43.264V9.019h1.926l.05,1a2.273,2.273,0,0,1,2.025-1.17,1.888,1.888,0,0,1,.714.116Zm5.229,7.3a4.173,4.173,0,0,1-3.109-1.208A4.381,4.381,0,0,1,48.9,13.742v-.249a5.389,5.389,0,0,1,.519-2.4,3.949,3.949,0,0,1,1.457-1.648,3.851,3.851,0,0,1,2.092-.589,3.525,3.525,0,0,1,2.835,1.17,4.949,4.949,0,0,1,1,3.312v.813H50.934a2.7,2.7,0,0,0,.743,1.76,2.23,2.23,0,0,0,1.639.647,2.731,2.731,0,0,0,2.258-1.121l1.087,1.038a3.631,3.631,0,0,1-1.44,1.249A4.509,4.509,0,0,1,53.2,18.166Zm-.241-7.695a1.7,1.7,0,0,0-1.341.581,3.012,3.012,0,0,0-.652,1.619H54.81v-.149a2.452,2.452,0,0,0-.54-1.531A1.686,1.686,0,0,0,52.959,10.471ZM63.4,15.56a.914.914,0,0,0-.444-.822,4.723,4.723,0,0,0-1.473-.5,7.574,7.574,0,0,1-1.718-.548,2.293,2.293,0,0,1-1.511-2.117,2.391,2.391,0,0,1,.979-1.942,3.872,3.872,0,0,1,2.49-.78,4.029,4.029,0,0,1,2.6.8,2.529,2.529,0,0,1,.992,2.067H63.3a1.243,1.243,0,0,0-.432-.967,1.654,1.654,0,0,0-1.146-.386,1.787,1.787,0,0,0-1.083.307.968.968,0,0,0-.419.822.818.818,0,0,0,.39.722,5.365,5.365,0,0,0,1.577.519,7.466,7.466,0,0,1,1.864.623,2.639,2.639,0,0,1,1,.867,2.212,2.212,0,0,1,.328,1.229,2.34,2.34,0,0,1-1,1.963,4.283,4.283,0,0,1-2.631.751,4.644,4.644,0,0,1-1.967-.4,3.238,3.238,0,0,1-1.345-1.1,2.594,2.594,0,0,1-.481-1.5h1.959a1.421,1.421,0,0,0,.54,1.1,2.1,2.1,0,0,0,1.32.386,2.04,2.04,0,0,0,1.212-.3A.938.938,0,0,0,63.4,15.56ZM71,13.426a5.3,5.3,0,0,1,.523-2.378,3.819,3.819,0,0,1,1.469-1.627,4.14,4.14,0,0,1,2.175-.569,3.923,3.923,0,0,1,2.951,1.17,4.6,4.6,0,0,1,1.224,3.1l.008.473a5.343,5.343,0,0,1-.51,2.374,3.773,3.773,0,0,1-1.461,1.619,4.17,4.17,0,0,1-2.2.573A3.9,3.9,0,0,1,72.138,16.9,4.848,4.848,0,0,1,71,13.526Zm2.017.174a3.619,3.619,0,0,0,.573,2.171,1.862,1.862,0,0,0,1.594.784,1.842,1.842,0,0,0,1.59-.8,4,4,0,0,0,.569-2.333,3.572,3.572,0,0,0-.585-2.158,1.973,1.973,0,0,0-3.158-.012A3.922,3.922,0,0,0,73.014,13.6Zm12.742-2.739a4.991,4.991,0,0,0-.822-.066,1.85,1.85,0,0,0-1.868,1.063V18H81.049V9.019h1.926l.05,1a2.273,2.273,0,0,1,2.025-1.17,1.888,1.888,0,0,1,.714.116Zm.921,2.582A5.253,5.253,0,0,1,87.66,10.1a3.157,3.157,0,0,1,2.611-1.249,2.958,2.958,0,0,1,2.416,1.071l.091-.9H94.6v8.708a3.619,3.619,0,0,1-1.1,2.789,4.189,4.189,0,0,1-2.968,1.021,4.783,4.783,0,0,1-1.93-.411,3.429,3.429,0,0,1-1.432-1.075l.955-1.212a2.883,2.883,0,0,0,2.291,1.1A2.228,2.228,0,0,0,92,19.4a2.084,2.084,0,0,0,.581-1.6v-.606a2.97,2.97,0,0,1-2.324.971,3.15,3.15,0,0,1-2.577-1.253A5.423,5.423,0,0,1,86.677,13.443Zm2.009.174a3.616,3.616,0,0,0,.552,2.129,1.775,1.775,0,0,0,1.531.776,1.941,1.941,0,0,0,1.81-1.046V11.525A1.913,1.913,0,0,0,90.786,10.5a1.782,1.782,0,0,0-1.548.789A4.049,4.049,0,0,0,88.686,13.617ZM102.033,18a3.113,3.113,0,0,1-.232-.838,3.393,3.393,0,0,1-4.565.232,2.47,2.47,0,0,1-.855-1.909,2.55,2.55,0,0,1,1.067-2.2,5.169,5.169,0,0,1,3.051-.768h1.237v-.589a1.573,1.573,0,0,0-.39-1.116,1.547,1.547,0,0,0-1.187-.419,1.777,1.777,0,0,0-1.129.344,1.066,1.066,0,0,0-.44.876H96.571a2.239,2.239,0,0,1,.49-1.382,3.263,3.263,0,0,1,1.332-1.009,4.68,4.68,0,0,1,1.88-.365,3.769,3.769,0,0,1,2.515.793,2.827,2.827,0,0,1,.963,2.229v4.051a4.591,4.591,0,0,0,.34,1.934V18Zm-2.216-1.453a2.294,2.294,0,0,0,1.125-.291,1.941,1.941,0,0,0,.793-.78V13.783h-1.087a2.973,2.973,0,0,0-1.685.39,1.264,1.264,0,0,0-.564,1.1,1.179,1.179,0,0,0,.386.926A1.5,1.5,0,0,0,99.817,16.547Zm7.919-7.529.058,1.038a3.229,3.229,0,0,1,2.615-1.2q2.806,0,2.855,3.212V18h-2.017V12.181a1.85,1.85,0,0,0-.369-1.266,1.554,1.554,0,0,0-1.208-.411,1.944,1.944,0,0,0-1.818,1.1V18h-2.017V9.019ZM117.464,18h-2.017V9.019h2.017ZM115.323,6.686a1.071,1.071,0,0,1,.295-.772,1.113,1.113,0,0,1,.843-.307,1.127,1.127,0,0,1,.847.307,1.062,1.062,0,0,1,.3.772,1.038,1.038,0,0,1-.3.76,1.136,1.136,0,0,1-.847.3,1.122,1.122,0,0,1-.843-.3A1.046,1.046,0,0,1,115.323,6.686Zm6.491,9.7H126.6V18h-7.288V16.68l4.557-6.035H119.39V9.019h7.031V10.3ZM133.576,18a3.113,3.113,0,0,1-.232-.838,3.393,3.393,0,0,1-4.565.232,2.47,2.47,0,0,1-.855-1.909,2.55,2.55,0,0,1,1.067-2.2,5.169,5.169,0,0,1,3.051-.768h1.237v-.589a1.573,1.573,0,0,0-.39-1.116,1.547,1.547,0,0,0-1.187-.419,1.777,1.777,0,0,0-1.129.344,1.066,1.066,0,0,0-.44.876h-2.017a2.239,2.239,0,0,1,.49-1.382,3.263,3.263,0,0,1,1.332-1.009,4.68,4.68,0,0,1,1.88-.365,3.769,3.769,0,0,1,2.515.793,2.827,2.827,0,0,1,.963,2.229v4.051a4.591,4.591,0,0,0,.34,1.934V18Zm-2.216-1.453a2.294,2.294,0,0,0,1.125-.291,1.941,1.941,0,0,0,.793-.78V13.783H132.19a2.973,2.973,0,0,0-1.685.39,1.264,1.264,0,0,0-.564,1.1,1.179,1.179,0,0,0,.386.926A1.5,1.5,0,0,0,131.36,16.547Zm9.737.008a1.824,1.824,0,0,0,1.253-.44,1.5,1.5,0,0,0,.531-1.087h1.9a2.963,2.963,0,0,1-.523,1.565,3.43,3.43,0,0,1-1.328,1.15,3.958,3.958,0,0,1-1.81.423,3.829,3.829,0,0,1-2.988-1.22,4.84,4.84,0,0,1-1.1-3.37v-.208a4.759,4.759,0,0,1,1.1-3.283,3.8,3.8,0,0,1,2.988-1.233,3.69,3.69,0,0,1,2.611.934,3.345,3.345,0,0,1,1.058,2.453h-1.9a1.847,1.847,0,0,0-.527-1.27,1.7,1.7,0,0,0-1.258-.5,1.775,1.775,0,0,0-1.511.71,3.621,3.621,0,0,0-.54,2.154v.324a3.682,3.682,0,0,0,.527,2.179A1.773,1.773,0,0,0,141.1,16.556ZM148.451,18h-2.017V9.019h2.017ZM146.31,6.686a1.07,1.07,0,0,1,.295-.772,1.113,1.113,0,0,1,.843-.307,1.127,1.127,0,0,1,.847.307,1.062,1.062,0,0,1,.3.772,1.038,1.038,0,0,1-.3.76,1.136,1.136,0,0,1-.847.3,1.122,1.122,0,0,1-.843-.3A1.046,1.046,0,0,1,146.31,6.686Zm3.959,6.74a5.3,5.3,0,0,1,.523-2.378,3.819,3.819,0,0,1,1.469-1.627,4.14,4.14,0,0,1,2.175-.569,3.923,3.923,0,0,1,2.951,1.17,4.6,4.6,0,0,1,1.224,3.1l.008.473a5.343,5.343,0,0,1-.51,2.374,3.773,3.773,0,0,1-1.461,1.619,4.17,4.17,0,0,1-2.2.573A3.9,3.9,0,0,1,151.41,16.9a4.848,4.848,0,0,1-1.141-3.374Zm2.017.174a3.619,3.619,0,0,0,.573,2.171,1.862,1.862,0,0,0,1.594.784,1.842,1.842,0,0,0,1.59-.8,4,4,0,0,0,.569-2.333,3.572,3.572,0,0,0-.585-2.158,1.973,1.973,0,0,0-3.158-.012A3.922,3.922,0,0,0,152.286,13.6ZM162.2,9.019l.058,1.038a3.229,3.229,0,0,1,2.615-1.2q2.806,0,2.855,3.212V18h-2.017V12.181a1.85,1.85,0,0,0-.369-1.266,1.554,1.554,0,0,0-1.208-.411,1.944,1.944,0,0,0-1.818,1.1V18H160.3V9.019ZM175.146,18a3.113,3.113,0,0,1-.232-.838,3.393,3.393,0,0,1-4.565.232,2.47,2.47,0,0,1-.855-1.909,2.55,2.55,0,0,1,1.067-2.2,5.169,5.169,0,0,1,3.051-.768h1.237v-.589a1.573,1.573,0,0,0-.39-1.116,1.547,1.547,0,0,0-1.187-.419,1.777,1.777,0,0,0-1.129.344,1.066,1.066,0,0,0-.44.876h-2.017a2.239,2.239,0,0,1,.49-1.382,3.263,3.263,0,0,1,1.332-1.009,4.68,4.68,0,0,1,1.88-.365,3.769,3.769,0,0,1,2.515.793,2.827,2.827,0,0,1,.963,2.229v4.051a4.591,4.591,0,0,0,.34,1.934V18Zm-2.216-1.453a2.294,2.294,0,0,0,1.125-.291,1.941,1.941,0,0,0,.793-.78V13.783H173.76a2.973,2.973,0,0,0-1.685.39,1.264,1.264,0,0,0-.564,1.1,1.179,1.179,0,0,0,.386.926A1.5,1.5,0,0,0,172.93,16.547ZM181.123,18h-2.017V5.25h2.017Zm6.151.166a4.173,4.173,0,0,1-3.109-1.208,4.381,4.381,0,0,1-1.191-3.217v-.249a5.389,5.389,0,0,1,.519-2.4,3.949,3.949,0,0,1,1.457-1.648,3.851,3.851,0,0,1,2.092-.589,3.525,3.525,0,0,1,2.835,1.17,4.949,4.949,0,0,1,1,3.312v.813h-5.869a2.7,2.7,0,0,0,.743,1.76,2.23,2.23,0,0,0,1.639.647,2.731,2.731,0,0,0,2.258-1.121l1.087,1.038a3.631,3.631,0,0,1-1.44,1.249A4.509,4.509,0,0,1,187.274,18.166Zm-.241-7.695a1.7,1.7,0,0,0-1.341.581,3.012,3.012,0,0,0-.652,1.619h3.843v-.149a2.452,2.452,0,0,0-.54-1.531A1.686,1.686,0,0,0,187.033,10.471Zm10.442,5.088a.914.914,0,0,0-.444-.822,4.723,4.723,0,0,0-1.473-.5,7.574,7.574,0,0,1-1.718-.548,2.293,2.293,0,0,1-1.511-2.117,2.391,2.391,0,0,1,.979-1.942,3.872,3.872,0,0,1,2.49-.78,4.029,4.029,0,0,1,2.6.8,2.529,2.529,0,0,1,.992,2.067h-2.017a1.243,1.243,0,0,0-.432-.967,1.654,1.654,0,0,0-1.146-.386,1.787,1.787,0,0,0-1.083.307.968.968,0,0,0-.419.822.818.818,0,0,0,.39.722,5.365,5.365,0,0,0,1.577.519,7.466,7.466,0,0,1,1.864.623,2.639,2.639,0,0,1,1,.867,2.212,2.212,0,0,1,.328,1.229,2.34,2.34,0,0,1-1,1.963,4.283,4.283,0,0,1-2.631.751,4.644,4.644,0,0,1-1.967-.4,3.238,3.238,0,0,1-1.345-1.1,2.594,2.594,0,0,1-.481-1.5h1.959a1.421,1.421,0,0,0,.54,1.1,2.1,2.1,0,0,0,1.32.386,2.04,2.04,0,0,0,1.212-.3A.938.938,0,0,0,197.476,15.56Z" transform="translate(1051 2267.244)" fill="#fff"/>
      <path id="Path_921155" data-name="Path 921155" d="M8.193,12.878H3.329V18h-2.1V5.914H8.907V7.607H3.329V11.2H8.193ZM15.456,18a3.113,3.113,0,0,1-.232-.838,3.14,3.14,0,0,1-2.357,1,3.169,3.169,0,0,1-2.208-.772A2.47,2.47,0,0,1,9.8,15.485a2.55,2.55,0,0,1,1.067-2.2,5.169,5.169,0,0,1,3.051-.768h1.237v-.589a1.573,1.573,0,0,0-.39-1.116,1.547,1.547,0,0,0-1.187-.419,1.777,1.777,0,0,0-1.129.344,1.066,1.066,0,0,0-.44.876H9.994a2.239,2.239,0,0,1,.49-1.382,3.263,3.263,0,0,1,1.332-1.009,4.68,4.68,0,0,1,1.88-.365,3.769,3.769,0,0,1,2.515.793,2.827,2.827,0,0,1,.963,2.229v4.051a4.591,4.591,0,0,0,.34,1.934V18ZM13.24,16.547a2.294,2.294,0,0,0,1.125-.291,1.941,1.941,0,0,0,.793-.78V13.783H14.07a2.973,2.973,0,0,0-1.685.39,1.264,1.264,0,0,0-.564,1.1,1.179,1.179,0,0,0,.386.926A1.5,1.5,0,0,0,13.24,16.547Zm9.737.008a1.824,1.824,0,0,0,1.253-.44,1.5,1.5,0,0,0,.531-1.087h1.9a2.963,2.963,0,0,1-.523,1.565,3.43,3.43,0,0,1-1.328,1.15,3.958,3.958,0,0,1-1.81.423,3.829,3.829,0,0,1-2.988-1.22,4.84,4.84,0,0,1-1.1-3.37v-.208A4.759,4.759,0,0,1,20,10.085a3.8,3.8,0,0,1,2.988-1.233,3.69,3.69,0,0,1,2.611.934,3.345,3.345,0,0,1,1.058,2.453h-1.9a1.847,1.847,0,0,0-.527-1.27,1.7,1.7,0,0,0-1.258-.5,1.775,1.775,0,0,0-1.511.71,3.621,3.621,0,0,0-.54,2.154v.324a3.682,3.682,0,0,0,.527,2.179A1.773,1.773,0,0,0,22.977,16.556Zm7.736-9.72V9.019H32.3v1.494H30.713v5.014a1.1,1.1,0,0,0,.2.743.943.943,0,0,0,.726.228,3.107,3.107,0,0,0,.706-.083v1.561a4.968,4.968,0,0,1-1.328.191q-2.324,0-2.324-2.565V10.513H27.218V9.019H28.7V6.835Zm2.5,6.591a5.3,5.3,0,0,1,.523-2.378A3.819,3.819,0,0,1,35.2,9.421a4.14,4.14,0,0,1,2.175-.569,3.923,3.923,0,0,1,2.951,1.17,4.6,4.6,0,0,1,1.224,3.1l.008.473a5.343,5.343,0,0,1-.51,2.374,3.773,3.773,0,0,1-1.461,1.619,4.17,4.17,0,0,1-2.2.573A3.9,3.9,0,0,1,34.353,16.9a4.848,4.848,0,0,1-1.141-3.374Zm2.017.174a3.619,3.619,0,0,0,.573,2.171,1.862,1.862,0,0,0,1.594.784,1.842,1.842,0,0,0,1.59-.8,4,4,0,0,0,.569-2.333,3.572,3.572,0,0,0-.585-2.158,1.973,1.973,0,0,0-3.158-.012A3.922,3.922,0,0,0,35.229,13.6ZM47.97,10.861a4.991,4.991,0,0,0-.822-.066,1.85,1.85,0,0,0-1.868,1.063V18H43.264V9.019h1.926l.05,1a2.273,2.273,0,0,1,2.025-1.17,1.888,1.888,0,0,1,.714.116Zm5.229,7.3a4.173,4.173,0,0,1-3.109-1.208A4.381,4.381,0,0,1,48.9,13.742v-.249a5.389,5.389,0,0,1,.519-2.4,3.949,3.949,0,0,1,1.457-1.648,3.851,3.851,0,0,1,2.092-.589,3.525,3.525,0,0,1,2.835,1.17,4.949,4.949,0,0,1,1,3.312v.813H50.934a2.7,2.7,0,0,0,.743,1.76,2.23,2.23,0,0,0,1.639.647,2.731,2.731,0,0,0,2.258-1.121l1.087,1.038a3.631,3.631,0,0,1-1.44,1.249A4.509,4.509,0,0,1,53.2,18.166Zm-.241-7.695a1.7,1.7,0,0,0-1.341.581,3.012,3.012,0,0,0-.652,1.619H54.81v-.149a2.452,2.452,0,0,0-.54-1.531A1.686,1.686,0,0,0,52.959,10.471ZM63.4,15.56a.914.914,0,0,0-.444-.822,4.723,4.723,0,0,0-1.473-.5,7.574,7.574,0,0,1-1.718-.548,2.293,2.293,0,0,1-1.511-2.117,2.391,2.391,0,0,1,.979-1.942,3.872,3.872,0,0,1,2.49-.78,4.029,4.029,0,0,1,2.6.8,2.529,2.529,0,0,1,.992,2.067H63.3a1.243,1.243,0,0,0-.432-.967,1.654,1.654,0,0,0-1.146-.386,1.787,1.787,0,0,0-1.083.307.968.968,0,0,0-.419.822.818.818,0,0,0,.39.722,5.365,5.365,0,0,0,1.577.519,7.466,7.466,0,0,1,1.864.623,2.639,2.639,0,0,1,1,.867,2.212,2.212,0,0,1,.328,1.229,2.34,2.34,0,0,1-1,1.963,4.283,4.283,0,0,1-2.631.751,4.644,4.644,0,0,1-1.967-.4,3.238,3.238,0,0,1-1.345-1.1,2.594,2.594,0,0,1-.481-1.5h1.959a1.421,1.421,0,0,0,.54,1.1,2.1,2.1,0,0,0,1.32.386,2.04,2.04,0,0,0,1.212-.3A.938.938,0,0,0,63.4,15.56ZM73.9,6.835V9.019h1.585v1.494H73.9v5.014a1.1,1.1,0,0,0,.2.743.943.943,0,0,0,.726.228,3.107,3.107,0,0,0,.706-.083v1.561a4.968,4.968,0,0,1-1.328.191q-2.324,0-2.324-2.565V10.513H70.407V9.019h1.478V6.835Zm7.081,11.331a4.173,4.173,0,0,1-3.109-1.208,4.381,4.381,0,0,1-1.191-3.217v-.249a5.389,5.389,0,0,1,.519-2.4,3.949,3.949,0,0,1,1.457-1.648,3.851,3.851,0,0,1,2.092-.589,3.525,3.525,0,0,1,2.835,1.17,4.949,4.949,0,0,1,1,3.312v.813H78.716a2.7,2.7,0,0,0,.743,1.76,2.23,2.23,0,0,0,1.639.647,2.731,2.731,0,0,0,2.258-1.121l1.087,1.038A3.631,3.631,0,0,1,83,17.722,4.509,4.509,0,0,1,80.982,18.166Zm-.241-7.695a1.7,1.7,0,0,0-1.341.581,3.012,3.012,0,0,0-.652,1.619h3.843v-.149a2.452,2.452,0,0,0-.54-1.531A1.686,1.686,0,0,0,80.742,10.471ZM81.2,5.25h2.3L81.2,7.765l-1.619,0Zm8.641,11.306a1.824,1.824,0,0,0,1.253-.44,1.5,1.5,0,0,0,.531-1.087h1.9A2.963,2.963,0,0,1,93,16.593a3.43,3.43,0,0,1-1.328,1.15,3.958,3.958,0,0,1-1.81.423,3.829,3.829,0,0,1-2.988-1.22,4.84,4.84,0,0,1-1.1-3.37v-.208a4.759,4.759,0,0,1,1.1-3.283,3.8,3.8,0,0,1,2.988-1.233,3.69,3.69,0,0,1,2.611.934,3.345,3.345,0,0,1,1.058,2.453h-1.9a1.847,1.847,0,0,0-.527-1.27,1.7,1.7,0,0,0-1.258-.5,1.775,1.775,0,0,0-1.511.71,3.621,3.621,0,0,0-.54,2.154v.324a3.681,3.681,0,0,0,.527,2.179A1.774,1.774,0,0,0,89.839,16.556ZM96.92,9.019l.058,1.038a3.229,3.229,0,0,1,2.615-1.2q2.806,0,2.855,3.212V18h-2.017V12.181a1.85,1.85,0,0,0-.369-1.266,1.554,1.554,0,0,0-1.208-.411,1.944,1.944,0,0,0-1.818,1.1V18H95.019V9.019ZM106.648,18h-2.017V9.019h2.017ZM104.507,6.686a1.071,1.071,0,0,1,.295-.772,1.113,1.113,0,0,1,.843-.307,1.127,1.127,0,0,1,.847.307,1.062,1.062,0,0,1,.3.772,1.038,1.038,0,0,1-.3.76,1.136,1.136,0,0,1-.847.3,1.122,1.122,0,0,1-.843-.3A1.046,1.046,0,0,1,104.507,6.686Zm8.027,9.87a1.824,1.824,0,0,0,1.253-.44,1.5,1.5,0,0,0,.531-1.087h1.9a2.963,2.963,0,0,1-.523,1.565,3.43,3.43,0,0,1-1.328,1.15,3.958,3.958,0,0,1-1.81.423,3.829,3.829,0,0,1-2.988-1.22,4.84,4.84,0,0,1-1.1-3.37v-.208a4.759,4.759,0,0,1,1.1-3.283,3.8,3.8,0,0,1,2.988-1.233,3.69,3.69,0,0,1,2.611.934,3.345,3.345,0,0,1,1.058,2.453h-1.9a1.847,1.847,0,0,0-.527-1.27,1.7,1.7,0,0,0-1.258-.5,1.775,1.775,0,0,0-1.511.71,3.621,3.621,0,0,0-.54,2.154v.324a3.681,3.681,0,0,0,.527,2.179A1.774,1.774,0,0,0,112.534,16.556Zm4.831-3.129a5.3,5.3,0,0,1,.523-2.378,3.819,3.819,0,0,1,1.469-1.627,4.14,4.14,0,0,1,2.175-.569,3.923,3.923,0,0,1,2.951,1.17,4.6,4.6,0,0,1,1.224,3.1l.008.473a5.343,5.343,0,0,1-.51,2.374,3.773,3.773,0,0,1-1.461,1.619,4.17,4.17,0,0,1-2.2.573,3.9,3.9,0,0,1-3.042-1.266,4.848,4.848,0,0,1-1.141-3.374Zm2.017.174a3.619,3.619,0,0,0,.573,2.171,1.862,1.862,0,0,0,1.594.784,1.842,1.842,0,0,0,1.59-.8,4,4,0,0,0,.569-2.333,3.572,3.572,0,0,0-.585-2.158,1.973,1.973,0,0,0-3.158-.012A3.922,3.922,0,0,0,119.382,13.6Zm13.074,1.959a.914.914,0,0,0-.444-.822,4.723,4.723,0,0,0-1.473-.5,7.574,7.574,0,0,1-1.718-.548,2.293,2.293,0,0,1-1.511-2.117,2.391,2.391,0,0,1,.979-1.942,3.872,3.872,0,0,1,2.49-.78,4.029,4.029,0,0,1,2.6.8,2.529,2.529,0,0,1,.992,2.067h-2.017a1.243,1.243,0,0,0-.432-.967,1.654,1.654,0,0,0-1.146-.386,1.787,1.787,0,0,0-1.083.307.968.968,0,0,0-.419.822.818.818,0,0,0,.39.722,5.365,5.365,0,0,0,1.577.519,7.466,7.466,0,0,1,1.864.623,2.639,2.639,0,0,1,1,.867,2.212,2.212,0,0,1,.328,1.229,2.34,2.34,0,0,1-1,1.963,4.283,4.283,0,0,1-2.631.751,4.644,4.644,0,0,1-1.967-.4,3.238,3.238,0,0,1-1.345-1.1,2.594,2.594,0,0,1-.481-1.5h1.959a1.421,1.421,0,0,0,.54,1.1,2.1,2.1,0,0,0,1.32.386,2.04,2.04,0,0,0,1.212-.3A.938.938,0,0,0,132.456,15.56Z" transform="translate(381.789 2159.756)" fill="#fff"/>
      <path id="Path_921156" data-name="Path 921156" d="M8,0A8,8,0,1,1,0,8,8,8,0,0,1,8,0Z" transform="translate(623 2047)" fill="#3a2292"/>
      <path id="Path_921157" data-name="Path 921157" d="M8,0A8,8,0,1,1,0,8,8,8,0,0,1,8,0Z" transform="translate(879 2012.756)" fill="#3a2292"/>
      <path id="Path_921158" data-name="Path 921158" d="M8,0A8,8,0,1,1,0,8,8,8,0,0,1,8,0Z" transform="translate(1051 2152.756)" fill="#3a2292"/>
      <path id="Path_921159" data-name="Path 921159" d="M8,0A8,8,0,1,1,0,8,8,8,0,0,1,8,0Z" transform="translate(774 2309.162)" fill="#3a2292"/>
      <path id="Path_921160" data-name="Path 921160" d="M8,0A8,8,0,1,1,0,8,8,8,0,0,1,8,0Z" transform="translate(662.711 2202)" fill="#3a2292"/>
    </g>
  </g>
</svg>
