<svg xmlns="http://www.w3.org/2000/svg" xmlns:xlink="http://www.w3.org/1999/xlink" width="104.668" height="126" viewBox="0 0 104.668 126">
  <defs>
    <clipPath id="clip-path">
      <rect id="Rectangle_407408" data-name="Rectangle 407408" width="73" height="73" transform="translate(275.328 9379.664)" fill="#fff" stroke="#707070" stroke-width="1"/>
    </clipPath>
    <clipPath id="clip-path-2">
      <rect id="Rectangle_407405" data-name="Rectangle 407405" width="63.475" height="70.682" fill="#fff" stroke="#3d034b" stroke-width="3"/>
    </clipPath>
    <clipPath id="clip-path-3">
      <rect id="Rectangle_407407" data-name="Rectangle 407407" width="42.467" height="44.002" transform="translate(-0.301 -0.045)" fill="#3a2292" stroke="#707070" stroke-width="1"/>
    </clipPath>
    <clipPath id="clip-path-4">
      <rect id="Rectangle_407891" data-name="Rectangle 407891" width="39.087" height="39.23" fill="#3a2292"/>
    </clipPath>
  </defs>
  <g id="Group_1114997" data-name="Group 1114997" transform="translate(-179.979 -1727.816)">
    <rect id="Rectangle_407397" data-name="Rectangle 407397" width="104.668" height="126" transform="translate(179.979 1727.816)" fill="#3a2292"/>
    <g id="Mask_Group_1110960" data-name="Mask Group 1110960" transform="translate(-79.35 -7625.348)" clip-path="url(#clip-path)">
      <g id="Group_1114488" data-name="Group 1114488" transform="translate(280.131 9380.624)" clip-path="url(#clip-path-2)">
        <path id="Path_918649" data-name="Path 918649" d="M27.452,63.948A42.13,42.13,0,0,1,6.56,49.078,35.558,35.558,0,0,1,.011,31.658C0,31.568,0,31.482,0,31.392V10.025a3.181,3.181,0,0,1,2.824-3.04C10.9,5.713,22.791,1.815,27.528.2a3.73,3.73,0,0,1,2.393,0C33.635,1.458,46.4,5.675,54.771,6.987a3.179,3.179,0,0,1,2.825,3.04V31.391c0,.09,0,.176-.013.264A35.552,35.552,0,0,1,51.037,49.08c-6.024,8.366-16.761,13.146-21.1,14.814a3.7,3.7,0,0,1-2.488.057" transform="translate(2.939 3.272)" fill="#fff" stroke="#ff85e7" stroke-width="3"/>
      </g>
      <g id="Mask_Group_1110959" data-name="Mask Group 1110959" transform="translate(291.362 9392.394)" clip-path="url(#clip-path-3)">
        <g id="Group_1114870" data-name="Group 1114870" transform="translate(1.699 1.955)">
          <g id="Group_1114869" data-name="Group 1114869" clip-path="url(#clip-path-4)">
            <path id="Path_920896" data-name="Path 920896" d="M3.4,15.241A3.3,3.3,0,0,1,1.09,12.824C.493,9.808.617,6.341.009,3.286A3.192,3.192,0,0,1,3.167.128c5.231-.41,10.985.319,16.271,0A3.183,3.183,0,0,1,22.43,1.979c.492,1.15.154,2.05.059,3.228H36.5c1.184,0,2.634,1.759,2.583,2.953-.545,3.055-.5,6.4-1.039,9.432a3.067,3.067,0,0,1-2.815,2.721l-9.778.025c-.959.7-1.638,1.951-2.734,2.4v3.229h3.114v1.845h5.075V25.966h7.5v5.075H35.291v2.422h3.114v5.075h-7.5V36.692H25.834v1.845h-7.5V33.463h3.114V31.041H18.338V29.253l-.173-.173H11.418v7.612H7.612v2.537H.173L0,39.056v-6.17H7.612v2.537h2.537V29.08H7.612v2.537H0V25.39H7.612v2.422h2.537V21.584H7.612v2.537H.173L0,23.948v-6.17H7.612v2.537h2.537V15.241Zm12.4-1.269h3.4c.351,0,1.222-.916,1.179-1.358l1.079-9.425A1.889,1.889,0,0,0,19.553,1.4C14.271,1.759,8.376.93,3.167,1.4a1.905,1.905,0,0,0-1.9,1.791c.392,2.4.5,4.852.81,7.266.112.878.15,2.349.691,3,.119.143.249.322.461.289v-1.9a8.964,8.964,0,0,1,.325-.944A5.617,5.617,0,0,1,6.11,8.148a3.135,3.135,0,1,1,4.271,0A5.38,5.38,0,0,1,13.249,12.2a12.842,12.842,0,0,0,.074,2.233,17.7,17.7,0,0,0,2.189,2.083l.289-.177ZM7.929,3.965C5.03,4.428,6.617,8.98,9.152,7.5A1.9,1.9,0,0,0,7.929,3.965M35.868,18.816a1.947,1.947,0,0,0,.9-1.239c.639-2.83.411-6.326,1.057-9.217a1.858,1.858,0,0,0-1.282-1.806L22.391,6.492c-.352,1.738-.349,3.572-.607,5.333-.3,2.05-1,3.482-3.331,3.416.162.985-.018,2.619.751,3.344a3.291,3.291,0,0,0,.806.463h2.018c.131.772-.312,1.982.3,2.531.318.052,2.142-2.272,2.583-2.472a2.622,2.622,0,0,1,.921-.06v-1.9a8.23,8.23,0,0,1,.406-1.324,4.977,4.977,0,0,1,2.477-2.542c-.114-.415-.555-.689-.749-1.151a3.17,3.17,0,1,1,5.017,1.152,4.742,4.742,0,0,1,2.369,2.188,9.818,9.818,0,0,1,.514,1.446ZM4.5,11.954c-.093.6.068,1.394,0,2.018h7.5V12.184c0-1.139-1.431-2.6-2.458-2.963C7.5,8.5,4.841,9.756,4.5,11.954M30.416,9.04a1.961,1.961,0,0,0-1.443,2.077,1.91,1.91,0,0,0,2.966,1.29A1.878,1.878,0,0,0,30.416,9.04M34.6,19.046V17.028c0-1.118-1.648-2.561-2.674-2.862-1.959-.575-4.823.937-4.823,3.093v1.788ZM11.418,15.241V27.812h6.92V25.966h3.114v-3.4c0-.033-.359-.334-.444-.479a3.274,3.274,0,0,1-.247-1.771,3.014,3.014,0,0,1-2.247-.694c-1.358-1.1-1.128-2.8-1.33-4.379l-.14,1.3a1.557,1.557,0,0,1-2.617.823c-.558-.4-1.662-1.872-2.088-2.064a2.627,2.627,0,0,0-.921-.06M6.343,19.046H1.269v3.806H6.343Zm0,7.612c-.113.037-.25-.115-.288-.115H1.442l-.173.173v3.633H6.343Zm18.222.577H19.606v2.537h4.959Zm12.571,0H32.177v2.537h4.959ZM30.909,29.08H25.834v1.961H22.72v2.422h3.114v1.961h5.075V33.463h3.114V31.041H30.909ZM6.343,34.155H1.269v3.633l.173.173h4.9Zm18.222.577H19.606v2.537h4.959Zm12.571,0H32.177v2.537h4.959Z" transform="translate(0 0.001)" fill="#3a2292"/>
            <rect id="Rectangle_407883" data-name="Rectangle 407883" width="6.343" height="1.269" transform="translate(13.84 2.67)" fill="#3a2292"/>
            <rect id="Rectangle_407884" data-name="Rectangle 407884" width="6.343" height="1.269" transform="translate(13.84 5.207)" fill="#3a2292"/>
            <rect id="Rectangle_407885" data-name="Rectangle 407885" width="1.27" height="1.27" transform="translate(13.839 7.744)" fill="#3a2292"/>
            <rect id="Rectangle_407886" data-name="Rectangle 407886" width="1.27" height="1.27" transform="translate(16.376 7.744)" fill="#3a2292"/>
            <rect id="Rectangle_407887" data-name="Rectangle 407887" width="1.27" height="1.27" transform="translate(18.914 7.744)" fill="#3a2292"/>
            <rect id="Rectangle_407888" data-name="Rectangle 407888" width="2.537" height="1.269" transform="translate(2.537 20.316)" fill="#3a2292"/>
            <rect id="Rectangle_407889" data-name="Rectangle 407889" width="2.537" height="1.269" transform="translate(2.537 35.424)" fill="#3a2292"/>
            <rect id="Rectangle_407890" data-name="Rectangle 407890" width="2.537" height="1.269" transform="translate(2.537 27.812)" fill="#3a2292"/>
          </g>
        </g>
      </g>
    </g>
  </g>
</svg>
