<svg xmlns="http://www.w3.org/2000/svg" xmlns:xlink="http://www.w3.org/1999/xlink" width="400" height="325" viewBox="0 0 400 325">
  <defs>
    <clipPath id="clip-path">
      <path id="Path_611005" data-name="Path 611005" d="M0,0H400V324H0Z" fill="#eae5ff"/>
    </clipPath>
    <radialGradient id="radial-gradient" cx="0.5" cy="0.5" r="0.5" gradientUnits="objectBoundingBox">
      <stop offset="0" stop-color="#9d0388"/>
      <stop offset="1" stop-color="#ff85e7"/>
    </radialGradient>
  </defs>
  <g id="Group_1114996" data-name="Group 1114996" transform="translate(-7370 10551)">
    <g id="Group_1114320" data-name="Group 1114320" transform="translate(8055 -9779.5) rotate(180)">
      <path id="Path_608309" data-name="Path 608309" d="M0,0H400V324H0Z" transform="translate(285 446.5)" fill="#eae5ff"/>
    </g>
    <g id="Group_1114322" data-name="Group 1114322" transform="translate(7082.109 -12119.445)">
      <path id="Path_918595" data-name="Path 918595" d="M1649.834,18.663h130.85c3.958,0,7.167,2.159,7.167,4.821V59.567c0,2.663-3.209,4.821-7.167,4.821h-130.85c-3.958,0-7.167-2.159-7.167-4.821V23.484c0-2.663,3.208-4.821,7.167-4.821" transform="translate(-1145.667 1799.233)" fill="#3a2292"/>
      <path id="Path_918480" data-name="Path 918480" d="M1649.834,18.663h130.85c3.958,0,7.167,2.159,7.167,4.821V59.567c0,2.663-3.209,4.821-7.167,4.821h-130.85c-3.958,0-7.167-2.159-7.167-4.821V23.484c0-2.663,3.208-4.821,7.167-4.821" transform="translate(-1147.667 1591.546)" fill="#3a2292"/>
      <path id="Path_921157" data-name="Path 921157" d="M10.367,0H7.641V-4.75H3.6V0H.859V-11.375H3.6v4.516H7.641v-4.516h2.727Zm6.375,0a2.973,2.973,0,0,1-.25-.758,2.448,2.448,0,0,1-2.031.914A3,3,0,0,1,12.43-.566a2.3,2.3,0,0,1-.836-1.816,2.364,2.364,0,0,1,1.016-2.078,5.174,5.174,0,0,1,2.953-.7h.813v-.448q0-1.17-1.008-1.17a.824.824,0,0,0-.937.926H11.8a2.36,2.36,0,0,1,1.043-1.99,4.383,4.383,0,0,1,2.66-.765,3.843,3.843,0,0,1,2.555.789,2.743,2.743,0,0,1,.961,2.164v3.742a3.832,3.832,0,0,0,.359,1.781V0ZM15.094-1.719a1.469,1.469,0,0,0,.816-.211,1.322,1.322,0,0,0,.465-.477V-3.758h-.766q-1.375,0-1.375,1.234a.754.754,0,0,0,.242.582A.876.876,0,0,0,15.094-1.719Zm8.953-.156a1.171,1.171,0,0,0,.859-.3,1.1,1.1,0,0,0,.3-.84h2.469a2.922,2.922,0,0,1-1,2.281,3.705,3.705,0,0,1-2.566.891A3.751,3.751,0,0,1,21.2-1a4.556,4.556,0,0,1-1.062-3.2v-.109a5.149,5.149,0,0,1,.473-2.262,3.441,3.441,0,0,1,1.363-1.508,4.065,4.065,0,0,1,2.109-.527A3.658,3.658,0,0,1,26.7-7.7a3.242,3.242,0,0,1,.969,2.477H25.2a1.445,1.445,0,0,0-.32-1.008,1.106,1.106,0,0,0-.859-.352q-1.023,0-1.2,1.3a9.206,9.206,0,0,0-.055,1.141,3.616,3.616,0,0,0,.3,1.766A1.055,1.055,0,0,0,24.047-1.875ZM32.875.156A4.345,4.345,0,0,1,29.727-1a4.006,4.006,0,0,1-1.2-3.02v-.219A5.191,5.191,0,0,1,29-6.531a3.516,3.516,0,0,1,1.4-1.535,4.233,4.233,0,0,1,2.188-.543A3.659,3.659,0,0,1,35.406-7.5a4.344,4.344,0,0,1,1.031,3.082V-3.4H31.2a1.9,1.9,0,0,0,.617,1.117,1.836,1.836,0,0,0,1.234.406,2.366,2.366,0,0,0,1.953-.875l1.2,1.422A3.363,3.363,0,0,1,34.816-.246,4.713,4.713,0,0,1,32.875.156Zm-.3-6.734q-1.156,0-1.375,1.531h2.656v-.2a1.3,1.3,0,0,0-.32-.98A1.275,1.275,0,0,0,32.578-6.578Zm10.031.508-.867-.062a1.558,1.558,0,0,0-1.594.781V0H37.516V-8.453h2.469l.086,1.086a2.039,2.039,0,0,1,1.852-1.242,2.567,2.567,0,0,1,.734.094Z" transform="translate(549 1636.064)" fill="#fff"/>
      <path id="Path_918482" data-name="Path 918482" d="M249.647,18.663H387.89c3.855,0,6.98,2.341,6.98,5.23v39.14c0,2.888-3.125,5.23-6.98,5.23H249.647c-3.855,0-6.98-2.342-6.98-5.23V23.893c0-2.888,3.125-5.23,6.98-5.23" transform="translate(95.13 1590.406)" fill="#3a2292"/>
      <path id="Path_918596" data-name="Path 918596" d="M249.647,18.663H387.89c3.855,0,6.98,2.341,6.98,5.23v39.14c0,2.888-3.125,5.23-6.98,5.23H249.647c-3.855,0-6.98-2.342-6.98-5.23V23.893c0-2.888,3.125-5.23,6.98-5.23" transform="translate(95.13 1794.981)" fill="#3a2292"/>
      <g id="Group_1114321" data-name="Group 1114321" transform="translate(6.008 25.999)">
        <path id="Path_918483" data-name="Path 918483" d="M908.391,565.453h-72.5a98,98,0,0,0,95.737,95.737V587.022a25.811,25.811,0,0,1-23.237-21.569" transform="translate(-445.891 1145.59)" fill="#3d034b"/>
        <path id="Path_918484" data-name="Path 918484" d="M1396.909,565.453a25.814,25.814,0,0,1-22.493,21.495V661.19a98,98,0,0,0,95.737-95.737Z" transform="translate(-884.161 1145.491)" fill="#7d0ede"/>
        <path id="Path_918485" data-name="Path 918485" d="M1395.314,122.623h72.669a98,98,0,0,0-96.233-95.746V97.25a25.8,25.8,0,0,1,23.564,25.373" transform="translate(-882.136 1584.154)" fill="#6bfcf2"/>
        <path id="Path_918486" data-name="Path 918486" d="M931.133,97.367V26.994a98,98,0,0,0-95.241,95.725h71.924a25.8,25.8,0,0,1,23.316-25.351" transform="translate(-445.892 1583.859)" fill="#ffa8fb"/>
        <text id="P" transform="translate(440.582 1676.392)" font-size="35" font-family="Roboto-Bold, Roboto" font-weight="700"><tspan x="0" y="0">P</tspan></text>
        <text id="H" transform="translate(520.357 1673.616)" fill="#12263f" font-size="35" font-family="Roboto-Bold, Roboto" font-weight="700"><tspan x="0" y="0">H</tspan></text>
        <text id="A" transform="translate(437.868 1768.377)" fill="#fff" font-size="35" font-family="Roboto-Bold, Roboto" font-weight="700"><tspan x="0" y="0">A</tspan></text>
        <text id="V" transform="translate(521.638 1768.765)" fill="#fff" font-size="35" font-family="Roboto-Bold, Roboto" font-weight="700"><tspan x="0" y="0">V</tspan></text>
        <path id="Path_918487" data-name="Path 918487" d="M1261.458,458.864a16.232,16.232,0,0,1,27.931-11.25l-2.113,1.987,8.193,2.467-1.96-8.33-1.691,1.59a19.566,19.566,0,0,0-33.7,13.535,1.668,1.668,0,0,0,3.335,0" transform="translate(-789.56 1248.271)" fill="#9d0388"/>
        <path id="Path_918488" data-name="Path 918488" d="M1299.18,530.711a1.668,1.668,0,0,0-1.667,1.668,16.232,16.232,0,0,1-27.931,11.25l2.113-1.987-8.194-2.467,1.96,8.33,1.691-1.591a19.566,19.566,0,0,0,33.7-13.535,1.668,1.668,0,0,0-1.668-1.668" transform="translate(-793.936 1173.868)" fill="#9d0388"/>
      </g>
      <path id="Path_921158" data-name="Path 921158" d="M3.6-3.859V0H.859V-11.375H5.4a5.287,5.287,0,0,1,2.309.48A3.621,3.621,0,0,1,9.262-9.527a3.734,3.734,0,0,1,.551,2.012,3.291,3.291,0,0,1-1.191,2.66,4.943,4.943,0,0,1-3.27,1Zm0-2.117H5.4a1.7,1.7,0,0,0,1.215-.4A1.48,1.48,0,0,0,7.031-7.5,1.83,1.83,0,0,0,6.6-8.773,1.522,1.522,0,0,0,5.43-9.258H3.6ZM13.93,0H11.289V-12H13.93Zm6.383,0a2.973,2.973,0,0,1-.25-.758,2.448,2.448,0,0,1-2.031.914A3,3,0,0,1,16-.566a2.3,2.3,0,0,1-.836-1.816A2.364,2.364,0,0,1,16.18-4.461a5.174,5.174,0,0,1,2.953-.7h.813v-.448q0-1.17-1.008-1.17A.824.824,0,0,0,18-5.855H15.367a2.36,2.36,0,0,1,1.043-1.99,4.383,4.383,0,0,1,2.66-.765,3.843,3.843,0,0,1,2.555.789,2.743,2.743,0,0,1,.961,2.164v3.742a3.832,3.832,0,0,0,.359,1.781V0ZM18.664-1.719a1.469,1.469,0,0,0,.816-.211,1.322,1.322,0,0,0,.465-.477V-3.758H19.18q-1.375,0-1.375,1.234a.754.754,0,0,0,.242.582A.876.876,0,0,0,18.664-1.719Zm7.8-6.734.086.992a2.867,2.867,0,0,1,2.414-1.148,2.412,2.412,0,0,1,1.973.789,3.757,3.757,0,0,1,.676,2.375V0H28.969V-5.336a1.426,1.426,0,0,0-.258-.941,1.193,1.193,0,0,0-.937-.3,1.256,1.256,0,0,0-1.148.609V0H23.992V-8.453ZM37.156.156A4.345,4.345,0,0,1,34.008-1a4.006,4.006,0,0,1-1.2-3.02v-.219a5.191,5.191,0,0,1,.48-2.289,3.516,3.516,0,0,1,1.4-1.535,4.233,4.233,0,0,1,2.188-.543A3.659,3.659,0,0,1,39.688-7.5a4.344,4.344,0,0,1,1.031,3.082V-3.4H35.484A1.9,1.9,0,0,0,36.1-2.281a1.836,1.836,0,0,0,1.234.406,2.366,2.366,0,0,0,1.953-.875l1.2,1.422A3.363,3.363,0,0,1,39.1-.246,4.713,4.713,0,0,1,37.156.156Zm-.3-6.734q-1.156,0-1.375,1.531h2.656v-.2a1.3,1.3,0,0,0-.32-.98A1.275,1.275,0,0,0,36.859-6.578ZM46.539,0a2.973,2.973,0,0,1-.25-.758,2.448,2.448,0,0,1-2.031.914,3,3,0,0,1-2.031-.723,2.3,2.3,0,0,1-.836-1.816,2.364,2.364,0,0,1,1.016-2.078,5.174,5.174,0,0,1,2.953-.7h.813v-.448q0-1.17-1.008-1.17a.824.824,0,0,0-.937.926H41.594a2.36,2.36,0,0,1,1.043-1.99,4.383,4.383,0,0,1,2.66-.765,3.843,3.843,0,0,1,2.555.789,2.743,2.743,0,0,1,.961,2.164v3.742a3.832,3.832,0,0,0,.359,1.781V0ZM44.891-1.719a1.469,1.469,0,0,0,.816-.211,1.322,1.322,0,0,0,.465-.477V-3.758h-.766q-1.375,0-1.375,1.234a.754.754,0,0,0,.242.582A.876.876,0,0,0,44.891-1.719ZM55.383-6.07l-.867-.062a1.558,1.558,0,0,0-1.594.781V0H50.289V-8.453h2.469l.086,1.086A2.039,2.039,0,0,1,54.7-8.609a2.567,2.567,0,0,1,.734.094Z" transform="translate(390 1636.669)" fill="#fff"/>
      <g id="Group_1114317" data-name="Group 1114317" transform="translate(296.891 1597.444)">
        <path id="Path_918489" data-name="Path 918489" d="M77.833,36.245A36.249,36.249,0,1,1,41.583,0,36.249,36.249,0,0,1,77.833,36.245" transform="translate(-4.433 0.004)" fill="url(#radial-gradient)"/>
        <path id="Path_918493" data-name="Path 918493" d="M177.03,165.486H142.09l-5.367-24.414h34.941Z" transform="translate(-113.635 -117.25)" fill="#3681b0"/>
        <path id="Path_918494" data-name="Path 918494" d="M104.934,165.486h34.941l5.367-24.414H110.3Z" transform="translate(-87.214 -117.25)" fill="#5bb2e2"/>
        <path id="Path_918495" data-name="Path 918495" d="M139.211,165.648h4.762l.732-3.328h-4.762Z" transform="translate(-115.703 -134.91)" fill="#d8e6e7"/>
        <path id="Path_918496" data-name="Path 918496" d="M126.982,221.272h4.762l.732-3.328h-4.762Z" transform="translate(-105.539 -181.141)" fill="#d8e6e7"/>
        <path id="Path_918497" data-name="Path 918497" d="M133.1,193.462h4.763l.731-3.327h-4.762Z" transform="translate(-110.622 -158.027)" fill="#d8e6e7"/>
        <path id="Path_918498" data-name="Path 918498" d="M178.2,165.648h4.763l.731-3.328h-4.762Z" transform="translate(-148.11 -134.91)" fill="#d8e6e7"/>
        <path id="Path_918499" data-name="Path 918499" d="M165.972,221.272h4.762l.732-3.328H166.7Z" transform="translate(-137.946 -181.141)" fill="#d8e6e7"/>
        <path id="Path_918500" data-name="Path 918500" d="M172.088,193.462h4.763l.731-3.327h-4.762Z" transform="translate(-143.028 -158.027)" fill="#d8e6e7"/>
        <path id="Path_918501" data-name="Path 918501" d="M159.859,249.085h4.763l.731-3.327H160.59Z" transform="translate(-132.864 -204.258)" fill="#d8e6e7"/>
        <path id="Path_918502" data-name="Path 918502" d="M217.192,165.648h4.763l.731-3.328h-4.762Z" transform="translate(-180.516 -134.91)" fill="#d8e6e7"/>
        <path id="Path_918503" data-name="Path 918503" d="M204.963,221.272h4.762l.732-3.328h-4.762Z" transform="translate(-170.352 -181.141)" fill="#d8e6e7"/>
        <path id="Path_918504" data-name="Path 918504" d="M211.078,193.462h4.763l.731-3.327H211.81Z" transform="translate(-175.435 -158.027)" fill="#d8e6e7"/>
        <path id="Path_918505" data-name="Path 918505" d="M198.848,249.085h4.762l.732-3.327h-4.763Z" transform="translate(-165.269 -204.258)" fill="#d8e6e7"/>
        <path id="Path_918506" data-name="Path 918506" d="M256.182,165.648h4.763l.731-3.328h-4.762Z" transform="translate(-212.922 -134.91)" fill="#d8e6e7"/>
        <path id="Path_918507" data-name="Path 918507" d="M243.952,221.272h4.762l.732-3.328h-4.762Z" transform="translate(-202.757 -181.141)" fill="#d8e6e7"/>
        <path id="Path_918508" data-name="Path 918508" d="M250.067,193.462h4.762l.732-3.327H250.8Z" transform="translate(-207.84 -158.027)" fill="#d8e6e7"/>
        <path id="Path_918509" data-name="Path 918509" d="M237.838,249.085H242.6l.732-3.327H238.57Z" transform="translate(-197.676 -204.258)" fill="#d8e6e7"/>
        <path id="Path_918510" data-name="Path 918510" d="M282.944,221.272h4.763l.731-3.328h-4.762Z" transform="translate(-235.165 -181.141)" fill="#d8e6e7"/>
        <path id="Path_918511" data-name="Path 918511" d="M289.061,193.462h4.762l.732-3.327h-4.763Z" transform="translate(-240.249 -158.027)" fill="#d8e6e7"/>
        <path id="Path_918512" data-name="Path 918512" d="M276.829,249.085h4.762l.732-3.327H277.56Z" transform="translate(-230.082 -204.258)" fill="#d8e6e7"/>
        <path id="Path_918513" data-name="Path 918513" d="M168.145,118.569a.507.507,0,0,1-.546.456h-1.42a.507.507,0,0,1-.546-.456v-6.137a.507.507,0,0,1,.546-.456h1.42a.507.507,0,0,1,.546.456Z" transform="translate(-137.663 -93.067)" fill="#f08f35"/>
        <path id="Path_918514" data-name="Path 918514" d="M210.605,118.569a.507.507,0,0,1-.546.456h-1.42a.507.507,0,0,1-.546-.456v-6.137a.507.507,0,0,1,.546-.456h1.42a.507.507,0,0,1,.546.456Z" transform="translate(-172.954 -93.067)" fill="#f08f35"/>
        <path id="Path_918515" data-name="Path 918515" d="M253.067,118.569a.507.507,0,0,1-.546.456H251.1a.507.507,0,0,1-.546-.456v-6.137a.507.507,0,0,1,.546-.456h1.42a.507.507,0,0,1,.546.456Z" transform="translate(-208.245 -93.067)" fill="#f08f35"/>
        <path id="Path_918516" data-name="Path 918516" d="M295.528,118.569a.507.507,0,0,1-.546.456h-1.42a.507.507,0,0,1-.546-.456v-6.137a.507.507,0,0,1,.546-.456h1.42a.507.507,0,0,1,.546.456Z" transform="translate(-243.536 -93.067)" fill="#f08f35"/>
        <path id="Path_918517" data-name="Path 918517" d="M190.03,182.9a22.183,22.183,0,0,0-1.879,2.586c-.159-.3-.316-.606-.462-.915-.231-.487-.951-.062-.722.422.262.552.559,1.086.836,1.631.438.863.759-.453,2.949-3.3.328-.427-.4-.843-.722-.422" transform="translate(-155.358 -151.871)" fill="#e53c31"/>
        <path id="Path_918518" data-name="Path 918518" d="M117.157,159.934l9.522,3.891c.357-.137,1.025-.562.631-1.692-.376-1.076-4.6-3.524-4.6-3.524Z" transform="translate(-97.373 -131.825)" fill="#f3b167"/>
        <path id="Path_918519" data-name="Path 918519" d="M102.394,188.431A15.514,15.514,0,0,0,98.93,188c-.848.152-2.518,1.957-2.518,1.957l-.79-.8,1.807-2.934,3.4-1.189,3.368,1.317Z" transform="translate(-79.475 -153.791)" fill="#f3b167"/>
        <path id="Path_918520" data-name="Path 918520" d="M61.582,146.678,77.1,153.2l1.338-3.181L62.92,143.5a.673.673,0,0,0-.88.358l-.816,1.942a.671.671,0,0,0,.358.879" transform="translate(-50.841 -119.222)" fill="#347a86"/>
        <rect id="Rectangle_407289" data-name="Rectangle 407289" width="4.001" height="2.372" transform="translate(11.345 28.009) rotate(-67.177)" fill="#f08f35"/>
        <path id="Path_918521" data-name="Path 918521" d="M156.819,182.4l-1.338,3.181a3.411,3.411,0,0,0,2.222.211l.82-1.95a3.406,3.406,0,0,0-1.7-1.441" transform="translate(-129.226 -151.596)" fill="#347a86"/>
        <path id="Path_918522" data-name="Path 918522" d="M169.463,190.932l-.82,1.949,2.615.448.354-.842Z" transform="translate(-140.165 -158.69)" fill="#fff"/>
        <rect id="Rectangle_407290" data-name="Rectangle 407290" width="3.451" height="3.054" transform="matrix(0.388, -0.922, 0.922, 0.388, 23.44, 32.797)" fill="#f08f35"/>
        <path id="Path_918523" data-name="Path 918523" d="M184.834,201.414l1.031.434a.224.224,0,1,1-.173.413l-1.032-.434Z" transform="translate(-153.478 -167.402)" fill="#1c1c1c"/>
        <path id="Path_918524" data-name="Path 918524" d="M48.99,190.662l.659-7.01a7.793,7.793,0,0,1,1.436-3.827l2.4-3.34a2,2,0,0,1,1.9-.82l4.821,2.028-2.857.744c-3.009,4.885.964,6.665,2.624,4.645,1.557-1.9,3.818-4.988,4.838-5.368a1.621,1.621,0,0,1,2.068,1.628c.083,1.287-2.452,4.821-4.582,9.117l-5.865,6.291-1.257,3.546L47.4,193.333Z" transform="translate(-39.4 -145.999)" fill="#f5c382"/>
        <path id="Path_918525" data-name="Path 918525" d="M144.889,193.673l-1.752-1.116c.63-1.555,1.446-2.285,2.2-1.861.893.5.828,1.57-.451,2.978" transform="translate(-118.966 -158.394)" fill="#f7d1a5"/>
        <rect id="Rectangle_407291" data-name="Rectangle 407291" width="9.562" height="15.191" transform="translate(0.412 53.998) rotate(-59.807)" fill="#171d9d"/>
        <path id="Path_918526" data-name="Path 918526" d="M34.892,262.281l1.285-2.207,11.785,6.857-1.284,2.206Z" transform="translate(-29 -216.157)" fill="#4eadd1"/>
        <rect id="Rectangle_407292" data-name="Rectangle 407292" width="2.156" height="13.634" transform="translate(0 56.253) rotate(-59.809)" fill="#1727b3"/>
        <path id="Path_918527" data-name="Path 918527" d="M35.1,294.964a.866.866,0,1,1,1.185-.312.865.865,0,0,1-1.185.312" transform="translate(-28.813 -243.812)" fill="#dadbdc"/>
      </g>
      <g id="Group_1114315" data-name="Group 1114315" transform="translate(607.711 1804.527)">
        <path id="Path_918492" data-name="Path 918492" d="M2357.833,712.245A36.249,36.249,0,1,1,2321.583,676a36.25,36.25,0,0,1,36.25,36.249" transform="translate(-2285.334 -675.996)" fill="url(#radial-gradient)"/>
        <path id="Path_918528" data-name="Path 918528" d="M2535.918,771.187v27.869h-25.086V789.8a10.949,10.949,0,0,0,0-18.435v-.173Z" transform="translate(-2472.753 -755.113)" fill="#afebf0"/>
        <rect id="Rectangle_407293" data-name="Rectangle 407293" width="25.086" height="2.177" transform="translate(38.079 43.944)" fill="#84d8dd"/>
        <rect id="Rectangle_407294" data-name="Rectangle 407294" width="25.086" height="2.177" transform="translate(38.079 46.12)" fill="#afebf0"/>
        <rect id="Rectangle_407295" data-name="Rectangle 407295" width="25.086" height="2.177" transform="translate(38.079 48.297)" fill="#84d8dd"/>
        <rect id="Rectangle_407296" data-name="Rectangle 407296" width="25.086" height="2.176" transform="translate(38.079 50.475)" fill="#afebf0"/>
        <rect id="Rectangle_407297" data-name="Rectangle 407297" width="25.086" height="2.177" transform="translate(38.079 52.651)" fill="#84d8dd"/>
        <rect id="Rectangle_407298" data-name="Rectangle 407298" width="25.086" height="2.177" transform="translate(38.079 54.828)" fill="#afebf0"/>
        <rect id="Rectangle_407299" data-name="Rectangle 407299" width="4.388" height="3.1" transform="translate(24.342 39.978) rotate(-67.073)" fill="#2a2b2b"/>
        <path id="Path_918529" data-name="Path 918529" d="M2400.815,911.13l-4.849,11.031a2.247,2.247,0,0,0,4.139,1.751l4.85-11.031Z" transform="translate(-2377.116 -871.424)" fill="#a5b73b"/>
        <path id="Path_918530" data-name="Path 918530" d="M2412.273,773.74a13.456,13.456,0,1,1,10.468-15.893,13.461,13.461,0,0,1-10.468,15.893" transform="translate(-2377.394 -735.095)" fill="#4b4c4c"/>
        <rect id="Rectangle_407300" data-name="Rectangle 407300" width="6.955" height="5.733" transform="matrix(0.441, -0.897, 0.897, 0.441, 11.712, 47.661)" fill="#f6c485"/>
        <path id="Path_918531" data-name="Path 918531" d="M2411.775,939.621a1.11,1.11,0,0,1,1.131-1.91l3.983,2.222a1.11,1.11,0,1,1-1.131,1.909Z" transform="translate(-2389.971 -893.386)" fill="#f6c485"/>
        <path id="Path_918532" data-name="Path 918532" d="M2409.178,953.2a1.11,1.11,0,0,1,1.091-1.933l3.971,2.19a1.109,1.109,0,0,1-1.09,1.932Z" transform="translate(-2387.79 -904.654)" fill="#f6c485"/>
        <path id="Path_918533" data-name="Path 918533" d="M2400.326,962.494a1.109,1.109,0,0,1,1.09-1.932l3.915,2.207a1.11,1.11,0,0,1-1.091,1.933Z" transform="translate(-2380.432 -912.378)" fill="#f6c485"/>
        <path id="Path_918534" data-name="Path 918534" d="M2400.529,976.609a.913.913,0,1,1,.893-1.585l2.2,1.239a.913.913,0,1,1-.893,1.584Z" transform="translate(-2380.631 -924.403)" fill="#f6c485"/>
        <path id="Path_918535" data-name="Path 918535" d="M2369.387,938.175s-.428,1.729,2.116,3.442a25.48,25.48,0,0,0,4.876,2.227l3.455-7.021-3.768-2.262Z" transform="translate(-2355.171 -890.899)" fill="#f6c485"/>
        <path id="Path_918536" data-name="Path 918536" d="M2387.77,915.347c-1.033,3.9-5.375,4.244-6.654,3.339-1.825-1.305-1.5-3.354-.515-5.387a11.058,11.058,0,0,1,4.158-1.487,1.589,1.589,0,0,0,1.065-.515c.465-.542.384-1.3.878-1.312,1.671-.033,1.572,1.851-.265,3.4-1.172.992,1.333,1.957,1.333,1.957" transform="translate(-2363.85 -870.473)" fill="#f6c485"/>
        <path id="Path_918537" data-name="Path 918537" d="M2416.8,910.035c-.017.051-.036.1-.057.156a1.466,1.466,0,0,1-1.28,1.107c.465-.542.384-1.3.878-1.312a1.719,1.719,0,0,1,.459.049" transform="translate(-2393.489 -870.473)" fill="#eb4a26"/>
        <rect id="Rectangle_407301" data-name="Rectangle 407301" width="9.21" height="5.798" transform="translate(6.417 45.883) rotate(-65.209)" fill="#e53c31"/>
        <rect id="Rectangle_407302" data-name="Rectangle 407302" width="8.266" height="11.596" transform="matrix(0.419, -0.908, 0.908, 0.419, 1.351, 43.022)" fill="#e53c31"/>
        <rect id="Rectangle_407303" data-name="Rectangle 407303" width="8.266" height="1.548" transform="matrix(0.42, -0.908, 0.908, 0.42, 11.877, 47.884)" fill="#96d4dd"/>
        <rect id="Rectangle_407304" data-name="Rectangle 407304" width="8.267" height="1.307" transform="matrix(0.419, -0.908, 0.908, 0.419, 5.428, 44.906)" fill="#cf2e21"/>
        <path id="Path_918538" data-name="Path 918538" d="M2358.122,916.727a.525.525,0,1,1,.256.7.525.525,0,0,1-.256-.7" transform="translate(-2345.79 -875.823)" fill="#dadbdc"/>
        <path id="Path_918539" data-name="Path 918539" d="M2510.832,790.647V772.212a10.949,10.949,0,0,1,0,18.435" transform="translate(-2472.753 -755.964)" fill="#75c8e5"/>
        <path id="Path_918540" data-name="Path 918540" d="M2427.819,763.664V782.1a10.952,10.952,0,1,1,0-18.435" transform="translate(-2389.74 -747.417)" fill="#96d4dd"/>
        <path id="Path_918541" data-name="Path 918541" d="M2457.066,796.169a1.505,1.505,0,1,1,.731-2,1.506,1.506,0,0,1-.731,2" transform="translate(-2426.288 -773.489)" fill="#afebf0"/>
        <path id="Path_918542" data-name="Path 918542" d="M2566.638,800.183h-9.421v-9.421h9.421Zm-8.257-1.164h7.094v-7.093h-7.094Z" transform="translate(-2511.306 -771.382)" fill="#2a2b2b"/>
        <path id="Path_918543" data-name="Path 918543" d="M2574.268,807.668l-2.583,2.582-1.531-1.531-.564.564,2.1,2.1,3.147-3.147Z" transform="translate(-2521.589 -785.434)" fill="#e53c31"/>
        <path id="Path_918544" data-name="Path 918544" d="M2566.638,869.782h-9.421v-9.421h9.421Zm-8.257-1.164h7.094v-7.093h-7.094Z" transform="translate(-2511.306 -829.228)" fill="#2a2b2b"/>
        <path id="Path_918545" data-name="Path 918545" d="M2574.268,877.267l-2.583,2.582-1.531-1.532-.564.565,2.1,2.1,3.147-3.147Z" transform="translate(-2521.589 -843.279)" fill="#e53c31"/>
      </g>
      <g id="Group_1114316" data-name="Group 1114316" transform="translate(607.711 1594.444)">
        <path id="Path_918491" data-name="Path 918491" d="M2357.833,36.245a36.248,36.248,0,1,1-8.686-23.544,36.25,36.25,0,0,1,8.686,23.544" transform="translate(-2285.334 0.004)" fill="url(#radial-gradient)"/>
        <path id="Path_918546" data-name="Path 918546" d="M2405.454,100.721a3.988,3.988,0,0,0-3.994,3.973V139.58a3.987,3.987,0,0,0,3.994,3.971h14.829v-42.83Z" transform="translate(-2381.85 -83.713)" fill="#424242"/>
        <path id="Path_918547" data-name="Path 918547" d="M2531.757,104.694V139.58a3.987,3.987,0,0,1-3.995,3.971h-14.829v-42.83h14.829a3.988,3.988,0,0,1,3.995,3.973" transform="translate(-2474.5 -83.713)" fill="#2d2d2d"/>
        <path id="Path_918548" data-name="Path 918548" d="M2290.877,273.923l7.775,5.221,1.717-2.763c5.074.993,10.692-9.61,10.692-9.61l-15.165-1.863Z" transform="translate(-2289.941 -220.174)" fill="#f5c382"/>
        <path id="Path_918549" data-name="Path 918549" d="M2323.506,207.815a6.692,6.692,0,1,0,6.121-7.217,6.692,6.692,0,0,0-6.121,7.217" transform="translate(-2317.041 -166.705)" fill="#ddedeb"/>
        <rect id="Rectangle_407305" data-name="Rectangle 407305" width="0.696" height="1.252" transform="matrix(0.997, -0.081, 0.081, 0.997, 12.278, 34.11)" fill="#4d4f50"/>
        <rect id="Rectangle_407306" data-name="Rectangle 407306" width="1.252" height="0.697" transform="matrix(0.997, -0.081, 0.081, 0.997, 18.36, 39.783)" fill="#4d4f50"/>
        <rect id="Rectangle_407307" data-name="Rectangle 407307" width="0.696" height="1.252" transform="translate(13.24 45.82) rotate(-4.674)" fill="#4d4f50"/>
        <rect id="Rectangle_407308" data-name="Rectangle 407308" width="1.251" height="0.696" transform="translate(6.651 40.746) rotate(-4.703)" fill="#4d4f50"/>
        <path id="Path_918550" data-name="Path 918550" d="M2452.135,114.521h-29.37a.651.651,0,0,0-.651.651v36.893a.651.651,0,0,0,.651.651h30.021V115.172a.651.651,0,0,0-.651-.651" transform="translate(-2399.017 -95.182)" fill="#ddedeb"/>
        <path id="Path_918551" data-name="Path 918551" d="M2474.13,55.547V54.018h-.384a2.878,2.878,0,0,0-2.878,2.879v1.989a5.047,5.047,0,0,0-4.62,5.348h7.882V57.672a1.062,1.062,0,0,1,0-2.125" transform="translate(-2435.698 -44.896)" fill="#544dd4"/>
        <path id="Path_918552" data-name="Path 918552" d="M2520.813,64.238h-7.884V57.676c.026,0,.052,0,.075,0a1.062,1.062,0,0,0,0-2.118l-.075,0v-1.53h.383a2.878,2.878,0,0,1,2.88,2.879v1.99a4.976,4.976,0,0,1,2.88,1.206s0,0,0,0a5.318,5.318,0,0,1,1.737,4.14" transform="translate(-2474.497 -44.899)" fill="#171d9d"/>
        <path id="Path_918553" data-name="Path 918553" d="M2568.22,190.427l-8.13,3.322c-.305-.117-.876-.48-.539-1.444.321-.919,3.931-3.01,3.931-3.01Z" transform="translate(-2513.16 -157.329)" fill="#f3b167"/>
        <path id="Path_918554" data-name="Path 918554" d="M2588.453,215.327s1.739-1.062,2.464-.932,2.149,1.671,2.149,1.671l.675-.685-1.543-2.5-2.9-1.015-2.876,1.125Z" transform="translate(-2535.575 -176.085)" fill="#f3b167"/>
        <path id="Path_918555" data-name="Path 918555" d="M2468.277,211.856H2482.5V197.629h-14.227Zm12.039-2.188h-9.851v-9.85h9.851Z" transform="translate(-2437.385 -164.256)" fill="#56bbe0"/>
        <path id="Path_918556" data-name="Path 918556" d="M2497.89,218.191l-5.2-5.658,1.861-1.713,3.18,3.457,4.781-6.151,2,1.552Z" transform="translate(-2457.671 -172.981)" fill="#ed6c4e"/>
        <path id="Path_918557" data-name="Path 918557" d="M2563.231,170.6l22.146-10.886.761,1.548-22.627,11.123.255-.7-.762-.333Z" transform="translate(-2516.115 -132.744)" fill="#eb4626"/>
        <path id="Path_918558" data-name="Path 918558" d="M2549.287,225.435l2.545-1.251-.229.753.762.331-.254.7-2.573-.025Z" transform="translate(-2504.715 -186.327)" fill="#f7cb6b"/>
        <path id="Path_918559" data-name="Path 918559" d="M2543.322,229.587l1.258.012-.5-1.016Z" transform="translate(-2499.757 -189.983)" fill="#eb4626"/>
        <path id="Path_918560" data-name="Path 918560" d="M2556.994,161.674l22.627-11.123.761,1.548-22.146,10.886-.735-.278.228-.753Z" transform="translate(-2511.12 -125.128)" fill="#cb3a20"/>
        <path id="Path_918561" data-name="Path 918561" d="M2549.358,216.423l.735.279-.228.753.736.278-2.545,1.251-.25-.509Z" transform="translate(-2503.485 -179.876)" fill="#e9b95c"/>
        <path id="Path_918562" data-name="Path 918562" d="M2390.737,276.087a3.369,3.369,0,0,1-3.958.978l1.654-.978Z" transform="translate(-2369.648 -229.465)" fill="#dd8e56"/>
        <path id="Path_918563" data-name="Path 918563" d="M2385.641,186.472l5.881-2.579a1.734,1.734,0,0,1,1.637,3.057l-5.146,2.482Z" transform="translate(-2368.702 -152.65)" fill="#f5c382"/>
        <rect id="Rectangle_407309" data-name="Rectangle 407309" width="1.484" height="3.614" transform="translate(4.519 34.229) rotate(-49.71)" fill="#4d4f50"/>
        <rect id="Rectangle_407310" data-name="Rectangle 407310" width="3.009" height="1.484" transform="matrix(0.647, -0.763, 0.763, 0.647, 3.591, 34.442)" fill="#2d2d2d"/>
        <rect id="Rectangle_407311" data-name="Rectangle 407311" width="3.614" height="1.484" transform="translate(17.13 34.704) rotate(-49.673)" fill="#4d4f50"/>
        <rect id="Rectangle_407312" data-name="Rectangle 407312" width="1.484" height="3.009" transform="matrix(0.647, -0.763, 0.763, 0.647, 18.296, 32.151)" fill="#2d2d2d"/>
        <path id="Path_918564" data-name="Path 918564" d="M2313.981,200.024a8.3,8.3,0,1,0,7.594-8.953,8.3,8.3,0,0,0-7.594,8.953m1.991-.165a6.3,6.3,0,1,1,6.8,5.767,6.3,6.3,0,0,1-6.8-5.767" transform="translate(-2309.12 -158.782)" fill="#eb4626"/>
        <path id="Path_918565" data-name="Path 918565" d="M2361.347,221.325l.617.354,1.861-3.259-.006-.707-.612.354Z" transform="translate(-2348.511 -180.95)" fill="#2d2d2d"/>
        <path id="Path_918566" data-name="Path 918566" d="M2347.052,238.759l-.069-.846-2.578.212-.689.482.759.364Z" transform="translate(-2333.858 -197.738)" fill="#1b50af"/>
        <path id="Path_918567" data-name="Path 918567" d="M2359.021,236.7a.714.714,0,1,0,.689-.738.713.713,0,0,0-.689.738" transform="translate(-2346.577 -196.117)" fill="#2f2c2a"/>
        <path id="Path_918568" data-name="Path 918568" d="M2391.2,215.065h0a1.78,1.78,0,0,0,2.528,1.31l1.279-.615a1.781,1.781,0,0,0-1.543-3.209l-1.279.616a1.779,1.779,0,0,0-.984,1.9" transform="translate(-2373.305 -176.494)" fill="#f5c382"/>
        <path id="Path_918569" data-name="Path 918569" d="M2389.335,220.273h0a1.32,1.32,0,0,0,1.874.97l.948-.457a1.319,1.319,0,0,0-1.144-2.378l-.948.456a1.32,1.32,0,0,0-.73,1.408" transform="translate(-2371.758 -181.405)" fill="#f5d2b1"/>
        <path id="Path_918570" data-name="Path 918570" d="M2390.141,238.764h0a1.781,1.781,0,0,0,2.528,1.309l1.279-.615a1.78,1.78,0,0,0-1.543-3.209l-1.279.615a1.782,1.782,0,0,0-.985,1.9" transform="translate(-2372.423 -196.189)" fill="#f5c382"/>
        <path id="Path_918571" data-name="Path 918571" d="M2393.875,261.851h0a1.457,1.457,0,0,0,2.068,1.072l.561-.27a1.457,1.457,0,0,0-1.263-2.626l-.561.27a1.457,1.457,0,0,0-.806,1.554" transform="translate(-2375.53 -215.983)" fill="#f5c382"/>
        <path id="Path_918572" data-name="Path 918572" d="M2288.3,212.325c-.191,14.339,5.779,11.574,6.9,9.779,1.542-2.481-.2-6-2.275-8.415,0,0,6.155-3.711,2.349-7.07Z" transform="translate(-2287.796 -171.727)" fill="#f5c382"/>
        <path id="Path_918573" data-name="Path 918573" d="M2313.842,208.8c.393.611,1.508.562,2.326-.205.694-.65.845-1.534.338-1.976Z" transform="translate(-2309.028 -171.724)" fill="#f5d2b1"/>
        <path id="Path_918574" data-name="Path 918574" d="M2389.335,243.83h0a1.32,1.32,0,0,0,1.874.97l.948-.456a1.32,1.32,0,0,0-1.144-2.378l-.948.456a1.32,1.32,0,0,0-.73,1.408" transform="translate(-2371.758 -200.984)" fill="#f5d2b1"/>
        <path id="Path_918575" data-name="Path 918575" d="M2391.99,264.9h0a.99.99,0,0,0,1.405.727l.711-.342a.99.99,0,0,0-.858-1.784l-.711.342a.99.99,0,0,0-.547,1.056" transform="translate(-2373.968 -218.915)" fill="#f5d2b1"/>
        <path id="Path_918576" data-name="Path 918576" d="M2587.732,216.012l-.563-5.986a6.655,6.655,0,0,0-1.225-3.268l-2.053-2.853a1.854,1.854,0,0,0-1.643-.833l-4.035,1.983,2.378.516c2.569,4.172-.823,5.691-2.24,3.967-1.33-1.618-3.26-4.26-4.13-4.584a1.384,1.384,0,0,0-1.767,1.39c-.07,1.1,2.094,4.117,3.913,7.785l5.008,5.372,1.073,3.029,6.639-4.236Z" transform="translate(-2523.968 -168.78)" fill="#f5c382"/>
        <path id="Path_918577" data-name="Path 918577" d="M2575.548,216.692c.647-.362,1.344.262,1.882,1.59l-1.5.953c-1.093-1.2-1.148-2.116-.386-2.543" transform="translate(-2526.115 -180.016)" fill="#f7d1a5"/>
        <rect id="Rectangle_407313" data-name="Rectangle 407313" width="12.971" height="8.165" transform="matrix(0.864, -0.503, 0.503, 0.864, 56.284, 54.67)" fill="#171d9d"/>
      </g>
      <g id="Group_1114318" data-name="Group 1114318" transform="translate(297.791 1802.02)">
        <path id="Path_918490" data-name="Path 918490" d="M77.833,712.245A36.249,36.249,0,1,1,41.583,676a36.25,36.25,0,0,1,36.249,36.249" transform="translate(-5.334 -675.996)" fill="url(#radial-gradient)"/>
        <rect id="Rectangle_407314" data-name="Rectangle 407314" width="36.075" height="42.589" transform="translate(14.481 10.641)" fill="#96d4dd"/>
        <rect id="Rectangle_407315" data-name="Rectangle 407315" width="5.616" height="1.699" transform="translate(29.604 15.889)" fill="#2f66ac"/>
        <rect id="Rectangle_407316" data-name="Rectangle 407316" width="2.808" height="1.699" transform="translate(37.191 15.889)" fill="#2f66ac"/>
        <rect id="Rectangle_407317" data-name="Rectangle 407317" width="4.744" height="1.699" transform="translate(42.138 15.889)" fill="#2f66ac"/>
        <rect id="Rectangle_407318" data-name="Rectangle 407318" width="5.616" height="1.699" transform="translate(29.604 18.942)" fill="#2f66ac"/>
        <rect id="Rectangle_407319" data-name="Rectangle 407319" width="2.808" height="1.699" transform="translate(37.191 18.942)" fill="#2f66ac"/>
        <rect id="Rectangle_407320" data-name="Rectangle 407320" width="4.744" height="1.699" transform="translate(42.138 18.942)" fill="#2f66ac"/>
        <rect id="Rectangle_407321" data-name="Rectangle 407321" width="5.616" height="1.699" transform="translate(29.604 30.327)" fill="#2f66ac"/>
        <rect id="Rectangle_407322" data-name="Rectangle 407322" width="2.808" height="1.699" transform="translate(37.191 30.327)" fill="#2f66ac"/>
        <rect id="Rectangle_407323" data-name="Rectangle 407323" width="4.744" height="1.699" transform="translate(42.138 30.327)" fill="#2f66ac"/>
        <rect id="Rectangle_407324" data-name="Rectangle 407324" width="5.616" height="1.699" transform="translate(29.604 33.379)" fill="#2f66ac"/>
        <rect id="Rectangle_407325" data-name="Rectangle 407325" width="2.808" height="1.699" transform="translate(37.191 33.379)" fill="#2f66ac"/>
        <rect id="Rectangle_407326" data-name="Rectangle 407326" width="4.744" height="1.699" transform="translate(42.138 33.379)" fill="#2f66ac"/>
        <rect id="Rectangle_407327" data-name="Rectangle 407327" width="8.664" height="8.664" transform="translate(18.049 14.297)" fill="#afebf0"/>
        <path id="Path_918578" data-name="Path 918578" d="M131.372,797.706a2.126,2.126,0,0,1-.427,1.34h-2.485a2.073,2.073,0,0,1-.4-1.34,2.763,2.763,0,0,0,.446-1.285h2.422a2.785,2.785,0,0,0,.445,1.285" transform="translate(-107.335 -776.085)" fill="#e79f63"/>
        <path id="Path_918579" data-name="Path 918579" d="M127.3,769.506l2.148,1.326-.425,3.018a1.983,1.983,0,0,1-3.447,0l-.425-3.018Z" transform="translate(-104.917 -753.715)" fill="#f2b982"/>
        <path id="Path_918580" data-name="Path 918580" d="M128.717,769.716l-.22.688h-.245l.195-1.725c-.332-.525-.92-.51-1.771-.421-.851-.089-1.44-.1-1.771.421l.195,1.725h-.245l-.22-.688c-1.611-3.861,5.693-3.86,4.082,0" transform="translate(-104.295 -751.484)" fill="#333c3b"/>
        <path id="Path_918581" data-name="Path 918581" d="M117.944,801.16l-1.394.811-1.394-.811c-1.208.223-2.039.231-2.938,1.825h8.664c-.9-1.594-1.73-1.6-2.939-1.825" transform="translate(-94.17 -780.024)" fill="#92309a"/>
        <rect id="Rectangle_407328" data-name="Rectangle 407328" width="8.664" height="8.664" transform="translate(18.049 28.156)" fill="#afebf0"/>
        <path id="Path_918582" data-name="Path 918582" d="M131.372,879.778a2.126,2.126,0,0,1-.427,1.34h-2.485a2.073,2.073,0,0,1-.4-1.34,2.763,2.763,0,0,0,.446-1.285h2.422a2.785,2.785,0,0,0,.445,1.285" transform="translate(-107.335 -844.298)" fill="#e79f63"/>
        <path id="Path_918583" data-name="Path 918583" d="M127.3,851.58l2.148,1.326-.425,3.018a1.984,1.984,0,0,1-3.447,0l-.425-3.018Z" transform="translate(-104.917 -821.93)" fill="#f2b982"/>
        <path id="Path_918584" data-name="Path 918584" d="M128.717,851.79l-.22.688h-.245l.195-1.726c-.332-.525-.92-.509-1.771-.421-.851-.089-1.44-.1-1.771.421l.195,1.726h-.245l-.22-.688c-1.611-3.861,5.693-3.861,4.082,0" transform="translate(-104.295 -819.698)" fill="#333c3b"/>
        <path id="Path_918585" data-name="Path 918585" d="M117.944,883.234l-1.394.811-1.394-.811c-1.208.223-2.039.231-2.938,1.825h8.664c-.9-1.594-1.73-1.6-2.939-1.825" transform="translate(-94.17 -848.239)" fill="#3a3f93"/>
        <rect id="Rectangle_407329" data-name="Rectangle 407329" width="8.664" height="8.664" transform="translate(18.049 41.281)" fill="#afebf0"/>
        <path id="Path_918586" data-name="Path 918586" d="M131.375,957.505a2.126,2.126,0,0,1-.427,1.339h-2.485a2.075,2.075,0,0,1-.4-1.339,2.771,2.771,0,0,0,.446-1.285h2.421a2.8,2.8,0,0,0,.446,1.285" transform="translate(-107.337 -908.9)" fill="#e79f63"/>
        <path id="Path_918587" data-name="Path 918587" d="M127.3,929.306l2.148,1.326-.425,3.018a1.984,1.984,0,0,1-3.447,0l-.425-3.018Z" transform="translate(-104.919 -886.531)" fill="#d38140"/>
        <path id="Path_918588" data-name="Path 918588" d="M128.721,929.516l-.219.688h-.246l.2-1.726c-.331-.525-.92-.509-1.771-.421-.851-.088-1.44-.1-1.771.421l.195,1.726h-.245l-.219-.688c-1.612-3.86,5.693-3.86,4.081,0" transform="translate(-104.299 -884.299)" fill="#333c3b"/>
        <path id="Path_918589" data-name="Path 918589" d="M117.947,960.96l-1.394.811-1.394-.811c-1.208.223-2.04.231-2.938,1.825h8.663c-.9-1.594-1.73-1.6-2.938-1.825" transform="translate(-94.173 -912.84)" fill="#ca43c6"/>
        <path id="Path_918590" data-name="Path 918590" d="M142.875,868.88a5.266,5.266,0,1,1-5.265-5.266,5.265,5.265,0,0,1,5.265,5.266" transform="translate(-110.897 -831.932)" fill="#e1fdfd"/>
        <path id="Path_918591" data-name="Path 918591" d="M147.9,879.227l-3.3,3.3-2.212-2.212-.978.978,3.191,3.191,4.28-4.279Z" transform="translate(-118.43 -844.908)" fill="#d04425"/>
        <path id="Path_918592" data-name="Path 918592" d="M180.479,901.591l-2.725-5.57a.169.169,0,0,1-.029.04c-1.054-2.069-2.256-1.474-2.727-.793l-.14-.274a1.442,1.442,0,0,0-2.689.378,1.434,1.434,0,0,0-2.694.8l-.1-.187a1.432,1.432,0,0,0-2.685.877L163.44,890.8a1.355,1.355,0,1,0-2.351,1.347l3.9,7.367,2.243,4.651-2.368-1.046c-4.5-2.211-4.952-.583-5-.555a.766.766,0,0,0,.038,1.346l6.788,3.395c3.238,2.522,2.348,1.993,5.6,3.308l1.776,3.554,8.353-3.509-1.606-3.036a7.062,7.062,0,0,0-.335-6.026" transform="translate(-133.454 -853.958)" fill="#f5c382"/>
        <path id="Path_918593" data-name="Path 918593" d="M171.134,892.593c.613-.33,1.245.331,1.664,1.61l-1.466.8c-.948-1.2-1.013-1.969-.2-2.41" transform="translate(-142.667 -855.947)" fill="#e68443"/>
        <rect id="Rectangle_407330" data-name="Rectangle 407330" width="12.419" height="7.817" transform="translate(39.43 60.666) rotate(-23.459)" fill="#ca43c6"/>
        <rect id="Rectangle_407331" data-name="Rectangle 407331" width="11.147" height="12.93" transform="matrix(0.917, -0.398, 0.398, 0.917, 40.014, 60.413)" fill="#ca43c6"/>
        <rect id="Rectangle_407332" data-name="Rectangle 407332" width="11.147" height="2.087" transform="translate(39.183 58.498) rotate(-23.459)" fill="#96d4dd"/>
        <rect id="Rectangle_407333" data-name="Rectangle 407333" width="11.146" height="1.762" transform="translate(43.127 67.584) rotate(-23.46)" fill="#92309a"/>
        <path id="Path_918594" data-name="Path 918594" d="M293.236,1024.743a.708.708,0,1,0-.932-.367.708.708,0,0,0,.932.367" transform="translate(-243.796 -964.723)" fill="#dadbdc"/>
      </g>
      <path id="Path_921159" data-name="Path 921159" d="M5.273-3.094l2.266-8.281H10.6L6.773,0h-3l-3.8-11.375H3.016ZM15.4.156A4.345,4.345,0,0,1,12.25-1a4.006,4.006,0,0,1-1.2-3.02v-.219a5.191,5.191,0,0,1,.48-2.289,3.516,3.516,0,0,1,1.4-1.535,4.233,4.233,0,0,1,2.188-.543A3.659,3.659,0,0,1,17.93-7.5a4.344,4.344,0,0,1,1.031,3.082V-3.4H13.727a1.9,1.9,0,0,0,.617,1.117,1.836,1.836,0,0,0,1.234.406,2.366,2.366,0,0,0,1.953-.875l1.2,1.422A3.363,3.363,0,0,1,17.34-.246,4.713,4.713,0,0,1,15.4.156Zm-.3-6.734q-1.156,0-1.375,1.531h2.656v-.2a1.3,1.3,0,0,0-.32-.98A1.275,1.275,0,0,0,15.1-6.578Zm10.031.508-.867-.062a1.558,1.558,0,0,0-1.594.781V0H20.039V-8.453h2.469l.086,1.086a2.039,2.039,0,0,1,1.852-1.242,2.567,2.567,0,0,1,.734.094ZM28.859,0H26.219V-8.453h2.641Zm-2.8-10.633a1.175,1.175,0,0,1,.406-.922,1.533,1.533,0,0,1,1.055-.359,1.533,1.533,0,0,1,1.055.359,1.175,1.175,0,0,1,.406.922,1.175,1.175,0,0,1-.406.922,1.533,1.533,0,0,1-1.055.359,1.533,1.533,0,0,1-1.055-.359A1.175,1.175,0,0,1,26.063-10.633ZM31.094,0V-6.625H29.867V-8.453h1.227v-.281A3.228,3.228,0,0,1,32.2-11.32a4.433,4.433,0,0,1,2.883-.844,10.23,10.23,0,0,1,2.75.453l-.359,2.078-.437-.117a6.962,6.962,0,0,0-1.8-.227q-1.508,0-1.508,1.375v.148h1.656v1.828H33.734V0Zm7.953,0H36.4V-8.453h2.648Zm5.18-1.875a1.171,1.171,0,0,0,.859-.3,1.1,1.1,0,0,0,.3-.84h2.469a2.922,2.922,0,0,1-1,2.281,3.705,3.705,0,0,1-2.566.891A3.751,3.751,0,0,1,41.383-1,4.556,4.556,0,0,1,40.32-4.2v-.109a5.149,5.149,0,0,1,.473-2.262,3.441,3.441,0,0,1,1.363-1.508,4.065,4.065,0,0,1,2.109-.527,3.658,3.658,0,0,1,2.617.914,3.242,3.242,0,0,1,.969,2.477H45.383a1.445,1.445,0,0,0-.32-1.008,1.106,1.106,0,0,0-.859-.352q-1.023,0-1.2,1.3a9.206,9.206,0,0,0-.055,1.141,3.616,3.616,0,0,0,.3,1.766A1.055,1.055,0,0,0,44.227-1.875ZM53.727,0a2.973,2.973,0,0,1-.25-.758,2.448,2.448,0,0,1-2.031.914,3,3,0,0,1-2.031-.723,2.3,2.3,0,0,1-.836-1.816,2.364,2.364,0,0,1,1.016-2.078,5.174,5.174,0,0,1,2.953-.7h.813v-.448q0-1.17-1.008-1.17a.824.824,0,0,0-.937.926H48.781a2.36,2.36,0,0,1,1.043-1.99,4.383,4.383,0,0,1,2.66-.765,3.843,3.843,0,0,1,2.555.789A2.743,2.743,0,0,1,56-5.656v3.742a3.832,3.832,0,0,0,.359,1.781V0ZM52.078-1.719a1.469,1.469,0,0,0,.816-.211,1.322,1.322,0,0,0,.465-.477V-3.758h-.766q-1.375,0-1.375,1.234a.754.754,0,0,0,.242.582A.876.876,0,0,0,52.078-1.719ZM62.57-6.07,61.7-6.133a1.558,1.558,0,0,0-1.594.781V0H57.477V-8.453h2.469l.086,1.086a2.039,2.039,0,0,1,1.852-1.242,2.567,2.567,0,0,1,.734.094Z" transform="translate(538 1848.27)" fill="#fff"/>
      <path id="Path_921160" data-name="Path 921160" d="M7.32-2.125H3.563L2.906,0H-.023L4.148-11.375H6.727L10.93,0H7.984Zm-3.1-2.117H6.664L5.438-8.187ZM15.211-1.875a1.171,1.171,0,0,0,.859-.3,1.1,1.1,0,0,0,.3-.84h2.469a2.922,2.922,0,0,1-1,2.281,3.705,3.705,0,0,1-2.566.891A3.751,3.751,0,0,1,12.367-1,4.556,4.556,0,0,1,11.3-4.2v-.109a5.149,5.149,0,0,1,.473-2.262,3.441,3.441,0,0,1,1.363-1.508,4.065,4.065,0,0,1,2.109-.527,3.658,3.658,0,0,1,2.617.914,3.242,3.242,0,0,1,.969,2.477H16.367a1.445,1.445,0,0,0-.32-1.008,1.106,1.106,0,0,0-.859-.352q-1.023,0-1.2,1.3a9.206,9.206,0,0,0-.055,1.141,3.616,3.616,0,0,0,.3,1.766A1.055,1.055,0,0,0,15.211-1.875Zm7.8-8.68v2.1h1.391v1.828H23.016v3.867a.987.987,0,0,0,.172.664.922.922,0,0,0,.68.188,3.862,3.862,0,0,0,.656-.047V-.07a4.859,4.859,0,0,1-1.484.227,2.758,2.758,0,0,1-2.008-.641,2.626,2.626,0,0,1-.648-1.945v-4.2H19.3V-8.453h1.078v-2.1ZM30.477-.914A2.714,2.714,0,0,1,28.219.156a2.662,2.662,0,0,1-2.105-.809A3.4,3.4,0,0,1,25.4-2.977V-8.453h2.633v5.492a.946.946,0,0,0,1.055,1.086,1.376,1.376,0,0,0,1.289-.648v-5.93h2.648V0H30.555ZM39.227,0a2.973,2.973,0,0,1-.25-.758,2.448,2.448,0,0,1-2.031.914,3,3,0,0,1-2.031-.723,2.3,2.3,0,0,1-.836-1.816,2.364,2.364,0,0,1,1.016-2.078,5.174,5.174,0,0,1,2.953-.7h.813v-.448q0-1.17-1.008-1.17a.824.824,0,0,0-.937.926H34.281a2.36,2.36,0,0,1,1.043-1.99,4.383,4.383,0,0,1,2.66-.765,3.843,3.843,0,0,1,2.555.789A2.743,2.743,0,0,1,41.5-5.656v3.742a3.832,3.832,0,0,0,.359,1.781V0ZM37.578-1.719a1.469,1.469,0,0,0,.816-.211,1.322,1.322,0,0,0,.465-.477V-3.758h-.766q-1.375,0-1.375,1.234a.754.754,0,0,0,.242.582A.876.876,0,0,0,37.578-1.719ZM48.07-6.07,47.2-6.133a1.558,1.558,0,0,0-1.594.781V0H42.977V-8.453h2.469l.086,1.086a2.039,2.039,0,0,1,1.852-1.242,2.567,2.567,0,0,1,.734.094Z" transform="translate(390 1846.259)" fill="#fff"/>
    </g>
  </g>
</svg>
