<svg xmlns="http://www.w3.org/2000/svg" xmlns:xlink="http://www.w3.org/1999/xlink" width="104.668" height="126" viewBox="0 0 104.668 126">
  <defs>
    <clipPath id="clip-path">
      <rect id="Rectangle_407138" data-name="Rectangle 407138" width="73" height="73" transform="translate(275.328 9379.664)" fill="#fff" stroke="#707070" stroke-width="1"/>
    </clipPath>
    <clipPath id="clip-path-2">
      <rect id="Rectangle_407135" data-name="Rectangle 407135" width="63.475" height="70.682" fill="#fff" stroke="#3d034b" stroke-width="3"/>
    </clipPath>
    <clipPath id="clip-path-3">
      <rect id="Rectangle_407137" data-name="Rectangle 407137" width="42.467" height="44.002" transform="translate(-0.323 -0.376)" fill="#3a2292" stroke="#707070" stroke-width="1"/>
    </clipPath>
    <clipPath id="clip-path-4">
      <rect id="Rectangle_407682" data-name="Rectangle 407682" width="41.2" height="40.382" fill="#3a2292"/>
    </clipPath>
  </defs>
  <g id="Group_1114981" data-name="Group 1114981" transform="translate(-810 -2825.147)">
    <rect id="Rectangle_407134" data-name="Rectangle 407134" width="104.668" height="126" transform="translate(810 2825.147)" fill="#3a2292"/>
    <g id="Mask_Group_1110929" data-name="Mask Group 1110929" transform="translate(550.672 -6528.018)" clip-path="url(#clip-path)">
      <g id="Group_1114152" data-name="Group 1114152" transform="translate(280.131 9380.624)" clip-path="url(#clip-path-2)">
        <path id="Path_918200" data-name="Path 918200" d="M27.452,63.948A42.13,42.13,0,0,1,6.56,49.078,35.558,35.558,0,0,1,.011,31.658C0,31.568,0,31.482,0,31.392V10.025a3.181,3.181,0,0,1,2.824-3.04C10.9,5.713,22.791,1.815,27.528.2a3.73,3.73,0,0,1,2.393,0C33.635,1.458,46.4,5.675,54.771,6.987a3.179,3.179,0,0,1,2.825,3.04V31.391c0,.09,0,.176-.013.264A35.552,35.552,0,0,1,51.037,49.08c-6.024,8.366-16.761,13.146-21.1,14.814a3.7,3.7,0,0,1-2.488.057" transform="translate(2.939 3.272)" fill="#fff" stroke="#ff85e7" stroke-width="3"/>
      </g>
      <g id="Group_1110928" data-name="Group 1110928" transform="translate(291.362 9392.394)" clip-path="url(#clip-path-3)">
        <g id="Group_1114695" data-name="Group 1114695" transform="translate(0.677 1.625)">
          <g id="Group_1114694" data-name="Group 1114694" clip-path="url(#clip-path-4)">
            <path id="Path_919801" data-name="Path 919801" d="M79.151,62.216c.834.831.423,1.579.586,2.453.206,1.106,1.122-.1,1.422-.335a2.414,2.414,0,0,1,2.126-.512,8.1,8.1,0,0,1,3.06,3.15,1.962,1.962,0,0,1-.4,1.611c-.35.476-1.12.757-.93,1.468.12.359,1.476.181,1.986.313a1.94,1.94,0,0,1,1.378,1.592c.1.86.117,3.175-.35,3.842-.893,1.273-2.718.587-2.97.945-.421.6.6,1.177.886,1.563a1.914,1.914,0,0,1,0,2.429c-.7.947-2.34,2.587-3.587,2.385-.917-.149-1.935-1.365-2.126-1.35-.787.062-.385,1.443-.6,2.1-.524,1.6-2.913,1.532-4.27,1.372A2.236,2.236,0,0,1,73.4,83.565c-.062-.408.223-2.137-.68-1.753-.608.258-.843,1.263-2.144,1.348-1.1.072-2.77-1.571-3.4-2.423a1.914,1.914,0,0,1,0-2.429c.35-.476,1.119-.757.93-1.468-.12-.359-1.476-.181-1.986-.313a1.94,1.94,0,0,1-1.378-1.592c-.1-.86-.117-3.175.35-3.842.893-1.273,2.718-.587,2.97-.945.421-.6-.6-1.177-.886-1.563a1.962,1.962,0,0,1-.4-1.611A7.608,7.608,0,0,1,69.956,63.8a2.389,2.389,0,0,1,1.86.418c.271.184.839.921,1.078.9.758-.06.434-1.154.494-1.67a2.228,2.228,0,0,1,1.961-1.82c.99-.106,3.075-.139,3.8.586M75.232,63.4c-.387.127-.159,1.392-.285,1.876a2.278,2.278,0,0,1-2.539,1.451c-.814-.165-1.624-1.368-2.049-1.327-.278.027-1.976,1.725-1.905,2.045s.851.883,1.095,1.331a1.9,1.9,0,0,1-.1,2.213c-.906,1.394-2.581.606-2.962,1.089-.222.282-.3,2.728.243,2.889,1.021.3,1.946-.373,2.769,1.012.949,1.6-.186,2.35-1.089,3.515a10.3,10.3,0,0,0,1.739,1.915c.586.275.882-.432,1.284-.74a2.157,2.157,0,0,1,3.38.664c.37.768.025,1.39.321,2.109a16.458,16.458,0,0,0,2.642.059c.154-.028.273-.046.318-.222-.423-2.206,1.486-4.106,3.521-2.673.356.251.713.918,1.149.876.28-.027,2.006-1.764,1.944-2.081C83.669,78.362,82.7,77.4,83.675,75.9c.906-1.394,2.581-.606,2.962-1.089.222-.282.3-2.728-.243-2.889-1.021-.3-1.946.373-2.769-1.012-.957-1.609.206-2.367,1.113-3.539a12.7,12.7,0,0,0-1.763-1.891c-.6-.282-.943.511-1.356.8a2.152,2.152,0,0,1-3.49-1.354c-.049-.364.1-1.315-.138-1.482Z" transform="translate(-55.952 -53.259)" fill="#3a2292"/>
            <path id="Path_919802" data-name="Path 919802" d="M167.79,173.163c-.075.1,1.688,1.333,1.822,1.622a.851.851,0,0,1-1.142,1.139c-.226-.093-2.665-2.12-2.977-2.423-.5-.488-.772-.731-.386-1.47a31.149,31.149,0,0,1,2.343-2.788c.408-.41.835-.763,1.413-.326.894.675-.423,1.645-.777,2.178-.087.132-.31.368.039.309a17.142,17.142,0,0,0,11.146-11,30.928,30.928,0,0,1,.8-3.248.8.8,0,0,1,1.43.2c.233.754-.574,3.41-.882,4.262a18.518,18.518,0,0,1-12.83,11.544" transform="translate(-142.654 -135.623)" fill="#3a2292"/>
            <path id="Path_919803" data-name="Path 919803" d="M184.9,26.964c.316.067.216-.043.3-.174.312-.482.692-1.655,1.217-1.884.887-.388,1.409.354,1.076,1.211a26.255,26.255,0,0,1-1.676,2.914c-.409.615-.585,1.121-1.452.829a39.833,39.833,0,0,1-3.585-2.085c-.378-.39-.454-.725-.07-1.151.824-.915,1.693.591,2.57.541A16.766,16.766,0,0,0,172.605,15.56c-.721-.244-2.411-.5-2.883-.763a.835.835,0,0,1,.486-1.575A17.874,17.874,0,0,1,174,14.3a18.212,18.212,0,0,1,10.9,12.661" transform="translate(-146.395 -11.436)" fill="#3a2292"/>
            <path id="Path_919804" data-name="Path 919804" d="M7,158.315c-.866.7-1.8-.781-2.461-1.037-.192-.075-.218.019-.2.2a8.55,8.55,0,0,0,.436,1.456,16.815,16.815,0,0,0,10.294,10.232c.744.278,2.551.433,2.634,1.289.172,1.776-3.663.129-4.411-.188A18.146,18.146,0,0,1,2.719,157.546c-.835.6-1.277,2.654-2.574,1.563a1,1,0,0,1,.029-1.072,39.39,39.39,0,0,1,2.408-3.261c.438-.4.788-.3,1.265-.043a37.107,37.107,0,0,1,3.2,2.339A.846.846,0,0,1,7,158.315" transform="translate(0 -133.646)" fill="#3a2292"/>
            <path id="Path_919805" data-name="Path 919805" d="M31.435,3.917A16.68,16.68,0,0,0,20.161,15.124c-.328,1.115-.258,3.679-1.926,2.8-.561-.559.35-3.371.607-4.123A18.149,18.149,0,0,1,30.76,2.429c-.549-.673-2.542-.536-2.431-1.673.062-.642.536-.839,1.116-.726a31.354,31.354,0,0,1,3.782,1.352.96.96,0,0,1,.583.917A31.35,31.35,0,0,1,32.45,6.078c-.325.641-.892.927-1.481.4-.656-.427.625-2.4.466-2.56" transform="translate(-15.617 0)" fill="#3a2292"/>
            <path id="Path_919806" data-name="Path 919806" d="M123.347,115.572c6.1,0,6.1,9.163,0,9.163s-6.112-9.163,0-9.163m-.643,1.71c-3.467.589-2.875,6.449,1.286,5.742,3.467-.589,2.875-6.449-1.286-5.742" transform="translate(-102.735 -99.966)" fill="#3a2292"/>
          </g>
        </g>
      </g>
    </g>
  </g>
</svg>
