<svg xmlns="http://www.w3.org/2000/svg" xmlns:xlink="http://www.w3.org/1999/xlink" width="119" height="119" viewBox="0 0 119 119">
  <defs>
    <clipPath id="clip-path">
      <rect id="Rectangle_406617" data-name="Rectangle 406617" width="119" height="119" fill="#170551" stroke="rgba(0,0,0,0)" stroke-miterlimit="10" stroke-width="1"/>
    </clipPath>
    <clipPath id="clip-path-2">
      <rect id="Rectangle_401492" data-name="Rectangle 401492" width="69.729" height="69.729" transform="translate(-0.313 0.443)" fill="#fff" stroke="#707070" stroke-width="1"/>
    </clipPath>
    <clipPath id="clip-path-3">
      <rect id="Rectangle_407495" data-name="Rectangle 407495" width="61.264" height="62.598" fill="#fff"/>
    </clipPath>
  </defs>
  <g id="Group_1114009" data-name="Group 1114009" transform="translate(-314.001 -7639.335)">
    <g id="Group_1113263" data-name="Group 1113263" transform="translate(314.001 7639.335)">
      <g id="Group_1112834" data-name="Group 1112834" transform="translate(0 0)" clip-path="url(#clip-path)">
        <path id="Path_917479" data-name="Path 917479" d="M118.163,71l-5.841-4.807a52.529,52.529,0,0,0-.6-16.787l5.47-5.208a3.328,3.328,0,0,0,.732-3.8l-5.546-12.131a3.335,3.335,0,0,0-3.026-1.944c-.108,0-.217,0-.325.015l-7.532.731A53.325,53.325,0,0,0,89.209,15.619l.185-7.551a3.329,3.329,0,0,0-2.166-3.2L74.728.21A3.32,3.32,0,0,0,73.566,0h0a3.315,3.315,0,0,0-2.57,1.214L66.186,7.057a52.524,52.524,0,0,0-16.786.6l-5.208-5.47A3.344,3.344,0,0,0,41.78,1.15a3.3,3.3,0,0,0-1.385.3L28.264,7a3.33,3.33,0,0,0-1.929,3.35l.731,7.534a53.315,53.315,0,0,0-11.449,12.29l-7.55-.185-.083,0a3.342,3.342,0,0,0-3.119,2.169L.208,44.652a3.333,3.333,0,0,0,1,3.731l5.846,4.811a52.523,52.523,0,0,0,.6,16.786L2.181,75.188a3.329,3.329,0,0,0-.731,3.8L7,91.116a3.336,3.336,0,0,0,3.027,1.945c.107,0,.215,0,.323-.015l7.534-.732a53.328,53.328,0,0,0,12.289,11.449l-.185,7.55a3.329,3.329,0,0,0,2.167,3.2l12.5,4.657a3.334,3.334,0,0,0,3.733-1l4.809-5.843a52.521,52.521,0,0,0,16.786-.6l5.208,5.47a3.343,3.343,0,0,0,2.41,1.034,3.308,3.308,0,0,0,1.384-.3l12.134-5.547a3.332,3.332,0,0,0,1.929-3.35l-.731-7.533a53.311,53.311,0,0,0,11.449-12.29l7.551.185h.082a3.342,3.342,0,0,0,3.119-2.167l4.657-12.5A3.329,3.329,0,0,0,118.163,71" transform="translate(0 -0.38)" fill="#170551" stroke="rgba(0,0,0,0)" stroke-miterlimit="10" stroke-width="1"/>
      </g>
    </g>
    <g id="Group_1111310" data-name="Group 1111310" transform="translate(339.026 7663.892)">
      <rect id="Rectangle_401104" data-name="Rectangle 401104" width="64.968" height="66.017" transform="translate(2.38 0)" fill="none"/>
      <g id="Mask_Group_1098697" data-name="Mask Group 1098697" transform="translate(0 0)" clip-path="url(#clip-path-2)">
        <g id="Group_1114605" data-name="Group 1114605" transform="translate(4.687 3.444)">
          <g id="Group_1114604" data-name="Group 1114604" transform="translate(0 0)" clip-path="url(#clip-path-3)">
            <path id="Path_918814" data-name="Path 918814" d="M26.591,41.208V42a1.472,1.472,0,0,0,1.446,1.445A1.4,1.4,0,0,0,29.483,42v-.793a3.321,3.321,0,0,0,1.89-2.987,3.336,3.336,0,1,0-6.672,0,3.321,3.321,0,0,0,1.89,2.987m1.446-3.544a.526.526,0,0,1,.556.557.52.52,0,0,1-.3.5,1.354,1.354,0,0,0-.256-.054,1.354,1.354,0,0,0-.256.054.559.559,0,0,1,.256-1.054" transform="translate(2.539 3.586)" fill="#fff"/>
            <path id="Path_918815" data-name="Path 918815" d="M28.814,49.5a12.4,12.4,0,0,0,5.225-1.224A11.5,11.5,0,0,0,40.6,37.822V30.706a1.471,1.471,0,0,0-1.446-1.445h-2v-.444a8.641,8.641,0,0,0-3-6.449,8.25,8.25,0,0,0-5.448-2,8.448,8.448,0,0,0-8.451,8.452v.444H18.585a1.471,1.471,0,0,0-1.446,1.445v7.116A11.675,11.675,0,0,0,28.814,49.5M23.144,28.817a5.694,5.694,0,0,1,5.671-5.671,5.532,5.532,0,0,1,3.669,1.333,5.913,5.913,0,0,1,2,4.337v.444H23.144Zm-3.225,3.335h17.9v5.671a8.838,8.838,0,0,1-5,8.005,10.428,10.428,0,0,1-4,.89,8.921,8.921,0,0,1-8.9-8.9Z" transform="translate(1.762 2.094)" fill="#fff"/>
            <path id="Path_918816" data-name="Path 918816" d="M59.818,0H1.445A1.472,1.472,0,0,0,0,1.446V61.153A1.472,1.472,0,0,0,1.445,62.6H59.818a1.65,1.65,0,0,0,1.446-1.334V1.446A1.472,1.472,0,0,0,59.818,0M58.372,11.341H15.232V2.892h43.14ZM2.78,2.89h9.561v8.45H2.78Zm0,11.23H58.373v45.7H2.78Z" transform="translate(0 0)" fill="#fff"/>
            <path id="Path_918817" data-name="Path 918817" d="M53.741,15.123H6.487a1.472,1.472,0,0,0-1.446,1.446V54.261a1.471,1.471,0,0,0,1.446,1.445H53.741a1.649,1.649,0,0,0,1.446-1.445V16.569a1.472,1.472,0,0,0-1.446-1.446m-1.446,37.8H7.82V18.015H52.295Z" transform="translate(0.518 1.555)" fill="#fff"/>
            <rect id="Rectangle_407492" data-name="Rectangle 407492" width="2.78" height="2.78" transform="translate(18.123 5.671)" fill="#fff"/>
            <rect id="Rectangle_407493" data-name="Rectangle 407493" width="2.78" height="2.78" transform="translate(23.683 5.671)" fill="#fff"/>
            <rect id="Rectangle_407494" data-name="Rectangle 407494" width="2.78" height="2.78" transform="translate(29.242 5.671)" fill="#fff"/>
          </g>
        </g>
      </g>
    </g>
  </g>
</svg>
