<svg xmlns="http://www.w3.org/2000/svg" xmlns:xlink="http://www.w3.org/1999/xlink" width="104.668" height="126" viewBox="0 0 104.668 126">
  <defs>
    <clipPath id="clip-path">
      <rect id="Rectangle_407412" data-name="Rectangle 407412" width="73" height="73" transform="translate(275.328 9379.664)" fill="#fff" stroke="#707070" stroke-width="1"/>
    </clipPath>
    <clipPath id="clip-path-2">
      <rect id="Rectangle_407409" data-name="Rectangle 407409" width="63.475" height="70.682" fill="#fff" stroke="#3d034b" stroke-width="3"/>
    </clipPath>
    <clipPath id="clip-path-3">
      <rect id="Rectangle_407411" data-name="Rectangle 407411" width="42.467" height="44.002" transform="translate(-0.301 -0.295)" fill="#3a2292" stroke="#707070" stroke-width="1"/>
    </clipPath>
    <clipPath id="clip-path-4">
      <rect id="Rectangle_407882" data-name="Rectangle 407882" width="39.333" height="37.5" fill="#3a2292"/>
    </clipPath>
  </defs>
  <g id="Group_1114999" data-name="Group 1114999" transform="translate(-179.979 -1868.066)">
    <rect id="Rectangle_407398" data-name="Rectangle 407398" width="104.668" height="126" transform="translate(179.979 1868.066)" fill="#3a2292"/>
    <g id="Mask_Group_1110962" data-name="Mask Group 1110962" transform="translate(-79.35 -7485.098)" clip-path="url(#clip-path)">
      <g id="Group_1114491" data-name="Group 1114491" transform="translate(280.131 9380.624)" clip-path="url(#clip-path-2)">
        <path id="Path_918658" data-name="Path 918658" d="M27.452,63.948A42.13,42.13,0,0,1,6.56,49.078,35.558,35.558,0,0,1,.011,31.658C0,31.568,0,31.482,0,31.392V10.025a3.181,3.181,0,0,1,2.824-3.04C10.9,5.713,22.791,1.815,27.528.2a3.73,3.73,0,0,1,2.393,0C33.635,1.458,46.4,5.675,54.771,6.987a3.179,3.179,0,0,1,2.825,3.04V31.391c0,.09,0,.176-.013.264A35.552,35.552,0,0,1,51.037,49.08c-6.024,8.366-16.761,13.146-21.1,14.814a3.7,3.7,0,0,1-2.488.057" transform="translate(2.939 3.272)" fill="#fff" stroke="#ff85e7" stroke-width="3"/>
      </g>
      <g id="Mask_Group_1110961" data-name="Mask Group 1110961" transform="translate(291.362 9392.394)" clip-path="url(#clip-path-3)">
        <g id="Group_1114868" data-name="Group 1114868" transform="translate(1.699 3.705)">
          <g id="Group_1114867" data-name="Group 1114867" clip-path="url(#clip-path-4)">
            <path id="Path_920883" data-name="Path 920883" d="M.651,25.623c-.532-.114-.761-.919-.6-1.4L5.058,3.668c.411-.891,1.71-.363,2.511-.526a4.084,4.084,0,0,1,7.94,0l1.4.023a4.107,4.107,0,0,1,7.974-.06c.307.06,1.26.155,1.438-.061.125-.151.353-.889.535-1.184a4.072,4.072,0,0,1,6.745-.138c.317.467.458.966.758,1.42,1.307.142,2.835-.135,4.113.013a.883.883,0,0,1,.806.57l.05,25.965a8.5,8.5,0,0,1-16.918.281L5.8,29.983c-.322.049-.855-.5-.855-.75v-3.61ZM13.431,3.158c-.113-.85-1.227-1.29-2.008-1.269A1.857,1.857,0,0,0,9.649,3.158Zm9.4,0A2.073,2.073,0,0,0,20.3,1.947c-.438.1-1.279.707-1.253,1.211Zm9.4,0a2.124,2.124,0,0,0-3.9,0ZM5.637,9.347H33.031l1.032-4.355H28.331A2.22,2.22,0,0,0,29.814,6.2c.447.131.953-.069,1.254.464.455.8-.121,1.407-.959,1.428a3.926,3.926,0,0,1-3.726-3.1H19.047c.034,1.341,2.391,1.056,2.691,1.721a.938.938,0,0,1-.793,1.381,3.971,3.971,0,0,1-3.961-3.1H9.649c.024.438.517.84.879,1.013.627.3,1.3.084,1.7.587a.9.9,0,0,1-.373,1.47c-1.783.419-3.952-1.312-4.29-3.054a2.589,2.589,0,0,0-.829,0,29.143,29.143,0,0,0-1.1,4.34M37.5,4.992,36.022,5,32.227,20.628l2.064.639V16.511a.981.981,0,0,1,1.954.109c.171,1.885-.138,4.029-.008,5.942L37.5,23.674Zm-4.929,6.3H5.064L2.256,23.789H24.262a8.433,8.433,0,0,1,6-3.109ZM30.2,24.1c-.391-.426-.191-1.063-.321-1.566a6.625,6.625,0,0,0-5.447,5.614c2.351-.439,2.364,2.241,0,1.834a6.325,6.325,0,0,0,5.5,5.5c-.32-2.354,2.189-2.315,1.949,0a6.425,6.425,0,0,0,5.5-5.5c-.752.111-1.981-.009-1.814-1.06.157-.99.99-.69,1.646-.774.167-.022.192.064.164-.166a6.492,6.492,0,0,0-5.5-5.337c.3,1-.814,2.4-1.683,1.454m-7.028,1.526H6.9v2.522H22.486a10.518,10.518,0,0,1,.688-2.522" transform="translate(0 0)" fill="#3a2292"/>
            <path id="Path_920884" data-name="Path 920884" d="M221.361,111.3a15.719,15.719,0,0,1,3.019.027.956.956,0,0,1,.265,1.653,6.452,6.452,0,0,1-3.482.074.941.941,0,0,1,.2-1.754" transform="translate(-195.355 -98.493)" fill="#3a2292"/>
            <path id="Path_920885" data-name="Path 920885" d="M112.264,111.3a15.749,15.749,0,0,1,3.019.027,1,1,0,0,1,.266,1.654,6.49,6.49,0,0,1-3.484.073.935.935,0,0,1,.2-1.754" transform="translate(-98.751 -98.493)" fill="#3a2292"/>
            <path id="Path_920886" data-name="Path 920886" d="M61.043,111.507a1,1,0,0,1-.135,1.462,6.32,6.32,0,0,1-3.56,0,.927.927,0,0,1,.373-1.7c.537-.108,2.971-.117,3.323.235" transform="translate(-50.395 -98.459)" fill="#3a2292"/>
            <path id="Path_920887" data-name="Path 920887" d="M170.184,111.506a.973.973,0,0,1-.131,1.458,6.369,6.369,0,0,1-3.562,0,.939.939,0,0,1,.375-1.7c.585-.1,2.918-.129,3.319.239" transform="translate(-147.047 -98.455)" fill="#3a2292"/>
            <path id="Path_920888" data-name="Path 920888" d="M46.8,144.3a16.9,16.9,0,0,1,3.134.027.932.932,0,0,1-.185,1.776,16.859,16.859,0,0,1-3.037-.044A.937.937,0,0,1,46.8,144.3" transform="translate(-40.851 -127.711)" fill="#3a2292"/>
            <path id="Path_920889" data-name="Path 920889" d="M155.8,144.3a16.9,16.9,0,0,1,3.134.027.932.932,0,0,1-.185,1.776,16.859,16.859,0,0,1-3.037-.044.937.937,0,0,1,.088-1.758" transform="translate(-137.358 -127.711)" fill="#3a2292"/>
            <path id="Path_920890" data-name="Path 920890" d="M41.285,177.251a18.758,18.758,0,0,1,3.16,0c.86.192.8,1.582-.114,1.785a16.634,16.634,0,0,1-2.932,0,.939.939,0,0,1-.114-1.785" transform="translate(-36.024 -156.876)" fill="#3a2292"/>
            <path id="Path_920891" data-name="Path 920891" d="M95.419,178.754a.916.916,0,0,1,.385-1.54,19.678,19.678,0,0,1,3.067-.022A.956.956,0,0,1,98.85,179a17.044,17.044,0,0,1-2.845.029,1.015,1.015,0,0,1-.585-.275" transform="translate(-84.24 -156.839)" fill="#3a2292"/>
            <path id="Path_920892" data-name="Path 920892" d="M101.46,144.3a19.577,19.577,0,0,1,3.047,0c.742.215.828,1.594,0,1.785a21,21,0,0,1-3.161,0,.943.943,0,0,1,.115-1.786" transform="translate(-89.209 -127.709)" fill="#3a2292"/>
            <path id="Path_920893" data-name="Path 920893" d="M210.67,144.3a19.693,19.693,0,0,1,3.047,0c.781.228.851,1.6,0,1.786a20.862,20.862,0,0,1-3.161,0,.957.957,0,0,1,.115-1.786" transform="translate(-185.926 -127.711)" fill="#3a2292"/>
            <path id="Path_920894" data-name="Path 920894" d="M150.555,177.3a20.845,20.845,0,0,1,3.161,0,.93.93,0,0,1-.114,1.785,16.677,16.677,0,0,1-2.932,0,.957.957,0,0,1-.115-1.786" transform="translate(-132.803 -156.922)" fill="#3a2292"/>
            <path id="Path_920895" data-name="Path 920895" d="M245.045,223.526A.964.964,0,0,1,246.2,224.8a30.4,30.4,0,0,1-3.038,3.038,1.311,1.311,0,0,1-.725-.031,25.043,25.043,0,0,1-2.6-1.3.909.909,0,0,1-.36-1.214c.694-1.337,2.25.243,3.2.447.56-.406,1.8-2.089,2.373-2.216" transform="translate(-211.931 -197.881)" fill="#3a2292"/>
          </g>
        </g>
      </g>
    </g>
  </g>
</svg>
