<svg xmlns="http://www.w3.org/2000/svg" xmlns:xlink="http://www.w3.org/1999/xlink" width="99" height="99" viewBox="0 0 99 99">
  <defs>
    <clipPath id="clip-path">
      <rect id="Rectangle_401223" data-name="Rectangle 401223" width="99" height="99" transform="translate(0)" fill="#ff85e7"/>
    </clipPath>
    <clipPath id="clip-path-2">
      <rect id="Rectangle_401223-2" data-name="Rectangle 401223" width="88.539" height="88.539" fill="#f3f9ff"/>
    </clipPath>
    <clipPath id="clip-path-3">
      <rect id="Rectangle_407594" data-name="Rectangle 407594" width="62.999" height="69" fill="none"/>
    </clipPath>
  </defs>
  <g id="Group_1100726" data-name="Group 1100726" transform="translate(-619.921 -5755.871)">
    <g id="Group_1100724" data-name="Group 1100724" transform="translate(619.921 5755.871)">
      <g id="Group_1099654" data-name="Group 1099654" transform="translate(0 0)">
        <g id="Mask_Group_1099652" data-name="Mask Group 1099652" clip-path="url(#clip-path)">
          <path id="Path_873521" data-name="Path 873521" d="M99,77.066A22,22,0,0,1,77.066,99H21.934A22,22,0,0,1,0,77.066V21.933A22,22,0,0,1,21.934,0H77.066A22,22,0,0,1,99,21.934Z" transform="translate(0)" fill="#170551"/>
        </g>
      </g>
      <g id="Group_1099659" data-name="Group 1099659" transform="translate(4.77 5.723)">
        <g id="Group_1099652" data-name="Group 1099652" transform="translate(0 0)" clip-path="url(#clip-path-2)">
          <path id="Path_873521-2" data-name="Path 873521" d="M88.539,68.922A19.674,19.674,0,0,1,68.923,88.539H19.616A19.674,19.674,0,0,1,0,68.922V19.616A19.674,19.674,0,0,1,19.616,0H68.923A19.674,19.674,0,0,1,88.539,19.616Z" fill="#f3f9ff"/>
        </g>
      </g>
    </g>
    <g id="Group_1100725" data-name="Group 1100725" transform="translate(636.343 5771.293)">
      <rect id="Rectangle_401104" data-name="Rectangle 401104" width="68" height="69" transform="translate(-0.421 -0.158)" fill="none"/>
      <g id="Group_1114659" data-name="Group 1114659" transform="translate(2.579 -0.158)">
        <g id="Group_1114658" data-name="Group 1114658" transform="translate(0 0)" clip-path="url(#clip-path-3)">
          <path id="Path_919396" data-name="Path 919396" d="M28.711,30.431a.9.9,0,0,1-.6-.121l-12.6-5.88A1.529,1.529,0,0,1,16.83,21.67l12,5.521,12-5.521a1.529,1.529,0,0,1,1.319,2.759l-12.6,5.88a2.324,2.324,0,0,1-.84.121" transform="translate(2.728 4.01)" fill="#232b3f"/>
          <path id="Path_919397" data-name="Path 919397" d="M26.748,31.162a1.588,1.588,0,0,1-1.56-1.56V19.162a1.56,1.56,0,1,1,3.12,0v10.56a1.571,1.571,0,0,1-1.56,1.44" transform="translate(4.691 3.278)" fill="#313a52"/>
          <path id="Path_919398" data-name="Path 919398" d="M50.326,46.735a3.591,3.591,0,1,1-3.591,3.593,3.592,3.592,0,0,1,3.591-3.593" transform="translate(6.965 9.962)" fill="#6bfcf2"/>
          <path id="Path_919399" data-name="Path 919399" d="M2.9,31.562a2.9,2.9,0,0,1,0,5.794,2.9,2.9,0,0,1,0-5.794" transform="translate(0.177 7.758)" fill="#6bfcf2"/>
          <path id="Path_919400" data-name="Path 919400" d="M29.574,25.29a19.5,19.5,0,1,0,19.56,19.44,19.563,19.563,0,0,0-19.56-19.44" transform="translate(1.865 4.71)" fill="#ffd24d"/>
          <path id="Path_919401" data-name="Path 919401" d="M28.029,2.63a9.68,9.68,0,0,0-9.719,9.72,10.415,10.415,0,0,0,.719,3.841A6.107,6.107,0,0,0,20.11,18.11a9.992,9.992,0,0,0,7.919,4.079,9.67,9.67,0,0,0,7.921-4.079,6.1,6.1,0,0,0,1.079-1.919,9.948,9.948,0,0,0,.72-3.841,9.68,9.68,0,0,0-9.72-9.72" transform="translate(3.41 0.49)" fill="#7d0ede"/>
          <path id="Path_919402" data-name="Path 919402" d="M35.667,16.219h0a9.726,9.726,0,0,1-15.839,0,9.726,9.726,0,0,1,15.839,0" transform="translate(3.693 2.261)" fill="#ef727a"/>
          <path id="Path_919403" data-name="Path 919403" d="M51.372,11.782a9.787,9.787,0,0,0-15.96,3.24,10.048,10.048,0,0,0,1.081,9.361,5.161,5.161,0,0,0,1.079,1.2,9.705,9.705,0,0,0,13.8,0c.361-.359.72-.84,1.081-1.2a9.846,9.846,0,0,0-1.081-12.6" transform="translate(6.466 1.658)" fill="#7d0ede"/>
          <path id="Path_919404" data-name="Path 919404" d="M52.073,22.592h0a5.187,5.187,0,0,1-1.079,1.2,9.707,9.707,0,0,1-13.8,0c-.359-.359-.719-.84-1.079-1.2a9.994,9.994,0,0,1,7.921-4.079,9.722,9.722,0,0,1,8.039,4.079" transform="translate(6.726 3.448)" fill="#65b2fe"/>
          <path id="Path_919405" data-name="Path 919405" d="M20.657,15.023a9.589,9.589,0,0,0-2.159-3.24,9.7,9.7,0,0,0-13.8,0,9.846,9.846,0,0,0-1.079,12.6,5.131,5.131,0,0,0,1.079,1.2,9.7,9.7,0,0,0,13.8,0c.359-.358.719-.84,1.079-1.2a10.052,10.052,0,0,0,1.079-9.361" transform="translate(0.342 1.658)" fill="#7d0ede"/>
          <path id="Path_919406" data-name="Path 919406" d="M19.2,22.592h0a5.166,5.166,0,0,1-1.081,1.2,9.7,9.7,0,0,1-13.8,0c-.361-.359-.72-.84-1.082-1.2a10,10,0,0,1,7.921-4.079,9.725,9.725,0,0,1,8.04,4.079" transform="translate(0.603 3.448)" fill="#65b2fe"/>
          <path id="Path_919407" data-name="Path 919407" d="M43.5,13.05a3.24,3.24,0,1,1-3.24,3.241A3.152,3.152,0,0,1,43.5,13.05" transform="translate(7.497 2.43)" fill="#ffd8a8"/>
          <path id="Path_919408" data-name="Path 919408" d="M27.012,6.677a3.24,3.24,0,1,1-3.241,3.24,3.226,3.226,0,0,1,3.241-3.24" transform="translate(4.427 1.244)" fill="#ffd8a8"/>
          <path id="Path_919409" data-name="Path 919409" d="M10.642,13.05a3.24,3.24,0,0,1,0,6.48,3.33,3.33,0,0,1-3.359-3.24,3.33,3.33,0,0,1,3.359-3.241" transform="translate(1.356 2.43)" fill="#ffd8a8"/>
          <path id="Path_919410" data-name="Path 919410" d="M51.984,35.4a1.507,1.507,0,1,1-1.506,1.506A1.534,1.534,0,0,1,51.984,35.4" transform="translate(7.509 8.315)" fill="#6bfcf2"/>
          <path id="Path_919411" data-name="Path 919411" d="M45.712,30.348a1.506,1.506,0,1,1-1.506,1.506,1.534,1.534,0,0,1,1.506-1.506" transform="translate(6.598 7.581)" fill="#6bfcf2"/>
          <path id="Path_919412" data-name="Path 919412" d="M38.126,1.214A1.534,1.534,0,0,1,39.632,2.72a1.512,1.512,0,0,1-1.506,1.39A1.609,1.609,0,0,1,36.62,2.72a1.618,1.618,0,0,1,1.506-1.506" transform="translate(5.496 3.35)" fill="#6bfcf2"/>
          <rect id="Rectangle_407592" data-name="Rectangle 407592" width="4.32" height="4.321" transform="translate(40.079 47.279)" fill="#fff"/>
          <path id="Path_919413" data-name="Path 919413" d="M27.33,40.941V37.7c-1.2.121-1.8.6-1.8,1.561a1.169,1.169,0,0,0,.479,1.079,7.423,7.423,0,0,0,1.32.6m1.2,4.919V49.1c1.32,0,2.04-.479,2.04-1.44a1.26,1.26,0,0,0-.6-1.079,7.887,7.887,0,0,0-1.44-.72m0-8.16v3.6a13.165,13.165,0,0,1,3.24,1.079,5.558,5.558,0,0,1,3,2.641,6.055,6.055,0,0,1,.359,2.28,5.243,5.243,0,0,1-.48,2.52,3.991,3.991,0,0,1-1.44,1.681,6.675,6.675,0,0,1-2.039,1.079,7.748,7.748,0,0,1-2.4.361v3.12h-1.8v-3.12a15.963,15.963,0,0,1-6.84-2.28l1.921-3.84a3.309,3.309,0,0,0,.6.479,29.161,29.161,0,0,0,2.759,1.32,10.017,10.017,0,0,0,1.8.479V45.621a24,24,0,0,1-3.48-1.2,4.332,4.332,0,0,1-2.76-4.32,4.765,4.765,0,0,1,.48-2.4,5.04,5.04,0,0,1,3.241-3,13.8,13.8,0,0,1,2.4-.6V31.461h1.8V34.1a12.822,12.822,0,0,1,3.24.719,28.209,28.209,0,0,1,2.641,1.2l-1.919,3.6c0-.119-.242-.24-.482-.358a19.246,19.246,0,0,0-2.28-1.081,2.91,2.91,0,0,0-1.56-.48" transform="translate(3.749 5.859)" fill="#fff"/>
          <rect id="Rectangle_407593" data-name="Rectangle 407593" width="4.32" height="4.321" transform="translate(18.479 47.279)" fill="#fff"/>
          <path id="Path_919414" data-name="Path 919414" d="M7.778,26.5a1.506,1.506,0,0,1,0,3.012,1.619,1.619,0,0,1-1.507-1.5A1.534,1.534,0,0,1,7.778,26.5" transform="translate(1.088 7.023)" fill="#6bfcf2"/>
          <path id="Path_919415" data-name="Path 919415" d="M5.249,46.735a1.507,1.507,0,0,1,0,3.013,1.507,1.507,0,1,1,0-3.013" transform="translate(0.721 9.962)" fill="#6bfcf2"/>
          <path id="Path_919416" data-name="Path 919416" d="M3.933,0A1.535,1.535,0,0,1,5.44,1.507a1.534,1.534,0,0,1-1.507,1.5,1.532,1.532,0,0,1-1.5-1.5A1.533,1.533,0,0,1,3.933,0" transform="translate(0.53 3.173)" fill="#6bfcf2"/>
        </g>
      </g>
    </g>
  </g>
</svg>
