<svg xmlns="http://www.w3.org/2000/svg" xmlns:xlink="http://www.w3.org/1999/xlink" width="104.668" height="126" viewBox="0 0 104.668 126">
  <defs>
    <clipPath id="clip-path">
      <rect id="Rectangle_407132" data-name="Rectangle 407132" width="73" height="73" transform="translate(275.328 9379.664)" fill="#fff" stroke="#707070" stroke-width="1"/>
    </clipPath>
    <clipPath id="clip-path-2">
      <rect id="Rectangle_407129" data-name="Rectangle 407129" width="63.475" height="70.682" fill="#fff" stroke="#3d034b" stroke-width="3"/>
    </clipPath>
    <clipPath id="clip-path-3">
      <rect id="Rectangle_407131" data-name="Rectangle 407131" width="42.467" height="44.002" transform="translate(-0.323 -0.376)" fill="#3a2292" stroke="#707070" stroke-width="1"/>
    </clipPath>
    <clipPath id="clip-path-4">
      <rect id="Rectangle_407668" data-name="Rectangle 407668" width="39.695" height="35.961" fill="#3a2292"/>
    </clipPath>
  </defs>
  <g id="Group_1114980" data-name="Group 1114980" transform="translate(-180 -2825.147)">
    <rect id="Rectangle_407121" data-name="Rectangle 407121" width="104.668" height="126" transform="translate(180 2825.147)" fill="#3a2292"/>
    <g id="Mask_Group_1110927" data-name="Mask Group 1110927" transform="translate(-79.328 -6528.018)" clip-path="url(#clip-path)">
      <g id="Group_1114149" data-name="Group 1114149" transform="translate(280.131 9380.624)" clip-path="url(#clip-path-2)">
        <path id="Path_918191" data-name="Path 918191" d="M27.452,63.948A42.13,42.13,0,0,1,6.56,49.078,35.558,35.558,0,0,1,.011,31.658C0,31.568,0,31.482,0,31.392V10.025a3.181,3.181,0,0,1,2.824-3.04C10.9,5.713,22.791,1.815,27.528.2a3.73,3.73,0,0,1,2.393,0C33.635,1.458,46.4,5.675,54.771,6.987a3.179,3.179,0,0,1,2.825,3.04V31.391c0,.09,0,.176-.013.264A35.552,35.552,0,0,1,51.037,49.08c-6.024,8.366-16.761,13.146-21.1,14.814a3.7,3.7,0,0,1-2.488.057" transform="translate(2.939 3.272)" fill="#fff" stroke="#ff85e7" stroke-width="3"/>
      </g>
      <g id="Mask_Group_1110926" data-name="Mask Group 1110926" transform="translate(291.362 9392.394)" clip-path="url(#clip-path-3)">
        <g id="Group_1114685" data-name="Group 1114685" transform="translate(1.677 3.624)">
          <g id="Group_1114684" data-name="Group 1114684" clip-path="url(#clip-path-4)">
            <path id="Path_919763" data-name="Path 919763" d="M196.6,13.17h-2.608a.869.869,0,1,1,0-1.738H196.6a.418.418,0,0,0,.334-.2.3.3,0,0,0,0-.334L191.381,1.67a.4.4,0,0,0-.268-.067.267.267,0,0,0-.267.133L185.3,10.963a.3.3,0,0,0,0,.334.416.416,0,0,0,.334.2h2.54a.869.869,0,1,1,0,1.739h-2.607a1.928,1.928,0,0,1-1.738-1.07,2.087,2.087,0,0,1,.067-2.073L189.375.935a2.082,2.082,0,0,1,3.477,0l5.549,9.226a2.083,2.083,0,0,1,.067,2.073,2.168,2.168,0,0,1-1.872.936" transform="translate(-159.016 0.001)" fill="#3a2292"/>
            <path id="Path_919764" data-name="Path 919764" d="M88.474,212.013h-11.6a.743.743,0,0,1-.6-.3.839.839,0,0,1-.121-.665l2.175-7.25a.78.78,0,0,1,.725-.544H86.3a.781.781,0,0,1,.725.544l2.175,7.25a.84.84,0,0,1-.121.665.744.744,0,0,1-.6.3M77.9,210.5h9.546l-1.692-5.74H79.593Z" transform="translate(-65.937 -176.052)" fill="#3a2292"/>
            <path id="Path_919765" data-name="Path 919765" d="M120.766,182.818a.785.785,0,1,1-.785-.785.8.8,0,0,1,.785.785" transform="translate(-103.244 -157.673)" fill="#3a2292"/>
            <path id="Path_919766" data-name="Path 919766" d="M68.4,258.551H49.548a.785.785,0,1,1,0-1.571H68.4a.8.8,0,0,1,.785.785.844.844,0,0,1-.785.785" transform="translate(-42.237 -222.59)" fill="#3a2292"/>
            <path id="Path_919767" data-name="Path 919767" d="M5.861,166.448H.786a.785.785,0,1,1,0-1.571H5.861a.788.788,0,0,1,0,1.571" transform="translate(0 -142.813)" fill="#3a2292"/>
            <path id="Path_919768" data-name="Path 919768" d="M94.421,166.448h-23.2a.785.785,0,0,1,0-1.571h23.2a.785.785,0,0,1,0,1.571" transform="translate(-61.008 -142.813)" fill="#3a2292"/>
            <path id="Path_919769" data-name="Path 919769" d="M234.229,35.93a.885.885,0,0,1-.869-.869V29.846a.869.869,0,0,1,1.738,0v5.215a.935.935,0,0,1-.869.869" transform="translate(-202.131 -25.099)" fill="#3a2292"/>
            <path id="Path_919770" data-name="Path 919770" d="M234.663,90.534h-.134c-.067,0-.134,0-.134-.067-.067,0-.067-.067-.134-.067s-.067-.067-.134-.133l-.134-.134c0-.067-.067-.067-.067-.133a.233.233,0,0,0-.067-.134V89.6c0-.067,0-.133.067-.133,0-.067.067-.067.067-.134s.067-.067.134-.133l.134-.134c.067,0,.067-.067.134-.067a.234.234,0,0,0,.134-.067h.334c.067,0,.134,0,.134.067.067,0,.067.067.134.067s.067.067.134.134l.134.133c0,.067.067.067.067.134a.233.233,0,0,0,.067.133v.267s0,.134-.067.134c0,.067-.067.067-.067.133s-.067.067-.134.134l-.134.133c-.067,0-.067.067-.134.067a.233.233,0,0,0-.134.067Z" transform="translate(-202.565 -77.028)" fill="#3a2292"/>
            <path id="Path_919771" data-name="Path 919771" d="M33.019,31.376V43a1.059,1.059,0,0,1-1.027,1.027h-29A1.059,1.059,0,0,1,1.963,43V21.972A1.059,1.059,0,0,1,2.99,20.945v.06H26.634l1-1.511H2.99A2.553,2.553,0,0,0,.453,22.033V43.059A2.553,2.553,0,0,0,2.99,45.6h29a2.553,2.553,0,0,0,2.538-2.537V31.33Z" transform="translate(-0.392 -16.886)" fill="#3a2292"/>
            <path id="Path_919772" data-name="Path 919772" d="M44.93,42.97H23.362a.8.8,0,0,0-.785.786V60.13a.785.785,0,1,0,1.571,0V44.481h19.78Z" transform="translate(-19.556 -37.22)" fill="#3a2292"/>
            <path id="Path_919773" data-name="Path 919773" d="M220.329,108.736v8.257a.8.8,0,0,0,.785.785.834.834,0,0,0,.786-.725v-8.365Z" transform="translate(-190.844 -94.143)" fill="#3a2292"/>
            <path id="Path_919774" data-name="Path 919774" d="M101.9,80.79h-.934a4.712,4.712,0,0,0-.332-1.278l1.088-1.088a.568.568,0,0,0-.8-.8l-.9.9a3.374,3.374,0,0,0-.4-.406,1.652,1.652,0,0,0,.268-.937,1.905,1.905,0,0,0-1.92-1.92,1.934,1.934,0,0,0-1.919,1.92,1.758,1.758,0,0,0,.268.937,3.27,3.27,0,0,0-.4.407l-.9-.9a.568.568,0,0,0-.8.8l1.093,1.094a4.8,4.8,0,0,0-.335,1.272h-.892a.58.58,0,1,0,0,1.16h.882a4.747,4.747,0,0,0,.307,1.231l-.966.644a.55.55,0,0,0-.134.759.49.49,0,0,0,.446.268.482.482,0,0,0,.313-.134l.88-.587a2.569,2.569,0,0,0,4.287.029l.9.6a.83.83,0,0,0,.312.089.549.549,0,0,0,.447-.223.526.526,0,0,0-.134-.759l-.977-.651a4.585,4.585,0,0,0,.32-1.268h.925a.624.624,0,0,0,.581-.58.591.591,0,0,0-.581-.58m-3.928,3.437c-1.071,0-1.919-1.294-1.919-2.812a2.905,2.905,0,0,1,1.339-2.678.538.538,0,0,0,.313-.447.569.569,0,0,0-.223-.491.782.782,0,0,1-.313-.625.8.8,0,1,1,1.607,0,.782.782,0,0,1-.313.625.523.523,0,0,0-.223.491.537.537,0,0,0,.312.447,2.955,2.955,0,0,1,1.339,2.678c0,1.518-.848,2.812-1.92,2.812" transform="translate(-80.991 -65.184)" fill="#3a2292"/>
          </g>
        </g>
      </g>
    </g>
  </g>
</svg>
