<svg xmlns="http://www.w3.org/2000/svg" xmlns:xlink="http://www.w3.org/1999/xlink" width="178" height="178" viewBox="0 0 178 178">
  <defs>
    <clipPath id="clip-path">
      <rect id="Rectangle_407549" data-name="Rectangle 407549" width="92.5" height="95.493" fill="none"/>
    </clipPath>
  </defs>
  <g id="Group_1114938" data-name="Group 1114938" transform="translate(8402.926 9940.001)">
    <g id="Group_1114023" data-name="Group 1114023" transform="translate(-8402.926 -9940)">
      <path id="Path_882862" data-name="Path 882862" d="M89,0A89,89,0,1,1,0,89,89,89,0,0,1,89,0Z" transform="translate(0 -0.001)" fill="#c0afff"/>
      <path id="Path_882863" data-name="Path 882863" d="M78.668,0A78.668,78.668,0,1,1,0,78.668,78.668,78.668,0,0,1,78.668,0Z" transform="translate(10.332 10.331)" fill="#f3f9ff"/>
    </g>
    <g id="Group_1114025" data-name="Group 1114025" transform="translate(-8363.926 -9901)">
      <rect id="Rectangle_401104" data-name="Rectangle 401104" width="99.117" height="100.574" fill="none"/>
      <g id="Group_1114633" data-name="Group 1114633" transform="translate(3.926 3)">
        <g id="Group_1114632" data-name="Group 1114632" transform="translate(0 0)" clip-path="url(#clip-path)">
          <path id="Path_919212" data-name="Path 919212" d="M55.774,64.714H42.3a1,1,0,1,1,0-2H54.775V36.6a1,1,0,0,1,2,0V63.715a1.075,1.075,0,0,1-1,1" transform="translate(27.408 23.626)" fill="#c0afff"/>
          <path id="Path_919213" data-name="Path 919213" d="M20.174,64.714H6.7a1.073,1.073,0,0,1-1-1V36.6a1.073,1.073,0,0,1,1-1,1.074,1.074,0,0,1,1,1V62.551H20.174a1.073,1.073,0,0,1,1,1,1.113,1.113,0,0,1-1,1.165" transform="translate(3.783 23.626)" fill="#c0afff"/>
          <path id="Path_919214" data-name="Path 919214" d="M60.15,60.078a3.514,3.514,0,0,1-3.5,3.494H17.894A3.513,3.513,0,0,1,14.4,60.078V51.592A3.514,3.514,0,0,1,17.894,48.1H56.655a3.514,3.514,0,0,1,3.5,3.492Z" transform="translate(9.556 31.921)" fill="#3a2292"/>
          <path id="Path_919215" data-name="Path 919215" d="M60.15,39.094V47.58a3.513,3.513,0,0,1-3.5,3.492H17.894A3.513,3.513,0,0,1,14.4,47.58V39.094A3.515,3.515,0,0,1,17.894,35.6H56.655a3.515,3.515,0,0,1,3.5,3.494" transform="translate(9.556 23.626)" fill="#3a2292"/>
          <path id="Path_919216" data-name="Path 919216" d="M20.163,51.2A2.662,2.662,0,1,1,17.5,53.863,2.664,2.664,0,0,1,20.163,51.2" transform="translate(11.614 33.978)" fill="#8fe269"/>
          <path id="Path_919217" data-name="Path 919217" d="M20.163,38.7A2.662,2.662,0,1,1,17.5,41.363,2.664,2.664,0,0,1,20.163,38.7" transform="translate(11.614 25.683)" fill="#8fe269"/>
          <rect id="Rectangle_407548" data-name="Rectangle 407548" width="27.117" height="5.157" transform="translate(33.273 74.865)" fill="#170551"/>
          <path id="Path_919218" data-name="Path 919218" d="M55.3,40.6a1.5,1.5,0,1,1-1.5,1.5,1.5,1.5,0,0,1,1.5-1.5" transform="translate(35.704 26.944)" fill="#4d3aff"/>
          <path id="Path_919219" data-name="Path 919219" d="M54.7,13.7a1.5,1.5,0,1,1-1.5,1.5,1.5,1.5,0,0,1,1.5-1.5" transform="translate(35.306 9.092)" fill="#4d3aff"/>
          <path id="Path_919220" data-name="Path 919220" d="M53.722,1.8A6.322,6.322,0,1,1,47.4,8.122,6.321,6.321,0,0,1,53.722,1.8" transform="translate(31.456 1.195)" fill="#d49cfe"/>
          <path id="Path_919221" data-name="Path 919221" d="M74.5,25.454a13.808,13.808,0,0,1,0,27.616H15.61a13.816,13.816,0,0,1-.667-27.616,19.137,19.137,0,0,1-1.331-6.821A18.6,18.6,0,0,1,32.246,0a18.837,18.837,0,0,1,17.8,12.976,13.611,13.611,0,0,1,8.819-3.161A13.774,13.774,0,0,1,72.671,23.624a9.486,9.486,0,0,1-.166,2.163,3.907,3.907,0,0,1,2-.333" transform="translate(1.195 0)" fill="#6bfcf2"/>
          <path id="Path_919222" data-name="Path 919222" d="M45.3,45.6a1.5,1.5,0,1,1-1.5,1.5,1.5,1.5,0,0,1,1.5-1.5" transform="translate(29.067 30.262)" fill="#4d3aff"/>
          <path id="Path_919223" data-name="Path 919223" d="M44.7,1.2a1.5,1.5,0,1,1-1.5,1.5,1.5,1.5,0,0,1,1.5-1.5" transform="translate(28.67 0.797)" fill="#4d3aff"/>
          <path id="Path_919224" data-name="Path 919224" d="M10.3,38.1a1.5,1.5,0,1,1-1.5,1.5,1.5,1.5,0,0,1,1.5-1.5" transform="translate(5.84 25.285)" fill="#4d3aff"/>
          <path id="Path_919225" data-name="Path 919225" d="M5.159,2.5A5.157,5.157,0,1,1,0,7.657,5.157,5.157,0,0,1,5.159,2.5" transform="translate(0 1.659)" fill="#d49cfe"/>
          <path id="Path_919226" data-name="Path 919226" d="M2.2,13.7A1.5,1.5,0,1,1,.7,15.2a1.5,1.5,0,0,1,1.5-1.5" transform="translate(0.465 9.092)" fill="#4d3aff"/>
          <path id="Path_919227" data-name="Path 919227" d="M2.962,53.749a1.421,1.421,0,0,1,0,2.163,1.419,1.419,0,0,1-2.163,0,1.419,1.419,0,0,1,0-2.163,1.745,1.745,0,0,1,2.163,0" transform="translate(0.199 35.422)" fill="#4d3aff"/>
          <path id="Path_919228" data-name="Path 919228" d="M12.6,18.038a1.073,1.073,0,0,1-1-1A14.661,14.661,0,0,1,26.24,2.4a1.073,1.073,0,0,1,1,1,1.073,1.073,0,0,1-1,1A12.568,12.568,0,0,0,13.763,16.874c-.166.832-.665,1.165-1.165,1.165" transform="translate(7.698 1.593)" fill="#3cbaeb"/>
          <path id="Path_919229" data-name="Path 919229" d="M50.533,27.6H14.1a1,1,0,1,1,0-2H50.533a1.073,1.073,0,0,1,1,1,.96.96,0,0,1-1,1" transform="translate(8.694 16.989)" fill="#3cbaeb"/>
          <path id="Path_919230" data-name="Path 919230" d="M49.693,24.5H27.9a1,1,0,0,1,0-2h21.8a1.073,1.073,0,0,1,1,1,.96.96,0,0,1-1,1" transform="translate(17.853 14.932)" fill="#3cbaeb"/>
          <path id="Path_919231" data-name="Path 919231" d="M48.056,54.2H24.1a1,1,0,1,1,0-2H48.056a1.075,1.075,0,0,1,1,1,.96.96,0,0,1-1,1" transform="translate(15.331 34.642)" fill="#e9efff"/>
          <path id="Path_919232" data-name="Path 919232" d="M48.056,41.7H24.1a1,1,0,1,1,0-2H48.056a1.075,1.075,0,0,1,1,1,.96.96,0,0,1-1,1" transform="translate(15.331 26.347)" fill="#e9efff"/>
          <path id="Path_919233" data-name="Path 919233" d="M23.262,51.2A2.662,2.662,0,1,1,20.6,53.863,2.663,2.663,0,0,1,23.262,51.2" transform="translate(13.671 33.978)" fill="#fe5a5a"/>
          <path id="Path_919234" data-name="Path 919234" d="M23.262,38.7A2.662,2.662,0,1,1,20.6,41.363,2.663,2.663,0,0,1,23.262,38.7" transform="translate(13.671 25.683)" fill="#fe5a5a"/>
        </g>
      </g>
    </g>
  </g>
</svg>
