<svg xmlns="http://www.w3.org/2000/svg" xmlns:xlink="http://www.w3.org/1999/xlink" width="178" height="178" viewBox="0 0 178 178">
  <defs>
    <clipPath id="clip-path">
      <rect id="Rectangle_407597" data-name="Rectangle 407597" width="97.215" height="93.628" fill="none"/>
    </clipPath>
  </defs>
  <g id="Group_1114940" data-name="Group 1114940" transform="translate(-358.785 -3553.999)">
    <g id="Group_1114081" data-name="Group 1114081" transform="translate(358.785 3554)">
      <path id="Path_882862" data-name="Path 882862" d="M89,0A89,89,0,1,1,0,89,89,89,0,0,1,89,0Z" transform="translate(0 -0.001)" fill="#c0afff"/>
      <path id="Path_882863" data-name="Path 882863" d="M78.668,0A78.668,78.668,0,1,1,0,78.668,78.668,78.668,0,0,1,78.668,0Z" transform="translate(10.332 10.331)" fill="#f3f9ff"/>
    </g>
    <g id="Group_1114084" data-name="Group 1114084" transform="translate(397.785 3593)">
      <rect id="Rectangle_401104" data-name="Rectangle 401104" width="99.117" height="100.574" transform="translate(-0.074)" fill="none"/>
      <g id="Group_1114666" data-name="Group 1114666" transform="translate(0.926 0)">
        <g id="Group_1114665" data-name="Group 1114665" transform="translate(0 0)" clip-path="url(#clip-path)">
          <path id="Path_919439" data-name="Path 919439" d="M35.9,35.887a16.9,16.9,0,0,1,15.865,10.97,17.4,17.4,0,0,1,1.011,5.906,20.574,20.574,0,0,1-1.181,6.415H20.2v-.17a15.243,15.243,0,0,1-1.181-6.245,17.4,17.4,0,0,1,1.011-5.906A16.9,16.9,0,0,1,35.9,35.887L31.676,46.52,35.9,50.737l4.218-4.218Z" transform="translate(12.712 23.987)" fill="#ff85e7"/>
          <path id="Path_919440" data-name="Path 919440" d="M46.137,59.178h-7.6a16.068,16.068,0,0,0,1.181-6.415,17.4,17.4,0,0,0-1.011-5.906,16.9,16.9,0,0,1,15.865-10.97L50.355,46.52l4.221,4.218L58.8,46.52,54.576,35.887A16.928,16.928,0,0,1,71.454,52.763a20.528,20.528,0,0,1-1.183,6.415H46.137Z" transform="translate(25.761 23.987)" fill="#c0afff"/>
          <path id="Path_919441" data-name="Path 919441" d="M.1,52.763A16.926,16.926,0,0,1,16.979,35.887L12.759,46.52l4.219,4.218L21.2,46.52,16.979,35.887a16.9,16.9,0,0,1,15.865,10.97,17.4,17.4,0,0,0-1.011,5.906,19.451,19.451,0,0,0,1.181,6.245l-.34.17H1.282A16.068,16.068,0,0,1,.1,52.763" transform="translate(0.068 23.987)" fill="#c0afff"/>
          <path id="Path_919442" data-name="Path 919442" d="M49.842,35.887,54.061,46.52l-4.219,4.218L45.622,46.52Z" transform="translate(30.494 23.987)" fill="#3a2292"/>
          <path id="Path_919443" data-name="Path 919443" d="M30.824,35.887,35.042,46.52l-4.218,4.218L26.6,46.52Z" transform="translate(17.783 23.987)" fill="#3a2292"/>
          <path id="Path_919444" data-name="Path 919444" d="M11.907,35.887,16.127,46.52l-4.219,4.218L7.688,46.52Z" transform="translate(5.139 23.987)" fill="#3a2292"/>
          <path id="Path_919445" data-name="Path 919445" d="M8.063,11.912a4.219,4.219,0,0,1,0,8.439,4.219,4.219,0,1,1,0-8.439" transform="translate(2.569 7.962)" fill="#6bfcf2"/>
          <path id="Path_919446" data-name="Path 919446" d="M53.383,11.912a5.231,5.231,0,1,1-5.232,5.232,5.153,5.153,0,0,1,5.232-5.232" transform="translate(32.185 7.962)" fill="#6bfcf2"/>
          <path id="Path_919447" data-name="Path 919447" d="M51.532,25.771a8.439,8.439,0,1,1-8.439,8.439,8.44,8.44,0,0,1,8.439-8.439" transform="translate(28.804 17.225)" fill="#ffd8a8"/>
          <path id="Path_919448" data-name="Path 919448" d="M32.515,25.771a8.439,8.439,0,1,1-8.44,8.439,8.44,8.44,0,0,1,8.44-8.439" transform="translate(16.092 17.225)" fill="#ffd8a8"/>
          <path id="Path_919449" data-name="Path 919449" d="M13.6,25.771A8.439,8.439,0,1,1,5.159,34.21,8.44,8.44,0,0,1,13.6,25.771" transform="translate(3.448 17.225)" fill="#ffd8a8"/>
          <path id="Path_919450" data-name="Path 919450" d="M55.3,5.539A2.233,2.233,0,0,1,57.5,7.731a2.194,2.194,0,1,1-4.388,0A2.356,2.356,0,0,1,55.3,5.539" transform="translate(35.498 3.702)" fill="#6bfcf2"/>
          <path id="Path_919451" data-name="Path 919451" d="M43.973,5.539a2.194,2.194,0,1,1-2.194,2.192,2.231,2.231,0,0,1,2.194-2.192" transform="translate(27.925 3.702)" fill="#6bfcf2"/>
          <path id="Path_919452" data-name="Path 919452" d="M14.84,5.539a2.194,2.194,0,0,1,0,4.388,2.237,2.237,0,0,1-2.2-2.2,2.359,2.359,0,0,1,2.2-2.192" transform="translate(8.451 3.702)" fill="#6bfcf2"/>
          <path id="Path_919453" data-name="Path 919453" d="M3.509,22.027a2.195,2.195,0,0,1,0,4.39,2.236,2.236,0,0,1-2.194-2.2,2.128,2.128,0,0,1,2.194-2.194" transform="translate(0.879 14.723)" fill="#6bfcf2"/>
          <path id="Path_919454" data-name="Path 919454" d="M95.019,57.876H2.192a2.194,2.194,0,0,1,0-4.388H95.019a2.234,2.234,0,0,1,2.194,2.192,2.128,2.128,0,0,1-2.194,2.2" transform="translate(0 35.751)" fill="#170551"/>
          <path id="Path_919455" data-name="Path 919455" d="M48.044,31.9l-.676.676L42.812,29.7a13.057,13.057,0,0,1-4.219,1.688l-1.351,5.4H33.868l-1.183-5.23a15.727,15.727,0,0,1-4.219-1.688l-4.725,2.7-.676-.676L21.21,30.041l2.868-4.556a13,13,0,0,1-1.687-4.219l-5.234-1.181V16.541l5.234-1.183a15.78,15.78,0,0,1,1.687-4.219L21.21,6.582l2.531-2.531L28.3,6.921a13,13,0,0,1,4.219-1.688L33.7,0h3.544l1.183,5.232a15.749,15.749,0,0,1,4.219,1.688L47.2,4.051l2.531,2.531-2.868,4.556a13.053,13.053,0,0,1,1.687,4.219l5.232,1.183v3.544L48.55,21.266a15.78,15.78,0,0,1-1.687,4.219l2.868,4.556ZM41.968,18.4a6.413,6.413,0,1,0-6.413,6.413A6.411,6.411,0,0,0,41.968,18.4" transform="translate(11.468 -0.001)" fill="#3a2292"/>
        </g>
      </g>
    </g>
  </g>
</svg>
