<svg xmlns="http://www.w3.org/2000/svg" xmlns:xlink="http://www.w3.org/1999/xlink" width="129" height="128" viewBox="0 0 129 128">
  <defs>
    <radialGradient id="radial-gradient" cx="0.5" cy="0.5" r="0.5" gradientUnits="objectBoundingBox">
      <stop offset="0" stop-color="#3a2292"/>
      <stop offset="1" stop-color="#170551"/>
    </radialGradient>
    <clipPath id="clip-path">
      <rect id="Rectangle_406617" data-name="Rectangle 406617" width="109.997" height="109.997" stroke="rgba(0,0,0,0)" stroke-miterlimit="10" stroke-width="1" fill="url(#radial-gradient)"/>
    </clipPath>
    <clipPath id="clip-path-2">
      <rect id="Rectangle_400938" data-name="Rectangle 400938" width="120" height="120" fill="none"/>
    </clipPath>
    <clipPath id="clip-path-3">
      <rect id="Rectangle_407561" data-name="Rectangle 407561" width="72.554" height="73.491" fill="#fff"/>
    </clipPath>
  </defs>
  <g id="Group_1114060" data-name="Group 1114060" transform="translate(-390 -2746)">
    <g id="Grupo_108927" data-name="Grupo 108927" transform="translate(0 -1721)">
      <path id="Rectángulo_36179" data-name="Rectángulo 36179" d="M0,0H129V128H0Z" transform="translate(390 4467)" fill="#eae5ff"/>
    </g>
    <g id="Group_1112835" data-name="Group 1112835" transform="translate(400 2755)">
      <g id="Group_1112834" data-name="Group 1112834" clip-path="url(#clip-path)">
        <path id="Path_917479" data-name="Path 917479" d="M108.876,65.415l-5.382-4.43a48.4,48.4,0,0,0-.549-15.468l5.04-4.8a3.066,3.066,0,0,0,.674-3.5l-5.11-11.178a3.073,3.073,0,0,0-2.788-1.791c-.1,0-.2,0-.3.014l-6.94.673A49.134,49.134,0,0,0,82.2,14.391l.171-6.957a3.068,3.068,0,0,0-2-2.949L68.855.194A3.059,3.059,0,0,0,67.784,0h0A3.054,3.054,0,0,0,65.415,1.12L60.984,6.5a48.4,48.4,0,0,0-15.467.549l-4.8-5.04A3.082,3.082,0,0,0,38.5,1.059a3.043,3.043,0,0,0-1.276.278L26.042,6.448a3.069,3.069,0,0,0-1.777,3.086l.673,6.942A49.125,49.125,0,0,0,14.389,27.8l-6.957-.171H7.356a3.079,3.079,0,0,0-2.873,2L.192,41.143a3.071,3.071,0,0,0,.923,3.438L6.5,49.013A48.4,48.4,0,0,0,7.051,64.48l-5.041,4.8a3.068,3.068,0,0,0-.673,3.5l5.11,11.178a3.074,3.074,0,0,0,2.789,1.792c.1,0,.2,0,.3-.014l6.942-.674A49.137,49.137,0,0,0,27.8,95.608l-.171,6.957a3.068,3.068,0,0,0,2,2.95l11.517,4.291a3.072,3.072,0,0,0,3.439-.926l4.431-5.383a48.394,48.394,0,0,0,15.467-.549l4.8,5.04a3.08,3.08,0,0,0,2.221.952,3.048,3.048,0,0,0,1.275-.277l11.18-5.111a3.07,3.07,0,0,0,1.777-3.087l-.673-6.941A49.121,49.121,0,0,0,95.606,82.2l6.957.171h.076a3.079,3.079,0,0,0,2.873-2L109.8,68.856a3.068,3.068,0,0,0-.927-3.44" transform="translate(0 0)" stroke="rgba(0,0,0,0)" stroke-miterlimit="10" stroke-width="1" fill="url(#radial-gradient)"/>
      </g>
    </g>
    <g id="Group_1110743" data-name="Group 1110743" transform="translate(420.432 2769.223)">
      <rect id="Rectangle_401104" data-name="Rectangle 401104" width="73.5" height="74.685" transform="translate(-2.431 3.777)" fill="none"/>
      <g id="Group_1114641" data-name="Group 1114641" transform="translate(-2.432 4.726)">
        <g id="Group_1114640" data-name="Group 1114640" transform="translate(0)" clip-path="url(#clip-path-3)">
          <path id="Path_919282" data-name="Path 919282" d="M55.716,6.1c1.342,1.593-3.04,3.823-3.954,4.955a28.868,28.868,0,0,0-1.824,4.207c.525.814,1.608,1.452,2.142,2.208.925,1.313-.318,3.559-.429,5.1,1.349.291,2.812,1.588,4.027,1.971.142.045.369.044.321-.1-.336-.86-1.4-1.982-1.514-2.851-.152-1.129.572-2.1.419-3.229-.137-1.006-1.747-2.951-1.326-3.948L61.6,8.7,72.1,13.13l.35.521.1,26.043C71.878,55.287,61.2,68.17,46.42,72.565c-4.767,1.417-6.663,1.144-11.366-.389-.934-.3-5.64-2.15-5.944-2.767-.4-.8,1.9-4.835,2.519-5.325.826-.652,3.284.269,4.349.221l.644-2.954c-.621.4-.843,1.381-1.64,1.525-1.12.2-3.048-.806-4.02-.327-.667.328-2.584,4.275-3.325,5.053-1.113.936-3.272-1.168-4.178-1.9A36.392,36.392,0,0,1,11.217,45.283c-.852-4.336-.728-8.568-.752-12.966C7.6,30.71,5.2,29.2,3.23,26.487c-9.5-13.077,3.521-30.522,18.864-25.4a20.8,20.8,0,0,1,6.758,4.261L41.485,0ZM15.244,2.622A14.256,14.256,0,0,0,3.814,22.856C8.5,33.024,23.166,33.721,28.824,24.044A14.226,14.226,0,0,0,15.244,2.622M52.516,7.134,41.522,2.574,30.315,7.457l1.65,2.957,9.361-3.936L49.38,9.747a11.057,11.057,0,0,0,3.136-2.614M48.6,11.924,41.522,9.078l-8.78,3.842A16.53,16.53,0,0,1,18.977,33.14c-.326.221-.252,5.283-.2,6.108A28.354,28.354,0,0,0,29.505,59.89l4.631.517c1.05-.811,3.334-5.2,4.35-5.372,1.42-.239,1.476.723,1.4,1.848-.109,1.613-1.635,6.477-1.316,7.6,2.349,1.136,4.244.6,6.591-.148A27.718,27.718,0,0,0,64.027,41.4c.884-7.271-.12-15.327.209-22.692l-8.018-3.3a13.371,13.371,0,0,1,1.075,2.515c.176,1.186-.531,2.541-.33,3.361.359,1.469,2.873,4.6,2.954,5.787.071,1.045-.747,1.566-1.745,1.3a87.874,87.874,0,0,1-8.2-4c-1.875-1.268.369-4.167-.107-5.765-.239-.805-2.5-1.977-2.571-3.112Zm21.516,2.863-8.168-3.471-3.33,2.239c-.01.617,7.4,2.8,7.89,3.862a1.814,1.814,0,0,1,.164.707C66.1,28.4,68.26,39.631,64.378,49.372A30.384,30.384,0,0,1,45.063,66.853c-3.85,1.116-3.723.478-7.264-.035-1.433-.208-3.079-.134-4.543-.467-.427.072-1.064,1.192-1.242,1.609-.1.24-.31.226.042.465,1.251.467,2.473,1.071,3.744,1.482,3.86,1.25,5.418,1.607,9.362.529a33.772,33.772,0,0,0,25-30.741ZM16.379,33.26l-3.485-.218c-.414,7.621.511,14.647,4.241,21.346a30.007,30.007,0,0,0,9.344,10.431L28.251,62c-8.9-6.905-12.739-17.6-11.873-28.741" transform="translate(0)" fill="#fff"/>
          <path id="Path_919283" data-name="Path 919283" d="M156.856,107.33a2.769,2.769,0,0,1,1.856,2.281c.579,4.814-.447,10.751,0,15.688a2.5,2.5,0,0,1-1.74,2.179H136.277a2.5,2.5,0,0,1-1.74-2.179c-.586-4.866.436-10.895.019-15.887a2.6,2.6,0,0,1,3.035-2.082c-.094-3.365-.167-6.631,2.064-9.367A9.017,9.017,0,0,1,154.688,99.7c.661,1.361,1.57,5.737.549,6.881-.389.436-4.463.471-5.021.205-.99-.472-.552-2.579-.652-3.485a3.021,3.021,0,0,0-5.228-1.745,8.027,8.027,0,0,0-.65,1.092v4.682Zm-16.872-4.464a38.515,38.515,0,0,0,0,4.137c0,.432,1.306.432,1.306,0v-4.573c0-.738,1.346-2.529,1.978-3.03a5.405,5.405,0,0,1,8.688,5.1h1.308c.2-5.309-4.663-9.106-9.662-6.724a7.049,7.049,0,0,0-3.619,5.09m16.328,6.859H136.937v15.46h19.375Z" transform="translate(-105.102 -74.069)" fill="#fff"/>
          <path id="Path_919284" data-name="Path 919284" d="M64.417,21.625c2.125-.441,4.115.6,4.2,2.9.085,2.22-.319,5.322-.44,7.611-.119,2.244.647,5.8-2.757,5.911-2.5.078-2.776-2.267-2.9-4.173-.215-3.235-.1-6.735-.2-9.995a2.838,2.838,0,0,1,2.1-2.256m1.365,13.887.442-10.994c-.093-.778-.939-.529-1.53-.549l.417,11.414Z" transform="translate(-48.752 -16.838)" fill="#fff"/>
          <path id="Path_919285" data-name="Path 919285" d="M64.493,102.667c4.911-1,5.434,6.963.187,6.245-3.491-.478-3.225-5.626-.187-6.245m1.334,3.838a.933.933,0,0,0-.339-1.458c-1.611-.477-1,2.311.339,1.458" transform="translate(-48.61 -80.243)" fill="#fff"/>
          <path id="Path_919286" data-name="Path 919286" d="M173.922,168.757a4.538,4.538,0,0,1,4.858,6.381c-.252.551-.925,1.1-1.046,1.567a24.113,24.113,0,0,0-.073,2.54,2.912,2.912,0,0,1-5.467,1.152c-.762-1.414-.091-2.5-.438-3.7-.1-.359-.854-1.007-1.083-1.53a4.644,4.644,0,0,1,3.248-6.412m.276,6.807a26.973,26.973,0,0,1,0,3.7c0,.41,1.089.41,1.089,0v-3.7c0-.268,1.667-.97,1.512-2.586-.234-2.442-3.956-2.515-4.138-.024-.127,1.741,1.359,1.983,1.537,2.61" transform="translate(-133.22 -131.958)" fill="#fff"/>
        </g>
      </g>
    </g>
  </g>
</svg>
