<svg id="Group_1114512" data-name="Group 1114512" xmlns="http://www.w3.org/2000/svg" xmlns:xlink="http://www.w3.org/1999/xlink" width="119" height="119" viewBox="0 0 119 119">
  <defs>
    <clipPath id="clip-path">
      <rect id="Rectangle_406617" data-name="Rectangle 406617" width="119" height="119" fill="#170551" stroke="rgba(0,0,0,0)" stroke-miterlimit="10" stroke-width="1"/>
    </clipPath>
    <clipPath id="clip-path-2">
      <rect id="Rectangle_407875" data-name="Rectangle 407875" width="65.346" height="61.254" fill="#fff"/>
    </clipPath>
  </defs>
  <g id="Group_1113263" data-name="Group 1113263" transform="translate(0 0)">
    <g id="Group_1112834" data-name="Group 1112834" transform="translate(0 0)" clip-path="url(#clip-path)">
      <path id="Path_917479" data-name="Path 917479" d="M118.163,71l-5.841-4.807a52.529,52.529,0,0,0-.6-16.787l5.47-5.208a3.328,3.328,0,0,0,.732-3.8l-5.546-12.131a3.335,3.335,0,0,0-3.026-1.944c-.108,0-.217,0-.325.015l-7.532.731A53.325,53.325,0,0,0,89.209,15.619l.185-7.551a3.329,3.329,0,0,0-2.166-3.2L74.728.21A3.32,3.32,0,0,0,73.566,0h0a3.315,3.315,0,0,0-2.57,1.214L66.186,7.057a52.524,52.524,0,0,0-16.786.6l-5.208-5.47A3.344,3.344,0,0,0,41.78,1.15a3.3,3.3,0,0,0-1.385.3L28.264,7a3.33,3.33,0,0,0-1.929,3.35l.731,7.534a53.315,53.315,0,0,0-11.449,12.29l-7.55-.185-.083,0a3.342,3.342,0,0,0-3.119,2.169L.208,44.652a3.333,3.333,0,0,0,1,3.731l5.846,4.811a52.523,52.523,0,0,0,.6,16.786L2.181,75.188a3.329,3.329,0,0,0-.731,3.8L7,91.116a3.336,3.336,0,0,0,3.027,1.945c.107,0,.215,0,.323-.015l7.534-.732a53.328,53.328,0,0,0,12.289,11.449l-.185,7.55a3.329,3.329,0,0,0,2.167,3.2l12.5,4.657a3.334,3.334,0,0,0,3.733-1l4.809-5.843a52.521,52.521,0,0,0,16.786-.6l5.208,5.47a3.343,3.343,0,0,0,2.41,1.034,3.308,3.308,0,0,0,1.384-.3l12.134-5.547a3.332,3.332,0,0,0,1.929-3.35l-.731-7.533a53.311,53.311,0,0,0,11.449-12.29l7.551.185h.082a3.342,3.342,0,0,0,3.119-2.167l4.657-12.5A3.329,3.329,0,0,0,118.163,71" transform="translate(0 -0.38)" fill="#170551" stroke="rgba(0,0,0,0)" stroke-miterlimit="10" stroke-width="1"/>
    </g>
  </g>
  <g id="Group_1111310" data-name="Group 1111310" transform="translate(25.025 24.557)">
    <rect id="Rectangle_401104" data-name="Rectangle 401104" width="64.968" height="66.017" transform="translate(2.686 0.292)" fill="none"/>
    <g id="Group_1114862" data-name="Group 1114862" transform="translate(1.687 3.292)">
      <g id="Group_1114861" data-name="Group 1114861" transform="translate(0 0)" clip-path="url(#clip-path-2)">
        <path id="Path_920846" data-name="Path 920846" d="M33.606,46.242a3.864,3.864,0,1,1,3.864-3.864,3.982,3.982,0,0,1-3.864,3.864m0-4.886a1.022,1.022,0,1,0,1.022,1.022,1.2,1.2,0,0,0-1.022-1.022" transform="translate(3.782 4.898)" fill="#fff"/>
        <path id="Path_920847" data-name="Path 920847" d="M52.5,44.093H49.662a1.5,1.5,0,0,1-1.477-1.477v-4.2H26.48v4.2A1.5,1.5,0,0,1,25,44.093H9.546C3.978,42.5,0,36.82,0,30.456A13.535,13.535,0,0,1,9.66,17.5,11.13,11.13,0,0,1,20.684,7.273a9.818,9.818,0,0,1,3.182.455A15.02,15.02,0,0,1,28.98,2.5,15.793,15.793,0,0,1,53.3,15.91v1.022a13.445,13.445,0,0,1,12.046,13.41A13.48,13.48,0,0,1,52.5,44.093m-1.364-2.84H52.5a10.753,10.753,0,0,0-.568-21.478h-.228a2.016,2.016,0,0,1-1.136-.455,2.194,2.194,0,0,1-.34-1.135,13.9,13.9,0,0,0,.227-2.16,12.994,12.994,0,0,0-24.66-5.8,1.369,1.369,0,0,1-1.818.682A8.2,8.2,0,0,0,12.5,18.41v.228a1.572,1.572,0,0,1-1.137,1.478A10.711,10.711,0,0,0,2.842,30.57c0,5,3.068,9.546,7.274,10.8H23.638V37.162a1.5,1.5,0,0,1,1.478-1.478H49.662a1.5,1.5,0,0,1,1.478,1.478Z" transform="translate(0 0)" fill="#fff"/>
        <path id="Path_920848" data-name="Path 920848" d="M33.307,57.242c-6.831,0-12.337-6.137-12.337-13.752V33.035A1.433,1.433,0,0,1,22.3,31.558h22.02a1.433,1.433,0,0,1,1.326,1.477V43.49c0,7.614-5.608,13.752-12.336,13.752M23.52,34.512V43.49c0,6.022,4.384,10.91,9.787,10.91s9.786-4.887,9.786-10.91V34.512Z" transform="translate(2.667 4.013)" fill="#fff"/>
        <path id="Path_920849" data-name="Path 920849" d="M33.337,48.09a1.5,1.5,0,0,1-1.478-1.478V44.226a1.478,1.478,0,0,1,2.955,0v2.386a1.685,1.685,0,0,1-1.478,1.478" transform="translate(4.052 5.436)" fill="#fff"/>
        <path id="Path_920850" data-name="Path 920850" d="M43.087,35.756H25.473a1.505,1.505,0,0,1-1.478-1.478V31.892A10.108,10.108,0,0,1,34.224,21.778a10.744,10.744,0,0,1,6.364,2.159,10.015,10.015,0,0,1,3.863,7.956v2.386a1.41,1.41,0,0,1-1.364,1.478M26.95,32.914H41.723V31.892A7.44,7.44,0,0,0,34.337,24.5a7.44,7.44,0,0,0-7.386,7.388Z" transform="translate(3.052 2.769)" fill="#fff"/>
        <path id="Path_920851" data-name="Path 920851" d="M6.738,50.477a4.318,4.318,0,1,1,4.318-4.318,4.316,4.316,0,0,1-4.318,4.318m0-5.682a1.477,1.477,0,1,0,1.477,1.478A1.432,1.432,0,0,0,6.738,44.8" transform="translate(0.308 5.321)" fill="#fff"/>
        <path id="Path_920852" data-name="Path 920852" d="M54.1,50.632a5,5,0,1,1,5-5,5.046,5.046,0,0,1-5,5m0-7.16a2.159,2.159,0,0,0-2.16,2.16,2.16,2.16,0,0,0,4.319,0,2.159,2.159,0,0,0-2.16-2.16" transform="translate(6.244 5.167)" fill="#fff"/>
      </g>
    </g>
  </g>
</svg>
