<svg xmlns="http://www.w3.org/2000/svg" xmlns:xlink="http://www.w3.org/1999/xlink" width="104.668" height="126" viewBox="0 0 104.668 126">
  <defs>
    <clipPath id="clip-path">
      <rect id="Rectangle_407157" data-name="Rectangle 407157" width="73" height="73" transform="translate(275.328 9379.664)" fill="#fff" stroke="#707070" stroke-width="1"/>
    </clipPath>
    <clipPath id="clip-path-2">
      <rect id="Rectangle_407154" data-name="Rectangle 407154" width="63.475" height="70.682" fill="#fff" stroke="#3d034b" stroke-width="3"/>
    </clipPath>
    <clipPath id="clip-path-3">
      <rect id="Rectangle_407156" data-name="Rectangle 407156" width="42.467" height="44.002" transform="translate(-0.323 0.124)" fill="#3a2292" stroke="#707070" stroke-width="1"/>
    </clipPath>
    <clipPath id="clip-path-4">
      <rect id="Rectangle_408008" data-name="Rectangle 408008" width="36.211" height="36.04" fill="#3a2292"/>
    </clipPath>
  </defs>
  <g id="Group_1114985" data-name="Group 1114985" transform="translate(-810 -3105.647)">
    <rect id="Rectangle_407151" data-name="Rectangle 407151" width="104.668" height="126" transform="translate(810 3105.647)" fill="#3a2292"/>
    <g id="Mask_Group_1110935" data-name="Mask Group 1110935" transform="translate(550.672 -6247.518)" clip-path="url(#clip-path)">
      <g id="Group_1114161" data-name="Group 1114161" transform="translate(280.131 9380.624)" clip-path="url(#clip-path-2)">
        <path id="Path_918227" data-name="Path 918227" d="M27.452,63.948A42.13,42.13,0,0,1,6.56,49.078,35.558,35.558,0,0,1,.011,31.658C0,31.568,0,31.482,0,31.392V10.025a3.181,3.181,0,0,1,2.824-3.04C10.9,5.713,22.791,1.815,27.528.2a3.73,3.73,0,0,1,2.393,0C33.635,1.458,46.4,5.675,54.771,6.987a3.179,3.179,0,0,1,2.825,3.04V31.391c0,.09,0,.176-.013.264A35.552,35.552,0,0,1,51.037,49.08c-6.024,8.366-16.761,13.146-21.1,14.814a3.7,3.7,0,0,1-2.488.057" transform="translate(2.939 3.272)" fill="#fff" stroke="#ff85e7" stroke-width="3"/>
      </g>
      <g id="Group_1110934" data-name="Group 1110934" transform="translate(291.362 9392.394)" clip-path="url(#clip-path-3)">
        <g id="Group_1114977" data-name="Group 1114977" transform="translate(2.677 4.125)">
          <g id="Group_1114976" data-name="Group 1114976" clip-path="url(#clip-path-4)">
            <path id="Path_921132" data-name="Path 921132" d="M7.69,172.676c.851.18.84,1.681-.239,1.851-2.012-.163-4.418.24-6.381.009C-.168,174.39.063,173.2.236,172.3a6.474,6.474,0,0,1,3.214-4.33,4.383,4.383,0,0,1,3.98-7.46,4.391,4.391,0,0,1,1.945,7.46,7.523,7.523,0,0,1,1.913,1.565,8.116,8.116,0,0,1,3.424-3.018c.124-.169-.564-.7-.694-.872a5.386,5.386,0,1,1,8.237,0c-.129.168-.818.7-.694.872a8.116,8.116,0,0,1,3.424,3.018l1.913-1.565a4.369,4.369,0,1,1,5.925,0,6.522,6.522,0,0,1,3.195,4.233c.192.9.453,2.179-.814,2.329-1.963.231-4.369-.172-6.381-.009-1.243-.2-.9-1.851-.239-1.851H34.1c-.338-2.847-3.683-4.317-6.2-3.12-.589.28-1.965,1.491-2.045,2.144-.11.9.825,2.379-.573,2.784l-14.1.039c-1.662-.281-.648-1.864-.766-2.823-.08-.654-1.458-1.864-2.045-2.144-2.514-1.2-5.859.273-6.2,3.12Zm9.664-13.9c-3.953.624-3.426,7.193,1,6.927,4.667-.281,4.273-7.759-1-6.927m-9.183,4.193c-2.426-2.412-6.062,1.694-3.266,3.789a2.508,2.508,0,0,0,3.266-3.789m19.935,0a2.508,2.508,0,0,0,3.266,3.789c2.8-2.1-.84-6.2-3.266-3.789m-3.989,9.71a6.054,6.054,0,0,0-11.958,0Z" transform="translate(-0.086 -138.57)" fill="#3a2292"/>
            <path id="Path_921133" data-name="Path 921133" d="M25.308,1.717H10.8V20c0,.233-.6.726-.881.754s-.976-.313-.976-.522V11.179l-.24-.128L1.911,13.438l-.056,8.535A.95.95,0,0,1,0,21.627l.055-9.116a1.066,1.066,0,0,1,.441-.6c.552-.325,3.7-1.114,3.863-1.362.2-1.247-.086-2.665.053-3.894a1.124,1.124,0,0,1,.616-1.01c.6-.342,3.656-1.39,3.855-1.717C9.173,3.035,8.509.446,9.37,0l17.44.04c.732.475.138,3.046.412,3.884.2.327,3.26,1.375,3.855,1.717a1.124,1.124,0,0,1,.616,1.01c.139,1.229-.148,2.647.053,3.894.149.222,3.329,1.048,3.863,1.362a1.177,1.177,0,0,1,.5.894c.326,2.742-.243,6.124-.01,8.934a.936.936,0,0,1-1.856.13l-.047-8.428-6.788-2.387-.24.128v9.055c0,.209-.691.551-.976.522s-.881-.521-.881-.754ZM8.939,6.129l-2.554.929V9.844a9.147,9.147,0,0,0,2.554-.987Zm20.781.929-2.554-.929V8.857a9.147,9.147,0,0,0,2.554.987Z" transform="translate(0 -0.001)" fill="#3a2292"/>
            <path id="Path_921134" data-name="Path 921134" d="M147.376,69.775c1.408-.291,1.358,2.15,1.137,3-.294,1.131-1.768.993-1.921-.29-.09-.753-.169-2.514.784-2.711" transform="translate(-129.529 -61.654)" fill="#3a2292"/>
            <path id="Path_921135" data-name="Path 921135" d="M147.593,26.23c1.181,0,1.079,1.86.987,2.676-.168,1.476-1.806,1.476-1.973,0-.093-.816-.195-2.676.987-2.676" transform="translate(-129.541 -23.185)" fill="#3a2292"/>
            <path id="Path_921136" data-name="Path 921136" d="M148.461,113.744c.436.514.476,3.054-.316,3.388-1.565.66-1.512-1.933-1.338-2.847a.968.968,0,0,1,1.654-.541" transform="translate(-129.689 -100.269)" fill="#3a2292"/>
            <path id="Path_921137" data-name="Path 921137" d="M39.19,124.956c.455.537.469,3.015-.344,3.361-1.689.72-1.65-2.768-1.066-3.388a1.073,1.073,0,0,1,1.41.027" transform="translate(-33.072 -110.203)" fill="#3a2292"/>
            <path id="Path_921138" data-name="Path 921138" d="M255.925,124.956a1.073,1.073,0,0,1,1.41-.027c.583.62.622,4.108-1.066,3.388-.812-.346-.8-2.824-.344-3.361" transform="translate(-225.939 -110.203)" fill="#3a2292"/>
            <path id="Path_921139" data-name="Path 921139" d="M186.369,69.773c1.439-.3,1.377,2.232,1.115,3.1a.909.909,0,0,1-1.783-.153,14.609,14.609,0,0,1,.026-2.416,1.107,1.107,0,0,1,.642-.526" transform="translate(-164.11 -61.652)" fill="#3a2292"/>
            <path id="Path_921140" data-name="Path 921140" d="M186.581,26.265a.907.907,0,0,1,.939.749,8.532,8.532,0,0,1,0,2.336.923.923,0,0,1-1.813-.173,12.109,12.109,0,0,1,.058-2.394.927.927,0,0,1,.817-.518" transform="translate(-164.119 -23.216)" fill="#3a2292"/>
            <path id="Path_921141" data-name="Path 921141" d="M109.358,69.844a1.007,1.007,0,0,1,1.016.446,12.205,12.205,0,0,1,.008,2.791c-.267.824-1.668.7-1.806-.529-.087-.779-.2-2.5.782-2.708" transform="translate(-95.922 -61.722)" fill="#3a2292"/>
            <path id="Path_921142" data-name="Path 921142" d="M109.573,26.23a.946.946,0,0,1,.819.522,12.118,12.118,0,0,1,.058,2.394c-.12,1.233-1.744,1.142-1.87-.234-.078-.855-.215-2.682.992-2.682" transform="translate(-95.932 -23.185)" fill="#3a2292"/>
            <path id="Path_921143" data-name="Path 921143" d="M109.232,113.771a.94.94,0,0,1,1.192.616,16.085,16.085,0,0,1,0,2.433.947.947,0,0,1-1.847-.237c-.1-.682-.187-2.618.656-2.812" transform="translate(-95.914 -100.536)" fill="#3a2292"/>
            <path id="Path_921144" data-name="Path 921144" d="M186.277,113.542c1.552-.469,1.469,1.995,1.284,2.91a.941.941,0,0,1-1.828.14,10.509,10.509,0,0,1,.108-2.673,1.4,1.4,0,0,1,.436-.377" transform="translate(-164.137 -100.309)" fill="#3a2292"/>
          </g>
        </g>
      </g>
    </g>
  </g>
</svg>
