<svg xmlns="http://www.w3.org/2000/svg" xmlns:xlink="http://www.w3.org/1999/xlink" width="129" height="128" viewBox="0 0 129 128">
  <defs>
    <radialGradient id="radial-gradient" cx="0.5" cy="0.5" r="0.5" gradientUnits="objectBoundingBox">
      <stop offset="0" stop-color="#3a2292"/>
      <stop offset="1" stop-color="#170551"/>
    </radialGradient>
    <clipPath id="clip-path">
      <rect id="Rectangle_406617" data-name="Rectangle 406617" width="109.997" height="109.997" stroke="rgba(0,0,0,0)" stroke-miterlimit="10" stroke-width="1" fill="url(#radial-gradient)"/>
    </clipPath>
    <clipPath id="clip-path-2">
      <rect id="Rectangle_400938" data-name="Rectangle 400938" width="120" height="120" fill="none"/>
    </clipPath>
    <clipPath id="clip-path-3">
      <rect id="Rectangle_401492" data-name="Rectangle 401492" width="73.543" height="73.543" transform="translate(0 0)" fill="#fff" stroke="#707070" stroke-width="1"/>
    </clipPath>
    <clipPath id="clip-path-4">
      <rect id="Rectangle_407560" data-name="Rectangle 407560" width="66.267" height="66.771" fill="#fff"/>
    </clipPath>
  </defs>
  <g id="Group_1114057" data-name="Group 1114057" transform="translate(-390 -2746)">
    <g id="Grupo_108927" data-name="Grupo 108927" transform="translate(0 -1721)">
      <path id="Rectángulo_36179" data-name="Rectángulo 36179" d="M0,0H129V128H0Z" transform="translate(390 4467)" fill="#eae5ff"/>
    </g>
    <g id="Group_1112835" data-name="Group 1112835" transform="translate(400 2755)">
      <g id="Group_1112834" data-name="Group 1112834" clip-path="url(#clip-path)">
        <path id="Path_917479" data-name="Path 917479" d="M108.876,65.415l-5.382-4.43a48.4,48.4,0,0,0-.549-15.468l5.04-4.8a3.066,3.066,0,0,0,.674-3.5l-5.11-11.178a3.073,3.073,0,0,0-2.788-1.791c-.1,0-.2,0-.3.014l-6.94.673A49.134,49.134,0,0,0,82.2,14.391l.171-6.957a3.068,3.068,0,0,0-2-2.949L68.855.194A3.059,3.059,0,0,0,67.784,0h0A3.054,3.054,0,0,0,65.415,1.12L60.984,6.5a48.4,48.4,0,0,0-15.467.549l-4.8-5.04A3.082,3.082,0,0,0,38.5,1.059a3.043,3.043,0,0,0-1.276.278L26.042,6.448a3.069,3.069,0,0,0-1.777,3.086l.673,6.942A49.125,49.125,0,0,0,14.389,27.8l-6.957-.171H7.356a3.079,3.079,0,0,0-2.873,2L.192,41.143a3.071,3.071,0,0,0,.923,3.438L6.5,49.013A48.4,48.4,0,0,0,7.051,64.48l-5.041,4.8a3.068,3.068,0,0,0-.673,3.5l5.11,11.178a3.074,3.074,0,0,0,2.789,1.792c.1,0,.2,0,.3-.014l6.942-.674A49.137,49.137,0,0,0,27.8,95.608l-.171,6.957a3.068,3.068,0,0,0,2,2.95l11.517,4.291a3.072,3.072,0,0,0,3.439-.926l4.431-5.383a48.394,48.394,0,0,0,15.467-.549l4.8,5.04a3.08,3.08,0,0,0,2.221.952,3.048,3.048,0,0,0,1.275-.277l11.18-5.111a3.07,3.07,0,0,0,1.777-3.087l-.673-6.941A49.121,49.121,0,0,0,95.606,82.2l6.957.171h.076a3.079,3.079,0,0,0,2.873-2L109.8,68.856a3.068,3.068,0,0,0-.927-3.44" transform="translate(0 0)" stroke="rgba(0,0,0,0)" stroke-miterlimit="10" stroke-width="1" fill="url(#radial-gradient)"/>
      </g>
    </g>
    <g id="Group_1110743" data-name="Group 1110743" transform="translate(420.432 2773.223)">
      <rect id="Rectangle_401104" data-name="Rectangle 401104" width="68.522" height="69.627" transform="translate(0.079 -0.223)" fill="none"/>
      <g id="Mask_Group_1098697" data-name="Mask Group 1098697" transform="translate(-2.432 -0.223)" clip-path="url(#clip-path-3)">
        <g id="Group_1114639" data-name="Group 1114639" transform="translate(4 3)">
          <g id="Group_1114638" data-name="Group 1114638" clip-path="url(#clip-path-4)">
            <path id="Path_919274" data-name="Path 919274" d="M114.321,122.575a8.261,8.261,0,0,1-5.809-2.371l-5.809-5.809a1.5,1.5,0,0,1,0-2.134l8.654-8.654.83-.829a1.5,1.5,0,0,1,2.134,0l5.809,5.809a8.055,8.055,0,0,1,2.371,5.808,8.257,8.257,0,0,1-2.371,5.809,8.469,8.469,0,0,1-5.809,2.371m-8.417-9.247,4.742,4.742a5.2,5.2,0,1,0,7.35-7.35l-4.742-4.742Z" transform="translate(-61.094 -61.138)" fill="#fff"/>
            <path id="Path_919275" data-name="Path 919275" d="M25.132,50.293A25.095,25.095,0,0,1,0,25.161,24.914,24.914,0,0,1,7.35,7.38,25.231,25.231,0,1,1,43.032,43.063a25.8,25.8,0,0,1-17.9,7.231m0-47.418A22.262,22.262,0,0,0,2.844,25.161,22.551,22.551,0,0,0,9.365,40.928,22.256,22.256,0,1,0,40.9,9.513,21.806,21.806,0,0,0,25.132,2.875" transform="translate(0 0)" fill="#fff"/>
            <path id="Path_919276" data-name="Path 919276" d="M97.691,106.546h0a1.283,1.283,0,0,1-1.066-.474L90.7,100.026a1.138,1.138,0,0,1-.356-1.186,1.364,1.364,0,0,1,.711-1.067,18.75,18.75,0,0,0,3.794-3.082A30.781,30.781,0,0,0,97.928,90.9a1.729,1.729,0,0,1,1.067-.711,1.375,1.375,0,0,1,1.186.474l6.046,6.046a1.762,1.762,0,0,1,.475,1.067,1.444,1.444,0,0,1-.475,1.067l-7.468,7.469a3.467,3.467,0,0,1-1.067.236M94.016,99.2l3.675,3.794,5.335-5.335L99.35,93.98c-.711.948-1.541,1.9-2.371,2.845A28.605,28.605,0,0,1,94.016,99.2" transform="translate(-53.948 -53.882)" fill="#fff"/>
            <path id="Path_919277" data-name="Path 919277" d="M40.219,146.572H15.087a1.541,1.541,0,1,1,0-3.082H40.219a1.541,1.541,0,1,1,0,3.082" transform="translate(-8.093 -85.728)" fill="#fff"/>
            <path id="Path_919278" data-name="Path 919278" d="M110.118,161.3h-32.6a1.541,1.541,0,1,1,0-3.082h32.6a1.541,1.541,0,0,1,0,3.082" transform="translate(-45.392 -94.524)" fill="#fff"/>
            <path id="Path_919279" data-name="Path 919279" d="M53.653,52.779H48.726a1.642,1.642,0,1,1,0-3.284h4.926a.789.789,0,0,0,.632-.379.564.564,0,0,0,0-.631L43.8,31.054a.765.765,0,0,0-.506-.126.5.5,0,0,0-.505.252L32.306,48.611a.563.563,0,0,0,0,.632.785.785,0,0,0,.631.379h4.8a1.642,1.642,0,1,1,0,3.285H32.81a3.643,3.643,0,0,1-3.284-2.021,3.943,3.943,0,0,1,.127-3.917l10.357-17.3a3.934,3.934,0,0,1,6.568,0L57.063,47.1a3.935,3.935,0,0,1,.127,3.916,4.1,4.1,0,0,1-3.537,1.768" transform="translate(-17.366 -16.666)" fill="#fff"/>
            <path id="Path_919280" data-name="Path 919280" d="M61.973,59.233a1.673,1.673,0,0,1-1.642-1.642V47.738a1.642,1.642,0,0,1,3.284,0v9.853a1.766,1.766,0,0,1-1.642,1.642" transform="translate(-36.045 -27.54)" fill="#fff"/>
            <path id="Path_919281" data-name="Path 919281" d="M62.161,86.783h-.252c-.127,0-.253,0-.253-.127-.127,0-.127-.126-.253-.126s-.126-.126-.252-.252l-.253-.253c0-.126-.127-.126-.127-.252a.44.44,0,0,0-.126-.254v-.505c0-.126,0-.252.126-.252,0-.127.127-.127.127-.253s.126-.126.253-.252L61.4,84c.126,0,.126-.126.253-.126a.443.443,0,0,0,.253-.126h.631c.126,0,.252,0,.252.126.127,0,.127.126.253.126s.126.126.252.253l.253.252c0,.126.126.126.126.253a.439.439,0,0,0,.127.252v.505s0,.254-.127.254c0,.126-.126.126-.126.252s-.126.126-.253.253l-.252.252c-.126,0-.126.126-.253.126a.44.44,0,0,0-.252.127Z" transform="translate(-36.232 -50.037)" fill="#fff"/>
          </g>
        </g>
      </g>
    </g>
  </g>
</svg>
