<svg xmlns="http://www.w3.org/2000/svg" xmlns:xlink="http://www.w3.org/1999/xlink" width="109" height="109" viewBox="0 0 109 109">
  <defs>
    <clipPath id="clip-path">
      <rect id="Rectangle_406617" data-name="Rectangle 406617" width="109" height="109" fill="#170551" stroke="rgba(0,0,0,0)" stroke-miterlimit="10" stroke-width="1"/>
    </clipPath>
    <clipPath id="clip-path-2">
      <rect id="Rectangle_401492" data-name="Rectangle 401492" width="61.722" height="61.722" transform="translate(-0.321 0.253)" fill="#fff" stroke="#707070" stroke-width="1"/>
    </clipPath>
    <clipPath id="clip-path-3">
      <rect id="Rectangle_407858" data-name="Rectangle 407858" width="53.984" height="57.75" fill="#fff"/>
    </clipPath>
  </defs>
  <g id="Group_1114503" data-name="Group 1114503" transform="translate(-314.001 -7639.335)">
    <g id="Group_1113263" data-name="Group 1113263" transform="translate(314.001 7639.335)">
      <g id="Group_1112834" data-name="Group 1112834" transform="translate(0 0)" clip-path="url(#clip-path)">
        <path id="Path_917479" data-name="Path 917479" d="M108.579,65.237l-5.367-4.417a48.268,48.268,0,0,0-.547-15.426l5.026-4.786a3.058,3.058,0,0,0,.672-3.488l-5.1-11.147a3.065,3.065,0,0,0-2.78-1.786c-.1,0-.2,0-.3.014l-6.921.672a49,49,0,0,0-11.292-10.52l.17-6.938a3.059,3.059,0,0,0-1.991-2.941L68.666.193A3.051,3.051,0,0,0,67.6,0h0a3.046,3.046,0,0,0-2.362,1.115L60.817,6.485a48.263,48.263,0,0,0-15.425.547L40.607,2.006a3.073,3.073,0,0,0-2.215-.95,3.034,3.034,0,0,0-1.272.277L25.971,6.43A3.06,3.06,0,0,0,24.2,9.508l.672,6.923A48.991,48.991,0,0,0,14.35,27.724l-6.938-.17H7.336a3.071,3.071,0,0,0-2.866,1.993L.191,41.03a3.063,3.063,0,0,0,.921,3.428l5.372,4.42A48.263,48.263,0,0,0,7.031,64.3L2,69.09a3.059,3.059,0,0,0-.672,3.488l5.1,11.147a3.065,3.065,0,0,0,2.781,1.787c.1,0,.2,0,.3-.014l6.923-.672A49,49,0,0,0,27.722,95.346l-.17,6.938a3.059,3.059,0,0,0,1.991,2.942L41.029,109.5a3.063,3.063,0,0,0,3.43-.923l4.419-5.369a48.261,48.261,0,0,0,15.425-.547l4.786,5.026a3.072,3.072,0,0,0,2.215.95,3.039,3.039,0,0,0,1.272-.277l11.149-5.1a3.062,3.062,0,0,0,1.772-3.079l-.672-6.922a48.987,48.987,0,0,0,10.52-11.293l6.938.17h.075a3.071,3.071,0,0,0,2.866-1.991L109.5,68.667a3.059,3.059,0,0,0-.925-3.431" transform="translate(0 -0.349)" fill="#170551" stroke="rgba(0,0,0,0)" stroke-miterlimit="10" stroke-width="1"/>
      </g>
    </g>
    <g id="Group_1111310" data-name="Group 1111310" transform="translate(338.199 7663.081)">
      <rect id="Rectangle_401104" data-name="Rectangle 401104" width="57.508" height="58.436" transform="translate(2.107 0)" fill="none"/>
      <g id="Group_1098697" data-name="Group 1098697" transform="translate(0 0)" clip-path="url(#clip-path-2)">
        <g id="Group_1114851" data-name="Group 1114851" transform="translate(3.678 2.254)">
          <g id="Group_1114850" data-name="Group 1114850" clip-path="url(#clip-path-3)">
            <path id="Path_920788" data-name="Path 920788" d="M.6,27.024c-1.418-.392.055-4.1.475-4.969a11.614,11.614,0,0,1,6.754-5.92C2.112,11.558,6.764,2.5,13.878,4.9a6.43,6.43,0,0,1,1.61,11.149L17,16.635a10.593,10.593,0,0,1,6.145-4.922c-3.5-2.889-3.528-8.362.567-10.743,7-4.074,13.4,5.689,7.088,10.743a10.593,10.593,0,0,1,6.145,4.922l1.509-.581A6.431,6.431,0,0,1,40.06,4.9c7.114-2.4,11.766,6.654,6.046,11.231a11.509,11.509,0,0,1,7,6.522c.386.912,1.067,2.8.786,3.737a2.33,2.33,0,0,1-.56.63H39.812l.34,2.552,13.224.128a.86.86,0,0,1,.551.64,27.962,27.962,0,0,1-.032,4.043c-.239.822-3.624,1.577-4.4,2.1a29.369,29.369,0,0,1-2.355,5.927c.2,1.011,1.919,3.507,1.66,4.385-.246.835-4.631,4.308-5.32,5.4-1.027.595-3.375-1.168-4.519-1.466l-.34,0a23.857,23.857,0,0,1-5.739,2.354l-1.563,4.092a1.671,1.671,0,0,1-.686.373,40.748,40.748,0,0,1-6.9.088,2.524,2.524,0,0,1-.982-.335c-.473-.39-1.18-3.526-1.695-4.219A26.845,26.845,0,0,1,15.2,50.707c-1.127.171-3.533,1.931-4.529,1.631-.856-.258-4.381-4.688-5.479-5.414-.441-.948,1.507-3.506,1.586-4.634A27.466,27.466,0,0,1,4.391,36.42c-.771-.4-4-1.253-4.3-1.914l0-4.42.47-.381,13.224-.128.34-2.552ZM26.5,1.891c-6.568.784-4.474,10.955,1.906,8.883,5.2-1.689,3.284-9.5-1.906-8.883M10.68,6.482c-5.306.905-4.456,9.827,1.787,8.93,5.588-.8,4.635-10.026-1.787-8.93m30.619,0c-5.306.905-4.456,9.827,1.787,8.93,5.588-.8,4.635-10.026-1.787-8.93m-5.921,11.34c-3.3-6.57-13.431-6.536-16.839-.078l1.8,1.278a13.911,13.911,0,0,1,13.272,0Zm-20.4,7.331c.565-2.081,2.286-3.392,3.559-4.994C13.191,14.7,3.385,17.625,2.049,25.153Zm36.913,0C50.561,17.626,40.751,14.7,35.4,20.159c1.273,1.6,2.995,2.913,3.559,4.994Zm-26.231-5.9C11.546,20.7,12.879,42.175,27.141,42.006c15.319-.182,14.524-24.4-1.483-22.756m-11.872,12.2H1.879l.029,2.013c.122.2,2.975,1.059,3.492,1.356.979.561,1.228,2.66,1.671,3.773.5,1.264,1.273,2.412,1.782,3.673L7.179,46.307l3.794,3.864a.474.474,0,0,0,.475.135c.794-.118,2.454-1.264,3.443-1.519.2-.052.378-.182.6-.084a30.648,30.648,0,0,0,3.743,1.878,25.738,25.738,0,0,1,2.982.931c.913.6,1.2,3.28,1.947,4.177a43.88,43.88,0,0,0,5.2.093c.314-.037.362-.019.568-.282.666-.85.873-3.494,1.9-4.054.81-.442,2.642-.741,3.725-1.208,1.045-.449,1.974-1.1,3.008-1.566l4.192,1.634,4.007-4.114c-.3-.964-1.838-3.336-1.6-4.2.249-.907,1.3-2.371,1.71-3.4.351-.877.644-2.552,1.035-3.217.522-.887,3.193-1.329,4.127-1.911l.029-2.013H40.152a13.21,13.21,0,0,1-26.366,0" transform="translate(0 0)" fill="#fff"/>
            <path id="Path_920789" data-name="Path 920789" d="M119.985,134.616c12.085-1.635,11.856,16.358.657,15.244-9-.9-8.826-14.139-.657-15.244m.167,1.868c-2.663.42-4.735,3.536-4.528,6.147.412,5.2,7.222,7.34,10.426,3.153,3.406-4.451-.386-10.169-5.9-9.3" transform="translate(-94.503 -111.63)" fill="#fff"/>
          </g>
        </g>
      </g>
    </g>
  </g>
</svg>
