<svg xmlns="http://www.w3.org/2000/svg" xmlns:xlink="http://www.w3.org/1999/xlink" width="129" height="128" viewBox="0 0 129 128">
  <defs>
    <radialGradient id="radial-gradient" cx="0.5" cy="0.5" r="0.5" gradientUnits="objectBoundingBox">
      <stop offset="0" stop-color="#3a2292"/>
      <stop offset="1" stop-color="#170551"/>
    </radialGradient>
    <clipPath id="clip-path">
      <rect id="Rectangle_406617" data-name="Rectangle 406617" width="109.997" height="109.997" stroke="rgba(0,0,0,0)" stroke-miterlimit="10" stroke-width="1" fill="url(#radial-gradient)"/>
    </clipPath>
    <clipPath id="clip-path-2">
      <rect id="Rectangle_400938" data-name="Rectangle 400938" width="120" height="120" fill="none"/>
    </clipPath>
    <clipPath id="clip-path-3">
      <rect id="Rectangle_401492" data-name="Rectangle 401492" width="73.543" height="73.543" transform="translate(5 0)" fill="#fff" stroke="#707070" stroke-width="1"/>
    </clipPath>
    <clipPath id="clip-path-4">
      <rect id="Rectangle_407572" data-name="Rectangle 407572" width="70.289" height="69.041" fill="#fff"/>
    </clipPath>
  </defs>
  <g id="Group_1114062" data-name="Group 1114062" transform="translate(-390 -2746)">
    <g id="Grupo_108927" data-name="Grupo 108927" transform="translate(0 -1721)">
      <path id="Rectángulo_36179" data-name="Rectángulo 36179" d="M0,0H129V128H0Z" transform="translate(390 4467)" fill="#eae5ff"/>
    </g>
    <g id="Group_1112835" data-name="Group 1112835" transform="translate(400 2755)">
      <g id="Group_1112834" data-name="Group 1112834" clip-path="url(#clip-path)">
        <path id="Path_917479" data-name="Path 917479" d="M108.876,65.415l-5.382-4.43a48.4,48.4,0,0,0-.549-15.468l5.04-4.8a3.066,3.066,0,0,0,.674-3.5l-5.11-11.178a3.073,3.073,0,0,0-2.788-1.791c-.1,0-.2,0-.3.014l-6.94.673A49.134,49.134,0,0,0,82.2,14.391l.171-6.957a3.068,3.068,0,0,0-2-2.949L68.855.194A3.059,3.059,0,0,0,67.784,0h0A3.054,3.054,0,0,0,65.415,1.12L60.984,6.5a48.4,48.4,0,0,0-15.467.549l-4.8-5.04A3.082,3.082,0,0,0,38.5,1.059a3.043,3.043,0,0,0-1.276.278L26.042,6.448a3.069,3.069,0,0,0-1.777,3.086l.673,6.942A49.125,49.125,0,0,0,14.389,27.8l-6.957-.171H7.356a3.079,3.079,0,0,0-2.873,2L.192,41.143a3.071,3.071,0,0,0,.923,3.438L6.5,49.013A48.4,48.4,0,0,0,7.051,64.48l-5.041,4.8a3.068,3.068,0,0,0-.673,3.5l5.11,11.178a3.074,3.074,0,0,0,2.789,1.792c.1,0,.2,0,.3-.014l6.942-.674A49.137,49.137,0,0,0,27.8,95.608l-.171,6.957a3.068,3.068,0,0,0,2,2.95l11.517,4.291a3.072,3.072,0,0,0,3.439-.926l4.431-5.383a48.394,48.394,0,0,0,15.467-.549l4.8,5.04a3.08,3.08,0,0,0,2.221.952,3.048,3.048,0,0,0,1.275-.277l11.18-5.111a3.07,3.07,0,0,0,1.777-3.087l-.673-6.941A49.121,49.121,0,0,0,95.606,82.2l6.957.171h.076a3.079,3.079,0,0,0,2.873-2L109.8,68.856a3.068,3.068,0,0,0-.927-3.44" transform="translate(0 0)" stroke="rgba(0,0,0,0)" stroke-miterlimit="10" stroke-width="1" fill="url(#radial-gradient)"/>
      </g>
    </g>
    <g id="Group_1110743" data-name="Group 1110743" transform="translate(420.432 2773.223)">
      <rect id="Rectangle_401104" data-name="Rectangle 401104" width="68.522" height="69.627" transform="translate(0.079 -0.223)" fill="none"/>
      <g id="Mask_Group_1098697" data-name="Mask Group 1098697" transform="translate(-7.432 -0.223)" clip-path="url(#clip-path-3)">
        <g id="Group_1114645" data-name="Group 1114645" transform="translate(7 2)">
          <g id="Group_1114644" data-name="Group 1114644" clip-path="url(#clip-path-4)">
            <path id="Path_919292" data-name="Path 919292" d="M33.219.059c19.61-1.142,36.394,14.528,37.064,34.064.055,1.616-.223,2.224-1.866,2.375a85.591,85.591,0,0,1-11.693,0c-2.415-.22-1.615-1.432-1.854-3.112-3.409-24-35.808-23.813-39.409-.679-.291,1.869.651,3.557-1.919,3.792a85.75,85.75,0,0,1-11.693,0c-.773-.071-1.467-.148-1.741-.989a16.259,16.259,0,0,1,.169-4.33A35.227,35.227,0,0,1,33.219.059m.548,2.658A34.97,34.97,0,0,0,20.338,6.343l4.739,8.436c.409.209,1.309-.461,1.855-.644a23.348,23.348,0,0,1,6.834-1.484Zm2.731,0V12.65a21.646,21.646,0,0,1,8.364,2.2l.326-.069,4.739-8.436A34.567,34.567,0,0,0,36.5,2.718M22.56,16.586c.155-.267-.047-.624-.161-.887-1.085-2.5-3.312-5.326-4.667-7.763a28.668,28.668,0,0,0-9.787,9.788L16.487,22.6a17.485,17.485,0,0,1,6.073-6.015m31.1,5.967,8.66-4.828a28.362,28.362,0,0,0-9.787-9.788l-4.881,8.529a17.484,17.484,0,0,1,6.008,6.088M3.1,33.755h9.56c.1-3.131,1.288-6,2.218-8.92l-8.3-4.728A30.588,30.588,0,0,0,3.007,31.179c-.053.484-.3,2.481.094,2.577m54.5,0h9.56c.419-.423.161-1.665.093-2.328a30,30,0,0,0-3.566-11.32l-8.3,4.728c.93,2.922,2.12,5.788,2.218,8.92" transform="translate(0 -0.001)" fill="#fff"/>
            <path id="Path_919293" data-name="Path 919293" d="M70.9,113.887a7.973,7.973,0,0,1,7.757,3.039l15.116,26.1A7.9,7.9,0,0,1,87.482,154.3c-9.741.841-20.679-.645-30.547-.012-5.639-1.048-8.34-6.3-5.884-11.589,3.956-8.512,10.531-16.966,14.738-25.486a8.4,8.4,0,0,1,5.112-3.33M90.24,150.234a5.193,5.193,0,0,0,1.2-5.618c-5.148-7.976-9.26-17.881-14.667-25.558-2.075-2.946-5.213-3.437-8.057-1.148-4.664,8.329-10.472,16.718-14.77,25.206-1.141,2.253-1.731,3.652-.318,6.039a4.7,4.7,0,0,0,3.789,2.418c9.565.845,20.36-.653,30.055-.009a4.908,4.908,0,0,0,2.766-1.331" transform="translate(-37.691 -85.529)" fill="#fff"/>
            <path id="Path_919295" data-name="Path 919295" d="M129.557,169.137l2.11,1.238c2.257,2.469.137,6.594-3.172,5.9-3.765-.785-3.575-6.449.314-6.9-.112-.413-.777-.321-1.23-.627a3.813,3.813,0,0,1-1.5-2.973c-.34-3.4-.044-7.439-.228-10.9.471-3.336,6.258-3.486,6.681.226.416,3.647-.594,7.881-.306,11.612a2.838,2.838,0,0,1-2.672,2.419m.248-13.909h-1.244L128.8,165.3l.389,1.1c.6.118.353-.482.369-.865.145-3.429.234-6.876.25-10.308m-.868,16.888c-.659.2-.5,1.783.492,1.485.659-.2.5-1.783-.492-1.485" transform="translate(-94.548 -114.521)" fill="#fff"/>
            <path id="Path_919296" data-name="Path 919296" d="M164.22,97.742h0a1.242,1.242,0,0,1-.119-1.752l5.063-5.8a1.242,1.242,0,0,1,1.87,1.633l-5.063,5.8a1.242,1.242,0,0,1-1.752.119" transform="translate(-123.125 -67.478)" fill="#fff"/>
          </g>
        </g>
      </g>
    </g>
  </g>
</svg>
