<svg xmlns="http://www.w3.org/2000/svg" xmlns:xlink="http://www.w3.org/1999/xlink" width="377" height="197" viewBox="0 0 377 197">
  <defs>
    <clipPath id="clip-path">
      <rect id="Rectangle_407449" data-name="Rectangle 407449" width="377" height="197" transform="translate(289.711 6874)" fill="#fff" stroke="#707070" stroke-width="1"/>
    </clipPath>
    <clipPath id="clip-path-2">
      <rect id="Rectangle_407830" data-name="Rectangle 407830" width="290.347" height="180.128" fill="none"/>
    </clipPath>
    <clipPath id="clip-path-4">
      <path id="Path_920640" data-name="Path 920640" d="M71.631,69.375,71.458,70.8c-.9,7.38,3.212,13.952,10.592,14.85a7.528,7.528,0,0,0,8.383-6.564l1.217-7.279A10.5,10.5,0,0,0,82.5,60.123a10.264,10.264,0,0,0-1.243-.076c-5.139,0-8.976,3.995-9.625,9.328" transform="translate(-71.336 -60.047)" fill="none"/>
    </clipPath>
  </defs>
  <g id="Mask_Group_1110971" data-name="Mask Group 1110971" transform="translate(-289.711 -6874)" clip-path="url(#clip-path)">
    <g id="Group_1114838" data-name="Group 1114838" transform="translate(328.856 6883.229)">
      <g id="Group_1114831" data-name="Group 1114831">
        <g id="Group_1114830" data-name="Group 1114830" clip-path="url(#clip-path-2)">
          <path id="Path_920603" data-name="Path 920603" d="M275.315,175.091H25.669a42.546,42.546,0,0,1-11.734-29.817c.052-19.805,11.52-29.306,23.6-41.976,16.775-17.586,6.392-26.19,2.823-48.153C36.789,33.151,46.283,14.494,67.484,7.806c21.877-6.9,43.113,3.274,64.131,8.139,20.944,4.843,38.1,5.652,58.1-1.732C219,3.4,258.885-14.455,280.43,20.883c10.374,17.011,4.819,31.843-3.542,47.841C263.5,94.358,280.47,97.279,290.06,120.779c6.248,15.5,5.076,42.46-14.744,54.312" transform="translate(-7.864 0)" fill="#d49cfe"/>
        </g>
      </g>
      <g id="Group_1114833" data-name="Group 1114833">
        <g id="Group_1114832" data-name="Group 1114832" clip-path="url(#clip-path-2)">
          <path id="Path_920604" data-name="Path 920604" d="M141.291,299.631q-.622,1.927-1.32,3.956a31.683,31.683,0,0,0-2.4-5.142,102.646,102.646,0,0,0-11.091-1.98q-.331,1.665-.718,3.408c-.828-1.342-1.706-2.613-2.594-3.861-9.6-2.353-24.42-.437-24.433-.347.021-.1,6.784,8.759,13.038,15.592,1.8.033,3.568.107,5.359.162q-1.819,1.209-3.582,2.344c1.869,2.771,3.643,6.052,5.571,9.365a52.727,52.727,0,0,0,5.828.552q-1.907,1.457-3.739,2.812a26.146,26.146,0,0,0,6.916,7.357c2.455-.07,5.031-.312,7.667-.651q-1.68,1.438-3.343,2.853c9.247,3.869,22.083,1.2,22.083,1.2s2.2-17.359-2.531-27.356q-.813,1.9-1.649,3.825a65.5,65.5,0,0,0-.957-8.325,18.529,18.529,0,0,0-8.107-5.764" transform="translate(-55.717 -166.379)" fill="#8db9f0"/>
          <path id="Path_920605" data-name="Path 920605" d="M112.787,300.609a87.913,87.913,0,0,1,49.676,39.9" transform="translate(-63.645 -169.632)" fill="none" stroke="#a1c7f7" stroke-linecap="round" stroke-linejoin="round" stroke-width="0.797"/>
          <path id="Path_920606" data-name="Path 920606" d="M132.338,310.288c3.021-.514,6.062-1.035,9.266-1.765a48.019,48.019,0,0,0-2.09-7.835" transform="translate(-74.678 -169.677)" fill="none" stroke="#a1c7f7" stroke-linecap="round" stroke-linejoin="round" stroke-width="0.797"/>
          <path id="Path_920607" data-name="Path 920607" d="M160.618,306.416a53.036,53.036,0,0,1,.932,12.493,84.744,84.744,0,0,1-12.413,2.866" transform="translate(-84.157 -172.909)" fill="none" stroke="#a1c7f7" stroke-linecap="round" stroke-linejoin="round" stroke-width="0.797"/>
          <path id="Path_920608" data-name="Path 920608" d="M204.207,344.846a76.336,76.336,0,0,1-.674,14.255,51.351,51.351,0,0,1-10.807,1.1" transform="translate(-108.754 -194.595)" fill="none" stroke="#a1c7f7" stroke-linecap="round" stroke-linejoin="round" stroke-width="0.797"/>
          <path id="Path_920609" data-name="Path 920609" d="M180.252,313.231a90.5,90.5,0,0,1-1.392,18.117,96.284,96.284,0,0,1-15.6,4.607" transform="translate(-92.13 -176.755)" fill="none" stroke="#a1c7f7" stroke-linecap="round" stroke-linejoin="round" stroke-width="0.797"/>
          <path id="Path_920610" data-name="Path 920610" d="M195.226,231.432q-1.605,1.663-3.341,3.391a36.141,36.141,0,0,0,.127-6.474,117.04,117.04,0,0,0-10.372-7.6q-1.176,1.54-2.449,3.132c-.174-1.792-.435-3.535-.718-5.261-8.66-7.238-24.809-12.72-24.868-12.635.072-.091,2.55,12.387,5.526,22.533,1.824.937,3.6,1.9,5.411,2.86-1.649.217-3.262.417-4.849.6.522,3.779.692,8.034,1,12.4a60.2,60.2,0,0,0,5.7,3.495q-2.687.535-5.245,1a29.846,29.846,0,0,0,3.391,11.016c2.551,1.162,5.312,2.209,8.184,3.186q-2.444.629-4.86,1.244c7.533,8.613,22.03,12.328,22.03,12.328s10.978-16.686,11.154-29.309q-1.788,1.536-3.612,3.092a74.781,74.781,0,0,0,3.2-9.014,21.152,21.152,0,0,0-5.411-9.982" transform="translate(-86.679 -116.233)" fill="#a1c7f7"/>
          <path id="Path_920611" data-name="Path 920611" d="M166.054,217.021a100.353,100.353,0,0,1,30.864,65.856" transform="translate(-93.703 -122.464)" fill="none" stroke="#8db9f0" stroke-linecap="round" stroke-linejoin="round" stroke-width="0.797"/>
          <path id="Path_920612" data-name="Path 920612" d="M174.979,241.439c3.354.991,6.732,1.985,10.384,2.847a54.792,54.792,0,0,0,1.8-9.08" transform="translate(-98.74 -132.726)" fill="none" stroke="#8db9f0" stroke-linecap="round" stroke-linejoin="round" stroke-width="0.797"/>
          <path id="Path_920613" data-name="Path 920613" d="M202.161,254.485a60.5,60.5,0,0,1-5.323,13.273,96.735,96.735,0,0,1-14.163-3.3" transform="translate(-103.083 -143.605)" fill="none" stroke="#8db9f0" stroke-linecap="round" stroke-linejoin="round" stroke-width="0.797"/>
          <path id="Path_920614" data-name="Path 920614" d="M227.522,315.78a87.14,87.14,0,0,1-7.855,14.272,58.63,58.63,0,0,1-11.631-4.3" transform="translate(-117.394 -178.193)" fill="none" stroke="#8db9f0" stroke-linecap="round" stroke-linejoin="round" stroke-width="0.797"/>
          <path id="Path_920615" data-name="Path 920615" d="M214.065,274.921a103.334,103.334,0,0,1-10.531,17.87,109.878,109.878,0,0,1-18.3-3.116" transform="translate(-104.527 -155.137)" fill="none" stroke="#8db9f0" stroke-linecap="round" stroke-linejoin="round" stroke-width="0.797"/>
          <path id="Path_920616" data-name="Path 920616" d="M186.547,108.1V99.415h-5.533a15.613,15.613,0,0,0-1.356-3.277l3.911-3.912-6.138-6.138L173.52,90a15.653,15.653,0,0,0-3.277-1.357V83.111h-8.681v5.532A15.653,15.653,0,0,0,158.286,90l-3.911-3.911-6.138,6.138,3.911,3.912a15.613,15.613,0,0,0-1.356,3.277h-5.533V108.1h5.533a15.642,15.642,0,0,0,1.356,3.277l-3.911,3.911,6.138,6.138,3.911-3.911a15.582,15.582,0,0,0,3.276,1.356V124.4h8.681v-5.533a15.582,15.582,0,0,0,3.277-1.356l3.911,3.911,6.138-6.138-3.911-3.911a15.642,15.642,0,0,0,1.356-3.277ZM165.9,110.616a6.861,6.861,0,1,1,6.861-6.861,6.861,6.861,0,0,1-6.861,6.861" transform="translate(-81.969 -46.899)" fill="#fff"/>
          <path id="Path_920617" data-name="Path 920617" d="M277.156,55.648V45.791h-6.282a17.7,17.7,0,0,0-1.54-3.72l4.441-4.441-6.97-6.97L262.364,35.1a17.738,17.738,0,0,0-3.721-1.541V27.279h-9.857v6.282a17.737,17.737,0,0,0-3.721,1.541l-4.441-4.442-6.97,6.97,4.441,4.441a17.717,17.717,0,0,0-1.54,3.72h-6.282v9.857h6.282a17.721,17.721,0,0,0,1.54,3.721l-4.441,4.441,6.97,6.97,4.441-4.441a17.759,17.759,0,0,0,3.721,1.54v6.282h9.857V67.879a17.76,17.76,0,0,0,3.721-1.54l4.441,4.441,6.97-6.97-4.441-4.441a17.717,17.717,0,0,0,1.54-3.721Zm-23.441,2.863a7.791,7.791,0,1,1,7.791-7.791,7.791,7.791,0,0,1-7.791,7.791" transform="translate(-129.942 -15.393)" fill="#fff"/>
          <path id="Path_920618" data-name="Path 920618" d="M129.736,370.83c-.82-4.116-6.157-5.522-6.157-5.522l-5.89-5.015h-9.736l-1.442,10.537Z" transform="translate(-60.104 -203.312)" fill="#4192f2"/>
          <path id="Path_920619" data-name="Path 920619" d="M123.372,363.537a10.335,10.335,0,0,1,5.626-.163" transform="translate(-69.618 -204.862)" fill="none" stroke="#153e5f" stroke-linecap="round" stroke-linejoin="round" stroke-width="0.5"/>
          <path id="Path_920620" data-name="Path 920620" d="M125.575,366.323a12.387,12.387,0,0,1,6.09-.163" transform="translate(-70.861 -206.434)" fill="none" stroke="#153e5f" stroke-linecap="round" stroke-linejoin="round" stroke-width="0.5"/>
          <path id="Path_920621" data-name="Path 920621" d="M127.778,369.11s3.87-1,6.558-.163" transform="translate(-72.104 -208.007)" fill="none" stroke="#153e5f" stroke-linecap="round" stroke-linejoin="round" stroke-width="0.5"/>
          <path id="Path_920622" data-name="Path 920622" d="M129.744,383.276H106.521l.126-.925h22.818a4.922,4.922,0,0,1,.278.925" transform="translate(-60.109 -215.759)" fill="#153e5f"/>
          <path id="Path_920623" data-name="Path 920623" d="M120.18,343.525h-10.1l-.265,7.306h9.736Z" transform="translate(-61.971 -193.849)" fill="#f4c7b7"/>
          <path id="Path_920624" data-name="Path 920624" d="M68.585,399.77c-1.063-4.116-6.483-5.522-6.483-5.522l-6.186-5.015H46.18l-.82,10.537Z" transform="translate(-25.596 -219.642)" fill="#4192f2"/>
          <path id="Path_920625" data-name="Path 920625" d="M61.023,392.477a10.227,10.227,0,0,1,5.616-.163" transform="translate(-34.435 -221.193)" fill="none" stroke="#153e5f" stroke-linecap="round" stroke-linejoin="round" stroke-width="0.5"/>
          <path id="Path_920626" data-name="Path 920626" d="M63.39,395.263a12.273,12.273,0,0,1,6.081-.163" transform="translate(-35.771 -222.765)" fill="none" stroke="#153e5f" stroke-linecap="round" stroke-linejoin="round" stroke-width="0.5"/>
          <path id="Path_920627" data-name="Path 920627" d="M65.758,398.05s3.811-1,6.548-.163" transform="translate(-37.107 -224.338)" fill="none" stroke="#153e5f" stroke-linecap="round" stroke-linejoin="round" stroke-width="0.5"/>
          <path id="Path_920628" data-name="Path 920628" d="M68.593,412.216H45.37l.072-.925H68.26a5.2,5.2,0,0,1,.333.925" transform="translate(-25.602 -232.089)" fill="#153e5f"/>
          <path id="Path_920629" data-name="Path 920629" d="M57.626,372.465H47.53l-.29,7.306h9.736Z" transform="translate(-26.658 -210.18)" fill="#f4c7b7"/>
          <path id="Path_920630" data-name="Path 920630" d="M80.43,91.053a16.681,16.681,0,0,0,2.607,12.2,29.663,29.663,0,0,1-11.8,1.7c-5.436-.319-12.085-2.594-13.694-3.195a16.679,16.679,0,0,0,4.016-11.812Z" transform="translate(-32.47 -50.756)" fill="#153e5f"/>
          <path id="Path_920631" data-name="Path 920631" d="M122.411,146.207s-9.768,5.848-12.856,8.05a4.845,4.845,0,0,1-6.663-.711,4.731,4.731,0,0,1-.82-1.508l-5.4-16.783a5.366,5.366,0,0,1,10.216-3.287l5.138,15.971-7.742-3.031,15.857-3.751a2.807,2.807,0,0,1,2.267,5.051" transform="translate(-54.406 -72.367)" fill="#f4c7b7"/>
          <path id="Path_920632" data-name="Path 920632" d="M108.506,136.837l-10.84,3.294L96,134.959a5.665,5.665,0,0,1,10.784-3.473Z" transform="translate(-54.019 -71.98)" fill="#4192f2"/>
          <path id="Path_920633" data-name="Path 920633" d="M72.953,145.2h0l.417-21.412a34.072,34.072,0,0,0-13.844-3.1,34.907,34.907,0,0,0-13.845,3.537L46.1,145.2h0l-1.315,6.142H74.268Z" transform="translate(-25.273 -68.102)" fill="#4192f2"/>
          <path id="Path_920634" data-name="Path 920634" d="M80.387,121.992c-1.037,3.512-4.858,6.618-4.858,6.618s-7.86-3.477-10.453-7.289a19.647,19.647,0,0,1,5.9-.846,30.05,30.05,0,0,1,9.411,1.517" transform="translate(-36.722 -67.983)" fill="#f4c7b7"/>
          <path id="Path_920635" data-name="Path 920635" d="M82.624,104.426H74.443l-.85,9.308h8.764Z" transform="translate(-41.528 -58.927)" fill="#f4c7b7"/>
          <path id="Path_920636" data-name="Path 920636" d="M78.156,104.426c.218,5.066,3.067,6.905,6.853,6.613l.19-6.613Z" transform="translate(-44.103 -58.927)" fill="#153e5f"/>
          <line id="Line_3334" data-name="Line 3334" y1="8.939" x2="0.257" transform="translate(40.839 45.499)" fill="none" stroke="#153e5f" stroke-linecap="round" stroke-linejoin="round" stroke-width="0.5"/>
          <path id="Path_920637" data-name="Path 920637" d="M82.5,60.123c-5.754-.7-10.168,3.5-10.867,9.251L71.457,70.8c-.9,7.381,3.212,13.953,10.592,14.85a7.529,7.529,0,0,0,8.383-6.565l1.217-7.279A10.5,10.5,0,0,0,82.5,60.123" transform="translate(-40.254 -33.884)" fill="#f4c7b7"/>
        </g>
      </g>
      <g id="Group_1114835" data-name="Group 1114835" transform="translate(31.081 26.163)">
        <g id="Group_1114834" data-name="Group 1114834" clip-path="url(#clip-path-4)">
          <path id="Path_920638" data-name="Path 920638" d="M88.4,96.091a2,2,0,1,1-1.744-2.227A2,2,0,0,1,88.4,96.091" transform="translate(-78.715 -79.121)" fill="#eca19b"/>
          <path id="Path_920639" data-name="Path 920639" d="M113.073,99.092a2,2,0,1,1-1.744-2.227,2,2,0,0,1,1.744,2.227" transform="translate(-92.639 -80.815)" fill="#eca19b"/>
        </g>
      </g>
      <g id="Group_1114837" data-name="Group 1114837">
        <g id="Group_1114836" data-name="Group 1114836" clip-path="url(#clip-path-2)">
          <path id="Path_920641" data-name="Path 920641" d="M100.217,104.7c-.892,1.474-1.918,2.307-2.77,2.085s-1.341-1.45-1.4-3.172Z" transform="translate(-54.199 -58.471)" fill="#fff"/>
          <path id="Path_920642" data-name="Path 920642" d="M102.248,96.575l1.81-.82a6.089,6.089,0,0,1-.96-4.286" transform="translate(-57.698 -51.616)" fill="none" stroke="#153e5f" stroke-linecap="round" stroke-linejoin="round" stroke-width="0.5"/>
          <path id="Path_920643" data-name="Path 920643" d="M93.7,85.085a.246.246,0,0,1-.167-.065,2.044,2.044,0,0,0-1.36-.535,2.016,2.016,0,0,0-1.372.5.248.248,0,0,1-.325-.373,2.477,2.477,0,0,1,1.7-.625,2.537,2.537,0,0,1,1.688.665.247.247,0,0,1-.167.43" transform="translate(-51.005 -47.395)" fill="#153e5f"/>
          <path id="Path_920644" data-name="Path 920644" d="M110.683,87.422a.247.247,0,0,1-.2-.105,2.056,2.056,0,0,0-2.66-.623.247.247,0,0,1-.237-.434,2.551,2.551,0,0,1,3.3.774.247.247,0,0,1-.061.345.245.245,0,0,1-.142.045" transform="translate(-60.636 -48.501)" fill="#153e5f"/>
          <path id="Path_920645" data-name="Path 920645" d="M93.236,91.036a1.362,1.362,0,1,1-1.188-1.517,1.362,1.362,0,0,1,1.188,1.517" transform="translate(-51.081 -50.509)" fill="#153e5f"/>
          <path id="Path_920646" data-name="Path 920646" d="M89.849,90.556,88.77,89.385l1.521.475Z" transform="translate(-50.092 -50.439)" fill="#153e5f"/>
          <path id="Path_920647" data-name="Path 920647" d="M107.507,92.771a1.362,1.362,0,1,0,1.517-1.188,1.362,1.362,0,0,0-1.517,1.188" transform="translate(-60.66 -51.674)" fill="#153e5f"/>
          <path id="Path_920648" data-name="Path 920648" d="M112.751,93.592l1.328-.879-1.59.1Z" transform="translate(-63.477 -52.318)" fill="#153e5f"/>
          <path id="Path_920649" data-name="Path 920649" d="M85.6,60.592l0,0a11.226,11.226,0,0,0-5.718-2.42c-7.346-.894-12.352,3.4-13.2,9.806-1.1,8.243,3.732,10.727,3.732,10.727a11.794,11.794,0,0,1-.109-4.842c3.867-.46,7.051-7.1,7.37-9.717,0,0,4.489,5.477,11.273,6.427A8.36,8.36,0,0,0,85.6,60.592" transform="translate(-37.533 -32.762)" fill="#153e5f"/>
          <path id="Path_920650" data-name="Path 920650" d="M80.359,76.572l3.01,1.8a.589.589,0,0,0,.807-.2l.784-1.309a.588.588,0,0,0-.2-.807l-3.01-1.8a.588.588,0,0,0-.807.2l-.784,1.309a.589.589,0,0,0,.2.807m.63-.743.4-.671a.19.19,0,0,1,.261-.066l2.411,1.443a.191.191,0,0,1,.066.261l-.4.671a.194.194,0,0,1-.265.067l-2.407-1.441a.193.193,0,0,1-.066-.264" transform="translate(-45.185 -41.854)" fill="#fff"/>
          <path id="Path_920651" data-name="Path 920651" d="M68.354,90.3a2.708,2.708,0,0,0,3.99.711,3.362,3.362,0,0,0,.154-4.428,2.708,2.708,0,0,0-3.99-.711,3.363,3.363,0,0,0-.154,4.428" transform="translate(-38.148 -48.119)" fill="#f4c7b7"/>
          <path id="Path_920652" data-name="Path 920652" d="M70.528,89.137A2.7,2.7,0,0,1,73.3,91.809Z" transform="translate(-39.799 -50.299)" fill="#153e5f"/>
          <path id="Path_920653" data-name="Path 920653" d="M69.327,96.818a2.708,2.708,0,0,0,3.99.711" transform="translate(-39.121 -54.634)" fill="none" stroke="#153e5f" stroke-linecap="round" stroke-linejoin="round" stroke-width="0.5"/>
          <path id="Path_920654" data-name="Path 920654" d="M53.8,145.9,41.72,154.559a4.929,4.929,0,0,1-7.756-4.672l.126-.906L36.265,133.3a5.366,5.366,0,1,1,10.63,1.475L44.72,150.455l-7.631-5.578,14.318-3.969A2.812,2.812,0,0,1,53.8,145.9" transform="translate(-19.14 -72.608)" fill="#f4c7b7"/>
          <line id="Line_3335" data-name="Line 3335" y1="2.423" x2="8.74" transform="translate(17.949 69.847)" fill="none" stroke="#153e5f" stroke-linecap="round" stroke-linejoin="round" stroke-width="0.5"/>
          <path id="Path_920655" data-name="Path 920655" d="M88.4,148.771a4.811,4.811,0,0,0,2.864-.229c.833-.242,1.572-.5,1.909.2a1.638,1.638,0,0,1-.964,2.2c-.729.358-3.224,1.525-3.224,1.525Z" transform="translate(-49.884 -83.679)" fill="#eca19b"/>
          <path id="Path_920656" data-name="Path 920656" d="M77.929,153.1a7.078,7.078,0,0,0-.72-3.168,9.869,9.869,0,0,0-2.067-1.647,1.177,1.177,0,0,0-.734-.157,2.954,2.954,0,0,0-1.229.8,1.114,1.114,0,0,0-1.457-.149,2.054,2.054,0,0,0-.767,1.317,1.638,1.638,0,0,0-1.585.1,1.469,1.469,0,0,0-.636,1.35s-1.661-.565-1.954,1.059l-1.065,3.812a3.291,3.291,0,0,0,2.607,1.011,6.9,6.9,0,0,0,1.619-.457,1.673,1.673,0,0,0,1.611.568,1.068,1.068,0,0,0,.688-.876,2.067,2.067,0,0,0,1.751.531,1.166,1.166,0,0,0,.855-1.081,1.987,1.987,0,0,0,1.19-.183c.892-.505.576-1.691.576-1.691s1.329-.142,1.317-1.133" transform="translate(-37.082 -83.582)" fill="#f4c7b7"/>
          <path id="Path_920657" data-name="Path 920657" d="M83.293,150.723a17.442,17.442,0,0,1,2.119,2.124c.42.675.624,1.9,1.12,2.853" transform="translate(-47.002 -85.052)" fill="none" stroke="#153e5f" stroke-linecap="round" stroke-linejoin="round" stroke-width="0.5"/>
          <path id="Path_920658" data-name="Path 920658" d="M78.393,153.343a20.739,20.739,0,0,1,2.162,2.274c.5.8.85,2.285,1.445,3.435" transform="translate(-44.237 -86.531)" fill="none" stroke="#153e5f" stroke-linecap="round" stroke-linejoin="round" stroke-width="0.5"/>
          <path id="Path_920659" data-name="Path 920659" d="M73.666,156.7a16.412,16.412,0,0,1,1.994,2.044c.388.644.582,1.853,1.067,2.754" transform="translate(-41.569 -88.423)" fill="none" stroke="#153e5f" stroke-linecap="round" stroke-linejoin="round" stroke-width="0.5"/>
          <path id="Path_920660" data-name="Path 920660" d="M74.252,166.282a1.674,1.674,0,0,1-1.613-.57,7.4,7.4,0,0,1-.812-1.5,2.408,2.408,0,0,1-1.327-.582" transform="translate(-39.783 -92.334)" fill="none" stroke="#153e5f" stroke-linecap="round" stroke-linejoin="round" stroke-width="0.5"/>
          <path id="Path_920661" data-name="Path 920661" d="M65.716,167.146a3.284,3.284,0,0,0,2.606,1.011,6.859,6.859,0,0,0,1.62-.457" transform="translate(-37.083 -94.32)" fill="none" stroke="#153e5f" stroke-linecap="round" stroke-linejoin="round" stroke-width="0.5"/>
          <path id="Path_920662" data-name="Path 920662" d="M48.807,134.428l-.823,5.943-11.2-1.7.8-5.795a5.663,5.663,0,1,1,11.219,1.555" transform="translate(-20.758 -72.22)" fill="#4192f2"/>
          <path id="Path_920663" data-name="Path 920663" d="M102.381,168.532v1.338a.723.723,0,0,1-.723.723H61.975a.723.723,0,0,1-.723-.723v-1.338Z" transform="translate(-34.564 -95.102)" fill="#326290"/>
          <path id="Path_920664" data-name="Path 920664" d="M96.552,124.591l-2.31,18.787h1.621l2.388-19.421h-.987a.738.738,0,0,0-.712.634" transform="translate(-53.18 -69.948)" fill="#153e5f"/>
          <path id="Path_920665" data-name="Path 920665" d="M121.935,143.379l2.31-18.787a.549.549,0,0,0-.556-.634H98.925a.738.738,0,0,0-.712.634L95.9,143.379Z" transform="translate(-54.118 -69.949)" fill="#326290"/>
          <line id="Line_3336" data-name="Line 3336" x2="26.755" transform="translate(41.062 73.43)" fill="none" stroke="#153e5f" stroke-linecap="round" stroke-linejoin="round" stroke-width="0.5"/>
          <path id="Path_920666" data-name="Path 920666" d="M129.7,142.664a3.216,3.216,0,0,1-3.1,2.764,2.393,2.393,0,0,1-2.424-2.764,3.216,3.216,0,0,1,3.1-2.764,2.393,2.393,0,0,1,2.424,2.764" transform="translate(-70.06 -78.945)" fill="#8db9f0"/>
          <path id="Path_920667" data-name="Path 920667" d="M130.065,144.2a1.835,1.835,0,0,1-1.772,1.577,1.366,1.366,0,0,1-1.383-1.577,1.836,1.836,0,0,1,1.772-1.577,1.366,1.366,0,0,1,1.383,1.577" transform="translate(-71.608 -80.482)" fill="#d6e9fc"/>
          <path id="Path_920668" data-name="Path 920668" d="M151.189,151.76c-1.015-1.159-2.111-2.352-2.5-2.788-.723-.81-1.225-1.023-1.8-.524a1.532,1.532,0,0,0-.491,1.186,1.009,1.009,0,0,0-1.733.03,1.986,1.986,0,0,0-.146,1.576.888.888,0,0,0-1.472-.008,2.059,2.059,0,0,0,0,2.211.879.879,0,0,0-1.49.1,3.206,3.206,0,0,0,.192,2.627c.148.3.592,1.271.592,1.271s0,1.37-.059,1.665l-1.819,1.377a6.792,6.792,0,0,0,4.926.394c.455-.3,1.284-.12,1.731-.428.382-.264.544-.855.893-1.155.389-.341.838-.164,1.2-.534.26-.268.614-.949.875-1.212.291-.283.825-.41,1.036-.671a15.848,15.848,0,0,0,.6-3.4,2.205,2.205,0,0,0-.528-1.716" transform="translate(-79.26 -83.617)" fill="#f4c7b7"/>
          <path id="Path_920669" data-name="Path 920669" d="M154.082,151.516s2.547,2.135,2.755,2.869a25.144,25.144,0,0,1,.451,2.869l.374-.315" transform="translate(-86.948 -85.5)" fill="none" stroke="#153e5f" stroke-linecap="round" stroke-linejoin="round" stroke-width="0.5"/>
          <path id="Path_920670" data-name="Path 920670" d="M149.768,155.205s2.562,2.3,2.688,2.927c.2.982.348,2.927.348,2.927l.41-.346" transform="translate(-84.513 -87.581)" fill="none" stroke="#153e5f" stroke-linecap="round" stroke-linejoin="round" stroke-width="0.5"/>
          <path id="Path_920671" data-name="Path 920671" d="M146.392,160.255a23.952,23.952,0,0,1,1.823,2.511,12.109,12.109,0,0,1,.492,2.985l.43-.361" transform="translate(-82.608 -90.431)" fill="none" stroke="#153e5f" stroke-linecap="round" stroke-linejoin="round" stroke-width="0.5"/>
          <path id="Path_920672" data-name="Path 920672" d="M84.327,229.922l-2.51,18.618c-.414,3.089-1.085,7.459-1.551,10.679l-14.178-.166c.048-.95.462-8.967.662-12.017l.985-16.452s-5.394-11-7.089-14.712c-1.352-2.962-4.226-10.074-4.435-10.623l1.412,26.491a45.355,45.355,0,0,1-.078,5.96c-1.063,13.167-2.758,34.421-2.81,35l-14.065-1.255-.009-.009c.017-3.747.187-34.473.187-34.473s-2.6-27.806-2.758-29.637a27.081,27.081,0,0,1,1.059-10.23c.614-2.035,1.316-4.182,1.8-6.048h29.48c.279,1.076.575,2.253.867,3.451.85,1.873,4.71,11.755,5.83,14.814l6.854,17.274a7.164,7.164,0,0,1,.349,3.338" transform="translate(-21.435 -107.806)" fill="#3a2292"/>
          <path id="Path_920673" data-name="Path 920673" d="M46.127,191.046c-.484,1.865-1.185,4.013-1.8,6.048a27.079,27.079,0,0,0-1.059,10.23c.161,1.83,2.758,29.637,2.758,29.637s-.17,30.724-.187,34.471l.01.01" transform="translate(-24.357 -107.806)" fill="none" stroke="#a1c7f7" stroke-linecap="round" stroke-linejoin="round" stroke-width="0.5"/>
          <path id="Path_920674" data-name="Path 920674" d="M84.789,223.154c.209.549,3.235,7.848,4.525,10.837l3.869,7.341L96.4,248.7l-.985,16.452c-.189,2.87-.566,10.141-.65,11.778" transform="translate(-47.846 -125.925)" fill="none" stroke="#a1c7f7" stroke-linecap="round" stroke-linejoin="round" stroke-width="0.5"/>
          <path id="Path_920675" data-name="Path 920675" d="M80.136,228.8l-.321-6.014,6.7-.663" transform="translate(-45.04 -125.344)" fill="none" stroke="#a1c7f7" stroke-linecap="round" stroke-linejoin="round" stroke-width="0.5"/>
          <path id="Path_920676" data-name="Path 920676" d="M88.214,191.046l1.136,6.547a9.588,9.588,0,0,1-.844,5.871l-.292.595" transform="translate(-49.779 -107.806)" fill="none" stroke="#a1c7f7" stroke-linecap="round" stroke-linejoin="round" stroke-width="0.5"/>
          <path id="Path_920677" data-name="Path 920677" d="M46.364,196.344c5.17-.021,6.246-2.442,7.555-5.3" transform="translate(-26.163 -107.806)" fill="none" stroke="#a1c7f7" stroke-linecap="round" stroke-linejoin="round" stroke-width="0.5"/>
          <path id="Path_920678" data-name="Path 920678" d="M63.7,191.046Z" transform="translate(-35.947 -107.806)" fill="none" stroke="#a1c7f7" stroke-linecap="round" stroke-linejoin="round" stroke-width="0.5"/>
          <path id="Path_920679" data-name="Path 920679" d="M109.919,195.976c-2.717-.783-3.588-2.727-4.6-4.93" transform="translate(-59.432 -107.806)" fill="none" stroke="#a1c7f7" stroke-linecap="round" stroke-linejoin="round" stroke-width="0.5"/>
          <path id="Path_920680" data-name="Path 920680" d="M105.321,191.046Z" transform="translate(-59.432 -107.806)" fill="none" stroke="#a1c7f7" stroke-linecap="round" stroke-linejoin="round" stroke-width="0.5"/>
          <path id="Path_920681" data-name="Path 920681" d="M640.621,116.3l-12.049,113.4h-7.808l12.681-119.5,5.258,2.606a3.489,3.489,0,0,1,1.919,3.493" transform="translate(-350.293 -62.187)" fill="#153e5f"/>
          <path id="Path_920682" data-name="Path 920682" d="M399.813,229.076H225.623L237.941,113a4.462,4.462,0,0,1,4.331-3.916H408.631a3.456,3.456,0,0,1,3.5,3.916Z" transform="translate(-127.318 -61.558)" fill="#326290"/>
          <path id="Path_920683" data-name="Path 920683" d="M242.971,231.091l11.283-106.319H414.778L403.495,231.091Z" transform="translate(-137.107 -70.408)" fill="#a1c7f7"/>
          <path id="Path_920684" data-name="Path 920684" d="M428.365,146.712l-.385,3.627H283.227l.385-3.627a4.369,4.369,0,0,1,4.245-3.837H424.934a3.385,3.385,0,0,1,3.43,3.837" transform="translate(-159.824 -80.624)" fill="#c0afff"/>
          <path id="Path_920685" data-name="Path 920685" d="M602.769,149.471a1.733,1.733,0,0,1-1.683,1.521,1.343,1.343,0,0,1-1.36-1.521,1.734,1.734,0,0,1,1.683-1.521,1.342,1.342,0,0,1,1.36,1.521" transform="translate(-338.418 -83.487)" fill="#153e5f"/>
          <path id="Path_920686" data-name="Path 920686" d="M588.685,149.471A1.734,1.734,0,0,1,587,150.992a1.343,1.343,0,0,1-1.36-1.521,1.734,1.734,0,0,1,1.683-1.521,1.343,1.343,0,0,1,1.36,1.521" transform="translate(-330.47 -83.487)" fill="#153e5f"/>
          <path id="Path_920687" data-name="Path 920687" d="M574.6,149.471a1.734,1.734,0,0,1-1.683,1.521,1.343,1.343,0,0,1-1.36-1.521,1.734,1.734,0,0,1,1.683-1.521,1.342,1.342,0,0,1,1.36,1.521" transform="translate(-322.523 -83.487)" fill="#153e5f"/>
          <path id="Path_920688" data-name="Path 920688" d="M417.06,160.007l-8.41,79.244a4.374,4.374,0,0,1-4.245,3.837H267.328a3.388,3.388,0,0,1-3.43-3.837l8.41-79.244Z" transform="translate(-148.904 -90.291)" fill="#fff"/>
          <path id="Path_920689" data-name="Path 920689" d="M484.8,307.4h41.063l2.064-19.451H486.86Z" transform="translate(-273.568 -162.489)" fill="#7d0ede"/>
          <path id="Path_920690" data-name="Path 920690" d="M490.624,252.478h41.063l2.064-19.451H492.688Z" transform="translate(-276.857 -131.496)" fill="#3a2292"/>
          <path id="Path_920691" data-name="Path 920691" d="M496.453,197.554h41.063L539.58,178.1H498.517Z" transform="translate(-280.146 -100.503)" fill="#8db9f0"/>
          <path id="Path_920692" data-name="Path 920692" d="M365.03,289.649l-.267,2.511H286.954l.267-2.511Z" transform="translate(-161.927 -163.447)" fill="#c0afff"/>
          <path id="Path_920693" data-name="Path 920693" d="M361.084,326.831l-.267,2.511H283.008l.267-2.511Z" transform="translate(-159.7 -184.429)" fill="#c0afff"/>
          <path id="Path_920694" data-name="Path 920694" d="M363.057,308.24l-.267,2.511H284.981l.267-2.511Z" transform="translate(-160.813 -173.938)" fill="#c0afff"/>
          <path id="Path_920695" data-name="Path 920695" d="M367,271.058l-.267,2.511H288.927l.267-2.511Z" transform="translate(-163.04 -152.957)" fill="#c0afff"/>
          <path id="Path_920696" data-name="Path 920696" d="M368.976,252.467l-.267,2.511H290.9l.267-2.511Z" transform="translate(-164.153 -142.466)" fill="#c0afff"/>
          <path id="Path_920697" data-name="Path 920697" d="M370.949,233.876l-.267,2.511H292.873l.267-2.511Z" transform="translate(-165.267 -131.975)" fill="#c0afff"/>
          <path id="Path_920698" data-name="Path 920698" d="M372.922,215.286l-.266,2.511h-77.81l.267-2.511Z" transform="translate(-166.38 -121.485)" fill="#c0afff"/>
          <path id="Path_920699" data-name="Path 920699" d="M374.895,196.695l-.267,2.511H296.819l.267-2.511Z" transform="translate(-167.493 -110.994)" fill="#c0afff"/>
          <path id="Path_920700" data-name="Path 920700" d="M376.867,178.1l-.266,2.511H298.792l.267-2.511Z" transform="translate(-168.607 -100.503)" fill="#c0afff"/>
          <path id="Path_920701" data-name="Path 920701" d="M3.914,397.086H173.49V384.477H0v8.7a3.913,3.913,0,0,0,3.914,3.913" transform="translate(0 -216.958)" fill="#326290"/>
          <path id="Path_920702" data-name="Path 920702" d="M156.023,384.477a3.643,3.643,0,0,0,3.648,3.643h26.322a3.644,3.644,0,0,0,3.648-3.643Z" transform="translate(-88.043 -216.958)" fill="#153e5f"/>
          <path id="Path_920703" data-name="Path 920703" d="M393.115,397.086H494.127a3.775,3.775,0,0,0,3.775-3.774v-8.835H389.2v8.7a3.913,3.913,0,0,0,3.914,3.913" transform="translate(-219.624 -216.958)" fill="#153e5f"/>
          <path id="Path_920704" data-name="Path 920704" d="M616.347,394.858a3.158,3.158,0,1,1-3.158-3.157,3.158,3.158,0,0,1,3.158,3.157" transform="translate(-344.238 -221.034)" fill="#326290"/>
          <path id="Path_920705" data-name="Path 920705" d="M616.7,396.409a1.96,1.96,0,1,1-1.959-1.959,1.96,1.96,0,0,1,1.959,1.959" transform="translate(-345.79 -222.586)" fill="#153e5f"/>
          <path id="Path_920706" data-name="Path 920706" d="M566.776,394.449c0,2.165,1.319,3.919,3.483,3.919h7.495c2.164,0,3.483-1.755,3.483-3.919Z" transform="translate(-319.829 -222.586)" fill="#326290"/>
          <path id="Path_920707" data-name="Path 920707" d="M523.52,394.449c0,2.165,1.319,3.919,3.483,3.919H534.5c2.164,0,3.483-1.755,3.483-3.919Z" transform="translate(-295.42 -222.586)" fill="#326290"/>
          <line id="Line_3337" data-name="Line 3337" x2="179.537" transform="translate(98.305 167.518)" fill="none" stroke="#153e5f" stroke-linecap="round" stroke-linejoin="round" stroke-width="0.75"/>
          <path id="Path_920708" data-name="Path 920708" d="M475.792,92.432l3.853,3.853-2.365,22.278c-1.451,13.7-9.514,26.72-22.062,35.629l-21.011,14.929-4.337-3.627-.074-.063Z" transform="translate(-242.532 -52.159)" fill="#f2a941"/>
          <path id="Path_920709" data-name="Path 920709" d="M397.4,46.124,357.179,66.3l-2.365,22.278a40.326,40.326,0,0,0,14.5,35.634L387.5,139.428l21.419-15.216c12.548-8.915,20.608-21.932,22.062-35.634L433.348,66.3Z" transform="translate(-200.087 -26.028)" fill="#fdc563"/>
          <path id="Path_920710" data-name="Path 920710" d="M430.145,194.412,451.564,179.2c12.549-8.915,20.608-21.932,22.062-35.633" transform="translate(-242.729 -81.012)" fill="none" stroke="#153e5f" stroke-linecap="round" stroke-linejoin="round" stroke-width="0.623"/>
          <path id="Path_920711" data-name="Path 920711" d="M430.145,194.412,451.564,179.2c12.549-8.915,20.608-21.932,22.062-35.633" transform="translate(-242.729 -81.012)" fill="none" stroke="#153e5f" stroke-linecap="round" stroke-linejoin="round" stroke-width="0.75"/>
          <path id="Path_920712" data-name="Path 920712" d="M381.933,128.466a34.656,34.656,0,0,1-12.561-30.62l1.961-18.473L404.88,62.547l29.976,16.827L432.9,97.846c-1.246,11.739-8.193,22.9-19.059,30.62l-17.252,12.256Z" transform="translate(-208.321 -35.295)" fill="#f2a941"/>
          <path id="Path_920713" data-name="Path 920713" d="M369.634,97.846l1.96-18.472,33.548-16.826,29.976,16.826-1.96,18.472" transform="translate(-208.582 -35.295)" fill="none" stroke="#153e5f" stroke-linecap="round" stroke-linejoin="round" stroke-width="0.75"/>
          <path id="Path_920714" data-name="Path 920714" d="M441.542,116.244a7.8,7.8,0,0,0-7.9-8.837,10.068,10.068,0,0,0-9.774,8.837,7.814,7.814,0,0,0,4.035,7.889l-1.547,14.579a3.5,3.5,0,0,0,3.544,3.964,4.518,4.518,0,0,0,4.385-3.964l1.547-14.579a10.094,10.094,0,0,0,5.709-7.889" transform="translate(-239.159 -60.609)" fill="#153e5f"/>
          <path id="Path_920715" data-name="Path 920715" d="M134.666,199.66a2.161,2.161,0,1,1-2.161-2.161A2.161,2.161,0,0,1,134.666,199.66Z" transform="translate(-73.552 -111.448)" fill="none" stroke="#fff" stroke-linecap="round" stroke-linejoin="round" stroke-width="1"/>
          <path id="Path_920716" data-name="Path 920716" d="M654.74,10.986a2.161,2.161,0,1,1-2.161-2.161A2.16,2.16,0,0,1,654.74,10.986Z" transform="translate(-367.028 -4.98)" fill="none" stroke="#fff" stroke-linecap="round" stroke-linejoin="round" stroke-width="1"/>
          <path id="Path_920717" data-name="Path 920717" d="M549.356,60.4a2.161,2.161,0,1,1-2.161-2.161A2.161,2.161,0,0,1,549.356,60.4Z" transform="translate(-307.56 -32.864)" fill="none" stroke="#fff" stroke-linecap="round" stroke-linejoin="round" stroke-width="1"/>
          <path id="Path_920718" data-name="Path 920718" d="M386.607,50.523a2.161,2.161,0,1,1-2.161-2.161A2.161,2.161,0,0,1,386.607,50.523Z" transform="translate(-215.721 -27.29)" fill="none" stroke="#fff" stroke-linecap="round" stroke-linejoin="round" stroke-width="1"/>
          <path id="Path_920719" data-name="Path 920719" d="M20.288,292.614a2.161,2.161,0,1,1-2.161-2.161A2.161,2.161,0,0,1,20.288,292.614Z" transform="translate(-9.01 -163.901)" fill="none" stroke="#fff" stroke-linecap="round" stroke-linejoin="round" stroke-width="1"/>
          <path id="Path_920720" data-name="Path 920720" d="M36.977,15.945a2.161,2.161,0,1,1-2.161-2.161A2.161,2.161,0,0,1,36.977,15.945Z" transform="translate(-18.427 -7.778)" fill="none" stroke="#fff" stroke-linecap="round" stroke-linejoin="round" stroke-width="1"/>
          <path id="Path_920721" data-name="Path 920721" d="M236.673,5.016a2.161,2.161,0,1,1-2.161-2.161A2.161,2.161,0,0,1,236.673,5.016Z" transform="translate(-131.114 -1.611)" fill="none" stroke="#fff" stroke-linecap="round" stroke-linejoin="round" stroke-width="1"/>
          <path id="Path_920722" data-name="Path 920722" d="M10.369,155.071a2.161,2.161,0,1,1-2.161-2.161A2.161,2.161,0,0,1,10.369,155.071Z" transform="translate(-3.412 -86.286)" fill="none" stroke="#fff" stroke-linecap="round" stroke-linejoin="round" stroke-width="1"/>
          <path id="Path_920723" data-name="Path 920723" d="M17.915,78.753l-.147,6.271,5.076-2.391Z" transform="translate(-10.027 -44.44)" fill="none" stroke="#fff" stroke-linecap="round" stroke-linejoin="round" stroke-width="1"/>
          <path id="Path_920724" data-name="Path 920724" d="M177.437,41.165l-.147,6.271,5.076-2.391Z" transform="translate(-100.044 -23.229)" fill="none" stroke="#fff" stroke-linecap="round" stroke-linejoin="round" stroke-width="1"/>
          <path id="Path_920725" data-name="Path 920725" d="M9.086,226.68l-.147,6.271,5.076-2.391Z" transform="translate(-5.045 -127.914)" fill="none" stroke="#fff" stroke-linecap="round" stroke-linejoin="round" stroke-width="1"/>
          <path id="Path_920726" data-name="Path 920726" d="M597.721,38.091l5.523-2.975-4.589-3.228Z" transform="translate(-337.291 -17.994)" fill="none" stroke="#fff" stroke-linecap="round" stroke-linejoin="round" stroke-width="1"/>
          <path id="Path_920727" data-name="Path 920727" d="M345.511,9.814l-5.91,2.1,4.047,3.886Z" transform="translate(-191.635 -5.538)" fill="none" stroke="#fff" stroke-linecap="round" stroke-linejoin="round" stroke-width="1"/>
          <path id="Path_920728" data-name="Path 920728" d="M210.827,197.7l-5.211,3.491,4.877,2.773Z" transform="translate(-116.028 -111.561)" fill="none" stroke="#fff" stroke-linecap="round" stroke-linejoin="round" stroke-width="1"/>
          <path id="Path_920729" data-name="Path 920729" d="M116.784,15.108l-4.067,4.776,5.447,1.343Z" transform="translate(-63.606 -8.525)" fill="none" stroke="#fff" stroke-linecap="round" stroke-linejoin="round" stroke-width="1"/>
          <path id="Path_920730" data-name="Path 920730" d="M645.459,72.618l5.211,3.491-4.877,2.773Z" transform="translate(-364.229 -40.978)" fill="none" stroke="#fff" stroke-linecap="round" stroke-linejoin="round" stroke-width="1"/>
          <path id="Path_920731" data-name="Path 920731" d="M529.543,7.727l.46,6.256-5.189-2.135Z" transform="translate(-296.15 -4.36)" fill="none" stroke="#fff" stroke-linecap="round" stroke-linejoin="round" stroke-width="1"/>
          <path id="Path_920732" data-name="Path 920732" d="M453.244,16.373l5.211,3.491-4.877,2.773Z" transform="translate(-255.763 -9.239)" fill="none" stroke="#fff" stroke-linecap="round" stroke-linejoin="round" stroke-width="1"/>
        </g>
      </g>
    </g>
  </g>
</svg>
