<svg xmlns="http://www.w3.org/2000/svg" xmlns:xlink="http://www.w3.org/1999/xlink" width="150" height="150" viewBox="0 0 150 150">
  <defs>
    <clipPath id="clip-path">
      <rect id="Rectangle_406617" data-name="Rectangle 406617" width="150" height="150" fill="#170551" stroke="rgba(0,0,0,0)" stroke-miterlimit="10" stroke-width="1"/>
    </clipPath>
    <clipPath id="clip-path-2">
      <rect id="Rectangle_401492" data-name="Rectangle 401492" width="85.933" height="85.933" transform="translate(0.354 -0.077)" fill="#fff" stroke="#707070" stroke-width="1"/>
    </clipPath>
    <clipPath id="clip-path-3">
      <rect id="Rectangle_407854" data-name="Rectangle 407854" width="77.667" height="77.667" fill="#fff"/>
    </clipPath>
  </defs>
  <g id="Group_1114509" data-name="Group 1114509" transform="translate(-314.001 -7639.334)">
    <g id="Group_1113263" data-name="Group 1113263" transform="translate(314.001 7639.334)">
      <g id="Group_1112834" data-name="Group 1112834" transform="translate(0 0)" clip-path="url(#clip-path)">
        <path id="Path_917479" data-name="Path 917479" d="M141.838,85.219l-7.011-5.771a63.054,63.054,0,0,0-.715-20.151l6.566-6.252a3.994,3.994,0,0,0,.878-4.557L134.9,33.928a4,4,0,0,0-3.632-2.334c-.13,0-.26.006-.39.018l-9.041.877a64.009,64.009,0,0,0-14.751-13.742l.222-9.064a4,4,0,0,0-2.6-3.842L89.7.252A3.985,3.985,0,0,0,88.305,0h0a3.979,3.979,0,0,0-3.085,1.457L79.447,8.471a63.047,63.047,0,0,0-20.15.715L53.045,2.621A4.014,4.014,0,0,0,50.151,1.38a3.964,3.964,0,0,0-1.662.362L33.927,8.4a4,4,0,0,0-2.315,4.021l.877,9.043A64,64,0,0,0,18.746,36.216l-9.063-.222-.1,0a4.012,4.012,0,0,0-3.743,2.6L.25,53.6a4,4,0,0,0,1.2,4.479L8.47,63.851A63.046,63.046,0,0,0,9.185,84L2.619,90.252a4,4,0,0,0-.877,4.557L8.4,109.371a4,4,0,0,0,3.633,2.335c.129,0,.258-.006.387-.018l9.043-.878a64.013,64.013,0,0,0,14.751,13.743l-.222,9.063a4,4,0,0,0,2.6,3.843l15,5.59a4,4,0,0,0,4.481-1.206l5.772-7.013A63.043,63.043,0,0,0,84,134.113l6.252,6.566a4.013,4.013,0,0,0,2.893,1.241,3.97,3.97,0,0,0,1.661-.361L109.37,134.9a4,4,0,0,0,2.315-4.022l-.877-9.042a63.993,63.993,0,0,0,13.742-14.752l9.064.222h.1a4.011,4.011,0,0,0,3.743-2.6l5.59-15.005a4,4,0,0,0-1.208-4.482" transform="translate(3.413 2.936)" fill="#170551" stroke="#7d0ede" stroke-miterlimit="10" stroke-width="3"/>
      </g>
    </g>
    <g id="Group_1111310" data-name="Group 1111310" transform="translate(346.356 7671.085)">
      <rect id="Rectangle_401104" data-name="Rectangle 401104" width="80.066" height="81.358" transform="translate(2.933 0)" fill="none"/>
      <g id="Mask_Group_1098697" data-name="Mask Group 1098697" transform="translate(0 0)" clip-path="url(#clip-path-2)">
        <g id="Group_1114843" data-name="Group 1114843" transform="translate(4.355 3.923)">
          <g id="Group_1114842" data-name="Group 1114842" clip-path="url(#clip-path-3)">
            <path id="Path_920739" data-name="Path 920739" d="M84.539,64.305a50.178,50.178,0,0,1,7.72-.058c2.523.231,1.856,3.68,3,5.2a8.288,8.288,0,0,0,2.143.98c1.127.188,3.235-1.694,4.476-1.863,1.087-.148,3.761,2.395,4.556,3.227a16.487,16.487,0,0,1,2.407,3.153c.38,1.329-1.779,3.548-1.854,4.735a13.287,13.287,0,0,0,.783,2.3c.818,1.1,5.106.889,5.407,2.793A49.2,49.2,0,0,1,113.2,92.3c-.231,2.523-3.68,1.857-5.2,3a8.248,8.248,0,0,0-.975,2.136c-.155,1.156,1.692,3.269,1.858,4.482.147,1.084-2.4,3.767-3.227,4.556a14.821,14.821,0,0,1-3.323,2.45c-1.142.246-3.477-1.828-4.565-1.9a13.3,13.3,0,0,0-2.3.783c-1.1.818-.89,5.106-2.793,5.407a49.2,49.2,0,0,1-7.532.024c-.71-.065-1.086-.065-1.48-.736-1.156-1.97-.482-4.948-3.443-5.441-1.42-.236-3.589,1.858-4.857,1.9-.9.029-3.7-2.531-4.4-3.265-.917-.96-2.7-2.78-2.341-4.1.582-2.132,2.79-3.518,1.1-5.959-.873-1.261-5.2-1-5.5-2.92a49.2,49.2,0,0,1-.024-7.532c.065-.71.065-1.087.736-1.48,1.984-1.164,4.93-.468,5.437-3.443.327-1.92-2.688-3.817-1.5-5.923a23.465,23.465,0,0,1,4.668-4.861c.944-.68,1.313-1.1,2.473-.745,2.095.649,3.456,2.651,5.794,1.034,1.174-.812,1.125-5.1,2.732-5.468m7.125,2.643H85.741l-1.7,4.618a36.685,36.685,0,0,1-3.868,1.692c-1.294.216-3.337-1.454-4.586-1.866-.593-.035-4.153,3.516-4.237,4.1L73.235,79.7l-1.7,4.351L66.861,85.9l.041,5.807,4.526,1.569a32.952,32.952,0,0,1,1.783,4c.216,1.294-1.454,3.337-1.866,4.586-.035.593,3.515,4.153,4.1,4.237l4.207-1.885,4.351,1.7,1.855,4.676,5.807-.041,1.643-4.563a42.645,42.645,0,0,1,4.141-1.74c1.128-.152,3.234,1.5,4.37,1.86.593.035,4.153-3.516,4.237-4.1L104.17,97.8c.438-1.022,1.3-4.226,2.089-4.683.6-.346,4.2-1.171,4.284-1.524l-.041-5.807-4.563-1.643A42.678,42.678,0,0,1,104.2,80c-.152-1.128,1.5-3.234,1.86-4.37.035-.593-3.515-4.153-4.1-4.237L97.755,73.28a43.428,43.428,0,0,1-4.135-1.529c-.914-.538-1.429-3.791-1.957-4.8" transform="translate(-49.869 -49.915)" fill="#fff"/>
            <path id="Path_920740" data-name="Path 920740" d="M264.052,247.593c11.014,10.08-4.34,27.6-15.995,16.867-10.881-10.018,4.433-27.449,15.995-16.867m-9.27-.485c-13.009,1.784-7.856,22.321,4.706,17.339,9.629-3.818,5.922-18.8-4.706-17.339" transform="translate(-190.182 -190.154)" fill="#fff"/>
            <path id="Path_920741" data-name="Path 920741" d="M264.462,19.815C254.44,30.7,237.016,15.373,247.6,3.82c10.086-11.014,27.6,4.342,16.867,15.995M254.309,2.895c-10.759,1.684-9.057,19.285,3.026,17.875C268.676,19.447,267.08.9,254.309,2.895" transform="translate(-190.156 -0.024)" fill="#fff"/>
            <path id="Path_920742" data-name="Path 920742" d="M20.227,264.048c-10.086,11.014-27.6-4.342-16.867-15.995,10.023-10.886,27.446,4.442,16.867,15.995M10.3,247.128c-11.1,1.616-9.514,19.535,3.031,17.881,11.055-1.457,9.209-19.663-3.031-17.881" transform="translate(0 -190.178)" fill="#fff"/>
            <path id="Path_920743" data-name="Path 920743" d="M19.816,3.359C30.7,13.378,15.367,30.8,3.821,20.227-7.193,10.141,8.164-7.369,19.816,3.359M10.1,2.874C.673,4.152.269,19.029,10.147,20.668c13.6,2.256,14.4-19.752-.044-17.794" transform="translate(-0.025 0.001)" fill="#fff"/>
            <path id="Path_920744" data-name="Path 920744" d="M320.707,125.369v-2.662l2.453.1.111,2.355Z" transform="translate(-249.626 -95.51)" fill="#fff"/>
            <path id="Path_920745" data-name="Path 920745" d="M20.712,145.707v2.662l-2.453-.1-.111-2.355Z" transform="translate(-14.126 -113.413)" fill="#fff"/>
            <path id="Path_920746" data-name="Path 920746" d="M320.707,148.369v-2.662l2.453.1.111,2.355Z" transform="translate(-249.626 -113.413)" fill="#fff"/>
            <path id="Path_920747" data-name="Path 920747" d="M20.712,215.707v2.662l-2.453-.1-.111-2.355Z" transform="translate(-14.126 -167.898)" fill="#fff"/>
            <path id="Path_920748" data-name="Path 920748" d="M20.712,192.707v2.662l-2.453-.1-.111-2.355Z" transform="translate(-14.126 -149.996)" fill="#fff"/>
            <path id="Path_920749" data-name="Path 920749" d="M320.707,195.369v-2.662l2.453.1.111,2.355Z" transform="translate(-249.626 -149.996)" fill="#fff"/>
            <path id="Path_920750" data-name="Path 920750" d="M320.707,218.369v-2.662l2.453.1.111,2.355Z" transform="translate(-249.626 -167.898)" fill="#fff"/>
            <path id="Path_920751" data-name="Path 920751" d="M148.369,20.712h-2.662l.1-2.453,2.355-.111Z" transform="translate(-113.413 -14.126)" fill="#fff"/>
            <path id="Path_920752" data-name="Path 920752" d="M195.369,20.712h-2.662l.1-2.453,2.355-.111Z" transform="translate(-149.996 -14.126)" fill="#fff"/>
            <path id="Path_920753" data-name="Path 920753" d="M218.369,20.712h-2.662l.1-2.453,2.355-.111Z" transform="translate(-167.898 -14.126)" fill="#fff"/>
            <path id="Path_920754" data-name="Path 920754" d="M125.369,20.712h-2.662l.1-2.453,2.355-.111Z" transform="translate(-95.511 -14.126)" fill="#fff"/>
            <path id="Path_920755" data-name="Path 920755" d="M20.712,122.707v2.662l-2.453-.1-.111-2.355Z" transform="translate(-14.126 -95.51)" fill="#fff"/>
            <path id="Path_920756" data-name="Path 920756" d="M218.369,320.707l-.209,2.564-2.355-.111-.1-2.453Z" transform="translate(-167.898 -249.626)" fill="#fff"/>
            <path id="Path_920757" data-name="Path 920757" d="M125.369,320.707l-.209,2.564-2.355-.111-.1-2.453Z" transform="translate(-95.511 -249.626)" fill="#fff"/>
            <path id="Path_920758" data-name="Path 920758" d="M148.369,320.707l-.209,2.564-2.355-.111-.1-2.453Z" transform="translate(-113.413 -249.626)" fill="#fff"/>
            <path id="Path_920759" data-name="Path 920759" d="M195.369,320.707l-.209,2.564-2.355-.111-.1-2.453Z" transform="translate(-149.996 -249.626)" fill="#fff"/>
            <rect id="Rectangle_407845" data-name="Rectangle 407845" width="2.662" height="2.44" transform="translate(3.925 37.613)" fill="#fff"/>
            <rect id="Rectangle_407846" data-name="Rectangle 407846" width="2.44" height="2.662" transform="translate(37.613 3.925)" fill="#fff"/>
            <rect id="Rectangle_407847" data-name="Rectangle 407847" width="2.662" height="2.44" transform="translate(71.081 37.613)" fill="#fff"/>
            <rect id="Rectangle_407848" data-name="Rectangle 407848" width="2.44" height="2.662" transform="translate(37.613 71.081)" fill="#fff"/>
            <rect id="Rectangle_407849" data-name="Rectangle 407849" width="2.44" height="2.44" transform="translate(65.983 37.613)" fill="#fff"/>
            <rect id="Rectangle_407850" data-name="Rectangle 407850" width="2.44" height="2.44" transform="translate(37.613 9.244)" fill="#fff"/>
            <rect id="Rectangle_407851" data-name="Rectangle 407851" width="2.44" height="2.44" transform="translate(9.244 37.613)" fill="#fff"/>
            <rect id="Rectangle_407852" data-name="Rectangle 407852" width="2.44" height="2.44" transform="translate(37.613 65.983)" fill="#fff"/>
            <path id="Path_920760" data-name="Path 920760" d="M118.652,105.618c17.715-1.907,24.24,21.378,9.327,29.053a15.538,15.538,0,0,1-22.255-17.379c1.327-5.833,6.945-11.03,12.928-11.674m1.554,2.437a12.915,12.915,0,0,0-11.368,17.663c4.178,10.762,19.744,10.781,23.929,0a12.917,12.917,0,0,0-12.561-17.663" transform="translate(-81.969 -82.123)" fill="#fff"/>
            <path id="Path_920761" data-name="Path 920761" d="M280.235,277.575H284c-.115.855.317,2.016-.332,2.66h-3.435v3.435c-.643.65-1.8.218-2.66.332v-3.768h-3.657c-.65-.643-.218-1.8-.332-2.66h3.989v-3.989c.855.115,2.016-.317,2.66.332Z" transform="translate(-212.921 -212.921)" fill="#fff"/>
            <path id="Path_920762" data-name="Path 920762" d="M281.888,37.469h-2.66v-3.1l-6.76,6.435c-.332,0-2.01-1.456-1.559-2l6.324-6.432h-3.1v-2.66h6.76a2.164,2.164,0,0,1,1,1Z" transform="translate(-210.807 -23.127)" fill="#fff"/>
            <path id="Path_920763" data-name="Path 920763" d="M40.021,291.712l-.207,2.563-9.846.066c-.675-.221-.253-2.026-.363-2.629Z" transform="translate(-23.019 -227.058)" fill="#fff"/>
            <path id="Path_920764" data-name="Path 920764" d="M34.719,32.375v-3.1h2.66v6.538A2.759,2.759,0,0,1,36.16,37.03H29.622V34.37h3.1L26.179,27.5l1.78-1.769Z" transform="translate(-20.377 -20.027)" fill="#fff"/>
            <path id="Path_920765" data-name="Path 920765" d="M153.472,145.486h-2.438v-5.873c0-.617,2.12-.786,2.6-.948a3.864,3.864,0,0,0,1.222-6.48,3.932,3.932,0,0,0-6.489,2.875l-2.65.008a6.714,6.714,0,0,1,4.129-5.954,6.429,6.429,0,0,1,7.668,9.663c-1.09,1.566-2.357,2.1-4.04,2.831Z" transform="translate(-113.419 -100.114)" fill="#fff"/>
            <rect id="Rectangle_407853" data-name="Rectangle 407853" width="2.44" height="2.662" transform="translate(37.613 47.809)" fill="#fff"/>
          </g>
        </g>
      </g>
    </g>
  </g>
</svg>
