<svg xmlns="http://www.w3.org/2000/svg" xmlns:xlink="http://www.w3.org/1999/xlink" width="150" height="150" viewBox="0 0 150 150">
  <defs>
    <clipPath id="clip-path">
      <rect id="Rectangle_406617" data-name="Rectangle 406617" width="150" height="150" fill="#170551" stroke="rgba(0,0,0,0)" stroke-miterlimit="10" stroke-width="1"/>
    </clipPath>
    <clipPath id="clip-path-2">
      <rect id="Rectangle_401492" data-name="Rectangle 401492" width="85.933" height="85.933" transform="translate(0.354 -0.077)" fill="#fff" stroke="#707070" stroke-width="1"/>
    </clipPath>
    <clipPath id="clip-path-3">
      <rect id="Rectangle_407855" data-name="Rectangle 407855" width="78.739" height="78.619" fill="#fff"/>
    </clipPath>
  </defs>
  <g id="Group_1114508" data-name="Group 1114508" transform="translate(-314.001 -7639.334)">
    <g id="Group_1113263" data-name="Group 1113263" transform="translate(314.001 7639.334)">
      <g id="Group_1112834" data-name="Group 1112834" transform="translate(0 0)" clip-path="url(#clip-path)">
        <path id="Path_917479" data-name="Path 917479" d="M139.718,83.945l-6.906-5.684a62.111,62.111,0,0,0-.7-19.849l6.468-6.158a3.935,3.935,0,0,0,.865-4.489l-6.558-14.344a3.944,3.944,0,0,0-3.578-2.3c-.128,0-.256.006-.385.018L120.013,32a63.052,63.052,0,0,0-14.531-13.537l.219-8.928a3.937,3.937,0,0,0-2.561-3.784L88.359.248A3.926,3.926,0,0,0,86.986,0h0a3.919,3.919,0,0,0-3.039,1.435L78.259,8.345a62.1,62.1,0,0,0-19.849.7L52.253,2.581A3.954,3.954,0,0,0,49.4,1.359a3.9,3.9,0,0,0-1.637.357L33.42,8.274a3.938,3.938,0,0,0-2.281,3.961L32,21.143A63.041,63.041,0,0,0,18.465,35.674l-8.927-.219-.1,0a3.952,3.952,0,0,0-3.687,2.564L.247,52.8a3.941,3.941,0,0,0,1.185,4.412L8.344,62.9a62.1,62.1,0,0,0,.7,19.848L2.579,88.9a3.937,3.937,0,0,0-.864,4.489l6.558,14.344a3.944,3.944,0,0,0,3.579,2.3c.127,0,.254-.006.382-.018l8.908-.865A63.056,63.056,0,0,0,35.673,122.69l-.219,8.927a3.937,3.937,0,0,0,2.562,3.785l14.78,5.506a3.942,3.942,0,0,0,4.414-1.188l5.686-6.908a62.1,62.1,0,0,0,19.848-.7l6.158,6.468a3.953,3.953,0,0,0,2.85,1.222,3.911,3.911,0,0,0,1.636-.356l14.347-6.559a3.94,3.94,0,0,0,2.281-3.961l-.864-8.907a63.036,63.036,0,0,0,13.537-14.532l8.928.219h.1a3.951,3.951,0,0,0,3.687-2.562l5.506-14.781a3.937,3.937,0,0,0-1.19-4.415" transform="translate(4.484 4.007)" fill="#170551" stroke="#7d0ede" stroke-miterlimit="10" stroke-width="3"/>
      </g>
    </g>
    <g id="Group_1111310" data-name="Group 1111310" transform="translate(346.356 7671.085)">
      <rect id="Rectangle_401104" data-name="Rectangle 401104" width="80.066" height="81.358" transform="translate(2.933 0)" fill="none"/>
      <g id="Mask_Group_1098697" data-name="Mask Group 1098697" transform="translate(0 0)" clip-path="url(#clip-path-2)">
        <g id="Group_1114845" data-name="Group 1114845" transform="translate(3.355 3.923)">
          <g id="Group_1114844" data-name="Group 1114844" clip-path="url(#clip-path-3)">
            <path id="Path_920766" data-name="Path 920766" d="M64.666,125.135c19.358,3.58,37.726-12.326,33.527-32.443C96.141,82.859,88,74.529,77.94,73.054c-15.691-2.3-29.894,11.343-25.591,27.273,3.855,14.269,20.989,19.732,31.939,9.449l1.75,1.575c-7.358,8.366-20.994,8.175-29.174,1.042-12.9-11.246-9.367-31.737,5.6-39.33,17.953-9.111,37.84,4.207,38.974,23.6,1.169,20-18.216,35.048-37.35,30.907-.57.147-.574,4.216-2.621,3.067A31.74,31.74,0,0,1,56.982,125c-.247-1.487.923-1.595,2.035-2.029,3.057-1.193,7.621-3.434,5.65,2.165" transform="translate(-37.177 -53.279)" fill="#fff"/>
            <path id="Path_920767" data-name="Path 920767" d="M111.534,112.153c1.671,1.211,2.263-1.8,3.815-1.31a26.1,26.1,0,0,1,4.563,4.6c.321,1.85-2.3,1.86-1.407,3.678,1.071.314,2.895-.111,3.385,1.059a23.462,23.462,0,0,1,.131,5.773c-.446,2.021-2.78.582-3.435,1.371-.921,1.614,1.837,2.076,1.276,3.917-.159.523-4.283,4.48-4.879,4.48l-2.4-1.838-1.045.453c-.186.982.377,2.694-.766,3.2a31.833,31.833,0,0,1-6.071.074c-1.529-.354-1.046-2.11-1.167-3.276-1.656-1.074-2.339,1.772-3.816,1.31a33.186,33.186,0,0,1-4.289-4.14c-1.075-2.044,1.538-2.3,1.377-3.516-.228-1.727-2.9-.244-3.453-1.379a40.6,40.6,0,0,1-.071-6.561c.433-1.475,3.691.4,3.523-1.921-.663-1.063-2.03-1.321-1.544-2.826a26.62,26.62,0,0,1,4.456-4.458c1.552-.485,2.158,2.529,3.815,1.31.106-.876-.23-2.739.755-3.209a39.3,39.3,0,0,1,6.122-.113c1.54.288.98,2.208,1.122,3.322m-2.677-.686h-2.646c.51,3.074-3.937,5.011-5.92,2.663l-1.744,1.592c-.141.54,1.251,1.345.879,3.26-.405,2.086-1.615,2.793-3.562,3.207l.025,2.246c3.084-.188,4.96,4.266,2.4,6.138l1.831,1.786c1.734-1.448,2.909-1.43,4.823-.273,1.165.7,1.347,1.622,1.271,2.934h2.646c-.553-3.017,4.064-5.117,5.918-2.661l2.007-1.787c-2.558-1.9-.517-6.555,2.646-6.129l-.01-2.391c-3.126.269-5.177-4.1-2.684-6.133L115.2,114.1c-.6-.061-1.446,1.075-2.435,1.165-1.728.157-4.47-1.766-3.906-3.8" transform="translate(-70.791 -82.626)" fill="#fff"/>
            <path id="Path_920768" data-name="Path 920768" d="M224.744,76.977c1.238.371,3.144,1.1,2.145,2.748a46.374,46.374,0,0,1-6.344,3.72,2.151,2.151,0,0,1-1.3-1.092,42.784,42.784,0,0,1-1.243-5.742c-.259-3.452,3.808-.324,4.3-.8.279-1.868,1-3.629,1.372-5.479,4.072-20.256-7.8-41.85-28.286-46.671l.483-2.644C215.346,25.546,228.1,44.727,227.126,64.4c-.213,4.3-1.38,8.422-2.383,12.575" transform="translate(-148.439 -15.965)" fill="#fff"/>
            <path id="Path_920769" data-name="Path 920769" d="M25.632,20.882c-.552-.453-.733-3.111-1.581-3.028a23.169,23.169,0,0,0-3.451,1.61C2.872,28.994-3.087,51.639,8.945,68.169L6.978,69.712c-14.468-18.518-5.2-46.46,16.415-54.306.495-.553-2.421-4.669,1.025-4.261a63.643,63.643,0,0,1,6.669,2.239,1.318,1.318,0,0,1,.368,1.54,59.785,59.785,0,0,1-3.834,5.548c-.519.516-1.318.958-1.988.408" transform="translate(0 -8.445)" fill="#fff"/>
            <path id="Path_920770" data-name="Path 920770" d="M37.9,256.128c5.938-.732,8.255,7.647,2.792,10.006-7.468,3.225-10.531-9.052-2.792-10.006m.239,2.63c-3.137.456-2.659,5.464.628,5.23,3.381-.24,2.952-5.751-.628-5.23" transform="translate(-25.365 -194.544)" fill="#fff"/>
            <path id="Path_920771" data-name="Path 920771" d="M261.745,283.216c6.68-.371,7.541,9.882.888,10.52-7.288.7-7.793-10.136-.888-10.52m2.128,3.391c-2.258-2.254-5.89.926-3.9,3.535,2.215,2.9,6.535-.9,3.9-3.535" transform="translate(-195.129 -215.149)" fill="#fff"/>
            <path id="Path_920772" data-name="Path 920772" d="M146.679.069c7.663-1.045,8.092,10.185,1.077,10.447-6.463.241-7.343-9.592-1.077-10.447m.235,2.635c-3.027.614-2.2,5.466.847,5.182,3.511-.327,3.07-5.977-.847-5.182" transform="translate(-108.192 0)" fill="#fff"/>
            <path id="Path_920773" data-name="Path 920773" d="M212.854,209.418l-2.374-1.112.714-2.233,2.6.821Z" transform="translate(-159.899 -156.552)" fill="#fff"/>
            <path id="Path_920774" data-name="Path 920774" d="M127.258,143.284c6.094-5.91,15.151,3.108,9.526,9.165-6.044,6.509-15.87-3.013-9.526-9.165m3.454.931c-3.682.759-3.583,7.02.2,7.618,6.577,1.04,6.418-8.982-.2-7.618" transform="translate(-95.116 -107.388)" fill="#fff"/>
          </g>
        </g>
      </g>
    </g>
  </g>
</svg>
