<svg xmlns="http://www.w3.org/2000/svg" xmlns:xlink="http://www.w3.org/1999/xlink" width="129" height="128" viewBox="0 0 129 128">
  <defs>
    <radialGradient id="radial-gradient" cx="0.5" cy="0.5" r="0.5" gradientUnits="objectBoundingBox">
      <stop offset="0" stop-color="#3a2292"/>
      <stop offset="1" stop-color="#170551"/>
    </radialGradient>
    <clipPath id="clip-path">
      <rect id="Rectangle_406617" data-name="Rectangle 406617" width="109.997" height="109.997" stroke="rgba(0,0,0,0)" stroke-miterlimit="10" stroke-width="1" fill="url(#radial-gradient)"/>
    </clipPath>
    <clipPath id="clip-path-2">
      <rect id="Rectangle_400938" data-name="Rectangle 400938" width="120" height="120" fill="none"/>
    </clipPath>
    <clipPath id="clip-path-3">
      <rect id="Rectangle_401492" data-name="Rectangle 401492" width="73.543" height="73.543" transform="translate(0 0)" fill="#fff" stroke="#707070" stroke-width="1"/>
    </clipPath>
    <clipPath id="clip-path-4">
      <rect id="Rectangle_407559" data-name="Rectangle 407559" width="62.017" height="66.596" fill="#fff"/>
    </clipPath>
  </defs>
  <g id="Group_1114056" data-name="Group 1114056" transform="translate(-390 -2746)">
    <g id="Grupo_108927" data-name="Grupo 108927" transform="translate(0 -1721)">
      <path id="Rectángulo_36179" data-name="Rectángulo 36179" d="M0,0H129V128H0Z" transform="translate(390 4467)" fill="#eae5ff"/>
    </g>
    <g id="Group_1112835" data-name="Group 1112835" transform="translate(400 2755)">
      <g id="Group_1112834" data-name="Group 1112834" clip-path="url(#clip-path)">
        <path id="Path_917479" data-name="Path 917479" d="M108.876,65.415l-5.382-4.43a48.4,48.4,0,0,0-.549-15.468l5.04-4.8a3.066,3.066,0,0,0,.674-3.5l-5.11-11.178a3.073,3.073,0,0,0-2.788-1.791c-.1,0-.2,0-.3.014l-6.94.673A49.134,49.134,0,0,0,82.2,14.391l.171-6.957a3.068,3.068,0,0,0-2-2.949L68.855.194A3.059,3.059,0,0,0,67.784,0h0A3.054,3.054,0,0,0,65.415,1.12L60.984,6.5a48.4,48.4,0,0,0-15.467.549l-4.8-5.04A3.082,3.082,0,0,0,38.5,1.059a3.043,3.043,0,0,0-1.276.278L26.042,6.448a3.069,3.069,0,0,0-1.777,3.086l.673,6.942A49.125,49.125,0,0,0,14.389,27.8l-6.957-.171H7.356a3.079,3.079,0,0,0-2.873,2L.192,41.143a3.071,3.071,0,0,0,.923,3.438L6.5,49.013A48.4,48.4,0,0,0,7.051,64.48l-5.041,4.8a3.068,3.068,0,0,0-.673,3.5l5.11,11.178a3.074,3.074,0,0,0,2.789,1.792c.1,0,.2,0,.3-.014l6.942-.674A49.137,49.137,0,0,0,27.8,95.608l-.171,6.957a3.068,3.068,0,0,0,2,2.95l11.517,4.291a3.072,3.072,0,0,0,3.439-.926l4.431-5.383a48.394,48.394,0,0,0,15.467-.549l4.8,5.04a3.08,3.08,0,0,0,2.221.952,3.048,3.048,0,0,0,1.275-.277l11.18-5.111a3.07,3.07,0,0,0,1.777-3.087l-.673-6.941A49.121,49.121,0,0,0,95.606,82.2l6.957.171h.076a3.079,3.079,0,0,0,2.873-2L109.8,68.856a3.068,3.068,0,0,0-.927-3.44" transform="translate(0 0)" stroke="rgba(0,0,0,0)" stroke-miterlimit="10" stroke-width="1" fill="url(#radial-gradient)"/>
      </g>
    </g>
    <g id="Group_1110743" data-name="Group 1110743" transform="translate(420.432 2773.223)">
      <rect id="Rectangle_401104" data-name="Rectangle 401104" width="68.522" height="69.627" transform="translate(0.079 -0.223)" fill="none"/>
      <g id="Mask_Group_1098697" data-name="Mask Group 1098697" transform="translate(-2.432 -0.223)" clip-path="url(#clip-path-3)">
        <g id="Group_1114637" data-name="Group 1114637" transform="translate(5.412 3.369)">
          <g id="Group_1114636" data-name="Group 1114636" clip-path="url(#clip-path-4)">
            <path id="Path_919265" data-name="Path 919265" d="M25.373,3.548c2.577-.151,5.494-.3,5.16,3.144,3.872.6,12.4-2.073,13.02,3.7l.036,16.8,9.055,5.534.158,10.73,9.215,5.485L61.97,60.851l-9.658,5.673-1.065-.078L42.717,61.49,33.109,66.6l-9.472-5.314c-6.266-.7-14.044.767-20.129-.071A4.209,4.209,0,0,1,0,57.313v-46.7C.547,4.485,8.966,7.335,13.028,6.692c-.312-3.422,2.4-3.183,4.95-3.242.779-4.575,7.09-4.657,7.394.1m3.141,2.02h-4.6c-.782,0-.434-2.151-.677-2.69-.685-1.519-3.066-.876-3.18.811-.021.317.395,1.879-.408,1.879h-4.6V9.832H28.514ZM22.9,59.211V49l9-5.369c.578-.8,0-8.177.2-9.9.134-1.15.668-1.286,1.508-1.858,1.062-.725,7.7-4.144,7.887-4.682l-.133-17.3L39.836,8.723l-9.2.2c-.031,1.41-.351,2.462-1.832,2.881-4.29-.219-9.211.468-13.426.063A2.329,2.329,0,0,1,13,9.078l-.337-.336c-2.731.136-5.822-.289-8.508-.042a2.065,2.065,0,0,0-2.132,2.132l0,46.031c-.2.717.817,2.348,1.467,2.348ZM42.373,29.167l-6.9,4.12,7.066,4.139,7.066-4.139ZM50.735,35.2l-8.213,4.492-8.4-4.492v7.968l8.417,5.049,8.192-4.825ZM33.152,45.347l-7.1,4.1c1.993,1.092,3.884,2.486,5.9,3.516.465.237.989.654,1.5.543l6.951-4.059Zm18.63,0-7.1,4.1,7.1,4.1,7.253-4.1Zm-10.249,6.01-8.208,4.488-8.4-4.488v8.192l8.38,4.774,8.229-4.774Zm18.629,0-8.4,4.486-8.21-4.486v8.192l8.38,4.774,8.229-4.774Z" transform="translate(0 0)" fill="#fff"/>
            <path id="Path_919267" data-name="Path 919267" d="M33.508,81.775c.718-.211,1.46.139,1.413.951-.057.981-4.179,4.954-4.945,6.076a1.169,1.169,0,0,1-1.114,0A38.2,38.2,0,0,1,26.057,86c-.345-.754-.09-1.834.859-1.744.716.069,1.876,1.733,2.5,2.192.782-.707,3.384-4.462,4.089-4.67" transform="translate(-20.095 -63.374)" fill="#fff"/>
            <path id="Path_919268" data-name="Path 919268" d="M72.653,146.807H83.875c.711,0,.711,2.02,0,2.02H72.653c-.591,0-.854-1.725,0-2.02" transform="translate(-55.922 -113.856)" fill="#fff"/>
            <path id="Path_919273" data-name="Path 919273" d="M72.653,146.807H81.8c.711,0,.711,2.02,0,2.02H72.653c-.591,0-.854-1.725,0-2.02" transform="translate(-55.922 -104.083)" fill="#fff"/>
            <path id="Path_919272" data-name="Path 919272" d="M72.653,146.807H92.938c.711,0,.711,2.02,0,2.02H72.653c-.591,0-.854-1.725,0-2.02" transform="translate(-55.922 -124.854)" fill="#fff"/>
            <path id="Path_919269" data-name="Path 919269" d="M33.752,178.819a.98.98,0,0,1,1.066,1.534l-4.827,5.5a1.171,1.171,0,0,1-1.114,0,38.455,38.455,0,0,1-2.807-2.807,1.038,1.038,0,0,1,1.107-1.575c.67.1,1.643,1.593,2.257,2.024.875-.785,3.437-4.5,4.318-4.676" transform="translate(-20.11 -138.652)" fill="#fff"/>
            <path id="Path_919270" data-name="Path 919270" d="M34.661,130.272a1.4,1.4,0,0,1,.277.75c-.016,1.239-3.932,4.555-4.615,5.909a1.15,1.15,0,0,1-1.055.432A19.008,19.008,0,0,1,26,134.1a1.009,1.009,0,0,1,.96-1.421l2.448,2.014c.439-.075,3.024-3.666,3.848-4.246.5-.356.816-.595,1.4-.17" transform="translate(-20.12 -100.857)" fill="#fff"/>
          </g>
        </g>
      </g>
    </g>
  </g>
</svg>
