<svg xmlns="http://www.w3.org/2000/svg" xmlns:xlink="http://www.w3.org/1999/xlink" width="109" height="109" viewBox="0 0 109 109">
  <defs>
    <clipPath id="clip-path">
      <rect id="Rectangle_406617" data-name="Rectangle 406617" width="109" height="109" fill="#170551" stroke="rgba(0,0,0,0)" stroke-miterlimit="10" stroke-width="1"/>
    </clipPath>
    <clipPath id="clip-path-2">
      <rect id="Rectangle_401492" data-name="Rectangle 401492" width="61.722" height="61.722" transform="translate(0 0)" fill="#fff" stroke="#707070" stroke-width="1"/>
    </clipPath>
    <clipPath id="clip-path-3">
      <rect id="Rectangle_407857" data-name="Rectangle 407857" width="55.45" height="55.469" fill="#fff"/>
    </clipPath>
  </defs>
  <g id="Group_1114504" data-name="Group 1114504" transform="translate(-314.001 -7639.335)">
    <g id="Group_1113263" data-name="Group 1113263" transform="translate(314.001 7639.335)">
      <g id="Group_1112834" data-name="Group 1112834" transform="translate(0 0)" clip-path="url(#clip-path)">
        <path id="Path_917479" data-name="Path 917479" d="M108.579,65.237l-5.367-4.417a48.268,48.268,0,0,0-.547-15.426l5.026-4.786a3.058,3.058,0,0,0,.672-3.488l-5.1-11.147a3.065,3.065,0,0,0-2.78-1.786c-.1,0-.2,0-.3.014l-6.921.672a49,49,0,0,0-11.292-10.52l.17-6.938a3.059,3.059,0,0,0-1.991-2.941L68.666.193A3.051,3.051,0,0,0,67.6,0h0a3.046,3.046,0,0,0-2.362,1.115L60.817,6.485a48.263,48.263,0,0,0-15.425.547L40.607,2.006a3.073,3.073,0,0,0-2.215-.95,3.034,3.034,0,0,0-1.272.277L25.971,6.43A3.06,3.06,0,0,0,24.2,9.508l.672,6.923A48.991,48.991,0,0,0,14.35,27.724l-6.938-.17H7.336a3.071,3.071,0,0,0-2.866,1.993L.191,41.03a3.063,3.063,0,0,0,.921,3.428l5.372,4.42A48.263,48.263,0,0,0,7.031,64.3L2,69.09a3.059,3.059,0,0,0-.672,3.488l5.1,11.147a3.065,3.065,0,0,0,2.781,1.787c.1,0,.2,0,.3-.014l6.923-.672A49,49,0,0,0,27.722,95.346l-.17,6.938a3.059,3.059,0,0,0,1.991,2.942L41.029,109.5a3.063,3.063,0,0,0,3.43-.923l4.419-5.369a48.261,48.261,0,0,0,15.425-.547l4.786,5.026a3.072,3.072,0,0,0,2.215.95,3.039,3.039,0,0,0,1.272-.277l11.149-5.1a3.062,3.062,0,0,0,1.772-3.079l-.672-6.922a48.987,48.987,0,0,0,10.52-11.293l6.938.17h.075a3.071,3.071,0,0,0,2.866-1.991L109.5,68.667a3.059,3.059,0,0,0-.925-3.431" transform="translate(0 -0.349)" fill="#170551" stroke="rgba(0,0,0,0)" stroke-miterlimit="10" stroke-width="1"/>
      </g>
    </g>
    <g id="Group_1111310" data-name="Group 1111310" transform="translate(338.199 7663.081)">
      <rect id="Rectangle_401104" data-name="Rectangle 401104" width="57.508" height="58.436" transform="translate(1.679 2.254)" fill="none"/>
      <g id="Group_1098697" data-name="Group 1098697" transform="translate(-0.321 0.254)" clip-path="url(#clip-path-2)">
        <g id="Group_1114849" data-name="Group 1114849" transform="translate(3 3)">
          <g id="Group_1114848" data-name="Group 1114848" clip-path="url(#clip-path-3)">
            <path id="Path_920780" data-name="Path 920780" d="M10.816,79v1.747H7.561a5.408,5.408,0,0,0-1.357.707,7.414,7.414,0,0,0-.786,1.278v30.247H50.034V82.731a7.405,7.405,0,0,0-.787-1.278,5.41,5.41,0,0,0-1.357-.707H44.636V79h3.573C50,79,51.94,81.672,51.94,83.366v29.612c6.178-.241,3.128,7.779-.953,8.653-15.412.42-30.98.349-46.4.037-4.152-.79-7.312-8.915-1.075-8.69V83.366C3.512,81.672,5.451,79,7.243,79Zm-5,41.124H37.491V116.71l.238-.238h5.16v3.414c.419.452,1.179.167,1.747.238V116.71l.238-.238h5.16v3.493a4.519,4.519,0,0,0,3.446-3.143c.228-.835.463-1.908-.677-2.087l-17.853-.011c.071,1.357-.387,2.9-1.776,3.385-1.421.5-7.5.4-9.266.275-2.467-.172-3.434-1.132-3.406-3.66l-17.553-.006c-1.4.034-1.265,1.055-.978,2.1a4.864,4.864,0,0,0,3.843,3.3m27.231-5.4H22.407c.029.605-.208,1.578.587,1.708,2.889-.081,6,.24,8.867.046.307-.021.861.01,1.038-.272Zm8.1,3.651H39.4v1.748h1.748Zm7.145,0H46.54v1.748h1.748Z" transform="translate(0 -66.456)" fill="#fff"/>
            <path id="Path_920781" data-name="Path 920781" d="M46.835,102.905v24.928h3.652v-5c.469-.512,2.023-.528,2.392-.942a14.913,14.913,0,0,0,.772-1.916l-1.026-2.305,4.536-4.528c.641-.288,1.692.991,2.6.875a6.149,6.149,0,0,0,1.756-.8c.426-.493.441-2.166.984-2.35,1.876.131,4.2-.262,6.017-.034.966.121.73,1.789,1.265,2.386a9.122,9.122,0,0,0,1.5.723c1.293.355,2.147-1.206,2.949-.73l4.445,4.454-1.026,2.305a14.937,14.937,0,0,0,.772,1.916c.369.414,1.923.43,2.392.942v5h3.652V102.905H73.906l-.213-.263a2,2,0,0,1-.033-.443c-.034-.394-.078-.954.246-1.2H84.7a2.039,2.039,0,0,1,1.509,1.826l.006,24.935c0,1.4-1.19,1.99-2.46,1.986H47.385c-1.265-.108-2.267-.577-2.3-1.984L45.2,102.3a2.027,2.027,0,0,1,1.4-1.3h10.8l.213.263a2.011,2.011,0,0,1,.033.443c.034.394.078.954-.246,1.2Zm5.4,21.118v3.811h3.811c.042-.116-.159-.19-.159-.238V124.42a13.881,13.881,0,0,1,1.052-2.918,9.867,9.867,0,0,1,17.426,0,13.872,13.872,0,0,1,1.052,2.918V127.6c0,.048-.2.122-.159.238h3.811v-3.811l-2.193-.667-1.291-3.382.956-2.042c-.823-.286-2.253-2.742-3.072-2.613-.585.092-1.185.859-1.9.739-.692-.116-2.249-1.205-3.133-1.328l-.654-1.965L63.6,112.74a13.529,13.529,0,0,0-.491,1.6c-.393.81-2.677,1.139-3.509,1.742-.722.047-1.5-1.025-2.249-.69L54.8,117.856c-.259.441.917,1.562.917,2.119,0,.572-1.458,2.467-1.288,3.382Zm21.276,3.811a8.054,8.054,0,1,0-15.719,0h3.652c-2.01-8.214,10.43-8.229,8.415,0Zm-8.3-4.409c-1.948.311-3.058,3.238-1.639,4.263a14.281,14.281,0,0,0,4.062.068,2.162,2.162,0,0,0,.623-1.122,2.678,2.678,0,0,0-3.047-3.209" transform="translate(-37.924 -84.963)" fill="#fff"/>
            <path id="Path_920782" data-name="Path 920782" d="M61.758,0V8.892H57.312v3.652H66.2V24.134H64.457V14.29H55.566V9.13l-.238-.238H51.12V0ZM60.012,1.747H52.867v5.4h7.145Z" transform="translate(-43.003)" fill="#fff"/>
            <path id="Path_920783" data-name="Path 920783" d="M218.2,0V8.892H214l-.238.238v5.16h-8.892v9.844H203.12V12.544h8.892V8.892h-4.446V0Zm-1.747,1.747h-7.145v5.4h7.145Z" transform="translate(-170.869)" fill="#fff"/>
            <path id="Path_920784" data-name="Path 920784" d="M151.758,0V8.892h-4.446V24.134h-1.747V8.892H141.12V0Zm-1.747,1.747h-7.145v5.4h7.145Z" transform="translate(-118.713)" fill="#fff"/>
            <path id="Path_920785" data-name="Path 920785" d="M72.983,23.905c.082-.613-.227-1.444.238-1.905H76.4l.213.263a4.831,4.831,0,0,1,.033.936c-.024.28.035.531-.246.706Z" transform="translate(-61.373 -18.507)" fill="#fff"/>
            <path id="Path_920786" data-name="Path 920786" d="M256.6,23.905h-3.414l-.213-.263a2.01,2.01,0,0,1-.033-.443c-.034-.394-.078-.954.246-1.2h3.176c.466.461.156,1.293.238,1.905" transform="translate(-212.763 -18.507)" fill="#fff"/>
            <path id="Path_920787" data-name="Path 920787" d="M166.772,24.272H163.12l.149-1.836h3.355Z" transform="translate(-137.22 -18.874)" fill="#fff"/>
          </g>
        </g>
      </g>
    </g>
  </g>
</svg>
