<svg xmlns="http://www.w3.org/2000/svg" xmlns:xlink="http://www.w3.org/1999/xlink" width="129" height="128" viewBox="0 0 129 128">
  <defs>
    <radialGradient id="radial-gradient" cx="0.5" cy="0.5" r="0.5" gradientUnits="objectBoundingBox">
      <stop offset="0" stop-color="#3a2292"/>
      <stop offset="1" stop-color="#170551"/>
    </radialGradient>
    <clipPath id="clip-path">
      <rect id="Rectangle_406617" data-name="Rectangle 406617" width="109.997" height="109.997" stroke="rgba(0,0,0,0)" stroke-miterlimit="10" stroke-width="1" fill="url(#radial-gradient)"/>
    </clipPath>
    <clipPath id="clip-path-2">
      <rect id="Rectangle_400938" data-name="Rectangle 400938" width="120" height="120" fill="none"/>
    </clipPath>
    <clipPath id="clip-path-3">
      <rect id="Rectangle_401492" data-name="Rectangle 401492" width="73.543" height="73.543" transform="translate(0 0)" fill="#fff" stroke="#707070" stroke-width="1"/>
    </clipPath>
    <clipPath id="clip-path-4">
      <rect id="Rectangle_407902" data-name="Rectangle 407902" width="67.673" height="66.874" fill="#fff"/>
    </clipPath>
  </defs>
  <g id="Group_1114464" data-name="Group 1114464" transform="translate(-390 -2746)">
    <g id="Grupo_108927" data-name="Grupo 108927" transform="translate(0 -1721)">
      <path id="Rectángulo_36179" data-name="Rectángulo 36179" d="M0,0H129V128H0Z" transform="translate(390 4467)" fill="#eae5ff"/>
    </g>
    <g id="Group_1112835" data-name="Group 1112835" transform="translate(400 2755)">
      <g id="Group_1112834" data-name="Group 1112834" clip-path="url(#clip-path)">
        <path id="Path_917479" data-name="Path 917479" d="M108.876,65.415l-5.382-4.43a48.4,48.4,0,0,0-.549-15.468l5.04-4.8a3.066,3.066,0,0,0,.674-3.5l-5.11-11.178a3.073,3.073,0,0,0-2.788-1.791c-.1,0-.2,0-.3.014l-6.94.673A49.134,49.134,0,0,0,82.2,14.391l.171-6.957a3.068,3.068,0,0,0-2-2.949L68.855.194A3.059,3.059,0,0,0,67.784,0h0A3.054,3.054,0,0,0,65.415,1.12L60.984,6.5a48.4,48.4,0,0,0-15.467.549l-4.8-5.04A3.082,3.082,0,0,0,38.5,1.059a3.043,3.043,0,0,0-1.276.278L26.042,6.448a3.069,3.069,0,0,0-1.777,3.086l.673,6.942A49.125,49.125,0,0,0,14.389,27.8l-6.957-.171H7.356a3.079,3.079,0,0,0-2.873,2L.192,41.143a3.071,3.071,0,0,0,.923,3.438L6.5,49.013A48.4,48.4,0,0,0,7.051,64.48l-5.041,4.8a3.068,3.068,0,0,0-.673,3.5l5.11,11.178a3.074,3.074,0,0,0,2.789,1.792c.1,0,.2,0,.3-.014l6.942-.674A49.137,49.137,0,0,0,27.8,95.608l-.171,6.957a3.068,3.068,0,0,0,2,2.95l11.517,4.291a3.072,3.072,0,0,0,3.439-.926l4.431-5.383a48.394,48.394,0,0,0,15.467-.549l4.8,5.04a3.08,3.08,0,0,0,2.221.952,3.048,3.048,0,0,0,1.275-.277l11.18-5.111a3.07,3.07,0,0,0,1.777-3.087l-.673-6.941A49.121,49.121,0,0,0,95.606,82.2l6.957.171h.076a3.079,3.079,0,0,0,2.873-2L109.8,68.856a3.068,3.068,0,0,0-.927-3.44" transform="translate(0 0)" stroke="rgba(0,0,0,0)" stroke-miterlimit="10" stroke-width="1" fill="url(#radial-gradient)"/>
      </g>
    </g>
    <g id="Group_1110743" data-name="Group 1110743" transform="translate(420.432 2773.223)">
      <rect id="Rectangle_401104" data-name="Rectangle 401104" width="68.522" height="69.627" transform="translate(0.079 -0.223)" fill="none"/>
      <g id="Mask_Group_1098697" data-name="Mask Group 1098697" transform="translate(-2.432 -0.223)" clip-path="url(#clip-path-3)">
        <g id="Group_1114881" data-name="Group 1114881" transform="translate(2 3.126)">
          <g id="Group_1114880" data-name="Group 1114880" transform="translate(0 0)" clip-path="url(#clip-path-4)">
            <path id="Path_920925" data-name="Path 920925" d="M31.564,33.368a1.4,1.4,0,0,0,1.984,0l3.637-3.637a1.372,1.372,0,0,0,.11-1.874L38.948,26.2l3.527,3.527,15.431,17.3a1.4,1.4,0,0,0,1.983.11L65.4,41.635a1.315,1.315,0,0,0-.11-1.984l-17.3-15.43-3.527-3.527,1.654-1.654a1.37,1.37,0,0,0,1.873-.11l3.638-3.637a1.4,1.4,0,0,0,0-1.984L38.948.413a1.4,1.4,0,0,0-1.984,0L33.327,4.05a1.37,1.37,0,0,0-.109,1.874L24.4,14.962a1.37,1.37,0,0,0-1.874.109L18.889,18.71a1.4,1.4,0,0,0,0,1.984ZM59.008,44.059,45.341,28.849,47.1,27.086l15.32,13.667ZM42.585,22.566l2.645,2.645-1.653,1.654L40.932,24.22c.11-.221-.661.661,1.653-1.654M38.067,3.389l10.8,10.8L47.1,15.843,36.3,5.043ZM35.311,7.908l9.037,9.037-9.037,9.038-9.037-9.038Zm-11.9,10.03,10.8,10.8-1.653,1.654L21.754,19.7Z" transform="translate(1.721 0)" fill="#fff"/>
            <path id="Path_920926" data-name="Path 920926" d="M66.24,60.094H45.52v-9.7a1.459,1.459,0,0,0-1.433-1.432H41.331V43.451A1.458,1.458,0,0,0,39.9,42.018H9.7a1.458,1.458,0,0,0-1.432,1.433v5.511H5.511a1.459,1.459,0,0,0-1.433,1.432v9.7H1.433a1.433,1.433,0,1,0,0,2.865H66.24a1.459,1.459,0,0,0,1.433-1.432,1.636,1.636,0,0,0-1.433-1.433m-55.108-15.1H38.686v4.189H11.132Zm-4.188,15.1V57.338H30.42a1.433,1.433,0,1,0,0-2.865H6.944V51.827h35.82v8.267Z" transform="translate(0 3.915)" fill="#fff"/>
            <path id="Path_920927" data-name="Path 920927" d="M10.54,29.011a4.134,4.134,0,1,0,0-8.267,4.258,4.258,0,0,0-4.188,4.189,4.094,4.094,0,0,0,4.188,4.078m0-5.511a1.459,1.459,0,0,1,1.433,1.433,1.438,1.438,0,0,1-1.433,1.322,1.539,1.539,0,0,1-1.433-1.432A1.367,1.367,0,0,1,10.54,23.5" transform="translate(0.592 1.933)" fill="#fff"/>
            <path id="Path_920928" data-name="Path 920928" d="M55.91,16.417a4.188,4.188,0,0,0,0-8.377,4.282,4.282,0,0,0-4.189,4.3,4.094,4.094,0,0,0,4.189,4.078m0-5.511a1.433,1.433,0,1,1-1.433,1.433,1.459,1.459,0,0,1,1.433-1.433" transform="translate(4.819 0.749)" fill="#fff"/>
            <path id="Path_920929" data-name="Path 920929" d="M30.685,53.949a1.4,1.4,0,0,0,0,1.984c.551.551,1.653.221,1.984,0a1.4,1.4,0,1,0-1.984-1.984" transform="translate(2.821 4.988)" fill="#fff"/>
            <path id="Path_920930" data-name="Path 920930" d="M34.516,53.949a1.4,1.4,0,0,0,0,1.984c.551.551,1.653.221,1.983,0a1.4,1.4,0,0,0-1.983-1.984" transform="translate(3.178 4.988)" fill="#fff"/>
          </g>
        </g>
      </g>
    </g>
  </g>
</svg>
