<svg xmlns="http://www.w3.org/2000/svg" xmlns:xlink="http://www.w3.org/1999/xlink" width="129" height="128" viewBox="0 0 129 128">
  <defs>
    <radialGradient id="radial-gradient" cx="0.5" cy="0.5" r="0.5" gradientUnits="objectBoundingBox">
      <stop offset="0" stop-color="#3a2292"/>
      <stop offset="1" stop-color="#170551"/>
    </radialGradient>
    <clipPath id="clip-path">
      <rect id="Rectangle_406617" data-name="Rectangle 406617" width="109.997" height="109.997" stroke="rgba(0,0,0,0)" stroke-miterlimit="10" stroke-width="1" fill="url(#radial-gradient)"/>
    </clipPath>
    <clipPath id="clip-path-2">
      <rect id="Rectangle_400938" data-name="Rectangle 400938" width="120" height="120" fill="none"/>
    </clipPath>
    <clipPath id="clip-path-3">
      <rect id="Rectangle_401492" data-name="Rectangle 401492" width="73.543" height="73.543" transform="translate(0 0)" fill="#fff" stroke="#707070" stroke-width="1"/>
    </clipPath>
    <clipPath id="clip-path-4">
      <rect id="Rectangle_407895" data-name="Rectangle 407895" width="60.695" height="59.384" transform="translate(0 0)" fill="#fff"/>
    </clipPath>
  </defs>
  <g id="Group_1114974" data-name="Group 1114974" transform="translate(-390 -2746)">
    <g id="Grupo_108927" data-name="Grupo 108927" transform="translate(0 -1721)">
      <path id="Rectángulo_36179" data-name="Rectángulo 36179" d="M0,0H129V128H0Z" transform="translate(390 4467)" fill="#eae5ff"/>
    </g>
    <g id="Group_1112835" data-name="Group 1112835" transform="translate(400 2755)">
      <g id="Group_1112834" data-name="Group 1112834" clip-path="url(#clip-path)">
        <path id="Path_917479" data-name="Path 917479" d="M108.876,65.415l-5.382-4.43a48.4,48.4,0,0,0-.549-15.468l5.04-4.8a3.066,3.066,0,0,0,.674-3.5l-5.11-11.178a3.073,3.073,0,0,0-2.788-1.791c-.1,0-.2,0-.3.014l-6.94.673A49.134,49.134,0,0,0,82.2,14.391l.171-6.957a3.068,3.068,0,0,0-2-2.949L68.855.194A3.059,3.059,0,0,0,67.784,0h0A3.054,3.054,0,0,0,65.415,1.12L60.984,6.5a48.4,48.4,0,0,0-15.467.549l-4.8-5.04A3.082,3.082,0,0,0,38.5,1.059a3.043,3.043,0,0,0-1.276.278L26.042,6.448a3.069,3.069,0,0,0-1.777,3.086l.673,6.942A49.125,49.125,0,0,0,14.389,27.8l-6.957-.171H7.356a3.079,3.079,0,0,0-2.873,2L.192,41.143a3.071,3.071,0,0,0,.923,3.438L6.5,49.013A48.4,48.4,0,0,0,7.051,64.48l-5.041,4.8a3.068,3.068,0,0,0-.673,3.5l5.11,11.178a3.074,3.074,0,0,0,2.789,1.792c.1,0,.2,0,.3-.014l6.942-.674A49.137,49.137,0,0,0,27.8,95.608l-.171,6.957a3.068,3.068,0,0,0,2,2.95l11.517,4.291a3.072,3.072,0,0,0,3.439-.926l4.431-5.383a48.394,48.394,0,0,0,15.467-.549l4.8,5.04a3.08,3.08,0,0,0,2.221.952,3.048,3.048,0,0,0,1.275-.277l11.18-5.111a3.07,3.07,0,0,0,1.777-3.087l-.673-6.941A49.121,49.121,0,0,0,95.606,82.2l6.957.171h.076a3.079,3.079,0,0,0,2.873-2L109.8,68.856a3.068,3.068,0,0,0-.927-3.44" transform="translate(0 0)" stroke="rgba(0,0,0,0)" stroke-miterlimit="10" stroke-width="1" fill="url(#radial-gradient)"/>
      </g>
    </g>
    <g id="Group_1110743" data-name="Group 1110743" transform="translate(420.432 2773.223)">
      <rect id="Rectangle_401104" data-name="Rectangle 401104" width="68.522" height="69.627" transform="translate(0.568 1.777)" fill="none"/>
      <g id="Mask_Group_1098697" data-name="Mask Group 1098697" transform="translate(-2.432 -0.223)" clip-path="url(#clip-path-3)">
        <g id="Group_1114875" data-name="Group 1114875" transform="translate(2 7.08)">
          <g id="Group_1114874" data-name="Group 1114874" clip-path="url(#clip-path-4)">
            <path id="Path_920912" data-name="Path 920912" d="M59.385,44.16H56.864V8.671c0-.1-.1-.2-.1-.3l-.1-.1-.1-.2-.1-.1C48.4-.1,48.9.3,48.7.2a1.863,1.863,0,0,0-.706-.2H12.7a1.334,1.334,0,0,0-1.31,1.311V30.549H1.312A1.335,1.335,0,0,0,0,31.86V36.3a1.335,1.335,0,0,0,1.312,1.311H11.394V58.073a1.334,1.334,0,0,0,1.31,1.311H59.385a1.334,1.334,0,0,0,1.31-1.311V45.37a1.391,1.391,0,0,0-1.31-1.21M49.3,4.336l3.225,3.226H49.3ZM24.1,2.521v8.872L22.585,9.377a1.225,1.225,0,0,0-2.017,0l-1.512,2.016V2.521Zm-10.082,0h2.52v12.6a1.268,1.268,0,0,0,.907,1.21,1.249,1.249,0,0,0,1.413-.4L21.677,12.2,24.5,15.93a1.247,1.247,0,0,0,1.412.4,1.3,1.3,0,0,0,.907-1.21V2.521H46.983V8.872a1.335,1.335,0,0,0,1.311,1.311h6.352V44.261H52.125V42.345a3.753,3.753,0,0,0-2.318-3.528V29.238a4.028,4.028,0,0,0,2.318-3.528V22.685a1.334,1.334,0,0,0-1.311-1.311H39.22a1.335,1.335,0,0,0-1.311,1.311V25.71a3.753,3.753,0,0,0,2.32,3.528v1.21H14.015ZM22.786,33.07H35.691v2.017H22.786Zm-4.537,0h2.017v2.017H18.249Zm19.963,0h2.017v2.017H38.212Zm4.537-3.428h4.335v3.126H42.749Zm0,5.646h4.335v3.126H42.749ZM49.3,25.71a1.379,1.379,0,0,1-1.412,1.411H41.942a1.378,1.378,0,0,1-1.411-1.411V24H49.4V25.71ZM40.43,42.345a1.378,1.378,0,0,1,1.412-1.411H47.79A1.378,1.378,0,0,1,49.2,42.345v1.714H40.43ZM2.622,33.07H15.728v2.017H2.622Zm30.246,12.3V56.763H14.015V37.607H40.229v1.21a4.028,4.028,0,0,0-2.32,3.528v1.714H34.078a1.4,1.4,0,0,0-1.21,1.311M58.074,56.763H35.388V46.681H58.074Z" fill="#fff"/>
          </g>
        </g>
      </g>
    </g>
  </g>
</svg>
