<svg xmlns="http://www.w3.org/2000/svg" xmlns:xlink="http://www.w3.org/1999/xlink" width="178" height="178" viewBox="0 0 178 178">
  <defs>
    <clipPath id="clip-path">
      <rect id="Rectangle_407978" data-name="Rectangle 407978" width="97.191" height="97.017" fill="none"/>
    </clipPath>
  </defs>
  <g id="Group_1114954" data-name="Group 1114954" transform="translate(-709.785 -3358.476)">
    <g id="Group_1114439" data-name="Group 1114439" transform="translate(709.785 3358.477)">
      <path id="Path_882862" data-name="Path 882862" d="M89,0A89,89,0,1,1,0,89,89,89,0,0,1,89,0Z" transform="translate(0 -0.001)" fill="#c0afff"/>
      <path id="Path_882863" data-name="Path 882863" d="M78.668,0A78.668,78.668,0,1,1,0,78.668,78.668,78.668,0,0,1,78.668,0Z" transform="translate(10.332 10.331)" fill="#f3f9ff"/>
    </g>
    <g id="Group_1114442" data-name="Group 1114442" transform="translate(748.785 3397.477)">
      <rect id="Rectangle_401104" data-name="Rectangle 401104" width="99.117" height="100.574" fill="none"/>
      <g id="Group_1114897" data-name="Group 1114897" transform="translate(1.926 3.979)">
        <g id="Group_1114896" data-name="Group 1114896" transform="translate(0 0)" clip-path="url(#clip-path)">
          <path id="Path_921008" data-name="Path 921008" d="M62.8,0H15.7A8.092,8.092,0,0,0,7.587,8.114V88.9A8.093,8.093,0,0,0,15.7,97.017H70.031A8.094,8.094,0,0,0,78.145,88.9V15.521C72.146,9.348,68.8,6,62.8,0" transform="translate(5.643 0.001)" fill="#eae5ff"/>
          <path id="Path_921009" data-name="Path 921009" d="M55.4,12.645a2.293,2.293,0,0,1,0,4.586,2.465,2.465,0,0,1-2.293-2.293A2.335,2.335,0,0,1,55.4,12.645" transform="translate(39.498 9.405)" fill="#6bfcf2"/>
          <path id="Path_921010" data-name="Path 921010" d="M55.146,22.761A3.351,3.351,0,0,1,58.5,26.112a3.352,3.352,0,0,1-6.7,0,3.351,3.351,0,0,1,3.353-3.351" transform="translate(38.519 16.928)" fill="#6bfcf2"/>
          <path id="Path_921011" data-name="Path 921011" d="M52.874,37.935a2.293,2.293,0,1,1-2.295,2.293,2.335,2.335,0,0,1,2.295-2.293" transform="translate(37.617 28.214)" fill="#6bfcf2"/>
          <path id="Path_921012" data-name="Path 921012" d="M54.672,15.521H39.149V0c6.175,6,9.526,9.348,15.523,15.521" transform="translate(29.116 0.001)" fill="#c0afff"/>
          <path id="Path_921013" data-name="Path 921013" d="M3.507,0A2.332,2.332,0,0,1,5.8,2.293,2.186,2.186,0,0,1,3.507,4.41,2.334,2.334,0,0,1,1.214,2.117,2.187,2.187,0,0,1,3.507,0" transform="translate(0.903 0.001)" fill="#6bfcf2"/>
          <path id="Path_921014" data-name="Path 921014" d="M3.351,40.464a3.351,3.351,0,1,1,0,6.7,3.351,3.351,0,1,1,0-6.7" transform="translate(0 30.094)" fill="#6bfcf2"/>
          <path id="Path_921015" data-name="Path 921015" d="M2.293,20.231a2.294,2.294,0,0,1,0,4.588,2.294,2.294,0,0,1,0-4.588" transform="translate(0 15.047)" fill="#6bfcf2"/>
          <path id="Path_921016" data-name="Path 921016" d="M17.468,55.082a2.335,2.335,0,0,1-2.295-2.291V43.969a2.334,2.334,0,0,1,2.295-2.291,2.186,2.186,0,0,1,2.117,2.291v8.821a2.311,2.311,0,0,1-2.117,2.291" transform="translate(11.284 30.997)" fill="#7d0ede"/>
          <path id="Path_921017" data-name="Path 921017" d="M21.21,60.725a2.335,2.335,0,0,1-2.293-2.291V36.383a2.292,2.292,0,1,1,4.584,0V58.434a2.334,2.334,0,0,1-2.291,2.291" transform="translate(14.069 25.354)" fill="#7d0ede"/>
          <path id="Path_921018" data-name="Path 921018" d="M25.054,57.942a2.335,2.335,0,0,1-2.293-2.291V40.126a2.292,2.292,0,1,1,4.584,0V55.65a2.614,2.614,0,0,1-2.291,2.291" transform="translate(16.928 28.138)" fill="#7d0ede"/>
          <path id="Path_921019" data-name="Path 921019" d="M28.8,59.747A2.333,2.333,0,0,1,26.5,57.456V37.7a2.292,2.292,0,1,1,4.584,0V57.456A2.335,2.335,0,0,1,28.8,59.747" transform="translate(19.712 26.332)" fill="#7d0ede"/>
          <path id="Path_921020" data-name="Path 921020" d="M32.641,56.061a2.333,2.333,0,0,1-2.293-2.291V42.657a2.292,2.292,0,1,1,4.584,0V53.769a2.614,2.614,0,0,1-2.291,2.291" transform="translate(22.57 30.019)" fill="#7d0ede"/>
          <path id="Path_921021" data-name="Path 921021" d="M36.382,57.942a2.333,2.333,0,0,1-2.291-2.291V40.126a2.292,2.292,0,1,1,4.584,0V55.65a2.335,2.335,0,0,1-2.293,2.291" transform="translate(25.354 28.138)" fill="#7d0ede"/>
          <path id="Path_921022" data-name="Path 921022" d="M40.228,63.509a2.333,2.333,0,0,1-2.293-2.291V32.642a2.292,2.292,0,1,1,4.584,0V61.218a2.613,2.613,0,0,1-2.291,2.291" transform="translate(28.213 22.57)" fill="#7d0ede"/>
          <path id="Path_921023" data-name="Path 921023" d="M66.54,51.321H13.621a2.293,2.293,0,0,1,0-4.586H66.54a2.293,2.293,0,1,1,0,4.586" transform="translate(8.426 34.758)" fill="#3d034b"/>
          <path id="Path_921024" data-name="Path 921024" d="M20.685,29.228a2.16,2.16,0,0,1-1.587-.706,2.235,2.235,0,0,1,0-3.175L25.447,19a2.246,2.246,0,0,1,3.177,3.175l-6.351,6.351a2.161,2.161,0,0,1-1.589.706" transform="translate(13.712 13.637)" fill="#d49cfe"/>
          <path id="Path_921025" data-name="Path 921025" d="M33.308,29.228a2.155,2.155,0,0,1-1.587-.706l-6.352-6.351A2.246,2.246,0,1,1,28.546,19l6.349,6.351a2.235,2.235,0,0,1,0,3.175,2.157,2.157,0,0,1-1.587.706" transform="translate(18.376 13.637)" fill="#d49cfe"/>
          <path id="Path_921026" data-name="Path 921026" d="M33.331,29.228a2.161,2.161,0,0,1-1.589-.706,2.235,2.235,0,0,1,0-3.175L38.093,19a2.245,2.245,0,1,1,3.175,3.175l-6.351,6.351a2.16,2.16,0,0,1-1.587.706" transform="translate(23.115 13.637)" fill="#d49cfe"/>
          <path id="Path_921027" data-name="Path 921027" d="M30.36,9.543H14.837A2.335,2.335,0,0,1,12.544,7.25a2.335,2.335,0,0,1,2.293-2.293H30.36A2.335,2.335,0,0,1,32.653,7.25,2.335,2.335,0,0,1,30.36,9.543" transform="translate(9.329 3.687)" fill="#d49cfe"/>
          <path id="Path_921028" data-name="Path 921028" d="M30.36,13.387H14.837a2.293,2.293,0,1,1,0-4.586H30.36a2.293,2.293,0,1,1,0,4.586" transform="translate(9.329 6.546)" fill="#d49cfe"/>
          <path id="Path_921029" data-name="Path 921029" d="M41.069,17.389a3.523,3.523,0,0,1,0,4.762,3.523,3.523,0,0,1-4.762,0,3.523,3.523,0,0,1,0-4.762,3.523,3.523,0,0,1,4.762,0" transform="translate(26.314 12.244)" fill="#9d0388"/>
          <path id="Path_921030" data-name="Path 921030" d="M34.8,23.662a3.368,3.368,0,0,1-4.762,4.764A3.368,3.368,0,1,1,34.8,23.662" transform="translate(21.649 16.91)" fill="#9d0388"/>
          <path id="Path_921031" data-name="Path 921031" d="M28.425,17.389a3.523,3.523,0,0,1,0,4.762,3.525,3.525,0,0,1-4.764,0,3.523,3.523,0,0,1,0-4.762,3.525,3.525,0,0,1,4.764,0" transform="translate(16.908 12.244)" fill="#9d0388"/>
          <path id="Path_921032" data-name="Path 921032" d="M22.152,23.662a3.521,3.521,0,0,1,0,4.764,3.521,3.521,0,0,1-4.76,0,3.521,3.521,0,0,1,0-4.764,3.52,3.52,0,0,1,4.76,0" transform="translate(12.245 16.91)" fill="#9d0388"/>
        </g>
      </g>
    </g>
  </g>
</svg>
